<svg width="64" height="23" viewBox="0 0 64 23" fill="none" xmlns="http://www.w3.org/2000/svg">
<path d="M9.624 8.976H18.048V10.272C18.048 12.672 17.28 14.616 15.744 16.104C14.208 17.592 12.224 18.336 9.792 18.336C7.2 18.336 5.048 17.496 3.336 15.816C1.64 14.12 0.792 12.056 0.792 9.624C0.792 7.176 1.632 5.104 3.312 3.408C5.008 1.712 7.104 0.863999 9.6 0.863999C11.152 0.863999 12.576 1.216 13.872 1.92C15.168 2.624 16.184 3.576 16.92 4.776L14.088 6.408C13.688 5.72 13.08 5.16 12.264 4.728C11.448 4.296 10.552 4.08 9.576 4.08C7.96 4.08 6.64 4.608 5.616 5.664C4.592 6.688 4.08 8.008 4.08 9.624C4.08 11.208 4.6 12.52 5.64 13.56C6.68 14.584 8.072 15.096 9.816 15.096C11.08 15.096 12.136 14.816 12.984 14.256C13.832 13.696 14.408 12.912 14.712 11.904H9.624V8.976ZM21.7958 4.56C21.2838 4.56 20.8358 4.376 20.4518 4.008C20.0838 3.624 19.8998 3.176 19.8998 2.664C19.8998 2.152 20.0838 1.704 20.4518 1.32C20.8358 0.935999 21.2838 0.743999 21.7958 0.743999C22.3238 0.743999 22.7718 0.935999 23.1398 1.32C23.5238 1.704 23.7158 2.152 23.7158 2.664C23.7158 3.176 23.5238 3.624 23.1398 4.008C22.7718 4.376 22.3238 4.56 21.7958 4.56ZM23.3558 18H20.2598V6H23.3558V18ZM27.7254 4.56C27.2134 4.56 26.7654 4.376 26.3814 4.008C26.0134 3.624 25.8294 3.176 25.8294 2.664C25.8294 2.152 26.0134 1.704 26.3814 1.32C26.7654 0.935999 27.2134 0.743999 27.7254 0.743999C28.2534 0.743999 28.7014 0.935999 29.0694 1.32C29.4534 1.704 29.6454 2.152 29.6454 2.664C29.6454 3.176 29.4534 3.624 29.0694 4.008C28.7014 4.376 28.2534 4.56 27.7254 4.56ZM29.2854 18H26.1894V6H29.2854V18ZM34.8814 9.408C34.8814 9.92 35.6094 10.36 37.0654 10.728C37.5774 10.84 38.0414 10.976 38.4574 11.136C38.8734 11.28 39.2894 11.496 39.7054 11.784C40.1374 12.056 40.4734 12.424 40.7134 12.888C40.9534 13.352 41.0734 13.888 41.0734 14.496C41.0734 15.728 40.6094 16.68 39.6814 17.352C38.7534 18.008 37.6094 18.336 36.2494 18.336C33.7854 18.336 32.1054 17.384 31.2094 15.48L33.8974 13.968C34.2654 15.008 35.0494 15.528 36.2494 15.528C37.3534 15.528 37.9054 15.184 37.9054 14.496C37.9054 13.984 37.1774 13.544 35.7214 13.176C35.1774 13.032 34.7134 12.888 34.3294 12.744C33.9454 12.6 33.5294 12.392 33.0814 12.12C32.6334 11.832 32.2894 11.472 32.0494 11.04C31.8254 10.592 31.7134 10.072 31.7134 9.48C31.7134 8.296 32.1454 7.368 33.0094 6.696C33.8894 6.008 34.9774 5.664 36.2734 5.664C37.2494 5.664 38.1374 5.888 38.9374 6.336C39.7374 6.768 40.3694 7.392 40.8334 8.208L38.1934 9.648C37.8094 8.832 37.1694 8.424 36.2734 8.424C35.8734 8.424 35.5374 8.52 35.2654 8.712C35.0094 8.888 34.8814 9.12 34.8814 9.408ZM49.5769 6V8.976H46.8649V13.968C46.8649 14.384 46.9689 14.688 47.1769 14.88C47.3849 15.072 47.6889 15.184 48.0889 15.216C48.4889 15.232 48.9849 15.224 49.5769 15.192V18C47.4809 18.24 45.9849 18.048 45.0889 17.424C44.2089 16.784 43.7689 15.632 43.7689 13.968V8.976H41.6809V6H43.7689V3.576L46.8649 2.64V6H49.5769ZM57.1776 14.064L59.8416 6H63.1536L58.7856 18C58.1616 19.728 57.3296 20.976 56.2896 21.744C55.2656 22.528 53.9856 22.88 52.4496 22.8V19.92C53.2656 19.936 53.9216 19.76 54.4176 19.392C54.9136 19.024 55.3056 18.432 55.5936 17.616L50.6736 6H54.0576L57.1776 14.064Z" fill="white"/>
</svg>
