<svg width="63" height="63" viewBox="0 0 63 63" fill="none" xmlns="http://www.w3.org/2000/svg">
<rect x="0.337891" y="0.791016" width="62" height="62" fill="white"/>
<path d="M37.7451 20.5006H31.4611V20.5093C33.1577 20.5976 34.7556 21.3337 35.9253 22.5657C37.095 23.7978 37.7472 25.4317 37.7475 27.1306C37.7475 28.8891 37.0489 30.5756 35.8054 31.8191C34.562 33.0625 32.8755 33.7611 31.1169 33.7611C29.5221 33.7633 27.9804 33.1885 26.7764 32.1427L26.7578 32.1578C28.8475 34.1275 31.6118 35.2228 34.4835 35.219C36.3615 35.22 38.2101 34.7517 39.8612 33.8566C41.5123 32.9615 42.9135 31.6681 43.9376 30.0938C44.161 29.1221 44.2736 28.1282 44.2731 27.1311C44.2776 24.2742 43.3476 21.4941 41.6251 19.2148C40.5048 20.0501 39.1448 20.501 37.7475 20.5006" fill="url(#paint0_linear_3588_4547)"/>
<path d="M31.1157 13.9746H31.081C27.5982 13.9838 24.2612 15.3736 21.8014 17.8392C19.3417 20.3048 17.9599 23.6451 17.959 27.1279C17.959 28.8556 18.2993 30.5664 18.9605 32.1627C19.6217 33.7589 20.5908 35.2092 21.8125 36.4309C23.0343 37.6526 24.4847 38.6216 26.0809 39.2828C27.6771 39.9439 29.388 40.2841 31.1157 40.284C34.0902 40.2838 36.977 39.2759 39.3053 37.4248C41.6336 35.5737 43.2662 32.9885 43.937 30.0906C42.9129 31.6648 41.5116 32.9583 39.8606 33.8533C38.2095 34.7484 36.3609 35.2167 34.4829 35.2157C31.6112 35.2196 28.8469 34.1243 26.7572 32.1545L26.7757 32.1394C26.056 31.5178 25.4788 30.7483 25.0835 29.8833C24.6882 29.0184 24.4842 28.0783 24.4852 27.1273C24.4852 25.3697 25.1831 23.684 26.4254 22.4407C27.6677 21.1973 29.3529 20.4982 31.1105 20.4968H31.1482C31.2525 20.4968 31.3568 20.5003 31.4599 20.5055V20.4968H37.7439C37.7969 20.4968 37.85 20.4968 37.9033 20.4968H37.9195C37.9717 20.4968 38.0238 20.4939 38.0754 20.491H38.0794C38.1322 20.491 38.1843 20.4846 38.2365 20.4806H38.2521C38.3025 20.4765 38.3523 20.4719 38.4022 20.4672H38.4114C38.4624 20.462 38.5129 20.4562 38.5638 20.4493H38.5818C38.6293 20.4429 38.678 20.4365 38.7255 20.429H38.7388C38.7881 20.4215 38.8373 20.4128 38.886 20.4041L38.9057 20.4006L39.0436 20.3739L39.061 20.3705L39.2035 20.3392L39.2267 20.3334C39.2702 20.3235 39.3125 20.3131 39.3554 20.3021L39.3797 20.2957L39.5147 20.2586L39.5408 20.2511L39.6613 20.2152L39.692 20.2059L39.8195 20.1642L39.8496 20.1537L39.9615 20.1143L39.9956 20.1016L40.1115 20.057L40.1509 20.0413L40.2552 19.9985L40.2929 19.9822L40.4001 19.9353L40.4459 19.9144L40.5444 19.8681L40.5849 19.8484L40.6799 19.8009L40.7344 19.7731L40.8248 19.725L40.8671 19.7018L40.9558 19.6525L41.0137 19.6201L41.0989 19.5697L41.1435 19.543L41.2264 19.4909L41.2843 19.4538L41.3643 19.4005L41.4112 19.3692L41.4871 19.3165L41.5451 19.2747L41.6204 19.2168C41.6441 19.2487 41.6685 19.28 41.6922 19.3124C41.6685 19.28 41.6447 19.2487 41.6204 19.2168C42.4404 18.6108 43.107 17.8211 43.5668 16.9111C44.0267 16.0011 44.267 14.996 44.2684 13.9763L31.1157 13.9746Z" fill="url(#paint1_linear_3588_4547)"/>
<path d="M31.1142 42.7517C28.4944 42.753 25.9163 42.0949 23.6177 40.8381C21.319 39.5812 19.3737 37.766 17.9609 35.5597V35.8773C17.9716 39.3624 19.3609 42.7018 21.8253 45.1662C24.2897 47.6306 27.629 49.0198 31.1142 49.0305C34.5994 49.0198 37.9388 47.6306 40.4032 45.1662C42.8676 42.7018 44.2568 39.3624 44.2675 35.8773V35.5557C42.8549 37.7632 40.9092 39.5796 38.6099 40.8372C36.3105 42.0948 33.7315 42.7532 31.1107 42.7517" fill="url(#paint2_linear_3588_4547)"/>
<defs>
<linearGradient id="paint0_linear_3588_4547" x1="35.4629" y1="22.5117" x2="35.5214" y2="31.9862" gradientUnits="userSpaceOnUse">
<stop stop-color="#D51AFF"/>
<stop offset="0.502" stop-color="#4E6AFE"/>
<stop offset="1" stop-color="#8BF3FE"/>
</linearGradient>
<linearGradient id="paint1_linear_3588_4547" x1="17.959" y1="27.1293" x2="44.2684" y2="27.1293" gradientUnits="userSpaceOnUse">
<stop stop-color="#D51AFF"/>
<stop offset="0.502" stop-color="#4E6AFE"/>
<stop offset="1" stop-color="#8BF3FE"/>
</linearGradient>
<linearGradient id="paint2_linear_3588_4547" x1="44.6621" y1="42.2931" x2="18.6975" y2="42.2931" gradientUnits="userSpaceOnUse">
<stop stop-color="#D51AFF"/>
<stop offset="0.502" stop-color="#4E6AFE"/>
<stop offset="1" stop-color="#8BF3FE"/>
</linearGradient>
</defs>
</svg>
