<svg width="62" height="82" viewBox="0 0 62 82" fill="none" xmlns="http://www.w3.org/2000/svg">
<path d="M46.2828 15.1577H31.3916V15.1781C35.4119 15.3848 39.1985 17.1076 41.9704 19.9911C44.7422 22.8745 46.2878 26.6987 46.2883 30.6748C46.2883 34.7905 44.6329 38.7376 41.6863 41.6479C38.7396 44.5582 34.7431 46.1931 30.5759 46.1931C26.7968 46.1983 23.1433 44.8529 20.29 42.4054L20.2461 42.4407C25.198 47.0508 31.7486 49.6143 38.5537 49.6052C43.0042 49.6076 47.3847 48.5115 51.2973 46.4167C55.2098 44.3219 58.5304 41.2946 60.9572 37.6101C61.4866 35.3359 61.7533 33.0097 61.7522 30.6761C61.7629 23.9895 59.5592 17.4829 55.4771 12.1484C52.8225 14.1032 49.5996 15.1587 46.2883 15.1577" fill="url(#paint0_linear_3358_16003)"/>
<path d="M30.8813 0H30.7997C22.625 0.0216011 14.7924 3.28357 9.01893 9.07084C3.24543 14.8581 0.0021316 22.6984 0 30.8731C-3.93326e-09 34.9285 0.798776 38.9441 2.35072 42.6907C3.90267 46.4373 6.17738 49.8416 9.04499 52.709C11.9126 55.5765 15.317 57.8511 19.0636 59.4029C22.8103 60.9547 26.826 61.7533 30.8813 61.7531C37.863 61.7525 44.6387 59.3869 50.1037 55.042C55.5687 50.697 59.4007 44.629 60.9751 37.8271C58.5714 41.5222 55.2824 44.5582 51.407 46.659C47.5317 48.7599 43.1927 49.8591 38.7846 49.8567C32.0442 49.8658 25.5558 47.2949 20.651 42.6716L20.6945 42.6362C19.0052 41.1772 17.6504 39.3709 16.7226 37.3407C15.7948 35.3104 15.3158 33.104 15.3182 30.8718C15.3182 26.7463 16.9562 22.7897 19.8722 19.8714C22.7882 16.9531 26.7436 15.312 30.8691 15.3087H30.9575C31.2023 15.3087 31.4471 15.3169 31.6892 15.3291V15.3087H46.4389C46.5631 15.3087 46.6878 15.3087 46.8129 15.3087H46.851C46.9734 15.3087 47.0958 15.3019 47.2169 15.2951H47.2264C47.3502 15.2951 47.4726 15.2802 47.595 15.2706H47.6317C47.75 15.2611 47.867 15.2502 47.9839 15.2394H48.0057C48.1254 15.2271 48.2437 15.2135 48.3634 15.1972H48.4055C48.5171 15.1822 48.6313 15.1673 48.7428 15.1496H48.7741C48.8897 15.1319 49.0053 15.1115 49.1196 15.0911L49.1658 15.083L49.4895 15.0204L49.5303 15.0122L49.8649 14.9388L49.9193 14.9252C50.0213 14.9021 50.1206 14.8776 50.2212 14.8518L50.2783 14.8368L50.5952 14.7497L50.6564 14.7321L50.9393 14.6477L51.0114 14.626L51.3106 14.5281L51.3813 14.5036L51.6438 14.4111L51.7241 14.3812L51.9961 14.2764L52.0886 14.2397L52.3334 14.1391L52.4218 14.101L52.6734 13.9908L52.7808 13.9419L53.012 13.8331L53.1072 13.7868L53.3303 13.6753L53.4581 13.61L53.6703 13.4971L53.7696 13.4427L53.9777 13.3271L54.1137 13.251L54.3136 13.1326L54.4183 13.0701L54.6128 12.9477L54.7488 12.8606L54.9365 12.7355L55.0467 12.6621L55.2248 12.5383L55.3609 12.4404L55.5376 12.3044C55.5934 12.3792 55.6505 12.4526 55.7063 12.5288C55.6505 12.4526 55.5948 12.3792 55.5376 12.3044C57.4623 10.882 59.027 9.02847 60.1063 6.89246C61.1857 4.75645 61.7497 2.3973 61.7531 0.00407986L30.8813 0Z" fill="url(#paint1_linear_3358_16003)"/>
<path d="M30.8765 67.3767C24.7266 67.3797 18.6749 65.847 13.2789 62.9198C7.88295 59.9926 3.31637 55.765 0 50.6266V51.3662C0.0251125 59.4831 3.28623 67.2604 9.07126 73C14.8563 78.7395 22.6953 81.975 30.8765 81.9999C39.0578 81.975 46.8968 78.7395 52.6818 73C58.4668 67.2604 61.728 59.4831 61.7531 51.3662V50.6172C58.4372 55.7586 53.8698 59.9888 48.4722 62.9178C43.0746 65.8468 37.0206 67.3802 30.8684 67.3767" fill="url(#paint2_linear_3358_16003)"/>
<defs>
<linearGradient id="paint0_linear_3358_16003" x1="40.8747" y1="19.8645" x2="41.0099" y2="42.0391" gradientUnits="userSpaceOnUse">
<stop stop-color="#D51AFF"/>
<stop offset="0.502" stop-color="#4E6AFE"/>
<stop offset="1" stop-color="#8BF3FE"/>
</linearGradient>
<linearGradient id="paint1_linear_3358_16003" x1="0" y1="30.8765" x2="61.7531" y2="30.8765" gradientUnits="userSpaceOnUse">
<stop stop-color="#D51AFF"/>
<stop offset="0.502" stop-color="#4E6AFE"/>
<stop offset="1" stop-color="#8BF3FE"/>
</linearGradient>
<linearGradient id="paint2_linear_3358_16003" x1="62.6794" y1="66.3085" x2="1.72909" y2="66.3085" gradientUnits="userSpaceOnUse">
<stop stop-color="#D51AFF"/>
<stop offset="0.502" stop-color="#4E6AFE"/>
<stop offset="1" stop-color="#8BF3FE"/>
</linearGradient>
</defs>
</svg>
