<svg width="48" height="48" viewBox="0 0 48 48" fill="none" xmlns="http://www.w3.org/2000/svg">
<path d="M29.8868 0H18.1132C8.10956 0 0 8.10956 0 18.1132V29.8868C0 39.8904 8.10956 48 18.1132 48H29.8868C39.8904 48 48 39.8904 48 29.8868V18.1132C48 8.10956 39.8904 0 29.8868 0Z" fill="#F4FAFF"/>
<path d="M27.2681 20.0256L20.9828 20.8136L20.7564 21.8569L21.9908 22.0851C22.7969 22.278 22.9572 22.5678 22.7815 23.372L20.7564 32.8914C20.2248 35.353 21.0444 36.5141 22.9744 36.5141C24.4791 36.5208 25.9251 35.9307 26.9955 34.873L27.2373 33.731C26.7035 34.162 26.0396 34.3998 25.3535 34.4057C24.5982 34.4057 24.3238 33.8759 24.5194 32.9431L27.2681 20.0256Z" fill="url(#paint0_linear_1716_50518)"/>
<path d="M27.4608 14.2929C27.4608 14.8358 27.2998 15.3666 26.9982 15.818C26.6966 16.2694 26.2678 16.6212 25.7662 16.829C25.2647 17.0368 24.7127 17.0911 24.1802 16.9852C23.6477 16.8793 23.1586 16.6179 22.7747 16.234C22.3908 15.8501 22.1294 15.3609 22.0234 14.8284C21.9175 14.296 21.9719 13.744 22.1797 13.2424C22.3874 12.7408 22.7393 12.3121 23.1907 12.0105C23.6421 11.7088 24.1728 11.5479 24.7158 11.5479C25.4438 11.5479 26.142 11.8371 26.6568 12.3519C27.1716 12.8667 27.4608 13.5649 27.4608 14.2929V14.2929Z" fill="url(#paint1_linear_1716_50518)"/>
<defs>
<linearGradient id="paint0_linear_1716_50518" x1="19.0768" y1="17.5359" x2="36.3755" y2="23.8033" gradientUnits="userSpaceOnUse">
<stop stop-color="#D51AFF"/>
<stop offset="0.502" stop-color="#4E6AFE"/>
<stop offset="1" stop-color="#8BF3FE"/>
</linearGradient>
<linearGradient id="paint1_linear_1716_50518" x1="20.719" y1="10.7188" x2="29.6569" y2="18.7234" gradientUnits="userSpaceOnUse">
<stop stop-color="#D51AFF"/>
<stop offset="0.502" stop-color="#4E6AFE"/>
<stop offset="1" stop-color="#8BF3FE"/>
</linearGradient>
</defs>
</svg>
