<svg width="80" height="80" viewBox="0 0 80 80" fill="none" xmlns="http://www.w3.org/2000/svg">
<path d="M51.999 0H27.999C12.5351 0 -0.000976562 12.536 -0.000976562 28V52C-0.000976562 67.464 12.5351 80 27.999 80H51.999C67.463 80 79.999 67.464 79.999 52V28C79.999 12.536 67.463 0 51.999 0Z" fill="#F4FAFF"/>
<path d="M24.8262 37.8639H55.4322C55.7833 37.8571 56.1322 37.9203 56.4585 38.05C56.7849 38.1796 57.0821 38.373 57.3328 38.6188C57.5835 38.8647 57.7826 39.1581 57.9186 39.4819C58.0545 39.8056 58.1246 40.1533 58.1246 40.5044C58.1246 40.8556 58.0545 41.2032 57.9186 41.5269C57.7826 41.8507 57.5835 42.1441 57.3328 42.39C57.0821 42.6358 56.7849 42.8292 56.4585 42.9589C56.1322 43.0885 55.7833 43.1517 55.4322 43.1449H24.8262C24.4751 43.1517 24.1262 43.0885 23.7998 42.9589C23.4735 42.8292 23.1763 42.6358 22.9256 42.39C22.6749 42.1441 22.4757 41.8507 22.3398 41.5269C22.2038 41.2032 22.1338 40.8556 22.1338 40.5044C22.1338 40.1533 22.2038 39.8056 22.3398 39.4819C22.4757 39.1581 22.6749 38.8647 22.9256 38.6188C23.1763 38.373 23.4735 38.1796 23.7998 38.05C24.1262 37.9203 24.4751 37.8571 24.8262 37.8639Z" fill="url(#paint0_linear_212_429)"/>
<path d="M37.4884 55.807V25.202C37.4807 24.4939 37.7544 23.8117 38.2495 23.3054C38.7445 22.7991 39.4204 22.5101 40.1284 22.502C40.8365 22.5101 41.5123 22.7991 42.0074 23.3054C42.5024 23.8117 42.7762 24.4939 42.7684 25.202V55.807C42.7762 56.515 42.5024 57.1972 42.0074 57.7035C41.5123 58.2098 40.8365 58.4988 40.1284 58.507C39.4204 58.4988 38.7445 58.2098 38.2495 57.7035C37.7544 57.1972 37.4807 56.515 37.4884 55.807Z" fill="url(#paint1_linear_212_429)"/>
<defs>
<linearGradient id="paint0_linear_212_429" x1="60.6079" y1="18.9485" x2="59.7623" y2="58.8124" gradientUnits="userSpaceOnUse">
<stop stop-color="#88EDFE"/>
<stop offset="0.519" stop-color="#655CFE"/>
<stop offset="1" stop-color="#C224FE"/>
</linearGradient>
<linearGradient id="paint1_linear_212_429" x1="18.5795" y1="20.0176" x2="58.4307" y2="20.8623" gradientUnits="userSpaceOnUse">
<stop stop-color="#88EDFE"/>
<stop offset="0.519" stop-color="#655CFE"/>
<stop offset="1" stop-color="#C224FE"/>
</linearGradient>
</defs>
</svg>
