<svg width="53" height="53" viewBox="0 0 53 53" fill="none" xmlns="http://www.w3.org/2000/svg">
<path d="M33 0H20C8.9543 0 0 8.9543 0 20V33C0 44.0457 8.9543 53 20 53H33C44.0457 53 53 44.0457 53 33V20C53 8.9543 44.0457 0 33 0Z" fill="#444A5B"/>
<path d="M33.9167 35.057H19.0857C18.7778 35.0596 18.4789 34.9539 18.2412 34.7582C18.0035 34.5626 17.8422 34.2896 17.7857 33.987C17.7097 33.57 17.4517 32.049 17.1547 30.287C16.7507 27.872 16.2877 25.133 16.1417 24.36C16.0131 24.0246 15.9995 23.6561 16.103 23.3122C16.2065 22.9683 16.4213 22.6686 16.7137 22.46C16.7897 22.388 16.8757 22.306 16.9647 22.217L17.5917 21.584V23.284H35.4047V21.584L36.0297 22.217C36.1187 22.307 36.2047 22.387 36.2807 22.459C36.5735 22.6672 36.789 22.9667 36.8934 23.3105C36.9978 23.6543 36.9852 24.0231 36.8577 24.359C36.7127 25.128 36.2507 27.859 35.8437 30.27V30.29V30.299C35.5437 32.054 35.2907 33.57 35.2147 33.986C35.1585 34.2885 34.9977 34.5616 34.7604 34.7574C34.523 34.9533 34.2244 35.0593 33.9167 35.057ZM23.1767 28.983V29.515L26.4957 32.861L29.8217 29.521V28.983H27.8277V26.199H25.1697V28.983H23.1767ZM26.4957 32.231L23.7157 29.431H25.6157V26.643H27.3877V29.427H29.2877L26.4967 32.227L26.4957 32.231ZM33.9137 22.221H19.0837V21.151C19.0804 21.0105 19.1055 20.8708 19.1575 20.7403C19.2094 20.6097 19.2871 20.4909 19.3859 20.3911C19.4848 20.2912 19.6027 20.2123 19.7327 20.159C19.8628 20.1057 20.0022 20.0792 20.1427 20.081H32.8537C32.9942 20.0792 33.1336 20.1057 33.2636 20.159C33.3936 20.2123 33.5116 20.2912 33.6104 20.3911C33.7092 20.4909 33.7869 20.6097 33.8389 20.7403C33.8908 20.8708 33.9159 21.0105 33.9127 21.151V22.221H33.9137ZM31.7937 19.012H21.2017C21.1986 18.8716 21.2238 18.732 21.2758 18.6016C21.3278 18.4711 21.4055 18.3525 21.5043 18.2527C21.6031 18.153 21.721 18.0741 21.851 18.0209C21.9809 17.9677 22.1203 17.9412 22.2607 17.943H30.7347C30.8751 17.941 31.0145 17.9675 31.1445 18.0206C31.2745 18.0738 31.3925 18.1526 31.4913 18.2524C31.5902 18.3522 31.6679 18.4709 31.7199 18.6014C31.7718 18.7319 31.7969 18.8715 31.7937 19.012Z" fill="#C7C9CE"/>
</svg>
