<svg width="48" height="48" viewBox="0 0 48 48" fill="none" xmlns="http://www.w3.org/2000/svg">
<path d="M17.8202 41.34C17.4402 41.34 17.0602 41.2 16.7602 40.9C16.1802 40.32 16.1802 39.36 16.7602 38.78L29.8002 25.74C30.7602 24.78 30.7602 23.22 29.8002 22.26L16.7602 9.22004C16.1802 8.64004 16.1802 7.68004 16.7602 7.10004C17.3402 6.52004 18.3002 6.52004 18.8802 7.10004L31.9202 20.14C32.9402 21.16 33.5202 22.54 33.5202 24C33.5202 25.46 32.9602 26.84 31.9202 27.86L18.8802 40.9C18.5802 41.18 18.2002 41.34 17.8202 41.34Z" fill="#292D32"/>
</svg>
