<svg width="32" height="32" viewBox="0 0 32 32" fill="none" xmlns="http://www.w3.org/2000/svg">
<path d="M12.2718 19.0718C11.0878 19.0718 10.1438 20.0318 10.1438 21.2158C10.1438 22.3998 11.1038 23.3438 12.2718 23.3438C13.4558 23.3438 14.4158 22.3838 14.4158 21.2158C14.4158 20.0318 13.4558 19.0718 12.2718 19.0718Z" fill="#303548"/>
<path d="M22.704 0H9.296C3.472 0 0 3.472 0 9.296V22.688C0 28.528 3.472 32 9.296 32H22.688C28.512 32 31.984 28.528 31.984 22.704V9.296C32 3.472 28.528 0 22.704 0ZM24.192 12.48C24.192 13.456 23.776 14.32 23.072 14.832C22.624 15.152 22.08 15.328 21.504 15.328C21.168 15.328 20.832 15.264 20.48 15.152L16.816 13.936C16.8 13.936 16.768 13.92 16.752 13.904V21.2C16.752 23.664 14.736 25.68 12.272 25.68C9.808 25.68 7.792 23.664 7.792 21.2C7.792 18.736 9.808 16.72 12.272 16.72C13.056 16.72 13.776 16.944 14.416 17.28V10.608V9.632C14.416 8.656 14.832 7.792 15.536 7.28C16.256 6.768 17.2 6.64 18.128 6.96L21.792 8.176C23.168 8.64 24.208 10.08 24.208 11.52V12.48H24.192Z" fill="#303548"/>
</svg>
