<svg width="53" height="53" viewBox="0 0 53 53" fill="none" xmlns="http://www.w3.org/2000/svg">
<path d="M20 0H33C35.6264 0 38.2272 0.517315 40.6537 1.52241C43.0802 2.5275 45.285 4.00069 47.1421 5.85786C48.9993 7.71504 50.4725 9.91982 51.4776 12.3463C52.4827 14.7728 53 17.3736 53 20V33C53 35.6264 52.4827 38.2272 51.4776 40.6537C50.4725 43.0802 48.9993 45.285 47.1421 47.1421C45.285 48.9993 43.0802 50.4725 40.6537 51.4776C38.2272 52.4827 35.6264 53 33 53H20C14.6957 53 9.60859 50.8929 5.85786 47.1421C2.10714 43.3914 0 38.3043 0 33L0 20C0 14.6957 2.10714 9.60859 5.85786 5.85786C9.60859 2.10714 14.6957 0 20 0V0Z" fill="#F4FAFF"/>
<path d="M26.4585 21.12C25.644 21.1208 24.8573 21.416 24.2432 21.9511C23.6292 22.4862 23.2293 23.2252 23.1171 24.032C23.005 24.8387 23.1882 25.6588 23.633 26.3411C24.0777 27.0234 24.7541 27.522 25.5375 27.745V38.245C25.5375 38.4892 25.6345 38.7235 25.8073 38.8962C25.98 39.0689 26.2142 39.166 26.4585 39.166C26.7028 39.166 26.937 39.0689 27.1098 38.8962C27.2825 38.7235 27.3795 38.4892 27.3795 38.245V27.745C28.1629 27.522 28.8393 27.0234 29.2841 26.3411C29.7288 25.6588 29.912 24.8387 29.7999 24.032C29.6877 23.2252 29.2878 22.4862 28.6738 21.9511C28.0597 21.416 27.273 21.1208 26.4585 21.12ZM26.4585 26.032C26.1549 26.032 25.8581 25.9419 25.6057 25.7733C25.3533 25.6046 25.1565 25.3649 25.0404 25.0844C24.9242 24.8039 24.8938 24.4953 24.953 24.1975C25.0122 23.8997 25.1584 23.6262 25.3731 23.4116C25.5878 23.1969 25.8613 23.0507 26.1591 22.9915C26.4568 22.9322 26.7654 22.9626 27.0459 23.0788C27.3264 23.195 27.5661 23.3917 27.7348 23.6442C27.9035 23.8966 27.9935 24.1934 27.9935 24.497C27.993 24.9039 27.8311 25.294 27.5433 25.5818C27.2556 25.8695 26.8655 26.0314 26.4585 26.032Z" fill="url(#paint0_linear_212_390)"/>
<path d="M22.1986 19.573C22.026 19.401 21.7923 19.3044 21.5486 19.3044C21.3049 19.3044 21.0712 19.401 20.8986 19.573C20.2194 20.251 19.6805 21.0563 19.3128 21.9429C18.9451 22.8294 18.7559 23.7797 18.7559 24.7395C18.7559 25.6992 18.9451 26.6495 19.3128 27.5361C19.6805 28.4226 20.2194 29.2279 20.8986 29.906C21.0743 30.0611 21.3025 30.1435 21.5368 30.1363C21.7711 30.129 21.9938 30.0327 22.1596 29.8669C22.3253 29.7012 22.4217 29.4785 22.4289 29.2442C22.4362 29.0099 22.3538 28.7816 22.1986 28.606C21.6909 28.0987 21.2881 27.4964 21.0133 26.8333C20.7385 26.1703 20.597 25.4597 20.597 24.742C20.597 24.0243 20.7385 23.3136 21.0133 22.6506C21.2881 21.9876 21.6909 21.3852 22.1986 20.878C22.2845 20.7924 22.3527 20.6907 22.3992 20.5787C22.4457 20.4668 22.4696 20.3467 22.4696 20.2255C22.4696 20.1042 22.4457 19.9842 22.3992 19.8722C22.3527 19.7602 22.2845 19.6585 22.1986 19.573Z" fill="url(#paint1_linear_212_390)"/>
<path d="M32.022 19.573C31.8463 19.4178 31.618 19.3354 31.3837 19.3427C31.1494 19.3499 30.9267 19.4462 30.761 19.612C30.5952 19.7777 30.4989 20.0004 30.4917 20.2347C30.4844 20.469 30.5668 20.6973 30.722 20.873C31.7452 21.8986 32.3198 23.2882 32.3198 24.737C32.3198 26.1857 31.7452 27.5753 30.722 28.601C30.5668 28.7766 30.4844 29.0049 30.4917 29.2392C30.4989 29.4735 30.5952 29.6962 30.761 29.862C30.9267 30.0277 31.1494 30.124 31.3837 30.1313C31.618 30.1385 31.8463 30.0562 32.022 29.901C33.3904 28.5298 34.1589 26.6717 34.1589 24.7345C34.1589 22.7973 33.3904 20.9392 32.022 19.568V19.573Z" fill="url(#paint2_linear_212_390)"/>
<path d="M19.4166 18.096C19.5108 18.0127 19.587 17.9111 19.6405 17.7972C19.6939 17.6834 19.7235 17.5599 19.7274 17.4342C19.7313 17.3085 19.7094 17.1834 19.6631 17.0665C19.6168 16.9496 19.547 16.8434 19.4581 16.7545C19.3692 16.6655 19.263 16.5958 19.1461 16.5495C19.0292 16.5031 18.904 16.4813 18.7784 16.4852C18.6527 16.489 18.5291 16.5186 18.4153 16.5721C18.3015 16.6255 18.1998 16.7017 18.1166 16.796C16.0126 18.9048 14.8311 21.7621 14.8311 24.741C14.8311 27.7199 16.0126 30.5771 18.1166 32.686C18.2923 32.8412 18.5205 32.9235 18.7548 32.9163C18.9891 32.909 19.2118 32.8127 19.3776 32.647C19.5433 32.4812 19.6396 32.2585 19.6469 32.0242C19.6541 31.7899 19.5718 31.5616 19.4166 31.386C17.6548 29.6233 16.6652 27.2331 16.6652 24.741C16.6652 22.2488 17.6548 19.8587 19.4166 18.096Z" fill="url(#paint3_linear_212_390)"/>
<path d="M34.7997 16.794C34.7165 16.6997 34.6148 16.6235 34.501 16.5701C34.3872 16.5166 34.2636 16.487 34.138 16.4831C34.0123 16.4792 33.8871 16.5011 33.7702 16.5475C33.6533 16.5938 33.5471 16.6635 33.4582 16.7525C33.3693 16.8414 33.2996 16.9475 33.2532 17.0645C33.2069 17.1814 33.185 17.3065 33.1889 17.4322C33.1928 17.5579 33.2224 17.6814 33.2758 17.7952C33.3293 17.909 33.4055 18.0107 33.4997 18.094C35.2599 19.8564 36.2486 22.2455 36.2486 24.7365C36.2486 27.2274 35.2599 29.6165 33.4997 31.379C33.4055 31.4622 33.3293 31.5639 33.2758 31.6777C33.2224 31.7915 33.1928 31.915 33.1889 32.0407C33.185 32.1664 33.2069 32.2916 33.2532 32.4085C33.2996 32.5254 33.3693 32.6315 33.4582 32.7205C33.5471 32.8094 33.6533 32.8791 33.7702 32.9255C33.8871 32.9718 34.0123 32.9937 34.138 32.9898C34.2636 32.9859 34.3872 32.9563 34.501 32.9028C34.6148 32.8494 34.7165 32.7732 34.7997 32.679C36.9021 30.5703 38.0828 27.7141 38.0828 24.7365C38.0828 21.7588 36.9021 18.9026 34.7997 16.794Z" fill="url(#paint4_linear_212_390)"/>
<path d="M16.6411 15.318C16.7963 15.1423 16.8787 14.9141 16.8714 14.6798C16.8642 14.4455 16.7679 14.2227 16.6021 14.057C16.4364 13.8912 16.2136 13.7949 15.9793 13.7877C15.745 13.7804 15.5168 13.8628 15.3411 14.018C13.8885 15.4009 12.732 17.0645 11.9418 18.9078C11.1516 20.7512 10.7441 22.7359 10.7441 24.7415C10.7441 26.7471 11.1516 28.7318 11.9418 30.5751C12.732 32.4185 13.8885 34.0821 15.3411 35.465C15.4244 35.5592 15.526 35.6354 15.6398 35.6889C15.7537 35.7423 15.8772 35.7719 16.0029 35.7758C16.1286 35.7797 16.2537 35.7578 16.3706 35.7115C16.4875 35.6652 16.5937 35.5954 16.6826 35.5065C16.7715 35.4176 16.8413 35.3114 16.8876 35.1945C16.9339 35.0776 16.9558 34.9524 16.9519 34.8267C16.948 34.7011 16.9185 34.5775 16.865 34.4637C16.8116 34.3499 16.7354 34.2482 16.6411 34.165C15.3672 32.9482 14.3532 31.4858 13.6604 29.8662C12.9676 28.2465 12.6104 26.5031 12.6104 24.7415C12.6104 22.9798 12.9676 21.2365 13.6604 19.6168C14.3532 17.9971 15.3672 16.5347 16.6411 15.318Z" fill="url(#paint5_linear_212_390)"/>
<path d="M37.579 14.016C37.4033 13.8608 37.1751 13.7784 36.9408 13.7857C36.7065 13.7929 36.4838 13.8892 36.318 14.055C36.1523 14.2207 36.056 14.4434 36.0487 14.6777C36.0415 14.912 36.1238 15.1403 36.279 15.316C37.5522 16.5326 38.5656 17.9947 39.2579 19.6139C39.9502 21.2332 40.3071 22.9759 40.3071 24.737C40.3071 26.498 39.9502 28.2407 39.2579 29.86C38.5656 31.4792 37.5522 32.9413 36.279 34.158C36.1848 34.2412 36.1086 34.3429 36.0551 34.4567C36.0017 34.5705 35.9721 34.6941 35.9682 34.8197C35.9643 34.9454 35.9862 35.0706 36.0325 35.1875C36.0788 35.3044 36.1486 35.4106 36.2375 35.4995C36.3264 35.5884 36.4326 35.6581 36.5495 35.7045C36.6664 35.7508 36.7916 35.7727 36.9172 35.7688C37.0429 35.7649 37.1665 35.7353 37.2803 35.6819C37.3941 35.6284 37.4958 35.5522 37.579 35.458C39.0308 34.0751 40.1866 32.4118 40.9764 30.5689C41.7661 28.726 42.1734 26.7419 42.1734 24.737C42.1734 22.732 41.7661 20.7479 40.9764 18.905C40.1866 17.0621 39.0308 15.3988 37.579 14.016Z" fill="url(#paint6_linear_212_390)"/>
<defs>
<linearGradient id="paint0_linear_212_390" x1="45.3976" y1="7.89224" x2="5.21224" y2="12.6333" gradientUnits="userSpaceOnUse">
<stop stop-color="#88EDFE"/>
<stop offset="0.519" stop-color="#655CFE"/>
<stop offset="1" stop-color="#C224FE"/>
</linearGradient>
<linearGradient id="paint1_linear_212_390" x1="31.0373" y1="11.3644" x2="8.86987" y2="13.7626" gradientUnits="userSpaceOnUse">
<stop stop-color="#88EDFE"/>
<stop offset="0.519" stop-color="#655CFE"/>
<stop offset="1" stop-color="#C224FE"/>
</linearGradient>
<linearGradient id="paint2_linear_212_390" x1="42.6203" y1="11.4335" x2="20.7235" y2="13.7823" gradientUnits="userSpaceOnUse">
<stop stop-color="#88EDFE"/>
<stop offset="0.519" stop-color="#655CFE"/>
<stop offset="1" stop-color="#C224FE"/>
</linearGradient>
<linearGradient id="paint3_linear_212_390" x1="31.0247" y1="4.44006" x2="1.71299" y2="7.19638" gradientUnits="userSpaceOnUse">
<stop stop-color="#88EDFE"/>
<stop offset="0.519" stop-color="#655CFE"/>
<stop offset="1" stop-color="#C224FE"/>
</linearGradient>
<linearGradient id="paint4_linear_212_390" x1="49.3739" y1="4.38269" x2="20.0745" y2="7.12387" gradientUnits="userSpaceOnUse">
<stop stop-color="#88EDFE"/>
<stop offset="0.519" stop-color="#655CFE"/>
<stop offset="1" stop-color="#C224FE"/>
</linearGradient>
<linearGradient id="paint5_linear_212_390" x1="31.2748" y1="-2.33071" x2="-5.92058" y2="0.983038" gradientUnits="userSpaceOnUse">
<stop stop-color="#88EDFE"/>
<stop offset="0.519" stop-color="#655CFE"/>
<stop offset="1" stop-color="#C224FE"/>
</linearGradient>
<linearGradient id="paint6_linear_212_390" x1="56.4897" y1="-2.32905" x2="19.31" y2="0.982659" gradientUnits="userSpaceOnUse">
<stop stop-color="#88EDFE"/>
<stop offset="0.519" stop-color="#655CFE"/>
<stop offset="1" stop-color="#C224FE"/>
</linearGradient>
</defs>
</svg>
