<svg width="26" height="32" viewBox="0 0 26 32" fill="none" xmlns="http://www.w3.org/2000/svg">
<path d="M12.8 9.6V0H3.2C2.35131 0 1.53737 0.337142 0.937258 0.937258C0.337142 1.53737 0 2.35131 0 3.2V28.8C0 29.6487 0.337142 30.4626 0.937258 31.0627C1.53737 31.6629 2.35131 32 3.2 32H22.4C23.2487 32 24.0626 31.6629 24.6627 31.0627C25.2629 30.4626 25.6 29.6487 25.6 28.8V12.8H16C15.1513 12.8 14.3374 12.4629 13.7373 11.8627C13.1371 11.2626 12.8 10.4487 12.8 9.6ZM4.8 16.4C4.8 16.0817 4.92643 15.7765 5.15147 15.5515C5.37652 15.3264 5.68174 15.2 6 15.2C6.31826 15.2 6.62348 15.3264 6.84853 15.5515C7.07357 15.7765 7.2 16.0817 7.2 16.4C7.2 16.7183 7.07357 17.0235 6.84853 17.2485C6.62348 17.4736 6.31826 17.6 6 17.6C5.68174 17.6 5.37652 17.4736 5.15147 17.2485C4.92643 17.0235 4.8 16.7183 4.8 16.4ZM4.8 21.2C4.8 20.8817 4.92643 20.5765 5.15147 20.3515C5.37652 20.1264 5.68174 20 6 20C6.31826 20 6.62348 20.1264 6.84853 20.3515C7.07357 20.5765 7.2 20.8817 7.2 21.2C7.2 21.5183 7.07357 21.8235 6.84853 22.0485C6.62348 22.2736 6.31826 22.4 6 22.4C5.68174 22.4 5.37652 22.2736 5.15147 22.0485C4.92643 21.8235 4.8 21.5183 4.8 21.2ZM4.8 26C4.8 25.6817 4.92643 25.3765 5.15147 25.1515C5.37652 24.9264 5.68174 24.8 6 24.8C6.31826 24.8 6.62348 24.9264 6.84853 25.1515C7.07357 25.3765 7.2 25.6817 7.2 26C7.2 26.3183 7.07357 26.6235 6.84853 26.8485C6.62348 27.0736 6.31826 27.2 6 27.2C5.68174 27.2 5.37652 27.0736 5.15147 26.8485C4.92643 26.6235 4.8 26.3183 4.8 26ZM9.6 16.4C9.6 16.0817 9.72643 15.7765 9.95147 15.5515C10.1765 15.3264 10.4817 15.2 10.8 15.2H19.6C19.9183 15.2 20.2235 15.3264 20.4485 15.5515C20.6736 15.7765 20.8 16.0817 20.8 16.4C20.8 16.7183 20.6736 17.0235 20.4485 17.2485C20.2235 17.4736 19.9183 17.6 19.6 17.6H10.8C10.4817 17.6 10.1765 17.4736 9.95147 17.2485C9.72643 17.0235 9.6 16.7183 9.6 16.4ZM9.6 21.2C9.6 20.8817 9.72643 20.5765 9.95147 20.3515C10.1765 20.1264 10.4817 20 10.8 20H19.6C19.9183 20 20.2235 20.1264 20.4485 20.3515C20.6736 20.5765 20.8 20.8817 20.8 21.2C20.8 21.5183 20.6736 21.8235 20.4485 22.0485C20.2235 22.2736 19.9183 22.4 19.6 22.4H10.8C10.4817 22.4 10.1765 22.2736 9.95147 22.0485C9.72643 21.8235 9.6 21.5183 9.6 21.2ZM9.6 26C9.6 25.6817 9.72643 25.3765 9.95147 25.1515C10.1765 24.9264 10.4817 24.8 10.8 24.8H19.6C19.9183 24.8 20.2235 24.9264 20.4485 25.1515C20.6736 25.3765 20.8 25.6817 20.8 26C20.8 26.3183 20.6736 26.6235 20.4485 26.8485C20.2235 27.0736 19.9183 27.2 19.6 27.2H10.8C10.4817 27.2 10.1765 27.0736 9.95147 26.8485C9.72643 26.6235 9.6 26.3183 9.6 26Z" fill="#303548"/>
<path d="M15.2008 9.59932V0.799316L24.8008 10.3993H16.0008C15.7886 10.3993 15.5851 10.315 15.4351 10.165C15.2851 10.015 15.2008 9.81149 15.2008 9.59932Z" fill="#303548"/>
</svg>
