<svg width="188" height="284" viewBox="0 0 188 284" fill="none" xmlns="http://www.w3.org/2000/svg">
<path opacity="0.2" d="M-1.10254 44.9177C0.165758 44.481 0.839894 43.0988 0.403184 41.8305C-0.0335267 40.5622 -1.41571 39.888 -2.68401 40.3247C-3.95231 40.7615 -4.62644 42.1436 -4.18973 43.4119C-3.75302 44.6802 -2.37084 45.3544 -1.10254 44.9177Z" fill="white"/>
<path opacity="0.2" d="M21.8601 37.0107C23.1284 36.574 23.8025 35.1918 23.3658 33.9235C22.9291 32.6552 21.5469 31.9811 20.2786 32.4178C19.0103 32.8545 18.3362 34.2367 18.7729 35.505C19.2096 36.7733 20.5918 37.4474 21.8601 37.0107Z" fill="white"/>
<path opacity="0.2" d="M44.8225 29.1037C46.0908 28.667 46.7649 27.2848 46.3282 26.0165C45.8915 24.7482 44.5093 24.0741 43.241 24.5108C41.9727 24.9475 41.2986 26.3297 41.7353 27.598C42.172 28.8663 43.5542 29.5404 44.8225 29.1037Z" fill="white"/>
<path opacity="0.2" d="M67.7849 21.1968C69.0532 20.7601 69.7273 19.3779 69.2906 18.1096C68.8539 16.8413 67.4717 16.1672 66.2034 16.6039C64.9351 17.0406 64.261 18.4228 64.6977 19.6911C65.1344 20.9594 66.5166 21.6335 67.7849 21.1968Z" fill="white"/>
<path opacity="0.2" d="M90.7483 13.2906C92.0166 12.8539 92.6907 11.4717 92.254 10.2034C91.8173 8.93509 90.4351 8.26096 89.1668 8.69767C87.8985 9.13438 87.2244 10.5166 87.6611 11.7849C88.0978 13.0532 89.48 13.7273 90.7483 13.2906Z" fill="white"/>
<path opacity="0.2" d="M113.711 5.3836C114.979 4.94689 115.653 3.56471 115.216 2.29641C114.78 1.02811 113.398 0.353976 112.129 0.790687C110.861 1.2274 110.187 2.60958 110.623 3.87788C111.06 5.14618 112.442 5.82032 113.711 5.3836Z" fill="white"/>
<path opacity="0.2" d="M6.80371 67.8802C8.07201 67.4435 8.74614 66.0613 8.30943 64.793C7.87272 63.5247 6.49054 62.8506 5.22224 63.2873C3.95394 63.724 3.27981 65.1062 3.71652 66.3745C4.15323 67.6428 5.53541 68.3169 6.80371 67.8802Z" fill="white"/>
<path opacity="0.2" d="M29.7661 59.9732C31.0344 59.5365 31.7085 58.1543 31.2718 56.886C30.8351 55.6177 29.4529 54.9436 28.1846 55.3803C26.9163 55.817 26.2422 57.1992 26.6789 58.4675C27.1156 59.7358 28.4978 60.4099 29.7661 59.9732Z" fill="white"/>
<path opacity="0.2" d="M52.7288 52.0671C53.9971 51.6304 54.6712 50.2482 54.2345 48.9799C53.7978 47.7116 52.4156 47.0374 51.1473 47.4742C49.879 47.9109 49.2049 49.2931 49.6416 50.5614C50.0783 51.8297 51.4605 52.5038 52.7288 52.0671Z" fill="white"/>
<path opacity="0.2" d="M75.6919 44.1601C76.9602 43.7234 77.6343 42.3412 77.1976 41.0729C76.7609 39.8046 75.3787 39.1305 74.1104 39.5672C72.8421 40.0039 72.168 41.3861 72.6047 42.6544C73.0414 43.9227 74.4236 44.5968 75.6919 44.1601Z" fill="white"/>
<path opacity="0.2" d="M98.6545 36.2531C99.9228 35.8164 100.597 34.4342 100.16 33.1659C99.7236 31.8976 98.3414 31.2235 97.0731 31.6602C95.8048 32.0969 95.1306 33.4791 95.5673 34.7474C96.0041 36.0157 97.3862 36.6898 98.6545 36.2531Z" fill="white"/>
<path opacity="0.2" d="M121.619 28.3461C122.887 27.9094 123.561 26.5272 123.124 25.2589C122.688 23.9906 121.305 23.3165 120.037 23.7532C118.769 24.1899 118.095 25.5721 118.531 26.8404C118.968 28.1087 120.35 28.7828 121.619 28.3461Z" fill="white"/>
<path opacity="0.2" d="M14.7114 90.8434C15.9797 90.4067 16.6539 89.0245 16.2171 87.7563C15.7804 86.488 14.3983 85.8138 13.13 86.2505C11.8617 86.6872 11.1875 88.0694 11.6242 89.3377C12.0609 90.606 13.4431 91.2802 14.7114 90.8434Z" fill="white"/>
<path opacity="0.2" d="M37.6731 82.9365C38.9414 82.4998 39.6155 81.1176 39.1788 79.8493C38.7421 78.581 37.3599 77.9068 36.0916 78.3435C34.8233 78.7803 34.1492 80.1624 34.5859 81.4307C35.0226 82.699 36.4048 83.3732 37.6731 82.9365Z" fill="white"/>
<path opacity="0.2" d="M60.6357 75.0303C61.904 74.5936 62.5782 73.2114 62.1415 71.9431C61.7048 70.6748 60.3226 70.0007 59.0543 70.4374C57.786 70.8741 57.1118 72.2563 57.5485 73.5246C57.9853 74.7929 59.3674 75.467 60.6357 75.0303Z" fill="white"/>
<path opacity="0.2" d="M83.5989 67.1226C84.8672 66.6859 85.5413 65.3037 85.1046 64.0354C84.6679 62.7671 83.2857 62.093 82.0174 62.5297C80.7491 62.9664 80.075 64.3486 80.5117 65.6169C80.9484 66.8852 82.3306 67.5593 83.5989 67.1226Z" fill="white"/>
<path opacity="0.2" d="M106.562 59.2164C107.831 58.7797 108.505 57.3975 108.068 56.1292C107.631 54.8609 106.249 54.1867 104.981 54.6235C103.712 55.0602 103.038 56.4423 103.475 57.7106C103.912 58.9789 105.294 59.6531 106.562 59.2164Z" fill="white"/>
<path opacity="0.2" d="M129.525 51.3087C130.793 50.8719 131.467 49.4898 131.03 48.2215C130.594 46.9532 129.211 46.279 127.943 46.7157C126.675 47.1524 126.001 48.5346 126.437 49.8029C126.874 51.0712 128.256 51.7454 129.525 51.3087Z" fill="white"/>
<path opacity="0.2" d="M-0.345705 121.712C0.922594 121.275 1.59673 119.893 1.16002 118.625C0.723309 117.357 -0.658874 116.682 -1.92717 117.119C-3.19547 117.556 -3.86961 118.938 -3.4329 120.206C-2.99619 121.475 -1.614 122.149 -0.345705 121.712Z" fill="white"/>
<path opacity="0.2" d="M22.616 113.806C23.8843 113.369 24.5584 111.987 24.1217 110.719C23.685 109.45 22.3028 108.776 21.0345 109.213C19.7662 109.65 19.0921 111.032 19.5288 112.3C19.9655 113.569 21.3477 114.243 22.616 113.806Z" fill="white"/>
<path opacity="0.2" d="M45.5793 105.899C46.8476 105.462 47.5218 104.08 47.0851 102.812C46.6484 101.543 45.2662 100.869 43.9979 101.306C42.7296 101.743 42.0554 103.125 42.4922 104.393C42.9289 105.662 44.311 106.336 45.5793 105.899Z" fill="white"/>
<path opacity="0.2" d="M68.5427 97.9929C69.811 97.5561 70.4852 96.174 70.0484 94.9057C69.6117 93.6374 68.2296 92.9632 66.9613 93.3999C65.693 93.8366 65.0188 95.2188 65.4555 96.4871C65.8922 97.7554 67.2744 98.4296 68.5427 97.9929Z" fill="white"/>
<path opacity="0.2" d="M91.5059 90.0859C92.7742 89.6492 93.4483 88.267 93.0116 86.9987C92.5749 85.7304 91.1927 85.0562 89.9244 85.493C88.6561 85.9297 87.982 87.3119 88.4187 88.5802C88.8554 89.8484 90.2376 90.5226 91.5059 90.0859Z" fill="white"/>
<path opacity="0.2" d="M114.468 82.1789C115.736 81.7422 116.41 80.36 115.973 79.0917C115.537 77.8234 114.154 77.1493 112.886 77.586C111.618 78.0227 110.944 79.4049 111.38 80.6732C111.817 81.9415 113.199 82.6156 114.468 82.1789Z" fill="white"/>
<path opacity="0.2" d="M137.432 74.2719C138.701 73.8352 139.375 72.453 138.938 71.1847C138.501 69.9164 137.119 69.2423 135.851 69.679C134.583 70.1157 133.908 71.4979 134.345 72.7662C134.782 74.0345 136.164 74.7086 137.432 74.2719Z" fill="white"/>
<path opacity="0.2" d="M7.56201 144.675C8.83031 144.239 9.50445 142.856 9.06773 141.588C8.63102 140.32 7.24884 139.646 5.98054 140.082C4.71224 140.519 4.03811 141.901 4.47482 143.17C4.91153 144.438 6.29371 145.112 7.56201 144.675Z" fill="white"/>
<path opacity="0.2" d="M30.5229 136.768C31.7912 136.332 32.4654 134.95 32.0287 133.681C31.592 132.413 30.2098 131.739 28.9415 132.176C27.6732 132.612 26.999 133.994 27.4358 135.263C27.8725 136.531 29.2546 137.205 30.5229 136.768Z" fill="white"/>
<path opacity="0.2" d="M53.4863 128.862C54.7546 128.425 55.4288 127.043 54.9921 125.774C54.5553 124.506 53.1732 123.832 51.9049 124.269C50.6366 124.705 49.9624 126.087 50.3991 127.356C50.8358 128.624 52.218 129.298 53.4863 128.862Z" fill="white"/>
<path opacity="0.2" d="M76.4487 120.955C77.717 120.519 78.3912 119.136 77.9545 117.868C77.5177 116.6 76.1356 115.926 74.8673 116.362C73.599 116.799 72.9248 118.181 73.3615 119.45C73.7982 120.718 75.1804 121.392 76.4487 120.955Z" fill="white"/>
<path opacity="0.2" d="M99.4128 113.048C100.681 112.611 101.355 111.229 100.919 109.96C100.482 108.692 99.0997 108.018 97.8314 108.455C96.5631 108.891 95.8889 110.274 96.3256 111.542C96.7624 112.81 98.1445 113.484 99.4128 113.048Z" fill="white"/>
<path opacity="0.2" d="M122.376 105.142C123.645 104.705 124.319 103.323 123.882 102.055C123.445 100.787 122.063 100.113 120.795 100.549C119.526 100.986 118.852 102.368 119.289 103.636C119.726 104.905 121.108 105.579 122.376 105.142Z" fill="white"/>
<path opacity="0.2" d="M145.338 97.236C146.606 96.7993 147.28 95.4171 146.844 94.1488C146.407 92.8805 145.025 92.2064 143.756 92.6431C142.488 93.0798 141.814 94.462 142.251 95.7303C142.687 96.9986 144.07 97.6727 145.338 97.236Z" fill="white"/>
<path opacity="0.2" d="M15.4675 167.639C16.7358 167.202 17.41 165.82 16.9733 164.552C16.5365 163.283 15.1544 162.609 13.8861 163.046C12.6178 163.483 11.9436 164.865 12.3803 166.133C12.817 167.401 14.1992 168.075 15.4675 167.639Z" fill="white"/>
<path opacity="0.2" d="M38.4307 159.731C39.699 159.294 40.3731 157.912 39.9364 156.644C39.4997 155.375 38.1175 154.701 36.8492 155.138C35.5809 155.575 34.9068 156.957 35.3435 158.225C35.7802 159.493 37.1624 160.168 38.4307 159.731Z" fill="white"/>
<path opacity="0.2" d="M61.3933 151.825C62.6616 151.388 63.3357 150.006 62.899 148.738C62.4623 147.469 61.0801 146.795 59.8118 147.232C58.5435 147.669 57.8694 149.051 58.3061 150.319C58.7428 151.587 60.125 152.261 61.3933 151.825Z" fill="white"/>
<path opacity="0.2" d="M84.3557 143.918C85.624 143.481 86.2981 142.099 85.8614 140.831C85.4247 139.562 84.0425 138.888 82.7742 139.325C81.5059 139.762 80.8318 141.144 81.2685 142.412C81.7052 143.68 83.0874 144.354 84.3557 143.918Z" fill="white"/>
<path opacity="0.2" d="M107.319 136.011C108.587 135.574 109.262 134.192 108.825 132.924C108.388 131.655 107.006 130.981 105.738 131.418C104.469 131.855 103.795 133.237 104.232 134.505C104.669 135.773 106.051 136.448 107.319 136.011Z" fill="white"/>
<path opacity="0.2" d="M130.281 128.105C131.55 127.668 132.224 126.286 131.787 125.017C131.351 123.749 129.968 123.075 128.7 123.512C127.432 123.948 126.758 125.331 127.194 126.599C127.631 127.867 129.013 128.541 130.281 128.105Z" fill="white"/>
<path opacity="0.2" d="M153.244 120.197C154.512 119.76 155.187 118.378 154.75 117.11C154.313 115.841 152.931 115.167 151.663 115.604C150.394 116.041 149.72 117.423 150.157 118.691C150.594 119.96 151.976 120.634 153.244 120.197Z" fill="white"/>
<path opacity="0.2" d="M0.411131 198.508C1.67943 198.071 2.35357 196.689 1.91686 195.421C1.48015 194.153 0.0979616 193.478 -1.17034 193.915C-2.43864 194.352 -3.11277 195.734 -2.67606 197.002C-2.23935 198.271 -0.857168 198.945 0.411131 198.508Z" fill="white"/>
<path opacity="0.2" d="M23.3745 190.6C24.6428 190.164 25.3169 188.782 24.8802 187.513C24.4435 186.245 23.0613 185.571 21.793 186.007C20.5247 186.444 19.8506 187.826 20.2873 189.095C20.724 190.363 22.1062 191.037 23.3745 190.6Z" fill="white"/>
<path opacity="0.2" d="M46.3369 182.694C47.6052 182.258 48.2793 180.875 47.8426 179.607C47.4059 178.339 46.0237 177.665 44.7554 178.101C43.4871 178.538 42.813 179.92 43.2497 181.189C43.6864 182.457 45.0686 183.131 46.3369 182.694Z" fill="white"/>
<path opacity="0.2" d="M69.3003 174.787C70.5686 174.351 71.2427 172.968 70.806 171.7C70.3693 170.432 68.9871 169.758 67.7188 170.194C66.4505 170.631 65.7764 172.013 66.2131 173.282C66.6498 174.55 68.032 175.224 69.3003 174.787Z" fill="white"/>
<path opacity="0.2" d="M92.2627 166.881C93.531 166.444 94.2051 165.062 93.7684 163.794C93.3317 162.526 91.9495 161.851 90.6812 162.288C89.4129 162.725 88.7388 164.107 89.1755 165.375C89.6122 166.644 90.9944 167.318 92.2627 166.881Z" fill="white"/>
<path opacity="0.2" d="M115.227 158.973C116.495 158.537 117.169 157.154 116.733 155.886C116.296 154.618 114.914 153.944 113.645 154.38C112.377 154.817 111.703 156.199 112.14 157.468C112.576 158.736 113.959 159.41 115.227 158.973Z" fill="white"/>
<path opacity="0.2" d="M138.188 151.067C139.457 150.63 140.131 149.248 139.694 147.98C139.257 146.712 137.875 146.038 136.607 146.474C135.339 146.911 134.665 148.293 135.101 149.561C135.538 150.83 136.92 151.504 138.188 151.067Z" fill="white"/>
<path opacity="0.2" d="M161.15 143.161C162.418 142.724 163.093 141.342 162.656 140.074C162.219 138.805 160.837 138.131 159.569 138.568C158.3 139.005 157.626 140.387 158.063 141.655C158.5 142.924 159.882 143.598 161.15 143.161Z" fill="white"/>
<path opacity="0.2" d="M8.31885 221.47C9.58715 221.033 10.2613 219.651 9.82457 218.383C9.38786 217.114 8.00568 216.44 6.73738 216.877C5.46908 217.314 4.79494 218.696 5.23165 219.964C5.66836 221.232 7.05055 221.907 8.31885 221.47Z" fill="white"/>
<path opacity="0.2" d="M31.2805 213.564C32.5488 213.128 33.223 211.745 32.7862 210.477C32.3495 209.209 30.9673 208.535 29.699 208.971C28.4307 209.408 27.7566 210.79 28.1933 212.059C28.63 213.327 30.0122 214.001 31.2805 213.564Z" fill="white"/>
<path opacity="0.2" d="M54.2439 205.658C55.5122 205.221 56.1863 203.839 55.7496 202.57C55.3129 201.302 53.9307 200.628 52.6624 201.065C51.3941 201.501 50.72 202.884 51.1567 204.152C51.5934 205.42 52.9756 206.094 54.2439 205.658Z" fill="white"/>
<path opacity="0.2" d="M77.2073 197.751C78.4756 197.314 79.1497 195.932 78.713 194.663C78.2763 193.395 76.8941 192.721 75.6258 193.158C74.3575 193.594 73.6834 194.977 74.1201 196.245C74.5568 197.513 75.939 198.187 77.2073 197.751Z" fill="white"/>
<path opacity="0.2" d="M100.17 189.844C101.439 189.407 102.113 188.025 101.676 186.756C101.239 185.488 99.8572 184.814 98.5889 185.251C97.3206 185.687 96.6465 187.07 97.0832 188.338C97.5199 189.606 98.9021 190.28 100.17 189.844Z" fill="white"/>
<path opacity="0.2" d="M123.132 181.937C124.4 181.5 125.075 180.118 124.638 178.849C124.201 177.581 122.819 176.907 121.551 177.344C120.282 177.78 119.608 179.163 120.045 180.431C120.482 181.699 121.864 182.373 123.132 181.937Z" fill="white"/>
<path opacity="0.2" d="M146.095 174.03C147.364 173.594 148.038 172.212 147.601 170.943C147.164 169.675 145.782 169.001 144.514 169.438C143.246 169.874 142.572 171.256 143.008 172.525C143.445 173.793 144.827 174.467 146.095 174.03Z" fill="white"/>
<path opacity="0.2" d="M169.058 166.123C170.326 165.687 171 164.305 170.564 163.036C170.127 161.768 168.745 161.094 167.476 161.531C166.208 161.967 165.534 163.349 165.971 164.618C166.407 165.886 167.79 166.56 169.058 166.123Z" fill="white"/>
<path opacity="0.2" d="M16.2244 244.433C17.4927 243.996 18.1668 242.614 17.7301 241.346C17.2934 240.078 15.9112 239.404 14.6429 239.84C13.3746 240.277 12.7005 241.659 13.1372 242.927C13.5739 244.196 14.9561 244.87 16.2244 244.433Z" fill="white"/>
<path opacity="0.2" d="M39.1885 236.526C40.4568 236.089 41.1309 234.707 40.6942 233.439C40.2575 232.171 38.8753 231.497 37.607 231.933C36.3387 232.37 35.6646 233.752 36.1013 235.02C36.538 236.289 37.9202 236.963 39.1885 236.526Z" fill="white"/>
<path opacity="0.2" d="M62.1501 228.621C63.4184 228.184 64.0926 226.802 63.6559 225.534C63.2192 224.265 61.837 223.591 60.5687 224.028C59.3004 224.465 58.6262 225.847 59.063 227.115C59.4997 228.383 60.8818 229.057 62.1501 228.621Z" fill="white"/>
<path opacity="0.2" d="M85.1143 220.713C86.3826 220.276 87.0567 218.894 86.62 217.626C86.1833 216.358 84.8011 215.683 83.5328 216.12C82.2645 216.557 81.5904 217.939 82.0271 219.207C82.4638 220.476 83.846 221.15 85.1143 220.713Z" fill="white"/>
<path opacity="0.2" d="M108.077 212.806C109.346 212.369 110.02 210.987 109.583 209.719C109.146 208.451 107.764 207.776 106.496 208.213C105.228 208.65 104.553 210.032 104.99 211.3C105.427 212.569 106.809 213.243 108.077 212.806Z" fill="white"/>
<path opacity="0.2" d="M131.039 204.9C132.307 204.463 132.981 203.081 132.545 201.813C132.108 200.544 130.726 199.87 129.458 200.307C128.189 200.744 127.515 202.126 127.952 203.394C128.389 204.662 129.771 205.337 131.039 204.9Z" fill="white"/>
<path opacity="0.2" d="M154.002 196.993C155.27 196.556 155.944 195.174 155.507 193.906C155.071 192.637 153.689 191.963 152.42 192.4C151.152 192.837 150.478 194.219 150.915 195.487C151.351 196.755 152.733 197.43 154.002 196.993Z" fill="white"/>
<path opacity="0.2" d="M176.965 189.087C178.233 188.65 178.907 187.268 178.471 186C178.034 184.731 176.652 184.057 175.383 184.494C174.115 184.931 173.441 186.313 173.878 187.581C174.314 188.849 175.697 189.523 176.965 189.087Z" fill="white"/>
<path opacity="0.2" d="M1.1687 275.303C2.437 274.867 3.11113 273.485 2.67442 272.216C2.23771 270.948 0.85553 270.274 -0.412769 270.71C-1.68107 271.147 -2.3552 272.529 -1.91849 273.798C-1.48178 275.066 -0.0996 275.74 1.1687 275.303Z" fill="white"/>
<path opacity="0.2" d="M24.1313 267.396C25.3996 266.96 26.0738 265.578 25.6371 264.309C25.2004 263.041 23.8182 262.367 22.5499 262.804C21.2816 263.24 20.6074 264.622 21.0442 265.891C21.4809 267.159 22.863 267.833 24.1313 267.396Z" fill="white"/>
<path opacity="0.2" d="M47.0937 259.489C48.362 259.053 49.0362 257.671 48.5995 256.402C48.1628 255.134 46.7806 254.46 45.5123 254.897C44.244 255.333 43.5698 256.715 44.0066 257.984C44.4433 259.252 45.8254 259.926 47.0937 259.489Z" fill="white"/>
<path opacity="0.2" d="M70.0586 251.582C71.3269 251.146 72.001 249.764 71.5643 248.495C71.1276 247.227 69.7454 246.553 68.4771 246.99C67.2088 247.426 66.5347 248.808 66.9714 250.077C67.4081 251.345 68.7903 252.019 70.0586 251.582Z" fill="white"/>
<path opacity="0.2" d="M93.0203 243.675C94.2886 243.239 94.9627 241.857 94.526 240.588C94.0893 239.32 92.7071 238.646 91.4388 239.083C90.1705 239.519 89.4964 240.901 89.9331 242.17C90.3698 243.438 91.752 244.112 93.0203 243.675Z" fill="white"/>
<path opacity="0.2" d="M115.984 235.77C117.252 235.333 117.926 233.951 117.489 232.683C117.053 231.415 115.67 230.74 114.402 231.177C113.134 231.614 112.46 232.996 112.896 234.264C113.333 235.533 114.715 236.207 115.984 235.77Z" fill="white"/>
<path opacity="0.2" d="M138.945 227.863C140.213 227.427 140.887 226.044 140.45 224.776C140.014 223.508 138.631 222.834 137.363 223.27C136.095 223.707 135.421 225.089 135.857 226.357C136.294 227.626 137.676 228.3 138.945 227.863Z" fill="white"/>
<path opacity="0.2" d="M161.909 219.956C163.178 219.52 163.852 218.137 163.415 216.869C162.978 215.601 161.596 214.927 160.328 215.363C159.06 215.8 158.386 217.182 158.822 218.451C159.259 219.719 160.641 220.393 161.909 219.956Z" fill="white"/>
<path opacity="0.2" d="M184.871 212.048C186.139 211.612 186.814 210.23 186.377 208.961C185.94 207.693 184.558 207.019 183.29 207.455C182.021 207.892 181.347 209.274 181.784 210.543C182.221 211.811 183.603 212.485 184.871 212.048Z" fill="white"/>
</svg>
