<svg width="20" height="20" viewBox="0 0 20 20" fill="none" xmlns="http://www.w3.org/2000/svg">
<path d="M9.58464 18.1253C4.8763 18.1253 1.04297 14.292 1.04297 9.58366C1.04297 4.87533 4.8763 1.04199 9.58464 1.04199C14.293 1.04199 18.1263 4.87533 18.1263 9.58366C18.1263 14.292 14.293 18.1253 9.58464 18.1253ZM9.58464 2.29199C5.55964 2.29199 2.29297 5.56699 2.29297 9.58366C2.29297 13.6003 5.55964 16.8753 9.58464 16.8753C13.6096 16.8753 16.8763 13.6003 16.8763 9.58366C16.8763 5.56699 13.6096 2.29199 9.58464 2.29199Z" fill="#353452"/>
<path d="M18.3326 18.9585C18.1742 18.9585 18.0159 18.9002 17.8909 18.7752L16.2242 17.1085C15.9826 16.8669 15.9826 16.4669 16.2242 16.2252C16.4659 15.9835 16.8659 15.9835 17.1076 16.2252L18.7742 17.8919C19.0159 18.1335 19.0159 18.5335 18.7742 18.7752C18.6492 18.9002 18.4909 18.9585 18.3326 18.9585Z" fill="#353452"/>
</svg>
