<svg width="48" height="26" viewBox="0 0 48 26" fill="none" xmlns="http://www.w3.org/2000/svg">
<path d="M47.1723 25.5999H0.827623C0.370593 25.5999 0 25.2982 0 24.9262V0.67371C0 0.301674 0.370593 0 0.827623 0H47.1724C47.6294 0 48 0.301674 48 0.67371V24.9262C47.9999 25.2983 47.6293 25.5999 47.1723 25.5999Z" fill="#F5F5F5"/>
<path d="M48 0.673711C47.9999 1.38927 47.4199 1.96931 46.7043 1.96931H1.29561C0.580063 1.96931 0 1.38925 0 0.673711V0.673711C0 0.301674 0.370593 0 0.827623 0H47.1724C47.6294 0 48 0.301674 48 0.673711V0.673711Z" fill="#FF4B55"/>
<path d="M47.0153 7.87573H0.984619C0.440829 7.87573 0 8.31656 0 8.86035C0 9.40414 0.440829 9.84497 0.984619 9.84497H47.0153C47.5591 9.84497 47.9999 9.40414 47.9999 8.86035C47.9999 8.31656 47.5591 7.87573 47.0153 7.87573Z" fill="#FF4B55"/>
<path d="M47.0153 3.93823H0.984619C0.440829 3.93823 0 4.37906 0 4.92285C0 5.46664 0.440829 5.90747 0.984619 5.90747H47.0153C47.5591 5.90747 47.9999 5.46664 47.9999 4.92285C47.9999 4.37906 47.5591 3.93823 47.0153 3.93823Z" fill="#FF4B55"/>
<path d="M47.9999 12.7996C47.9999 13.3434 47.559 13.7843 47.0152 13.7843H0.827623C0.370593 13.7843 0 13.4826 0 13.1105V13.1105C0 12.395 0.580062 11.8149 1.2956 11.8149H47.0152C47.559 11.8149 47.9999 12.2558 47.9999 12.7996V12.7996Z" fill="#FF4B55"/>
<path d="M47.0153 19.6929H0.984617C0.440828 19.6929 0 20.1337 0 20.6775C0 21.2213 0.44083 21.6621 0.984619 21.6621H47.0153C47.5591 21.6621 47.9999 21.2213 47.9999 20.6775C47.9999 20.1337 47.5591 19.6929 47.0153 19.6929Z" fill="#FF4B55"/>
<path d="M47.1723 25.5996H0.827623C0.370593 25.5996 0 25.2979 0 24.9259V24.9259C0 24.2104 0.580028 23.6304 1.29553 23.6304H46.7043C47.4198 23.6304 47.9999 24.2104 47.9999 24.926V24.926C47.9999 25.298 47.6293 25.5996 47.1723 25.5996Z" fill="#FF4B55"/>
<path d="M47.0153 15.7546H0.984619C0.440829 15.7546 0 16.1955 0 16.7393C0 17.283 0.440829 17.7239 0.984619 17.7239H47.0153C47.5591 17.7239 47.9999 17.283 47.9999 16.7393C47.9999 16.1955 47.5591 15.7546 47.0153 15.7546Z" fill="#FF4B55"/>
<path d="M21.5172 0H0.827624C0.370593 0 0 0.301597 0 0.673634V13.1107C0 13.4828 0.370593 13.7844 0.827624 13.7844H21.5173C21.9743 13.7844 22.3449 13.4828 22.3449 13.1107V0.673634C22.3448 0.301597 21.9742 0 21.5172 0Z" fill="#41479B"/>
<path d="M2.32373 1.54665V1.54665C2.43465 1.81772 2.69771 1.99549 2.9906 1.99731L3.08601 1.9979C3.16101 1.99843 3.19204 2.07635 3.13176 2.11264L3.07943 2.14414C2.84046 2.28795 2.73968 2.58289 2.84067 2.84287V2.84287C2.86335 2.90108 2.78189 2.94936 2.72085 2.91376V2.91376C2.42968 2.74421 2.06981 2.74425 1.77866 2.91384V2.91384C1.71763 2.94936 1.63635 2.90116 1.65885 2.84295V2.84295C1.75984 2.58297 1.65906 2.28803 1.42009 2.14421L1.36775 2.11272C1.30747 2.07635 1.3385 1.99851 1.4135 1.99797L1.50892 1.99738C1.8018 1.99557 2.06486 1.8178 2.17579 1.54673V1.54673C2.19941 1.48867 2.29991 1.48867 2.32373 1.54665Z" fill="#F5F5F5"/>
<path d="M2.32373 3.88644V3.88644C2.43465 4.15751 2.69771 4.33528 2.99059 4.33709L3.08601 4.33768C3.16101 4.33822 3.19204 4.41614 3.13176 4.45243L3.07943 4.48392C2.84046 4.62774 2.73968 4.92268 2.84067 5.18266V5.18266C2.86335 5.24087 2.78189 5.28915 2.72085 5.25355V5.25355C2.42968 5.084 2.06981 5.08404 1.77866 5.25363V5.25363C1.71763 5.28915 1.63635 5.24094 1.65885 5.18273V5.18273C1.75984 4.92275 1.65906 4.62782 1.42009 4.484L1.36775 4.4525C1.30747 4.41614 1.3385 4.3383 1.4135 4.33776L1.50892 4.33717C1.8018 4.33535 2.06486 4.15758 2.17579 3.88651V3.88651C2.19941 3.82853 2.29991 3.82853 2.32373 3.88644Z" fill="#F5F5F5"/>
<path d="M2.32373 6.22628V6.22628C2.43465 6.49735 2.69771 6.67512 2.9906 6.67694L3.08601 6.67753C3.16101 6.67806 3.19204 6.75598 3.13176 6.79227L3.07943 6.82377C2.84046 6.96758 2.73968 7.26252 2.84067 7.5225V7.5225C2.86335 7.58071 2.78189 7.62899 2.72085 7.59339V7.59339C2.42968 7.42384 2.06981 7.42388 1.77866 7.59347V7.59347C1.71763 7.62899 1.63635 7.58079 1.65885 7.52258V7.52258C1.75984 7.2626 1.65906 6.96766 1.42009 6.82384L1.36775 6.79235C1.30747 6.75598 1.3385 6.67814 1.4135 6.67761L1.50892 6.67701C1.8018 6.6752 2.06486 6.49743 2.17579 6.22636V6.22636C2.19941 6.16838 2.29991 6.16838 2.32373 6.22628Z" fill="#F5F5F5"/>
<path d="M2.32373 8.56545V8.56545C2.43465 8.83652 2.69771 9.01429 2.99059 9.0161L3.08601 9.0167C3.16101 9.01723 3.19204 9.09515 3.13176 9.13144L3.07943 9.16293C2.84046 9.30675 2.73968 9.60169 2.84067 9.86167V9.86167C2.86335 9.91988 2.78189 9.96816 2.72085 9.93256V9.93256C2.42968 9.76301 2.06981 9.76305 1.77866 9.93264V9.93264C1.71763 9.96816 1.63635 9.91995 1.65885 9.86174V9.86174C1.75984 9.60176 1.65906 9.30683 1.42009 9.16301L1.36775 9.13151C1.30747 9.09515 1.3385 9.01731 1.4135 9.01677L1.50892 9.01618C1.8018 9.01437 2.06486 8.8366 2.17579 8.56553V8.56553C2.19941 8.50747 2.29991 8.50747 2.32373 8.56545Z" fill="#F5F5F5"/>
<path d="M2.32373 10.9036V10.9036C2.43465 11.1747 2.69771 11.3525 2.99059 11.3543L3.08601 11.3549C3.16101 11.3554 3.19204 11.4333 3.13176 11.4696L3.07943 11.5011C2.84046 11.6449 2.73968 11.9399 2.84067 12.1999V12.1999C2.86335 12.2581 2.78189 12.3064 2.72085 12.2708V12.2708C2.42968 12.1012 2.06981 12.1012 1.77866 12.2708V12.2708C1.71763 12.3064 1.63635 12.2581 1.65885 12.1999V12.1999C1.75984 11.94 1.65906 11.645 1.42009 11.5012L1.36775 11.4697C1.30747 11.4333 1.3385 11.3555 1.4135 11.355L1.50892 11.3544C1.8018 11.3526 2.06486 11.1748 2.17579 10.9037V10.9037C2.19941 10.8456 2.29991 10.8456 2.32373 10.9036Z" fill="#F5F5F5"/>
<path d="M4.5581 2.69333V2.69333C4.66903 2.9644 4.93209 3.14217 5.22497 3.14399L5.32039 3.14458C5.39539 3.14511 5.42642 3.22303 5.36614 3.25932L5.3138 3.29082C5.07483 3.43463 4.97405 3.72957 5.07504 3.98955V3.98955C5.09773 4.04776 5.01626 4.09604 4.95523 4.06044V4.06044C4.66406 3.89085 4.3042 3.89085 4.01304 4.06044V4.06044C3.952 4.09597 3.87072 4.04776 3.89322 3.98955V3.98955C3.99421 3.72957 3.89343 3.43463 3.65446 3.29082L3.60213 3.25932C3.54185 3.22296 3.57288 3.14511 3.64788 3.14458L3.74329 3.14399C4.03618 3.14217 4.29924 2.9644 4.41016 2.69333V2.69333C4.43369 2.63543 4.53438 2.63543 4.5581 2.69333Z" fill="#F5F5F5"/>
<path d="M4.5581 5.03323V5.03323C4.66903 5.3043 4.93209 5.48207 5.22497 5.48389L5.32039 5.48448C5.39539 5.48501 5.42642 5.56293 5.36614 5.59922L5.3138 5.63072C5.07483 5.77453 4.97405 6.06947 5.07504 6.32945V6.32945C5.09773 6.38766 5.01626 6.43594 4.95523 6.40034V6.40034C4.66406 6.23075 4.3042 6.23075 4.01304 6.40034V6.40034C3.952 6.43587 3.87072 6.38774 3.89322 6.32945V6.32945C3.99421 6.06947 3.89343 5.77453 3.65446 5.63072L3.60213 5.59922C3.54185 5.56286 3.57288 5.48501 3.64788 5.48448L3.74329 5.48389C4.03618 5.48207 4.29924 5.3043 4.41016 5.03323V5.03323C4.43369 4.97525 4.53438 4.97525 4.5581 5.03323Z" fill="#F5F5F5"/>
<path d="M4.5581 7.37234V7.37234C4.66903 7.64341 4.93209 7.82118 5.22497 7.823L5.32039 7.82359C5.39539 7.82413 5.42642 7.90205 5.36614 7.93833L5.3138 7.96983C5.07483 8.11365 4.97405 8.40858 5.07504 8.66856V8.66856C5.09773 8.72677 5.01626 8.77505 4.95523 8.73946V8.73946C4.66406 8.56986 4.3042 8.56986 4.01304 8.73946V8.73946C3.952 8.77498 3.87072 8.72677 3.89322 8.66856V8.66856C3.99421 8.40858 3.89343 8.11365 3.65446 7.96983L3.60213 7.93833C3.54185 7.90197 3.57288 7.82413 3.64788 7.82359L3.7433 7.823C4.03618 7.82118 4.29924 7.64341 4.41016 7.37234V7.37234C4.43369 7.31436 4.53438 7.31436 4.5581 7.37234Z" fill="#F5F5F5"/>
<path d="M4.5581 9.7114V9.7114C4.66903 9.98247 4.93209 10.1602 5.22497 10.1621L5.32039 10.1626C5.39539 10.1632 5.42642 10.2411 5.36614 10.2774L5.3138 10.3089C5.07483 10.4527 4.97405 10.7476 5.07504 11.0076V11.0076C5.09773 11.0658 5.01626 11.1141 4.95523 11.0785V11.0785C4.66406 10.9089 4.3042 10.9089 4.01304 11.0785V11.0785C3.952 11.114 3.87072 11.0658 3.89322 11.0076V11.0076C3.99421 10.7476 3.89343 10.4527 3.65446 10.3089L3.60213 10.2774C3.54185 10.241 3.57288 10.1632 3.64788 10.1626L3.74329 10.1621C4.03618 10.1602 4.29924 9.98247 4.41016 9.7114V9.7114C4.43369 9.65349 4.53438 9.65349 4.5581 9.7114Z" fill="#F5F5F5"/>
<path d="M6.7866 1.54666V1.54666C6.89753 1.81773 7.16058 1.9955 7.45347 1.99732L7.54888 1.99791C7.62388 1.99844 7.65491 2.07636 7.59463 2.11265L7.5423 2.14414C7.30333 2.28796 7.20255 2.5829 7.30353 2.84288V2.84288C7.32622 2.90109 7.24475 2.94937 7.18372 2.91377V2.91377C6.89256 2.74418 6.53271 2.74418 6.24154 2.91377V2.91377C6.18051 2.9493 6.09923 2.90109 6.12173 2.84288V2.84288C6.22272 2.5829 6.12194 2.28796 5.88297 2.14414L5.83064 2.11265C5.77036 2.07629 5.80139 1.99844 5.87639 1.99791L5.9718 1.99732C6.26468 1.9955 6.52774 1.81773 6.63867 1.54666V1.54666C6.66229 1.48868 6.76288 1.48868 6.7866 1.54666Z" fill="#F5F5F5"/>
<path d="M6.78662 3.88645V3.88645C6.89754 4.15752 7.1606 4.33529 7.45349 4.3371L7.5489 4.33769C7.6239 4.33823 7.65493 4.41615 7.59465 4.45244L7.54232 4.48393C7.30335 4.62775 7.20257 4.92269 7.30356 5.18267V5.18267C7.32625 5.24088 7.24478 5.28916 7.18374 5.25356V5.25356C6.89258 5.08396 6.53272 5.08396 6.24155 5.25356V5.25356C6.18052 5.28908 6.09924 5.24088 6.12174 5.18267V5.18267C6.22273 4.92269 6.12195 4.62775 5.88298 4.48393L5.83064 4.45244C5.77036 4.41607 5.80139 4.33823 5.87639 4.33769L5.97181 4.3371C6.26469 4.33529 6.52775 4.15752 6.63868 3.88645V3.88645C6.6623 3.82854 6.7629 3.82854 6.78662 3.88645Z" fill="#F5F5F5"/>
<path d="M6.78662 6.22629V6.22629C6.89754 6.49736 7.1606 6.67513 7.45349 6.67695L7.5489 6.67754C7.6239 6.67807 7.65493 6.75599 7.59465 6.79228L7.54232 6.82378C7.30335 6.9676 7.20257 7.26253 7.30356 7.52251V7.52251C7.32625 7.58072 7.24478 7.629 7.18374 7.59341V7.59341C6.89258 7.42381 6.53272 7.42381 6.24155 7.59341V7.59341C6.18052 7.62893 6.09924 7.58072 6.12174 7.52251V7.52251C6.22273 7.26253 6.12195 6.9676 5.88298 6.82378L5.83064 6.79228C5.77036 6.75592 5.80139 6.67807 5.87639 6.67754L5.97181 6.67695C6.26469 6.67513 6.52775 6.49736 6.63868 6.22629V6.22629C6.6623 6.16839 6.7629 6.16839 6.78662 6.22629Z" fill="#F5F5F5"/>
<path d="M6.78662 8.56546V8.56546C6.89754 8.83653 7.1606 9.0143 7.45348 9.01611L7.5489 9.01671C7.6239 9.01724 7.65493 9.09516 7.59465 9.13145L7.54232 9.16294C7.30335 9.30676 7.20257 9.60169 7.30356 9.86167V9.86167C7.32625 9.91989 7.24478 9.96817 7.18374 9.93257V9.93257C6.89258 9.76297 6.53272 9.76297 6.24155 9.93257V9.93257C6.18052 9.96809 6.09924 9.91989 6.12174 9.86167V9.86167C6.22273 9.60169 6.12195 9.30676 5.88298 9.16294L5.83064 9.13145C5.77036 9.09508 5.80139 9.01724 5.87639 9.01671L5.97181 9.01611C6.2647 9.0143 6.52775 8.83653 6.63868 8.56546V8.56546C6.6623 8.50748 6.7629 8.50748 6.78662 8.56546Z" fill="#F5F5F5"/>
<path d="M6.78662 10.9037V10.9037C6.89754 11.1747 7.1606 11.3525 7.45349 11.3543L7.5489 11.3549C7.6239 11.3554 7.65493 11.4334 7.59465 11.4696L7.54232 11.5011C7.30335 11.645 7.20257 11.9399 7.30356 12.1999V12.1999C7.32625 12.2581 7.24478 12.3064 7.18374 12.2708V12.2708C6.89258 12.1012 6.53272 12.1012 6.24155 12.2708V12.2708C6.18052 12.3063 6.09924 12.2581 6.12174 12.1999V12.1999C6.22273 11.9399 6.12195 11.645 5.88298 11.5011L5.83064 11.4696C5.77036 11.4333 5.80139 11.3554 5.87639 11.3549L5.97181 11.3543C6.26469 11.3525 6.52775 11.1747 6.63868 10.9037V10.9037C6.6623 10.8456 6.7629 10.8456 6.78662 10.9037Z" fill="#F5F5F5"/>
<path d="M9.01416 2.69333V2.69333C9.12508 2.9644 9.38814 3.14217 9.68102 3.14399L9.77644 3.14458C9.85144 3.14511 9.88247 3.22303 9.82219 3.25932L9.76986 3.29082C9.53089 3.43463 9.43011 3.72957 9.5311 3.98955V3.98955C9.55378 4.04776 9.47231 4.09604 9.41128 4.06044V4.06044C9.12012 3.89085 8.76026 3.89085 8.46909 4.06044V4.06044C8.40806 4.09597 8.32678 4.04776 8.34928 3.98955V3.98955C8.45027 3.72957 8.34949 3.43463 8.11052 3.29082L8.05818 3.25932C7.9979 3.22296 8.02893 3.14511 8.10393 3.14458L8.19935 3.14399C8.49223 3.14217 8.75529 2.9644 8.86622 2.69333V2.69333C8.88975 2.63543 8.99044 2.63543 9.01416 2.69333Z" fill="#F5F5F5"/>
<path d="M9.01416 5.03323V5.03323C9.12508 5.3043 9.38814 5.48207 9.68102 5.48389L9.77644 5.48448C9.85144 5.48501 9.88247 5.56293 9.82219 5.59922L9.76986 5.63072C9.53089 5.77453 9.43011 6.06947 9.5311 6.32945V6.32945C9.55378 6.38766 9.47231 6.43594 9.41128 6.40034V6.40034C9.12012 6.23075 8.76026 6.23075 8.46909 6.40034V6.40034C8.40806 6.43587 8.32678 6.38774 8.34928 6.32945V6.32945C8.45027 6.06947 8.34949 5.77453 8.11052 5.63072L8.05818 5.59922C7.9979 5.56286 8.02893 5.48501 8.10393 5.48448L8.19935 5.48389C8.49223 5.48207 8.75529 5.3043 8.86622 5.03323V5.03323C8.88975 4.97525 8.99044 4.97525 9.01416 5.03323Z" fill="#F5F5F5"/>
<path d="M9.01416 7.37234V7.37234C9.12508 7.64341 9.38814 7.82118 9.68102 7.823L9.77644 7.82359C9.85144 7.82413 9.88247 7.90205 9.82219 7.93833L9.76986 7.96983C9.53089 8.11365 9.43011 8.40858 9.5311 8.66856V8.66856C9.55378 8.72677 9.47231 8.77505 9.41128 8.73946V8.73946C9.12012 8.56986 8.76026 8.56986 8.46909 8.73946V8.73946C8.40806 8.77498 8.32678 8.72677 8.34928 8.66856V8.66856C8.45027 8.40858 8.34949 8.11365 8.11052 7.96983L8.05818 7.93833C7.9979 7.90197 8.02893 7.82413 8.10393 7.82359L8.19935 7.823C8.49223 7.82118 8.75529 7.64341 8.86622 7.37234V7.37234C8.88975 7.31436 8.99044 7.31436 9.01416 7.37234Z" fill="#F5F5F5"/>
<path d="M9.01416 9.7114V9.7114C9.12508 9.98247 9.38814 10.1602 9.68103 10.1621L9.77644 10.1626C9.85144 10.1632 9.88247 10.2411 9.82219 10.2774L9.76986 10.3089C9.53089 10.4527 9.43011 10.7476 9.5311 11.0076V11.0076C9.55378 11.0658 9.47231 11.1141 9.41128 11.0785V11.0785C9.12012 10.9089 8.76026 10.9089 8.46909 11.0785V11.0785C8.40806 11.114 8.32678 11.0658 8.34928 11.0076V11.0076C8.45027 10.7476 8.34949 10.4527 8.11052 10.3089L8.05818 10.2774C7.9979 10.241 8.02893 10.1632 8.10393 10.1626L8.19935 10.1621C8.49223 10.1602 8.75529 9.98247 8.86622 9.7114V9.7114C8.88975 9.65349 8.99044 9.65349 9.01416 9.7114Z" fill="#F5F5F5"/>
<path d="M11.2486 1.54666V1.54666C11.3595 1.81773 11.6226 1.9955 11.9155 1.99732L12.0109 1.99791C12.0859 1.99844 12.1169 2.07636 12.0567 2.11265L12.0043 2.14414C11.7653 2.28796 11.6646 2.5829 11.7656 2.84288V2.84288C11.7882 2.90109 11.7068 2.94937 11.6457 2.91377V2.91377C11.3546 2.7442 10.9946 2.74417 10.7035 2.91377V2.91377C10.6424 2.9493 10.5612 2.90109 10.5837 2.84288V2.84288C10.6846 2.5829 10.5839 2.28796 10.3449 2.14415L10.2926 2.11265C10.2323 2.07629 10.2633 1.99844 10.3383 1.99791L10.4337 1.99732C10.7266 1.9955 10.9897 1.81773 11.1006 1.54666V1.54666C11.1243 1.48868 11.2249 1.48868 11.2486 1.54666Z" fill="#F5F5F5"/>
<path d="M11.2486 3.88571V3.88571C11.3595 4.15679 11.6226 4.33455 11.9155 4.33637L12.0109 4.33696C12.0859 4.3375 12.1169 4.41542 12.0567 4.4517L12.0043 4.4832C11.7653 4.62702 11.6646 4.92195 11.7656 5.18193V5.18193C11.7882 5.24015 11.7068 5.28842 11.6457 5.25283V5.25283C11.3546 5.08325 10.9946 5.08323 10.7035 5.25283V5.25283C10.6424 5.28835 10.5612 5.24015 10.5837 5.18193V5.18193C10.6846 4.92195 10.5839 4.62702 10.3449 4.4832L10.2926 4.4517C10.2323 4.41534 10.2633 4.3375 10.3383 4.33696L10.4337 4.33637C10.7266 4.33455 10.9897 4.15679 11.1006 3.88571V3.88571C11.1243 3.82781 11.2249 3.82781 11.2486 3.88571Z" fill="#F5F5F5"/>
<path d="M11.2486 6.22629V6.22629C11.3595 6.49736 11.6226 6.67513 11.9155 6.67695L12.0109 6.67754C12.0859 6.67807 12.1169 6.75599 12.0567 6.79228L12.0043 6.82378C11.7653 6.96759 11.6646 7.26253 11.7656 7.52251V7.52251C11.7882 7.58072 11.7068 7.629 11.6457 7.59341V7.59341C11.3546 7.42383 10.9946 7.42381 10.7035 7.59341V7.59341C10.6424 7.62893 10.5612 7.58072 10.5837 7.52251V7.52251C10.6846 7.26253 10.5839 6.9676 10.3449 6.82378L10.2926 6.79228C10.2323 6.75592 10.2633 6.67807 10.3383 6.67754L10.4337 6.67695C10.7266 6.67513 10.9897 6.49736 11.1006 6.22629V6.22629C11.1243 6.16839 11.2249 6.16839 11.2486 6.22629Z" fill="#F5F5F5"/>
<path d="M11.2486 8.56546V8.56546C11.3595 8.83653 11.6226 9.0143 11.9155 9.01611L12.0109 9.01671C12.0859 9.01724 12.1169 9.09516 12.0567 9.13145L12.0043 9.16294C11.7653 9.30676 11.6646 9.60169 11.7656 9.86167V9.86167C11.7882 9.91989 11.7068 9.96817 11.6457 9.93257V9.93257C11.3546 9.76299 10.9946 9.76297 10.7035 9.93257V9.93257C10.6424 9.96809 10.5612 9.91989 10.5837 9.86167V9.86167C10.6846 9.60169 10.5839 9.30676 10.3449 9.16294L10.2926 9.13145C10.2323 9.09508 10.2633 9.01724 10.3383 9.01671L10.4337 9.01611C10.7266 9.0143 10.9897 8.83653 11.1006 8.56546V8.56546C11.1243 8.50748 11.2249 8.50748 11.2486 8.56546Z" fill="#F5F5F5"/>
<path d="M11.2486 10.9037V10.9037C11.3595 11.1747 11.6226 11.3525 11.9155 11.3543L12.0109 11.3549C12.0859 11.3554 12.1169 11.4334 12.0567 11.4696L12.0043 11.5011C11.7653 11.645 11.6646 11.9399 11.7656 12.1999V12.1999C11.7882 12.2581 11.7068 12.3064 11.6457 12.2708V12.2708C11.3546 12.1012 10.9946 12.1012 10.7035 12.2708V12.2708C10.6424 12.3063 10.5612 12.2581 10.5837 12.1999V12.1999C10.6846 11.9399 10.5839 11.645 10.3449 11.5011L10.2926 11.4696C10.2323 11.4333 10.2633 11.3554 10.3383 11.3549L10.4337 11.3543C10.7266 11.3525 10.9897 11.1747 11.1006 10.9037V10.9037C11.1243 10.8456 11.2249 10.8456 11.2486 10.9037Z" fill="#F5F5F5"/>
<path d="M13.4751 2.69333V2.69333C13.586 2.9644 13.8491 3.14217 14.142 3.14399L14.2374 3.14458C14.3124 3.14511 14.3434 3.22303 14.2831 3.25932L14.2308 3.29082C13.9918 3.43463 13.891 3.72957 13.992 3.98955V3.98955C14.0147 4.04776 13.9333 4.09604 13.8722 4.06044V4.06044C13.5811 3.89085 13.2212 3.89085 12.93 4.06044V4.06044C12.869 4.09597 12.7877 4.04776 12.8102 3.98955V3.98955C12.9112 3.72957 12.8104 3.43463 12.5715 3.29082L12.5191 3.25932C12.4588 3.22296 12.4899 3.14511 12.5649 3.14458L12.6603 3.14399C12.9532 3.14217 13.2162 2.9644 13.3272 2.69333V2.69333C13.3509 2.63543 13.4514 2.63543 13.4751 2.69333Z" fill="#F5F5F5"/>
<path d="M13.4751 5.03323V5.03323C13.586 5.3043 13.8491 5.48207 14.142 5.48389L14.2374 5.48448C14.3124 5.48501 14.3434 5.56293 14.2831 5.59922L14.2308 5.63072C13.9918 5.77453 13.891 6.06947 13.992 6.32945V6.32945C14.0147 6.38766 13.9333 6.43594 13.8722 6.40034V6.40034C13.5811 6.23075 13.2212 6.23075 12.93 6.40034V6.40034C12.869 6.43587 12.7877 6.38774 12.8102 6.32945V6.32945C12.9112 6.06947 12.8104 5.77453 12.5715 5.63072L12.5191 5.59922C12.4588 5.56286 12.4899 5.48501 12.5649 5.48448L12.6603 5.48389C12.9532 5.48207 13.2162 5.3043 13.3272 5.03323V5.03323C13.3509 4.97525 13.4514 4.97525 13.4751 5.03323Z" fill="#F5F5F5"/>
<path d="M13.4751 7.37234V7.37234C13.586 7.64341 13.8491 7.82118 14.142 7.823L14.2374 7.82359C14.3124 7.82413 14.3434 7.90205 14.2831 7.93833L14.2308 7.96983C13.9918 8.11365 13.891 8.40858 13.992 8.66856V8.66856C14.0147 8.72677 13.9333 8.77505 13.8722 8.73946V8.73946C13.5811 8.56986 13.2212 8.56986 12.93 8.73946V8.73946C12.869 8.77498 12.7877 8.72677 12.8102 8.66856V8.66856C12.9112 8.40858 12.8104 8.11365 12.5715 7.96983L12.5191 7.93833C12.4588 7.90197 12.4899 7.82413 12.5649 7.82359L12.6603 7.823C12.9532 7.82118 13.2162 7.64341 13.3272 7.37234V7.37234C13.3509 7.31436 13.4514 7.31436 13.4751 7.37234Z" fill="#F5F5F5"/>
<path d="M13.4751 9.7114V9.7114C13.586 9.98247 13.8491 10.1602 14.142 10.1621L14.2374 10.1626C14.3124 10.1632 14.3434 10.2411 14.2831 10.2774L14.2308 10.3089C13.9918 10.4527 13.891 10.7476 13.992 11.0076V11.0076C14.0147 11.0658 13.9333 11.1141 13.8722 11.0785V11.0785C13.5811 10.9089 13.2212 10.9089 12.93 11.0785V11.0785C12.869 11.114 12.7877 11.0658 12.8102 11.0076V11.0076C12.9112 10.7476 12.8104 10.4527 12.5715 10.3089L12.5191 10.2774C12.4588 10.241 12.4899 10.1632 12.5649 10.1626L12.6603 10.1621C12.9532 10.1602 13.2162 9.98247 13.3272 9.7114V9.7114C13.3509 9.65349 13.4514 9.65349 13.4751 9.7114Z" fill="#F5F5F5"/>
<path d="M15.7095 1.54666V1.54666C15.8204 1.81773 16.0835 1.9955 16.3763 1.99732L16.4718 1.99791C16.5468 1.99844 16.5778 2.07636 16.5175 2.11265L16.4652 2.14415C16.2262 2.28796 16.1254 2.5829 16.2264 2.84288V2.84288C16.2491 2.90109 16.1676 2.94937 16.1066 2.91377V2.91377C15.8154 2.74418 15.4556 2.74418 15.1644 2.91377V2.91377C15.1034 2.9493 15.0221 2.90109 15.0446 2.84288V2.84288C15.1456 2.5829 15.0448 2.28796 14.8058 2.14415L14.7535 2.11265C14.6932 2.07629 14.7242 1.99844 14.7992 1.99791L14.8947 1.99732C15.1875 1.9955 15.4506 1.81773 15.5615 1.54666V1.54666C15.5851 1.48868 15.6857 1.48868 15.7095 1.54666Z" fill="#F5F5F5"/>
<path d="M15.7095 3.88571V3.88571C15.8204 4.15679 16.0835 4.33455 16.3763 4.33637L16.4718 4.33696C16.5468 4.3375 16.5778 4.41542 16.5175 4.4517L16.4652 4.4832C16.2262 4.62702 16.1254 4.92195 16.2264 5.18193V5.18193C16.2491 5.24015 16.1676 5.28842 16.1066 5.25283V5.25283C15.8154 5.08323 15.4556 5.08323 15.1644 5.25283V5.25283C15.1034 5.28835 15.0221 5.24015 15.0446 5.18193V5.18193C15.1456 4.92195 15.0448 4.62702 14.8058 4.4832L14.7535 4.4517C14.6932 4.41534 14.7242 4.3375 14.7992 4.33696L14.8947 4.33637C15.1875 4.33455 15.4506 4.15679 15.5615 3.88571V3.88571C15.5851 3.82781 15.6857 3.82781 15.7095 3.88571Z" fill="#F5F5F5"/>
<path d="M15.7095 6.22629V6.22629C15.8204 6.49736 16.0835 6.67513 16.3763 6.67695L16.4718 6.67754C16.5468 6.67807 16.5778 6.75599 16.5175 6.79228L16.4652 6.82378C16.2262 6.9676 16.1254 7.26253 16.2264 7.52251V7.52251C16.2491 7.58072 16.1676 7.629 16.1066 7.59341V7.59341C15.8154 7.42381 15.4556 7.42381 15.1644 7.59341V7.59341C15.1034 7.62893 15.0221 7.58072 15.0446 7.52251V7.52251C15.1456 7.26253 15.0448 6.9676 14.8058 6.82378L14.7535 6.79228C14.6932 6.75592 14.7242 6.67807 14.7992 6.67754L14.8947 6.67695C15.1875 6.67513 15.4506 6.49736 15.5615 6.22629V6.22629C15.5851 6.16839 15.6857 6.16839 15.7095 6.22629Z" fill="#F5F5F5"/>
<path d="M15.7095 8.56546V8.56546C15.8204 8.83653 16.0835 9.0143 16.3763 9.01611L16.4718 9.01671C16.5468 9.01724 16.5778 9.09516 16.5175 9.13145L16.4652 9.16294C16.2262 9.30676 16.1254 9.60169 16.2264 9.86167V9.86167C16.2491 9.91989 16.1676 9.96817 16.1066 9.93257V9.93257C15.8154 9.76297 15.4556 9.76297 15.1644 9.93257V9.93257C15.1034 9.96809 15.0221 9.91989 15.0446 9.86167V9.86167C15.1456 9.60169 15.0448 9.30676 14.8058 9.16294L14.7535 9.13145C14.6932 9.09508 14.7242 9.01724 14.7992 9.01671L14.8947 9.01611C15.1875 9.0143 15.4506 8.83653 15.5615 8.56546V8.56546C15.5851 8.50748 15.6857 8.50748 15.7095 8.56546Z" fill="#F5F5F5"/>
<path d="M15.7095 10.9037V10.9037C15.8204 11.1747 16.0835 11.3525 16.3763 11.3543L16.4718 11.3549C16.5468 11.3554 16.5778 11.4334 16.5175 11.4696L16.4652 11.5011C16.2262 11.645 16.1254 11.9399 16.2264 12.1999V12.1999C16.2491 12.2581 16.1676 12.3064 16.1066 12.2708V12.2708C15.8154 12.1012 15.4556 12.1012 15.1644 12.2708V12.2708C15.1034 12.3063 15.0221 12.2581 15.0446 12.1999V12.1999C15.1456 11.9399 15.0448 11.645 14.8058 11.5011L14.7535 11.4696C14.6932 11.4333 14.7242 11.3554 14.7992 11.3549L14.8947 11.3543C15.1875 11.3525 15.4506 11.1747 15.5615 10.9037V10.9037C15.5851 10.8456 15.6857 10.8456 15.7095 10.9037Z" fill="#F5F5F5"/>
<path d="M17.9409 2.69333V2.69333C18.0518 2.9644 18.3149 3.14217 18.6078 3.14399L18.7032 3.14458C18.7782 3.14511 18.8092 3.22303 18.7489 3.25932L18.6966 3.29082C18.4576 3.43463 18.3569 3.72957 18.4579 3.98955V3.98955C18.4805 4.04776 18.3991 4.09604 18.338 4.06045V4.06045C18.0469 3.89085 17.687 3.89085 17.3958 4.06045V4.06045C17.3348 4.09597 17.2535 4.04776 17.276 3.98955V3.98955C17.377 3.72957 17.2762 3.43463 17.0373 3.29082L16.9849 3.25932C16.9247 3.22296 16.9557 3.14511 17.0307 3.14458L17.1261 3.14399C17.419 3.14217 17.682 2.9644 17.793 2.69333V2.69333C17.8166 2.63543 17.9173 2.63543 17.9409 2.69333Z" fill="#F5F5F5"/>
<path d="M17.9409 5.03323V5.03323C18.0518 5.3043 18.3149 5.48207 18.6078 5.48389L18.7032 5.48448C18.7782 5.48501 18.8092 5.56293 18.7489 5.59922L18.6966 5.63072C18.4576 5.77453 18.3569 6.06947 18.4579 6.32945V6.32945C18.4805 6.38766 18.3991 6.43594 18.338 6.40034V6.40034C18.0469 6.23074 17.687 6.23074 17.3958 6.40034V6.40034C17.3348 6.43586 17.2535 6.38774 17.276 6.32945V6.32945C17.377 6.06947 17.2762 5.77453 17.0373 5.63072L16.9849 5.59922C16.9247 5.56286 16.9557 5.48501 17.0307 5.48448L17.1261 5.48389C17.419 5.48207 17.682 5.3043 17.793 5.03323V5.03323C17.8166 4.97525 17.9173 4.97525 17.9409 5.03323Z" fill="#F5F5F5"/>
<path d="M17.9409 7.37234V7.37234C18.0518 7.64341 18.3149 7.82118 18.6078 7.823L18.7032 7.82359C18.7782 7.82413 18.8092 7.90205 18.7489 7.93833L18.6966 7.96983C18.4576 8.11365 18.3569 8.40858 18.4579 8.66856V8.66856C18.4805 8.72677 18.3991 8.77505 18.338 8.73946V8.73946C18.0469 8.56986 17.687 8.56986 17.3958 8.73946V8.73946C17.3348 8.77498 17.2535 8.72677 17.276 8.66856V8.66856C17.377 8.40858 17.2762 8.11365 17.0373 7.96983L16.9849 7.93833C16.9247 7.90197 16.9557 7.82413 17.0307 7.82359L17.1261 7.823C17.419 7.82118 17.682 7.64341 17.793 7.37234V7.37234C17.8166 7.31436 17.9173 7.31436 17.9409 7.37234Z" fill="#F5F5F5"/>
<path d="M17.9409 9.7114V9.7114C18.0518 9.98247 18.3149 10.1602 18.6078 10.1621L18.7032 10.1626C18.7782 10.1632 18.8092 10.2411 18.7489 10.2774L18.6966 10.3089C18.4576 10.4527 18.3569 10.7476 18.4579 11.0076V11.0076C18.4805 11.0658 18.3991 11.1141 18.338 11.0785V11.0785C18.0469 10.9089 17.687 10.9089 17.3958 11.0785V11.0785C17.3348 11.114 17.2535 11.0658 17.276 11.0076V11.0076C17.377 10.7476 17.2762 10.4527 17.0373 10.3089L16.9849 10.2774C16.9247 10.241 16.9557 10.1632 17.0307 10.1626L17.1261 10.1621C17.419 10.1602 17.682 9.98247 17.793 9.7114V9.7114C17.8166 9.65349 17.9173 9.65349 17.9409 9.7114Z" fill="#F5F5F5"/>
<path d="M20.1655 1.54666V1.54666C20.2764 1.81773 20.5395 1.9955 20.8324 1.99732L20.9278 1.99791C21.0028 1.99844 21.0338 2.07636 20.9736 2.11265L20.9212 2.14415C20.6823 2.28796 20.5815 2.5829 20.6825 2.84288V2.84288C20.7052 2.90109 20.6237 2.94937 20.5627 2.91377V2.91377C20.2715 2.74418 19.9116 2.74418 19.6205 2.91377V2.91377C19.5594 2.9493 19.4781 2.90109 19.5006 2.84288V2.84288C19.6016 2.5829 19.5009 2.28796 19.2619 2.14415L19.2095 2.11265C19.1493 2.07629 19.1803 1.99844 19.2553 1.99791L19.3507 1.99732C19.6436 1.9955 19.9067 1.81773 20.0176 1.54666V1.54666C20.0412 1.48868 20.1417 1.48868 20.1655 1.54666Z" fill="#F5F5F5"/>
<path d="M20.1655 3.88571V3.88571C20.2765 4.15679 20.5395 4.33455 20.8324 4.33637L20.9278 4.33696C21.0028 4.3375 21.0338 4.41542 20.9736 4.4517L20.9212 4.4832C20.6823 4.62702 20.5815 4.92195 20.6825 5.18193V5.18193C20.7052 5.24015 20.6237 5.28842 20.5627 5.25283V5.25283C20.2715 5.08323 19.9116 5.08323 19.6205 5.25283V5.25283C19.5594 5.28835 19.4781 5.24015 19.5006 5.18193V5.18193C19.6016 4.92195 19.5009 4.62702 19.2619 4.4832L19.2095 4.4517C19.1493 4.41534 19.1803 4.3375 19.2553 4.33696L19.3507 4.33637C19.6436 4.33455 19.9067 4.15679 20.0176 3.88571V3.88571C20.0412 3.82781 20.1417 3.82781 20.1655 3.88571Z" fill="#F5F5F5"/>
<path d="M20.1655 6.22629V6.22629C20.2764 6.49736 20.5395 6.67513 20.8324 6.67695L20.9278 6.67754C21.0028 6.67807 21.0338 6.75599 20.9736 6.79228L20.9212 6.82378C20.6823 6.9676 20.5815 7.26253 20.6825 7.52251V7.52251C20.7052 7.58072 20.6237 7.629 20.5627 7.59341V7.59341C20.2715 7.42381 19.9116 7.42381 19.6205 7.59341V7.59341C19.5594 7.62893 19.4781 7.58072 19.5006 7.52251V7.52251C19.6016 7.26253 19.5009 6.9676 19.2619 6.82378L19.2095 6.79228C19.1493 6.75592 19.1803 6.67807 19.2553 6.67754L19.3507 6.67695C19.6436 6.67513 19.9067 6.49736 20.0176 6.22629V6.22629C20.0412 6.16839 20.1417 6.16839 20.1655 6.22629Z" fill="#F5F5F5"/>
<path d="M20.1655 8.56546V8.56546C20.2765 8.83653 20.5395 9.0143 20.8324 9.01611L20.9278 9.01671C21.0028 9.01724 21.0338 9.09516 20.9736 9.13145L20.9212 9.16294C20.6823 9.30676 20.5815 9.60169 20.6825 9.86167V9.86167C20.7052 9.91989 20.6237 9.96817 20.5627 9.93257V9.93257C20.2715 9.76297 19.9116 9.76297 19.6205 9.93257V9.93257C19.5594 9.96809 19.4781 9.91989 19.5006 9.86167V9.86167C19.6016 9.60169 19.5009 9.30676 19.2619 9.16294L19.2095 9.13145C19.1493 9.09508 19.1803 9.01724 19.2553 9.01671L19.3507 9.01611C19.6436 9.0143 19.9067 8.83653 20.0176 8.56546V8.56546C20.0412 8.50748 20.1417 8.50748 20.1655 8.56546Z" fill="#F5F5F5"/>
<path d="M20.1655 10.9037V10.9037C20.2764 11.1747 20.5395 11.3525 20.8324 11.3543L20.9278 11.3549C21.0028 11.3554 21.0338 11.4334 20.9736 11.4696L20.9212 11.5011C20.6823 11.645 20.5815 11.9399 20.6825 12.1999V12.1999C20.7052 12.2581 20.6237 12.3064 20.5627 12.2708V12.2708C20.2715 12.1012 19.9116 12.1012 19.6205 12.2708V12.2708C19.5594 12.3063 19.4781 12.2581 19.5006 12.1999V12.1999C19.6016 11.9399 19.5009 11.645 19.2619 11.5011L19.2095 11.4696C19.1493 11.4333 19.1803 11.3554 19.2553 11.3549L19.3507 11.3543C19.6436 11.3525 19.9067 11.1747 20.0176 10.9037V10.9037C20.0412 10.8456 20.1417 10.8456 20.1655 10.9037Z" fill="#F5F5F5"/>
</svg>
