<svg width="32" height="32" viewBox="0 0 32 32" fill="none" xmlns="http://www.w3.org/2000/svg">
<path fill-rule="evenodd" clip-rule="evenodd" d="M2.64391e-06 16.0092C-0.00181639 12.8443 0.935032 9.74993 2.69205 7.11752C4.44907 4.48512 6.94733 2.43292 9.87081 1.22053C12.7943 0.00812928 16.0117 -0.310006 19.116 0.30636C22.2203 0.922726 25.0721 2.4459 27.3106 4.68323C29.5492 6.92055 31.0739 9.77151 31.6919 12.8755C32.31 15.9795 31.9936 19.197 30.7828 22.1212C29.572 25.0453 27.5212 27.5447 24.8897 29.3031C22.2582 31.0616 19.1644 32.0001 15.9995 32C11.7595 31.9939 7.69484 30.3075 4.69592 27.3102C1.697 24.3129 0.00838034 20.2492 2.64391e-06 16.0092ZM21.866 17.6287C22.0185 17.4716 22.1628 17.3067 22.2982 17.1347C22.5407 16.8103 22.6708 16.4157 22.6686 16.0107C22.6731 15.5753 22.5318 15.1508 22.2671 14.805C22.2456 14.7836 22.2032 14.7376 22.149 14.6778C22.0469 14.5659 21.8987 14.4055 21.7577 14.2645C19.9016 12.5131 17.7737 11.0744 15.4569 10.0042C15.0466 9.83107 14.6158 9.71089 14.1751 9.6466C13.8378 9.64654 13.5053 9.72601 13.2044 9.87854C12.8183 10.0932 12.5142 10.4297 12.3395 10.8354C12.2258 11.2054 12.133 11.5815 12.0616 11.9619C11.8642 13.2955 11.7764 14.6429 11.799 15.9908C11.787 17.2963 11.8645 18.6011 12.0309 19.896C12.035 19.9001 12.0478 19.9665 12.0687 20.0692C12.1377 20.4898 12.2492 20.9023 12.4013 21.3005C12.5643 21.6151 12.8102 21.8792 13.1124 22.0642C13.4145 22.2492 13.7615 22.3482 14.1158 22.3503H14.1777C14.6743 22.2744 15.1577 22.1289 15.6138 21.9181C17.2486 21.2392 20.4784 19.1246 21.7761 17.7197L21.866 17.6287Z" fill="white"/>
</svg>
