<svg width="47" height="46" viewBox="0 0 47 46" fill="none" xmlns="http://www.w3.org/2000/svg">
<path d="M36.0925 26.235V22.2825H33.0557V26.8435C33.0503 27.0431 33.0881 27.2415 33.1667 27.425C33.2453 27.6086 33.3627 27.7729 33.5108 27.9066L37.6114 32.012V34.4439H4.20698V32.012L8.30754 27.9066C8.45567 27.7729 8.57306 27.6086 8.65163 27.425C8.73019 27.2415 8.76806 27.0431 8.76261 26.8435V19.2421C8.76261 16.0169 10.0423 12.9237 12.3201 10.643C14.5979 8.36237 17.6873 7.08096 20.9087 7.0807C23.0441 7.08085 25.1406 7.65251 26.9812 8.73648V5.2563C25.5377 4.60894 23.9994 4.19838 22.4256 4.04035V1H19.3908V4.04035C15.652 4.46712 12.1983 6.24859 9.68094 9.04888C7.16357 11.8492 5.75644 15.4748 5.72486 19.2421V26.235L1.62529 30.3404C1.47716 30.4741 1.35976 30.6384 1.2812 30.822C1.20263 31.0055 1.16477 31.2039 1.17021 31.4035V35.9645C1.15655 36.1678 1.18647 36.3716 1.25796 36.5623C1.32946 36.753 1.44088 36.9262 1.58474 37.0702C1.7286 37.2142 1.90158 37.3258 2.09205 37.3974C2.28253 37.4689 2.4861 37.4989 2.68909 37.4852H13.3173C13.34 39.4861 14.1499 41.3973 15.5712 42.8041C16.9925 44.211 18.9105 45 20.9092 45C22.9078 45 24.8259 44.211 26.2471 42.8041C27.6684 41.3973 28.4783 39.4861 28.5011 37.4852H39.1292C39.3322 37.4987 39.5356 37.4687 39.726 37.397C39.9163 37.3254 40.0892 37.2138 40.2329 37.0698C40.3767 36.9258 40.488 36.7527 40.5595 36.562C40.6309 36.3714 40.6608 36.1677 40.6471 35.9645V31.4035C40.6526 31.2039 40.6147 31.0055 40.5361 30.822C40.4576 30.6384 40.3402 30.4741 40.1921 30.3404L36.0925 26.235ZM20.9087 42.0452C19.7004 42.0452 18.5417 41.5647 17.6874 40.7093C16.833 39.854 16.353 38.6939 16.353 37.4842H25.4643C25.4643 38.6939 24.9843 39.854 24.13 40.7093C23.2757 41.5647 22.1169 42.0452 20.9087 42.0452Z" fill="#424A5C" stroke="#424A5C" stroke-width="0.5"/>
<path d="M47 10C47 11.78 46.4722 13.5201 45.4832 15.0001C44.4943 16.4802 43.0887 17.6337 41.4442 18.3149C39.7996 18.9961 37.99 19.1743 36.2442 18.8271C34.4984 18.4798 32.8947 17.6226 31.636 16.364C30.3774 15.1053 29.5202 13.5016 29.1729 11.7558C28.8257 10.01 29.0039 8.20038 29.6851 6.55585C30.3663 4.91131 31.5198 3.50571 32.9999 2.51677C34.4799 1.52784 36.22 1 38 1C40.3869 1 42.6761 1.94821 44.364 3.63604C46.0518 5.32387 47 7.61305 47 10Z" fill="#FF6969"/>
<path d="M37.8285 8.35392C37.8415 9.05791 37.6393 9.74864 37.2496 10.3308L34.2021 15H32.3812L34.5881 11.7055H34.4224C33.5116 11.7401 32.6243 11.4072 31.9538 10.7795C31.638 10.4647 31.3902 10.0864 31.2264 9.66876C31.0626 9.2511 30.9862 8.80328 31.0023 8.35392C30.9854 7.9066 31.0614 7.46067 31.2253 7.0452C31.3893 6.62973 31.6375 6.25405 31.9538 5.94264C32.2839 5.628 32.6719 5.38298 33.0957 5.22171C33.5194 5.06044 33.9703 4.98613 34.4224 5.00308C34.8727 4.9836 35.3222 5.05678 35.744 5.21823C36.1658 5.37968 36.5512 5.62608 36.877 5.94264C37.1933 6.25405 37.4415 6.62973 37.6055 7.0452C37.7694 7.46067 37.8454 7.9066 37.8285 8.35392ZM32.5882 8.35392C32.5801 8.59699 32.6219 8.83911 32.711 9.06481C32.8002 9.29052 32.9346 9.49486 33.1057 9.6648C33.2804 9.8353 33.4869 9.96845 33.7131 10.0564C33.9392 10.1443 34.1804 10.1852 34.4224 10.1767C34.6625 10.1856 34.902 10.1459 35.1269 10.06C35.3518 9.97404 35.5576 9.84355 35.7325 9.67607C35.904 9.50379 36.0381 9.29682 36.1259 9.06855C36.2138 8.84028 36.2536 8.5958 36.2427 8.35092C36.2536 8.10604 36.2138 7.86156 36.1259 7.63329C36.0381 7.40502 35.904 7.19805 35.7325 7.02576C35.5574 6.85883 35.3514 6.72889 35.1265 6.64347C34.9017 6.55806 34.6623 6.51887 34.4224 6.52817C33.936 6.51032 33.4625 6.68926 33.1057 7.02576C32.9318 7.19725 32.7958 7.40433 32.7066 7.6333C32.6173 7.86227 32.577 8.1079 32.5882 8.35392ZM42.6696 9.37541H45V10.8035H42.6696V13.1773H41.2605V10.8073H38.9323V9.37541H41.2605V7.00772H42.6652L42.6696 9.37541Z" fill="#F4FAFF"/>
</svg>
