<svg width="32" height="32" viewBox="0 0 32 32" fill="none" xmlns="http://www.w3.org/2000/svg">
<path d="M23.0769 28.9237H3.07692V8.92372C3.07692 8.07756 2.38462 7.38525 1.53846 7.38525C0.692308 7.38525 0 8.07756 0 8.92372V28.9237C0 30.616 1.38462 32.0006 3.07692 32.0006H23.0769C23.9231 32.0006 24.6154 31.3083 24.6154 30.4622C24.6154 29.616 23.9231 28.9237 23.0769 28.9237Z" fill="#303548"/>
<path d="M28.9238 0H10.4623C8.76999 0 7.38538 1.38462 7.38538 3.07692V21.5385C7.38538 23.2308 8.76999 24.6154 10.4623 24.6154H28.9238C30.6161 24.6154 32.0008 23.2308 32.0008 21.5385V3.07692C32.0008 1.38462 30.6161 0 28.9238 0ZM19.7085 20C18.8008 20 18.0931 19.2769 18.0931 18.3846C18.0931 17.4769 18.8161 16.7846 19.7085 16.7846C20.6161 16.7846 21.3085 17.4769 21.3085 18.3846C21.2931 19.2769 20.6161 20 19.7085 20ZM23.5546 10.5077C22.5854 11.9385 21.6623 12.3692 21.1546 13.2923C21.0315 13.5077 20.9546 13.6923 20.9085 14.0462C20.8315 14.6462 20.3546 15.0923 19.7546 15.0923H19.7085C19.0315 15.0923 18.4931 14.5077 18.5546 13.8308C18.6008 13.4 18.6931 12.9538 18.9392 12.5385C19.57 11.4154 20.7546 10.7538 21.4469 9.76923C22.1854 8.72308 21.77 6.78462 19.6931 6.78462C18.7546 6.78462 18.1392 7.27692 17.7546 7.86154C17.4623 8.30769 16.8777 8.46154 16.3854 8.24615C15.7392 7.96923 15.4623 7.16923 15.8623 6.6C16.6469 5.46154 17.9546 4.61538 19.6777 4.61538C21.57 4.61538 22.8777 5.47692 23.5392 6.55385C24.1085 7.49231 24.4315 9.21538 23.5546 10.5077Z" fill="#303548"/>
</svg>
