<svg width="17" height="16" viewBox="0 0 17 16" fill="none" xmlns="http://www.w3.org/2000/svg">
<path d="M7.04309 0.291402L6.98891 0.386324L7.04309 0.291402ZM7.04309 0.291402C7.02667 0.282031 7.00782 0.278152 6.98891 0.278152C6.97496 0.278152 6.96111 0.275849 6.94788 0.271418C6.45552 0.106435 5.94754 0.016049 5.42313 0.00013024L8.30841 0.934975C8.27569 0.915053 8.23281 0.883983 8.1852 0.849479C8.11005 0.795022 8.0231 0.73201 7.94564 0.690772L7.62505 0.547618C7.46953 0.462241 7.30756 0.398326 7.13716 0.342026C7.1085 0.332557 7.08267 0.3162 7.05724 0.299944C7.05277 0.297085 7.04805 0.294232 7.04309 0.291402ZM6.68841 1.04577L6.69248 1.03362L6.68841 1.04577C6.70929 1.05276 6.73046 1.05905 6.75188 1.0646C6.78969 1.08298 6.83353 1.10179 6.88096 1.11746C7.02388 1.16469 7.13535 1.21042 7.23205 1.2635L7.26144 1.27964L7.29207 1.29332L7.57593 1.42007C7.58084 1.42314 7.58671 1.42691 7.5936 1.43146C7.6139 1.44488 7.63746 1.46137 7.66639 1.48215C7.67366 1.48737 7.6857 1.49609 7.69913 1.50581C7.72013 1.52101 7.74455 1.53868 7.75951 1.54936C7.78945 1.57072 7.83535 1.60308 7.8837 1.63252L7.88365 1.63259L7.89399 1.63868C8.3173 1.88797 8.8549 1.8721 9.26308 1.5949C10.0169 1.08299 10.8996 0.810388 11.8038 0.816777V0.816797H11.8095C12.2659 0.816797 12.7085 0.881223 13.1194 1.01885L13.1194 1.01889L13.1267 1.02126C15.688 1.85244 16.7403 4.70511 15.9021 7.38944C15.411 8.79114 14.611 10.0694 13.5665 11.1133C12.0431 12.5853 10.3774 13.8987 8.5881 15.0392C6.78816 13.9048 5.10867 12.5888 3.56706 11.1053C2.52817 10.0596 1.72714 8.78798 1.22808 7.38564C0.377668 4.70824 1.42411 1.85234 4.024 1.00309L4.02403 1.00318L4.0362 0.998992C4.21481 0.937516 4.39852 0.893198 4.58258 0.866559C4.66836 0.864103 4.74899 0.856842 4.8226 0.847704C4.99101 0.826797 5.15961 0.816797 5.33033 0.816797H5.41024C5.85136 0.831307 6.27629 0.907674 6.68841 1.04577ZM6.79632 0.723745L6.80729 0.690998L6.79632 0.723741L6.79632 0.723745ZM6.7963 0.723786L6.79631 0.723782L6.69391 1.02935L6.7963 0.723786Z" stroke="white" stroke-width="1.63333"/>
</svg>
