<svg width="16" height="16" viewBox="0 0 16 16" fill="none" xmlns="http://www.w3.org/2000/svg">
<path d="M5.72468 14.963V12.5362C5.72468 11.9167 6.23055 11.4145 6.85457 11.4145H9.13566C9.43532 11.4145 9.72271 11.5327 9.93461 11.743C10.1465 11.9534 10.2655 12.2387 10.2655 12.5362V14.963C10.2637 15.2205 10.3654 15.4681 10.5482 15.6509C10.7309 15.8337 10.9797 15.9365 11.2391 15.9365H12.7954C13.5222 15.9384 14.2199 15.653 14.7345 15.1435C15.2491 14.6339 15.5383 13.942 15.5383 13.2205V6.30702C15.5383 5.72416 15.2781 5.17129 14.8277 4.79734L9.53361 0.599881C8.61268 -0.136078 7.2932 -0.112315 6.39977 0.656317L1.22645 4.79734C0.75481 5.16026 0.472915 5.71478 0.458984 6.30702V13.2134C0.458984 14.7173 1.68706 15.9365 3.20198 15.9365H4.72271C5.26154 15.9365 5.69946 15.5049 5.70336 14.97L5.72468 14.963Z" fill="#A2A2AF"/>
</svg>
