<svg width="9" height="6" viewBox="0 0 9 6" fill="none" xmlns="http://www.w3.org/2000/svg">
<path opacity="0.6" d="M3.80088 5.7786C3.76221 5.74441 3.59688 5.61665 3.46088 5.49729C2.36151 4.47725 1.45529 3.30206 0.778215 2.01841C0.669454 1.79362 0.594353 1.55683 0.554882 1.31424C0.553997 1.12636 0.603873 0.941106 0.700215 0.774416C0.838139 0.561728 1.04987 0.395673 1.30288 0.301769C1.53595 0.238382 1.77276 0.186718 2.01221 0.147019C2.85237 0.0381031 3.70082 -0.0104348 4.54954 0.00186568C5.37157 -0.00480246 6.19317 0.0378786 7.00887 0.129624C7.3094 0.176261 7.60525 0.244661 7.89354 0.334158C8.08999 0.421789 8.25572 0.556553 8.37242 0.723575C8.48912 0.890598 8.55226 1.08338 8.55487 1.28065V1.31484C8.50626 1.58926 8.41444 1.85606 8.2822 2.10719C7.60864 3.36017 6.71596 4.5078 5.63821 5.50629C5.52218 5.60975 5.39881 5.70632 5.26888 5.7954C5.06289 5.93019 4.81424 6.00189 4.55954 5.99993C4.28658 6.00267 4.02012 5.92493 3.80088 5.7786Z" fill="black"/>
</svg>
