<svg width="16" height="21" viewBox="0 0 16 21" fill="none" xmlns="http://www.w3.org/2000/svg">
<path d="M1.28497 12.1876C1.28497 13.5242 1.66178 14.8308 2.36775 15.9422C3.07372 17.0535 4.07714 17.9197 5.25112 18.4312C6.42511 18.9427 7.71692 19.0766 8.96322 18.8158C10.2095 18.555 11.3543 17.9114 12.2528 16.9663C13.1514 16.0211 13.7633 14.817 14.0112 13.506C14.2591 12.1951 14.1318 10.8363 13.6456 9.60139C13.1593 8.36652 12.3358 7.31105 11.2792 6.56847C10.2227 5.82588 8.98051 5.42953 7.7098 5.42953H5.13986V8.80823L1.28497 4.75405L5.13986 0.699219V4.07988H7.7098C9.23473 4.07988 10.7254 4.55555 11.9933 5.44674C13.2612 6.33793 14.2494 7.6046 14.8329 9.08657C15.4164 10.5685 15.569 12.1992 15.2713 13.7724C14.9737 15.3456 14.2392 16.7906 13.1608 17.9246C12.0824 19.0587 10.7084 19.8309 9.21276 20.1436C7.71708 20.4563 6.16684 20.2954 4.7581 19.6813C3.34935 19.0672 2.14537 18.0275 1.29843 16.6936C0.45149 15.3597 -0.000368294 13.7916 2.25233e-07 12.1876H1.28497Z" fill="white"/>
<path d="M9.675 14.5124C9.44065 14.5184 9.20821 14.4667 8.99618 14.3615C8.80793 14.2611 8.64589 14.1137 8.52418 13.9323C8.39086 13.7206 8.29726 13.484 8.24843 13.2353C8.18579 12.9272 8.15559 12.6129 8.15838 12.2979C8.15619 11.9829 8.18638 11.6686 8.24843 11.3604C8.29824 11.112 8.39176 10.8756 8.52418 10.6634C8.64589 10.482 8.80793 10.3346 8.99618 10.2342C9.20821 10.129 9.44065 10.0773 9.675 10.0833C9.89539 10.0656 10.1164 10.1076 10.317 10.2053C10.5176 10.3029 10.691 10.453 10.8208 10.6412C11.0945 11.1354 11.2241 11.7033 11.1935 12.2743C11.2241 12.8454 11.0945 13.4133 10.8208 13.9075C10.6962 14.1043 10.5251 14.2636 10.3241 14.3697C10.1232 14.4758 9.89949 14.525 9.675 14.5124ZM9.675 13.8317C9.78194 13.8384 9.8885 13.8131 9.98235 13.7588C10.0762 13.7045 10.1535 13.6233 10.2054 13.5247C10.3322 13.2637 10.3994 12.9751 10.4016 12.682V11.9124C10.4132 11.6247 10.3607 11.3381 10.2482 11.0756C10.1889 10.9802 10.1079 10.9018 10.0125 10.8475C9.91714 10.7933 9.81043 10.7649 9.70202 10.7649C9.5936 10.7649 9.48689 10.7933 9.39153 10.8475C9.29617 10.9018 9.21515 10.9802 9.1558 11.0756C9.04333 11.3381 8.9908 11.6247 9.0024 11.9124V12.682C8.99129 12.9716 9.04379 13.2599 9.1558 13.5247C9.20641 13.6219 9.28197 13.7023 9.37387 13.7566C9.46578 13.8109 9.57033 13.8369 9.67562 13.8317H9.675Z" fill="white"/>
<path d="M4.90158 14.4397V13.7812H5.96235V10.8853L4.97549 11.4432L4.68359 10.8513L5.91391 10.1255H6.68836V13.7499H7.63237V14.4365L4.90158 14.4397Z" fill="white"/>
</svg>
