<svg width="39" height="40" viewBox="0 0 39 40" fill="none" xmlns="http://www.w3.org/2000/svg">
<path d="M38.334 37.1643L31.6636 30.4547L31.507 30.21C31.2101 29.9114 30.815 29.7447 30.404 29.7447C29.9931 29.7447 29.598 29.9114 29.3011 30.21C26.5075 32.8054 22.9388 34.2939 19.2117 34.4184C15.4845 34.543 11.8331 33.2956 8.88817 30.892C6.00368 28.5756 4.05934 25.199 3.44513 21.4394C2.83092 17.6797 3.59228 13.8151 5.57648 10.6206C7.65672 7.38045 10.7547 5.01168 14.3288 3.92853C17.9029 2.84538 21.7257 3.11676 25.1286 4.69524C28.4963 6.15877 31.2221 8.89155 32.7713 12.3576C34.3205 15.8236 34.5814 19.7728 33.5028 23.4304C33.4227 23.6966 33.4132 23.9808 33.4754 24.2522C33.5376 24.5236 33.6691 24.7721 33.8557 24.9708C34.0483 25.1754 34.2872 25.3253 34.55 25.4062C34.8128 25.4872 35.0909 25.4967 35.3582 25.4337C35.6227 25.3754 35.8681 25.2451 36.0698 25.0561C36.2715 24.867 36.4225 24.6257 36.5078 24.3562C39.2402 15.4864 35.1172 5.94152 26.808 1.89237C22.798 -0.0751919 18.2637 -0.524701 13.9743 0.620089C9.68486 1.76488 5.90435 4.43348 3.27403 8.17324C0.751003 11.8483 -0.376729 16.38 0.111342 20.8823C0.599414 25.3846 2.66819 29.5338 5.91317 32.5184C9.23926 35.5981 13.4726 37.3814 17.9023 37.5688C22.3319 37.7561 26.688 36.3362 30.2389 33.5474L36.1451 39.4881C36.4442 39.7823 36.8385 39.946 37.2481 39.946C37.6577 39.946 38.052 39.7823 38.351 39.4881C38.4955 39.344 38.6105 39.1706 38.6891 38.9783C38.7677 38.786 38.8083 38.579 38.8083 38.3697C38.8083 38.1604 38.7677 37.9534 38.6891 37.7611C38.6105 37.5688 38.4955 37.3953 38.351 37.2513L38.334 37.1643Z" fill="#424A5C"/>
</svg>
