<svg width="20" height="16" viewBox="0 0 20 16" fill="none" xmlns="http://www.w3.org/2000/svg">
<path d="M8.56912 15.6671C8.04782 15.6281 7.55413 15.4233 7.16404 15.0843L4.03662 12.5492H2.43608C1.83096 12.541 1.25259 12.305 0.822293 11.8906C0.391992 11.4762 0.143184 10.9157 0.128048 10.3266C-0.0426828 8.69868 -0.0426828 7.05809 0.128048 5.4302C0.169969 4.85564 0.429118 4.31662 0.855411 3.9173C1.2817 3.51798 1.84488 3.28672 2.43608 3.26821H4.03662L7.10172 0.771057C7.53336 0.409708 8.07234 0.192228 8.63994 0.150391C9.13014 0.171177 9.60001 0.347044 9.9783 0.651326C10.3566 0.955608 10.6227 1.37171 10.7362 1.83654C10.837 2.26067 10.9054 2.69148 10.9409 3.12545L10.9834 3.50613C11.1427 6.4396 11.1427 9.37923 10.9834 12.3127L10.9409 12.7079C10.9098 13.1299 10.8435 13.5487 10.7426 13.9602C10.6348 14.4273 10.3727 14.8472 9.99657 15.1554C9.62039 15.4637 9.15083 15.6434 8.65977 15.6671H8.56912ZM16.1943 15.4781C16.0177 15.352 15.8978 15.1643 15.8598 14.9542C15.8218 14.7441 15.8686 14.5279 15.9904 14.3506C17.2502 12.4294 17.8985 10.1884 17.8537 7.90941C17.8984 5.63064 17.2501 3.38986 15.9904 1.46896C15.8682 1.29206 15.8209 1.07608 15.8582 0.866022C15.8955 0.655967 16.0147 0.468044 16.1908 0.341418C16.2783 0.280547 16.3775 0.237451 16.4824 0.214699C16.5874 0.191948 16.696 0.190006 16.8017 0.208991C16.9074 0.227976 17.0082 0.267498 17.0979 0.325201C17.1876 0.382905 17.2645 0.457608 17.3239 0.544859C18.7721 2.73873 19.5208 5.30107 19.4754 7.90872C19.5205 10.5171 18.7711 13.08 17.3218 15.274C17.2479 15.3801 17.1485 15.4669 17.0322 15.527C16.9159 15.5871 16.7863 15.6186 16.6547 15.6188C16.4889 15.6194 16.327 15.5698 16.1915 15.4767L16.1943 15.4781ZM13.3955 12.8575C13.219 12.7313 13.0992 12.5436 13.0614 12.3335C13.0235 12.1234 13.0704 11.9072 13.1923 11.73C13.9383 10.5893 14.3214 9.2594 14.2935 7.90735C14.3216 6.55527 13.9384 5.22531 13.1923 4.08473C13.0703 3.90758 13.0233 3.69143 13.0611 3.48136C13.0988 3.27128 13.2184 3.0835 13.3948 2.95718C13.4826 2.89676 13.582 2.85411 13.687 2.83178C13.7921 2.80945 13.9006 2.80789 14.0063 2.82718C14.112 2.84648 14.2126 2.88624 14.3022 2.94411C14.3918 3.00198 14.4686 3.07678 14.5279 3.16407C15.4626 4.57767 15.9465 6.22907 15.9188 7.9101C15.9465 9.59114 15.4626 11.2425 14.5279 12.6561C14.4688 12.7437 14.3921 12.8187 14.3025 12.8767C14.2129 12.9347 14.1123 12.9746 14.0065 12.9939C13.9007 13.0132 13.7921 13.0116 13.687 12.9891C13.5819 12.9666 13.4825 12.9237 13.3948 12.863L13.3955 12.8575Z" fill="white"/>
</svg>
