<svg width="53" height="53" viewBox="0 0 53 53" fill="none" xmlns="http://www.w3.org/2000/svg">
<path opacity="0.1" d="M33 0H20C8.9543 0 0 8.9543 0 20V33C0 44.0457 8.9543 53 20 53H33C44.0457 53 53 44.0457 53 33V20C53 8.9543 44.0457 0 33 0Z" fill="#F4FAFF"/>
<g opacity="0.7">
<path opacity="0.7" d="M30.1094 22.11L23.1694 22.98L22.9194 24.132L24.2824 24.384C25.1724 24.597 25.3494 24.917 25.1554 25.805L22.9194 36.316C22.3324 39.034 23.2374 40.316 25.3684 40.316C27.0299 40.3234 28.6266 39.6718 29.8084 38.504L30.0754 37.243C29.486 37.7189 28.753 37.9815 27.9954 37.988C27.1614 37.988 26.8584 37.403 27.0744 36.373L30.1094 22.11Z" fill="white"/>
<path opacity="0.7" d="M30.3218 15.782C30.3218 16.3815 30.144 16.9675 29.811 17.4659C29.4779 17.9644 29.0045 18.3529 28.4507 18.5823C27.8968 18.8117 27.2874 18.8717 26.6994 18.7548C26.1115 18.6378 25.5714 18.3491 25.1475 17.9252C24.7236 17.5014 24.435 16.9613 24.318 16.3733C24.2011 15.7854 24.2611 15.1759 24.4905 14.6221C24.7199 14.0683 25.1084 13.5949 25.6068 13.2618C26.1053 12.9288 26.6913 12.751 27.2908 12.751C28.0946 12.751 28.8656 13.0703 29.434 13.6388C30.0024 14.2072 30.3218 14.9781 30.3218 15.782Z" fill="white"/>
</g>
</svg>
