<svg width="14" height="10" viewBox="0 0 14 10" fill="none" xmlns="http://www.w3.org/2000/svg">
<path fill-rule="evenodd" clip-rule="evenodd" d="M14 5C14 5 11.3748 0 6.99983 0C2.62481 0 0 5 0 5C0 5 2.62515 10 6.99983 10C11.3745 10 14 5 14 5ZM1.02643 5C1.44954 5.66755 1.93611 6.28928 2.47881 6.85582C3.6052 8.02748 5.14518 9.08922 7.00017 9.08922C8.85516 9.08922 10.3945 8.02748 11.5222 6.85582C12.0649 6.28928 12.5515 5.66755 12.9746 5C12.5515 4.33244 12.0649 3.71072 11.5222 3.14418C10.3945 1.97252 8.85447 0.910778 7.00017 0.910778C5.14587 0.910778 3.60692 1.97074 2.47813 3.1424C1.93542 3.70893 1.44885 4.33066 1.02574 4.99822L1.02643 5Z" fill="white"/>
<path fill-rule="evenodd" clip-rule="evenodd" d="M6.99995 2.72796C6.5673 2.72796 6.14436 2.86125 5.78463 3.11098C5.4249 3.3607 5.14452 3.71564 4.97895 4.13092C4.81338 4.54619 4.77006 5.00315 4.85447 5.444C4.93887 5.88485 5.14721 6.2898 5.45314 6.60764C5.75907 6.92548 6.14885 7.14193 6.57318 7.22962C6.99752 7.31731 7.43736 7.27231 7.83707 7.10029C8.23679 6.92828 8.57843 6.63699 8.8188 6.26325C9.05916 5.88951 9.18746 5.45012 9.18746 5.00063C9.18746 4.39788 8.95699 3.81982 8.54675 3.39361C8.13651 2.96741 7.58011 2.72796 6.99995 2.72796ZM3.9375 5.00063C3.9375 4.37136 4.11711 3.75621 4.45362 3.23299C4.79012 2.70977 5.26841 2.30197 5.828 2.06116C6.38759 1.82035 7.00334 1.75734 7.5974 1.88011C8.19146 2.00287 8.73713 2.30589 9.16542 2.75086C9.59371 3.19582 9.88538 3.76274 10.0035 4.37992C10.1217 4.9971 10.0611 5.63682 9.82928 6.21819C9.59749 6.79957 9.20497 7.29647 8.70135 7.64608C8.19773 7.99568 7.60564 8.18228 6.99995 8.18228C6.18774 8.18228 5.40879 7.84707 4.83447 7.2504C4.26015 6.65372 3.9375 5.84445 3.9375 5.00063Z" fill="white"/>
</svg>
