<svg width="63" height="63" viewBox="0 0 63 63" fill="none" xmlns="http://www.w3.org/2000/svg">
<path d="M46.5081 0H16.0384C7.18064 0 0 7.18064 0 16.0384V46.5081C0 55.3659 7.18064 62.5465 16.0384 62.5465H46.5081C55.3659 62.5465 62.5465 55.3659 62.5465 46.5081V16.0384C62.5465 7.18064 55.3659 0 46.5081 0Z" fill="url(#paint0_radial_726_3197)"/>
<path d="M37.834 20.1706H31.042V20.18C32.8755 20.2754 34.6025 21.0709 35.8666 22.4024C37.1308 23.734 37.8356 25.4999 37.8356 27.3359C37.8356 28.2769 37.6503 29.2087 37.2902 30.0781C36.93 30.9475 36.4022 31.7374 35.7368 32.4028C35.0714 33.0681 34.2814 33.5959 33.412 33.956C32.5426 34.316 31.6108 34.5013 30.6698 34.5012C28.9464 34.504 27.2803 33.8828 25.9794 32.7525L25.9595 32.7685C28.2184 34.8974 31.2065 36.081 34.3105 36.0763C36.3401 36.0774 38.3379 35.5713 40.1222 34.604C41.9065 33.6367 43.4208 32.2389 44.5275 30.5375C44.7689 29.4873 44.8904 28.413 44.8898 27.3354C44.8945 24.2478 43.8894 21.2434 42.0277 18.7803C40.8172 19.6829 39.3474 20.1704 37.8373 20.1701" fill="url(#paint1_linear_726_3197)"/>
<path d="M30.6695 13.1174H30.6319C26.8676 13.1274 23.2608 14.6297 20.6025 17.295C17.9442 19.9602 16.4513 23.5709 16.4512 27.3352C16.4511 29.2024 16.8188 31.0513 17.5333 32.7764C18.2478 34.5015 19.2952 36.0689 20.6155 37.3892C21.9358 38.7096 23.5032 39.7569 25.2283 40.4714C26.9534 41.1859 28.8023 41.5536 30.6695 41.5535C33.8839 41.5533 37.0035 40.4643 39.5197 38.464C42.0359 36.4637 43.8004 33.67 44.5256 30.5385C43.4188 32.2398 41.9045 33.6376 40.1202 34.6049C38.3359 35.5722 36.3382 36.0783 34.3086 36.0772C31.2045 36.0819 28.2164 34.8984 25.9575 32.7695L25.9774 32.7534C25.1996 32.0817 24.5758 31.2501 24.1486 30.3153C23.7214 29.3805 23.5009 28.3646 23.502 27.3369C23.5018 25.4369 24.2562 23.6147 25.5993 22.2709C26.9423 20.927 28.764 20.1715 30.664 20.1705H30.7049C30.8155 20.1705 30.9305 20.1743 31.0417 20.1799V20.1705H37.8331C37.8884 20.1705 37.9476 20.1705 38.0051 20.1705H38.0228C38.0781 20.1705 38.1334 20.1671 38.1887 20.1638H38.1932C38.2485 20.1611 38.3071 20.1572 38.363 20.1528H38.3796C38.4349 20.1483 38.4902 20.1439 38.5416 20.1384H38.5516C38.6069 20.1329 38.6622 20.1262 38.7175 20.119H38.7368C38.7883 20.1124 38.8408 20.1052 38.8922 20.0969H38.9066C38.9619 20.0886 39.0133 20.0798 39.0659 20.0704L39.0869 20.0665C39.1372 20.0576 39.187 20.0477 39.2362 20.0377L39.255 20.0339C39.3065 20.0228 39.3579 20.0117 39.4088 20.0001L39.4342 19.994C39.4807 19.983 39.5271 19.9719 39.573 19.9603L39.599 19.9537L39.745 19.9138L39.7732 19.9056L39.9038 19.8663L39.9369 19.8563L40.0746 19.8115L40.1073 19.8005L40.2284 19.7579L40.2654 19.7441L40.3915 19.6959L40.4341 19.6788L40.5447 19.6323L40.5857 19.6146L40.7012 19.5638L40.7505 19.5416L40.8567 19.4919L40.9009 19.4709L41.0032 19.4194L41.0624 19.3896L41.1603 19.3376L41.2062 19.3127L41.3019 19.2574L41.3621 19.2225L41.4545 19.1672L41.5026 19.1385L41.5922 19.0832L41.6542 19.0433L41.741 18.988L41.7913 18.9543L41.8737 18.899L41.9368 18.8537C41.9644 18.8337 41.9921 18.8144 42.0181 18.7939C42.044 18.8282 42.07 18.8625 42.096 18.8973C42.0706 18.8625 42.0446 18.8282 42.0181 18.7939C42.9075 18.1385 43.6305 17.2834 44.129 16.2975C44.6275 15.3115 44.8874 14.2222 44.8878 13.1174H30.6695Z" fill="url(#paint2_linear_726_3197)"/>
<path d="M30.6694 44.2169C27.8383 44.2182 25.0525 43.5069 22.5686 42.1486C20.0847 40.7903 17.9826 38.8286 16.4561 36.4444V36.7878C16.4671 40.5549 17.9685 44.1645 20.6323 46.8283C23.296 49.492 26.9056 50.9934 30.6727 51.0045C34.4399 50.9935 38.0497 49.4922 40.7135 46.8285C43.3774 44.1647 44.8789 40.555 44.8899 36.7878V36.4399C43.3635 38.8257 41.2608 40.7887 38.7759 42.1478C36.291 43.507 33.5039 44.2186 30.6716 44.2169" fill="url(#paint3_linear_726_3197)"/>
<defs>
<radialGradient id="paint0_radial_726_3197" cx="0" cy="0" r="1" gradientUnits="userSpaceOnUse" gradientTransform="translate(43.9234 -3.79147) rotate(-50.325) scale(94.3201)">
<stop stop-color="white"/>
<stop offset="1" stop-color="white" stop-opacity="0.812"/>
</radialGradient>
<linearGradient id="paint1_linear_726_3197" x1="35.3678" y1="22.3433" x2="35.4311" y2="32.5826" gradientUnits="userSpaceOnUse">
<stop stop-color="#D51AFF"/>
<stop offset="0.502" stop-color="#4E6AFE"/>
<stop offset="1" stop-color="#8BF3FE"/>
</linearGradient>
<linearGradient id="paint2_linear_726_3197" x1="16.4512" y1="27.3355" x2="44.8878" y2="27.3355" gradientUnits="userSpaceOnUse">
<stop stop-color="#D51AFF"/>
<stop offset="0.502" stop-color="#4E6AFE"/>
<stop offset="1" stop-color="#8BF3FE"/>
</linearGradient>
<linearGradient id="paint3_linear_726_3197" x1="45.3165" y1="43.7222" x2="17.2522" y2="43.7222" gradientUnits="userSpaceOnUse">
<stop stop-color="#D51AFF"/>
<stop offset="0.502" stop-color="#4E6AFE"/>
<stop offset="1" stop-color="#8BF3FE"/>
</linearGradient>
</defs>
</svg>
