<svg width="107" height="107" viewBox="0 0 107 107" fill="none" xmlns="http://www.w3.org/2000/svg">
<path d="M35 0H72C81.2826 0 90.185 3.68749 96.7487 10.2513C103.313 16.815 107 25.7174 107 35V72C107 81.2826 103.313 90.185 96.7487 96.7487C90.185 103.313 81.2826 107 72 107H35C25.7174 107 16.815 103.313 10.2513 96.7487C3.68749 90.185 0 81.2826 0 72L0 35C0 25.7174 3.68749 16.815 10.2513 10.2513C16.815 3.68749 25.7174 0 35 0V0Z" fill="white"/>
<path d="M64.9425 34.015H54.0975V34.03C57.0254 34.1824 59.7831 35.4528 61.8018 37.579C63.8204 39.7052 64.9461 42.5251 64.9465 45.457C64.9465 48.4919 63.7409 51.4024 61.5949 53.5484C59.4489 55.6944 56.5383 56.9 53.5035 56.9C50.7512 56.9038 48.0904 55.9117 46.0125 54.107L45.9805 54.133C49.5868 57.5324 54.3575 59.4227 59.3135 59.416C62.5547 59.4177 65.7449 58.6095 68.5944 57.0648C71.4438 55.5201 73.8621 53.2879 75.6295 50.571C76.015 48.894 76.2093 47.1787 76.2085 45.458C76.2162 40.5274 74.6113 35.7296 71.6385 31.796C69.7052 33.2374 67.358 34.0157 64.9465 34.015" fill="url(#paint0_linear_212_422)"/>
<path d="M53.5009 22.752H53.4409C47.4304 22.7679 41.6713 25.1663 37.4262 29.4215C33.1812 33.6767 30.7965 39.4414 30.7949 45.452C30.7949 48.4337 31.3822 51.3863 32.5233 54.1411C33.6644 56.8958 35.3369 59.3988 37.4454 61.5072C39.5539 63.6156 42.057 65.288 44.8118 66.429C47.5666 67.5699 50.5192 68.1571 53.5009 68.157C58.6344 68.1566 63.6163 66.4172 67.6345 63.2225C71.6528 60.0278 74.4703 55.5662 75.6279 50.565C73.8605 53.2819 71.4422 55.5141 68.5928 57.0588C65.7434 58.6035 62.5531 59.4117 59.3119 59.41C54.3559 59.4167 49.5853 57.5264 45.9789 54.127L46.0109 54.101C44.7688 53.0282 43.7727 51.7001 43.0905 50.2074C42.4083 48.7146 42.0561 47.0923 42.0579 45.451C42.0579 42.4177 43.2623 39.5085 45.4063 37.3628C47.5503 35.217 50.4586 34.0104 53.4919 34.008H53.5569C53.7369 34.008 53.9169 34.014 54.0949 34.023V34.008H64.9399C65.0312 34.008 65.1229 34.008 65.2149 34.008H65.2429C65.3329 34.008 65.4229 34.003 65.5119 33.998H65.5189C65.6099 33.998 65.6999 33.987 65.7899 33.98H65.8169C65.9039 33.973 65.9899 33.965 66.0759 33.957H66.0919C66.1799 33.948 66.2669 33.938 66.3549 33.926H66.3859C66.4679 33.915 66.5519 33.904 66.6339 33.891H66.6569C66.7419 33.878 66.8269 33.863 66.9109 33.848L66.9449 33.842L67.1829 33.796L67.2129 33.79L67.4589 33.736L67.4989 33.726C67.5739 33.709 67.6469 33.691 67.7209 33.672L67.7629 33.661L67.9959 33.597L68.0409 33.584L68.2489 33.522L68.3019 33.506L68.5219 33.434L68.5739 33.416L68.7669 33.348L68.8259 33.326L69.0259 33.249L69.0939 33.222L69.2739 33.148L69.3389 33.12L69.5239 33.039L69.6029 33.003L69.7729 32.923L69.8429 32.889L70.0069 32.807L70.1009 32.759L70.2569 32.676L70.3299 32.636L70.4829 32.551L70.5829 32.495L70.7299 32.408L70.8069 32.362L70.9499 32.272L71.0499 32.208L71.1879 32.116L71.2689 32.062L71.3999 31.971L71.4999 31.899L71.6299 31.799C71.6709 31.854 71.7129 31.908 71.7539 31.964C71.7129 31.908 71.6719 31.854 71.6299 31.799C73.045 30.7531 74.1955 29.3903 74.9891 27.8198C75.7827 26.2493 76.1974 24.5147 76.1999 22.755L53.5009 22.752Z" fill="url(#paint1_linear_212_422)"/>
<path d="M53.4998 72.416C48.9785 72.4183 44.5293 71.2825 40.5623 69.1134C36.5952 66.9443 33.238 63.8116 30.7998 60.004V60.552C30.8183 66.5667 33.2158 72.3299 37.4689 76.5829C41.722 80.836 47.4851 83.2335 53.4998 83.252C59.5145 83.2335 65.2776 80.836 69.5307 76.5829C73.7838 72.3299 76.1814 66.5667 76.1998 60.552V59.997C73.762 63.8068 70.4041 66.9415 66.4359 69.1119C62.4677 71.2823 58.0168 72.4186 53.4938 72.416" fill="url(#paint2_linear_212_422)"/>
<defs>
<linearGradient id="paint0_linear_212_422" x1="61.0038" y1="37.4857" x2="61.1047" y2="53.8369" gradientUnits="userSpaceOnUse">
<stop stop-color="#D51AFF"/>
<stop offset="0.502" stop-color="#4E6AFE"/>
<stop offset="1" stop-color="#8BF3FE"/>
</linearGradient>
<linearGradient id="paint1_linear_212_422" x1="30.7949" y1="45.4545" x2="76.1999" y2="45.4545" gradientUnits="userSpaceOnUse">
<stop stop-color="#D51AFF"/>
<stop offset="0.502" stop-color="#4E6AFE"/>
<stop offset="1" stop-color="#8BF3FE"/>
</linearGradient>
<linearGradient id="paint2_linear_212_422" x1="76.8808" y1="71.6245" x2="32.071" y2="71.6245" gradientUnits="userSpaceOnUse">
<stop stop-color="#D51AFF"/>
<stop offset="0.502" stop-color="#4E6AFE"/>
<stop offset="1" stop-color="#8BF3FE"/>
</linearGradient>
</defs>
</svg>
