<svg width="61" height="61" viewBox="0 0 61 61" fill="none" xmlns="http://www.w3.org/2000/svg">
<path d="M52.6222 16.999C52.5722 16.999 52.4972 16.999 52.4222 16.999C39.1972 15.674 25.9972 15.174 12.9222 16.499L7.82223 16.999C6.77223 17.099 5.84723 16.349 5.74723 15.299C5.64723 14.249 6.39723 13.349 7.42223 13.249L12.5222 12.749C25.8222 11.399 39.2972 11.924 52.7972 13.249C53.8222 13.349 54.5722 14.274 54.4722 15.299C54.3972 16.274 53.5722 16.999 52.6222 16.999Z" fill="url(#paint0_linear_4367_31926)"/>
<path d="M21.3729 14.4748C21.2729 14.4748 21.1729 14.4748 21.0479 14.4498C20.0479 14.2748 19.3479 13.2998 19.5229 12.2998L20.0729 9.02481C20.4729 6.6248 21.0229 3.2998 26.8479 3.2998H33.3979C39.2479 3.2998 39.7979 6.7498 40.1729 9.04981L40.7229 12.2998C40.8979 13.3248 40.1979 14.2998 39.1979 14.4498C38.1729 14.6248 37.1979 13.9248 37.0479 12.9248L36.4979 9.67481C36.1479 7.4998 36.0729 7.07481 33.4229 7.07481H26.8729C24.2229 7.07481 24.1729 7.42481 23.7979 9.64981L23.2229 12.8998C23.0729 13.8248 22.2729 14.4748 21.3729 14.4748Z" fill="url(#paint1_linear_4367_31926)"/>
<path d="M38.1529 57.0498H22.1029C13.3779 57.0498 13.0279 52.2248 12.7529 48.3248L11.1279 23.1497C11.0529 22.1247 11.8529 21.2247 12.8779 21.1497C13.9279 21.0997 14.8029 21.8747 14.8779 22.8997L16.5029 48.0748C16.7779 51.8748 16.8779 53.2998 22.1029 53.2998H38.1529C43.4029 53.2998 43.5029 51.8748 43.7529 48.0748L45.3779 22.8997C45.4529 21.8747 46.3529 21.0997 47.3779 21.1497C48.4029 21.2247 49.2029 22.0997 49.1279 23.1497L47.5029 48.3248C47.2279 52.2248 46.8779 57.0498 38.1529 57.0498Z" fill="url(#paint2_linear_4367_31926)"/>
<path d="M34.2723 43.2988H25.9473C24.9223 43.2988 24.0723 42.4488 24.0723 41.4238C24.0723 40.3988 24.9223 39.5488 25.9473 39.5488H34.2723C35.2973 39.5488 36.1473 40.3988 36.1473 41.4238C36.1473 42.4488 35.2973 43.2988 34.2723 43.2988Z" fill="url(#paint3_linear_4367_31926)"/>
<path d="M36.373 33.2998H23.873C22.848 33.2998 21.998 32.4498 21.998 31.4248C21.998 30.3998 22.848 29.5498 23.873 29.5498H36.373C37.398 29.5498 38.248 30.3998 38.248 31.4248C38.248 32.4498 37.398 33.2998 36.373 33.2998Z" fill="url(#paint4_linear_4367_31926)"/>
<defs>
<linearGradient id="paint0_linear_4367_31926" x1="-5.3751" y1="11.1977" x2="-3.48809" y2="27.5158" gradientUnits="userSpaceOnUse">
    <stop stop-color="#D51AFF"/>
    <stop offset="0.502" stop-color="#4E6AFE"/>
    <stop offset="1" stop-color="#8BF3FE"/>
</linearGradient>
<linearGradient id="paint1_linear_4367_31926" x1="14.6502" y1="1.6121" x2="30.6372" y2="28.8381" gradientUnits="userSpaceOnUse">
    <stop stop-color="#D51AFF"/>
    <stop offset="0.502" stop-color="#4E6AFE"/>
    <stop offset="1" stop-color="#8BF3FE"/>
</linearGradient>
<linearGradient id="paint2_linear_4367_31926" x1="2.45682" y1="15.7262" x2="61.1783" y2="71.4029" gradientUnits="userSpaceOnUse">
    <stop stop-color="#D51AFF"/>
    <stop offset="0.502" stop-color="#4E6AFE"/>
    <stop offset="1" stop-color="#8BF3FE"/>
</linearGradient>
<linearGradient id="paint3_linear_4367_31926" x1="21.3192" y1="38.9826" x2="25.1217" y2="49.9483" gradientUnits="userSpaceOnUse">
    <stop stop-color="#D51AFF"/>
    <stop offset="0.502" stop-color="#4E6AFE"/>
    <stop offset="1" stop-color="#8BF3FE"/>
</linearGradient>
<linearGradient id="paint4_linear_4367_31926" x1="18.293" y1="28.9836" x2="21.2613" y2="40.503" gradientUnits="userSpaceOnUse">
    <stop stop-color="#D51AFF"/>
    <stop offset="0.502" stop-color="#4E6AFE"/>
    <stop offset="1" stop-color="#8BF3FE"/>
</linearGradient>
</defs>
</svg>
