<svg width="53" height="53" viewBox="0 0 53 53" fill="none" xmlns="http://www.w3.org/2000/svg">
<path opacity="0.1" d="M33 0H20C8.9543 0 0 8.9543 0 20V33C0 44.0457 8.9543 53 20 53H33C44.0457 53 53 44.0457 53 33V20C53 8.9543 44.0457 0 33 0Z" fill="#F4FAFF"/>
<g opacity="0.7">
<path opacity="0.7" d="M15.059 24.474H37.498C38.0115 24.474 38.5039 24.678 38.867 25.041C39.2301 25.4041 39.4341 25.8965 39.4341 26.41C39.4341 26.9235 39.2301 27.4159 38.867 27.779C38.5039 28.142 38.0115 28.346 37.498 28.346H15.059C14.5456 28.346 14.0532 28.142 13.6901 27.779C13.327 27.4159 13.123 26.9235 13.123 26.41C13.123 25.8965 13.327 25.4041 13.6901 25.041C14.0532 24.678 14.5456 24.474 15.059 24.474Z" fill="white"/>
<path opacity="0.7" d="M14.9193 33.508H27.1863C27.6845 33.5306 28.1549 33.7445 28.4994 34.1051C28.844 34.4657 29.0363 34.9452 29.0363 35.444C29.0363 35.9428 28.844 36.4223 28.4994 36.7829C28.1549 37.1435 27.6845 37.3574 27.1863 37.38H14.9193C14.4211 37.3574 13.9508 37.1435 13.6062 36.7829C13.2616 36.4223 13.0693 35.9428 13.0693 35.444C13.0693 34.9452 13.2616 34.4657 13.6062 34.1051C13.9508 33.7445 14.4211 33.5306 14.9193 33.508Z" fill="white"/>
<path opacity="0.7" d="M24.4458 15.322H37.6458C38.1592 15.322 38.6517 15.526 39.0147 15.8891C39.3778 16.2521 39.5818 16.7446 39.5818 17.258C39.5818 17.7715 39.3778 18.2639 39.0147 18.627C38.6517 18.9901 38.1592 19.194 37.6458 19.194H24.4458C23.9323 19.194 23.4399 18.9901 23.0768 18.627C22.7137 18.2639 22.5098 17.7715 22.5098 17.258C22.5098 16.7446 22.7137 16.2521 23.0768 15.8891C23.4399 15.526 23.9323 15.322 24.4458 15.322Z" fill="white"/>
</g>
</svg>
