<svg width="25" height="29" viewBox="0 0 25 29" fill="none" xmlns="http://www.w3.org/2000/svg">
<path fill-rule="evenodd" clip-rule="evenodd" d="M9.76563 25.8077C10.4563 26.577 11.343 26.9997 12.263 26.9997H12.2643C13.1883 26.9997 14.079 26.577 14.771 25.8063C15.1416 25.397 15.7736 25.3637 16.183 25.733C16.5936 26.1023 16.627 26.7357 16.2576 27.145C15.1803 28.341 13.763 28.9997 12.2643 28.9997H12.2616C10.767 28.9983 9.3523 28.3397 8.27897 27.1437C7.90963 26.7343 7.94297 26.101 8.35363 25.733C8.7643 25.3623 9.3963 25.3957 9.76563 25.8077ZM12.3294 0.333008C18.256 0.333008 22.2374 4.94901 22.2374 9.25967C22.2374 11.477 22.8014 12.417 23.4 13.4143C23.992 14.3983 24.6627 15.5157 24.6627 17.6277C24.1974 23.0237 18.564 23.4637 12.3294 23.4637C6.0947 23.4637 0.460035 23.0237 1.76484e-05 17.713C-0.00396454 15.5157 0.666702 14.3983 1.2587 13.4143L1.46769 13.0625C1.98227 12.1782 2.42137 11.2161 2.42137 9.25967C2.42137 4.94901 6.4027 0.333008 12.3294 0.333008ZM12.3294 2.33301C7.66937 2.33301 4.42137 5.98367 4.42137 9.25967C4.42137 12.0317 3.65203 13.313 2.97203 14.4437C2.4267 15.3517 1.99604 16.069 1.99604 17.6277C2.2187 20.1423 3.8787 21.4637 12.3294 21.4637C20.7334 21.4637 22.4454 20.0837 22.6667 17.541C22.6627 16.069 22.232 15.3517 21.6867 14.4437C21.0067 13.313 20.2374 12.0317 20.2374 9.25967C20.2374 5.98367 16.9894 2.33301 12.3294 2.33301Z" fill="#424A5C"/>
</svg>
