<svg width="41" height="46" viewBox="0 0 41 46" fill="none" xmlns="http://www.w3.org/2000/svg">
<path d="M36.0925 26.235V22.2825H33.0557V26.8435C33.0503 27.0431 33.0881 27.2415 33.1667 27.425C33.2453 27.6086 33.3627 27.7729 33.5108 27.9066L37.6114 32.012V34.4439H4.20698V32.012L8.30754 27.9066C8.45567 27.7729 8.57306 27.6086 8.65163 27.425C8.73019 27.2415 8.76806 27.0431 8.76261 26.8435V19.2421C8.76261 16.0169 10.0423 12.9237 12.3201 10.643C14.5979 8.36237 17.6872 7.08096 20.9087 7.0807C23.0441 7.08085 25.1406 7.65251 26.9812 8.73648V5.2563C25.5377 4.60894 23.9994 4.19838 22.4256 4.04035V1H19.3908V4.04035C15.652 4.46712 12.1983 6.24859 9.68094 9.04888C7.16357 11.8492 5.75644 15.4748 5.72486 19.2421V26.235L1.62529 30.3404C1.47716 30.4741 1.35976 30.6384 1.2812 30.822C1.20263 31.0055 1.16477 31.2039 1.17021 31.4035V35.9645C1.15655 36.1678 1.18647 36.3716 1.25796 36.5623C1.32946 36.753 1.44088 36.9262 1.58474 37.0702C1.7286 37.2142 1.90158 37.3258 2.09205 37.3974C2.28253 37.4689 2.4861 37.4989 2.68909 37.4852H13.3173C13.34 39.4861 14.1499 41.3973 15.5712 42.8041C16.9925 44.211 18.9105 45 20.9092 45C22.9078 45 24.8259 44.211 26.2471 42.8041C27.6684 41.3973 28.4783 39.4861 28.5011 37.4852H39.1292C39.3322 37.4987 39.5356 37.4687 39.726 37.397C39.9163 37.3254 40.0892 37.2138 40.2329 37.0698C40.3767 36.9258 40.488 36.7526 40.5595 36.562C40.6309 36.3714 40.6608 36.1677 40.6471 35.9645V31.4035C40.6526 31.2039 40.6147 31.0055 40.5361 30.822C40.4576 30.6384 40.3402 30.4741 40.1921 30.3404L36.0925 26.235ZM20.9087 42.0452C19.7004 42.0452 18.5417 41.5647 17.6874 40.7093C16.833 39.854 16.353 38.6939 16.353 37.4842H25.4643C25.4643 38.6939 24.9843 39.854 24.13 40.7093C23.2756 41.5647 22.1169 42.0452 20.9087 42.0452V42.0452Z" fill="#424A5C" stroke="#424A5C" stroke-width="0.5"/>
</svg>
