<svg width="16" height="16" viewBox="0 0 16 16" fill="none" xmlns="http://www.w3.org/2000/svg">
<path d="M13.091 10.1086C12.3068 9.32444 11.3734 8.74391 10.355 8.39249C11.4457 7.64124 12.1623 6.38397 12.1623 4.9623C12.1623 2.66711 10.295 0.799805 7.9998 0.799805C5.70461 0.799805 3.8373 2.66711 3.8373 4.9623C3.8373 6.38397 4.5539 7.64124 5.64467 8.39249C4.62627 8.74391 3.69285 9.32444 2.90865 10.1086C1.54875 11.4685 0.799805 13.2766 0.799805 15.1998H1.9248C1.9248 11.85 4.65003 9.1248 7.9998 9.1248C11.3496 9.1248 14.0748 11.85 14.0748 15.1998H15.1998C15.1998 13.2766 14.4509 11.4685 13.091 10.1086ZM7.9998 7.9998C6.32493 7.9998 4.9623 6.6372 4.9623 4.9623C4.9623 3.2874 6.32493 1.9248 7.9998 1.9248C9.67468 1.9248 11.0373 3.2874 11.0373 4.9623C11.0373 6.6372 9.67468 7.9998 7.9998 7.9998Z" fill="url(#paint0_linear_1382_39475)"/>
<defs>
<linearGradient id="paint0_linear_1382_39475" x1="-2.4834" y1="-1.3746" x2="20.9598" y2="19.6206" gradientUnits="userSpaceOnUse">
<stop stop-color="#D51AFF"/>
<stop offset="0.502" stop-color="#4E6AFE"/>
<stop offset="1" stop-color="#8BF3FE"/>
</linearGradient>
</defs>
</svg>
