<svg width="19" height="19" viewBox="0 0 19 19" fill="none" xmlns="http://www.w3.org/2000/svg">
<path d="M12.1875 17.9844H7.6875C3.615 17.9844 1.875 16.2444 1.875 12.1719V7.67188C1.875 3.59938 3.615 1.85938 7.6875 1.85938H12.1875C16.26 1.85938 18 3.59938 18 7.67188V12.1719C18 16.2444 16.26 17.9844 12.1875 17.9844ZM7.6875 2.98438C4.23 2.98438 3 4.21438 3 7.67188V12.1719C3 15.6294 4.23 16.8594 7.6875 16.8594H12.1875C15.645 16.8594 16.875 15.6294 16.875 12.1719V7.67188C16.875 4.21438 15.645 2.98438 12.1875 2.98438H7.6875Z" fill="url(#paint0_linear_4367_30523)"/>
<path d="M14.0633 14.2949H12.6758C12.3683 14.2949 12.1133 14.0399 12.1133 13.7324C12.1133 13.4249 12.3683 13.1699 12.6758 13.1699H14.0633C14.3708 13.1699 14.6258 13.4249 14.6258 13.7324C14.6258 14.0399 14.3708 14.2949 14.0633 14.2949Z" fill="url(#paint1_linear_4367_30523)"/>
<path d="M10.665 14.2939H5.8125C5.505 14.2939 5.25 14.0389 5.25 13.7314C5.25 13.4239 5.505 13.1689 5.8125 13.1689H10.665C10.9725 13.1689 11.2275 13.4239 11.2275 13.7314C11.2275 14.0389 10.98 14.2939 10.665 14.2939Z" fill="url(#paint2_linear_4367_30523)"/>
<path d="M14.0616 11.4746H9.91406C9.60656 11.4746 9.35156 11.2196 9.35156 10.9121C9.35156 10.6046 9.60656 10.3496 9.91406 10.3496H14.0616C14.3691 10.3496 14.6241 10.6046 14.6241 10.9121C14.6241 11.2196 14.3691 11.4746 14.0616 11.4746Z" fill="url(#paint3_linear_4367_30523)"/>
<path d="M7.89 11.4746H5.8125C5.505 11.4746 5.25 11.2196 5.25 10.9121C5.25 10.6046 5.505 10.3496 5.8125 10.3496H7.89C8.1975 10.3496 8.4525 10.6046 8.4525 10.9121C8.4525 11.2196 8.1975 11.4746 7.89 11.4746Z" fill="url(#paint4_linear_4367_30523)"/>
<defs>
<linearGradient id="paint0_linear_4367_30523" x1="-1.8015" y1="-0.5755" x2="24.45" y2="22.9348" gradientUnits="userSpaceOnUse">
<stop stop-color="#D51AFF"/>
<stop offset="0.502" stop-color="#4E6AFE"/>
<stop offset="1" stop-color="#8BF3FE"/>
</linearGradient>
<linearGradient id="paint1_linear_4367_30523" x1="11.5404" y1="13" x2="13.0145" y2="15.9484" gradientUnits="userSpaceOnUse">
<stop stop-color="#D51AFF"/>
<stop offset="0.502" stop-color="#4E6AFE"/>
<stop offset="1" stop-color="#8BF3FE"/>
</linearGradient>
<linearGradient id="paint2_linear_4367_30523" x1="3.88713" y1="12.9991" x2="4.62884" y2="16.5285" gradientUnits="userSpaceOnUse">
<stop stop-color="#D51AFF"/>
<stop offset="0.502" stop-color="#4E6AFE"/>
<stop offset="1" stop-color="#8BF3FE"/>
</linearGradient>
<linearGradient id="paint3_linear_4367_30523" x1="8.14943" y1="10.1797" x2="8.98029" y2="13.6671" gradientUnits="userSpaceOnUse">
<stop stop-color="#D51AFF"/>
<stop offset="0.502" stop-color="#4E6AFE"/>
<stop offset="1" stop-color="#8BF3FE"/>
</linearGradient>
<linearGradient id="paint4_linear_4367_30523" x1="4.51983" y1="10.1797" x2="5.77263" y2="13.3736" gradientUnits="userSpaceOnUse">
<stop stop-color="#D51AFF"/>
<stop offset="0.502" stop-color="#4E6AFE"/>
<stop offset="1" stop-color="#8BF3FE"/>
</linearGradient>
</defs>
</svg>
