<svg width="66" height="66" viewBox="0 0 66 66" fill="none" xmlns="http://www.w3.org/2000/svg">
<path d="M12.5688 0.266507C12.3283 0.392549 9.55227 2.57727 6.38275 5.0981C0.437175 9.84567 0 10.3078 0 11.7783C0 12.6186 0.743198 13.984 1.42082 14.4252C1.70498 14.6142 2.36074 14.8453 2.84164 14.9504C4.19688 15.2445 5.07123 14.7613 9.18067 11.4422C11.1698 9.82467 13.6617 7.82901 14.7109 6.98873C17.0717 5.0981 17.3558 4.67797 17.3558 3.24949C17.3777 2.01008 16.9624 1.27484 15.7383 0.476577C14.9295 -0.0275898 13.3338 -0.153632 12.5688 0.266507Z" fill="#FF4B55"/>
<path d="M50.277 0.493209C48.7906 1.43852 48.2441 3.30814 49.031 4.75762C49.4682 5.57689 60.0697 14.1267 61.3593 14.7149C62.5397 15.2611 63.0862 15.2401 64.1354 14.6519C65.2939 14.0217 65.8185 13.2864 65.9497 12.1101C66.1683 10.3035 65.9497 10.0724 57.8838 3.62324C56.1132 2.21578 54.299 0.82932 53.8618 0.535223C52.7907 -0.158006 51.2825 -0.179013 50.277 0.493209Z" fill="#FF4B55"/>
<path d="M29.3987 6.75625C24.0652 7.38646 18.7098 9.46615 14.5129 12.5332C11.7806 14.5288 11.7806 14.1717 14.4911 16.7766C16.2616 18.4781 16.8955 18.9823 17.136 18.8142C19.5404 17.1337 22.4695 15.4321 23.8903 14.9069C27.5407 13.5625 28.59 13.3944 33.0054 13.3734C36.5903 13.3524 37.2679 13.4155 38.9073 13.8356C45.3338 15.5372 50.3831 19.1714 53.7712 24.5911C58.6457 32.3637 58.0993 42.6781 52.416 50.0516C51.8258 50.8288 51.3668 51.5431 51.4105 51.6271C51.4324 51.7321 52.5253 52.7615 53.7931 53.9378L56.1101 56.1016L56.6566 55.5134C58.6457 53.4967 61.1814 49.2323 62.2743 46.1023C63.4984 42.5731 63.8918 40.1993 63.8918 36.355C63.9137 32.4267 63.5858 30.4941 62.4055 27.028C59.9136 19.6755 54.0773 13.1844 46.8857 9.73924C41.7927 7.28143 34.9071 6.10504 29.3987 6.75625Z" fill="#FF4B55"/>
<path d="M4.69663 16.4827C3.25396 17.0919 2.46704 18.6674 2.88236 20.1169C2.99165 20.5371 3.58184 21.3563 4.17202 21.9655L5.26496 23.0789L4.45619 24.9275C4.01901 25.9568 3.36325 27.8895 2.99165 29.2129C2.42332 31.3136 2.33589 32.1119 2.24845 35.3259C2.1173 39.6744 2.42332 42.0482 3.58184 45.4303C7.27597 56.2909 16.9375 64.1265 28.6538 65.765C31.3424 66.1431 36.0639 66.0591 38.7088 65.5549C41.1352 65.1138 43.8238 64.2945 45.9878 63.3702L47.2775 62.824L48.8513 64.2735C50.0754 65.3869 50.6437 65.744 51.2995 65.87C52.4143 66.0381 53.8351 65.5129 54.4471 64.6726C55.0592 63.8534 55.2341 62.4459 54.7969 61.6476C54.4909 61.0805 50.9497 57.6773 31.4736 39.1912C27.08 35.0318 19.9759 28.2886 15.6916 24.2133C6.94808 15.8945 6.6202 15.6634 4.69663 16.4827ZM11.1668 28.5197C11.3636 28.7298 14.9921 32.1959 19.2546 36.2292C30.2276 46.6277 41.9658 57.8244 41.9658 57.9084C41.9658 58.0555 38.9056 58.8957 37.4192 59.1688C35.1677 59.547 31.3206 59.547 28.938 59.1478C15.932 56.9631 7.07924 45.0312 9.28697 32.6581C9.63671 30.6834 10.4236 28.1626 10.6859 28.1626C10.7515 28.1626 10.992 28.3306 11.1668 28.5197Z" fill="#FF4B55"/>
<path d="M31.3407 18.7276C30.4445 19.1477 30.3789 19.7149 30.3789 25.87V31.7729L31.8434 33.2224C32.6304 34.0207 33.3736 34.6719 33.4828 34.6719C33.5703 34.6719 33.6577 31.2687 33.6577 27.1304C33.6577 20.2611 33.614 19.5469 33.2861 19.1687C32.8052 18.6226 31.9527 18.4335 31.3407 18.7276Z" fill="#FF4B55"/>
<path d="M35.4062 36.4573C35.4062 36.4993 36.1057 37.1925 36.9582 37.9908L38.4883 39.4403L43.2973 39.5873L48.0843 39.7344L48.6308 39.2092C49.5926 38.2849 49.1335 36.8774 47.8002 36.6884C46.8821 36.5623 35.4062 36.3313 35.4062 36.4573Z" fill="#FF4B55"/>
</svg>
