<svg width="53" height="53" viewBox="0 0 53 53" fill="none" xmlns="http://www.w3.org/2000/svg">
<path d="M33 0H20C8.9543 0 0 8.9543 0 20V33C0 44.0457 8.9543 53 20 53H33C44.0457 53 53 44.0457 53 33V20C53 8.9543 44.0457 0 33 0Z" fill="#444A5B"/>
<path d="M34.0763 28.394C33.6999 28.3946 33.339 28.5444 33.0728 28.8105C32.8066 29.0767 32.6569 29.4376 32.6563 29.8141C32.6553 30.4415 32.4056 31.0429 31.9619 31.4866C31.5182 31.9303 30.9168 32.18 30.2893 32.181H22.7113C22.0839 32.18 21.4824 31.9303 21.0388 31.4866C20.5951 31.0429 20.3454 30.4415 20.3443 29.8141C20.3438 29.4378 20.1942 29.077 19.9282 28.8109C19.6622 28.5447 19.3016 28.3948 18.9253 28.394H15.6113V34.549C15.6124 35.1765 15.8621 35.7779 16.3058 36.2216C16.7494 36.6653 17.3509 36.915 17.9783 36.916H35.0233C35.6508 36.915 36.2522 36.6653 36.6959 36.2216C37.1396 35.7779 37.3893 35.1765 37.3903 34.549V28.394H34.0763Z" fill="#C7C9CE"/>
<path d="M28.7293 25.6921C28.6405 25.6036 28.5202 25.5539 28.3948 25.5539C28.2694 25.5539 28.1492 25.6036 28.0603 25.6921L26.9753 26.7771V16.5571C26.9753 16.4315 26.9254 16.311 26.8366 16.2222C26.7478 16.1334 26.6274 16.0836 26.5018 16.0836C26.3762 16.0836 26.2558 16.1334 26.167 16.2222C26.0782 16.311 26.0283 16.4315 26.0283 16.5571V27.9181C26.0284 28.0117 26.0563 28.1033 26.1084 28.1811C26.1606 28.2589 26.2347 28.3194 26.3213 28.3551C26.3787 28.379 26.4402 28.3912 26.5023 28.3911C26.6275 28.3911 26.7476 28.3415 26.8363 28.2531L28.7303 26.3591C28.8181 26.2702 28.8672 26.1502 28.867 26.0254C28.8668 25.9005 28.8173 25.7807 28.7293 25.6921V25.6921Z" fill="#C7C9CE"/>
<path d="M36.833 26.4721L33.419 21.3511C33.1171 20.8963 32.7073 20.5232 32.2263 20.2652C31.7453 20.0071 31.2078 19.8721 30.662 19.8721H27.921V24.6871C28.2247 24.5801 28.5558 24.5794 28.8599 24.6852C29.1641 24.791 29.4233 24.997 29.5951 25.2694C29.7668 25.5418 29.841 25.8645 29.8054 26.1846C29.7697 26.5046 29.6264 26.8031 29.399 27.0311L27.505 28.9251C27.2627 29.1696 26.9392 29.3169 26.5957 29.339C26.2522 29.3611 25.9125 29.2565 25.641 29.0451C25.612 29.0231 25.584 29.0001 25.557 28.9761C25.53 28.9521 25.514 28.9451 25.495 28.9261L23.601 27.0321C23.3698 26.8056 23.2232 26.5066 23.1858 26.1852C23.1483 25.8637 23.2222 25.5391 23.3951 25.2655C23.568 24.9919 23.8294 24.7858 24.1358 24.6817C24.4423 24.5775 24.7751 24.5815 25.079 24.6931V19.8721H22.859C22.1534 19.8712 21.4587 20.046 20.8376 20.3807C20.2164 20.7154 19.6883 21.1994 19.301 21.7891L16.252 26.4171C16.0268 26.7288 15.8576 27.0773 15.752 27.4471H18.925C19.5524 27.4481 20.1538 27.6979 20.5975 28.1415C21.0412 28.5852 21.2909 29.1866 21.292 29.8141C21.2925 30.1905 21.4423 30.5514 21.7084 30.8176C21.9746 31.0838 22.3355 31.2335 22.712 31.2341H30.287C30.6634 31.2335 31.0243 31.0838 31.2905 30.8176C31.5566 30.5514 31.7064 30.1905 31.707 29.8141C31.708 29.1866 31.9577 28.5852 32.4014 28.1415C32.8451 27.6979 33.4465 27.4481 34.074 27.4471H37.269C37.1777 27.1005 37.0305 26.7711 36.833 26.4721V26.4721Z" fill="#C7C9CE"/>
<path d="M26.8396 27.5861L24.9456 25.6921C24.9016 25.6481 24.8494 25.6133 24.7919 25.5896C24.7345 25.5658 24.6729 25.5536 24.6107 25.5537C24.5486 25.5537 24.487 25.566 24.4296 25.5898C24.3722 25.6136 24.32 25.6486 24.2761 25.6926C24.2322 25.7365 24.1973 25.7888 24.1736 25.8462C24.1499 25.9037 24.1376 25.9652 24.1377 26.0274C24.1377 26.0896 24.15 26.1511 24.1739 26.2085C24.1977 26.266 24.2326 26.3181 24.2766 26.3621L26.1706 28.2561C26.2593 28.3448 26.3796 28.3946 26.5051 28.3946C26.6306 28.3946 26.7509 28.3448 26.8396 28.2561C26.9283 28.1673 26.9782 28.047 26.9782 27.9216C26.9782 27.7961 26.9283 27.6758 26.8396 27.5871V27.5861Z" fill="#C7C9CE"/>
</svg>
