<svg width="48" height="48" viewBox="0 0 48 48" fill="none" xmlns="http://www.w3.org/2000/svg">
<path d="M21.5174 9.11564L21.4881 9.10079C21.1928 8.95121 20.874 8.83347 20.5127 8.7233L20.7565 7.92362L20.5127 8.7233C20.4103 8.6921 20.3188 8.6489 20.2517 8.61331C20.1927 8.60459 20.1348 8.59138 20.0785 8.57397C19.0359 8.25163 17.9596 8.07412 16.8453 8.04189H16.6461C16.1442 8.04189 15.646 8.0735 15.1454 8.14078L15.0896 8.14828H15.0333H14.8543C14.3468 8.21205 13.8412 8.32264 13.3508 8.47838L13.339 8.48215L13.339 8.48206C6.72034 10.477 4.305 17.0788 6.33936 22.9688C7.52005 26.0365 9.42094 28.8246 11.8955 31.1208C15.5916 34.4037 19.6331 37.3032 23.975 39.7841L21.5174 9.11564ZM21.5174 9.11564L21.5478 9.12815L22.2483 9.4168C22.3356 9.46187 22.4467 9.53161 22.5818 9.62115C22.6045 9.63618 22.6295 9.65293 22.6561 9.67072C22.7671 9.74507 22.905 9.83743 23.0114 9.89721L23.0113 9.89728L23.0218 9.90295C23.6391 10.2384 24.4047 10.216 25.0014 9.84225C26.8853 8.66226 29.1038 8.02699 31.3861 8.04187V8.04189H31.3916C32.5311 8.04189 33.6556 8.1903 34.7142 8.51748L34.7142 8.51751L34.7213 8.51963C41.2577 10.4769 43.6802 17.0755 41.6776 22.9729C40.5157 26.0396 38.6171 28.8435 36.1273 31.1381C32.4673 34.402 28.4503 37.3008 24.1249 39.7991C24.0847 39.8201 24.0366 39.8192 23.9971 39.7967L23.9756 39.7845L21.5174 9.11564Z" fill="#FE4B55" stroke="#FF4B55" stroke-width="1.68333"/>
</svg>
