<svg width="21" height="20" viewBox="0 0 21 20" fill="none" xmlns="http://www.w3.org/2000/svg">
<path d="M10.206 0.869081C10.3971 0.280774 11.2294 0.280774 11.4206 0.86908L13.3221 6.72153C13.4076 6.98462 13.6528 7.16276 13.9294 7.16276L20.0831 7.16276C20.7016 7.16276 20.9588 7.95432 20.4584 8.31791L15.48 11.9349C15.2562 12.0975 15.1625 12.3857 15.248 12.6488L17.1496 18.5013C17.3408 19.0896 16.6674 19.5788 16.167 19.2152L11.1886 15.5982C10.9648 15.4356 10.6617 15.4356 10.4379 15.5982L5.45953 19.2152C4.95909 19.5788 4.28575 19.0896 4.4769 18.5013L6.37847 12.6488C6.46396 12.3857 6.37031 12.0975 6.1465 11.9349L1.16812 8.31791C0.667673 7.95432 0.924866 7.16276 1.54345 7.16276L7.69707 7.16276C7.97371 7.16276 8.21889 6.98462 8.30438 6.72153L10.206 0.869081Z" fill="#D7D6DC"/>
</svg>
