<svg width="53" height="53" viewBox="0 0 53 53" fill="none" xmlns="http://www.w3.org/2000/svg">
<path opacity="0.1" d="M33 0H20C8.9543 0 0 8.9543 0 20V33C0 44.0457 8.9543 53 20 53H33C44.0457 53 53 44.0457 53 33V20C53 8.9543 44.0457 0 33 0Z" fill="#F4FAFF"/>
<g opacity="0.7">
<g opacity="0.7">
<path d="M24.6918 13.6762C22.513 13.6764 20.3833 14.3227 18.5719 15.5332C16.7604 16.7438 15.3486 18.4643 14.515 20.4773C13.6814 22.4902 13.4634 24.7051 13.8886 26.8419C14.3137 28.9788 15.363 30.9415 16.9036 32.482C18.4443 34.0226 20.4071 35.0716 22.544 35.4966C24.6809 35.9216 26.8958 35.7034 28.9086 34.8696C30.9215 34.0358 32.6419 32.6238 33.8523 30.8123C35.0627 29.0007 35.7088 26.8709 35.7088 24.6922C35.7053 21.7715 34.5435 18.9714 32.4781 16.9062C30.4127 14.841 27.6125 13.6794 24.6918 13.6762ZM24.6918 33.6762C22.9152 33.676 21.1785 33.149 19.7015 32.1619C18.2244 31.1747 17.0731 29.7718 16.3934 28.1304C15.7136 26.489 15.5358 24.6829 15.8824 22.9405C16.2291 21.198 17.0846 19.5975 18.3408 18.3413C19.5971 17.085 21.1976 16.2295 22.94 15.8829C24.6825 15.5362 26.4886 15.714 28.1299 16.3938C29.7713 17.0736 31.1743 18.2248 32.1614 19.7019C33.1486 21.179 33.6756 22.9156 33.6758 24.6922C33.6734 27.0742 32.7261 29.3579 31.0418 31.0422C29.3575 32.7265 27.0737 33.6738 24.6918 33.6762Z" fill="white"/>
<path d="M38.3938 36.9562L32.5638 31.1262C32.47 31.0289 32.3578 30.9512 32.2337 30.8977C32.1095 30.8442 31.976 30.816 31.8408 30.8147C31.7056 30.8135 31.5716 30.8391 31.4465 30.8903C31.3214 30.9414 31.2077 31.017 31.1121 31.1125C31.0165 31.2081 30.9409 31.3218 30.8898 31.4469C30.8387 31.572 30.813 31.7061 30.8143 31.8412C30.8156 31.9764 30.8437 32.11 30.8972 32.2341C30.9507 32.3582 31.0284 32.4705 31.1258 32.5642L36.9558 38.3942C37.1477 38.579 37.4044 38.6812 37.6708 38.6786C37.9372 38.6761 38.192 38.5692 38.3804 38.3808C38.5687 38.1924 38.6757 37.9377 38.6782 37.6713C38.6807 37.4049 38.5786 37.1481 38.3938 36.9562Z" fill="white"/>
<path d="M24.6918 13.6762C22.513 13.6764 20.3833 14.3227 18.5719 15.5332C16.7604 16.7438 15.3486 18.4643 14.515 20.4773C13.6814 22.4902 13.4634 24.7051 13.8886 26.8419C14.3137 28.9788 15.363 30.9415 16.9036 32.482C18.4443 34.0226 20.4071 35.0716 22.544 35.4966C24.6809 35.9216 26.8958 35.7034 28.9086 34.8696C30.9215 34.0358 32.6419 32.6238 33.8523 30.8123C35.0627 29.0007 35.7088 26.8709 35.7088 24.6922C35.7053 21.7715 34.5435 18.9714 32.4781 16.9062C30.4127 14.841 27.6125 13.6794 24.6918 13.6762ZM24.6918 33.6762C22.9152 33.676 21.1785 33.149 19.7015 32.1619C18.2244 31.1747 17.0731 29.7718 16.3934 28.1304C15.7136 26.489 15.5358 24.6829 15.8824 22.9405C16.2291 21.198 17.0846 19.5975 18.3408 18.3413C19.5971 17.085 21.1976 16.2295 22.94 15.8829C24.6825 15.5362 26.4886 15.714 28.1299 16.3938C29.7713 17.0736 31.1743 18.2248 32.1614 19.7019C33.1486 21.179 33.6756 22.9156 33.6758 24.6922C33.6734 27.0742 32.7261 29.3579 31.0418 31.0422C29.3575 32.7265 27.0737 33.6738 24.6918 33.6762Z" stroke="white"/>
<path d="M38.3938 36.9562L32.5638 31.1262C32.47 31.0289 32.3578 30.9512 32.2337 30.8977C32.1095 30.8442 31.976 30.816 31.8408 30.8147C31.7056 30.8135 31.5716 30.8391 31.4465 30.8903C31.3214 30.9414 31.2077 31.017 31.1121 31.1125C31.0165 31.2081 30.9409 31.3218 30.8898 31.4469C30.8387 31.572 30.813 31.7061 30.8143 31.8412C30.8156 31.9764 30.8437 32.11 30.8972 32.2341C30.9507 32.3582 31.0284 32.4705 31.1258 32.5642L36.9558 38.3942C37.1477 38.579 37.4044 38.6812 37.6708 38.6786C37.9372 38.6761 38.192 38.5692 38.3804 38.3808C38.5687 38.1924 38.6757 37.9377 38.6782 37.6713C38.6807 37.4049 38.5786 37.1481 38.3938 36.9562Z" stroke="white"/>
</g>
</g>
</svg>
