<svg width="53" height="53" viewBox="0 0 53 53" fill="none" xmlns="http://www.w3.org/2000/svg">
<path d="M33 0H20C8.9543 0 0 8.9543 0 20V33C0 44.0457 8.9543 53 20 53H33C44.0457 53 53 44.0457 53 33V20C53 8.9543 44.0457 0 33 0Z" fill="#444A5B"/>
<path d="M36.4355 17.5818C36.1894 17.3296 35.8791 17.1494 35.5381 17.0607C35.197 16.9721 34.8382 16.9783 34.5005 17.0788L18.4085 21.7598C18.0572 21.8559 17.7406 22.0499 17.4955 22.3193C17.2505 22.5886 17.0871 22.9221 17.0245 23.2808C16.9844 23.6887 17.0563 24.0998 17.2325 24.4698C17.4087 24.8399 17.6825 25.1548 18.0245 25.3808L23.0605 28.4768C23.311 28.6318 23.6067 28.6972 23.8993 28.6621C24.1918 28.627 24.4637 28.4936 24.6705 28.2838L30.4335 22.4838C30.502 22.4123 30.5843 22.3554 30.6754 22.3165C30.7664 22.2776 30.8644 22.2576 30.9635 22.2576C31.0625 22.2576 31.1605 22.2776 31.2516 22.3165C31.3427 22.3554 31.425 22.4123 31.4935 22.4838C31.6329 22.6264 31.711 22.8179 31.711 23.0173C31.711 23.2167 31.6329 23.4082 31.4935 23.5508L25.7205 29.3508C25.5123 29.5604 25.3802 29.8337 25.3452 30.1271C25.3102 30.4205 25.3744 30.7171 25.5275 30.9698L28.6005 36.0538C28.77 36.3438 29.013 36.584 29.305 36.75C29.597 36.9161 29.9276 37.0023 30.2635 36.9998C30.3469 37.0015 30.4304 36.9982 30.5135 36.9898C30.8914 36.9427 31.2472 36.7859 31.537 36.5389C31.8269 36.2919 32.038 35.9654 32.1445 35.5998L36.9165 19.5248C37.018 19.1877 37.027 18.8294 36.9425 18.4876C36.8581 18.1458 36.6833 17.8329 36.4365 17.5818" fill="#C7C9CE"/>
</svg>
