<svg width="46" height="46" viewBox="0 0 46 46" fill="none" xmlns="http://www.w3.org/2000/svg">
<path fill-rule="evenodd" clip-rule="evenodd" d="M31.947 2.82808C29.1807 1.62402 26.1926 1.00026 23.1681 1C19.3112 1.00048 15.5222 2.01472 12.1809 3.94105C8.83956 5.86738 6.06333 8.63812 4.13048 11.9755C2.19763 15.3129 1.17607 19.0998 1.1682 22.9564C1.16034 26.813 2.16644 30.604 4.08566 33.9493L1.25104 42.7508C1.15314 43.0521 1.14048 43.3747 1.21447 43.6828C1.28847 43.991 1.44622 44.2726 1.67031 44.4967C1.89439 44.7208 2.17608 44.8785 2.48422 44.9525C2.79237 45.0265 3.11497 45.0138 3.41637 44.9159L12.2184 42.0815C15.1433 43.7593 18.4147 44.7425 21.78 44.9549C25.1453 45.1673 28.5145 44.6034 31.6271 43.3067C34.7398 42.01 37.5128 40.0153 39.7318 37.4765C41.9508 34.9377 43.5565 31.9228 44.4249 28.6648C45.0457 26.3355 45.2778 23.9266 45.1181 21.5343C44.7257 21.754 44.3193 21.9513 43.9008 22.1246C43.1965 22.4163 42.4685 22.6359 41.7279 22.7821C41.7472 24.4145 41.5513 26.0527 41.1368 27.6537C40.106 31.6358 37.7816 35.1626 34.5287 37.6803C31.2758 40.1981 27.2787 41.5641 23.1652 41.5638L23.1681 41.5589C19.6938 41.5626 16.2887 40.5882 13.3424 38.7471C13.1302 38.6146 12.8915 38.53 12.6431 38.4992C12.3948 38.4684 12.1427 38.4922 11.9045 38.569L5.55021 40.6151L7.59644 34.2652C7.67297 34.0269 7.69659 33.7748 7.66566 33.5265C7.63472 33.2781 7.54996 33.0395 7.41731 32.8273C5.23993 29.3375 4.28347 25.2234 4.69816 21.1311C5.11284 17.0388 6.87518 13.2001 9.70837 10.218C12.5416 7.23586 16.2851 5.27923 20.3511 4.6554C23.4886 4.17402 26.6809 4.50728 29.6279 5.60149C30.2496 4.56096 31.0323 3.62475 31.947 2.82808ZM24.9546 24.1919C25.1907 23.8386 25.3167 23.4232 25.3167 22.9983C25.3167 22.4285 25.0903 21.882 24.6874 21.4791C24.2845 21.0762 23.738 20.8499 23.1681 20.8499C22.7432 20.8499 22.3278 20.9759 21.9744 21.2119C21.6211 21.448 21.3457 21.7836 21.1831 22.1761C21.0204 22.5687 20.9779 23.0007 21.0608 23.4175C21.1437 23.8342 21.3483 24.217 21.6488 24.5175C21.9493 24.818 22.3322 25.0226 22.7489 25.1055C23.1657 25.1884 23.5977 25.1458 23.9903 24.9832C24.383 24.8206 24.7185 24.5453 24.9546 24.1919ZM33.548 24.1919C33.7841 23.8386 33.9101 23.4232 33.9101 22.9983C33.9101 22.4285 33.6838 21.882 33.2808 21.4791C32.8779 21.0762 32.3314 20.8499 31.7615 20.8499C31.3366 20.8499 30.9212 20.9759 30.5678 21.2119C30.2145 21.448 29.9391 21.7836 29.7765 22.1761C29.6139 22.5687 29.5713 23.0007 29.6542 23.4175C29.7371 23.8342 29.9417 24.217 30.2422 24.5175C30.5427 24.818 30.9256 25.0226 31.3424 25.1055C31.7591 25.1884 32.1912 25.1458 32.5838 24.9832C32.9764 24.8206 33.3119 24.5453 33.548 24.1919ZM16.3612 24.1919C16.5973 23.8386 16.7233 23.4232 16.7233 22.9983H16.7194C16.7194 22.4292 16.4935 21.8833 16.0915 21.4805C15.6894 21.0777 15.1439 20.8509 14.5747 20.8499C14.1498 20.8499 13.7343 20.9759 13.381 21.2119C13.0277 21.448 12.7523 21.7836 12.5897 22.1761C12.427 22.5687 12.3845 23.0007 12.4674 23.4175C12.5503 23.8342 12.7549 24.217 13.0554 24.5175C13.3559 24.818 13.7388 25.0226 14.1555 25.1055C14.5723 25.1884 15.0043 25.1458 15.3969 24.9832C15.7895 24.8206 16.1251 24.5453 16.3612 24.1919Z" fill="#424A5C"/>
<path d="M31.947 2.82808L32.1112 3.0166L32.4095 2.75675L32.0468 2.59885L31.947 2.82808ZM23.1681 1L23.1682 0.75H23.1681L23.1681 1ZM12.1809 3.94105L12.056 3.72447L12.1809 3.94105ZM4.1305 11.9755L3.91416 11.8502L4.1305 11.9755ZM1.16822 22.9564L0.91822 22.9559L1.16822 22.9564ZM4.08567 33.9493L4.32364 34.0259L4.35751 33.9207L4.30252 33.8248L4.08567 33.9493ZM1.25106 42.7508L1.48883 42.828L1.48902 42.8274L1.25106 42.7508ZM3.41639 44.9159L3.33976 44.678L3.33916 44.6782L3.41639 44.9159ZM12.2185 42.0815L12.3429 41.8647L12.247 41.8097L12.1418 41.8435L12.2185 42.0815ZM21.7801 44.9549L21.7643 45.2044L21.7801 44.9549ZM44.4249 28.6648L44.6665 28.7291L44.4249 28.6648ZM45.1182 21.5343L45.3676 21.5176L45.3412 21.1228L44.996 21.3161L45.1182 21.5343ZM43.9009 22.1246L43.8052 21.8936L43.9009 22.1246ZM41.7279 22.7821L41.6794 22.5369L41.4754 22.5772L41.4779 22.7851L41.7279 22.7821ZM41.1369 27.6537L41.3789 27.7164L41.1369 27.6537ZM34.5287 37.6803L34.3757 37.4826L34.5287 37.6803ZM23.1652 41.5638L22.9508 41.4353L22.7238 41.8138L23.1652 41.8138L23.1652 41.5638ZM23.1681 41.5589L23.3825 41.6875L23.6098 41.3084L23.1679 41.3089L23.1681 41.5589ZM13.3425 38.7471L13.4749 38.5351L13.4749 38.5351L13.3425 38.7471ZM12.6432 38.4992L12.6739 38.2511H12.6739L12.6432 38.4992ZM11.9045 38.569L11.9811 38.8069L11.9811 38.8069L11.9045 38.569ZM5.55022 40.6151L5.31227 40.5384L5.16272 41.0025L5.62685 40.8531L5.55022 40.6151ZM7.59646 34.2652L7.83441 34.3419L7.83448 34.3416L7.59646 34.2652ZM7.66567 33.5265L7.41759 33.5574L7.66567 33.5265ZM7.41733 32.8273L7.20523 32.9596L7.20534 32.9598L7.41733 32.8273ZM4.69817 21.1311L4.9469 21.1563L4.69817 21.1311ZM20.3511 4.6554L20.389 4.90251L20.3511 4.6554ZM29.6279 5.60149L29.5409 5.83585L29.7359 5.90824L29.8425 5.72971L29.6279 5.60149ZM24.9546 24.1919L25.1625 24.3308L24.9546 24.1919ZM21.9744 21.2119L22.1133 21.4198V21.4198L21.9744 21.2119ZM21.1831 22.1761L20.9521 22.0805L21.1831 22.1761ZM21.0608 23.4175L20.8156 23.4662V23.4662L21.0608 23.4175ZM21.6488 24.5175L21.8256 24.3407H21.8256L21.6488 24.5175ZM22.749 25.1055L22.7977 24.8603L22.749 25.1055ZM23.9904 24.9832L23.8947 24.7523H23.8947L23.9904 24.9832ZM33.548 24.1919L33.7559 24.3308L33.7559 24.3308L33.548 24.1919ZM30.5678 21.2119L30.7067 21.4198V21.4198L30.5678 21.2119ZM29.7765 22.1761L29.5455 22.0805L29.7765 22.1761ZM29.6542 23.4175L29.409 23.4662V23.4662L29.6542 23.4175ZM30.2423 24.5175L30.419 24.3407H30.419L30.2423 24.5175ZM31.3424 25.1055L31.3911 24.8603L31.3424 25.1055ZM32.5838 24.9832L32.4881 24.7523H32.4881L32.5838 24.9832ZM16.7233 22.9983H16.9733V22.7483H16.7233V22.9983ZM16.3612 24.1919L16.5691 24.3308L16.3612 24.1919ZM16.7194 22.9983H16.4694L16.4694 23.2483H16.7194V22.9983ZM14.5747 20.8499L14.5752 20.5999H14.5747V20.8499ZM13.381 21.2119L13.5199 21.4198L13.5199 21.4198L13.381 21.2119ZM12.5897 22.1761L12.3587 22.0805H12.3587L12.5897 22.1761ZM13.0554 24.5175L13.2322 24.3407L13.0554 24.5175ZM15.397 24.9832L15.3013 24.7523H15.3013L15.397 24.9832ZM32.0468 2.59885C29.249 1.38111 26.227 0.75026 23.1682 0.75L23.1681 1.25C26.1582 1.25025 29.1123 1.86693 31.8472 3.05731L32.0468 2.59885ZM23.1681 0.75C19.2674 0.750486 15.4353 1.77625 12.056 3.72447L12.3058 4.15763C15.6091 2.25319 19.3551 1.25048 23.1682 1.25L23.1681 0.75ZM12.056 3.72447C8.67675 5.67268 5.86897 8.4749 3.91416 11.8502L4.34683 12.1008C6.25772 8.80133 9.00241 6.06208 12.3058 4.15763L12.056 3.72447ZM3.91416 11.8502C1.95934 15.2256 0.926177 19.0554 0.91822 22.9559L1.41822 22.9569C1.426 19.1441 2.43595 15.4003 4.34683 12.1008L3.91416 11.8502ZM0.91822 22.9559C0.910264 26.8563 1.9278 30.6904 3.86883 34.0737L4.30252 33.8248C2.40511 30.5176 1.41044 26.7697 1.41822 22.9569L0.91822 22.9559ZM3.84771 33.8726L1.0131 42.6741L1.48902 42.8274L4.32364 34.0259L3.84771 33.8726ZM1.01329 42.6735C0.901141 43.0187 0.886643 43.3883 0.971401 43.7412L1.45758 43.6245C1.39435 43.3612 1.40517 43.0855 1.48883 42.828L1.01329 42.6735ZM0.971401 43.7412C1.05616 44.0942 1.23687 44.4168 1.49355 44.6735L1.8471 44.3199C1.65561 44.1284 1.52081 43.8878 1.45758 43.6245L0.971401 43.7412ZM1.49355 44.6735C1.75024 44.9302 2.0729 45.1108 2.42587 45.1956L2.54261 44.7094C2.27929 44.6462 2.03858 44.5114 1.8471 44.3199L1.49355 44.6735ZM2.42587 45.1956C2.77884 45.2803 3.14837 45.2659 3.49362 45.1537L3.33916 44.6782C3.0816 44.7618 2.80593 44.7726 2.54261 44.7094L2.42587 45.1956ZM3.49302 45.1539L12.2951 42.3195L12.1418 41.8435L3.33976 44.678L3.49302 45.1539ZM12.0941 42.2984C15.0522 43.9953 18.3608 44.9895 21.7643 45.2044L21.7958 44.7054C18.4688 44.4954 15.2345 43.5234 12.3429 41.8647L12.0941 42.2984ZM21.7643 45.2044C25.1679 45.4193 28.5752 44.8489 31.7233 43.5375L31.531 43.076C28.4537 44.3579 25.1229 44.9154 21.7958 44.7054L21.7643 45.2044ZM31.7233 43.5375C34.8713 42.2261 37.6758 40.2086 39.92 37.641L39.5436 37.3119C37.3498 39.8219 34.6083 41.794 31.531 43.076L31.7233 43.5375ZM39.92 37.641C42.1643 35.0733 43.7882 32.0242 44.6665 28.7291L44.1834 28.6004C43.3248 31.8214 41.7374 34.802 39.5436 37.3119L39.92 37.641ZM44.6665 28.7291C45.2944 26.3734 45.5291 23.9371 45.3676 21.5176L44.8687 21.5509C45.0266 23.916 44.7971 26.2976 44.1834 28.6004L44.6665 28.7291ZM44.996 21.3161C44.6121 21.5311 44.2146 21.7241 43.8052 21.8936L43.9965 22.3556C44.4241 22.1785 44.8393 21.9769 45.2403 21.7524L44.996 21.3161ZM43.8052 21.8936C43.1162 22.179 42.404 22.3938 41.6794 22.5369L41.7763 23.0274C42.5331 22.878 43.2769 22.6537 43.9965 22.3556L43.8052 21.8936ZM41.4779 22.7851C41.497 24.3954 41.3037 26.0116 40.8948 27.5911L41.3789 27.7164C41.7989 26.0938 41.9975 24.4335 41.9779 22.7792L41.4779 22.7851ZM40.8948 27.5911C39.8779 31.5195 37.5848 34.9988 34.3757 37.4826L34.6817 37.878C37.9784 35.3264 40.3341 31.7521 41.3789 27.7164L40.8948 27.5911ZM34.3757 37.4826C31.1666 39.9665 27.2233 41.3141 23.1652 41.3138L23.1652 41.8138C27.3341 41.8141 31.385 40.4297 34.6817 37.878L34.3757 37.4826ZM23.3796 41.6924L23.3825 41.6875L22.9537 41.4303L22.9508 41.4353L23.3796 41.6924ZM23.1679 41.3089C19.7405 41.3126 16.3814 40.3513 13.4749 38.5351L13.21 38.9591C16.1961 40.8251 19.6472 41.8127 23.1684 41.8089L23.1679 41.3089ZM13.4749 38.5351C13.2317 38.3832 12.9584 38.2863 12.6739 38.2511L12.6124 38.7473C12.8247 38.7736 13.0286 38.8459 13.2101 38.9592L13.4749 38.5351ZM12.6739 38.2511C12.3894 38.2159 12.1007 38.2431 11.8278 38.331L11.9811 38.8069C12.1847 38.7414 12.4002 38.721 12.6124 38.7473L12.6739 38.2511ZM11.8279 38.331L5.4736 40.3771L5.62685 40.8531L11.9811 38.8069L11.8279 38.331ZM5.78817 40.6918L7.83441 34.3419L7.35851 34.1885L5.31227 40.5384L5.78817 40.6918ZM7.83448 34.3416C7.92214 34.0687 7.94919 33.78 7.91375 33.4956L7.41759 33.5574C7.44403 33.7696 7.42385 33.9851 7.35844 34.1887L7.83448 34.3416ZM7.91375 33.4956C7.87832 33.2111 7.78125 32.9378 7.62932 32.6948L7.20534 32.9598C7.31871 33.1412 7.39115 33.3451 7.41759 33.5574L7.91375 33.4956ZM7.62943 32.695C5.48137 29.2522 4.5378 25.1935 4.9469 21.1563L4.44945 21.1059C4.02918 25.2533 4.99852 29.4228 7.20523 32.9596L7.62943 32.695ZM4.9469 21.1563C5.356 17.1191 7.0946 13.3321 9.88963 10.3902L9.52715 10.0458C6.65579 13.0681 4.86972 16.9584 4.44945 21.1059L4.9469 21.1563ZM9.88963 10.3902C12.6847 7.44822 16.3778 5.51794 20.389 4.90251L20.3132 4.40829C16.1925 5.04053 12.3985 7.0235 9.52715 10.0458L9.88963 10.3902ZM20.389 4.90251C23.4842 4.42761 26.6335 4.75639 29.5409 5.83585L29.715 5.36712C26.7282 4.25818 23.4929 3.92043 20.3132 4.40829L20.389 4.90251ZM29.8425 5.72971C30.4507 4.71181 31.2164 3.79595 32.1112 3.0166L31.7828 2.63956C30.8482 3.45355 30.0486 4.41011 29.4133 5.47326L29.8425 5.72971ZM25.0667 22.9983C25.0667 23.3738 24.9554 23.7408 24.7468 24.053L25.1625 24.3308C25.4261 23.9364 25.5667 23.4727 25.5667 22.9983H25.0667ZM24.5107 21.6559C24.8667 22.0119 25.0667 22.4948 25.0667 22.9983H25.5667C25.5667 22.3622 25.314 21.7521 24.8642 21.3023L24.5107 21.6559ZM23.1681 21.0999C23.6717 21.0999 24.1546 21.2999 24.5107 21.6559L24.8642 21.3023C24.4144 20.8526 23.8043 20.5999 23.1681 20.5999V21.0999ZM22.1133 21.4198C22.4255 21.2112 22.7926 21.0999 23.1681 21.0999V20.5999C22.6937 20.5999 22.23 20.7405 21.8356 21.0041L22.1133 21.4198ZM21.4141 22.2718C21.5578 21.9249 21.8011 21.6284 22.1133 21.4198L21.8356 21.0041C21.4411 21.2676 21.1337 21.6422 20.9521 22.0805L21.4141 22.2718ZM21.306 23.3687C21.2328 23.0004 21.2704 22.6187 21.4141 22.2718L20.9521 22.0805C20.7706 22.5187 20.7231 23.001 20.8156 23.4662L21.306 23.3687ZM21.8256 24.3407C21.5601 24.0752 21.3793 23.7369 21.306 23.3687L20.8156 23.4662C20.9082 23.9315 21.1366 24.3589 21.4721 24.6943L21.8256 24.3407ZM22.7977 24.8603C22.4294 24.787 22.0911 24.6062 21.8256 24.3407L21.4721 24.6943C21.8075 25.0297 22.2349 25.2581 22.7002 25.3507L22.7977 24.8603ZM23.8947 24.7523C23.5478 24.896 23.166 24.9336 22.7977 24.8603L22.7002 25.3507C23.1655 25.4432 23.6477 25.3957 24.086 25.2142L23.8947 24.7523ZM24.7468 24.053C24.5381 24.3652 24.2416 24.6086 23.8947 24.7523L24.086 25.2142C24.5243 25.0327 24.8989 24.7253 25.1625 24.3308L24.7468 24.053ZM33.6601 22.9983C33.6601 23.3738 33.5488 23.7408 33.3402 24.053L33.7559 24.3308C34.0195 23.9364 34.1601 23.4727 34.1601 22.9983H33.6601ZM33.1041 21.6559C33.4601 22.0119 33.6601 22.4948 33.6601 22.9983H34.1601C34.1601 22.3622 33.9074 21.7521 33.4576 21.3023L33.1041 21.6559ZM31.7615 21.0999C32.2651 21.0999 32.748 21.2999 33.1041 21.6559L33.4576 21.3023C33.0078 20.8526 32.3977 20.5999 31.7615 20.5999V21.0999ZM30.7067 21.4198C31.0189 21.2112 31.386 21.0999 31.7615 21.0999V20.5999C31.2871 20.5999 30.8234 20.7405 30.429 21.0041L30.7067 21.4198ZM30.0075 22.2718C30.1512 21.9249 30.3945 21.6284 30.7067 21.4198L30.429 21.0041C30.0345 21.2676 29.7271 21.6422 29.5455 22.0805L30.0075 22.2718ZM29.8994 23.3687C29.8262 23.0004 29.8638 22.6187 30.0075 22.2718L29.5455 22.0805C29.364 22.5187 29.3165 23.001 29.409 23.4662L29.8994 23.3687ZM30.419 24.3407C30.1535 24.0752 29.9727 23.7369 29.8994 23.3687L29.409 23.4662C29.5016 23.9315 29.73 24.3589 30.0655 24.6943L30.419 24.3407ZM31.3911 24.8603C31.0228 24.787 30.6845 24.6062 30.419 24.3407L30.0655 24.6943C30.4009 25.0297 30.8283 25.2581 31.2936 25.3507L31.3911 24.8603ZM32.4881 24.7523C32.1412 24.896 31.7594 24.9336 31.3911 24.8603L31.2936 25.3507C31.7589 25.4432 32.2412 25.3957 32.6794 25.2142L32.4881 24.7523ZM33.3402 24.053C33.1315 24.3652 32.835 24.6086 32.4881 24.7523L32.6794 25.2142C33.1177 25.0327 33.4923 24.7253 33.7559 24.3308L33.3402 24.053ZM16.4733 22.9983C16.4733 23.3738 16.362 23.7408 16.1534 24.053L16.5691 24.3308C16.8326 23.9364 16.9733 23.4727 16.9733 22.9983H16.4733ZM16.7194 23.2483H16.7233V22.7483H16.7194V23.2483ZM15.9145 21.6571C16.2698 22.0131 16.4694 22.4954 16.4694 22.9983H16.9694C16.9694 22.363 16.7173 21.7536 16.2684 21.3039L15.9145 21.6571ZM14.5743 21.0999C15.0772 21.1008 15.5592 21.3012 15.9145 21.6571L16.2684 21.3039C15.8195 20.8542 15.2106 20.601 14.5752 20.5999L14.5743 21.0999ZM13.5199 21.4198C13.8321 21.2112 14.1992 21.0999 14.5747 21.0999V20.5999C14.1003 20.5999 13.6366 20.7405 13.2421 21.0041L13.5199 21.4198ZM12.8206 22.2718C12.9643 21.9249 13.2077 21.6284 13.5199 21.4198L13.2421 21.0041C12.8477 21.2676 12.5403 21.6422 12.3587 22.0805L12.8206 22.2718ZM12.7126 23.3687C12.6394 23.0004 12.677 22.6187 12.8206 22.2718L12.3587 22.0805C12.1772 22.5187 12.1297 23.001 12.2222 23.4662L12.7126 23.3687ZM13.2322 24.3407C12.9667 24.0752 12.7859 23.7369 12.7126 23.3687L12.2222 23.4662C12.3148 23.9315 12.5432 24.3589 12.8787 24.6943L13.2322 24.3407ZM14.2043 24.8603C13.836 24.787 13.4977 24.6062 13.2322 24.3407L12.8787 24.6943C13.2141 25.0297 13.6415 25.2581 14.1068 25.3507L14.2043 24.8603ZM15.3013 24.7523C14.9544 24.896 14.5726 24.9336 14.2043 24.8603L14.1068 25.3507C14.5721 25.4432 15.0543 25.3957 15.4926 25.2142L15.3013 24.7523ZM16.1534 24.053C15.9447 24.3652 15.6482 24.6086 15.3013 24.7523L15.4926 25.2142C15.9309 25.0327 16.3055 24.7253 16.5691 24.3308L16.1534 24.053Z" fill="#424A5C"/>
</svg>
