<svg width="25" height="29" viewBox="0 0 25 29" fill="none" xmlns="http://www.w3.org/2000/svg">
<path fill-rule="evenodd" clip-rule="evenodd" d="M24.2936 15.2123C24.5134 15.8563 24.6627 16.6313 24.6627 17.6277C24.1974 23.0237 18.564 23.4637 12.3294 23.4637C6.0947 23.4637 0.460035 23.0237 1.76484e-05 17.713C-0.00396454 15.5157 0.666702 14.3983 1.2587 13.4143L1.46769 13.0625C1.98227 12.1782 2.42137 11.2161 2.42137 9.25967C2.42137 4.94901 6.4027 0.333008 12.3294 0.333008C12.639 0.333008 12.9433 0.345604 13.242 0.370096C12.7363 0.968201 12.3032 1.62965 11.9564 2.34086C7.49695 2.52917 4.42137 6.07181 4.42137 9.25967C4.42137 12.0317 3.65203 13.313 2.97203 14.4437C2.4267 15.3517 1.99604 16.069 1.99604 17.6277C2.2187 20.1423 3.8787 21.4637 12.3294 21.4637C20.7334 21.4637 22.4454 20.0837 22.6667 17.541C22.6647 16.8209 22.5607 16.2814 22.391 15.8118C23.0527 15.6781 23.6895 15.4757 24.2936 15.2123ZM12.263 26.9997C11.343 26.9997 10.4563 26.577 9.76563 25.8077C9.3963 25.3957 8.7643 25.3623 8.35363 25.733C7.94297 26.101 7.90963 26.7343 8.27897 27.1437C9.3523 28.3397 10.767 28.9983 12.2616 28.9997H12.2643C13.763 28.9997 15.1803 28.341 16.2576 27.145C16.627 26.7357 16.5936 26.1023 16.183 25.733C15.7736 25.3637 15.1416 25.397 14.771 25.8063C14.079 26.577 13.1883 26.9997 12.2643 26.9997H12.263Z" fill="#424A5C"/>
</svg>
