<svg width="18" height="14" viewBox="0 0 18 14" fill="none" xmlns="http://www.w3.org/2000/svg">
<path d="M8.92088 0.75C10.9392 0.75 12.3484 2.14086 12.3484 4.13409V9.8659C12.3484 11.8591 10.9392 13.25 8.92088 13.25H4.09416C2.07581 13.25 0.666626 11.8591 0.666626 9.8659V4.13409C0.666626 2.14086 2.07581 0.75 4.09416 0.75H8.92088ZM15.6316 2.73249C15.9974 2.54636 16.4266 2.56582 16.7758 2.78579C17.125 3.00491 17.3333 3.38562 17.3333 3.80186V10.1986C17.3333 10.6157 17.125 10.9956 16.7758 11.2147C16.585 11.334 16.3716 11.3949 16.1566 11.3949C15.9774 11.3949 15.7983 11.3526 15.6308 11.2672L14.3966 10.6445C13.9399 10.4127 13.6566 9.94738 13.6566 9.43046V4.5692C13.6566 4.05144 13.9399 3.58613 14.3966 3.35601L15.6316 2.73249Z" fill="#F2F2F2"/>
</svg>
