<svg width="18" height="18" viewBox="0 0 18 18" fill="none" xmlns="http://www.w3.org/2000/svg">
<path d="M12.6115 0.666992C15.4359 0.666992 17.3333 2.64875 17.3333 5.59759V12.4031C17.3333 15.3519 15.4359 17.3337 12.6106 17.3337H5.38844C2.56404 17.3337 0.666626 15.3519 0.666626 12.4031V5.59759C0.666626 2.64875 2.56404 0.666992 5.38844 0.666992H12.6115ZM13.5305 9.4587C12.6372 8.90143 11.9475 9.68402 11.7615 9.93428C11.5821 10.1759 11.428 10.4425 11.2654 10.7091C10.8682 11.367 10.4132 12.1255 9.62546 12.5667C8.48078 13.2005 7.6118 12.6166 6.98666 12.1918C6.75203 12.0335 6.5241 11.8839 6.297 11.7841C5.73723 11.5425 5.23361 11.8177 4.48613 12.7671C4.09395 13.2633 3.70513 13.7552 3.31128 14.2454C3.07581 14.5387 3.13195 14.991 3.44955 15.1871C3.95652 15.4993 4.57495 15.667 5.27383 15.667H12.2969C12.6933 15.667 13.0905 15.6128 13.4693 15.489C14.3223 15.2103 14.9994 14.5722 15.3531 13.7294C15.6514 13.0208 15.7964 12.1608 15.5173 11.4453C15.4243 11.2079 15.2852 10.9869 15.0899 10.7926C14.5779 10.2843 14.0994 9.80958 13.5305 9.4587ZM6.08234 4.00033C4.93347 4.00033 3.99996 4.9351 3.99996 6.08366C3.99996 7.23222 4.93347 8.16699 6.08234 8.16699C7.23037 8.16699 8.16472 7.23222 8.16472 6.08366C8.16472 4.9351 7.23037 4.00033 6.08234 4.00033Z" fill="white"/>
</svg>
