<svg width="24" height="24" viewBox="0 0 24 24" fill="none" xmlns="http://www.w3.org/2000/svg">
<path d="M11.999 12.999C12.5513 12.999 12.999 12.5513 12.999 11.999C12.999 11.4467 12.5513 10.999 11.999 10.999C11.4467 10.999 10.999 11.4467 10.999 11.999C10.999 12.5513 11.4467 12.999 11.999 12.999Z" stroke="#353452" stroke-width="2" stroke-linecap="round" stroke-linejoin="round"/>
<path d="M11.999 6.00098C12.5513 6.00098 12.999 5.55326 12.999 5.00098C12.999 4.44869 12.5513 4.00098 11.999 4.00098C11.4467 4.00098 10.999 4.44869 10.999 5.00098C10.999 5.55326 11.4467 6.00098 11.999 6.00098Z" stroke="#353452" stroke-width="2" stroke-linecap="round" stroke-linejoin="round"/>
<path d="M11.999 20C12.5513 20 12.999 19.5523 12.999 19C12.999 18.4477 12.5513 18 11.999 18C11.4467 18 10.999 18.4477 10.999 19C10.999 19.5523 11.4467 20 11.999 20Z" stroke="#353452" stroke-width="2" stroke-linecap="round" stroke-linejoin="round"/>
</svg>
