<svg width="32" height="32" viewBox="0 0 32 32" fill="none" xmlns="http://www.w3.org/2000/svg">
<circle cx="16" cy="16" r="16" fill="#303548"/>
<path d="M22.3135 19.7062C22.1703 19.7062 22.0288 19.676 21.898 19.6178C21.8676 19.6043 21.8386 19.5878 21.8114 19.5685L19.1684 17.7054C19.0345 17.611 18.9253 17.4858 18.8499 17.3404C18.7745 17.195 18.7351 17.0336 18.7351 16.8698V14.333C18.7352 14.1691 18.7746 14.0077 18.8501 13.8623C18.9256 13.7168 19.035 13.5917 19.169 13.4973L21.812 11.6342C21.8391 11.615 21.8682 11.5985 21.8986 11.585C22.0546 11.516 22.2254 11.4871 22.3955 11.5009C22.5655 11.5148 22.7294 11.571 22.8721 11.6644C23.0149 11.7578 23.132 11.8854 23.2129 12.0356C23.2937 12.1859 23.3357 12.3539 23.335 12.5245V18.6806C23.335 18.9518 23.2272 19.2119 23.0354 19.4037C22.8436 19.5955 22.5835 19.7033 22.3123 19.7033L22.3135 19.7062Z" fill="white"/>
<path d="M16.0518 20.2015H10.1723C9.59637 20.2008 9.0442 19.9718 8.63695 19.5645C8.2297 19.1573 8.00063 18.6051 8 18.0292V13.1723C8.00063 12.5964 8.2297 12.0442 8.63695 11.637C9.0442 11.2297 9.59637 11.0006 10.1723 11H16.0667C16.6387 11.0006 17.1871 11.2281 17.5915 11.6326C17.996 12.0371 18.2235 12.5855 18.2241 13.1575V18.0292C18.2235 18.6051 17.9944 19.1573 17.5872 19.5645C17.1799 19.9718 16.6278 20.2008 16.0518 20.2015Z" fill="white"/>
</svg>
