<svg width="160" height="160" viewBox="0 0 160 160" fill="none" xmlns="http://www.w3.org/2000/svg">
<path d="M79.6249 133.226C67.7487 133.245 56.14 129.699 46.3016 123.047C36.7189 116.578 29.2178 107.47 24.7071 96.8242C20.8417 87.6909 19.3196 77.7364 20.2794 67.8653C21.2391 57.9941 24.6501 48.5193 30.2025 40.3016C36.671 30.7189 45.7797 23.2178 56.425 18.7071C65.5584 14.8417 75.5129 13.3196 85.384 14.2794C95.2551 15.2391 104.73 18.6501 112.948 24.2025C122.53 30.671 130.031 39.7797 134.542 50.425C138.408 59.5584 139.93 69.5129 138.97 79.384C138.01 89.2551 134.599 98.73 129.047 106.948C122.578 116.53 113.47 124.031 102.824 128.542C95.485 131.648 87.5944 133.241 79.6249 133.226ZM79.6249 17.7207C68.568 17.7207 57.7593 20.9995 48.5658 27.1424C39.3723 33.2853 32.2069 42.0165 27.9756 52.2318C23.7443 62.4471 22.6372 73.6877 24.7944 84.5322C26.9515 95.3767 32.276 105.338 40.0945 113.156C47.9129 120.975 57.8743 126.299 68.7188 128.456C79.5633 130.613 90.8039 129.506 101.019 125.275C111.234 121.043 119.965 113.878 126.108 104.684C132.251 95.4905 135.53 84.6819 135.53 73.6249C135.513 58.8032 129.618 44.5934 119.137 34.113C108.656 23.6325 94.4466 17.7373 79.6249 17.7207Z" fill="url(#paint0_linear_290_1216)"/>
<g filter="url(#filter0_d_290_1216)">
<path d="M79.6412 17.6523C90.7877 17.6523 101.684 20.9577 110.952 27.1504C120.22 33.3431 127.444 42.145 131.709 52.4431C135.975 62.7411 137.091 74.0728 134.916 85.0052C132.742 95.9376 127.374 105.98 119.492 113.861C111.61 121.743 101.568 127.111 90.6361 129.285C79.7037 131.46 68.372 130.344 58.0739 126.078C47.7758 121.813 38.9739 114.589 32.7812 105.321C26.5885 96.0531 23.2832 85.1569 23.2832 74.0103C23.2832 59.0633 29.2209 44.7284 39.7901 34.1592C50.3592 23.59 64.6941 17.6523 79.6412 17.6523V17.6523Z" fill="#646C7D"/>
</g>
<g filter="url(#filter1_d_290_1216)">
<path d="M120.223 131.498C131.037 131.498 139.802 122.604 139.802 111.632C139.802 100.659 131.037 91.7646 120.223 91.7646C109.41 91.7646 100.645 100.659 100.645 111.632C100.645 122.604 109.41 131.498 120.223 131.498Z" fill="white"/>
</g>
<path d="M128.371 109.859H122.348C122.254 109.859 122.164 109.822 122.097 109.756C122.031 109.689 121.994 109.599 121.994 109.505V103.482C121.994 103.012 121.807 102.562 121.475 102.23C121.143 101.898 120.692 101.711 120.222 101.711C119.753 101.711 119.302 101.898 118.97 102.23C118.638 102.562 118.451 103.012 118.451 103.482V109.505C118.451 109.599 118.414 109.689 118.347 109.756C118.281 109.822 118.191 109.859 118.097 109.859H112.074C111.604 109.859 111.154 110.046 110.822 110.378C110.489 110.71 110.303 111.161 110.303 111.631C110.303 112.1 110.489 112.551 110.822 112.883C111.154 113.215 111.604 113.402 112.074 113.402H118.097C118.191 113.402 118.281 113.439 118.347 113.506C118.414 113.572 118.451 113.662 118.451 113.756V119.779C118.451 120.249 118.638 120.699 118.97 121.031C119.302 121.364 119.753 121.55 120.222 121.55C120.692 121.55 121.143 121.364 121.475 121.031C121.807 120.699 121.994 120.249 121.994 119.779V113.756C121.994 113.662 122.031 113.572 122.097 113.506C122.164 113.439 122.254 113.402 122.348 113.402H128.371C128.84 113.402 129.291 113.215 129.623 112.883C129.955 112.551 130.142 112.1 130.142 111.631C130.142 111.161 129.955 110.71 129.623 110.378C129.291 110.046 128.84 109.859 128.371 109.859Z" fill="url(#paint1_linear_290_1216)"/>
<path d="M84.8195 78.9081L79.9178 74.0059L75.0156 78.9081" stroke="white" stroke-width="1.72755" stroke-linecap="round" stroke-linejoin="round"/>
<path d="M79.918 74.0059V85.0357" stroke="white" stroke-width="1.72755" stroke-linecap="round" stroke-linejoin="round"/>
<path d="M90.1997 81.8365C91.3951 81.1849 92.3394 80.1538 92.8836 78.9059C93.4278 77.658 93.541 76.2644 93.2052 74.945C92.8694 73.6257 92.1038 72.4557 91.0293 71.6198C89.9547 70.7839 88.6323 70.3296 87.2709 70.3287H85.7259C85.3553 68.8938 84.6641 67.5615 83.7044 66.4321C82.7448 65.3027 81.5415 64.4056 80.1851 63.8082C78.8288 63.2108 77.3547 62.9288 75.8736 62.9832C74.3925 63.0376 72.943 63.4271 71.6342 64.1224C70.3253 64.8177 69.1912 65.8007 68.3169 66.9975C67.4427 68.1942 66.8512 69.5736 66.5869 71.0319C66.3225 72.4903 66.3923 73.9895 66.7909 75.417C67.1894 76.8445 67.9065 78.163 68.888 79.2734" stroke="white" stroke-width="1.72755" stroke-linecap="round" stroke-linejoin="round"/>
<path d="M84.8195 78.9081L79.9178 74.0059L75.0156 78.9081" stroke="white" stroke-width="1.72755" stroke-linecap="round" stroke-linejoin="round"/>
<defs>
<filter id="filter0_d_290_1216" x="0.249157" y="0.376809" width="158.785" height="158.784" filterUnits="userSpaceOnUse" color-interpolation-filters="sRGB">
<feFlood flood-opacity="0" result="BackgroundImageFix"/>
<feColorMatrix in="SourceAlpha" type="matrix" values="0 0 0 0 0 0 0 0 0 0 0 0 0 0 0 0 0 0 127 0" result="hardAlpha"/>
<feOffset dy="5.75851"/>
<feGaussianBlur stdDeviation="11.517"/>
<feColorMatrix type="matrix" values="0 0 0 0 0 0 0 0 0 0.145098 0 0 0 0 0.486275 0 0 0 0.039 0"/>
<feBlend mode="normal" in2="BackgroundImageFix" result="effect1_dropShadow_290_1216"/>
<feBlend mode="normal" in="SourceGraphic" in2="effect1_dropShadow_290_1216" result="shape"/>
</filter>
<filter id="filter1_d_290_1216" x="87.9758" y="79.0959" width="67.9508" height="68.526" filterUnits="userSpaceOnUse" color-interpolation-filters="sRGB">
<feFlood flood-opacity="0" result="BackgroundImageFix"/>
<feColorMatrix in="SourceAlpha" type="matrix" values="0 0 0 0 0 0 0 0 0 0 0 0 0 0 0 0 0 0 127 0" result="hardAlpha"/>
<feOffset dx="1.72755" dy="1.72755"/>
<feGaussianBlur stdDeviation="7.19814"/>
<feColorMatrix type="matrix" values="0 0 0 0 0 0 0 0 0 0 0 0 0 0 0 0 0 0 0.078 0"/>
<feBlend mode="normal" in2="BackgroundImageFix" result="effect1_dropShadow_290_1216"/>
<feBlend mode="normal" in="SourceGraphic" in2="effect1_dropShadow_290_1216" result="shape"/>
</filter>
<linearGradient id="paint0_linear_290_1216" x1="79.6246" y1="14" x2="79.6246" y2="133.226" gradientUnits="userSpaceOnUse">
<stop stop-color="#88EDFE"/>
<stop offset="0.338" stop-color="#625EFE"/>
<stop offset="0.36" stop-color="#655CFE"/>
<stop offset="1" stop-color="#C224FE"/>
</linearGradient>
<linearGradient id="paint1_linear_290_1216" x1="126.194" y1="104.191" x2="112.386" y2="117.503" gradientUnits="userSpaceOnUse">
<stop stop-color="#88EDFE"/>
<stop offset="0.489" stop-color="#625EFE"/>
<stop offset="1" stop-color="#C224FE"/>
</linearGradient>
</defs>
</svg>
