<svg width="6" height="6" viewBox="0 0 6 6" fill="none" xmlns="http://www.w3.org/2000/svg">
<path opacity="0.7" d="M5.05217 4.0544L3.71375 2.71598C3.6929 2.69513 3.68119 2.66686 3.68119 2.63739C3.68119 2.60791 3.6929 2.57964 3.71375 2.5588L5.05258 1.21997C5.10429 1.16826 5.14531 1.10687 5.17329 1.03931C5.20127 0.971751 5.21568 0.899341 5.21568 0.826215C5.21568 0.753088 5.20127 0.680678 5.17329 0.613118C5.14531 0.545558 5.10429 0.484172 5.05258 0.432464C5.00087 0.380755 4.93949 0.339738 4.87193 0.311754C4.80437 0.28377 4.73196 0.269367 4.65883 0.269367C4.5857 0.269367 4.51329 0.28377 4.44573 0.311754C4.37817 0.339738 4.31679 0.380755 4.26508 0.432464L2.92665 1.77089C2.90581 1.79173 2.87754 1.80344 2.84806 1.80344C2.81859 1.80344 2.79032 1.79173 2.76948 1.77089L1.43064 0.432056C1.32621 0.327627 1.18458 0.26896 1.03689 0.268959C0.889205 0.268959 0.747568 0.327627 0.643139 0.432056C0.53871 0.536486 0.480042 0.678122 0.480042 0.825808C0.480042 0.973493 0.53871 1.11513 0.643139 1.21956L1.98157 2.55799C2.00241 2.57883 2.01412 2.6071 2.01412 2.63657C2.01412 2.66605 2.00241 2.69432 1.98157 2.71516L0.642732 4.054C0.538302 4.15843 0.479635 4.30006 0.479635 4.44775C0.479635 4.59543 0.538302 4.73707 0.642732 4.8415C0.747161 4.94593 0.888797 5.0046 1.03648 5.0046C1.18417 5.0046 1.3258 4.94593 1.43023 4.8415L2.76866 3.50307C2.7895 3.48223 2.81777 3.47052 2.84725 3.47052C2.87673 3.47052 2.90499 3.48223 2.92584 3.50307L4.26467 4.84191C4.31638 4.89361 4.37777 4.93463 4.44533 4.96261C4.51289 4.9906 4.5853 5.005 4.65842 5.005C4.73155 5.005 4.80396 4.9906 4.87152 4.96261C4.93908 4.93463 5.00047 4.89361 5.05217 4.84191C5.10388 4.7902 5.1449 4.72881 5.17288 4.66125C5.20087 4.59369 5.21527 4.52128 5.21527 4.44815C5.21527 4.37503 5.20087 4.30262 5.17288 4.23506C5.1449 4.1675 5.10388 4.10611 5.05217 4.0544Z" fill="#888D8B"/>
</svg>
