<svg width="25" height="31" viewBox="0 0 25 31" fill="none" xmlns="http://www.w3.org/2000/svg">
<path d="M22.8381 18.086C22.8381 20.132 22.2314 22.1321 21.0947 23.8334C19.9579 25.5346 18.3423 26.8605 16.452 27.6435C14.5617 28.4265 12.4816 28.6314 10.4749 28.2322C8.46816 27.8331 6.62486 26.8478 5.17809 25.401C3.73131 23.9542 2.74605 22.1109 2.34688 20.1042C1.94772 18.0975 2.15258 16.0174 2.93557 14.1271C3.71856 12.2368 5.04451 10.6212 6.74573 9.48445C8.44696 8.34772 10.4471 7.741 12.4931 7.741H16.6311V12.913L22.8381 6.706L16.6311 0.5V5.675H12.4931C10.0377 5.675 7.63748 6.40314 5.59595 7.76734C3.55441 9.13155 1.96328 11.0705 1.02378 13.3391C0.0842814 15.6076 -0.161382 18.1038 0.317858 20.512C0.797098 22.9201 1.97971 25.1321 3.71614 26.8681C5.45257 28.6041 7.66482 29.7862 10.0731 30.2648C12.4814 30.7435 14.9775 30.4972 17.2458 29.5572C19.5141 28.6171 21.4527 27.0255 22.8164 24.9837C24.1801 22.9418 24.9077 20.5414 24.9071 18.086H22.8381Z" fill="white"/>
<path d="M15.287 22.287C14.9097 22.2961 14.5354 22.217 14.194 22.056C13.8909 21.9022 13.63 21.6767 13.434 21.399C13.2193 21.0749 13.0686 20.7127 12.99 20.332C12.8892 19.8604 12.8405 19.3792 12.845 18.897C12.8415 18.4148 12.8901 17.9337 12.99 17.462C13.0702 17.0818 13.2208 16.7199 13.434 16.395C13.63 16.1173 13.8909 15.8917 14.194 15.738C14.5354 15.577 14.9097 15.4979 15.287 15.507C15.6419 15.48 15.9977 15.5443 16.3207 15.6938C16.6437 15.8432 16.923 16.073 17.132 16.361C17.5727 17.1175 17.7813 17.9869 17.732 18.861C17.7813 19.7351 17.5727 20.6045 17.132 21.361C16.9314 21.6623 16.6557 21.9061 16.3322 22.0685C16.0087 22.2309 15.6485 22.3062 15.287 22.287ZM15.287 21.245C15.4592 21.2552 15.6308 21.2165 15.7819 21.1333C15.933 21.0502 16.0575 20.9259 16.141 20.775C16.3452 20.3754 16.4534 19.9337 16.457 19.485V18.307C16.4757 17.8666 16.3911 17.4279 16.21 17.026C16.1144 16.8799 15.984 16.7599 15.8304 16.6769C15.6769 16.5939 15.5051 16.5504 15.3305 16.5504C15.1559 16.5504 14.9841 16.5939 14.8306 16.6769C14.677 16.7599 14.5466 16.8799 14.451 17.026C14.2699 17.4279 14.1853 17.8666 14.204 18.307V19.485C14.1861 19.9283 14.2707 20.3697 14.451 20.775C14.5325 20.9239 14.6542 21.0469 14.8021 21.13C14.9501 21.2131 15.1185 21.2529 15.288 21.245H15.287Z" fill="white"/>
<path d="M7.601 22.177V21.169H9.309V16.736L7.72 17.59L7.25 16.684L9.231 15.573H10.478V21.121H11.998V22.172L7.601 22.177Z" fill="white"/>
</svg>
