<svg width="25" height="31" viewBox="0 0 25 31" fill="none" xmlns="http://www.w3.org/2000/svg">
<path d="M2.069 18.086C2.069 20.132 2.67572 22.1321 3.81245 23.8334C4.94917 25.5346 6.56484 26.8605 8.45514 27.6435C10.3454 28.4265 12.4255 28.6314 14.4322 28.2322C16.4389 27.8331 18.2822 26.8478 19.729 25.401C21.1758 23.9542 22.1611 22.1109 22.5602 20.1042C22.9594 18.0975 22.7545 16.0174 21.9715 14.1271C21.1885 12.2368 19.8626 10.6212 18.1614 9.48445C16.4601 8.34772 14.46 7.741 12.414 7.741H8.276V12.913L2.069 6.707L8.276 0.5V5.675H12.414C14.8694 5.675 17.2696 6.40314 19.3112 7.76734C21.3527 9.13155 22.9438 11.0705 23.8833 13.3391C24.8228 15.6076 25.0685 18.1038 24.5892 20.512C24.11 22.9201 22.9274 25.1321 21.191 26.8681C19.4545 28.6041 17.2423 29.7862 14.834 30.2648C12.4257 30.7435 9.9296 30.4972 7.66129 29.5572C5.39298 28.6171 3.45439 27.0255 2.09068 24.9837C0.726971 22.9418 -0.000593012 20.5414 3.62662e-07 18.086H2.069Z" fill="white"/>
<path d="M15.579 21.642C15.2017 21.6511 14.8274 21.572 14.486 21.411C14.1829 21.2572 13.922 21.0317 13.726 20.754C13.5113 20.4299 13.3606 20.0677 13.282 19.687C13.1811 19.2154 13.1325 18.7342 13.137 18.252C13.1335 17.7698 13.1821 17.2887 13.282 16.817C13.3622 16.4367 13.5128 16.0749 13.726 15.75C13.922 15.4723 14.1829 15.2467 14.486 15.093C14.8274 14.932 15.2017 14.8529 15.579 14.862C15.9339 14.8349 16.2897 14.8992 16.6127 15.0487C16.9357 15.1982 17.215 15.4279 17.424 15.716C17.8647 16.4725 18.0733 17.3419 18.024 18.216C18.0733 19.0901 17.8647 19.9595 17.424 20.716C17.2234 21.0173 16.9477 21.2611 16.6242 21.4235C16.3007 21.5858 15.9405 21.6612 15.579 21.642ZM15.579 20.6C15.7512 20.6102 15.9228 20.5715 16.0739 20.4883C16.225 20.4052 16.3495 20.2809 16.433 20.13C16.6372 19.7304 16.7454 19.2887 16.749 18.84V17.662C16.7677 17.2216 16.6831 16.7829 16.502 16.381C16.4064 16.2349 16.276 16.1149 16.1224 16.0319C15.9689 15.9489 15.7971 15.9054 15.6225 15.9054C15.4479 15.9054 15.2761 15.9489 15.1226 16.0319C14.969 16.1149 14.8386 16.2349 14.743 16.381C14.5619 16.7829 14.4773 17.2216 14.496 17.662V18.84C14.4781 19.2832 14.5626 19.7247 14.743 20.13C14.8245 20.2789 14.9462 20.4018 15.0941 20.4849C15.2421 20.568 15.4105 20.6079 15.58 20.6H15.579Z" fill="white"/>
<path d="M7.89299 21.532V20.524H9.60099V16.091L8.01199 16.945L7.54199 16.039L9.52299 14.928H10.77V20.476H12.29V21.527L7.89299 21.532Z" fill="white"/>
</svg>
