<svg width="48" height="48" viewBox="0 0 48 48" fill="none" xmlns="http://www.w3.org/2000/svg">
<circle cx="24" cy="24" r="24" fill="white"/>
<path d="M24.5 24.5C25.1213 24.5 25.625 23.9963 25.625 23.375C25.625 22.7537 25.1213 22.25 24.5 22.25C23.8787 22.25 23.375 22.7537 23.375 23.375C23.375 23.9963 23.8787 24.5 24.5 24.5Z" fill="#D9D9D9" fill-opacity="0.1" stroke="#303548" stroke-width="2" stroke-linecap="round" stroke-linejoin="round"/>
<path d="M24.5 16.625C25.1213 16.625 25.625 16.1213 25.625 15.5C25.625 14.8787 25.1213 14.375 24.5 14.375C23.8787 14.375 23.375 14.8787 23.375 15.5C23.375 16.1213 23.8787 16.625 24.5 16.625Z" fill="#D9D9D9" fill-opacity="0.1" stroke="#303548" stroke-width="2" stroke-linecap="round" stroke-linejoin="round"/>
<path d="M24.5 32.375C25.1213 32.375 25.625 31.8713 25.625 31.25C25.625 30.6287 25.1213 30.125 24.5 30.125C23.8787 30.125 23.375 30.6287 23.375 31.25C23.375 31.8713 23.8787 32.375 24.5 32.375Z" fill="#D9D9D9" fill-opacity="0.1" stroke="#303548" stroke-width="2" stroke-linecap="round" stroke-linejoin="round"/>
</svg>
