<svg width="28" height="28" viewBox="0 0 28 28" fill="none" xmlns="http://www.w3.org/2000/svg">
<path d="M17.434 0H10.566C4.73058 0 0 4.73058 0 10.566V17.434C0 23.2694 4.73058 28 10.566 28H17.434C23.2694 28 28 23.2694 28 17.434V10.566C28 4.73058 23.2694 0 17.434 0Z" fill="white"/>
<path d="M17.9181 14.9316C17.7202 14.9319 17.5304 15.0107 17.3904 15.1506C17.2505 15.2906 17.1717 15.4804 17.1715 15.6783C17.1709 16.0082 17.0396 16.3245 16.8063 16.5577C16.573 16.791 16.2568 16.9223 15.9269 16.9229H11.9422C11.6123 16.9223 11.2961 16.791 11.0628 16.5577C10.8295 16.3245 10.6982 16.0082 10.6977 15.6783C10.6974 15.4805 10.6187 15.2908 10.4788 15.1508C10.339 15.0109 10.1494 14.9321 9.95153 14.9316H8.20898V18.168C8.20954 18.4979 8.34085 18.8142 8.57413 19.0475C8.80742 19.2807 9.12366 19.4121 9.45358 19.4126H18.416C18.746 19.4121 19.0622 19.2807 19.2955 19.0475C19.5288 18.8142 19.6601 18.4979 19.6606 18.168V14.9316H17.9181Z" fill="url(#paint0_linear_288_12762)"/>
<path d="M15.1058 13.5103C15.059 13.4637 14.9958 13.4376 14.9299 13.4376C14.8639 13.4376 14.8007 13.4637 14.754 13.5103L14.1835 14.0808V8.70698C14.1835 8.64095 14.1573 8.57762 14.1106 8.53093C14.0639 8.48424 14.0005 8.45801 13.9345 8.45801C13.8685 8.45801 13.8052 8.48424 13.7585 8.53093C13.7118 8.57762 13.6855 8.64095 13.6855 8.70698V14.6807C13.6856 14.73 13.7002 14.7781 13.7277 14.819C13.7551 14.8599 13.7941 14.8918 13.8396 14.9105C13.8698 14.9231 13.9021 14.9295 13.9348 14.9294C14.0006 14.9295 14.0638 14.9034 14.1104 14.8569L15.1063 13.861C15.1524 13.8143 15.1783 13.7512 15.1782 13.6855C15.1781 13.6199 15.152 13.5569 15.1058 13.5103Z" fill="url(#paint1_linear_288_12762)"/>
<path d="M19.3678 13.9206L17.5727 11.2279C17.414 10.9887 17.1985 10.7926 16.9456 10.6569C16.6927 10.5212 16.4101 10.4502 16.1231 10.4502H14.6818V12.982C14.8415 12.9257 15.0156 12.9254 15.1755 12.981C15.3355 13.0366 15.4718 13.145 15.5621 13.2882C15.6524 13.4314 15.6914 13.6011 15.6727 13.7694C15.6539 13.9377 15.5786 14.0946 15.459 14.2145L14.4631 15.2104C14.3357 15.339 14.1656 15.4164 13.985 15.428C13.8044 15.4396 13.6258 15.3847 13.483 15.2735C13.4677 15.2619 13.453 15.2498 13.4388 15.2372C13.4246 15.2246 13.4162 15.2209 13.4062 15.2109L12.4103 14.215C12.2887 14.0959 12.2117 13.9387 12.192 13.7697C12.1723 13.6007 12.2111 13.43 12.302 13.2861C12.393 13.1423 12.5304 13.0339 12.6915 12.9791C12.8527 12.9244 13.0277 12.9265 13.1875 12.9851V10.4502H12.0201C11.6492 10.4498 11.2839 10.5417 10.9573 10.7176C10.6307 10.8936 10.353 11.1481 10.1493 11.4582L8.54611 13.8916C8.42773 14.0555 8.33876 14.2388 8.2832 14.4332H9.9516C10.2815 14.4338 10.5978 14.5651 10.8311 14.7984C11.0643 15.0317 11.1956 15.3479 11.1962 15.6778C11.1965 15.8758 11.2752 16.0655 11.4152 16.2055C11.5552 16.3454 11.7449 16.4242 11.9429 16.4245H15.9259C16.1238 16.4242 16.3136 16.3454 16.4535 16.2055C16.5935 16.0655 16.6723 15.8758 16.6725 15.6778C16.6731 15.3479 16.8044 15.0317 17.0377 14.7984C17.271 14.5651 17.5872 14.4338 17.9171 14.4332H19.5971C19.5491 14.251 19.4717 14.0778 19.3678 13.9206Z" fill="url(#paint2_linear_288_12762)"/>
<path d="M14.1121 14.5062L13.1162 13.5103C13.0931 13.4872 13.0656 13.4689 13.0354 13.4564C13.0052 13.4439 12.9728 13.4375 12.9401 13.4375C12.9075 13.4375 12.8751 13.444 12.8449 13.4565C12.8147 13.469 12.7873 13.4874 12.7642 13.5105C12.7411 13.5337 12.7228 13.5611 12.7103 13.5913C12.6978 13.6215 12.6914 13.6539 12.6914 13.6866C12.6914 13.7193 12.6979 13.7517 12.7104 13.7819C12.723 13.812 12.7413 13.8395 12.7644 13.8626L13.7603 14.8585C13.807 14.9051 13.8702 14.9313 13.9362 14.9313C14.0022 14.9313 14.0655 14.9051 14.1121 14.8585C14.1587 14.8118 14.185 14.7485 14.185 14.6826C14.185 14.6166 14.1587 14.5533 14.1121 14.5067V14.5062Z" fill="url(#paint3_linear_288_12762)"/>
<defs>
<linearGradient id="paint0_linear_288_12762" x1="5.59801" y1="14.255" x2="10.9834" y2="26.5809" gradientUnits="userSpaceOnUse">
<stop stop-color="#D51AFF"/>
<stop offset="0.502" stop-color="#4E6AFE"/>
<stop offset="1" stop-color="#8BF3FE"/>
</linearGradient>
<linearGradient id="paint1_linear_288_12762" x1="13.3452" y1="7.48082" x2="17.545" y2="8.34832" gradientUnits="userSpaceOnUse">
<stop stop-color="#D51AFF"/>
<stop offset="0.502" stop-color="#4E6AFE"/>
<stop offset="1" stop-color="#8BF3FE"/>
</linearGradient>
<linearGradient id="paint2_linear_288_12762" x1="5.70363" y1="9.54808" x2="14.2661" y2="24.0702" gradientUnits="userSpaceOnUse">
<stop stop-color="#D51AFF"/>
<stop offset="0.502" stop-color="#4E6AFE"/>
<stop offset="1" stop-color="#8BF3FE"/>
</linearGradient>
<linearGradient id="paint3_linear_288_12762" x1="12.3509" y1="13.2119" x2="14.7828" y2="15.3895" gradientUnits="userSpaceOnUse">
<stop stop-color="#D51AFF"/>
<stop offset="0.502" stop-color="#4E6AFE"/>
<stop offset="1" stop-color="#8BF3FE"/>
</linearGradient>
</defs>
</svg>
