<svg width="24" height="24" viewBox="0 0 24 24" fill="none" xmlns="http://www.w3.org/2000/svg">
<path d="M14.9434 0H9.0566C4.05478 0 0 4.05478 0 9.0566V14.9434C0 19.9452 4.05478 24 9.0566 24H14.9434C19.9452 24 24 19.9452 24 14.9434V9.0566C24 4.05478 19.9452 0 14.9434 0Z" fill="#F4FAFF"/>
<g clip-path="url(#clip0_3276_40937)">
<path d="M16.3634 13.8071C15.6913 13.135 14.8912 12.6374 14.0183 12.3361C14.9532 11.6922 15.5674 10.6146 15.5674 9.39598C15.5674 7.42867 13.9669 5.82812 11.9996 5.82812C10.0322 5.82812 8.4317 7.42867 8.4317 9.39598C8.4317 10.6146 9.04592 11.6922 9.98087 12.3361C9.10795 12.6374 8.30788 13.135 7.6357 13.8071C6.47007 14.9728 5.82812 16.5225 5.82812 18.171H6.79241C6.79241 15.2998 9.12832 12.9638 11.9996 12.9638C14.8708 12.9638 17.2067 15.2998 17.2067 18.171H18.171C18.171 16.5225 17.529 14.9728 16.3634 13.8071ZM11.9996 11.9996C10.564 11.9996 9.39598 10.8316 9.39598 9.39598C9.39598 7.96035 10.564 6.79241 11.9996 6.79241C13.4352 6.79241 14.6031 7.96035 14.6031 9.39598C14.6031 10.8316 13.4352 11.9996 11.9996 11.9996Z" fill="url(#paint0_linear_3276_40937)"/>
</g>
<defs>
<linearGradient id="paint0_linear_3276_40937" x1="3.01395" y1="3.96435" x2="23.1081" y2="21.9602" gradientUnits="userSpaceOnUse">
<stop stop-color="#D51AFF"/>
<stop offset="0.502" stop-color="#4E6AFE"/>
<stop offset="1" stop-color="#8BF3FE"/>
</linearGradient>
<clipPath id="clip0_3276_40937">
<rect width="12.3429" height="12.3429" fill="white" transform="translate(5.82812 5.82812)"/>
</clipPath>
</defs>
</svg>
