<svg width="23" height="24" viewBox="0 0 23 24" fill="none" xmlns="http://www.w3.org/2000/svg">
<path d="M20.8242 10.2266H13.9182C13.8106 10.2264 13.7074 10.1836 13.6313 10.1075C13.5552 10.0314 13.5124 9.9282 13.5122 9.82056V2.91406C13.5122 2.37534 13.2982 1.85869 12.9173 1.47775C12.5363 1.09682 12.0197 0.882813 11.481 0.882812C10.9422 0.882813 10.4256 1.09682 10.0447 1.47775C9.66372 1.85869 9.44972 2.37534 9.44972 2.91406V9.82056C9.44959 9.9282 9.40677 10.0314 9.33066 10.1075C9.25455 10.1836 9.15136 10.2264 9.04372 10.2266H2.13672C1.598 10.2266 1.08134 10.4406 0.700408 10.8215C0.319475 11.2024 0.105469 11.7191 0.105469 12.2578C0.105469 12.7965 0.319475 13.3132 0.700408 13.6941C1.08134 14.0751 1.598 14.2891 2.13672 14.2891H9.04322C9.15086 14.2892 9.25405 14.332 9.33016 14.4081C9.40627 14.4842 9.44909 14.5874 9.44922 14.6951V21.6016C9.44922 22.1403 9.66323 22.6569 10.0442 23.0379C10.4251 23.4188 10.9417 23.6328 11.4805 23.6328C12.0192 23.6328 12.5358 23.4188 12.9168 23.0379C13.2977 22.6569 13.5117 22.1403 13.5117 21.6016V14.6956C13.5119 14.5879 13.5547 14.4847 13.6308 14.4086C13.7069 14.3325 13.8101 14.2897 13.9177 14.2896H20.8242C21.3629 14.2896 21.8796 14.0756 22.2605 13.6946C22.6415 13.3137 22.8555 12.797 22.8555 12.2583C22.8555 11.7196 22.6415 11.2029 22.2605 10.822C21.8796 10.4411 21.3629 10.2271 20.8242 10.2271V10.2266Z" fill="white"/>
</svg>
