<svg width="64" height="102" viewBox="0 0 64 102" fill="none" xmlns="http://www.w3.org/2000/svg">
<path opacity="0.2" d="M46.2239 44.5625L45.3683 45.0802L46.2239 44.5625ZM1.58441 1.89885C1.04315 2.00863 0.69336 2.53641 0.803138 3.07767L2.5921 11.8981C2.70189 12.4393 3.22966 12.7891 3.77092 12.6794C4.31219 12.5696 4.66197 12.0418 4.5522 11.5005L2.962 3.66017L10.8024 2.06998C11.3436 1.9602 11.6934 1.43242 11.5836 0.891156C11.4739 0.349896 10.9461 0.000103741 10.4048 0.109889L1.58441 1.89885ZM62.5117 101.438C63.5051 101.322 63.5051 101.322 63.505 101.322C63.505 101.321 63.5049 101.321 63.5048 101.32C63.5047 101.319 63.5045 101.317 63.5042 101.315C63.5036 101.31 63.5028 101.303 63.5017 101.294C63.4995 101.275 63.4963 101.248 63.4919 101.211C63.4833 101.139 63.4703 101.033 63.453 100.893C63.4183 100.614 63.3659 100.203 63.2951 99.6743C63.1535 98.6162 62.9381 97.0845 62.642 95.1852C62.0501 91.3874 61.1353 86.1163 59.8439 80.2219C57.2679 68.4642 53.1687 54.1084 47.0795 44.0448L45.3683 45.0802C51.2771 54.8457 55.3219 68.9274 57.8902 80.6499C59.171 86.4956 60.0786 91.7253 60.6659 95.4933C60.9595 97.3769 61.1729 98.8943 61.3128 99.9396C61.3827 100.462 61.4343 100.867 61.4683 101.14C61.4853 101.277 61.4979 101.38 61.5062 101.45C61.5103 101.484 61.5134 101.51 61.5154 101.528C61.5165 101.536 61.5172 101.543 61.5177 101.547C61.5179 101.549 61.5181 101.55 61.5182 101.551C61.5183 101.552 61.5183 101.552 61.5183 101.552C61.5184 101.553 61.5184 101.553 62.5117 101.438ZM47.0795 44.0448C40.8092 33.682 29.5858 23.1718 20.0058 15.2916C15.2031 11.3409 10.789 8.03181 7.5753 5.71005C5.96815 4.54896 4.66045 3.63425 3.75352 3.00915C3.30004 2.69659 2.94671 2.4564 2.70619 2.29397C2.58592 2.21276 2.49386 2.15098 2.43157 2.10932C2.40043 2.08849 2.37673 2.07269 2.36067 2.062C2.35265 2.05665 2.34653 2.05258 2.34234 2.0498C2.34025 2.04842 2.33864 2.04735 2.33752 2.04661C2.33696 2.04623 2.33649 2.04592 2.33621 2.04573C2.33586 2.0455 2.33563 2.04535 1.78318 2.8789C1.23074 3.71245 1.23076 3.71246 1.23089 3.71255C1.2311 3.71269 1.23136 3.71286 1.23177 3.71313C1.23261 3.71369 1.23392 3.71456 1.23573 3.71576C1.23933 3.71815 1.24486 3.72183 1.2523 3.72678C1.26719 3.73669 1.2897 3.7517 1.31964 3.77173C1.37953 3.81179 1.46914 3.87191 1.5869 3.95144C1.82242 4.11049 2.1705 4.3471 2.6185 4.65589C3.51455 5.27349 4.8101 6.17966 6.40406 7.33123C9.59258 9.63479 13.9722 12.9181 18.7353 16.8361C28.287 24.6931 39.284 35.0247 45.3683 45.0802L47.0795 44.0448Z" fill="#353452"/>
</svg>
