<svg width="120" height="120" viewBox="0 0 120 120" fill="none" xmlns="http://www.w3.org/2000/svg">
<path d="M59.6249 119.226C47.7487 119.245 36.14 115.699 26.3016 109.047C16.7189 102.578 9.21778 93.4696 4.70714 82.8242C0.841671 73.6909 -0.680354 63.7364 0.279353 53.8653C1.23906 43.9941 4.65008 34.5193 10.2025 26.3016C16.671 16.7189 25.7797 9.21778 36.425 4.70714C45.5584 0.841671 55.5129 -0.680354 65.384 0.279353C75.2551 1.23906 84.73 4.65008 92.9477 10.2025C102.53 16.671 110.031 25.7797 114.542 36.425C118.408 45.5584 119.93 55.5129 118.97 65.384C118.01 75.2551 114.599 84.73 109.047 92.9477C102.578 102.53 93.4696 110.031 82.8242 114.542C75.485 117.648 67.5944 119.241 59.6249 119.226V119.226ZM59.6249 3.7207C48.568 3.7207 37.7593 6.99948 28.5658 13.1424C19.3723 19.2853 12.2069 28.0165 7.97557 38.2318C3.74429 48.4471 2.63722 59.6877 4.79436 70.5322C6.95151 81.3767 12.276 91.3379 20.0945 99.1563C27.9129 106.975 37.8743 112.299 48.7188 114.456C59.5633 116.613 70.8039 115.506 81.0191 111.275C91.2344 107.043 99.9655 99.8777 106.108 90.6841C112.251 81.4905 115.53 70.6819 115.53 59.6249C115.513 44.8032 109.618 30.5934 99.137 20.113C88.6565 9.63252 74.4466 3.73732 59.6249 3.7207V3.7207Z" fill="url(#paint0_linear_2765_11035)"/>
<path d="M59.358 4C70.5045 4 81.4008 7.30534 90.6688 13.498C99.9368 19.6907 107.16 28.4926 111.426 38.7907C115.692 49.0888 116.808 60.4205 114.633 71.3529C112.458 82.2853 107.091 92.3273 99.2091 100.209C91.3273 108.091 81.2853 113.458 70.3529 115.633C59.4205 117.808 48.0888 116.692 37.7907 112.426C27.4926 108.16 18.6907 100.937 12.498 91.6688C6.30534 82.4008 3 71.5045 3 60.358C3 45.4109 8.9377 31.076 19.5069 20.5069C30.076 9.9377 44.4109 4 59.358 4Z" fill="#646C7D"/>
<path d="M100.223 117.498C111.037 117.498 119.802 108.604 119.802 97.6315C119.802 86.6593 111.037 77.7646 100.223 77.7646C89.4103 77.7646 80.6445 86.6593 80.6445 97.6315C80.6445 108.604 89.4103 117.498 100.223 117.498Z" fill="white"/>
<path d="M108.369 95.8592H102.346C102.252 95.8592 102.162 95.8219 102.095 95.7555C102.029 95.6891 101.992 95.599 101.992 95.5051V89.4823C101.992 89.0125 101.805 88.5619 101.473 88.2297C101.141 87.8976 100.69 87.7109 100.22 87.7109C99.7506 87.7109 99.3001 87.8976 98.9679 88.2297C98.6357 88.5619 98.4491 89.0125 98.4491 89.4823V95.5051C98.4491 95.599 98.4118 95.6891 98.3453 95.7555C98.2789 95.8219 98.1889 95.8592 98.0949 95.8592H92.0721C91.6023 95.8592 91.1518 96.0459 90.8196 96.378C90.4874 96.7102 90.3008 97.1608 90.3008 97.6305C90.3008 98.1003 90.4874 98.5509 90.8196 98.8831C91.1518 99.2152 91.6023 99.4019 92.0721 99.4019H98.0949C98.1889 99.4019 98.2789 99.4392 98.3453 99.5056C98.4118 99.572 98.4491 99.6621 98.4491 99.756V105.779C98.4491 106.249 98.6357 106.699 98.9679 107.031C99.3001 107.364 99.7506 107.55 100.22 107.55C100.69 107.55 101.141 107.364 101.473 107.031C101.805 106.699 101.992 106.249 101.992 105.779V99.756C101.992 99.6621 102.029 99.572 102.095 99.5056C102.162 99.4392 102.252 99.4019 102.346 99.4019H108.369C108.838 99.4019 109.289 99.2152 109.621 98.8831C109.953 98.5509 110.14 98.1003 110.14 97.6305C110.14 97.1608 109.953 96.7102 109.621 96.378C109.289 96.0459 108.838 95.8592 108.369 95.8592V95.8592Z" fill="url(#paint1_linear_2765_11035)"/>
<path d="M65.39 64.9081L60.4884 60.0059L55.5862 64.9081" stroke="white" stroke-width="1.72755" stroke-linecap="round" stroke-linejoin="round"/>
<path d="M60.4883 60.0059V71.0357" stroke="white" stroke-width="1.72755" stroke-linecap="round" stroke-linejoin="round"/>
<path d="M70.77 67.86C71.9654 67.2084 72.9097 66.1772 73.4539 64.9293C73.9981 63.6814 74.1113 62.2878 73.7755 60.9685C73.4397 59.6491 72.6741 58.4792 71.5996 57.6432C70.525 56.8073 69.2027 56.3531 67.8412 56.3522H66.2962C65.9256 54.9172 65.2345 53.5849 64.2748 52.4555C63.3151 51.3261 62.1118 50.429 60.7555 49.8316C59.3991 49.2343 57.925 48.9522 56.4439 49.0066C54.9628 49.061 53.5134 49.4505 52.2045 50.1458C50.8956 50.8411 49.7615 51.8241 48.8872 53.0209C48.013 54.2177 47.4215 55.5971 47.1572 57.0554C46.8929 58.5137 46.9626 60.013 47.3612 61.4404C47.7598 62.8679 48.4768 64.1864 49.4583 65.2969" stroke="white" stroke-width="1.72755" stroke-linecap="round" stroke-linejoin="round"/>
<path d="M65.3898 64.9315L60.4882 60.0293L55.5859 64.9315" stroke="white" stroke-width="1.72755" stroke-linecap="round" stroke-linejoin="round"/>
<defs>
<linearGradient id="paint0_linear_2765_11035" x1="59.6246" y1="0" x2="59.6246" y2="119.226" gradientUnits="userSpaceOnUse">
<stop stop-color="#88EDFE"/>
<stop offset="0.338" stop-color="#625EFE"/>
<stop offset="0.36" stop-color="#655CFE"/>
<stop offset="1" stop-color="#C224FE"/>
</linearGradient>
<linearGradient id="paint1_linear_2765_11035" x1="106.192" y1="90.1908" x2="92.3839" y2="103.503" gradientUnits="userSpaceOnUse">
<stop stop-color="#88EDFE"/>
<stop offset="0.489" stop-color="#625EFE"/>
<stop offset="1" stop-color="#C224FE"/>
</linearGradient>
</defs>
</svg>
