<svg width="12" height="10" viewBox="0 0 12 10" fill="none" xmlns="http://www.w3.org/2000/svg">
<path fill-rule="evenodd" clip-rule="evenodd" d="M3.826 0.378008H8.29293C8.36732 0.376754 8.44119 0.390612 8.51007 0.418743C8.57895 0.446873 8.64141 0.488691 8.69365 0.541665C8.7459 0.594638 8.78685 0.657664 8.81402 0.726926C8.8412 0.796188 8.85404 0.870245 8.85176 0.944613H3.26718C3.26489 0.870245 3.27773 0.796188 3.30491 0.726926C3.33208 0.657664 3.37303 0.594638 3.42528 0.541665C3.47752 0.488691 3.53998 0.446873 3.60886 0.418743C3.67774 0.390612 3.75161 0.376754 3.826 0.378008ZM9.93146 1.86067C9.95856 1.92991 9.97133 2.00392 9.969 2.07823L9.97064 2.64484H2.15116V2.07823C2.14883 2.00406 2.16155 1.93018 2.18856 1.86106C2.21556 1.79194 2.25629 1.729 2.30828 1.67605C2.36028 1.6231 2.42246 1.58124 2.49108 1.55298C2.5597 1.52472 2.63333 1.51065 2.70753 1.51163H9.41099C9.48533 1.51043 9.55914 1.52433 9.62795 1.55249C9.69676 1.58065 9.75914 1.62248 9.81131 1.67546C9.86348 1.72843 9.90435 1.79144 9.93146 1.86067ZM10.7559 2.30913L11.0854 2.64484H11.0871C11.1328 2.69128 11.1768 2.73305 11.2182 2.77243C11.4764 3.01768 11.6367 3.16995 11.5231 3.77846C11.4477 4.18232 11.2056 5.62104 10.9943 6.87684C10.8361 7.81695 10.6952 8.65455 10.6543 8.87872C10.6252 9.03833 10.5408 9.18259 10.4159 9.28619C10.2911 9.3898 10.1337 9.44613 9.97145 9.44532H2.15198C1.98971 9.44622 1.83231 9.38991 1.70743 9.28629C1.58255 9.18267 1.49817 9.03837 1.46911 8.87872C1.42927 8.66006 1.29449 7.8582 1.14128 6.94674C0.927604 5.67555 0.678096 4.19119 0.600366 3.77846C0.485563 3.16887 0.644904 3.01761 0.901984 2.77356C0.943768 2.73389 0.988135 2.69177 1.03433 2.64484L1.36471 2.30913V3.2098H10.7559V2.30913ZM4.30859 6.50932L6.05876 8.2816L7.81221 6.51382V6.22725H6.76088V4.75342H5.35951V6.22725H4.30859V6.50932ZM6.05876 7.94794L4.59271 6.46142H5.59287V4.98759H6.52752V6.46142H7.53014L6.05876 7.94794Z" fill="#303548"/>
</svg>
