<svg width="12" height="11" viewBox="0 0 12 11" fill="none" xmlns="http://www.w3.org/2000/svg">
<path d="M4.86902 9.63411C4.81102 9.57711 4.56302 9.36411 4.35902 9.16511C2.70996 7.46449 1.35063 5.50521 0.335017 3.36511C0.171875 2.99033 0.059224 2.59555 1.73575e-05 2.19111C-0.00130994 1.87788 0.0735034 1.56902 0.218017 1.29111C0.424903 0.936515 0.742505 0.659667 1.12202 0.50311C1.47162 0.397431 1.82684 0.311298 2.18602 0.24511C3.44625 0.0635256 4.71894 -0.0173969 5.99202 0.00311047C7.22505 -0.00800669 8.45746 0.0631513 9.68102 0.21611C10.1318 0.293863 10.5756 0.4079 11.008 0.55711C11.3027 0.703209 11.5513 0.927888 11.7263 1.20635C11.9014 1.48481 11.9961 1.80622 12 2.13511V2.19211C11.9271 2.64963 11.7894 3.09443 11.591 3.51311C10.5807 5.6021 9.24165 7.51542 7.62502 9.18011C7.45098 9.3526 7.26592 9.51361 7.07102 9.66211C6.76204 9.88684 6.38906 10.0064 6.00702 10.0031C5.59757 10.0077 5.19788 9.87807 4.86902 9.63411Z" fill="#303548"/>
</svg>
