<svg width="670" height="349" viewBox="0 0 670 349" fill="none" xmlns="http://www.w3.org/2000/svg">
<rect width="670" height="349" rx="15" fill="url(#paint0_linear_3351_4840)"/>
<path d="M339.915 186.078V190.998H348.746C349.323 190.991 349.895 191.103 350.429 191.327C350.962 191.55 351.446 191.881 351.852 192.299C352.275 192.704 352.61 193.195 352.836 193.74C353.061 194.284 353.173 194.871 353.163 195.463C353.172 196.056 353.063 196.645 352.844 197.195C352.625 197.744 352.299 198.244 351.887 198.663C351.484 199.096 350.996 199.438 350.455 199.669C349.914 199.899 349.332 200.011 348.746 199.999H322.257C321.671 200.011 321.089 199.898 320.548 199.668C320.007 199.438 319.52 199.096 319.116 198.663C318.703 198.244 318.378 197.745 318.158 197.195C317.939 196.645 317.831 196.056 317.84 195.463C317.836 194.872 317.948 194.287 318.17 193.742C318.391 193.196 318.717 192.701 319.128 192.285C319.539 191.869 320.028 191.541 320.565 191.32C321.102 191.099 321.677 190.99 322.257 190.998H331.085V186.078C324.923 185.08 319.323 181.847 315.318 176.972C311.167 172.143 308.917 165.919 309.002 159.5C308.996 158.912 309.106 158.329 309.325 157.786C309.545 157.242 309.869 156.749 310.279 156.336C310.682 155.901 311.169 155.558 311.71 155.326C312.251 155.095 312.833 154.981 313.419 154.993C314.005 154.981 314.587 155.093 315.128 155.323C315.669 155.553 316.157 155.896 316.56 156.329C316.97 156.743 317.294 157.236 317.514 157.779C317.733 158.323 317.843 158.906 317.836 159.493C317.798 161.864 318.238 164.217 319.128 166.407C320.018 168.597 321.339 170.578 323.01 172.228C324.627 173.928 326.569 175.272 328.716 176.179C330.863 177.085 333.169 177.535 335.492 177.499C337.818 177.538 340.127 177.09 342.276 176.183C344.425 175.277 346.369 173.93 347.987 172.228C349.657 170.58 350.978 168.6 351.868 166.412C352.758 164.223 353.199 161.872 353.163 159.503C353.174 158.306 353.648 157.161 354.481 156.317C355.314 155.473 356.441 154.997 357.616 154.993C358.196 154.983 358.772 155.097 359.307 155.327C359.842 155.557 360.323 155.899 360.721 156.329C361.131 156.743 361.455 157.236 361.675 157.779C361.894 158.323 362.004 158.906 361.998 159.493C362.084 165.912 359.835 172.136 355.685 176.966C351.68 181.843 346.079 185.08 339.915 186.078ZM335.492 172.999C333.751 173.005 332.026 172.66 330.416 171.984C328.806 171.308 327.343 170.314 326.112 169.059C324.881 167.804 323.906 166.313 323.244 164.673C322.581 163.032 322.243 161.274 322.25 159.5V141.501C322.219 139.723 322.546 137.957 323.21 136.312C323.875 134.668 324.864 133.18 326.115 131.94C327.332 130.667 328.791 129.661 330.404 128.983C332.017 128.306 333.748 127.972 335.492 128.002C337.237 127.97 338.97 128.303 340.584 128.98C342.198 129.658 343.658 130.665 344.875 131.94C346.127 133.18 347.115 134.668 347.78 136.312C348.445 137.957 348.771 139.723 348.74 141.501V159.5C348.747 161.275 348.409 163.033 347.746 164.674C347.083 166.315 346.107 167.806 344.876 169.061C343.644 170.316 342.181 171.31 340.57 171.986C338.96 172.662 337.234 173.006 335.492 172.999Z" fill="white"/>
<defs>
<linearGradient id="paint0_linear_3351_4840" x1="1024.43" y1="-94.23" x2="-29.7226" y2="994.669" gradientUnits="userSpaceOnUse">
<stop stop-color="#88EDFE"/>
<stop offset="0.489" stop-color="#625EFE"/>
<stop offset="1" stop-color="#C224FE"/>
</linearGradient>
</defs>
</svg>
