<svg width="28" height="28" viewBox="0 0 28 28" fill="none" xmlns="http://www.w3.org/2000/svg">
<path d="M13.7872 0C21.4016 0 27.5745 6.06459 27.5745 13.5454C27.5745 21.0261 21.4016 27.0907 13.7872 27.0907C6.17288 27.0907 0 21.0261 0 13.5454C0 6.06459 6.17288 0 13.7872 0Z" fill="white"/>
<path fill-rule="evenodd" clip-rule="evenodd" d="M12.1001 18.2855C12.1001 18.475 12.0263 18.6567 11.895 18.7907C11.7637 18.9247 11.5856 19 11.3999 19H10.7002C10.5145 19 10.3364 18.9247 10.2051 18.7907C10.0738 18.6567 10 18.475 10 18.2855V9.71449C10 9.62067 10.0181 9.52776 10.0533 9.44107C10.0885 9.35438 10.1401 9.27562 10.2051 9.20927C10.2701 9.14292 10.3473 9.09029 10.4323 9.05439C10.5172 9.01848 10.6083 9 10.7002 9H11.4005C11.5862 9 11.7643 9.07528 11.8956 9.20927C12.0269 9.34326 12.1007 9.525 12.1007 9.71449L12.1001 18.2855ZM17 18.2855C17 18.475 16.9262 18.6567 16.7949 18.7907C16.6636 18.9247 16.4855 19 16.2998 19H15.5973C15.4115 19 15.2334 18.9247 15.1021 18.7907C14.9708 18.6567 14.897 18.475 14.897 18.2855V9.71449C14.897 9.62067 14.9151 9.52776 14.9503 9.44107C14.9855 9.35438 15.0371 9.27562 15.1021 9.20927C15.1671 9.14292 15.2443 9.09029 15.3293 9.05439C15.4142 9.01848 15.5053 9 15.5973 9H16.2998C16.4855 9 16.6636 9.07528 16.7949 9.20927C16.9262 9.34326 17 9.525 17 9.71449V18.2855Z" fill="url(#paint0_linear_2992_4640)"/>
<defs>
<linearGradient id="paint0_linear_2992_4640" x1="20.703" y1="6.3" x2="0.766193" y2="13.8091" gradientUnits="userSpaceOnUse">
<stop stop-color="#88EDFE"/>
<stop offset="0.489" stop-color="#625EFE"/>
<stop offset="1" stop-color="#C224FE"/>
</linearGradient>
</defs>
</svg>
