<svg width="18" height="18" viewBox="0 0 18 18" fill="none" xmlns="http://www.w3.org/2000/svg">
<path fill-rule="evenodd" clip-rule="evenodd" d="M14.915 2.88901C14.8144 2.93374 14.6999 3.0645 14.6282 3.21677C14.5837 3.31132 14.5732 3.38482 14.5732 3.60547C14.5732 3.75512 14.5822 3.90992 14.5933 3.94947C14.6126 4.01827 14.6103 4.02055 14.5401 4.00163C14.4997 3.99075 14.3417 3.98189 14.1889 3.98191C13.962 3.98196 13.8888 3.99204 13.7889 4.03698C13.3871 4.21772 13.2238 4.61871 13.3311 5.16092L13.3441 5.22635L12.9928 5.2257C12.6612 5.22508 12.6331 5.22913 12.4912 5.29735C12.3283 5.37574 12.2129 5.48823 12.1193 5.65983C12.0656 5.75822 12.0596 5.80528 12.0596 6.12723V6.4852L11.9689 6.46854C11.8285 6.4427 11.4838 6.44882 11.3688 6.47916C11.1141 6.54638 10.8918 6.75949 10.8161 7.00907C10.7732 7.15068 10.7661 7.43988 10.8011 7.61759C10.8221 7.72373 10.8202 7.72902 10.7669 7.71619C10.5865 7.67271 10.3039 7.67001 10.1414 7.71023C9.84182 7.78432 9.66634 7.94327 9.64719 8.15783C9.63217 8.32619 9.69935 8.44594 9.85184 8.52254C10.0021 8.59805 10.0708 8.59603 10.2422 8.51106C10.3799 8.4428 10.3873 8.442 10.5733 8.47413C11.0956 8.56444 11.2058 8.56428 11.3917 8.47304C11.4462 8.44625 11.5233 8.37631 11.5629 8.31759C11.6548 8.1816 11.6715 7.95597 11.6123 7.65159C11.5585 7.37452 11.5578 7.2364 11.61 7.21676C11.6319 7.20852 11.7996 7.22783 11.9826 7.25967C12.3469 7.32303 12.4858 7.3178 12.6526 7.23441C12.8182 7.15162 12.9193 6.97027 12.9193 6.75563C12.9193 6.69668 12.8947 6.51648 12.8646 6.35517C12.8345 6.19386 12.8163 6.0456 12.8241 6.0257C12.8433 5.9767 13.0202 5.97896 13.2793 6.03146C13.6948 6.11562 13.9902 6.03812 14.1059 5.81456C14.1877 5.65639 14.1968 5.52669 14.1454 5.24765C14.1195 5.10697 14.0979 4.93936 14.0974 4.87523C14.0964 4.76211 14.099 4.75838 14.1832 4.75043C14.231 4.74592 14.3603 4.76051 14.4704 4.78282C14.7466 4.83879 15.0202 4.8349 15.1593 4.77305C15.3331 4.6957 15.4168 4.5498 15.4282 4.30391C15.4337 4.18572 15.4202 4.02291 15.3951 3.90407C15.3382 3.63447 15.3414 3.54068 15.4108 3.4488C15.4882 3.34615 15.4907 3.14175 15.4158 3.04335C15.2906 2.87906 15.0821 2.8148 14.915 2.88901ZM9.53138 3.19795C9.47621 3.23439 9.42235 3.30368 9.39027 3.3795C9.34464 3.48735 9.34226 3.51692 9.37038 3.62506C9.43357 3.86792 9.45489 4.1794 9.42693 4.45167C9.35204 5.18139 9.05645 5.7787 8.43807 6.44991C8.25158 6.65234 8.22318 6.71415 8.24463 6.87092C8.26399 7.01236 8.35009 7.11811 8.48785 7.16965C8.69316 7.24646 8.77083 7.21425 9.04412 6.93887C9.87409 6.10261 10.3192 4.96359 10.2201 3.92983C10.1896 3.61166 10.1414 3.40202 10.0764 3.3049C9.96506 3.13838 9.70033 3.08642 9.53138 3.19795ZM11.6304 3.96966C11.2903 4.04024 11.2111 4.49007 11.5072 4.66971C11.6657 4.76587 11.9224 4.71788 12.0314 4.5717C12.109 4.4675 12.1189 4.25157 12.051 4.14473C11.9605 4.00246 11.7981 3.93485 11.6304 3.96966ZM7.57337 4.57126C7.24913 4.78347 7.39834 5.26991 7.78768 5.26991C7.99969 5.26991 8.15387 5.13221 8.17559 4.92353C8.19895 4.69873 8.02318 4.51244 7.78768 4.51244C7.70235 4.51244 7.635 4.53091 7.57337 4.57126ZM5.7693 6.60787C5.72849 6.63423 5.67868 6.67877 5.6586 6.70686C5.63853 6.73495 4.8581 8.75107 3.92437 11.1871C2.58973 14.6691 2.22624 15.6427 2.22468 15.7395C2.22253 15.8729 2.27126 15.9598 2.40177 16.0553C2.56815 16.1769 2.39923 16.2329 7.25865 14.4455C11.3137 12.9539 11.7784 12.7774 11.865 12.6948C11.9854 12.58 12.0163 12.4426 11.9546 12.2962C11.9237 12.2227 11.1614 11.4592 9.11597 9.45283C7.57797 7.94423 6.2732 6.67608 6.21646 6.63475C6.09008 6.5427 5.88892 6.5306 5.7693 6.60787ZM14.4402 6.71544C14.2523 6.75486 14.1316 6.90127 14.1316 7.08973C14.1316 7.31324 14.291 7.4667 14.5227 7.46639C14.7522 7.4661 14.9028 7.31736 14.9028 7.09082C14.9028 6.83925 14.6865 6.66374 14.4402 6.71544ZM7.80141 9.5526C7.94903 10.6686 8.40326 11.8119 9.04957 12.6944C9.12657 12.7996 9.18961 12.8894 9.18961 12.8939C9.18961 12.9177 7.52203 13.5095 7.48947 13.4973C7.4231 13.4723 7.02392 12.9863 6.80726 12.6667C6.25453 11.8513 5.91534 10.9605 5.77443 9.95425C5.75547 9.81886 5.73944 9.47486 5.73883 9.18981L5.73769 8.67154L5.93446 8.15822L6.13121 7.64488L6.94576 8.44327L7.76028 9.24164L7.80141 9.5526ZM13.9244 8.28608C13.3459 8.39116 13.0752 8.47652 12.6522 8.68722C12.3042 8.86058 11.9803 9.07978 11.6423 9.37076C11.382 9.59484 11.3278 9.67594 11.3278 9.84091C11.3278 10.0599 11.4891 10.2177 11.7129 10.2177C11.8638 10.2177 11.9018 10.1962 12.1561 9.9668C12.5418 9.61883 13.0458 9.323 13.4976 9.17942C13.9235 9.04405 14.4532 9.00966 14.8796 9.08971C15.1425 9.13904 15.211 9.12845 15.3387 9.01862C15.5173 8.86504 15.5184 8.6086 15.3412 8.45617C15.2034 8.33762 14.9513 8.28932 14.427 8.281C14.1869 8.27719 13.9608 8.27947 13.9244 8.28608ZM10.8356 12.289C10.8096 12.3118 10.0276 12.5974 9.99103 12.5974C9.97508 12.5974 9.88459 12.4954 9.78997 12.3707C9.31001 11.7381 8.95739 11.0206 8.7489 10.2523C8.74117 10.2238 9.21185 10.6666 9.79484 11.2363C10.3779 11.806 10.8462 12.2797 10.8356 12.289ZM5.11701 10.7714C5.32391 11.7167 5.84535 12.7772 6.49 13.5638C6.59268 13.6891 6.67656 13.7999 6.67635 13.81C6.67614 13.82 6.31259 13.9611 5.86847 14.1233C5.16557 14.3801 5.05683 14.4133 5.02901 14.3791C4.61226 13.8681 4.44739 13.6306 4.22377 13.2193L4.08993 12.9732L4.52278 11.8459C4.76087 11.226 4.97515 10.6684 4.99898 10.607C5.02282 10.5455 5.04641 10.4993 5.05141 10.5042C5.05641 10.5091 5.08593 10.6293 5.11701 10.7714ZM13.8186 10.5793C13.5455 10.6857 13.481 11.0325 13.6994 11.2204C13.9677 11.4512 14.3476 11.2738 14.3476 10.9177C14.3476 10.6679 14.0613 10.4848 13.8186 10.5793ZM3.87427 14.1655C3.94989 14.2793 4.07075 14.4463 4.14288 14.5366C4.21502 14.6269 4.27006 14.7041 4.26522 14.7081C4.24588 14.7243 3.31032 15.0609 3.30419 15.0538C3.29511 15.0434 3.71966 13.9417 3.72916 13.951C3.73336 13.9551 3.79867 14.0516 3.87427 14.1655Z" fill="#FFC553"/>
</svg>
