<svg width="24" height="24" viewBox="0 0 24 24" fill="none" xmlns="http://www.w3.org/2000/svg">
<g clip-path="url(#clip0_2418_43962)">
<path fill-rule="evenodd" clip-rule="evenodd" d="M8.0763 7.26191L8.1713 7.34491L16.6573 15.8299C16.7685 15.941 16.852 16.0768 16.9009 16.2262C16.9498 16.3756 16.9628 16.5344 16.9389 16.6898C16.9149 16.8452 16.8546 16.9927 16.763 17.1204C16.6713 17.2482 16.5508 17.3525 16.4113 17.4249L16.2953 17.4749L5.9103 21.3019C3.9583 22.0219 2.0573 20.1869 2.6503 18.2379L2.7003 18.0919L6.5263 7.70591C6.57699 7.56843 6.65727 7.44377 6.76146 7.34074C6.86565 7.23772 6.99121 7.15885 7.12926 7.10972C7.2673 7.06059 7.41446 7.0424 7.56031 7.05643C7.70616 7.07046 7.84715 7.11637 7.9733 7.19091L8.0763 7.26091V7.26191ZM7.8623 9.86391L4.5773 18.7839C4.54676 18.8669 4.53877 18.9565 4.55416 19.0436C4.56955 19.1307 4.60775 19.2121 4.66488 19.2796C4.72202 19.3471 4.79603 19.3983 4.87937 19.4278C4.96271 19.4574 5.0524 19.4643 5.1393 19.4479L5.2193 19.4249L14.1373 16.1389L7.8623 9.86391ZM17.1073 11.6059C18.0183 11.6539 19.2673 11.8459 20.3533 12.4979C20.5735 12.6284 20.7352 12.8384 20.8052 13.0846C20.8752 13.3308 20.8481 13.5944 20.7296 13.8213C20.6111 14.0481 20.41 14.2209 20.168 14.3039C19.9259 14.387 19.6612 14.3741 19.4283 14.2679L19.3243 14.2129C18.6423 13.8029 17.7703 13.6429 17.0023 13.6029C16.6859 13.5846 16.3686 13.5859 16.0523 13.6069L15.7363 13.6379C15.4754 13.6716 15.2118 13.6011 15.0025 13.4418C14.7933 13.2824 14.6552 13.0471 14.6182 12.7866C14.5813 12.5262 14.6484 12.2617 14.8051 12.0505C14.9618 11.8392 15.1954 11.6982 15.4553 11.6579C16.003 11.5872 16.5562 11.5694 17.1073 11.6049V11.6059ZM19.1323 8.81991C19.3871 8.82044 19.6321 8.91822 19.8172 9.09327C20.0024 9.26832 20.1137 9.50744 20.1285 9.7618C20.1433 10.0162 20.0605 10.2666 19.8969 10.4619C19.7333 10.6573 19.5013 10.7828 19.2483 10.8129L19.1323 10.8199H18.4243C18.1695 10.8194 17.9245 10.7216 17.7394 10.5466C17.5542 10.3715 17.4429 10.1324 17.4281 9.87802C17.4133 9.62365 17.4961 9.37323 17.6597 9.17788C17.8233 8.98254 18.0553 8.857 18.3083 8.82691L18.4243 8.81991H19.1323ZM15.9503 8.05191C16.1225 8.2241 16.2259 8.4532 16.2412 8.69623C16.2565 8.93926 16.1826 9.17951 16.0333 9.37191L15.9503 9.46591L14.8903 10.5269C14.7108 10.7082 14.4687 10.8139 14.2138 10.8226C13.9588 10.8312 13.7101 10.7421 13.5187 10.5734C13.3273 10.4048 13.2076 10.1693 13.1841 9.91529C13.1606 9.66125 13.2351 9.40783 13.3923 9.20691L13.4753 9.11291L14.5353 8.05291C14.6282 7.95993 14.7385 7.88618 14.8599 7.83585C14.9813 7.78553 15.1114 7.75962 15.2428 7.75962C15.3742 7.75962 15.5043 7.78553 15.6257 7.83585C15.7471 7.88618 15.8574 7.95893 15.9503 8.05191ZM13.3633 2.78591C13.8113 4.13191 13.5713 5.60591 13.2913 6.63591C13.123 7.27806 12.8919 7.90207 12.6013 8.49891C12.4829 8.73628 12.275 8.91688 12.0234 9.00099C11.7719 9.0851 11.4972 9.06583 11.2598 8.94741C11.0224 8.82899 10.8418 8.62113 10.7577 8.36955C10.6736 8.11797 10.6929 7.84328 10.8113 7.60591C11.0432 7.12646 11.2274 6.62539 11.3613 6.10991C11.5883 5.27791 11.7023 4.37491 11.5273 3.63491L11.4663 3.41891C11.4227 3.29385 11.4044 3.16138 11.4124 3.02918C11.4205 2.89699 11.4547 2.76771 11.5131 2.64885C11.5715 2.52999 11.6529 2.42391 11.7527 2.33677C11.8524 2.24964 11.9685 2.18318 12.0941 2.14126C12.2197 2.09934 12.3524 2.08279 12.4845 2.09258C12.6166 2.10236 12.7454 2.13828 12.8635 2.19826C12.9815 2.25823 13.0865 2.34106 13.1723 2.44194C13.2581 2.54282 13.323 2.65974 13.3633 2.78591ZM18.7783 5.22391C18.9658 5.41144 19.0711 5.66575 19.0711 5.93091C19.0711 6.19607 18.9658 6.45038 18.7783 6.63791L18.0713 7.34491C17.9791 7.44042 17.8687 7.5166 17.7467 7.56901C17.6247 7.62142 17.4935 7.64901 17.3607 7.65016C17.2279 7.65131 17.0962 7.62601 16.9733 7.57573C16.8504 7.52545 16.7388 7.4512 16.6449 7.35731C16.551 7.26341 16.4768 7.15176 16.4265 7.02886C16.3762 6.90597 16.3509 6.77429 16.352 6.64151C16.3532 6.50873 16.3808 6.37751 16.4332 6.25551C16.4856 6.1335 16.5618 6.02316 16.6573 5.93091L17.3643 5.22391C17.5518 5.03644 17.8061 4.93112 18.0713 4.93112C18.3365 4.93112 18.5908 5.03644 18.7783 5.22391Z" fill="#FFC553"/>
</g>
<defs>
<clipPath id="clip0_2418_43962">
<rect width="24" height="24" fill="white"/>
</clipPath>
</defs>
</svg>
