<svg width="27" height="21" viewBox="0 0 27 21" fill="none" xmlns="http://www.w3.org/2000/svg">
<path d="M13.6393 6.05766C12.9834 6.05767 12.3496 6.29493 11.8549 6.72563C11.3603 7.15634 11.038 7.75142 10.9477 8.40109C10.8575 9.05076 11.0052 9.71116 11.3637 10.2604C11.7222 10.8097 12.2673 11.2108 12.8983 11.3897V19.8442C12.8983 20.0407 12.9764 20.2293 13.1154 20.3683C13.2544 20.5073 13.443 20.5854 13.6396 20.5854C13.8362 20.5854 14.0247 20.5073 14.1637 20.3683C14.3027 20.2293 14.3808 20.0407 14.3808 19.8442V11.3882C15.0119 11.2093 15.5569 10.8082 15.9154 10.2589C16.2739 9.70966 16.4216 9.04926 16.3314 8.39959C16.2411 7.74992 15.9189 7.15483 15.4242 6.72413C14.9295 6.29342 14.2957 6.05617 13.6398 6.05615L13.6393 6.05766ZM13.6393 10.0107C13.3949 10.0107 13.1561 9.9382 12.9529 9.80244C12.7497 9.66668 12.5914 9.47372 12.4979 9.24796C12.4043 9.0222 12.3799 8.77378 12.4275 8.53412C12.4752 8.29446 12.5929 8.07432 12.7657 7.90153C12.9385 7.72874 13.1586 7.61106 13.3983 7.56339C13.6379 7.51572 13.8864 7.54019 14.1121 7.63371C14.3379 7.72722 14.5308 7.88557 14.6666 8.08875C14.8023 8.29192 14.8748 8.5308 14.8748 8.77515C14.8744 9.10271 14.7441 9.41673 14.5125 9.64835C14.2809 9.87996 13.9669 10.0103 13.6393 10.0107Z" fill="url(#paint0_linear_5637_12420)"/>
<path d="M10.2073 4.8128C10.1384 4.74368 10.0566 4.68883 9.96651 4.65141C9.87641 4.61399 9.77982 4.59473 9.68227 4.59473C9.58471 4.59473 9.48811 4.61399 9.39802 4.65141C9.30792 4.68883 9.22611 4.74368 9.15726 4.8128C8.61084 5.35861 8.17735 6.00678 7.88159 6.72024C7.58583 7.4337 7.43359 8.19846 7.43359 8.97079C7.43359 9.74313 7.58583 10.5079 7.88159 11.2214C8.17735 11.9348 8.61084 12.583 9.15726 13.1288C9.2965 13.268 9.48535 13.3463 9.68227 13.3463C9.87918 13.3463 10.068 13.268 10.2073 13.1288C10.3465 12.9896 10.4247 12.8007 10.4247 12.6038C10.4247 12.4069 10.3465 12.218 10.2073 12.0788C9.79861 11.6706 9.47442 11.1858 9.25323 10.6522C9.03204 10.1186 8.91819 9.54667 8.91819 8.96905C8.91819 8.39143 9.03204 7.81947 9.25323 7.28587C9.47442 6.75228 9.79861 6.26752 10.2073 5.8593C10.3458 5.72039 10.4236 5.53222 10.4236 5.33604C10.4236 5.13987 10.3458 4.9517 10.2073 4.8128Z" fill="url(#paint1_linear_5637_12420)"/>
<path d="M18.1151 4.81219C17.9759 4.67295 17.787 4.59473 17.5901 4.59473C17.3932 4.59473 17.2043 4.67295 17.0651 4.81219C16.9259 4.95143 16.8477 5.14028 16.8477 5.33719C16.8477 5.5341 16.9259 5.72294 17.0651 5.86218C17.8886 6.68761 18.3511 7.80597 18.3511 8.97194C18.3511 10.1379 17.8886 11.2563 17.0651 12.0817C16.9259 12.2209 16.8477 12.4098 16.8477 12.6067C16.8477 12.8036 16.9259 12.9924 17.0651 13.1317C17.2043 13.2709 17.3932 13.3492 17.5901 13.3492C17.787 13.3492 17.9759 13.2709 18.1151 13.1317C19.2162 12.028 19.8346 10.5327 19.8346 8.97369C19.8346 7.41468 19.2162 5.91933 18.1151 4.81569V4.81219Z" fill="url(#paint2_linear_5637_12420)"/>
<path d="M7.97173 3.62439C8.04067 3.55545 8.09536 3.4736 8.13267 3.38352C8.16998 3.29344 8.18919 3.1969 8.18919 3.0994C8.18919 3.00189 8.16998 2.90535 8.13267 2.81527C8.09536 2.72519 8.04067 2.64334 7.97173 2.57439C7.90278 2.50545 7.82093 2.45076 7.73085 2.41345C7.64077 2.37614 7.54423 2.35693 7.44672 2.35693C7.34922 2.35693 7.25268 2.37614 7.1626 2.41345C7.07252 2.45076 6.99067 2.50545 6.92173 2.57439C5.22835 4.27157 4.27734 6.57116 4.27734 8.96864C4.27734 11.3661 5.22835 13.6657 6.92173 15.3629C7.06096 15.5021 7.24981 15.5804 7.44672 15.5804C7.64364 15.5804 7.83249 15.5021 7.97173 15.3629C8.11096 15.2237 8.18919 15.0348 8.18919 14.8379C8.18919 14.641 8.11096 14.4521 7.97173 14.3129C6.55705 12.8941 5.76265 10.9722 5.76265 8.96864C5.76265 6.96506 6.55705 5.04321 7.97173 3.62439Z" fill="url(#paint3_linear_5637_12420)"/>
<path d="M20.3514 2.57586C20.2122 2.43662 20.0234 2.3584 19.8264 2.3584C19.6295 2.3584 19.4407 2.43662 19.3014 2.57586C19.1622 2.7151 19.084 2.90395 19.084 3.10086C19.084 3.29777 19.1622 3.48662 19.3014 3.62586C20.7172 5.04483 21.5123 6.96742 21.5123 8.97186C21.5123 10.9763 20.7172 12.8989 19.3014 14.3179C19.1622 14.4571 19.084 14.6459 19.084 14.8429C19.084 15.0398 19.1622 15.2286 19.3014 15.3679C19.4407 15.5071 19.6295 15.5853 19.8264 15.5853C20.0234 15.5853 20.2122 15.5071 20.3514 15.3679C22.0459 13.6705 22.9976 11.3702 22.9976 8.97186C22.9976 6.57352 22.0459 4.27318 20.3514 2.57586Z" fill="url(#paint4_linear_5637_12420)"/>
<path d="M5.73822 1.38856C5.87746 1.24932 5.95568 1.06047 5.95568 0.863556C5.95568 0.666643 5.87746 0.477795 5.73822 0.338556C5.59898 0.199318 5.41013 0.121094 5.21322 0.121094C5.01631 0.121094 4.82746 0.199318 4.68822 0.338556C-0.25028 5.27706 -0.23978 12.6721 4.68822 17.5996C4.75716 17.6685 4.83901 17.7232 4.92909 17.7605C5.01917 17.7978 5.11572 17.817 5.21322 17.817C5.31072 17.817 5.40727 17.7978 5.49735 17.7605C5.58743 17.7232 5.66928 17.6685 5.73822 17.5996C5.80716 17.5306 5.86185 17.4488 5.89917 17.3587C5.93648 17.2686 5.95568 17.1721 5.95568 17.0746C5.95568 16.9771 5.93648 16.8805 5.89917 16.7904C5.86185 16.7003 5.80716 16.6185 5.73822 16.5496C4.71413 15.5704 3.89906 14.3939 3.34221 13.091C2.78536 11.7881 2.49827 10.3859 2.49827 8.96906C2.49827 7.55218 2.78536 6.14999 3.34221 4.84712C3.89906 3.54426 4.71413 2.36773 5.73822 1.38856Z" fill="url(#paint5_linear_5637_12420)"/>
<path d="M22.5878 0.340021C22.4485 0.200782 22.2597 0.122559 22.0628 0.122559C21.8659 0.122559 21.677 0.200782 21.5378 0.340021C21.3985 0.47926 21.3203 0.668108 21.3203 0.865021C21.3203 1.06193 21.3985 1.25078 21.5378 1.39002C22.5625 2.36921 23.3781 3.54594 23.9353 4.84913C24.4925 6.15233 24.7798 7.55495 24.7798 8.97227C24.7798 10.3896 24.4925 11.7922 23.9353 13.0954C23.3781 14.3986 22.5625 15.5753 21.5378 16.5545C21.4688 16.6235 21.4141 16.7053 21.3768 16.7954C21.3395 16.8855 21.3203 16.982 21.3203 17.0795C21.3203 17.177 21.3395 17.2736 21.3768 17.3636C21.4141 17.4537 21.4688 17.5356 21.5378 17.6045C21.6067 17.6735 21.6886 17.7282 21.7787 17.7655C21.8687 17.8028 21.9653 17.822 22.0628 17.822C22.1603 17.822 22.2568 17.8028 22.3469 17.7655C22.437 17.7282 22.5188 17.6735 22.5878 17.6045C27.5263 12.663 27.5158 5.26802 22.5878 0.340021Z" fill="url(#paint6_linear_5637_12420)"/>
<defs>
<linearGradient id="paint0_linear_5637_12420" x1="19.2325" y1="2.13326" x2="2.24423" y2="5.55282" gradientUnits="userSpaceOnUse">
<stop stop-color="#88EDFE"/>
<stop offset="0.489" stop-color="#625EFE"/>
<stop offset="1" stop-color="#C224FE"/>
</linearGradient>
<linearGradient id="paint1_linear_5637_12420" x1="12.007" y1="2.23181" x2="2.59763" y2="3.96222" gradientUnits="userSpaceOnUse">
<stop stop-color="#88EDFE"/>
<stop offset="0.489" stop-color="#625EFE"/>
<stop offset="1" stop-color="#C224FE"/>
</linearGradient>
<linearGradient id="paint2_linear_5637_12420" x1="21.4148" y1="2.23103" x2="12.0174" y2="3.95627" gradientUnits="userSpaceOnUse">
<stop stop-color="#88EDFE"/>
<stop offset="0.489" stop-color="#625EFE"/>
<stop offset="1" stop-color="#C224FE"/>
</linearGradient>
<linearGradient id="paint3_linear_5637_12420" x1="10.2586" y1="-1.21339" x2="-2.149" y2="0.761571" gradientUnits="userSpaceOnUse">
<stop stop-color="#88EDFE"/>
<stop offset="0.489" stop-color="#625EFE"/>
<stop offset="1" stop-color="#C224FE"/>
</linearGradient>
<linearGradient id="paint4_linear_5637_12420" x1="25.0679" y1="-1.21287" x2="12.6549" y2="0.763314" gradientUnits="userSpaceOnUse">
<stop stop-color="#88EDFE"/>
<stop offset="0.489" stop-color="#625EFE"/>
<stop offset="1" stop-color="#C224FE"/>
</linearGradient>
<linearGradient id="paint5_linear_5637_12420" x1="8.58344" y1="-4.6568" x2="-7.211" y2="-2.27122" gradientUnits="userSpaceOnUse">
<stop stop-color="#88EDFE"/>
<stop offset="0.489" stop-color="#625EFE"/>
<stop offset="1" stop-color="#C224FE"/>
</linearGradient>
<linearGradient id="paint6_linear_5637_12420" x1="28.9155" y1="-4.65628" x2="13.1209" y2="-2.27114" gradientUnits="userSpaceOnUse">
<stop stop-color="#88EDFE"/>
<stop offset="0.489" stop-color="#625EFE"/>
<stop offset="1" stop-color="#C224FE"/>
</linearGradient>
</defs>
</svg>
