<svg width="20" height="21" viewBox="0 0 20 21" fill="none" xmlns="http://www.w3.org/2000/svg">
<path d="M10.0007 0.914062C4.94982 0.914062 0.833984 5.20654 0.833984 10.4741C0.833984 15.7418 4.94982 20.0342 10.0007 20.0342C15.0515 20.0342 19.1673 15.7418 19.1673 10.4741C19.1673 5.20654 15.0515 0.914062 10.0007 0.914062ZM13.6673 11.1912H10.6882V14.2982C10.6882 14.6901 10.3765 15.0152 10.0007 15.0152C9.62482 15.0152 9.31315 14.6901 9.31315 14.2982V11.1912H6.33398C5.95815 11.1912 5.64648 10.8661 5.64648 10.4741C5.64648 10.0822 5.95815 9.75714 6.33398 9.75714H9.31315V6.65011C9.31315 6.25815 9.62482 5.93311 10.0007 5.93311C10.3765 5.93311 10.6882 6.25815 10.6882 6.65011V9.75714H13.6673C14.0432 9.75714 14.3548 10.0822 14.3548 10.4741C14.3548 10.8661 14.0432 11.1912 13.6673 11.1912Z" fill="#292D32"/>
</svg>
