<svg width="32" height="33" viewBox="0 0 32 33" fill="none" xmlns="http://www.w3.org/2000/svg">
<path fill-rule="evenodd" clip-rule="evenodd" d="M2.64391e-06 16.9487C-0.00181639 13.7837 0.935032 10.6894 2.69205 8.05698C4.44907 5.42457 6.94733 3.37238 9.87081 2.15998C12.7943 0.947582 16.0117 0.629447 19.116 1.24581C22.2203 1.86218 25.0721 3.38535 27.3106 5.62268C29.5492 7.86 31.0739 10.711 31.6919 13.8149C32.31 16.9189 31.9936 20.1365 30.7828 23.0606C29.572 25.9848 27.5212 28.4841 24.8897 30.2426C22.2582 32.001 19.1644 32.9396 15.9995 32.9395C11.7595 32.9334 7.69484 31.247 4.69592 28.2497C1.697 25.2524 0.00838034 21.1886 2.64391e-06 16.9487ZM21.866 18.5682C22.0185 18.4111 22.1628 18.2462 22.2982 18.0741C22.5407 17.7498 22.6708 17.3552 22.6686 16.9502C22.6731 16.5147 22.5318 16.0903 22.2671 15.7445C22.2456 15.723 22.2032 15.6771 22.149 15.6173C22.0469 15.5054 21.8987 15.345 21.7577 15.204C19.9016 13.4526 17.7737 12.0138 15.4569 10.9437C15.0466 10.7705 14.6158 10.6503 14.1751 10.5861C13.8378 10.586 13.5053 10.6655 13.2044 10.818C12.8183 11.0327 12.5142 11.3691 12.3395 11.7749C12.2258 12.1449 12.133 12.521 12.0616 12.9014C11.8642 14.2349 11.7764 15.5824 11.799 16.9303C11.787 18.2358 11.8645 19.5406 12.0309 20.8355C12.035 20.8396 12.0478 20.906 12.0687 21.0087C12.1377 21.4293 12.2492 21.8418 12.4013 22.2399C12.5643 22.5545 12.8102 22.8186 13.1124 23.0036C13.4145 23.1887 13.7615 23.2876 14.1158 23.2898H14.1777C14.6743 23.2139 15.1577 23.0684 15.6138 22.8576C17.2486 22.1786 20.4784 20.0641 21.7761 18.6591L21.866 18.5682Z" fill="white"/>
</svg>
