<svg width="40" height="41" viewBox="0 0 40 41" fill="none" xmlns="http://www.w3.org/2000/svg">
<path d="M20.2235 40.4984C31.0366 40.4984 39.8024 31.6037 39.8024 20.6315C39.8024 9.65935 31.0366 0.764648 20.2235 0.764648C9.41032 0.764648 0.644531 9.65935 0.644531 20.6315C0.644531 31.6037 9.41032 40.4984 20.2235 40.4984Z" fill="white"/>
<path d="M28.0679 19.1483H22.0451C21.9512 19.1483 21.8611 19.111 21.7947 19.0446C21.7282 18.9782 21.6909 18.8881 21.6909 18.7941V12.7713C21.6909 12.3015 21.5043 11.851 21.1721 11.5188C20.8399 11.1866 20.3894 11 19.9196 11C19.4498 11 18.9993 11.1866 18.6671 11.5188C18.3349 11.851 18.1483 12.3015 18.1483 12.7713V18.7941C18.1483 18.8881 18.111 18.9782 18.0446 19.0446C17.9782 19.111 17.8881 19.1483 17.7941 19.1483H11.7713C11.3015 19.1483 10.851 19.3349 10.5188 19.6671C10.1866 19.9993 10 20.4498 10 20.9196C10 21.3894 10.1866 21.8399 10.5188 22.1721C10.851 22.5043 11.3015 22.6909 11.7713 22.6909H17.7941C17.8881 22.6909 17.9782 22.7282 18.0446 22.7947C18.111 22.8611 18.1483 22.9512 18.1483 23.0451V29.0679C18.1483 29.5377 18.3349 29.9882 18.6671 30.3204C18.9993 30.6526 19.4498 30.8392 19.9196 30.8392C20.3894 30.8392 20.8399 30.6526 21.1721 30.3204C21.5043 29.9882 21.6909 29.5377 21.6909 29.0679V23.0451C21.6909 22.9512 21.7282 22.8611 21.7947 22.7947C21.8611 22.7282 21.9512 22.6909 22.0451 22.6909H28.0679C28.5377 22.6909 28.9882 22.5043 29.3204 22.1721C29.6526 21.8399 29.8392 21.3894 29.8392 20.9196C29.8392 20.4498 29.6526 19.9993 29.3204 19.6671C28.9882 19.3349 28.5377 19.1483 28.0679 19.1483V19.1483Z" fill="url(#paint0_linear_2765_11063)"/>
<defs>
<linearGradient id="paint0_linear_2765_11063" x1="25.8912" y1="13.4799" x2="12.0831" y2="26.792" gradientUnits="userSpaceOnUse">
<stop stop-color="#88EDFE"/>
<stop offset="0.489" stop-color="#625EFE"/>
<stop offset="1" stop-color="#C224FE"/>
</linearGradient>
</defs>
</svg>
