<svg width="13" height="14" viewBox="0 0 13 14" fill="none" xmlns="http://www.w3.org/2000/svg">
<path d="M9.40831 0.378906C11.5447 0.378906 12.9753 1.88203 12.9753 4.11777V9.27829C12.9753 11.5077 11.5447 13.0102 9.40831 13.0102H3.94439C1.80797 13.0102 0.371094 11.5077 0.371094 9.27829V4.11777C0.371094 1.88203 1.80797 0.378906 3.94439 0.378906H9.40831ZM8.57013 4.78155C8.35586 4.56618 8.00924 4.56618 7.78867 4.78155L6.67319 5.9051L5.55142 4.78155C5.33085 4.56618 4.98423 4.56618 4.76996 4.78155C4.55569 4.99628 4.55569 5.34996 4.76996 5.56406L5.89173 6.68887L4.76996 7.80674C4.55569 8.02779 4.55569 8.37515 4.76996 8.58925C4.8771 8.69662 5.02204 8.75409 5.16069 8.75409C5.30564 8.75409 5.44429 8.69662 5.55142 8.58925L6.67319 7.47201L7.79497 8.58925C7.9021 8.70357 8.04075 8.75409 8.1794 8.75409C8.32435 8.75409 8.46299 8.69662 8.57013 8.58925C8.7844 8.37515 8.7844 8.02779 8.57013 7.81306L7.44835 6.68887L8.57013 5.56406C8.7844 5.34996 8.7844 4.99628 8.57013 4.78155Z" fill="#303548"/>
</svg>
