<svg width="13" height="14" viewBox="0 0 13 14" fill="none" xmlns="http://www.w3.org/2000/svg">
<path d="M9.40831 0.989258C11.5447 0.989258 12.9753 2.49238 12.9753 4.72812V9.88864C12.9753 12.1181 11.5447 13.6206 9.40831 13.6206H3.94439C1.80797 13.6206 0.371094 12.1181 0.371094 9.88864V4.72812C0.371094 2.49238 1.80797 0.989258 3.94439 0.989258H9.40831ZM8.57013 5.3919C8.35586 5.17654 8.00924 5.17654 7.78867 5.3919L6.67319 6.51545L5.55142 5.3919C5.33085 5.17654 4.98423 5.17654 4.76996 5.3919C4.55569 5.60663 4.55569 5.96031 4.76996 6.17441L5.89173 7.29923L4.76996 8.4171C4.55569 8.63814 4.55569 8.98551 4.76996 9.19961C4.8771 9.30697 5.02204 9.36444 5.16069 9.36444C5.30564 9.36444 5.44429 9.30697 5.55142 9.19961L6.67319 8.08237L7.79497 9.19961C7.9021 9.31392 8.04075 9.36444 8.1794 9.36444C8.32435 9.36444 8.46299 9.30697 8.57013 9.19961C8.7844 8.98551 8.7844 8.63814 8.57013 8.42341L7.44835 7.29923L8.57013 6.17441C8.7844 5.96031 8.7844 5.60663 8.57013 5.3919Z" fill="#303548"/>
</svg>
