<svg width="21" height="20" viewBox="0 0 21 20" fill="none" xmlns="http://www.w3.org/2000/svg">
<g opacity="0.6" clip-path="url(#clip0_6128_13072)">
<path d="M16.9012 7.22263V7.04485C16.8633 5.53984 16.2315 4.11094 15.1438 3.07008C14.0561 2.02922 12.6008 1.46094 11.0956 1.48929C9.9746 1.48015 8.87483 1.79514 7.92864 2.39636C6.98245 2.99759 6.23015 3.85943 5.76228 4.87818C4.44495 5.02513 3.22738 5.6505 2.34055 6.63563C1.45372 7.62077 0.959332 8.89715 0.951172 10.2226C0.952629 10.9249 1.09249 11.6201 1.36277 12.2683C1.63305 12.9165 2.02844 13.5051 2.52634 14.0004C3.02424 14.4958 3.61488 14.8881 4.2645 15.155C4.91412 15.4219 5.60997 15.5582 6.31228 15.556H8.39562V14.4448H6.31228C5.23847 14.3867 4.22661 13.9237 3.48067 13.1491C2.73472 12.3745 2.31015 11.3459 2.29253 10.2707C2.27492 9.19544 2.66557 8.1535 3.38574 7.35487C4.10591 6.55625 5.10206 6.06033 6.17339 5.96707H6.54562L6.67339 5.61707C7.01796 4.72215 7.62894 3.95456 8.42377 3.41805C9.21861 2.88153 10.159 2.60195 11.1178 2.61707C12.3284 2.58863 13.5012 3.03983 14.3805 3.87234C15.2599 4.70485 15.7745 5.85119 15.8123 7.06152C15.8199 7.20956 15.8199 7.35791 15.8123 7.50596L15.7678 7.90596L16.1289 8.07263C16.8274 8.38728 17.3961 8.93289 17.7395 9.61766C18.0828 10.3024 18.1799 11.0846 18.0143 11.8325C17.8486 12.5804 17.4305 13.2484 16.8301 13.7242C16.2297 14.2 15.4838 14.4545 14.7178 14.4448H11.7289V15.556H14.7178C15.7059 15.563 16.6681 15.2407 17.4525 14.6398C18.2368 14.039 18.7986 13.1939 19.0491 12.2381C19.2995 11.2823 19.2243 10.2702 18.8353 9.36197C18.4463 8.45369 17.7658 7.70093 16.9012 7.22263Z" fill="#303548"/>
<path d="M12.4405 12.1379C12.5513 12.1397 12.6601 12.1083 12.753 12.0477C12.8458 11.9871 12.9184 11.9002 12.9614 11.798C13.0044 11.6959 13.0159 11.5832 12.9943 11.4745C12.9728 11.3658 12.9192 11.266 12.8405 11.1879L10.0627 8.41016L7.28495 11.1879C7.19394 11.2942 7.14638 11.4309 7.15178 11.5707C7.15718 11.7106 7.21514 11.8432 7.31409 11.9421C7.41303 12.0411 7.54566 12.099 7.68548 12.1044C7.8253 12.1098 7.96201 12.0623 8.06829 11.9713L9.50718 10.5546V17.3602C9.50718 17.5075 9.56571 17.6488 9.66989 17.753C9.77408 17.8572 9.91539 17.9157 10.0627 17.9157C10.2101 17.9157 10.3514 17.8572 10.4556 17.753C10.5598 17.6488 10.6183 17.5075 10.6183 17.3602V10.5546L12.0461 11.9824C12.1518 12.0843 12.2936 12.1403 12.4405 12.1379Z" fill="#303548"/>
</g>
<defs>
<clipPath id="clip0_6128_13072">
<rect width="20" height="20" fill="white" transform="translate(0.0625)"/>
</clipPath>
</defs>
</svg>
