<svg width="73" height="67" viewBox="0 0 73 67" fill="none" xmlns="http://www.w3.org/2000/svg">
<path d="M31.5324 1.6237C36.4548 -1.12856 42.7165 0.679761 45.4673 5.59839L71.7807 51.6418C72.3598 53.0161 72.6132 54.1337 72.6856 55.2946C72.8303 58.0071 71.8893 60.6436 70.0434 62.6726C68.1974 64.6943 65.7 65.8877 62.9854 66.0324H9.99663C8.8746 65.9637 7.75257 65.7069 6.70293 65.3091C1.45472 63.1753 -1.0789 57.1716 1.05658 51.9673L27.551 5.56584C28.4558 3.93474 29.8312 2.52786 31.5324 1.6237ZM36.491 45.1282C34.7537 45.1282 33.3059 46.5749 33.3059 48.3145C33.3059 50.0469 34.7537 51.4971 36.491 51.4971C38.2284 51.4971 39.64 50.0469 39.64 48.2747C39.64 46.5423 38.2284 45.1282 36.491 45.1282ZM36.491 22.564C34.7537 22.564 33.3059 23.9709 33.3059 25.7105V35.942C33.3059 37.678 34.7537 39.1282 36.491 39.1282C38.2284 39.1282 39.64 37.678 39.64 35.942V25.7105C39.64 23.9709 38.2284 22.564 36.491 22.564Z" fill="url(#paint0_linear_3358_10428)"/>
<defs>
<linearGradient id="paint0_linear_3358_10428" x1="-16.2087" y1="-9.58535" x2="91.3886" y2="96.6092" gradientUnits="userSpaceOnUse">
<stop stop-color="#D51AFF"/>
<stop offset="0.502" stop-color="#4E6AFE"/>
<stop offset="1" stop-color="#8BF3FE"/>
</linearGradient>
</defs>
</svg>
