<svg width="28" height="28" viewBox="0 0 28 28" fill="none" xmlns="http://www.w3.org/2000/svg">
<path d="M17.434 0H10.566C4.73058 0 0 4.73058 0 10.566V17.434C0 23.2694 4.73058 28 10.566 28H17.434C23.2694 28 28 23.2694 28 17.434V10.566C28 4.73058 23.2694 0 17.434 0Z" fill="#444A5B"/>
<path d="M7.77778 14.7778H12.4444C12.6507 14.7778 12.8486 14.6958 12.9944 14.55C13.1403 14.4041 13.2222 14.2063 13.2222 14V7.77778C13.2222 7.5715 13.1403 7.37367 12.9944 7.22781C12.8486 7.08194 12.6507 7 12.4444 7H7.77778C7.5715 7 7.37367 7.08194 7.22781 7.22781C7.08194 7.37367 7 7.5715 7 7.77778V14C7 14.2063 7.08194 14.4041 7.22781 14.55C7.37367 14.6958 7.5715 14.7778 7.77778 14.7778ZM7 20.2222C7 20.4285 7.08194 20.6263 7.22781 20.7722C7.37367 20.9181 7.5715 21 7.77778 21H12.4444C12.6507 21 12.8486 20.9181 12.9944 20.7722C13.1403 20.6263 13.2222 20.4285 13.2222 20.2222V17.1111C13.2222 16.9048 13.1403 16.707 12.9944 16.5611C12.8486 16.4153 12.6507 16.3333 12.4444 16.3333H7.77778C7.5715 16.3333 7.37367 16.4153 7.22781 16.5611C7.08194 16.707 7 16.9048 7 17.1111V20.2222ZM14.7778 20.2222C14.7778 20.4285 14.8597 20.6263 15.0056 20.7722C15.1514 20.9181 15.3493 21 15.5556 21H20.2222C20.4285 21 20.6263 20.9181 20.7722 20.7722C20.9181 20.6263 21 20.4285 21 20.2222V14.7778C21 14.5715 20.9181 14.3737 20.7722 14.2278C20.6263 14.0819 20.4285 14 20.2222 14H15.5556C15.3493 14 15.1514 14.0819 15.0056 14.2278C14.8597 14.3737 14.7778 14.5715 14.7778 14.7778V20.2222ZM15.5556 12.4444H20.2222C20.4285 12.4444 20.6263 12.3625 20.7722 12.2166C20.9181 12.0708 21 11.8729 21 11.6667V7.77778C21 7.5715 20.9181 7.37367 20.7722 7.22781C20.6263 7.08194 20.4285 7 20.2222 7H15.5556C15.3493 7 15.1514 7.08194 15.0056 7.22781C14.8597 7.37367 14.7778 7.5715 14.7778 7.77778V11.6667C14.7778 11.8729 14.8597 12.0708 15.0056 12.2166C15.1514 12.3625 15.3493 12.4444 15.5556 12.4444Z" stroke="#C7C9CE"/>
</svg>
