<svg width="24" height="24" viewBox="0 0 24 24" fill="none" xmlns="http://www.w3.org/2000/svg">
<path opacity="0.1" d="M14.9434 0H9.0566C4.05478 0 0 4.05478 0 9.0566V14.9434C0 19.9452 4.05478 24 9.0566 24H14.9434C19.9452 24 24 19.9452 24 14.9434V9.0566C24 4.05478 19.9452 0 14.9434 0Z" fill="#F4FAFF"/>
<g opacity="0.7">
<g opacity="0.7">
<path d="M11.6129 18.9099H9.17003C6.34789 18.9099 5.08789 17.6499 5.08789 14.8277V12.3849C5.08789 9.56274 6.34789 8.30273 9.17003 8.30273H11.0986C11.3622 8.30273 11.5807 8.52131 11.5807 8.78488C11.5807 9.04845 11.3622 9.26702 11.0986 9.26702H9.17003C6.8686 9.26702 6.05218 10.0834 6.05218 12.3849V14.8277C6.05218 17.1292 6.8686 17.9456 9.17003 17.9456H11.6129C13.9143 17.9456 14.7307 17.1292 14.7307 14.8277V12.8992C14.7307 12.6356 14.9493 12.417 15.2129 12.417C15.4765 12.417 15.695 12.6356 15.695 12.8992V14.8277C15.695 17.6499 14.435 18.9099 11.6129 18.9099Z" fill="white"/>
<path d="M15.2136 13.3823H13.1565C11.35 13.3823 10.6172 12.6495 10.6172 10.843V8.78588C10.6172 8.59302 10.7329 8.41302 10.9129 8.34231C11.0929 8.26517 11.2986 8.31017 11.44 8.44517L15.5543 12.5595C15.6893 12.6945 15.7343 12.9066 15.6572 13.0866C15.5865 13.2666 15.4065 13.3823 15.2136 13.3823ZM11.5815 9.94945V10.843C11.5815 12.1223 11.8772 12.418 13.1565 12.418H14.05L11.5815 9.94945Z" fill="white"/>
<path d="M14.3133 6.05218H11.7419C11.4783 6.05218 11.2598 5.83361 11.2598 5.57003C11.2598 5.30646 11.4783 5.08789 11.7419 5.08789H14.3133C14.5769 5.08789 14.7955 5.30646 14.7955 5.57003C14.7955 5.83361 14.5769 6.05218 14.3133 6.05218Z" fill="white"/>
<path d="M8.78488 7.98075C8.52131 7.98075 8.30273 7.76218 8.30273 7.49861C8.30273 6.16789 9.38273 5.08789 10.7134 5.08789H12.3977C12.6613 5.08789 12.8799 5.30646 12.8799 5.57003C12.8799 5.83361 12.6613 6.05218 12.3977 6.05218H10.7134C9.91631 6.05218 9.26702 6.70146 9.26702 7.49861C9.26702 7.76218 9.04845 7.98075 8.78488 7.98075Z" fill="white"/>
<path d="M16.6208 15.6953C16.3572 15.6953 16.1387 15.4767 16.1387 15.2132C16.1387 14.9496 16.3572 14.731 16.6208 14.731C17.3537 14.731 17.9451 14.1332 17.9451 13.4067V9.42746C17.9451 9.16388 18.1637 8.94531 18.4272 8.94531C18.6908 8.94531 18.9094 9.16388 18.9094 9.42746V13.4067C18.9094 14.6667 17.8808 15.6953 16.6208 15.6953Z" fill="white"/>
<path d="M18.4272 9.91032H16.4986C14.7886 9.91032 14.0879 9.20961 14.0879 7.49961V5.57104C14.0879 5.37818 14.2036 5.19818 14.3836 5.12747C14.5636 5.05032 14.7693 5.09532 14.9107 5.23032L18.7679 9.08747C18.9029 9.22247 18.9479 9.43461 18.8707 9.61461C18.8 9.79461 18.62 9.91032 18.4272 9.91032ZM15.0522 6.73461V7.49961C15.0522 8.67604 15.3222 8.94604 16.4986 8.94604H17.2636L15.0522 6.73461Z" fill="white"/>
</g>
</g>
</svg>
