<svg width="9" height="8" viewBox="0 0 9 8" fill="none" xmlns="http://www.w3.org/2000/svg">
<path d="M3.4641 6.85427C3.42284 6.81371 3.2464 6.66217 3.10126 6.52059C1.92802 5.31067 0.960917 3.91673 0.238351 2.39414C0.122282 2.1275 0.0421354 1.84662 1.23491e-05 1.55888C-0.000931967 1.33603 0.0522946 1.11629 0.15511 0.918571C0.302301 0.666292 0.528262 0.469326 0.798269 0.357942C1.047 0.282756 1.29972 0.221475 1.55526 0.174386C2.45186 0.0451958 3.35733 -0.0123772 4.26307 0.00221297C5.14032 -0.00569643 6.01713 0.0449295 6.88764 0.153754C7.20836 0.209071 7.52409 0.290204 7.83175 0.396361C8.0414 0.500304 8.21826 0.660154 8.3428 0.858267C8.46735 1.05638 8.53473 1.28505 8.53751 1.51904V1.5596C8.48563 1.8851 8.38765 2.20156 8.24653 2.49943C7.5277 3.98566 6.57505 5.34691 5.42488 6.53127C5.30106 6.65399 5.1694 6.76853 5.03073 6.87419C4.81091 7.03407 4.54555 7.11912 4.27374 7.1168C3.98244 7.12004 3.69808 7.02784 3.4641 6.85427Z" fill="#303548"/>
</svg>
