<svg width="24" height="24" viewBox="0 0 24 24" fill="none" xmlns="http://www.w3.org/2000/svg">
<path d="M9.57403 1.80462L9.6331 1.82445L9.65269 1.84282L9.76081 1.8771C10.0104 1.95623 10.2281 2.03977 10.4294 2.14899L10.4473 2.15872L10.466 2.16696L10.9042 2.36041C10.9597 2.39108 11.0301 2.43843 11.1149 2.49866C11.1293 2.50888 11.1451 2.52022 11.1618 2.53221C11.2312 2.582 11.3163 2.64309 11.382 2.68265L11.382 2.6827L11.3883 2.68637C11.4129 2.70069 11.4361 2.71408 11.458 2.72674C11.5601 2.78571 11.6349 2.82895 11.6982 2.87683L11.9994 3.1047L12.3009 2.8773C13.548 1.9369 15.0601 1.42875 16.6164 1.43964H16.6198C17.3311 1.43964 18.0332 1.53885 18.6946 1.75789L18.6946 1.75791L18.6991 1.75934C22.7911 3.07221 24.34 7.52735 23.0696 11.5333C22.3389 13.6005 21.1458 15.4869 19.5847 17.0284C17.2945 19.2165 14.7816 21.1593 12.0764 22.8332L12.0391 22.8555L11.985 22.8224C9.26993 21.1602 6.74211 19.2173 4.42982 17.0168C2.87828 15.4743 1.68383 13.5985 0.941343 11.531C-0.349377 7.52926 1.19581 3.07216 5.33883 1.73418L5.33885 1.73423L5.34624 1.73172C5.65258 1.62747 5.96815 1.55353 6.28467 1.51088H6.39595H6.43176L6.46721 1.50577C6.77972 1.46078 7.09066 1.43964 7.40394 1.43964L7.52832 1.43964C8.2332 1.46149 8.91416 1.58315 9.57403 1.80462Z" stroke="white"/>
</svg>
