<svg width="146" height="96" viewBox="0 0 146 96" fill="none" xmlns="http://www.w3.org/2000/svg">
<path d="M143.463 22.556L141.18 33.6141L139.71 32.1802L137.21 33.9648L135.299 31.591L131.014 34.7068L127.352 28.5825L123.267 30.9754L121.647 28.7423L116.461 31.6649L114.9 28.3224L118.536 10.7129L138.028 14.7377L143.463 22.556Z" fill="#EBEBEB"/>
<path d="M138.03 14.7373L143.464 22.5555L136.703 21.1599L138.03 14.7373Z" fill="#DBDBDB"/>
<path d="M140.695 35.8235L137.347 52.0469L111.092 46.6263L114.415 30.5342L115.976 33.8743L121.165 30.9517L122.782 33.1848L126.869 30.7942L130.529 36.9186L134.816 33.8027L136.725 36.1742L139.227 34.392L140.695 35.8235Z" fill="#EBEBEB"/>
<path d="M103.117 33.9212L76.3601 35.5769L74.2344 1.23107L94.1032 0L101.397 6.11955L103.117 33.9212Z" fill="#EBEBEB"/>
<path d="M94.1016 0L101.395 6.11955L94.5048 6.54661L94.1016 0Z" fill="#DBDBDB"/>
<path d="M86.6949 23.1117L86.5899 22.3363C86.3203 20.7307 86.7593 18.9342 88.155 17.0565C89.4147 15.3865 90.097 14.1936 90.0207 12.8385C89.9348 11.3116 88.9208 10.3477 87.0336 10.424C85.9551 10.4801 84.9192 10.8628 84.0633 11.5215L83.2402 9.6773C84.1946 8.90191 85.8646 8.32932 87.4512 8.24582C90.8939 8.05496 92.5687 10.0924 92.6999 12.3661C92.8144 14.4012 91.7599 15.9305 90.4191 17.7174C89.188 19.3469 88.7848 20.6901 88.959 22.2099L89.0329 22.9876L86.6949 23.1117ZM86.2702 27.3369C86.2082 26.2299 86.912 25.4092 87.9593 25.3519C89.0067 25.2947 89.7701 26.0295 89.8322 27.1389C89.8894 28.1863 89.2477 29.0308 88.1407 29.0929C87.0837 29.1525 86.3203 28.3843 86.2606 27.3369H86.2702Z" fill="#DBDBDB"/>
<path d="M19.768 17.2689L17.0768 16.0498L16.7022 16.8729C16.6469 16.9905 16.5606 17.0909 16.4526 17.1632C16.3446 17.2355 16.2189 17.277 16.0891 17.2833C15.9412 17.2881 15.7938 17.3025 15.6477 17.3262C15.5195 17.3452 15.3885 17.3291 15.2688 17.2795C15.149 17.2299 15.045 17.1488 14.9678 17.0447L14.4405 16.3075L12.038 18.03L12.5653 18.7672C12.6386 18.8736 12.6818 18.9979 12.6902 19.1269C12.6986 19.2558 12.6719 19.3846 12.613 19.4997C12.545 19.6309 12.4836 19.7654 12.4293 19.9029C12.382 20.024 12.3026 20.13 12.1996 20.2095C12.0967 20.2889 11.974 20.3388 11.8448 20.3538L10.9453 20.442L11.234 23.3837L12.1382 23.2931C12.2679 23.2827 12.3979 23.3079 12.5144 23.3659C12.6308 23.4239 12.7292 23.5126 12.7991 23.6223C12.8372 23.6843 12.8778 23.744 12.9207 23.8036C12.9637 23.8633 13.0066 23.9205 13.052 23.9778C13.1343 24.078 13.1872 24.199 13.2049 24.3275C13.2226 24.4559 13.2044 24.5868 13.1522 24.7055L12.7752 25.5357L15.4688 26.7572L15.8433 25.9294C15.8992 25.8118 15.986 25.7118 16.0944 25.6399C16.2029 25.568 16.3289 25.527 16.4589 25.5214C16.6051 25.5154 16.7509 25.501 16.8955 25.4785C17.0237 25.4594 17.1547 25.4755 17.2744 25.5251C17.3942 25.5747 17.4982 25.6559 17.5754 25.76L18.1027 26.4972L20.5076 24.7746L19.9803 24.0374C19.9047 23.932 19.8602 23.8075 19.8517 23.678C19.8433 23.5486 19.8713 23.4193 19.9326 23.305C19.999 23.1745 20.0588 23.0408 20.1115 22.9042C20.1574 22.7821 20.2364 22.6753 20.3397 22.5956C20.4429 22.516 20.5663 22.4667 20.696 22.4533L21.6003 22.3626L21.3092 19.4209L20.405 19.5092C20.2761 19.5205 20.1466 19.496 20.0308 19.4383C19.915 19.3806 19.8175 19.292 19.7489 19.1823C19.7083 19.1203 19.6678 19.0607 19.6248 19.001C19.5819 18.9414 19.5389 18.8817 19.4936 18.8269C19.4118 18.7255 19.3593 18.6037 19.3416 18.4746C19.324 18.3455 19.3419 18.2141 19.3934 18.0944L19.768 17.2689ZM18.2411 19.9911C18.5201 20.3805 18.6773 20.8438 18.693 21.3225C18.7086 21.8012 18.582 22.2738 18.329 22.6806C18.0761 23.0873 17.7082 23.4099 17.2719 23.6075C16.8356 23.8051 16.3504 23.8689 15.8779 23.7908C15.4053 23.7127 14.9665 23.4963 14.617 23.1688C14.2675 22.8413 14.0229 22.4175 13.9143 21.951C13.8056 21.4845 13.8377 20.9963 14.0066 20.5481C14.1754 20.0998 14.4734 19.7117 14.8628 19.4329C15.3848 19.059 16.034 18.9078 16.6675 19.0125C17.301 19.1172 17.867 19.4692 18.2411 19.9911Z" fill="#EBEBEB"/>
<path d="M141.42 56.2988L139.626 57.3343L139.943 57.883C139.991 57.9617 140.014 58.0525 140.011 58.1443C140.008 58.2362 139.979 58.3252 139.927 58.4007C139.872 58.4866 139.819 58.5749 139.772 58.6679C139.732 58.7502 139.67 58.8196 139.593 58.8678C139.516 58.916 139.426 58.941 139.335 58.9399H138.705V61.0132H139.34C139.431 61.012 139.52 61.0371 139.598 61.0853C139.675 61.1335 139.737 61.2028 139.776 61.2851C139.824 61.3782 139.877 61.4665 139.931 61.5523C139.984 61.6279 140.013 61.7169 140.016 61.8087C140.019 61.9006 139.995 61.9913 139.948 62.0701L139.631 62.6188L141.425 63.6542L141.745 63.1031C141.791 63.0249 141.858 62.9612 141.939 62.9191C142.019 62.8769 142.11 62.8581 142.2 62.8645H142.506C142.596 62.8583 142.687 62.8773 142.767 62.9194C142.848 62.9616 142.915 63.0251 142.961 63.1031L143.281 63.6566L145.073 62.6212L144.755 62.0701C144.71 61.9909 144.688 61.9007 144.692 61.8097C144.695 61.7186 144.724 61.6303 144.775 61.5547C144.829 61.4688 144.882 61.3782 144.93 61.2875C144.969 61.2052 145.031 61.1359 145.108 61.0877C145.185 61.0395 145.275 61.0144 145.366 61.0155H146.001V58.9423H145.361C145.27 58.9434 145.181 58.9184 145.103 58.8702C145.026 58.822 144.964 58.7526 144.925 58.6703C144.877 58.5796 144.825 58.489 144.77 58.4031C144.719 58.3275 144.69 58.2392 144.687 58.1482C144.683 58.0571 144.706 57.9669 144.751 57.8878L145.068 57.3366L143.276 56.3012L142.957 56.8452C142.91 56.9233 142.843 56.9871 142.763 57.0292C142.682 57.0713 142.591 57.0902 142.501 57.0838H142.348H142.195C142.105 57.0899 142.014 57.0708 141.933 57.0288C141.852 56.9867 141.785 56.9232 141.737 56.8452L141.42 56.2988ZM142.348 58.279C142.684 58.2786 143.013 58.3779 143.293 58.5643C143.573 58.7508 143.791 59.0161 143.919 59.3266C144.048 59.637 144.082 59.9788 144.017 60.3085C143.951 60.6383 143.789 60.9412 143.552 61.1789C143.314 61.4166 143.011 61.5784 142.681 61.6439C142.352 61.7093 142.01 61.6755 141.699 61.5466C141.389 61.4178 141.124 61.1997 140.937 60.92C140.751 60.6403 140.651 60.3115 140.652 59.9753C140.652 59.7524 140.695 59.5315 140.78 59.3255C140.865 59.1194 140.99 58.9321 141.148 58.7743C141.305 58.6166 141.493 58.4914 141.698 58.406C141.904 58.3206 142.125 58.2767 142.348 58.2767V58.279Z" fill="#EBEBEB"/>
<path d="M25.2115 8.45224L23.5677 9.71193L23.9471 10.2153C24.0037 10.2871 24.0385 10.3735 24.0473 10.4645C24.0562 10.5554 24.0388 10.647 23.9972 10.7283C23.9515 10.8211 23.9117 10.9168 23.8779 11.0146C23.8485 11.1007 23.7956 11.177 23.7252 11.2347C23.6548 11.2925 23.5697 11.3294 23.4795 11.3414L22.8496 11.4225L23.1168 13.4767L23.7467 13.3956C23.8384 13.3828 23.9318 13.3962 24.0162 13.4342C24.1006 13.4722 24.1726 13.5332 24.2238 13.6103C24.2813 13.6933 24.3434 13.773 24.4099 13.8489C24.4714 13.9165 24.5121 14.0003 24.5274 14.0904C24.5426 14.1805 24.5316 14.273 24.4958 14.3571L24.2572 14.944L26.1659 15.7384L26.4044 15.1515C26.4399 15.0673 26.4983 14.9948 26.573 14.9421C26.6476 14.8894 26.7355 14.8586 26.8267 14.8533L26.9794 14.8366L27.1297 14.8128C27.218 14.7961 27.3092 14.804 27.3933 14.8355C27.4774 14.8671 27.5513 14.9211 27.6069 14.9917L27.9958 15.4999L29.6396 14.2402L29.2555 13.7368C29.2 13.664 29.1659 13.5773 29.157 13.4862C29.1482 13.3952 29.1649 13.3035 29.2054 13.2214C29.2506 13.1292 29.2904 13.0344 29.3246 12.9375C29.3541 12.8514 29.4069 12.7751 29.4773 12.7174C29.5477 12.6596 29.6328 12.6227 29.7231 12.6107L30.3529 12.5296L30.0857 10.4754L29.4559 10.5565C29.3644 10.5695 29.2711 10.5565 29.1867 10.519C29.1024 10.4814 29.0303 10.4208 28.9787 10.3442C28.9191 10.2583 28.857 10.1772 28.7902 10.1056C28.7347 10.0365 28.6987 9.95382 28.6861 9.86609C28.6735 9.77835 28.6847 9.68885 28.7187 9.60696L28.9572 9.02005L27.0486 8.22559L26.81 8.81249C26.7741 8.89636 26.7156 8.96863 26.641 9.02127C26.5665 9.07392 26.4788 9.10487 26.3877 9.11071L26.235 9.12503L26.0943 9.1298C26.006 9.14644 25.9148 9.13856 25.8307 9.10701C25.7466 9.07546 25.6727 9.02146 25.6171 8.95087L25.2115 8.45224ZM26.3877 10.2965C26.7201 10.2537 27.0576 10.3104 27.3578 10.4593C27.658 10.6082 27.9073 10.8426 28.0744 11.1331C28.2415 11.4235 28.3188 11.7569 28.2966 12.0913C28.2744 12.4256 28.1537 12.7459 27.9497 13.0117C27.7457 13.2775 27.4675 13.4769 27.1503 13.5848C26.8331 13.6927 26.491 13.7043 26.1672 13.618C25.8434 13.5317 25.5525 13.3515 25.331 13.1C25.1096 12.8486 24.9675 12.5372 24.9229 12.2051C24.893 11.9835 24.9073 11.7582 24.9649 11.5421C25.0225 11.326 25.1222 11.1235 25.2584 10.9461C25.3945 10.7687 25.5644 10.62 25.7582 10.5085C25.952 10.397 26.166 10.325 26.3877 10.2965Z" fill="#EBEBEB"/>
<path d="M12.9294 62.2813C13.019 59.9749 12.9872 57.6655 12.8339 55.3625C12.4926 50.6069 11.7673 45.8868 10.6653 41.2481C10.0593 38.6381 9.3149 36.071 8.53714 33.5062C8.51328 33.4275 8.38922 33.449 8.41069 33.5301C10.8132 42.5722 12.7838 51.9007 12.6479 61.3007C12.6097 63.9251 12.3043 66.5137 12.0562 69.1285C12.0562 69.1977 12.1635 69.2263 12.1802 69.1547C12.6741 66.9097 12.8363 64.5669 12.9294 62.2813Z" fill="#EBEBEB"/>
<path d="M8.41372 33.5215C8.41372 33.5215 4.77777 42.7545 5.59133 44.916C6.40488 47.0775 8.08448 47.5404 8.08448 47.5404C8.08448 47.5404 5.85854 50.7183 7.41407 53.6981C8.96961 56.678 12.4242 56.5372 12.6628 59.9155C12.6557 59.9322 12.8465 45.8059 8.41372 33.5215Z" fill="#EBEBEB"/>
<path d="M12.2587 54.0997C12.2646 54.0843 12.2646 54.0673 12.2587 54.052C11.7815 47.7485 10.5987 41.5184 8.73252 35.4786C8.73252 35.4619 8.69673 35.4667 8.7015 35.4786C9.42201 38.1825 10.0582 40.8975 10.6101 43.6237C10.1213 43.1606 9.52414 42.8276 8.87328 42.655C8.87328 42.655 8.85419 42.6694 8.87328 42.6741C9.55703 42.9247 10.1718 43.3335 10.6674 43.867C10.7724 44.4038 10.8773 44.9382 10.9752 45.475C10.1616 44.5661 9.03551 44.1151 7.90703 43.6857C7.90448 43.6868 7.9023 43.6887 7.90078 43.691C7.89925 43.6933 7.89844 43.696 7.89844 43.6988C7.89844 43.7016 7.89925 43.7043 7.90078 43.7067C7.9023 43.709 7.90448 43.7108 7.90703 43.7119C9.08323 44.1891 10.2523 44.8046 11.0491 45.8186C11.3259 47.3503 11.5692 48.8875 11.7792 50.4303C11.1917 49.8149 10.4384 49.3831 9.61049 49.1873C9.58424 49.1873 9.56993 49.2184 9.59617 49.2255C10.4466 49.476 11.2059 49.9684 11.7816 50.6427H11.7959C11.8674 51.1835 11.9358 51.7266 12.001 52.2722C11.5466 51.8876 11.0335 51.5783 10.4813 51.356C10.467 51.356 10.4574 51.3727 10.4813 51.3775C11.0449 51.6216 11.5609 51.9633 12.0058 52.3867C12.0058 52.3867 12.0177 52.3867 12.0249 52.3867C12.0846 52.9044 12.1442 53.4221 12.1967 53.9398C11.3774 52.9494 10.3142 52.1897 9.11186 51.7354C9.10679 51.7354 9.10194 51.7374 9.09836 51.741C9.09478 51.7445 9.09277 51.7494 9.09277 51.7545C9.09277 51.7595 9.09478 51.7644 9.09836 51.768C9.10194 51.7715 9.10679 51.7735 9.11186 51.7735C10.2991 52.2969 11.342 53.0999 12.1514 54.114C12.1603 54.1251 12.1723 54.1333 12.1859 54.1376C12.1995 54.1418 12.214 54.1419 12.2277 54.1379C12.3064 54.9323 12.378 55.7268 12.4353 56.5236C12.4353 56.5356 12.4543 56.5356 12.4543 56.5236C12.3923 55.7236 12.3271 54.9156 12.2587 54.0997Z" fill="white"/>
<path d="M9.33447 41.7487C8.67599 41.3389 7.92376 41.1041 7.14908 41.0664C7.14528 41.0664 7.14164 41.0679 7.13896 41.0706C7.13627 41.0733 7.13477 41.0769 7.13477 41.0807C7.13477 41.0845 7.13627 41.0882 7.13896 41.0908C7.14164 41.0935 7.14528 41.095 7.14908 41.095C7.89805 41.2371 8.62489 41.4777 9.31061 41.8108C9.33924 41.8179 9.36071 41.7678 9.33447 41.7487Z" fill="white"/>
<path d="M9.77774 51.5226C9.27164 51.2321 8.71436 51.0418 8.13632 50.9619C8.11723 50.9619 8.11484 50.9882 8.13632 50.9929C8.70078 51.1061 9.24678 51.2973 9.75865 51.5608C9.78013 51.5727 9.79921 51.5345 9.77774 51.5226Z" fill="white"/>
<path d="M22.491 45.0771C20.9529 46.1403 19.5402 47.3745 18.2801 48.756C16.9805 50.2187 15.9782 51.9204 15.3289 53.7661C13.947 57.6116 13.2039 61.6573 13.1292 65.7428C13.0828 68.0053 13.2998 70.2655 13.7757 72.4779C13.7796 72.494 13.7895 72.5079 13.8034 72.5169C13.8172 72.5259 13.834 72.5292 13.8503 72.5262C13.8665 72.5231 13.881 72.5139 13.8907 72.5005C13.9003 72.487 13.9044 72.4704 13.9022 72.454C13.31 68.55 13.3325 64.5773 13.969 60.6802C14.594 56.8629 15.5746 52.7068 18.0033 49.6029C19.3251 47.9114 20.9736 46.5825 22.6031 45.2083C22.689 45.1319 22.5793 45.015 22.491 45.0771Z" fill="#EBEBEB"/>
<path d="M13.666 62.9885C14.5416 61.5723 15.5705 60.257 16.7341 59.0662C18.5545 57.2459 20.0862 55.9528 20.3248 54.7503C20.5633 53.5479 18.502 52.6604 18.502 52.6604C18.502 52.6604 21.019 53.1137 21.7085 52.0568C22.398 50.9999 22.7296 44.8779 22.7296 44.8779C22.7296 44.8779 18.1489 48.1488 16.0136 52.7343C13.8784 57.3198 13.666 62.9885 13.666 62.9885Z" fill="#EBEBEB"/>
<path d="M21.0877 50.6209C20.7861 50.576 20.4803 50.5656 20.1763 50.5899C20.1406 50.5899 20.1429 50.6519 20.1763 50.6543C20.477 50.6543 20.78 50.64 21.0806 50.6543C21.084 50.6534 21.0871 50.6516 21.0896 50.6491C21.092 50.6465 21.0937 50.6433 21.0945 50.6398C21.0952 50.6364 21.095 50.6328 21.0938 50.6294C21.0926 50.6261 21.0905 50.6231 21.0877 50.6209Z" fill="white"/>
<path d="M17.7952 56.5596C17.3115 56.5694 16.8333 56.6647 16.3828 56.8411C16.3828 56.8411 16.3828 56.865 16.3828 56.8626C16.86 56.7504 17.3204 56.7051 17.7928 56.624C17.799 56.6213 17.8043 56.6169 17.8081 56.6113C17.8118 56.6058 17.814 56.5993 17.8142 56.5925C17.8145 56.5858 17.8128 56.5791 17.8095 56.5733C17.8061 56.5675 17.8012 56.5627 17.7952 56.5596Z" fill="white"/>
<path d="M16.8066 54.5069C16.6058 54.5053 16.4052 54.5229 16.2078 54.5594C16.2041 54.5608 16.201 54.5632 16.1987 54.5664C16.1965 54.5696 16.1953 54.5734 16.1953 54.5773C16.1953 54.5812 16.1965 54.585 16.1987 54.5882C16.201 54.5914 16.2041 54.5939 16.2078 54.5952C16.4077 54.6068 16.6084 54.598 16.8066 54.569C16.8148 54.569 16.8227 54.5657 16.8285 54.5599C16.8343 54.5541 16.8376 54.5462 16.8376 54.5379C16.8376 54.5297 16.8343 54.5218 16.8285 54.516C16.8227 54.5102 16.8148 54.5069 16.8066 54.5069Z" fill="white"/>
<path d="M0.236238 51.5717C1.72717 52.0772 3.15587 52.7503 4.49488 53.5782C5.88422 54.461 7.08904 55.6051 8.04255 56.9469C10.0488 59.7395 11.5848 62.8414 12.5899 66.1298C13.1504 67.9506 13.4963 69.8306 13.6205 71.7316C13.6179 71.7439 13.6112 71.755 13.6014 71.7629C13.5916 71.7708 13.5794 71.7751 13.5668 71.7751C13.5543 71.7751 13.5421 71.7708 13.5323 71.7629C13.5225 71.755 13.5158 71.7439 13.5132 71.7316C13.092 68.4355 12.1566 65.2258 10.7409 62.2195C9.34996 59.273 7.5964 56.1381 4.91477 54.1865C3.45467 53.1249 1.81325 52.4282 0.176593 51.6934C0.0907047 51.6648 0.150349 51.5431 0.236238 51.5717Z" fill="#EBEBEB"/>
<path d="M11.521 64.0285C10.4845 63.0855 9.3476 62.259 8.13077 61.564C6.23646 60.5119 4.69762 59.82 4.22762 58.9015C3.75762 57.9829 5.22011 56.79 5.22011 56.79C5.22011 56.79 3.28762 57.7444 2.48599 57.0406C1.68437 56.3367 0 51.4697 0 51.4697C0 51.4697 4.46381 53.0563 7.24803 56.2747C10.0323 59.4931 11.521 64.0285 11.521 64.0285Z" fill="#EBEBEB"/>
<path d="M7.81349 59.5483C7.37462 59.5177 6.93396 59.572 6.51562 59.7082C6.51563 59.7082 6.51562 59.7297 6.51562 59.7273C6.94241 59.6541 7.37361 59.6095 7.80634 59.5937C7.83735 59.5937 7.84451 59.5507 7.81349 59.5483Z" fill="white"/>
<path d="M3.92098 54.4418C3.72078 54.4255 3.51928 54.4367 3.32215 54.4752C3.30067 54.4752 3.30783 54.5134 3.32215 54.511C3.52017 54.4896 3.71342 54.4967 3.90905 54.4919C3.91513 54.4922 3.9211 54.4903 3.92595 54.4866C3.93079 54.483 3.93421 54.4777 3.93562 54.4718C3.93703 54.4659 3.93634 54.4597 3.93367 54.4542C3.931 54.4487 3.92651 54.4444 3.92098 54.4418Z" fill="white"/>
<path d="M17.2783 77.8851H7.20312L8.63937 67.3614L9.00678 64.6631H15.4747L15.8421 67.3614L17.2783 77.8851Z" fill="#DBDBDB"/>
<path d="M15.8414 67.3614H8.63867L9.00608 64.6631H15.474L15.8414 67.3614Z" fill="#C7C7C7"/>
<path d="M16.3969 63.7266H8.08008V66.0122H16.3969V63.7266Z" fill="#DBDBDB"/>
<path d="M0.796875 77.8839L18.9313 77.8267L37.0657 77.8052L73.3345 77.7646L109.603 77.8052L127.738 77.8267L145.872 77.8839L127.738 77.9436L109.603 77.9627L73.3345 78.0032L37.0657 77.9627L18.9313 77.9412L0.796875 77.8839Z" fill="#263238"/>
<path d="M73.8106 95.6681C111.592 95.6681 142.221 92.312 142.221 88.1719C142.221 84.0319 111.592 80.6758 73.8106 80.6758C36.0287 80.6758 5.40039 84.0319 5.40039 88.1719C5.40039 92.312 36.0287 95.6681 73.8106 95.6681Z" fill="#EBEBEB"/>
<path d="M57.8859 86.9268C57.33 87.1153 41.3906 87.1654 40.7798 86.7884C40.5412 86.6453 40.4052 84.3239 40.3026 81.5135C40.2812 80.9075 40.2645 80.28 40.2501 79.6454L38.9785 71.1424L49.6358 71.0732L50.6403 79.5786L50.5997 81.449C50.5997 81.449 56.7121 84.1569 57.3372 84.6484C57.9623 85.1399 58.4418 86.7383 57.8859 86.9268Z" fill="#EB9481"/>
<path d="M57.8879 86.9283C57.3321 87.1168 41.3926 87.1669 40.7818 86.7899C40.5003 86.6134 40.3476 83.2232 40.2617 79.6469L50.6304 79.5801L50.5898 81.4505C50.5898 81.4505 56.7022 84.1584 57.3273 84.6499C57.9524 85.1414 58.4438 86.7398 57.8879 86.9283Z" fill="white"/>
<path d="M57.886 86.928C57.3301 87.1164 41.3907 87.1666 40.7799 86.7896C40.5413 86.6465 40.4053 84.3251 40.3027 81.5146L50.5783 81.4502C50.5783 81.4502 56.6907 84.1581 57.3158 84.6495C57.9409 85.141 58.4419 86.7395 57.886 86.928Z" fill="#A6A6A6"/>
<path d="M57.653 86.2898C54.9809 86.2325 44.1971 86.2588 41.5513 86.4067C41.5298 86.4067 41.5298 86.421 41.5513 86.4234C44.1995 86.5355 54.9833 86.4234 57.653 86.3327C57.7102 86.3303 57.7102 86.2898 57.653 86.2898Z" fill="#263238"/>
<path d="M56.2971 84.0796C56 84.073 55.7047 84.128 55.43 84.2414C55.1553 84.3547 54.907 84.5239 54.701 84.7381C54.3257 85.1205 54.1135 85.6338 54.1094 86.1696C54.1094 86.1863 54.138 86.1863 54.1404 86.1696C54.2291 85.6418 54.4861 85.1568 54.8731 84.787C55.2601 84.4172 55.7563 84.1825 56.2876 84.1178C56.2927 84.1191 56.298 84.1183 56.3025 84.1156C56.307 84.1129 56.3102 84.1086 56.3115 84.1035C56.3127 84.0984 56.3119 84.0931 56.3092 84.0886C56.3066 84.0841 56.3022 84.0809 56.2971 84.0796Z" fill="#263238"/>
<path d="M51.6233 81.7112C50.5544 81.6993 49.3162 82.081 48.6529 82.959C48.6291 82.9924 48.6768 83.0282 48.7078 83.0115C49.6416 82.5186 50.6254 82.1267 51.6423 81.8424C51.6581 81.8381 51.6717 81.8282 51.6806 81.8146C51.6895 81.8009 51.6932 81.7845 51.6908 81.7684C51.6885 81.7522 51.6803 81.7375 51.6679 81.727C51.6554 81.7165 51.6395 81.7109 51.6233 81.7112Z" fill="#263238"/>
<path d="M52.4545 82.0312C51.3832 82.0312 50.145 82.4034 49.4841 83.279C49.4579 83.3148 49.5056 83.3506 49.539 83.3339C50.4715 82.8392 51.4545 82.4465 52.4711 82.1625C52.4867 82.1582 52.5001 82.1485 52.5091 82.1351C52.518 82.1217 52.5218 82.1056 52.5197 82.0896C52.5177 82.0737 52.51 82.059 52.498 82.0482C52.486 82.0375 52.4705 82.0315 52.4545 82.0312Z" fill="#263238"/>
<path d="M53.2795 82.3526C52.2107 82.3526 50.9724 82.7224 50.3092 83.6003C50.2853 83.6337 50.333 83.6695 50.3641 83.6528C51.2979 83.1599 52.2816 82.768 53.2986 82.4838C53.3143 82.4795 53.3279 82.4696 53.3368 82.4559C53.3458 82.4423 53.3494 82.4259 53.3471 82.4097C53.3447 82.3936 53.3365 82.3789 53.3241 82.3683C53.3117 82.3578 53.2958 82.3522 53.2795 82.3526Z" fill="#263238"/>
<path d="M54.1066 82.6712C53.0353 82.6592 51.7971 83.041 51.1363 83.9189C51.11 83.9523 51.1601 83.9881 51.1911 83.9714C52.1248 83.4781 53.1086 83.0862 54.1257 82.8024C54.1414 82.7981 54.155 82.7882 54.1639 82.7745C54.1728 82.7609 54.1765 82.7445 54.1741 82.7283C54.1718 82.7122 54.1636 82.6975 54.1512 82.687C54.1387 82.6764 54.1229 82.6708 54.1066 82.6712Z" fill="#263238"/>
<path d="M42.2267 83.8662C41.0338 83.8662 41.0338 85.7391 42.2267 85.7319C43.4196 85.7248 43.4291 83.8591 42.2267 83.8662Z" fill="#263238"/>
<path d="M52.7716 78.8544C52.23 78.4059 51.5477 78.8544 51.216 79.3149C50.664 80.1287 50.335 81.0731 50.2617 82.0538C50.2617 82.0753 50.2784 82.0848 50.2951 82.0848C50.2994 82.105 50.3084 82.1239 50.3214 82.1398C50.3345 82.1558 50.3512 82.1684 50.3701 82.1766C50.389 82.1848 50.4097 82.1883 50.4302 82.1869C50.4508 82.1854 50.4708 82.1791 50.4884 82.1683C51.247 81.641 52.125 81.1687 52.7 80.4219C53.0269 79.9877 53.2941 79.2719 52.7716 78.8544ZM51.4689 81.1305C51.1015 81.4001 50.7222 81.6506 50.3643 81.9345C50.5552 81.4001 50.7198 80.8609 50.9631 80.3456C51.0756 80.0985 51.2047 79.8593 51.3496 79.6298C51.5882 79.2743 52.6284 78.3773 52.7382 79.5392C52.8002 80.1762 51.9055 80.8108 51.4689 81.1305Z" fill="#263238"/>
<path d="M47.5985 82.4606C48.529 82.599 49.4905 82.3318 50.4042 82.1862C50.4241 82.1811 50.4424 82.1713 50.4578 82.1578C50.4732 82.1442 50.4852 82.1273 50.4929 82.1082C50.5005 82.0892 50.5036 82.0687 50.5019 82.0482C50.5002 82.0278 50.4937 82.0081 50.483 81.9906C50.4864 81.9879 50.4892 81.9845 50.4912 81.9806C50.4931 81.9766 50.4941 81.9723 50.4941 81.9679C50.4941 81.9635 50.4931 81.9592 50.4912 81.9553C50.4892 81.9514 50.4864 81.9479 50.483 81.9453C49.7488 81.2905 48.8552 80.8404 47.892 80.6402C47.3289 80.5329 46.5321 80.6879 46.4605 81.387C46.3746 82.0455 47.0546 82.3747 47.5985 82.4606ZM46.9496 81.8546C46.2339 80.9385 47.6009 80.8597 48.0113 80.9552C48.2775 81.0218 48.539 81.1062 48.7938 81.208C49.3156 81.4244 49.8261 81.6673 50.3231 81.9357C49.8698 81.981 49.4237 82.0622 48.9728 82.1242C48.4336 82.1958 47.3504 82.358 46.9496 81.8546Z" fill="#263238"/>
<path d="M23.3086 31.8438C23.3086 31.8438 35.6837 52.896 36.0153 54.3752C36.5235 56.6464 39.217 79.0753 39.217 79.0753L52.1003 78.8367C52.1003 78.8367 49.8815 59.0609 47.7797 52.5453C46.2671 47.8524 35.3449 32.2875 35.3449 32.2875L23.3086 31.8438Z" fill="#37474F"/>
<path d="M50.9291 76.8684C49.0801 76.8541 42.5264 76.7802 40.0642 77.0092C40.0451 77.0092 40.0475 77.0426 40.0642 77.045C40.9112 77.1667 49.0777 76.9782 50.9267 76.9185C50.9306 76.9199 50.9347 76.9204 50.9388 76.9199C50.9429 76.9194 50.9468 76.918 50.9502 76.9157C50.9536 76.9134 50.9565 76.9104 50.9585 76.9068C50.9605 76.9032 50.9617 76.8992 50.9619 76.8951C50.962 76.891 50.9613 76.8869 50.9596 76.8832C50.9579 76.8794 50.9554 76.8761 50.9522 76.8735C50.949 76.8709 50.9453 76.8691 50.9413 76.8682C50.9372 76.8673 50.9331 76.8674 50.9291 76.8684Z" fill="#263238"/>
<path d="M25.4213 33.7753C26.2325 35.0469 27.0914 36.2923 27.9168 37.5544C28.7423 38.8164 29.5726 40.0785 30.3909 41.3382C32.0228 43.8831 33.6133 46.4446 35.1625 49.0229C35.9185 50.218 36.5653 51.4788 37.095 52.79C37.5785 54.1016 37.9418 55.4543 38.1805 56.8316C38.4334 58.2129 38.6004 59.6086 38.7555 61.0043C38.9145 62.4883 39.0808 63.973 39.2541 65.4586C39.5929 68.4981 39.9325 71.5376 40.2729 74.5771C40.3134 74.9493 40.354 75.3214 40.3921 75.696C40.3921 75.7509 40.2991 75.7604 40.2919 75.696C39.9126 72.678 39.5977 69.648 39.2541 66.63C39.0823 65.1238 38.9114 63.6183 38.7412 62.1137C38.5813 60.7132 38.4286 59.3104 38.2115 57.9195C38.0123 56.5466 37.7092 55.1907 37.3049 53.8636C36.8595 52.4895 36.2625 51.1692 35.5251 49.9271C34.034 47.3528 32.4546 44.8239 30.8752 42.2925C29.2958 39.7612 27.6735 37.2084 26.0082 34.7081C25.803 34.4003 25.5955 34.0926 25.3808 33.7896C25.364 33.7729 25.407 33.7514 25.4213 33.7753Z" fill="#263238"/>
<path d="M27.3645 88.1699C26.7776 88.1341 11.6182 81.9931 11.1983 81.411C11.1796 81.3767 11.1713 81.3377 11.1745 81.2988C11.1745 80.7763 12.2266 78.9536 13.1046 76.5583C13.1595 76.4056 13.5507 75.6946 14.0923 74.7379C15.5977 72.1159 18.2221 67.5996 18.2221 67.5996L28.1303 71.5362L23.3873 78.6339L22.6501 80.3517C22.6501 80.3517 27.3 85.159 27.6913 85.839C28.0826 86.5189 27.949 88.2033 27.3645 88.1699Z" fill="#EB9481"/>
<path d="M27.3645 88.1683C26.7776 88.1326 11.6182 81.9915 11.1983 81.4094C11.1796 81.3751 11.1713 81.3362 11.1745 81.2973C11.1745 80.7748 12.2266 78.952 13.1046 76.5567C13.1595 76.404 13.5507 75.693 14.0923 74.7363L23.3969 78.6323L22.6597 80.3501C22.6597 80.3501 27.3096 85.1575 27.7009 85.8374C28.0921 86.5174 27.949 88.2017 27.3645 88.1683Z" fill="white"/>
<path d="M27.3636 88.1683C26.7767 88.1325 11.6173 81.9915 11.1974 81.4093C11.0352 81.1875 11.7128 79.119 13.1061 76.5566L22.6492 80.3524C22.6492 80.3524 27.2992 85.155 27.6928 85.8398C28.0865 86.5245 27.9481 88.2017 27.3636 88.1683Z" fill="#A6A6A6"/>
<path d="M27.3887 87.4926C24.9338 86.4381 14.9277 82.4156 12.4203 81.5615C12.3988 81.5615 12.394 81.5615 12.4203 81.5758C14.8323 82.6733 24.8693 86.6146 27.3792 87.5403C27.4269 87.5522 27.4412 87.5141 27.3887 87.4926Z" fill="#263238"/>
<path d="M26.9569 84.9304C26.6847 84.8108 26.3906 84.749 26.0933 84.749C25.796 84.749 25.5019 84.8108 25.2296 84.9304C24.7402 85.1447 24.3522 85.5395 24.1465 86.0326C24.1465 86.0469 24.168 86.0589 24.1751 86.0445C24.4564 85.5871 24.8783 85.2331 25.3777 85.0357C25.8771 84.8383 26.427 84.808 26.945 84.9495C26.949 84.9483 26.9525 84.9458 26.9547 84.9422C26.9569 84.9387 26.9577 84.9345 26.9569 84.9304Z" fill="#263238"/>
<path d="M23.517 80.9854C22.5317 80.5727 21.2386 80.4629 20.2962 81.0284C20.2604 81.0498 20.2962 81.0999 20.3272 81.0976C21.3777 80.991 22.4366 80.9966 23.486 81.1143C23.5021 81.116 23.5184 81.1118 23.5317 81.1025C23.5449 81.0931 23.5544 81.0793 23.5582 81.0635C23.562 81.0477 23.5599 81.0311 23.5523 81.0167C23.5447 81.0023 23.5322 80.9912 23.517 80.9854Z" fill="#263238"/>
<path d="M24.1615 81.5919C23.1762 81.1791 21.8831 81.0694 20.9407 81.6348C20.9049 81.6563 20.9407 81.7064 20.9717 81.704C22.0222 81.5962 23.0813 81.6018 24.1305 81.7207C24.1467 81.7225 24.1629 81.7183 24.1762 81.7089C24.1895 81.6996 24.1989 81.6857 24.2027 81.6699C24.2065 81.6541 24.2044 81.6375 24.1968 81.6231C24.1893 81.6088 24.1767 81.5976 24.1615 81.5919Z" fill="#263238"/>
<path d="M24.8131 82.1973C23.8253 81.7846 22.5322 81.6748 21.5922 82.2403C21.5541 82.2617 21.5922 82.3119 21.6209 82.3095C22.6713 82.2017 23.7304 82.2073 24.7796 82.3262C24.7961 82.3289 24.813 82.3254 24.8271 82.3163C24.8411 82.3072 24.8512 82.2932 24.8554 82.277C24.8596 82.2609 24.8575 82.2437 24.8497 82.229C24.8419 82.2142 24.8288 82.2029 24.8131 82.1973Z" fill="#263238"/>
<path d="M25.4595 82.8012C24.4718 82.3884 23.1811 82.2787 22.2387 82.8417C22.2005 82.8656 22.2387 82.9157 22.2673 82.9133C23.3178 82.8055 24.3769 82.8111 25.4261 82.93C25.4426 82.9328 25.4595 82.9293 25.4735 82.9202C25.4876 82.9111 25.4976 82.8971 25.5018 82.8809C25.506 82.8647 25.504 82.8476 25.4962 82.8328C25.4884 82.8181 25.4753 82.8068 25.4595 82.8012Z" fill="#263238"/>
<path d="M13.9946 79.4548C12.8804 79.0111 12.1885 80.7455 13.3075 81.1893C14.4264 81.633 15.1207 79.8986 13.9946 79.4548Z" fill="#263238"/>
<path d="M25.6518 78.7647C25.3154 78.1468 24.5209 78.2995 24.0366 78.6073C23.2208 79.1538 22.5626 79.9049 22.128 80.7855C22.1261 80.7894 22.125 80.7936 22.125 80.7979C22.125 80.8022 22.1259 80.8065 22.1277 80.8104C22.1296 80.8143 22.1323 80.8177 22.1356 80.8204C22.1389 80.8231 22.1429 80.8251 22.1471 80.8261C22.1471 80.9048 22.1995 80.9978 22.2926 80.9787C23.1968 80.7712 24.1869 80.6638 24.9981 80.1867C25.4633 79.9099 25.9691 79.3493 25.6518 78.7647ZM23.5881 80.3847C23.1467 80.4968 22.7029 80.5875 22.2663 80.7163C22.6275 80.2812 23.0105 79.8647 23.4139 79.4685C23.6125 79.2794 23.8237 79.1041 24.0461 78.9437C24.3921 78.7051 25.6995 78.2637 25.3655 79.3827C25.1818 80.0006 24.1153 80.2511 23.5881 80.3847Z" fill="#263238"/>
<path d="M19.5028 80.1683C20.314 80.6455 21.3041 80.7576 22.2059 80.9676C22.2989 80.989 22.361 80.896 22.3538 80.8149C22.3583 80.8144 22.3626 80.8128 22.3662 80.8102C22.3699 80.8075 22.3728 80.804 22.3747 80.8C22.3767 80.7959 22.3775 80.7914 22.3772 80.7869C22.3768 80.7824 22.3754 80.7781 22.3729 80.7743C21.9389 79.892 21.2807 79.1392 20.4643 78.5913C19.9871 78.2812 19.1879 78.1261 18.8491 78.7416C18.5103 79.3572 19.028 79.8892 19.5028 80.1683ZM19.1306 79.3619C18.799 78.243 20.104 78.6867 20.4499 78.9277C20.6721 79.0884 20.8826 79.2646 21.0798 79.455C21.4824 79.852 21.8647 80.2693 22.225 80.7051C21.7884 80.5763 21.3446 80.4833 20.9032 80.3711C20.3688 80.228 19.3119 79.9894 19.1306 79.3619Z" fill="#263238"/>
<path d="M24.158 78.2361L13.0664 73.758C13.0664 73.758 26.8181 53.5384 26.9183 52.033C27.009 50.7017 20.9681 39.102 20.732 35.7213C20.4743 32.0711 22.2302 29.2487 24.1627 27.4951L35.6026 32.3597C35.6026 32.3597 34.3954 34.2899 32.5011 35.3658C32.5011 35.3658 38.3677 48.774 38.0337 52.8966C37.6997 57.0193 24.158 78.2361 24.158 78.2361Z" fill="#37474F"/>
<path d="M24.6504 76.1299C23.0471 75.4404 23.5171 75.6145 21.9044 74.937C21.117 74.6077 15.9399 72.4533 15.143 72.2744C15.1263 72.2744 15.1144 72.2983 15.1311 72.3078C15.8206 72.7301 21.0407 74.7938 21.8352 75.1087C23.4599 75.7481 22.9994 75.5477 24.6313 76.168C24.6338 76.1713 24.637 76.1739 24.6407 76.1755C24.6444 76.1772 24.6485 76.1778 24.6525 76.1775C24.6566 76.1771 24.6605 76.1757 24.6638 76.1734C24.6672 76.1711 24.6699 76.168 24.6717 76.1644C24.6736 76.1607 24.6744 76.1567 24.6742 76.1526C24.6741 76.1486 24.6728 76.1446 24.6707 76.1412C24.6686 76.1377 24.6656 76.1349 24.662 76.1329C24.6585 76.1309 24.6545 76.1299 24.6504 76.1299Z" fill="#263238"/>
<path d="M34.3751 35.1211C33.1841 35.3988 32.0188 35.7771 30.8919 36.252C30.8873 36.2536 30.8831 36.256 30.8795 36.2592C30.8759 36.2624 30.873 36.2662 30.8709 36.2706C30.8688 36.2749 30.8675 36.2796 30.8673 36.2844C30.867 36.2892 30.8676 36.294 30.8692 36.2985C30.8708 36.3031 30.8732 36.3072 30.8764 36.3108C30.8796 36.3144 30.8834 36.3174 30.8878 36.3195C30.8921 36.3216 30.8968 36.3228 30.9016 36.3231C30.9064 36.3234 30.9112 36.3227 30.9157 36.3212C32.0848 35.98 33.2729 35.6603 34.4228 35.2571C34.5111 35.2261 34.4658 35.102 34.3751 35.1211Z" fill="#263238"/>
<path d="M33.0141 34.6577C32.9029 34.8554 32.8049 35.0602 32.7206 35.2708C32.6383 35.4306 32.5873 35.6047 32.5703 35.7837C32.5703 35.8195 32.618 35.8267 32.6395 35.8052C32.7592 35.662 32.8558 35.5011 32.9258 35.3281C33.0236 35.1396 33.1238 34.9535 33.2169 34.7602C33.2813 34.6195 33.088 34.5288 33.0141 34.6577Z" fill="#263238"/>
<path d="M33.1582 33.5764C33.2297 33.3999 33.2989 33.2257 33.3729 33.0492C33.4468 32.8726 33.5399 32.6913 33.6115 32.5052C33.6115 32.4766 33.6687 32.5052 33.6568 32.5267C33.5852 32.7032 33.5399 32.8893 33.485 33.0706C33.4301 33.252 33.3681 33.4333 33.3085 33.6146C33.1963 33.951 33.0699 34.285 32.9148 34.6119C33.1025 34.6212 33.29 34.5886 33.4635 34.5164C33.6408 34.403 33.7771 34.2358 33.8524 34.0393C33.9526 33.8436 34.0457 33.6432 34.1483 33.4476C34.2745 33.2361 34.3808 33.0132 34.4656 32.782C34.4656 32.7533 34.5228 32.782 34.5109 32.8034C34.3553 33.2924 34.1515 33.7648 33.9025 34.2134C33.7952 34.3876 33.7117 34.5713 33.516 34.6381C33.3043 34.6973 33.0826 34.7128 32.8647 34.6834C32.8361 34.6834 32.8027 34.6834 32.8122 34.6405C32.9099 34.2803 33.0254 33.9252 33.1582 33.5764Z" fill="#263238"/>
<path d="M32.6697 35.8036C33.0777 36.6648 33.4355 37.5237 33.8149 38.3826C34.1942 39.2415 34.5306 40.0717 34.8718 40.9259C35.5541 42.6484 36.1649 44.4043 36.7017 46.1746C36.9665 47.0526 37.2122 47.9377 37.4317 48.83C37.6735 49.7194 37.8505 50.6252 37.9614 51.5402C38.0571 52.4538 37.9761 53.3772 37.7228 54.2601C37.4597 55.1328 37.122 55.9813 36.7136 56.7961C36.4631 57.3115 36.3796 57.2423 36.4989 56.9822C36.84 56.2426 37.7347 54.0024 37.6703 52.12C37.6181 51.2188 37.4791 50.3248 37.2552 49.4503C37.0468 48.5485 36.8122 47.6538 36.5514 46.7663C36.0432 45.0151 35.4396 43.2997 34.8193 41.5867C34.471 40.6324 34.1035 39.6781 33.7457 38.7238C33.3878 37.7695 33.0299 36.8915 32.6291 35.837C32.6172 35.794 32.6578 35.7773 32.6697 35.8036Z" fill="#263238"/>
<path d="M24.2495 32.9577C24.4475 32.8837 24.7266 33.0054 24.927 33.0388C25.1866 33.0829 25.4488 33.1092 25.7119 33.1175C25.9723 33.1267 26.233 33.1179 26.4921 33.0913C26.7531 33.0846 27.0088 33.0167 27.2389 32.8933C27.6162 32.6184 27.9398 32.2762 28.1932 31.8841C28.4951 31.4834 28.7445 31.0456 28.9351 30.5814C28.9351 30.5528 28.9852 30.5814 28.9757 30.6005C28.8922 30.8654 28.8302 31.1326 28.7371 31.3926C28.6343 31.6369 28.5114 31.8724 28.3697 32.0964C28.14 32.5473 27.8003 32.933 27.382 33.2177C26.9215 33.4802 26.3299 33.4563 25.8169 33.4349C25.5194 33.4175 25.2236 33.3784 24.9318 33.318C24.7218 33.2726 24.3687 33.2392 24.2351 33.0555C24.2289 33.0485 24.2242 33.0402 24.2215 33.0311C24.2188 33.0221 24.2181 33.0126 24.2194 33.0033C24.2208 32.9939 24.2242 32.985 24.2294 32.9771C24.2346 32.9693 24.2414 32.9626 24.2495 32.9577Z" fill="#263238"/>
<path d="M16.2339 71.6382C18.0566 68.8771 19.846 66.0937 21.6019 63.288C23.3579 60.4823 25.0899 57.6551 26.7982 54.8065C27.2061 54.1265 27.6761 53.449 27.9386 52.6951C28.2249 51.8767 28.0626 51.0823 27.805 50.2806C27.3184 48.8182 26.7497 47.3845 26.1015 45.9862C25.4621 44.5762 24.7726 43.1901 24.0951 41.7991C23.4175 40.4082 22.7089 39.034 22.1864 37.5834C21.7093 36.1973 21.516 34.7611 21.8882 33.3248C22.2604 31.8886 23.062 30.6193 23.8994 29.424C24.1189 29.1091 24.3456 28.7966 24.5675 28.4697C24.5842 28.4459 24.6199 28.4697 24.6032 28.4984C23.6799 29.7437 22.7805 31.0631 22.2389 32.5256C21.9621 33.2465 21.8073 34.0084 21.7809 34.7801C21.7763 35.5635 21.898 36.3425 22.1411 37.0872C22.5896 38.5378 23.2982 39.9096 23.9591 41.2743C24.6199 42.6389 25.3261 44.0513 25.9775 45.4566C26.6494 46.8709 27.2467 48.3194 27.7668 49.7963C27.9887 50.4524 28.244 51.1395 28.2249 51.8433C28.2082 52.6139 27.8408 53.3082 27.459 53.9571C25.789 56.7843 24.0784 59.5781 22.3367 62.3551C20.5951 65.1322 18.8034 67.9092 16.9902 70.6577L16.3031 71.6955C16.2673 71.7384 16.2053 71.6883 16.2339 71.6382Z" fill="#263238"/>
<path d="M36.237 19.5001C37.2701 21.7666 42.4878 24.8896 44.9309 25.226C46.6868 25.4645 52.0262 25.5504 53.8561 25.2713C56.0033 24.9421 54.3619 19.1565 53.095 19.3068C49.6118 19.7124 46.6534 20.1657 45.7229 20.1657C44.5873 20.1657 38.4439 18.195 37.7043 17.9159C35.8911 17.2407 35.6525 18.2141 36.237 19.5001Z" fill="#EB9481"/>
<path d="M36.2716 20.1067C37.5791 22.0415 41.9236 25.2051 41.9236 25.2051L42.5272 23.8691L44.5241 19.4506C44.5241 19.4506 40.5327 18.198 37.9059 17.6254C37.5968 17.5551 37.2824 17.5104 36.9659 17.4918C35.2887 17.4012 35.1432 18.4366 36.2716 20.1067Z" fill="url(#paint0_linear_288_17946)"/>
<path d="M36.2716 20.1034C37.5791 22.0383 41.9236 25.2019 41.9236 25.2019L42.5272 23.8658C40.9072 21.9834 38.4045 19.1324 36.9659 17.4934C35.2887 17.398 35.1432 18.4334 36.2716 20.1034Z" fill="#263238"/>
<path d="M41.1418 24.3056C41.4735 23.492 42.9479 20.2164 43.3153 19.534C43.3392 19.4863 43.3773 19.4911 43.3559 19.534C42.7163 21.163 41.9883 22.7559 41.1752 24.3056C41.1657 24.3342 41.1275 24.3247 41.1418 24.3056Z" fill="#263238"/>
<path d="M52.4551 19.3686C54.5737 19.0919 57.1957 18.6171 59.4168 19.5595C59.6663 19.6574 59.8756 19.8364 60.0109 20.0677C61.0129 20.4733 61.1227 21.0673 61.1227 21.0673C61.941 21.7306 61.9696 22.3556 61.9696 22.3556C61.9696 22.3556 63.1434 22.8328 62.9645 23.601C62.7689 24.4504 61.1608 23.601 59.9918 23.6702C57.3078 23.8372 53.5502 24.8225 52.7748 24.9466L52.4551 19.3686Z" fill="#EB9481"/>
<path d="M57.0579 21.8677C57.8427 21.814 58.6303 21.814 59.4151 21.8677C60.2698 21.9749 61.1151 22.1464 61.944 22.3807C61.9494 22.3826 61.9553 22.3822 61.9605 22.3798C61.9656 22.3773 61.9696 22.3729 61.9715 22.3675C61.9734 22.3622 61.973 22.3562 61.9706 22.3511C61.9681 22.346 61.9637 22.342 61.9583 22.3401C60.4011 21.7291 58.706 21.5575 57.0579 21.8439C57.0198 21.8391 57.0198 21.8701 57.0579 21.8677Z" fill="#263238"/>
<path d="M56.559 19.3883C57.8688 19.4551 58.6871 19.6651 60.0041 20.0611V20.0468C58.5535 19.4408 57.9594 19.3835 56.5518 19.3311C56.5065 19.3501 56.5089 19.3883 56.559 19.3883Z" fill="#263238"/>
<path d="M56.7716 24.0742C56.4304 24.2341 56.5139 24.413 57.1653 24.5633C57.8166 24.7136 60.5244 24.7589 60.429 25.7037C60.3336 26.6485 56.5139 26.5292 55.4475 26.1952C54.381 25.8612 52.7754 24.945 52.7754 24.945C53.5317 24.8186 55.3067 24.339 56.7716 24.0742Z" fill="#EB9481"/>
<path d="M39.0734 23.1137C39.0567 23.5216 39.0185 23.9368 38.9612 24.3495C38.9612 24.3328 38.9612 24.3185 38.9779 24.3042C39.0567 24.0894 39.1354 23.87 39.2308 23.6624C39.2308 23.6624 39.2547 23.6624 39.2523 23.6624C39.2065 23.8898 39.1377 24.112 39.0471 24.3256C39.0042 24.4282 38.9636 24.5284 38.9183 24.6286C38.8897 24.8123 38.8563 24.9937 38.8205 25.175C38.7489 25.5161 38.4268 26.9667 38.3433 27.2124C38.329 27.2625 38.267 27.2506 38.2717 27.1934C38.2884 26.9262 38.558 25.4159 38.6129 25.0724C38.7195 24.409 38.8621 23.752 39.04 23.1041C39.0519 23.0922 39.0758 23.1017 39.0734 23.1137Z" fill="#263238"/>
<path d="M36.5924 33.9606C35.9554 34.2875 35.1347 34.7956 31.4367 34.068C31.1982 34.0203 30.9739 33.963 30.7401 33.8938C27.2735 32.8536 23.1056 28.7763 22.8789 28.4876C22.8789 28.4876 28.3877 19.5576 35.4329 16.7495C36.3038 16.4036 37.7448 17.0716 38.5345 17.9042C38.8184 18.2025 39.4363 20.395 39.2001 22.17C38.9639 23.9451 37.2271 33.6338 36.5924 33.9606Z" fill="url(#paint1_linear_288_17946)"/>
<path d="M36.0969 22.0908C36.1235 22.4682 36.0707 22.8469 35.9419 23.2026C35.9116 22.8251 35.9646 22.4456 36.0969 22.0908Z" fill="white"/>
<path d="M33.6952 28.1709C33.7104 28.3587 33.704 28.5476 33.6761 28.7339C33.6531 28.9217 33.6075 29.1059 33.5401 29.2827C33.5237 29.0941 33.5301 28.9043 33.5592 28.7172C33.5836 28.5305 33.6292 28.3472 33.6952 28.1709Z" fill="white"/>
<path d="M29.6125 23.5723C29.6393 23.9504 29.5865 24.33 29.4574 24.6864C29.4274 24.3082 29.4803 23.9279 29.6125 23.5723Z" fill="white"/>
<path d="M37.6698 27.8613C37.685 28.0499 37.6786 28.2396 37.6507 28.4268C37.6278 28.6145 37.5821 28.7988 37.5147 28.9755C37.4983 28.7869 37.5047 28.5971 37.5338 28.4101C37.5579 28.2225 37.6036 28.0384 37.6698 27.8613Z" fill="white"/>
<path d="M32.4258 22.7862C32.6135 22.7702 32.8024 22.7758 32.9888 22.8029C33.1767 22.8267 33.3609 22.8732 33.5376 22.9413C33.1602 22.9684 32.7813 22.9156 32.4258 22.7862Z" fill="white"/>
<path d="M27.793 27.1776C28.1703 27.151 28.5491 27.2038 28.9047 27.3327C28.5273 27.3629 28.1478 27.31 27.793 27.1776Z" fill="white"/>
<path d="M33.25 31.9337C33.6274 31.9066 34.0062 31.9594 34.3618 32.0887C33.9843 32.1185 33.6049 32.0656 33.25 31.9337Z" fill="white"/>
<path d="M26.3652 30.2049C26.7426 30.1783 27.1213 30.2312 27.477 30.36C27.0995 30.3898 26.7201 30.3369 26.3652 30.2049Z" fill="white"/>
<path d="M36.0605 17.8143C36.4379 17.7877 36.8166 17.8405 37.1723 17.9694C36.795 17.996 36.4162 17.9432 36.0605 17.8143Z" fill="white"/>
<path d="M34.7117 19.3379C34.5911 19.4829 34.4533 19.6127 34.3014 19.7244C34.1535 19.8387 33.9935 19.9363 33.8242 20.0155C33.944 19.8714 34.0801 19.7417 34.2298 19.629C34.379 19.5142 34.5407 19.4166 34.7117 19.3379Z" fill="white"/>
<path d="M27.3665 23.6631C27.2444 23.8068 27.1058 23.9357 26.9537 24.0472C26.8074 24.1637 26.6471 24.2615 26.4766 24.3383C26.5993 24.1951 26.7377 24.0663 26.8893 23.9542C27.036 23.8382 27.1962 23.7404 27.3665 23.6631Z" fill="white"/>
<path d="M36.5403 25.6133C36.4182 25.7578 36.2797 25.8875 36.1275 25.9998C35.9809 26.1158 35.8206 26.2135 35.6504 26.2908C35.7724 26.1464 35.911 26.0167 36.0631 25.9043C36.2106 25.7895 36.3707 25.6919 36.5403 25.6133Z" fill="white"/>
<path d="M30.6008 29.3555C30.4788 29.4999 30.3403 29.6297 30.1881 29.742C30.0412 29.8576 29.881 29.9553 29.7109 30.033C29.833 29.8886 29.9715 29.7588 30.1237 29.6465C30.2712 29.5317 30.4313 29.4341 30.6008 29.3555Z" fill="white"/>
<path d="M38.8176 20.5049C38.6956 20.6494 38.5571 20.7791 38.4049 20.8914C38.2571 21.0057 38.097 21.1033 37.9277 21.1824C38.0498 21.038 38.1883 20.9083 38.3405 20.7959C38.4874 20.6803 38.6476 20.5826 38.8176 20.5049Z" fill="white"/>
<path d="M38.6912 24.8372C38.5468 24.7151 38.417 24.5766 38.3047 24.4244C38.1886 24.2778 38.0909 24.1176 38.0137 23.9473C38.1587 24.0679 38.2884 24.2057 38.4002 24.3576C38.5142 24.5065 38.6117 24.6673 38.6912 24.8372Z" fill="white"/>
<path d="M25.451 27.8245C25.3065 27.7024 25.1768 27.5639 25.0645 27.4117C24.9497 27.2642 24.852 27.1042 24.7734 26.9346C24.9179 27.0566 25.0476 27.1951 25.1599 27.3473C25.2756 27.4942 25.3733 27.6544 25.451 27.8245Z" fill="white"/>
<path d="M37.0819 31.3777C36.9369 31.2571 36.8071 31.1193 36.6954 30.9674C36.581 30.8196 36.4834 30.6595 36.4043 30.4902C36.5488 30.6123 36.6785 30.7508 36.7908 30.903C36.9059 31.0494 37.0036 31.2087 37.0819 31.3777Z" fill="white"/>
<path d="M31.2537 21.2498C31.1093 21.1286 30.9796 20.9909 30.8672 20.8395C30.7534 20.6913 30.6558 20.5313 30.5762 20.3623C30.7212 20.4829 30.8509 20.6207 30.9627 20.7727C31.0765 20.9208 31.1741 21.0808 31.2537 21.2498Z" fill="white"/>
<path d="M31.3573 33.4006C31.2128 33.2786 31.0831 33.1401 30.9708 32.9879C30.8563 32.8402 30.7587 32.6801 30.6797 32.5107C30.8247 32.6314 30.9545 32.7692 31.0662 32.9211C31.181 33.0695 31.2786 33.2303 31.3573 33.4006Z" fill="white"/>
<path d="M32.3471 26.2336C32.2039 26.1109 32.0751 25.9725 31.9629 25.8209C31.8465 25.6746 31.7487 25.5143 31.6719 25.3438C31.8156 25.4658 31.9445 25.6044 32.056 25.7565C32.172 25.9032 32.2697 26.0634 32.3471 26.2336Z" fill="white"/>
<path d="M37.242 20.2826C36.3426 20.1156 35.498 18.2571 35.3906 17.0069C35.3906 16.921 35.8105 16.2411 36.2901 15.3894C36.5811 14.8716 36.8889 14.2871 37.1346 13.7336C37.1847 13.6215 37.4782 14.0008 37.4782 14.0008L38.1176 14.478L40.229 16.0979C39.7262 16.7013 39.2992 17.3639 38.9574 18.071C38.9236 18.1476 38.898 18.2276 38.881 18.3096C38.8801 18.3231 38.8801 18.3366 38.881 18.3501C38.7498 18.8225 38.108 20.4425 37.242 20.2826Z" fill="#EB9481"/>
<path d="M38.8836 18.3221C38.8827 18.3356 38.8827 18.3492 38.8836 18.3627C38.7583 18.3259 38.6362 18.2788 38.5186 18.2219C36.2068 17.1388 37.2255 14.042 37.2255 14.042L38.1321 14.4905L40.2435 16.1105C39.7408 16.7138 39.3137 17.3764 38.9719 18.0835C38.9341 18.1597 38.9045 18.2397 38.8836 18.3221Z" fill="#263238"/>
<path d="M42.6582 9.50879C42.6582 9.50879 43.7151 10.1792 43.7199 11.3721C43.7247 12.565 43.2427 13.7316 43.1425 13.7746C43.0423 13.8175 42.6582 9.50879 42.6582 9.50879Z" fill="#263238"/>
<path d="M37.4116 10.1277C36.777 11.3803 36.8104 15.3287 37.6025 16.3451C38.7525 17.8195 40.9665 18.3277 42.3049 16.87C43.6004 15.4576 43.4668 10.3138 42.5435 9.35472C41.2003 7.93756 38.3516 8.27396 37.4116 10.1277Z" fill="#EB9481"/>
<path d="M40.7822 13.2881C40.7822 13.2881 40.7607 13.3024 40.7631 13.3119C40.7774 13.5815 40.7488 13.8917 40.5078 13.9871C40.5078 13.9871 40.5078 14.0038 40.5078 14.0014C40.806 13.9537 40.8394 13.541 40.7822 13.2881Z" fill="#263238"/>
<path d="M40.5363 13.0132C40.1021 12.9893 40.0878 13.8577 40.491 13.8792C40.8942 13.9007 40.899 13.0323 40.5363 13.0132Z" fill="#263238"/>
<path d="M42.2539 13.2783C42.2539 13.2783 42.2753 13.2783 42.2753 13.3022C42.261 13.5718 42.292 13.8819 42.5354 13.975C42.5354 13.975 42.5354 13.9917 42.5354 13.9893C42.2348 13.944 42.199 13.5312 42.2539 13.2783Z" fill="#263238"/>
<path d="M42.5008 13.0025C42.9327 12.9763 42.9541 13.8447 42.5533 13.8686C42.1525 13.8924 42.1382 13.024 42.5008 13.0025Z" fill="#263238"/>
<path d="M40.2644 12.3528C40.3784 12.3204 40.4906 12.2822 40.6008 12.2383C40.7261 12.2156 40.8402 12.1518 40.9252 12.057C40.9458 12.0223 40.9544 11.9817 40.9497 11.9416C40.945 11.9015 40.9271 11.8641 40.899 11.8351C40.8344 11.786 40.7579 11.7551 40.6774 11.7454C40.5969 11.7358 40.5152 11.7478 40.4409 11.7802C40.2799 11.8233 40.1405 11.9245 40.0496 12.0641C40.0315 12.0974 40.0232 12.1351 40.0259 12.1729C40.0285 12.2107 40.0419 12.2469 40.0645 12.2773C40.0871 12.3077 40.118 12.3309 40.1534 12.3443C40.1888 12.3577 40.2273 12.3607 40.2644 12.3528Z" fill="#263238"/>
<path d="M42.7949 12.7376C42.6789 12.7116 42.5642 12.6798 42.4514 12.6421C42.3257 12.6255 42.209 12.5676 42.1197 12.4775C42.0968 12.4443 42.0857 12.4044 42.0883 12.3641C42.0909 12.3238 42.107 12.2856 42.1341 12.2556C42.1956 12.203 42.2702 12.168 42.3499 12.1541C42.4297 12.1403 42.5117 12.1481 42.5874 12.1769C42.7506 12.2107 42.8952 12.3043 42.9929 12.4393C43.0134 12.4713 43.0241 12.5085 43.0238 12.5464C43.0235 12.5844 43.0121 12.6214 42.9911 12.653C42.9701 12.6846 42.9404 12.7094 42.9056 12.7244C42.8708 12.7395 42.8323 12.744 42.7949 12.7376Z" fill="#263238"/>
<path d="M40.1723 15.8384C40.2367 15.9028 40.2987 15.9887 40.3965 15.9983C40.4968 15.9982 40.596 15.9771 40.6876 15.9362C40.6876 15.9362 40.7043 15.9362 40.6876 15.9506C40.6485 16.003 40.5959 16.0438 40.5354 16.0686C40.4748 16.0934 40.4087 16.1013 40.3441 16.0913C40.2896 16.0765 40.2406 16.0459 40.2033 16.0035C40.166 15.9611 40.1419 15.9087 40.1341 15.8527C40.1322 15.8477 40.1324 15.8421 40.1346 15.8371C40.1369 15.8322 40.141 15.8284 40.146 15.8265C40.1511 15.8246 40.1567 15.8248 40.1616 15.827C40.1666 15.8293 40.1704 15.8334 40.1723 15.8384Z" fill="#263238"/>
<path d="M41.7308 14.6908C41.7308 14.6908 41.7427 15.0916 41.7308 15.2801C41.3642 15.2412 40.9939 15.254 40.6309 15.3182C40.545 15.3373 40.5546 15.2681 40.6524 15.2228C40.9448 15.0892 41.2705 15.046 41.5876 15.0987C41.6067 15.0486 41.5566 14.4784 41.5876 14.4808C41.7319 14.5092 41.8716 14.5573 42.0027 14.624C42.0027 13.7842 41.8691 12.9539 41.8811 12.1141C41.8811 12.0855 41.9264 12.0807 41.9312 12.1141C42.1007 13.0025 42.1806 13.9057 42.1697 14.8101C42.1721 14.9126 41.8023 14.7289 41.7308 14.6908Z" fill="#263238"/>
<path d="M41.1936 15.1334C41.0985 15.3836 40.922 15.5945 40.6926 15.7322C40.3323 15.8778 40.2154 15.5509 40.5781 15.2551C40.7683 15.1589 40.9812 15.1169 41.1936 15.1334Z" fill="#263238"/>
<path d="M40.8205 15.6614C40.7825 15.6924 40.7398 15.7173 40.6941 15.7353C40.3625 15.8689 40.2313 15.6041 40.4985 15.3369C40.6798 15.3512 40.8874 15.418 40.8205 15.6614Z" fill="#303548"/>
<path d="M37.232 13.5033C37.6686 13.6369 38.1696 12.3248 38.3127 11.8333C38.4368 11.3895 38.5799 9.97952 38.6014 9.8817C38.6229 9.78388 40.5101 11.1295 41.6027 10.8098C42.6954 10.4901 43.4374 9.49997 43.4541 9.03952C43.4708 8.57906 42.1038 7.41002 40.9228 7.35038C39.7418 7.29073 38.141 8.78185 38.141 8.78185C38.3343 8.5624 38.5099 8.32785 38.6658 8.08043C38.6467 8.02794 37.8833 8.33332 37.7425 8.87728C37.7425 8.87728 37.8952 8.19256 37.838 8.18063C37.7807 8.1687 37.1866 8.75322 37.3203 9.19698C37.3203 9.19698 36.6331 9.79104 36.5711 10.4424C36.5091 11.0937 36.719 13.3459 37.232 13.5033Z" fill="#263238"/>
<path d="M42.3872 10.5633C42.0622 10.7395 41.7122 10.865 41.3494 10.9354C40.9421 10.9718 40.5321 10.9062 40.1565 10.7446C39.7781 10.5984 39.4265 10.3904 39.1163 10.129C38.8419 9.90478 38.5962 9.63041 38.3027 9.43C38.2288 9.37752 38.1453 9.48488 38.1906 9.55168C38.6802 10.2432 39.3796 10.7586 40.1851 11.0213C40.5592 11.1433 40.9586 11.1661 41.3442 11.0875C41.7297 11.0089 42.0883 10.8315 42.3848 10.5728C42.3848 10.5728 42.392 10.5633 42.3872 10.5633Z" fill="#263238"/>
<path d="M37.6876 13.3856C37.6876 13.3856 37.0101 12.0113 36.3993 12.2332C35.7885 12.4551 36.1607 14.3566 36.7882 14.7049C36.865 14.7546 36.9512 14.7883 37.0413 14.804C37.1315 14.8196 37.224 14.8169 37.3131 14.7959C37.4022 14.775 37.4862 14.7363 37.56 14.6821C37.6337 14.6279 37.6958 14.5594 37.7425 14.4806L37.6876 13.3856Z" fill="#EB9481"/>
<path d="M36.52 12.7754C36.52 12.7754 36.5057 12.7754 36.52 12.7945C36.9542 13.0521 37.1308 13.5102 37.2358 13.9874C37.216 13.9369 37.1855 13.8912 37.1464 13.8537C37.1073 13.8161 37.0604 13.7875 37.0092 13.7698C36.9579 13.7521 36.9034 13.7457 36.8494 13.7512C36.7954 13.7566 36.7433 13.7737 36.6966 13.8013C36.6823 13.8013 36.6966 13.8275 36.6966 13.8275C36.7819 13.8143 36.8693 13.8278 36.9466 13.8662C37.024 13.9047 37.0875 13.9662 37.1284 14.0422C37.1967 14.1696 37.2511 14.304 37.2906 14.4431C37.305 14.4884 37.3837 14.4765 37.3765 14.4264C37.4791 13.8323 37.1451 12.9329 36.52 12.7754Z" fill="#263238"/>
<path d="M33.2158 19.5216C32.7387 22.2247 35.6684 31.3313 37.546 33.0324C40.3398 35.5613 45.505 37.2242 47.3779 37.7658C48.1938 38.0044 50.4508 32.2618 49.6253 31.8824C47.8574 31.0784 42.3653 29.3606 41.8429 28.9312C41.3204 28.5017 38.1711 23.952 36.7683 21.3324C34.8907 17.8062 33.452 18.1546 33.2158 19.5216Z" fill="#EB9481"/>
<path d="M48.2333 31.3779C48.2333 31.3779 50.6716 32.0006 52.2438 32.4802C53.1218 32.7498 54.5867 33.3438 55.1426 33.8353C55.9728 34.5725 58.9742 38.1798 58.1153 38.9266C57.3375 39.6041 55.1521 36.1758 55.1521 36.1758C55.1521 36.1758 57.662 39.4395 56.5836 40.0813C55.5052 40.7231 53.5322 36.5217 53.5322 36.5217C53.5322 36.5217 56.0349 39.9334 54.811 40.4177C53.8853 40.7827 51.9003 37.0776 51.9003 37.0776C51.9003 37.0776 54.0332 40.024 53.0932 40.4416C52.0578 40.9044 50.0131 37.5977 50.0131 37.5977C47.4556 38.2586 45.9573 37.5261 44.9719 36.882C44.7405 36.7245 48.2333 31.3779 48.2333 31.3779Z" fill="#EB9481"/>
<path d="M54.3561 34.9903C54.6663 35.3625 54.9812 35.7394 55.2555 36.1378C55.5299 36.5363 55.79 36.9466 56.0262 37.3689C56.3462 37.9151 56.6023 38.4963 56.7896 39.101C56.3793 38.0512 55.4178 36.6078 55.1434 36.2094C54.8691 35.811 54.6138 35.3983 54.3418 34.9998C54.3346 34.9903 54.349 34.9807 54.3561 34.9903Z" fill="#263238"/>
<path d="M52.8989 35.9561C53.4285 36.376 54.5379 37.9363 54.965 38.9837C54.9841 39.0266 54.965 39.0242 54.934 38.9837C54.6 38.4659 53.2448 36.4619 52.887 35.9632C52.8798 35.9561 52.8917 35.9489 52.8989 35.9561Z" fill="#263238"/>
<path d="M51.4974 36.5685C52.1554 37.2587 52.6754 38.0686 53.029 38.9543C53.0457 38.9972 53.0123 38.99 52.9861 38.9543C52.4922 38.1502 52.1105 37.5228 51.4711 36.5899C51.4616 36.5685 51.483 36.547 51.4974 36.5685Z" fill="#263238"/>
<path d="M35.8763 19.7213C33.6981 16.6412 32.3954 17.7816 32.832 21.1265C33.2424 24.2543 34.3375 27.9809 34.3375 27.9809L39.8248 25.3184C39.8248 25.3184 37.2625 21.6943 35.8763 19.7213Z" fill="url(#paint2_linear_288_17946)"/>
<path d="M37.2026 20.9326C37.2749 21.1066 37.3269 21.2883 37.3576 21.4742C37.3911 21.6607 37.4032 21.8504 37.3934 22.0396C37.3219 21.8647 37.2706 21.6822 37.2407 21.4957C37.2053 21.3102 37.1924 21.1212 37.2026 20.9326Z" fill="white"/>
<path d="M33.9492 22.8047C34.2994 22.6623 34.6762 22.5972 35.0538 22.6139C34.8798 22.6854 34.6981 22.7367 34.5123 22.7666C34.3268 22.802 34.1378 22.8148 33.9492 22.8047Z" fill="white"/>
<path d="M34.0919 18.0156C33.9441 18.3643 33.7237 18.6774 33.4453 18.9342C33.5931 18.5855 33.8135 18.2723 34.0919 18.0156Z" fill="white"/>
<path d="M38.7403 24.2422C38.6679 24.4167 38.5758 24.5824 38.4659 24.736C38.3589 24.8917 38.234 25.0342 38.0938 25.1607C38.2415 24.812 38.4619 24.4989 38.7403 24.2422Z" fill="white"/>
<path d="M34.9224 26.1124C34.7475 26.0408 34.5817 25.9487 34.4286 25.838C34.2729 25.7311 34.1303 25.6062 34.0039 25.4658C34.3526 25.6136 34.6657 25.834 34.9224 26.1124Z" fill="white"/>
<path d="M36.5909 20.6484C36.8844 21.0516 37.1874 21.4453 37.488 21.8413C37.4116 21.6409 37.3448 21.4381 37.2876 21.233H37.3019C37.3615 21.3904 37.4307 21.5455 37.488 21.7101L37.5739 21.9487C37.5813 21.965 37.5876 21.9817 37.593 21.9988C37.8315 22.3066 38.0701 22.6143 38.2896 22.9293C38.5592 23.3062 38.8193 23.6879 39.0817 24.0697C39.3441 24.4514 39.6089 24.9262 39.8929 25.3103C39.9191 25.3437 39.4157 25.5489 39.3608 25.5751C39.306 25.6013 39.2773 25.556 39.3298 25.5393C39.3823 25.5226 39.7831 25.2769 39.7879 25.2721C39.5254 24.8856 39.2225 24.5301 38.9481 24.1556C38.6737 23.781 38.4017 23.4064 38.1369 23.0271C37.6001 22.2541 37.1086 21.4524 36.5742 20.6771L36.5909 20.6484Z" fill="#263238"/>
<path d="M32.9605 23.3384C33.044 23.5006 33.1346 23.6604 33.1991 23.8274L33.2897 24.035C33.1633 23.4409 33.0511 22.8421 32.9199 22.248C33.1728 23.2024 33.4281 24.1782 33.6619 25.1468C33.8838 26.0725 34.1534 27.0077 34.2822 27.9525C34.4486 27.8795 34.621 27.8212 34.7975 27.7783C34.6204 27.893 34.4296 27.9851 34.2297 28.0527C33.9421 27.0919 33.7032 26.1173 33.514 25.1325C33.4543 24.8653 33.3995 24.5981 33.3422 24.3308C33.2802 24.1686 33.2062 24.0135 33.1323 23.8537C33.0583 23.6938 32.9915 23.5149 32.9247 23.3455C32.939 23.336 32.9557 23.3264 32.9605 23.3384Z" fill="#263238"/>
<path d="M34.4196 27.0594C35.1831 26.63 38.3729 24.979 39.0862 24.6737C39.1363 24.6522 39.1626 24.6737 39.1125 24.7071C37.5984 25.5869 36.0373 26.3833 34.4363 27.0928C34.4173 27.0976 34.3982 27.0714 34.4196 27.0594Z" fill="#263238"/>
<path d="M121.841 89.7809H49.1504L59.6598 30.1719H132.35L121.841 89.7809Z" fill="url(#paint3_linear_288_17946)"/>
<path d="M84.5372 23.998H60.7485L59.6582 30.1725H85.117L84.5372 23.998Z" fill="url(#paint4_linear_288_17946)"/>
<g opacity="0.1">
<path opacity="0.1" d="M121.841 89.7799H49.1504L59.6598 30.1709H132.35L121.841 89.7799Z" fill="black"/>
<path opacity="0.1" d="M84.5372 23.998H60.7485L59.6582 30.1725H85.117L84.5372 23.998Z" fill="black"/>
</g>
<path d="M58.1818 26.518C58.0227 25.8353 58.0227 25.1251 58.1818 24.4424C58.3409 25.1251 58.3409 25.8353 58.1818 26.518Z" fill="#263238"/>
<path d="M56.0695 27.1301C55.8266 26.8782 55.6173 26.5959 55.4468 26.2903C55.268 25.991 55.1277 25.6704 55.0293 25.3359C55.2729 25.5864 55.4823 25.8679 55.652 26.1733C55.8304 26.4737 55.9706 26.795 56.0695 27.1301Z" fill="#263238"/>
<path d="M54.5426 28.7156C53.8722 28.5117 53.2576 28.1567 52.7461 27.6777C53.0806 27.775 53.4013 27.9145 53.7004 28.0929C54.0061 28.2644 54.289 28.4736 54.5426 28.7156Z" fill="#263238"/>
<path d="M54.0073 30.8517C53.3245 31.0108 52.6144 31.0108 51.9316 30.8517C52.6144 30.6927 53.3245 30.6927 54.0073 30.8517Z" fill="#263238"/>
<path d="M54.6281 32.9658C54.3751 33.2075 54.093 33.4167 53.7883 33.5885C53.4891 33.7669 53.1685 33.9064 52.834 34.0036C53.0859 33.7607 53.3682 33.5514 53.6738 33.3809C53.9725 33.2017 54.2933 33.0621 54.6281 32.9658Z" fill="#263238"/>
<path d="M56.2136 34.4912C56.0105 35.1626 55.6554 35.7782 55.1758 36.2901C55.2729 35.9552 55.4133 35.6344 55.5933 35.3358C55.7634 35.0291 55.9718 34.7453 56.2136 34.4912Z" fill="#263238"/>
<path d="M58.3485 35.0186C58.4316 35.3581 58.4717 35.7068 58.4677 36.0564C58.4729 36.406 58.4328 36.7548 58.3485 37.0942C58.263 36.7551 58.2228 36.4061 58.2292 36.0564C58.2252 35.7068 58.2653 35.3581 58.3485 35.0186Z" fill="#263238"/>
<path d="M60.4629 34.4188C60.7058 34.6707 60.9151 34.953 61.0856 35.2586C61.2648 35.5573 61.4044 35.8782 61.5007 36.213C61.0211 35.701 60.666 35.0855 60.4629 34.4141V34.4188Z" fill="#263238"/>
<path d="M61.9883 32.8203C62.3231 32.9166 62.6439 33.0562 62.9426 33.2354C63.2482 33.4059 63.5305 33.6152 63.7824 33.8581C63.4476 33.7618 63.1268 33.6223 62.8281 33.443C62.5225 33.2725 62.2402 33.0632 61.9883 32.8203Z" fill="#263238"/>
<path d="M62.5156 30.6818C63.1992 30.5227 63.9101 30.5227 64.5936 30.6818C63.9101 30.8408 63.1992 30.8408 62.5156 30.6818Z" fill="#263238"/>
<path d="M61.9052 28.571C62.1577 28.3296 62.4399 28.1211 62.745 27.9507C63.0431 27.7697 63.364 27.6293 63.6993 27.5332C63.1874 28.0128 62.5718 28.3679 61.9004 28.571H61.9052Z" fill="#263238"/>
<path d="M60.3184 27.0451C60.4166 26.711 60.556 26.3904 60.7335 26.0908C60.9039 25.7851 61.1132 25.5029 61.3562 25.251C61.2599 25.5858 61.1203 25.9066 60.941 26.2053C60.7706 26.5109 60.5613 26.7932 60.3184 27.0451Z" fill="#263238"/>
<path d="M121.733 89.78H48.8878L38.543 32.335H111.391L121.733 89.78Z" fill="url(#paint5_linear_288_17946)"/>
<path d="M63.7873 67.4536C65.4594 67.4536 66.8149 66.0981 66.8149 64.426C66.8149 62.7539 65.4594 61.3984 63.7873 61.3984C62.1153 61.3984 60.7598 62.7539 60.7598 64.426C60.7598 66.0981 62.1153 67.4536 63.7873 67.4536Z" fill="white"/>
<path d="M87.7209 67.4536C89.393 67.4536 90.7485 66.0981 90.7485 64.426C90.7485 62.7539 89.393 61.3984 87.7209 61.3984C86.0488 61.3984 84.6934 62.7539 84.6934 64.426C84.6934 66.0981 86.0488 67.4536 87.7209 67.4536Z" fill="white"/>
<path d="M80.1013 67.9376L79.9343 67.6203C79.9199 67.5917 78.3549 64.7001 75.208 64.7001C72.3451 64.7001 71.6293 67.4223 71.6102 67.5392L71.5243 67.8851L70.8301 67.7181L70.9136 67.3698C70.9136 67.3364 71.7677 63.9844 75.208 63.9844C78.7867 63.9844 80.4973 67.1527 80.5689 67.2887L80.7359 67.6036L80.1013 67.9376Z" fill="white"/>
<path d="M116.927 64.197L116.877 63.9584C117.032 63.925 117.185 63.8892 117.337 63.8486L117.397 64.0872C117.235 64.1278 117.085 64.1636 116.927 64.197Z" fill="#263238"/>
<path d="M118.322 63.8114L118.245 63.5871C118.544 63.4845 118.842 63.3724 119.13 63.2507L119.224 63.4702C118.93 63.5943 118.627 63.7088 118.322 63.8114ZM120.099 63.0503L119.992 62.8403C120.271 62.6948 120.55 62.5373 120.815 62.3632L120.939 62.566C120.667 62.7545 120.383 62.9143 120.099 63.0503ZM121.741 62.0411L121.6 61.8479C121.857 61.6594 122.106 61.4614 122.339 61.2586L122.497 61.4375C122.246 61.6546 122.008 61.8574 121.738 62.0506L121.741 62.0411ZM123.196 60.7719L123.022 60.6072C123.241 60.3687 123.449 60.1301 123.64 59.8915L123.828 60.037C123.63 60.2995 123.418 60.5452 123.201 60.7814L123.196 60.7719ZM124.377 59.245L124.174 59.1185C124.339 58.852 124.486 58.5746 124.613 58.2883L124.833 58.3861C124.698 58.6846 124.545 58.9746 124.374 59.2545L124.377 59.245ZM125.167 57.4747L124.928 57.4079C125.015 57.1086 125.08 56.8031 125.121 56.4941L125.36 56.5252C125.32 56.8496 125.255 57.1703 125.164 57.4842L125.167 57.4747ZM125.431 55.5661H125.193V55.4969C125.193 55.2082 125.176 54.9147 125.147 54.6261L125.386 54.6022C125.417 54.8994 125.433 55.198 125.434 55.4969L125.431 55.5661ZM125.002 53.698C124.938 53.3904 124.858 53.0862 124.763 52.7866L125.002 52.715C125.1 53.0252 125.183 53.3401 125.24 53.6479L125.002 53.698ZM124.436 51.9015C124.322 51.62 124.198 51.3313 124.045 51.0402L124.26 50.9329C124.405 51.2287 124.539 51.5245 124.656 51.8108L124.436 51.9015ZM123.601 50.2004C123.454 49.9404 123.291 49.666 123.124 49.3845L123.327 49.258C123.501 49.5419 123.666 49.8187 123.804 50.0835L123.601 50.2004ZM122.604 48.5805C122.43 48.318 122.253 48.0532 122.072 47.7884L122.27 47.6548C122.451 47.9196 122.628 48.1844 122.802 48.4516L122.604 48.5805ZM121.531 47.0011C121.352 46.7386 121.17 46.4738 120.994 46.2114L121.192 46.0778C121.368 46.3402 121.547 46.605 121.726 46.8651L121.531 47.0011ZM120.464 45.4121C120.29 45.1449 120.121 44.8729 119.954 44.601L120.156 44.4769C120.323 44.7489 120.493 45.0161 120.665 45.2833L120.464 45.4121ZM119.469 43.7731C119.307 43.4844 119.157 43.1981 119.021 42.9238L119.235 42.8164C119.369 43.0884 119.519 43.3699 119.677 43.6562L119.469 43.7731ZM118.622 42.0553C118.496 41.7571 118.384 41.4541 118.279 41.1583L118.517 41.0819C118.618 41.3706 118.73 41.6688 118.854 41.9623L118.622 42.0553ZM118.002 40.235C117.923 39.9248 117.854 39.6075 117.802 39.2807L118.04 39.2425C118.093 39.5479 118.157 39.858 118.236 40.1634L118.002 40.235ZM117.682 38.3263C117.658 38.0329 117.646 37.737 117.646 37.4412V37.3625H117.885V37.4388C117.885 37.7275 117.885 38.0186 117.921 38.3049L117.682 38.3263ZM117.921 36.4177L117.682 36.3938C117.682 36.3294 117.694 36.2626 117.701 36.1934C117.73 35.9382 117.766 35.6829 117.809 35.4395L118.047 35.4801C118.007 35.7187 117.971 35.9692 117.942 36.2197C117.952 36.2936 117.952 36.3581 117.933 36.4249L117.921 36.4177ZM118.252 34.5616L118.014 34.4971C118.102 34.1822 118.205 33.8745 118.319 33.581L118.541 33.6669C118.433 33.9623 118.34 34.2633 118.264 34.5687L118.252 34.5616ZM130.141 33.1706C130.007 33.1706 129.869 33.1516 129.733 33.1325C129.547 33.1062 129.361 33.0752 129.177 33.0394L129.225 32.8008C129.401 32.8342 129.585 32.8653 129.766 32.8915C129.895 32.9082 130.026 32.9201 130.153 32.9273L130.141 33.1706ZM131.121 33.0967L131.071 32.8581C131.371 32.7963 131.658 32.685 131.921 32.5289L132.045 32.7317C131.764 32.9055 131.456 33.0313 131.133 33.1038L131.121 33.0967ZM118.94 32.8128L118.727 32.7006C118.879 32.4161 119.047 32.1405 119.231 31.8752L119.426 32.0111C119.252 32.271 119.093 32.541 118.952 32.8199L118.94 32.8128ZM128.244 32.7985C127.936 32.7008 127.634 32.5869 127.338 32.4573L127.435 32.2378C127.722 32.3652 128.016 32.476 128.316 32.5694L128.244 32.7985ZM132.777 32.0541L132.579 31.9205C132.749 31.674 132.85 31.3865 132.87 31.0878L133.109 31.1045C133.089 31.4468 132.976 31.7773 132.784 32.0613L132.777 32.0541ZM126.479 32.0183C126.199 31.856 125.929 31.6784 125.67 31.4863L125.811 31.2954C126.063 31.4817 126.326 31.6538 126.598 31.8107L126.479 32.0183ZM120.013 31.2739L119.837 31.1141C120.053 30.8738 120.283 30.6468 120.526 30.4341L120.684 30.6131C120.45 30.8225 120.228 31.0455 120.02 31.2811L120.013 31.2739ZM124.926 30.8707C124.688 30.6518 124.463 30.4201 124.25 30.1765L124.429 30.019C124.636 30.2556 124.855 30.481 125.085 30.6942L124.926 30.8707ZM132.691 30.2242C132.555 29.9515 132.366 29.7084 132.135 29.5085L132.293 29.3295C132.546 29.5488 132.755 29.8154 132.906 30.1144L132.691 30.2242ZM121.426 30.0357L121.29 29.8401C121.557 29.6579 121.833 29.4898 122.117 29.3367L122.23 29.5466C121.956 29.6981 121.69 29.8637 121.433 30.0429L121.426 30.0357ZM123.654 29.4154C123.563 29.2866 123.475 29.1554 123.391 29.0194L123.081 29.141L122.991 28.9215L123.265 28.8118C123.222 28.7402 123.179 28.6687 123.139 28.5971L123.346 28.4802C123.394 28.5637 123.442 28.6472 123.492 28.7188C123.625 28.671 123.761 28.6257 123.9 28.5828L123.969 28.8213C123.852 28.8571 123.73 28.8953 123.621 28.9359C123.694 29.0528 123.771 29.1744 123.859 29.277L123.654 29.4154ZM131.367 29.0051C131.136 28.89 130.897 28.7927 130.651 28.714L130.494 28.6639L130.563 28.4253L130.725 28.4778C130.981 28.5593 131.23 28.6606 131.47 28.7808L131.367 29.0051ZM124.883 28.578L124.833 28.3394C125.14 28.2702 125.46 28.213 125.787 28.1676L125.823 28.4062C125.508 28.4563 125.195 28.516 124.89 28.5852L124.883 28.578ZM129.583 28.4492C129.284 28.3967 128.969 28.3561 128.647 28.3275L128.666 28.0889C128.998 28.1175 129.32 28.1581 129.621 28.213L129.583 28.4492ZM126.755 28.3108L126.739 28.0722C127.023 28.0555 127.307 28.046 127.588 28.046H127.705V28.2845H127.59C127.321 28.2917 127.039 28.2989 126.763 28.3179L126.755 28.3108ZM122.723 27.7406C122.595 27.4495 122.485 27.1465 122.378 26.8388L122.616 26.7648C122.716 27.0654 122.828 27.3612 122.952 27.6452L122.723 27.7406ZM122.12 25.9083C122.048 25.6005 121.989 25.2808 121.943 24.954L122.182 24.9206C122.227 25.2355 122.284 25.548 122.354 25.851L122.12 25.9083ZM121.853 23.9997C121.841 23.7849 121.834 23.5654 121.834 23.346C121.834 23.2434 121.834 23.1384 121.834 23.0358H122.072C122.072 23.1384 122.072 23.2386 122.072 23.3412C122.072 23.5559 122.072 23.773 122.089 23.9806L121.853 23.9997ZM122.137 22.091L121.898 22.0672C121.931 21.7522 121.977 21.4302 122.032 21.1129L122.27 21.1534C122.206 21.4707 122.16 21.7761 122.129 22.0958L122.137 22.091ZM122.463 20.2277L122.225 20.1705C122.301 19.8627 122.389 19.5525 122.487 19.2424L122.726 19.3164C122.618 19.6289 122.53 19.9319 122.456 20.2325L122.463 20.2277ZM123.036 18.4217L122.814 18.3358C122.931 18.0376 123.053 17.7393 123.198 17.4507L123.413 17.5556C123.27 17.8419 123.143 18.133 123.029 18.436L123.036 18.4217ZM123.857 16.7206L123.649 16.5989C123.811 16.3246 123.986 16.0502 124.167 15.7878L124.362 15.9238C124.176 16.1862 124.007 16.4534 123.85 16.7254L123.857 16.7206ZM124.933 15.1675L124.747 15.0172C124.947 14.7786 125.162 14.5257 125.384 14.3014L125.555 14.466C125.331 14.6903 125.121 14.9289 124.926 15.1722L124.933 15.1675ZM126.231 13.7932L126.071 13.6167C126.309 13.4044 126.548 13.1944 126.803 12.9916L126.951 13.1801C126.696 13.3829 126.452 13.5905 126.223 13.798L126.231 13.7932ZM127.712 12.6147L127.576 12.4166C127.836 12.2377 128.108 12.0612 128.385 11.8942L128.507 12.0969C128.23 12.2663 127.972 12.4405 127.705 12.6194L127.712 12.6147ZM129.332 11.6293L129.22 11.4194C129.501 11.2691 129.793 11.1259 130.084 10.9923L130.184 11.2094C129.881 11.3454 129.602 11.4886 129.325 11.6341L129.332 11.6293ZM131.057 10.8373L130.969 10.613C131.269 10.4961 131.572 10.3744 131.873 10.2861L131.949 10.5247C131.646 10.6154 131.346 10.7251 131.05 10.842L131.057 10.8373Z" fill="#263238"/>
<path d="M132.898 10.2331L132.838 9.99451C133.134 9.91817 133.315 9.88477 133.315 9.88477L133.358 10.1233C133.358 10.1233 133.186 10.1591 132.898 10.2331Z" fill="#263238"/>
<path d="M137.114 8.69234C136.506 6.80757 132.431 7.48513 133.225 9.94965C134.02 12.4142 137.723 10.5795 137.114 8.69234Z" fill="#263238"/>
<path d="M131.006 7.93936C131.038 7.11149 132.187 6.47449 133.815 6.76794C135.442 7.06139 136.971 8.15885 136.971 8.15885C136.971 8.15885 135.365 9.13226 133.722 9.31119C132.078 9.49013 130.975 8.76485 131.006 7.93936Z" fill="#EBEBEB"/>
<path d="M136.972 8.15386C136.127 8.15386 135.285 8.13001 134.443 8.10376C133.601 8.07752 132.756 8.03458 131.914 7.96777C132.759 7.96777 133.603 7.98924 134.445 8.01549C135.288 8.04173 136.132 8.08468 136.972 8.15386Z" fill="#263238"/>
<path d="M132.643 7.20215C133.122 7.43152 133.574 7.71402 133.991 8.04433C133.751 7.93174 133.518 7.80425 133.294 7.6626C133.068 7.52194 132.851 7.36819 132.643 7.20215Z" fill="#263238"/>
<path d="M134.855 8.0752C134.423 8.42498 133.955 8.72733 133.459 8.97702C133.893 8.62681 134.363 8.32445 134.862 8.0752H134.855Z" fill="#263238"/>
<path d="M135.098 7.61035C135.338 7.72595 135.549 7.89581 135.713 8.10659C135.593 8.04978 135.48 7.97847 135.377 7.89426C135.273 7.81057 135.18 7.71532 135.098 7.61035Z" fill="#263238"/>
<path d="M132.559 12.8418C133.068 13.4955 134.373 13.338 135.52 12.1499C136.668 10.9618 137.276 9.1748 137.276 9.1748C137.276 9.1748 135.396 9.31795 133.962 10.1291C132.528 10.9403 132.049 12.1857 132.559 12.8418Z" fill="#EBEBEB"/>
<path d="M137.277 9.1748C136.59 9.65196 135.922 10.1816 135.251 10.6946C134.581 11.2075 133.925 11.7371 133.283 12.2835C133.97 11.8063 134.638 11.2791 135.306 10.7661C135.974 10.2532 136.626 9.72354 137.277 9.1748Z" fill="#263238"/>
<path d="M134.311 12.4726C134.438 12.2408 134.552 12.0018 134.652 11.7568C134.753 11.5112 134.839 11.2594 134.909 11.0029C134.781 11.2345 134.668 11.4735 134.568 11.7187C134.468 11.9647 134.382 12.2165 134.311 12.4726Z" fill="#263238"/>
<path d="M135.606 10.48C135.047 10.4502 134.488 10.4797 133.936 10.5683C134.214 10.585 134.492 10.585 134.771 10.5683C135.05 10.5546 135.329 10.5252 135.606 10.48Z" fill="#263238"/>
<path d="M136.066 10.7151C136.13 10.5972 136.18 10.4723 136.214 10.3429C136.25 10.2144 136.27 10.0823 136.276 9.94922C136.15 10.1854 136.078 10.4472 136.066 10.7151Z" fill="#263238"/>
<path d="M137.113 8.69336C136.978 8.73711 136.833 8.73989 136.697 8.70136C136.56 8.66282 136.439 8.58469 136.347 8.47688C136.255 8.36906 136.197 8.23639 136.181 8.09569C136.164 7.95498 136.19 7.81256 136.254 7.68646C136.319 7.56036 136.419 7.45625 136.543 7.38732C136.667 7.31839 136.808 7.28773 136.95 7.29924C137.091 7.31075 137.225 7.3639 137.336 7.45196C137.447 7.54002 137.53 7.65903 137.573 7.79392C137.631 7.97426 137.615 8.17018 137.529 8.33877C137.442 8.50736 137.293 8.63487 137.113 8.69336Z" fill="#455A64"/>
<path d="M137.553 10.0569C137.419 10.1004 137.274 10.1031 137.138 10.0645C137.002 10.026 136.88 9.94789 136.788 9.84017C136.696 9.73245 136.639 9.59993 136.622 9.45936C136.606 9.31879 136.631 9.17648 136.695 9.05042C136.76 8.92436 136.86 8.82022 136.984 8.75116C137.107 8.68209 137.248 8.6512 137.39 8.6624C137.531 8.6736 137.665 8.72637 137.776 8.81406C137.887 8.90175 137.97 9.02041 138.014 9.15504C138.043 9.24448 138.054 9.33877 138.046 9.43252C138.039 9.52626 138.013 9.61762 137.97 9.70137C137.928 9.78512 137.869 9.85962 137.797 9.92062C137.726 9.98162 137.643 10.0279 137.553 10.0569Z" fill="#455A64"/>
<path d="M59.3333 9.44639C59.219 10.5422 58.8025 11.5847 58.1301 12.4576C57.4578 13.3304 56.5561 13.9993 55.5257 14.3895C54.4954 14.7797 53.3769 14.876 52.295 14.6675C51.2131 14.459 50.2105 13.954 49.3989 13.2088L46.4238 13.6454L47.9126 11.0735C47.5721 10.2367 47.4269 9.33323 47.4878 8.43184C47.5488 7.53046 47.8144 6.65482 48.2644 5.87145C48.7145 5.08807 49.3371 4.41756 50.0851 3.91085C50.8331 3.40414 51.6867 3.07456 52.5811 2.94713C53.4755 2.8197 54.3872 2.89779 55.2469 3.17545C56.1066 3.45312 56.8918 3.92306 57.5427 4.54958C58.1936 5.17611 58.6932 5.94273 59.0034 6.79122C59.3137 7.63972 59.4265 8.54776 59.3333 9.44639Z" fill="white"/>
<path d="M59.3328 9.44548C59.2209 10.5407 58.808 11.5837 58.1399 12.4587C57.8135 12.9013 57.4198 13.2901 56.9733 13.6111C56.5364 13.9441 56.0544 14.2132 55.5418 14.4103C55.0288 14.6123 54.4899 14.7408 53.9409 14.792C53.6665 14.8167 53.3906 14.8222 53.1154 14.8087C52.8392 14.8016 52.564 14.7729 52.2923 14.7228C51.1959 14.5211 50.1773 14.018 49.3507 13.2699L49.4198 13.2914L46.4495 13.7471L46.2324 13.7805L46.3422 13.5896L47.8214 11.0129V11.1155C47.4723 10.2632 47.3239 9.34209 47.3876 8.4233C47.4513 7.5045 47.7254 6.61266 48.1888 5.81669C48.6515 5.02322 49.2877 4.34465 50.0497 3.83171C50.8105 3.32558 51.6759 2.99827 52.5812 2.87431C53.4865 2.75036 54.4081 2.83298 55.277 3.11597C56.1366 3.40842 56.9199 3.88936 57.5697 4.52359C58.2181 5.15624 58.7138 5.92826 59.0193 6.78106C59.3248 7.63387 59.432 8.54505 59.3328 9.44548ZM59.3328 9.44548C59.4292 8.54949 59.3184 7.64333 59.009 6.79696C58.6996 5.95059 58.1998 5.18665 57.5482 4.56412C56.8966 3.94159 56.1107 3.47714 55.2511 3.2066C54.3915 2.93607 53.4812 2.86669 52.5906 3.00384C51.7088 3.13435 50.8689 3.46576 50.1356 3.97247C49.4086 4.48317 48.8013 5.14582 48.3558 5.91451C47.9171 6.6849 47.6586 7.54459 47.5995 8.42913C47.5414 9.31966 47.6849 10.2118 48.0194 11.0392L48.0409 11.0917L48.0122 11.1418L46.5139 13.7089L46.409 13.5514L49.3864 13.1339H49.427L49.4556 13.1602C50.2515 13.901 51.2379 14.4057 52.3043 14.6179C52.57 14.672 52.8397 14.7047 53.1107 14.7157C53.3815 14.7348 53.6534 14.7348 53.9242 14.7157C54.4674 14.6719 55.002 14.5539 55.5131 14.365C56.0254 14.1785 56.5077 13.918 56.9446 13.592C57.3893 13.2736 57.7835 12.89 58.1137 12.454C58.7904 11.5831 59.2124 10.5417 59.3328 9.44548Z" fill="#263238"/>
<path d="M50.5107 11.6004C50.5062 11.5215 50.5179 11.4424 50.5451 11.3681C50.5724 11.2938 50.6146 11.2259 50.6692 11.1687C50.7238 11.1114 50.7896 11.066 50.8624 11.0352C50.9353 11.0044 51.0138 10.9889 51.0929 10.9897C51.2549 10.9897 51.4102 11.054 51.5247 11.1686C51.6393 11.2831 51.7036 11.4385 51.7036 11.6004C51.7036 11.7624 51.6393 11.9178 51.5247 12.0323C51.4102 12.1469 51.2549 12.2112 51.0929 12.2112C51.0138 12.212 50.9353 12.1965 50.8624 12.1657C50.7896 12.1349 50.7238 12.0895 50.6692 12.0322C50.6146 11.9749 50.5724 11.9071 50.5451 11.8328C50.5179 11.7585 50.5062 11.6794 50.5107 11.6004ZM50.7493 10.1904L50.6109 5.45703H51.5653L51.4269 10.1904H50.7493Z" fill="url(#paint6_linear_288_17946)"/>
<path d="M52.7803 11.6004C52.7757 11.5217 52.7873 11.4428 52.8144 11.3687C52.8416 11.2946 52.8836 11.2268 52.9379 11.1695C52.9922 11.1123 53.0577 11.0668 53.1303 11.0359C53.2029 11.0049 53.2811 10.9892 53.36 10.9897C53.522 10.9897 53.6773 11.054 53.7919 11.1686C53.9064 11.2831 53.9708 11.4385 53.9708 11.6004C53.9708 11.7624 53.9064 11.9178 53.7919 12.0323C53.6773 12.1469 53.522 12.2112 53.36 12.2112C53.2811 12.2117 53.2029 12.1959 53.1303 12.165C53.0577 12.1341 52.9922 12.0886 52.9379 12.0313C52.8836 11.9741 52.8416 11.9063 52.8144 11.8322C52.7873 11.7581 52.7757 11.6792 52.7803 11.6004ZM53.0188 10.1904L52.8876 5.45703H53.8419L53.7036 10.1904H53.0188Z" fill="url(#paint7_linear_288_17946)"/>
<path d="M55.0478 11.6004C55.0433 11.5215 55.055 11.4424 55.0822 11.3681C55.1095 11.2938 55.1517 11.2259 55.2063 11.1687C55.2609 11.1114 55.3267 11.066 55.3995 11.0352C55.4724 11.0044 55.5509 10.9889 55.63 10.9897C55.792 10.9897 55.9473 11.054 56.0618 11.1686C56.1764 11.2831 56.2407 11.4385 56.2407 11.6004C56.2407 11.7624 56.1764 11.9178 56.0618 12.0323C55.9473 12.1469 55.792 12.2112 55.63 12.2112C55.5509 12.212 55.4724 12.1965 55.3995 12.1657C55.3267 12.1349 55.2609 12.0895 55.2063 12.0322C55.1517 11.9749 55.1095 11.9071 55.0822 11.8328C55.055 11.7585 55.0433 11.6794 55.0478 11.6004ZM55.2864 10.1904L55.148 5.45703H56.1024L55.9664 10.1904H55.2864Z" fill="url(#paint8_linear_288_17946)"/>
<defs>
<linearGradient id="paint0_linear_288_17946" x1="33.4953" y1="16.3208" x2="46.1272" y2="29.4838" gradientUnits="userSpaceOnUse">
<stop stop-color="#D51AFF"/>
<stop offset="0.502" stop-color="#4E6AFE"/>
<stop offset="1" stop-color="#8BF3FE"/>
</linearGradient>
<linearGradient id="paint1_linear_288_17946" x1="19.1457" y1="13.9709" x2="47.7402" y2="37.5494" gradientUnits="userSpaceOnUse">
<stop stop-color="#D51AFF"/>
<stop offset="0.502" stop-color="#4E6AFE"/>
<stop offset="1" stop-color="#8BF3FE"/>
</linearGradient>
<linearGradient id="paint2_linear_288_17946" x1="31.1345" y1="16.403" x2="45.9963" y2="25.7667" gradientUnits="userSpaceOnUse">
<stop stop-color="#D51AFF"/>
<stop offset="0.502" stop-color="#4E6AFE"/>
<stop offset="1" stop-color="#8BF3FE"/>
</linearGradient>
<linearGradient id="paint3_linear_288_17946" x1="30.1809" y1="21.1709" x2="125.434" y2="140.238" gradientUnits="userSpaceOnUse">
<stop stop-color="#D51AFF"/>
<stop offset="0.502" stop-color="#4E6AFE"/>
<stop offset="1" stop-color="#8BF3FE"/>
</linearGradient>
<linearGradient id="paint4_linear_288_17946" x1="53.8536" y1="23.0657" x2="58.9567" y2="41.9101" gradientUnits="userSpaceOnUse">
<stop stop-color="#D51AFF"/>
<stop offset="0.502" stop-color="#4E6AFE"/>
<stop offset="1" stop-color="#8BF3FE"/>
</linearGradient>
<linearGradient id="paint5_linear_288_17946" x1="19.5756" y1="23.6608" x2="110.572" y2="141.678" gradientUnits="userSpaceOnUse">
<stop stop-color="#D51AFF"/>
<stop offset="0.502" stop-color="#4E6AFE"/>
<stop offset="1" stop-color="#8BF3FE"/>
</linearGradient>
<linearGradient id="paint6_linear_288_17946" x1="50.2376" y1="4.43715" x2="53.6544" y2="4.97804" gradientUnits="userSpaceOnUse">
<stop stop-color="#D51AFF"/>
<stop offset="0.502" stop-color="#4E6AFE"/>
<stop offset="1" stop-color="#8BF3FE"/>
</linearGradient>
<linearGradient id="paint7_linear_288_17946" x1="52.5076" y1="4.43715" x2="55.918" y2="4.97594" gradientUnits="userSpaceOnUse">
<stop stop-color="#D51AFF"/>
<stop offset="0.502" stop-color="#4E6AFE"/>
<stop offset="1" stop-color="#8BF3FE"/>
</linearGradient>
<linearGradient id="paint8_linear_288_17946" x1="54.7747" y1="4.43715" x2="58.1916" y2="4.97804" gradientUnits="userSpaceOnUse">
<stop stop-color="#D51AFF"/>
<stop offset="0.502" stop-color="#4E6AFE"/>
<stop offset="1" stop-color="#8BF3FE"/>
</linearGradient>
</defs>
</svg>
