<svg width="56" height="50" viewBox="0 0 56 50" fill="none" xmlns="http://www.w3.org/2000/svg">
<path d="M18.832 0.308594H51.749C52.8099 0.308594 53.8273 0.730021 54.5775 1.48017C55.3276 2.23031 55.749 3.24773 55.749 4.30859V13.4606H14.832V4.30859C14.832 3.24773 15.2535 2.23031 16.0036 1.48017C16.7537 0.730021 17.7712 0.308594 18.832 0.308594V0.308594Z" fill="#29C27F"/>
<path d="M55.749 13.4604H14.832V25.1504H55.749V13.4604Z" fill="#19AC65"/>
<path d="M55.749 25.1504H14.832V38.3024H55.749V25.1504Z" fill="#129652"/>
<path d="M14.832 38.3027H55.749V45.9927C55.749 46.518 55.6456 47.0382 55.4445 47.5235C55.2435 48.0088 54.9489 48.4497 54.5775 48.8212C54.206 49.1926 53.7651 49.4872 53.2798 49.6883C52.7945 49.8893 52.2743 49.9927 51.749 49.9927H18.832C17.7712 49.9927 16.7537 49.5713 16.0036 48.8212C15.2535 48.071 14.832 47.0536 14.832 45.9927V38.3027Z" fill="#27663F"/>
<path d="M24.688 13H6C2.68629 13 0 15.6863 0 19V36.226C0 39.5397 2.68629 42.226 6 42.226H24.688C28.0017 42.226 30.688 39.5397 30.688 36.226V19C30.688 15.6863 28.0017 13 24.688 13Z" fill="#0C7238"/>
<path d="M15.745 27.6L18.97 33H16.615L14.575 29.58L12.535 33H10.195L13.405 27.615L10.36 22.5H12.7L14.575 25.65L16.45 22.5H18.79L15.745 27.6Z" fill="white"/>
</svg>
