<svg width="24" height="24" viewBox="0 0 24 24" fill="none" xmlns="http://www.w3.org/2000/svg">
<path d="M9.73312 1.33061C9.02392 1.09259 8.29193 0.962325 7.53594 0.939636H7.40394C7.06795 0.939636 6.73315 0.962325 6.39595 1.01088H6.25195C5.89196 1.05706 5.53316 1.13995 5.18517 1.25837C0.708013 2.70427 -0.887971 7.50024 0.468015 11.6923C1.23601 13.8345 2.47319 15.7777 4.08118 17.3752C6.41995 19.6015 8.97713 21.5672 11.7239 23.2488L12.0359 23.4395L12.3359 23.2606C15.0731 21.5672 17.6158 19.6015 19.933 17.3871C21.5518 15.7896 22.7878 13.8345 23.5438 11.6923C24.877 7.50024 23.281 2.70427 18.8518 1.28324C18.133 1.04522 17.377 0.939636 16.6198 0.939636C14.9519 0.927983 13.3331 1.47271 11.9999 2.47809C11.8919 2.39638 11.7599 2.32414 11.6399 2.25428C11.5199 2.18204 11.3039 2.0056 11.1239 1.91086L10.6679 1.70955C10.4279 1.57929 10.1771 1.48455 9.91192 1.40048C9.88792 1.37798 9.85192 1.35311 9.80392 1.33061H9.73312Z" fill="#FF4B55"/>
</svg>
