<svg width="9" height="9" viewBox="0 0 9 9" fill="none" xmlns="http://www.w3.org/2000/svg">
<path d="M3.60077 7.22607H0.474609" stroke="#646C7D" stroke-width="0.789968" stroke-miterlimit="10" stroke-linecap="round" stroke-linejoin="round"/>
<path d="M8.35393 7.22408C8.35393 7.47069 8.28097 7.71176 8.14427 7.91682C8.00756 8.12188 7.81326 8.28171 7.58592 8.37612C7.35858 8.47052 7.10842 8.49525 6.86706 8.44719C6.62569 8.39912 6.40397 8.28042 6.22992 8.10608C6.05587 7.93174 5.93731 7.7096 5.88922 7.46775C5.84114 7.22589 5.86569 6.97517 5.95977 6.7473C6.05386 6.51942 6.21325 6.32462 6.4178 6.18752C6.62235 6.05042 6.86287 5.97718 7.10895 5.97705C7.27242 5.97697 7.4343 6.00916 7.58534 6.07179C7.73638 6.13443 7.87364 6.22627 7.98925 6.34207C8.10487 6.45788 8.19658 6.59538 8.25915 6.74671C8.32173 6.89805 8.35393 7.06026 8.35393 7.22408Z" stroke="#646C7D" stroke-width="0.789968" stroke-miterlimit="10" stroke-linecap="round" stroke-linejoin="round"/>
<path d="M5.22852 2.14941H8.35499" stroke="#646C7D" stroke-width="0.789968" stroke-miterlimit="10" stroke-linecap="round" stroke-linejoin="round"/>
<path d="M0.476563 2.14644C0.476563 2.39308 0.549542 2.63418 0.686273 2.83925C0.823004 3.04432 1.01735 3.20416 1.24472 3.29854C1.4721 3.39293 1.72229 3.41762 1.96367 3.3695C2.20505 3.32139 2.42678 3.20262 2.6008 3.02822C2.77483 2.85382 2.89334 2.63162 2.94135 2.38972C2.98937 2.14782 2.96472 1.89709 2.87054 1.66922C2.77636 1.44136 2.61687 1.2466 2.41224 1.10958C2.2076 0.972551 1.96702 0.899414 1.72091 0.899414C1.55749 0.899373 1.39566 0.9316 1.24467 0.994254C1.09368 1.05691 0.956489 1.14876 0.840932 1.26457C0.725375 1.38037 0.633718 1.51786 0.571199 1.66917C0.508679 1.82049 0.476521 1.98267 0.476563 2.14644V2.14644Z" stroke="#646C7D" stroke-width="0.789968" stroke-miterlimit="10" stroke-linecap="round" stroke-linejoin="round"/>
</svg>
