<svg width="17" height="17" viewBox="0 0 17 17" fill="none" xmlns="http://www.w3.org/2000/svg">
<path d="M3.25 2.59375C3.07595 2.59375 2.90903 2.66289 2.78596 2.78596C2.66289 2.90903 2.59375 3.07595 2.59375 3.25V5.36837C2.59375 5.62945 2.49004 5.87983 2.30543 6.06443C2.12083 6.24904 1.87045 6.35275 1.60938 6.35275C1.3483 6.35275 1.09792 6.24904 0.913317 6.06443C0.728711 5.87983 0.625 5.62945 0.625 5.36837V3.25C0.625 2.55381 0.901562 1.88613 1.39384 1.39384C1.88613 0.901562 2.55381 0.625 3.25 0.625H5.36837C5.62945 0.625 5.87983 0.728711 6.06443 0.913317C6.24904 1.09792 6.35275 1.3483 6.35275 1.60938C6.35275 1.87045 6.24904 2.12083 6.06443 2.30543C5.87983 2.49004 5.62945 2.59375 5.36837 2.59375H3.25ZM10.6472 1.60938C10.6472 1.3483 10.751 1.09792 10.9356 0.913317C11.1202 0.728711 11.3706 0.625 11.6316 0.625H13.75C14.4462 0.625 15.1139 0.901562 15.6062 1.39384C16.0984 1.88613 16.375 2.55381 16.375 3.25V5.36837C16.375 5.62945 16.2713 5.87983 16.0867 6.06443C15.9021 6.24904 15.6517 6.35275 15.3906 6.35275C15.1296 6.35275 14.8792 6.24904 14.6946 6.06443C14.51 5.87983 14.4062 5.62945 14.4062 5.36837V3.25C14.4062 3.07595 14.3371 2.90903 14.214 2.78596C14.091 2.66289 13.924 2.59375 13.75 2.59375H11.6316C11.3706 2.59375 11.1202 2.49004 10.9356 2.30543C10.751 2.12083 10.6472 1.87045 10.6472 1.60938ZM1.60938 10.6472C1.87045 10.6472 2.12083 10.751 2.30543 10.9356C2.49004 11.1202 2.59375 11.3706 2.59375 11.6316V13.75C2.59375 13.924 2.66289 14.091 2.78596 14.214C2.90903 14.3371 3.07595 14.4062 3.25 14.4062H5.36837C5.62945 14.4062 5.87983 14.51 6.06443 14.6946C6.24904 14.8792 6.35275 15.1296 6.35275 15.3906C6.35275 15.6517 6.24904 15.9021 6.06443 16.0867C5.87983 16.2713 5.62945 16.375 5.36837 16.375H3.25C2.55381 16.375 1.88613 16.0984 1.39384 15.6062C0.901562 15.1139 0.625 14.4462 0.625 13.75V11.6316C0.625 11.3706 0.728711 11.1202 0.913317 10.9356C1.09792 10.751 1.3483 10.6472 1.60938 10.6472ZM15.3906 10.6472C15.6517 10.6472 15.9021 10.751 16.0867 10.9356C16.2713 11.1202 16.375 11.3706 16.375 11.6316V13.75C16.375 14.4462 16.0984 15.1139 15.6062 15.6062C15.1139 16.0984 14.4462 16.375 13.75 16.375H11.6316C11.3706 16.375 11.1202 16.2713 10.9356 16.0867C10.751 15.9021 10.6472 15.6517 10.6472 15.3906C10.6472 15.1296 10.751 14.8792 10.9356 14.6946C11.1202 14.51 11.3706 14.4062 11.6316 14.4062H13.75C13.924 14.4062 14.091 14.3371 14.214 14.214C14.3371 14.091 14.4062 13.924 14.4062 13.75V11.6316C14.4062 11.3706 14.51 11.1202 14.6946 10.9356C14.8792 10.751 15.1296 10.6472 15.3906 10.6472Z" fill="white"/>
</svg>
