<svg width="21" height="23" viewBox="0 0 21 23" fill="none" xmlns="http://www.w3.org/2000/svg">
<path fill-rule="evenodd" clip-rule="evenodd" d="M8.60938 20.4461C9.16191 21.0616 9.87124 21.3997 10.6072 21.3997H10.6083C11.3475 21.3997 12.06 21.0616 12.6136 20.4451C12.9102 20.1176 13.4158 20.0909 13.7432 20.3864C14.0718 20.6819 14.0984 21.1885 13.803 21.516C12.9411 22.4728 11.8072 22.9997 10.6083 22.9997H10.6062C9.41044 22.9987 8.27871 22.4717 7.42004 21.5149C7.12458 21.1875 7.15124 20.6808 7.47978 20.3864C7.80831 20.0899 8.31391 20.1165 8.60938 20.4461ZM10.6604 0.0664062C15.4017 0.0664062 18.5868 3.7592 18.5868 7.20773C18.5868 8.9816 19.038 9.7336 19.5169 10.5315C19.9905 11.3187 20.527 12.2125 20.527 13.9021C20.1548 18.2189 15.6481 18.5709 10.6604 18.5709C5.67263 18.5709 1.1649 18.2189 0.796889 13.9704C0.793703 12.2125 1.33024 11.3187 1.80384 10.5315L1.97103 10.25C2.38269 9.54251 2.73397 8.77291 2.73397 7.20773C2.73397 3.7592 5.91903 0.0664062 10.6604 0.0664062ZM10.6604 1.6664C6.93236 1.6664 4.33397 4.58694 4.33397 7.20773C4.33397 9.42533 3.7185 10.4504 3.1745 11.3549C2.73824 12.0813 2.3937 12.6552 2.3937 13.9021C2.57184 15.9139 3.89983 16.9709 10.6604 16.9709C17.3836 16.9709 18.7532 15.8669 18.9302 13.8328C18.927 12.6552 18.5825 12.0813 18.1462 11.3549C17.6022 10.4504 16.9868 9.42533 16.9868 7.20773C16.9868 4.58694 14.3884 1.6664 10.6604 1.6664Z" fill="white"/>
</svg>
