<svg width="140" height="94" viewBox="0 0 140 94" fill="none" xmlns="http://www.w3.org/2000/svg">
<g clip-path="url(#clip0_2880_21651)">
<path d="M115.695 79.7916C116.262 75.4189 119.084 71.1105 123.426 69.6875C121.714 74.1883 121.714 79.1257 123.427 83.6262C124.095 85.3596 125.025 87.2208 124.397 88.9677C124.007 90.0548 123.051 90.8864 121.983 91.4064C120.915 91.9264 119.73 92.1743 118.56 92.4172L118.329 92.6001C116.471 88.5711 115.129 84.1644 115.695 79.7916Z" fill="#F0F0F0"/>
<path d="M123.47 69.7692C120.941 72.4903 119.37 75.9075 118.978 79.5353C118.879 80.3149 118.909 81.1045 119.067 81.8751C119.245 82.621 119.628 83.3074 120.177 83.863C120.677 84.3909 121.252 84.8752 121.61 85.5107C121.789 85.8386 121.893 86.1989 121.916 86.5681C121.939 86.9373 121.88 87.3071 121.744 87.653C121.428 88.5236 120.805 89.2331 120.171 89.9067C119.466 90.6545 118.722 91.4206 118.423 92.412C118.387 92.5322 118.195 92.4711 118.231 92.3511C118.752 90.6262 120.496 89.6464 121.327 88.0927C121.715 87.3678 121.878 86.5261 121.514 85.7608C121.196 85.0917 120.603 84.5917 120.092 84.0614C119.549 83.527 119.15 82.873 118.931 82.1565C118.733 81.3961 118.672 80.6089 118.749 79.8286C118.894 78.0694 119.326 76.3429 120.03 74.7126C120.822 72.8475 121.94 71.1264 123.336 69.6235C123.423 69.5305 123.556 69.6768 123.47 69.7692H123.47Z" fill="white"/>
<path d="M119.032 78.3551C118.407 78.2094 117.857 77.8551 117.479 77.3555C117.101 76.856 116.92 76.2436 116.969 75.6278C116.979 75.5033 117.181 75.5128 117.171 75.6375C117.124 76.2108 117.293 76.7812 117.646 77.2457C117.999 77.7103 118.513 78.0383 119.096 78.1707C119.222 78.1996 119.158 78.3838 119.032 78.3551V78.3551Z" fill="white"/>
<path d="M119.885 83.6269C121.014 82.9798 121.847 81.9479 122.218 80.737C122.255 80.617 122.447 80.678 122.41 80.7978C122.021 82.0572 121.152 83.1294 119.976 83.8004C119.864 83.8643 119.773 83.6905 119.885 83.6269V83.6269Z" fill="white"/>
<path d="M121.009 73.0306C121.239 73.1354 121.492 73.1837 121.745 73.1713C121.999 73.159 122.246 73.0862 122.463 72.9597C122.574 72.8945 122.665 73.0684 122.554 73.1332C122.313 73.2719 122.041 73.3519 121.76 73.3662C121.48 73.3804 121.2 73.3285 120.946 73.215C120.921 73.2062 120.9 73.1887 120.888 73.1659C120.876 73.1431 120.874 73.1168 120.881 73.0924C120.89 73.068 120.908 73.0478 120.932 73.0363C120.956 73.0247 120.983 73.0227 121.009 73.0306V73.0306Z" fill="white"/>
<path d="M136.664 77.4962C136.596 77.5388 136.527 77.5814 136.459 77.6257C135.545 78.2032 134.68 78.8511 133.875 79.563C133.812 79.6171 133.749 79.6729 133.687 79.7286C131.766 81.4636 130.197 83.5261 129.06 85.8112C128.609 86.7209 128.23 87.6622 127.927 88.6271C127.509 89.9597 127.166 91.4365 126.338 92.5264C126.253 92.6411 126.16 92.7506 126.061 92.8542H118.58C118.563 92.8461 118.546 92.8395 118.529 92.8313L118.23 92.8444C118.242 92.7936 118.256 92.7412 118.268 92.6903C118.275 92.6608 118.283 92.6313 118.29 92.6018C118.295 92.5822 118.3 92.5625 118.304 92.5445C118.306 92.5379 118.307 92.5314 118.309 92.5264C118.312 92.5084 118.318 92.492 118.321 92.4756C118.396 92.1822 118.473 91.8888 118.553 91.5955C118.553 91.5938 118.553 91.5938 118.555 91.5922C119.168 89.3581 119.98 87.1536 121.115 85.1375C121.149 85.0769 121.183 85.0146 121.221 84.954C121.738 84.0479 122.331 83.184 122.994 82.3708C123.359 81.9266 123.747 81.5004 124.157 81.0939C125.217 80.0456 126.443 79.1639 127.789 78.4813C130.472 77.1208 133.578 76.5996 136.446 77.4306C136.519 77.4519 136.591 77.4732 136.664 77.4962Z" fill="#F0F0F0"/>
<path d="M136.646 77.5864C132.92 78.2969 129.523 80.1165 126.936 82.7868C126.368 83.3522 125.897 83.9999 125.54 84.7062C125.215 85.405 125.09 86.1747 125.18 86.9352C125.248 87.646 125.404 88.3653 125.291 89.0797C125.228 89.4446 125.085 89.7924 124.872 90.1005C124.659 90.4086 124.381 90.67 124.055 90.8675C123.257 91.3798 122.314 91.5862 121.386 91.7572C120.355 91.9472 119.28 92.1288 118.42 92.7473C118.316 92.8223 118.201 92.6625 118.305 92.5877C119.802 91.5115 121.808 91.7374 123.447 90.9776C124.211 90.6231 124.869 90.0453 125.058 89.2239C125.223 88.5057 125.063 87.7637 124.988 87.0447C124.889 86.304 124.981 85.5514 125.255 84.8526C125.574 84.1311 126.018 83.467 126.569 82.8888C127.788 81.5679 129.215 80.4392 130.799 79.5441C132.601 78.5129 134.573 77.7853 136.63 77.3927C136.757 77.3685 136.772 77.5623 136.646 77.5864V77.5864Z" fill="white"/>
<path d="M127.718 81.8804C127.31 81.4028 127.093 80.8015 127.104 80.1841C127.115 79.5666 127.355 78.9732 127.78 78.5097C127.866 78.4162 128.022 78.5406 127.935 78.6343C127.539 79.0652 127.315 79.618 127.306 80.193C127.297 80.768 127.502 81.3272 127.884 81.7698C127.967 81.8661 127.8 81.9761 127.718 81.8804V81.8804Z" fill="white"/>
<path d="M125.095 86.5793C126.402 86.7151 127.715 86.3729 128.77 85.6209C128.875 85.5463 128.99 85.7061 128.886 85.7806C127.785 86.5612 126.419 86.9146 125.059 86.7704C124.93 86.7565 124.967 86.5655 125.095 86.5793V86.5793Z" fill="white"/>
<path d="M132.636 78.7682C132.754 78.9846 132.925 79.1695 133.136 79.3064C133.346 79.4432 133.589 79.5278 133.842 79.5524C133.971 79.5647 133.934 79.7557 133.806 79.7435C133.526 79.715 133.259 79.6214 133.026 79.4706C132.793 79.3199 132.602 79.1167 132.47 78.8788C132.455 78.8573 132.45 78.8315 132.455 78.8064C132.46 78.7813 132.474 78.7588 132.495 78.7437C132.517 78.7291 132.545 78.7235 132.571 78.7281C132.597 78.7327 132.621 78.7471 132.636 78.7682Z" fill="white"/>
<path d="M91.5338 57.7129C91.6886 57.5593 91.8064 57.375 91.879 57.173C91.9516 56.971 91.9771 56.7561 91.9539 56.5435C91.9306 56.331 91.8592 56.1259 91.7445 55.9428C91.6298 55.7596 91.4746 55.6028 91.29 55.4835L92.673 50.4609L90.0085 51.3216L89.1036 55.9592C88.9154 56.2703 88.8526 56.6369 88.927 56.9896C89.0014 57.3422 89.208 57.6564 89.5076 57.8726C89.8071 58.0888 90.1788 58.1919 90.5523 58.1625C90.9257 58.133 91.2749 57.9731 91.5338 57.7129V57.7129Z" fill="#9E616A"/>
<path d="M103.862 91.4453L102.006 91.4451L101.123 84.5703L103.862 84.5705L103.862 91.4453Z" fill="#9E616A"/>
<path d="M104.334 93.177L98.3496 93.1768V93.1041C98.3497 92.5108 98.5951 91.9419 99.0319 91.5224C99.4687 91.1029 100.061 90.8672 100.679 90.8672H100.679L104.334 90.8673L104.334 93.177Z" fill="#2F2E41"/>
<path d="M95.0807 91.4453L93.2247 91.4451L92.3418 84.5703L95.081 84.5705L95.0807 91.4453Z" fill="#9E616A"/>
<path d="M95.5549 93.177L89.5703 93.1768V93.1041C89.5704 92.5108 89.8158 91.9419 90.2526 91.5224C90.6894 91.1029 91.2819 90.8672 91.8997 90.8672H91.8998L95.555 90.8673L95.5549 93.177Z" fill="#2F2E41"/>
<path d="M94.0481 50.0251L93.3357 50.2141C93.3357 50.2141 91.4745 61.801 91.3231 67.907C91.1717 74.0131 91.7773 89.4235 91.7773 89.4235H95.7134L98.8926 63.2548L100.407 89.4235H104.645C104.645 89.4235 107.673 55.1135 106.311 52.3512C104.948 49.589 94.0481 50.0251 94.0481 50.0251Z" fill="#2F2E41"/>
<path d="M99.7265 29.5809C101.691 29.5809 103.283 28.0517 103.283 26.1654C103.283 24.2791 101.691 22.75 99.7265 22.75C97.7623 22.75 96.1699 24.2791 96.1699 26.1654C96.1699 28.0517 97.7623 29.5809 99.7265 29.5809Z" fill="#9E616A"/>
<path d="M108.734 34.0348L103.214 30.5703L97.4933 30.7866L91.9297 33.744L94.0491 45.0837L93.1408 51.6259C93.1408 51.6259 101.316 50.7536 103.133 52.062C104.193 52.8384 105.445 53.3391 106.766 53.5159L106.463 42.3215L108.734 34.0348Z" fill="#3F3D56"/>
<path d="M92.9899 33.5984L92.4179 33.4844L91.9301 33.7437C91.9301 33.7437 90.5676 35.4883 90.5676 37.0875C90.5676 38.6867 88.9023 54.0971 88.9023 54.0971L91.9301 55.4056L94.3524 43.3389L92.9899 33.5984Z" fill="#3F3D56"/>
<path d="M102.842 23.6602C102.842 23.6602 103.772 21.9525 101.725 21.7972C101.725 21.7972 99.9808 20.2774 98.2025 21.5194C98.2025 21.5194 97.2325 21.5194 96.7021 22.5735C96.7021 22.5735 95.9392 22.2956 95.7715 23.0392C95.7715 23.0392 95.2133 24.5917 95.7715 25.9889C96.3298 27.3861 96.5152 27.5414 96.5152 27.5414C96.5152 27.5414 95.5979 24.612 97.8306 24.4568C100.063 24.3015 102.562 22.9616 102.748 24.6693C102.934 26.377 103.214 26.7978 103.214 26.7978C103.214 26.7978 104.981 24.3588 102.842 23.6602Z" fill="#2F2E41"/>
<path d="M56.8825 43.7557H12.8281V12.0625H56.8825V43.7557Z" fill="white"/>
<path d="M56.8825 43.7557H12.8281V12.0625H56.8825V43.7557ZM13.2823 12.4986V43.3195H56.4283V12.4986H13.2823Z" fill="#E6E6E6"/>
<path d="M34.8415 36.0249C39.4742 36.0249 43.2298 32.4184 43.2298 27.9695C43.2298 23.5206 39.4742 19.9141 34.8415 19.9141C30.2087 19.9141 26.4531 23.5206 26.4531 27.9695C26.4531 32.4184 30.2087 36.0249 34.8415 36.0249Z" fill="#6C63FF"/>
<path d="M38.3248 27.2896H35.4728V24.5507C35.4728 24.3798 35.4021 24.2159 35.2762 24.095C35.1504 23.9742 34.9797 23.9062 34.8017 23.9062C34.6237 23.9062 34.453 23.9742 34.3271 24.095C34.2013 24.2159 34.1306 24.3798 34.1306 24.5507V27.2896H31.2785C31.1005 27.2896 30.9298 27.3575 30.804 27.4783C30.6781 27.5992 30.6074 27.7631 30.6074 27.934C30.6074 28.105 30.6781 28.2689 30.804 28.3898C30.9298 28.5106 31.1005 28.5785 31.2785 28.5785H34.1306V31.3174C34.1306 31.4883 34.2013 31.6522 34.3271 31.7731C34.453 31.8939 34.6237 31.9618 34.8017 31.9618C34.9797 31.9618 35.1504 31.8939 35.2762 31.7731C35.4021 31.6522 35.4728 31.4883 35.4728 31.3174V28.5785H38.3248C38.5028 28.5785 38.6735 28.5106 38.7994 28.3898C38.9252 28.2689 38.9959 28.105 38.9959 27.934C38.9959 27.7631 38.9252 27.5992 38.7994 27.4783C38.6735 27.3575 38.5028 27.2896 38.3248 27.2896Z" fill="white"/>
<path d="M16.462 11.9292H0V0H16.462V11.9292Z" fill="white"/>
<path d="M16.462 11.9292H0V0H16.462V11.9292ZM0.302779 11.6384H16.1592V0.290763H0.302779V11.6384Z" fill="#E6E6E6"/>
<path d="M14.2912 3.25H2.17188V4.0259H14.2912V3.25Z" fill="#E4E4E4"/>
<path d="M14.2912 5.57812H2.17188V6.35403H14.2912V5.57812Z" fill="#E4E4E4"/>
<path d="M14.2912 7.90625H2.17188V8.68215H14.2912V7.90625Z" fill="#E4E4E4"/>
<path d="M125.917 93.1948H109.455V81.2656H125.917V93.1948Z" fill="white"/>
<path d="M125.917 93.1948H109.455V81.2656H125.917V93.1948ZM109.758 92.904H125.614V81.5564H109.758V92.904Z" fill="#E6E6E6"/>
<path d="M123.744 84.5156H111.625V85.2915H123.744V84.5156Z" fill="#E4E4E4"/>
<path d="M123.744 86.8438H111.625V87.6196H123.744V86.8438Z" fill="#E4E4E4"/>
<path d="M123.744 89.1719H111.625V89.9478H123.744V89.1719Z" fill="#E4E4E4"/>
<path d="M115.919 71.7964L103.623 61.2853L111.882 52.375L124.179 62.8861L115.919 71.7964Z" fill="white"/>
<path d="M115.919 71.7964L103.623 61.2853L111.882 52.375L124.179 62.8861L115.919 71.7964ZM104.051 61.2615L115.894 71.3859L123.751 62.9099L111.907 52.7855L104.051 61.2615Z" fill="#E6E6E6"/>
<path d="M111.254 56.1861L110.717 56.7656L119.769 64.5039L120.306 63.9244L111.254 56.1861Z" fill="#E4E4E4"/>
<path d="M109.643 57.9204L109.105 58.5L118.158 66.2383L118.695 65.6587L109.643 57.9204Z" fill="#E4E4E4"/>
<path d="M108.031 59.6626L107.494 60.2422L116.547 67.9805L117.084 67.4009L108.031 59.6626Z" fill="#E4E4E4"/>
<path d="M25.7825 18.9094H7.41797V5.60156H25.7825V18.9094Z" fill="white"/>
<path d="M25.7825 18.9094H7.41797V5.60156H25.7825V18.9094ZM7.75574 18.5851H25.4447V5.92592H7.75574V18.5851Z" fill="#E6E6E6"/>
<path d="M23.3599 9.22656H9.83984V10.0921H23.3599V9.22656Z" fill="#6C63FF"/>
<path d="M23.3599 11.8203H9.83984V12.6859H23.3599V11.8203Z" fill="#6C63FF"/>
<path d="M23.3599 14.4141H9.83984V15.2796H23.3599V14.4141Z" fill="#6C63FF"/>
<path d="M73.4407 53.7456H45.416V33.4375H73.4407V53.7456Z" fill="white"/>
<path d="M73.4407 53.7456H45.416V33.4375H73.4407V53.7456ZM45.9315 53.2506H72.9253V33.9325H45.9315V53.2506Z" fill="#E6E6E6"/>
<path d="M69.7452 38.9688H49.1133V40.2896H69.7452V38.9688Z" fill="#6C63FF"/>
<path d="M69.7452 42.9297H49.1133V44.2506H69.7452V42.9297Z" fill="#6C63FF"/>
<path d="M69.7452 46.8906H49.1133V48.2115H69.7452V46.8906Z" fill="#6C63FF"/>
<path d="M139.819 93.3306H67.1075C67.0598 93.3304 67.014 93.3121 66.9803 93.2797C66.9467 93.2472 66.9277 93.2033 66.9277 93.1575C66.9277 93.1117 66.9467 93.0677 66.9803 93.0353C67.014 93.0028 67.0598 92.9845 67.1075 92.9844H139.819C139.867 92.9844 139.913 93.0026 139.946 93.0351C139.98 93.0675 139.999 93.1116 139.999 93.1575C139.999 93.2034 139.98 93.2474 139.946 93.2799C139.913 93.3123 139.867 93.3306 139.819 93.3306Z" fill="#CACACA"/>
<path d="M106.851 57.6018C106.743 57.4152 106.678 57.208 106.662 56.9948C106.646 56.7816 106.679 56.5677 106.758 56.368C106.838 56.1684 106.962 55.9879 107.122 55.8392C107.282 55.6906 107.474 55.5774 107.684 55.5077L107.693 50.3125L110.037 51.8025L109.669 56.5075C109.768 56.8547 109.73 57.2245 109.564 57.5469C109.397 57.8693 109.114 58.1219 108.766 58.2567C108.419 58.3916 108.032 58.3995 107.679 58.2787C107.326 58.158 107.031 57.9172 106.851 57.6018V57.6018Z" fill="#9E616A"/>
<path d="M107.068 34.6178L108.115 33.6484L108.884 34.1817C108.884 34.1817 109.641 35.054 110.247 37.6709C110.852 40.2877 110.247 54.6805 110.247 54.6805L106.916 54.2443L107.37 46.6845L106.008 40.2877L107.068 34.6178Z" fill="#3F3D56"/>
</g>
<defs>
<clipPath id="clip0_2880_21651">
<rect width="140" height="93.3333" fill="white"/>
</clipPath>
</defs>
</svg>
