<svg width="194" height="108" viewBox="0 0 194 108" fill="none" xmlns="http://www.w3.org/2000/svg">
<rect width="194" height="108" rx="10" fill="#353452"/>
<path opacity="0.6" d="M44.124 73.126C42.7893 73.126 41.7953 72.7853 41.142 72.104C40.498 71.4227 40.176 70.4193 40.176 69.094V63.13H41.324V69.038C41.324 70.0553 41.548 70.8207 41.996 71.334C42.444 71.8473 43.1533 72.104 44.124 72.104C45.0387 72.104 45.734 71.8473 46.21 71.334C46.686 70.8207 46.924 70.0553 46.924 69.038V63.13H48.072V69.094C48.072 70.4193 47.736 71.4227 47.064 72.104C46.4013 72.7853 45.4213 73.126 44.124 73.126ZM50.3326 76.024V67.596C50.3326 67.3347 50.3186 67.0687 50.2906 66.798C50.2719 66.518 50.2486 66.2427 50.2206 65.972H51.3126L51.4666 67.638H51.2986C51.4479 67.0873 51.7512 66.6533 52.2086 66.336C52.6659 66.0093 53.2119 65.846 53.8466 65.846C54.4812 65.846 55.0272 65.9907 55.4846 66.28C55.9512 66.5693 56.3152 66.9847 56.5766 67.526C56.8379 68.0673 56.9686 68.7207 56.9686 69.486C56.9686 70.242 56.8379 70.8907 56.5766 71.432C56.3246 71.9733 55.9652 72.3933 55.4986 72.692C55.0319 72.9813 54.4812 73.126 53.8466 73.126C53.2212 73.126 52.6799 72.9673 52.2226 72.65C51.7652 72.3327 51.4619 71.8987 51.3126 71.348H51.4666V76.024H50.3326ZM53.6226 72.202C54.2946 72.202 54.8266 71.9733 55.2186 71.516C55.6199 71.0493 55.8206 70.3727 55.8206 69.486C55.8206 68.59 55.6199 67.9133 55.2186 67.456C54.8266 66.9893 54.2946 66.756 53.6226 66.756C52.9599 66.756 52.4279 66.9893 52.0266 67.456C51.6346 67.9133 51.4386 68.59 51.4386 69.486C51.4386 70.3727 51.6346 71.0493 52.0266 71.516C52.4279 71.9733 52.9599 72.202 53.6226 72.202ZM58.7271 73V62.696H59.8611V73H58.7271ZM64.947 73.126C64.275 73.126 63.687 72.9813 63.183 72.692C62.6884 72.3933 62.3057 71.9733 62.035 71.432C61.7644 70.8813 61.629 70.2327 61.629 69.486C61.629 68.73 61.7644 68.0813 62.035 67.54C62.3057 66.9987 62.6884 66.5833 63.183 66.294C63.687 65.9953 64.275 65.846 64.947 65.846C65.6284 65.846 66.2164 65.9953 66.711 66.294C67.215 66.5833 67.6024 66.9987 67.873 67.54C68.153 68.0813 68.293 68.73 68.293 69.486C68.293 70.2327 68.153 70.8813 67.873 71.432C67.6024 71.9733 67.215 72.3933 66.711 72.692C66.2164 72.9813 65.6284 73.126 64.947 73.126ZM64.947 72.202C65.619 72.202 66.151 71.9733 66.543 71.516C66.935 71.0493 67.131 70.3727 67.131 69.486C67.131 68.59 66.9304 67.9133 66.529 67.456C66.137 66.9893 65.6097 66.756 64.947 66.756C64.2844 66.756 63.757 66.9893 63.365 67.456C62.973 67.9133 62.777 68.59 62.777 69.486C62.777 70.3727 62.973 71.0493 63.365 71.516C63.757 71.9733 64.2844 72.202 64.947 72.202ZM72.7351 73.126C72.1097 73.126 71.5637 72.9813 71.0971 72.692C70.6304 72.3933 70.2664 71.9733 70.0051 71.432C69.7531 70.8907 69.6271 70.242 69.6271 69.486C69.6271 68.7207 69.7531 68.0673 70.0051 67.526C70.2664 66.9847 70.6304 66.5693 71.0971 66.28C71.5637 65.9907 72.1097 65.846 72.7351 65.846C73.3697 65.846 73.9157 66.0093 74.3731 66.336C74.8397 66.6533 75.1477 67.0873 75.2971 67.638H75.1291L75.2831 65.972H76.3751C76.3471 66.2427 76.3191 66.518 76.2911 66.798C76.2724 67.0687 76.2631 67.3347 76.2631 67.596V73H75.1291V71.348H75.2831C75.1337 71.8987 74.8257 72.3327 74.3591 72.65C73.8924 72.9673 73.3511 73.126 72.7351 73.126ZM72.9591 72.202C73.6311 72.202 74.1631 71.9733 74.5551 71.516C74.9471 71.0493 75.1431 70.3727 75.1431 69.486C75.1431 68.59 74.9471 67.9133 74.5551 67.456C74.1631 66.9893 73.6311 66.756 72.9591 66.756C72.2964 66.756 71.7644 66.9893 71.3631 67.456C70.9711 67.9133 70.7751 68.59 70.7751 69.486C70.7751 70.3727 70.9711 71.0493 71.3631 71.516C71.7644 71.9733 72.2964 72.202 72.9591 72.202ZM81.1156 73.126C80.4996 73.126 79.9583 72.9813 79.4916 72.692C79.0249 72.3933 78.6609 71.9733 78.3996 71.432C78.1476 70.8907 78.0216 70.242 78.0216 69.486C78.0216 68.7207 78.1476 68.0673 78.3996 67.526C78.6609 66.9847 79.0249 66.5693 79.4916 66.28C79.9583 65.9907 80.4996 65.846 81.1156 65.846C81.7503 65.846 82.2963 66.0047 82.7536 66.322C83.2203 66.6393 83.5329 67.0687 83.6916 67.61H83.5236V62.696H84.6576V73H83.5376V71.32H83.6916C83.5423 71.88 83.2343 72.3233 82.7676 72.65C82.3009 72.9673 81.7503 73.126 81.1156 73.126ZM81.3536 72.202C82.0163 72.202 82.5483 71.9733 82.9496 71.516C83.3509 71.0493 83.5516 70.3727 83.5516 69.486C83.5516 68.59 83.3509 67.9133 82.9496 67.456C82.5483 66.9893 82.0163 66.756 81.3536 66.756C80.6909 66.756 80.1589 66.9893 79.7576 67.456C79.3656 67.9133 79.1696 68.59 79.1696 69.486C79.1696 70.3727 79.3656 71.0493 79.7576 71.516C80.1589 71.9733 80.6909 72.202 81.3536 72.202ZM92.9925 73.126C92.3019 73.126 91.7745 72.93 91.4105 72.538C91.0465 72.1367 90.8645 71.5347 90.8645 70.732V66.854H89.4925V65.972H90.8645V64.054L91.9985 63.732V65.972H94.0145V66.854H91.9985V70.606C91.9985 71.166 92.0919 71.5673 92.2785 71.81C92.4745 72.0433 92.7639 72.16 93.1465 72.16C93.3239 72.16 93.4825 72.146 93.6225 72.118C93.7625 72.0807 93.8885 72.0387 94.0005 71.992V72.944C93.8699 73 93.7112 73.042 93.5245 73.07C93.3472 73.1073 93.1699 73.126 92.9925 73.126ZM95.3951 73V62.696H96.5291V67.526H96.3471C96.5431 66.9753 96.8697 66.56 97.3271 66.28C97.7937 65.9907 98.3304 65.846 98.9371 65.846C99.7771 65.846 100.402 66.0747 100.813 66.532C101.224 66.98 101.429 67.6613 101.429 68.576V73H100.295V68.646C100.295 67.9927 100.164 67.5167 99.9031 67.218C99.6511 66.9193 99.2404 66.77 98.6711 66.77C98.0177 66.77 97.4951 66.9707 97.1031 67.372C96.7204 67.7733 96.5291 68.3007 96.5291 68.954V73H95.3951ZM106.076 73.126C105.246 73.126 104.616 72.8973 104.186 72.44C103.766 71.9827 103.556 71.2827 103.556 70.34V65.972H104.69V70.312C104.69 70.956 104.821 71.432 105.082 71.74C105.344 72.0387 105.75 72.188 106.3 72.188C106.916 72.188 107.411 71.9873 107.784 71.586C108.158 71.1847 108.344 70.648 108.344 69.976V65.972H109.478V73H108.372V71.418H108.554C108.358 71.9593 108.041 72.3793 107.602 72.678C107.173 72.9767 106.664 73.126 106.076 73.126ZM111.678 73V67.596C111.678 67.3347 111.664 67.0687 111.636 66.798C111.618 66.518 111.594 66.2427 111.566 65.972H112.658L112.798 67.512H112.63C112.817 66.98 113.111 66.5693 113.512 66.28C113.923 65.9907 114.418 65.846 114.996 65.846C115.584 65.846 116.06 65.986 116.424 66.266C116.798 66.546 117.05 66.98 117.18 67.568H116.97C117.148 67.036 117.46 66.616 117.908 66.308C118.356 66 118.879 65.846 119.476 65.846C120.251 65.846 120.834 66.07 121.226 66.518C121.618 66.9567 121.814 67.652 121.814 68.604V73H120.68V68.674C120.68 68.0113 120.564 67.5307 120.33 67.232C120.097 66.924 119.724 66.77 119.21 66.77C118.622 66.77 118.156 66.9753 117.81 67.386C117.474 67.7873 117.306 68.3287 117.306 69.01V73H116.172V68.674C116.172 68.0113 116.056 67.5307 115.822 67.232C115.589 66.924 115.216 66.77 114.702 66.77C114.114 66.77 113.652 66.9753 113.316 67.386C112.98 67.7873 112.812 68.3287 112.812 69.01V73H111.678ZM127.497 73.126C126.863 73.126 126.317 72.9673 125.859 72.65C125.402 72.3233 125.094 71.88 124.935 71.32H125.089V73H123.969V62.696H125.103V67.61H124.935C125.094 67.0687 125.402 66.6393 125.859 66.322C126.317 66.0047 126.863 65.846 127.497 65.846C128.132 65.846 128.678 65.9953 129.135 66.294C129.602 66.5833 129.961 66.9987 130.213 67.54C130.475 68.0813 130.605 68.73 130.605 69.486C130.605 70.242 130.475 70.8907 130.213 71.432C129.952 71.9733 129.588 72.3933 129.121 72.692C128.664 72.9813 128.123 73.126 127.497 73.126ZM127.259 72.202C127.922 72.202 128.454 71.9733 128.855 71.516C129.257 71.0587 129.457 70.382 129.457 69.486C129.457 68.59 129.257 67.9133 128.855 67.456C128.454 66.9893 127.922 66.756 127.259 66.756C126.597 66.756 126.065 66.9893 125.663 67.456C125.271 67.9133 125.075 68.59 125.075 69.486C125.075 70.3727 125.271 71.0493 125.663 71.516C126.065 71.9733 126.597 72.202 127.259 72.202ZM132.364 73V67.596C132.364 67.3347 132.35 67.0687 132.322 66.798C132.303 66.518 132.28 66.2427 132.252 65.972H133.344L133.484 67.512H133.316C133.521 66.9707 133.848 66.56 134.296 66.28C134.753 65.9907 135.28 65.846 135.878 65.846C136.708 65.846 137.334 66.07 137.754 66.518C138.183 66.9567 138.398 67.652 138.398 68.604V73H137.264V68.674C137.264 68.0113 137.128 67.5307 136.858 67.232C136.596 66.924 136.186 66.77 135.626 66.77C134.972 66.77 134.454 66.9707 134.072 67.372C133.689 67.7733 133.498 68.31 133.498 68.982V73H132.364ZM143.241 73.126C142.616 73.126 142.07 72.9813 141.603 72.692C141.136 72.3933 140.772 71.9733 140.511 71.432C140.259 70.8907 140.133 70.242 140.133 69.486C140.133 68.7207 140.259 68.0673 140.511 67.526C140.772 66.9847 141.136 66.5693 141.603 66.28C142.07 65.9907 142.616 65.846 143.241 65.846C143.876 65.846 144.422 66.0093 144.879 66.336C145.346 66.6533 145.654 67.0873 145.803 67.638H145.635L145.789 65.972H146.881C146.853 66.2427 146.825 66.518 146.797 66.798C146.778 67.0687 146.769 67.3347 146.769 67.596V73H145.635V71.348H145.789C145.64 71.8987 145.332 72.3327 144.865 72.65C144.398 72.9673 143.857 73.126 143.241 73.126ZM143.465 72.202C144.137 72.202 144.669 71.9733 145.061 71.516C145.453 71.0493 145.649 70.3727 145.649 69.486C145.649 68.59 145.453 67.9133 145.061 67.456C144.669 66.9893 144.137 66.756 143.465 66.756C142.802 66.756 142.27 66.9893 141.869 67.456C141.477 67.9133 141.281 68.59 141.281 69.486C141.281 70.3727 141.477 71.0493 141.869 71.516C142.27 71.9733 142.802 72.202 143.465 72.202ZM148.961 73V65.972H150.095V73H148.961ZM148.821 64.376V63.102H150.221V64.376H148.821ZM152.297 73V62.696H153.431V73H152.297Z" fill="white"/>
<g opacity="0.6">
<path d="M94.5007 37.9583C93.234 37.9583 92.209 36.9333 92.209 35.6667C92.209 34.4 93.234 33.375 94.5007 33.375C95.7673 33.375 96.7923 34.4 96.7923 35.6667C96.7923 36.9333 95.7673 37.9583 94.5007 37.9583ZM94.5007 34.625C93.9257 34.625 93.459 35.0917 93.459 35.6667C93.459 36.2417 93.9257 36.7083 94.5007 36.7083C95.0757 36.7083 95.5423 36.2417 95.5423 35.6667C95.5423 35.0917 95.0757 34.625 94.5007 34.625Z" fill="white"/>
<path d="M99.4993 47.9557H94.4993C89.9743 47.9557 88.041 46.0224 88.041 41.4974V36.4974C88.041 31.9724 89.9743 30.0391 94.4993 30.0391H97.8327C98.1743 30.0391 98.4577 30.3224 98.4577 30.6641C98.4577 31.0057 98.1743 31.2891 97.8327 31.2891H94.4993C90.6577 31.2891 89.291 32.6557 89.291 36.4974V41.4974C89.291 45.3391 90.6577 46.7057 94.4993 46.7057H99.4993C103.341 46.7057 104.708 45.3391 104.708 41.4974V37.3307C104.708 36.9891 104.991 36.7057 105.333 36.7057C105.674 36.7057 105.958 36.9891 105.958 37.3307V41.4974C105.958 46.0224 104.024 47.9557 99.4993 47.9557Z" fill="white"/>
<path d="M104.708 33.7891H100.125C99.7833 33.7891 99.5 33.5057 99.5 33.1641C99.5 32.8224 99.7833 32.5391 100.125 32.5391H104.708C105.05 32.5391 105.333 32.8224 105.333 33.1641C105.333 33.5057 105.05 33.7891 104.708 33.7891Z" fill="white"/>
<path d="M102.416 36.0833C102.074 36.0833 101.791 35.8 101.791 35.4583V30.875C101.791 30.5333 102.074 30.25 102.416 30.25C102.758 30.25 103.041 30.5333 103.041 30.875V35.4583C103.041 35.8 102.758 36.0833 102.416 36.0833Z" fill="white"/>
<path d="M89.2244 45.4188C89.0244 45.4188 88.8244 45.3188 88.7078 45.1438C88.5161 44.8604 88.5911 44.4688 88.8744 44.2771L92.9828 41.5188C93.8828 40.9188 95.1244 40.9854 95.9411 41.6771L96.2161 41.9187C96.6328 42.2771 97.3411 42.2771 97.7494 41.9187L101.216 38.9438C102.108 38.1854 103.491 38.1854 104.383 38.9438L105.741 40.1104C105.999 40.3354 106.033 40.7271 105.808 40.9938C105.583 41.2521 105.191 41.2854 104.924 41.0604L103.566 39.8937C103.149 39.5354 102.441 39.5354 102.033 39.8937L98.5661 42.8687C97.6828 43.6271 96.2911 43.6271 95.3994 42.8687L95.1244 42.6271C94.7411 42.3021 94.1078 42.2688 93.6828 42.5604L89.5828 45.3187C89.4661 45.3854 89.3411 45.4188 89.2244 45.4188Z" fill="white"/>
</g>
</svg>
