<svg width="156" height="56" viewBox="0 0 156 56" fill="none" xmlns="http://www.w3.org/2000/svg">
<path fill-rule="evenodd" clip-rule="evenodd" d="M25.4326 14.5234V18.2994C23.1886 15.4544 19.7966 14.0864 15.6926 14.0864C7.53961 14.0864 0.974609 19.7224 0.974609 28.3134C0.974609 36.9044 7.54061 42.5394 15.6926 42.5394C19.5226 42.5394 22.7516 41.3394 24.9926 38.8734V40.1314C24.9926 45.4394 22.3656 48.1744 16.3476 48.1744C12.6148 48.1931 8.97268 47.0245 5.94762 44.8374L2.55562 50.9654C6.00262 53.6464 11.4196 55.0144 17.0016 55.0144C27.6166 55.0144 33.5256 49.9804 33.5256 39.0374V14.5234H25.4326ZM17.3896 35.5354C12.9026 35.5354 9.61961 32.6354 9.61961 28.3124C9.61961 23.9894 12.9026 21.0894 17.3896 21.0894C21.8766 21.0894 25.1046 23.9894 25.1046 28.3124C25.1046 32.6354 21.8766 35.5354 17.3896 35.5354ZM45.7326 10.4204C48.9056 10.4204 51.0406 8.34139 51.0406 5.49539C51.0406 2.86939 48.9066 0.895386 45.7326 0.895386C42.5586 0.895386 40.4256 2.97437 40.4256 5.65637C40.4256 8.33837 42.5596 10.4164 45.7326 10.4164V10.4204ZM41.4646 43.9654H50.0006V14.5234H41.4646V43.9654ZM62.2026 10.4234C65.3766 10.4234 67.5106 8.34438 67.5106 5.49838C67.5106 2.87238 65.3766 0.898376 62.2026 0.898376C59.0286 0.898376 56.8956 2.97739 56.8956 5.65939C56.8956 8.34139 59.0306 10.4194 62.2026 10.4194V10.4234ZM57.9356 43.9654H66.4716V14.5234H57.9356V43.9654ZM84.3096 44.4034C93.1196 44.4034 98.2096 40.5184 98.2096 35.0464C98.2096 23.4464 80.4256 28.3164 80.4256 23.2824C80.4256 21.7504 82.0676 20.5464 85.8976 20.5464C88.8679 20.5181 91.7931 21.2731 94.3786 22.7354L97.2236 16.6614C94.4336 15.0204 89.9466 14.0894 85.8976 14.0894C77.3076 14.0894 72.2726 18.0294 72.2726 23.6104C72.2726 35.3744 90.0556 30.4414 90.0556 35.2654C90.0556 36.9074 88.5786 37.9464 84.6386 37.9464C81.0349 37.9305 77.5013 36.948 74.4066 35.1014L71.5616 41.2304C74.2976 43.0354 79.3316 44.4034 84.3106 44.4034H84.3096ZM120.151 36.5244C119.149 37.2502 117.94 37.6339 116.704 37.6184C114.404 37.6184 113.038 36.2504 113.038 33.7344V21.7454H120.37V15.1794H113.038V8.01138H104.502V15.1794H99.9606V21.7454H104.502V33.8384C104.502 40.8384 108.551 44.3984 115.502 44.3984C117.952 44.4906 120.374 43.8421 122.451 42.5374L120.151 36.5244ZM147.729 14.5244L139.411 34.4964L131.149 14.5244H122.34L135.085 44.1804L134.975 44.4544C133.826 47.0814 132.513 48.1204 130.16 48.1204C128.386 48.0839 126.681 47.4255 125.344 46.2604L122.225 52.3334C124.578 54.131 127.472 55.0763 130.433 55.0144C135.74 55.0144 139.79 52.8804 142.633 45.7664L155.933 14.5224L147.729 14.5244Z" fill="white"/>
</svg>
