<svg width="28" height="28" viewBox="0 0 28 28" fill="none" xmlns="http://www.w3.org/2000/svg">
<path d="M17.434 0H10.566C4.73058 0 0 4.73058 0 10.566V17.434C0 23.2694 4.73058 28 10.566 28H17.434C23.2694 28 28 23.2694 28 17.434V10.566C28 4.73058 23.2694 0 17.434 0Z" fill="#F4FAFF"/>
<path d="M13.0439 7.22559C11.8928 7.22569 10.7677 7.5671 9.81071 8.20665C8.85372 8.8462 8.10787 9.75516 7.66746 10.8186C7.22706 11.882 7.11188 13.0522 7.3365 14.1811C7.56112 15.31 8.11544 16.3469 8.92937 17.1607C9.7433 17.9746 10.7803 18.5288 11.9092 18.7533C13.0381 18.9779 14.2082 18.8626 15.2716 18.4221C16.335 17.9816 17.2439 17.2356 17.8834 16.2786C18.5228 15.3216 18.8642 14.1964 18.8642 13.0454C18.8623 11.5023 18.2485 10.023 17.1574 8.93198C16.0663 7.84094 14.5869 7.22726 13.0439 7.22559ZM13.0439 17.7916C12.1053 17.7915 11.1878 17.5131 10.4075 16.9916C9.62712 16.4701 9.01892 15.7289 8.6598 14.8618C8.30067 13.9946 8.20673 13.0404 8.38986 12.1199C8.573 11.1994 9.02497 10.3538 9.68864 9.69015C10.3523 9.02647 11.1979 8.5745 12.1184 8.39137C13.0389 8.20823 13.9931 8.30217 14.8603 8.6613C15.7274 9.02043 16.4686 9.62862 16.9901 10.409C17.5116 11.1893 17.79 12.1068 17.7901 13.0454C17.7889 14.3038 17.2884 15.5103 16.3986 16.4001C15.5088 17.2899 14.3023 17.7904 13.0439 17.7916Z" fill="url(#paint0_linear_3778_8673)"/>
<path d="M20.2827 19.5245L17.2027 16.4445C17.1531 16.393 17.0938 16.352 17.0283 16.3237C16.9627 16.2955 16.8921 16.2806 16.8207 16.2799C16.7493 16.2792 16.6785 16.2928 16.6124 16.3198C16.5463 16.3468 16.4862 16.3867 16.4357 16.4372C16.3852 16.4877 16.3453 16.5478 16.3183 16.6139C16.2913 16.68 16.2777 16.7508 16.2784 16.8222C16.2791 16.8936 16.294 16.9642 16.3222 17.0298C16.3505 17.0953 16.3915 17.1546 16.443 17.2042L19.523 20.2842C19.6243 20.3818 19.76 20.4357 19.9007 20.4344C20.0415 20.4331 20.176 20.3766 20.2756 20.2771C20.3751 20.1775 20.4316 20.043 20.4329 19.9022C20.4342 19.7615 20.3803 19.6258 20.2827 19.5245Z" fill="url(#paint1_linear_3778_8673)"/>
<path d="M13.0439 7.22559L13.0441 6.96143L13.0438 6.96143L13.0439 7.22559ZM7.66746 10.8186L7.91151 10.9197L7.66746 10.8186ZM7.3365 14.1811L7.07743 14.2326L7.3365 14.1811ZM8.92937 17.1607L8.7426 17.3475L8.92937 17.1607ZM18.8642 13.0454H19.1283V13.045L18.8642 13.0454ZM17.1574 8.93198L17.3442 8.74519L17.1574 8.93198ZM13.0439 17.7916L13.0438 18.0558H13.0441L13.0439 17.7916ZM9.68864 9.69015L9.87543 9.87693L9.68864 9.69015ZM14.8603 8.6613L14.9613 8.41725L14.8603 8.6613ZM17.7901 13.0454L18.0543 13.0456V13.0453L17.7901 13.0454ZM20.2827 19.5245L20.473 19.3412L20.4694 19.3377L20.2827 19.5245ZM17.2027 16.4445L17.0124 16.6277L17.0159 16.6312L17.2027 16.4445ZM17.0283 16.3237L16.9237 16.5663L17.0283 16.3237ZM16.6124 16.3198L16.7123 16.5643L16.6124 16.3198ZM16.3183 16.6139L16.5628 16.7138L16.3183 16.6139ZM16.3222 17.0298L16.5648 16.9252L16.3222 17.0298ZM16.443 17.2042L16.6298 17.0174L16.6262 17.0139L16.443 17.2042ZM19.523 20.2842L19.3362 20.471L19.3397 20.4744L19.523 20.2842ZM13.0438 6.96143C11.8406 6.96154 10.6644 7.31845 9.66394 7.98703L9.95748 8.42627C10.871 7.81575 11.9451 7.48984 13.0439 7.48974L13.0438 6.96143ZM9.66394 7.98703C8.66351 8.65561 7.88381 9.60582 7.42341 10.7175L7.91151 10.9197C8.33193 9.9045 9.04393 9.03679 9.95748 8.42627L9.66394 7.98703ZM7.42341 10.7175C6.96302 11.8292 6.84262 13.0525 7.07743 14.2326L7.59557 14.1295C7.38115 13.0519 7.4911 11.9348 7.91151 10.9197L7.42341 10.7175ZM7.07743 14.2326C7.31224 15.4127 7.89172 16.4967 8.7426 17.3475L9.11615 16.974C8.33916 16.197 7.81 15.2072 7.59557 14.1295L7.07743 14.2326ZM8.7426 17.3475C9.59347 18.1983 10.6775 18.7777 11.8577 19.0124L11.9607 18.4943C10.8831 18.2799 9.89313 17.7509 9.11615 16.974L8.7426 17.3475ZM11.8577 19.0124C13.0378 19.2471 14.2611 19.1266 15.3727 18.6661L15.1705 18.178C14.1554 18.5985 13.0384 18.7086 11.9607 18.4943L11.8577 19.0124ZM15.3727 18.6661C16.4844 18.2056 17.4345 17.4258 18.103 16.4253L17.6638 16.1318C17.0533 17.0455 16.1857 17.7575 15.1705 18.178L15.3727 18.6661ZM18.103 16.4253C18.7715 15.4249 19.1283 14.2486 19.1283 13.0454H18.6C18.6 14.1441 18.2742 15.2182 17.6638 16.1318L18.103 16.4253ZM19.1283 13.045C19.1264 11.4321 18.4848 9.88569 17.3442 8.74519L16.9706 9.11877C18.0123 10.1603 18.5983 11.5726 18.6 13.0457L19.1283 13.045ZM17.3442 8.74519C16.2036 7.60468 14.6571 6.96319 13.0441 6.96144L13.0436 7.48974C14.5167 7.49134 15.9289 8.07719 16.9706 9.11877L17.3442 8.74519ZM13.0439 17.5275C12.1576 17.5274 11.2912 17.2645 10.5542 16.772L10.2607 17.2112C11.0845 17.7618 12.053 18.0557 13.0438 18.0558L13.0439 17.5275ZM10.5542 16.772C9.81732 16.2795 9.24298 15.5796 8.90385 14.7607L8.41575 14.9628C8.79486 15.8782 9.43691 16.6607 10.2607 17.2112L10.5542 16.772ZM8.90385 14.7607C8.56471 13.9418 8.476 13.0407 8.64894 12.1715L8.13079 12.0684C7.93746 13.0401 8.03663 14.0474 8.41575 14.9628L8.90385 14.7607ZM8.64894 12.1715C8.82188 11.3022 9.2487 10.5037 9.87543 9.87693L9.50186 9.50336C8.80125 10.204 8.32411 11.0966 8.13079 12.0684L8.64894 12.1715ZM9.87543 9.87693C10.5022 9.2502 11.3007 8.82338 12.1699 8.65044L12.0669 8.13229C11.0951 8.32562 10.2025 8.80275 9.50186 9.50336L9.87543 9.87693ZM12.1699 8.65044C13.0392 8.4775 13.9403 8.56621 14.7592 8.90535L14.9613 8.41725C14.0459 8.03813 13.0386 7.93897 12.0669 8.13229L12.1699 8.65044ZM14.7592 8.90535C15.5781 9.24449 16.278 9.81883 16.7705 10.5557L17.2097 10.2622C16.6592 9.43841 15.8767 8.79637 14.9613 8.41725L14.7592 8.90535ZM16.7705 10.5557C17.263 11.2927 17.5259 12.1591 17.526 13.0454L18.0543 13.0453C18.0542 12.0545 17.7603 11.086 17.2097 10.2622L16.7705 10.5557ZM17.526 13.0451C17.5248 14.2335 17.0522 15.373 16.2118 16.2133L16.5854 16.5869C17.5247 15.6476 18.0529 14.374 18.0543 13.0456L17.526 13.0451ZM16.2118 16.2133C15.3714 17.0537 14.232 17.5263 13.0436 17.5275L13.0441 18.0558C14.3725 18.0544 15.6461 17.5262 16.5854 16.5869L16.2118 16.2133ZM20.4694 19.3377L17.3894 16.2577L17.0159 16.6312L20.0959 19.7113L20.4694 19.3377ZM17.3929 16.2612C17.319 16.1845 17.2306 16.1233 17.1328 16.0811L16.9237 16.5663C16.9571 16.5807 16.9872 16.6015 17.0124 16.6277L17.3929 16.2612ZM17.1328 16.0811C17.0349 16.039 16.9297 16.0168 16.8232 16.0158L16.8182 16.544C16.8545 16.5444 16.8904 16.552 16.9237 16.5663L17.1328 16.0811ZM16.8232 16.0158C16.7167 16.0148 16.6111 16.035 16.5125 16.0753L16.7123 16.5643C16.7459 16.5506 16.7819 16.5437 16.8182 16.544L16.8232 16.0158ZM16.5125 16.0753C16.4139 16.1156 16.3243 16.1751 16.249 16.2505L16.6225 16.624C16.6482 16.5983 16.6787 16.5781 16.7123 16.5643L16.5125 16.0753ZM16.249 16.2505C16.1736 16.3258 16.1141 16.4154 16.0738 16.514L16.5628 16.7138C16.5765 16.6802 16.5968 16.6497 16.6225 16.624L16.249 16.2505ZM16.0738 16.514C16.0335 16.6126 16.0133 16.7182 16.0143 16.8247L16.5425 16.8197C16.5422 16.7834 16.5491 16.7474 16.5628 16.7138L16.0738 16.514ZM16.0143 16.8247C16.0153 16.9312 16.0375 17.0364 16.0796 17.1343L16.5648 16.9252C16.5505 16.8919 16.5429 16.856 16.5425 16.8197L16.0143 16.8247ZM16.0796 17.1343C16.1218 17.2321 16.183 17.3205 16.2597 17.3944L16.6262 17.0139C16.6 16.9887 16.5792 16.9586 16.5648 16.9252L16.0796 17.1343ZM16.2562 17.391L19.3362 20.4709L19.7097 20.0974L16.6297 17.0174L16.2562 17.391ZM19.3397 20.4744C19.4909 20.62 19.6933 20.7005 19.9032 20.6986L19.8982 20.1703C19.8267 20.171 19.7577 20.1435 19.7062 20.0939L19.3397 20.4744ZM19.9032 20.6986C20.1132 20.6966 20.3139 20.6123 20.4623 20.4638L20.0888 20.0903C20.0382 20.1409 19.9698 20.1696 19.8982 20.1703L19.9032 20.6986ZM20.4623 20.4638C20.6108 20.3154 20.6951 20.1147 20.6971 19.9047L20.1688 19.8997C20.1681 19.9713 20.1394 20.0397 20.0888 20.0903L20.4623 20.4638ZM20.6971 19.9047C20.699 19.6948 20.6185 19.4924 20.4729 19.3412L20.0924 19.7077C20.142 19.7592 20.1695 19.8282 20.1688 19.8997L20.6971 19.9047Z" fill="url(#paint2_linear_3778_8673)"/>
<defs>
<linearGradient id="paint0_linear_3778_8673" x1="27.4202" y1="3.6592" x2="-5.89186" y2="21.5825" gradientUnits="userSpaceOnUse">
<stop stop-color="#88EDFE"/>
<stop offset="0.489" stop-color="#625EFE"/>
<stop offset="1" stop-color="#C224FE"/>
</linearGradient>
<linearGradient id="paint1_linear_3778_8673" x1="27.4202" y1="3.6592" x2="-5.89186" y2="21.5825" gradientUnits="userSpaceOnUse">
<stop stop-color="#88EDFE"/>
<stop offset="0.489" stop-color="#625EFE"/>
<stop offset="1" stop-color="#C224FE"/>
</linearGradient>
<linearGradient id="paint2_linear_3778_8673" x1="27.4202" y1="3.6592" x2="-5.89186" y2="21.5825" gradientUnits="userSpaceOnUse">
<stop stop-color="#88EDFE"/>
<stop offset="0.489" stop-color="#625EFE"/>
<stop offset="1" stop-color="#C224FE"/>
</linearGradient>
</defs>
</svg>
