<svg width="16" height="16" viewBox="0 0 16 16" fill="none" xmlns="http://www.w3.org/2000/svg">
<path d="M10.4804 0.305664H4.72972C2.18889 0.305664 0.12915 2.36541 0.12915 4.90623V10.6569C0.12915 13.1978 2.18889 15.2575 4.72972 15.2575H10.4804C13.0212 15.2575 15.081 13.1978 15.081 10.6569V4.90623C15.081 2.36541 13.0212 0.305664 10.4804 0.305664Z" fill="#646C7D"/>
<path d="M10.4796 0.880859H4.72887C2.50565 0.880859 0.703369 2.68314 0.703369 4.90636V10.6571C0.703369 12.8803 2.50565 14.6826 4.72887 14.6826H10.4796C12.7028 14.6826 14.5051 12.8803 14.5051 10.6571V4.90636C14.5051 2.68314 12.7028 0.880859 10.4796 0.880859Z" fill="url(#paint0_linear_2413_15979)" stroke="url(#paint1_linear_2413_15979)" stroke-width="1.15014"/>
<path d="M6.65081 10.6873C6.61076 10.7274 6.5632 10.7592 6.51085 10.7809C6.45851 10.8026 6.4024 10.8138 6.34574 10.8138C6.28907 10.8138 6.23297 10.8026 6.18062 10.7809C6.12827 10.7592 6.08071 10.7274 6.04066 10.6873L3.60409 8.24962C3.54392 8.18954 3.4962 8.11818 3.46363 8.03964C3.43107 7.96109 3.41431 7.8769 3.41431 7.79187C3.41431 7.70684 3.43107 7.62264 3.46363 7.5441C3.4962 7.46555 3.54392 7.3942 3.60409 7.33411L3.90887 7.02875C3.96896 6.96859 4.04032 6.92086 4.11886 6.88829C4.19741 6.85573 4.2816 6.83897 4.36663 6.83897C4.45166 6.83897 4.53585 6.85573 4.6144 6.88829C4.69294 6.92086 4.7643 6.96859 4.82439 7.02875L6.34717 8.55039L10.4561 4.43978C10.5161 4.37962 10.5875 4.33189 10.666 4.29933C10.7446 4.26676 10.8288 4.25 10.9138 4.25C10.9988 4.25 11.083 4.26676 11.1616 4.29933C11.2401 4.33189 11.3115 4.37962 11.3716 4.43978L11.6769 4.74514C11.7371 4.80523 11.7848 4.87658 11.8174 4.95513C11.8499 5.03368 11.8667 5.11787 11.8667 5.2029C11.8667 5.28793 11.8499 5.37212 11.8174 5.45067C11.7848 5.52921 11.7371 5.60057 11.6769 5.66065L6.65081 10.6873Z" fill="white"/>
<defs>
<linearGradient id="paint0_linear_2413_15979" x1="17.3596" y1="16.4641" x2="-2.21933" y2="-1.86935" gradientUnits="userSpaceOnUse">
<stop stop-color="#C224FE"/>
<stop offset="0.523958" stop-color="#625EFE"/>
<stop offset="1" stop-color="#88EDFE"/>
</linearGradient>
<linearGradient id="paint1_linear_2413_15979" x1="17.3596" y1="16.4641" x2="-2.21933" y2="-1.86935" gradientUnits="userSpaceOnUse">
<stop stop-color="#C224FE"/>
<stop offset="0.523958" stop-color="#625EFE"/>
<stop offset="1" stop-color="#88EDFE"/>
</linearGradient>
</defs>
</svg>
