<svg width="58" height="57" viewBox="0 0 58 57" fill="none" xmlns="http://www.w3.org/2000/svg">
<path d="M29.3157 0.789246C45.0816 0.789246 57.8628 13.3463 57.8628 28.8356C57.8628 44.3249 45.0816 56.8819 29.3157 56.8819C13.5498 56.8819 0.768555 44.3249 0.768555 28.8356C0.768555 13.3463 13.5498 0.789246 29.3157 0.789246Z" fill="white"/>
<path d="M39.5626 24.9218C40.2314 25.3329 40.7836 25.9085 41.1667 26.5937C41.5498 27.2789 41.751 28.0509 41.751 28.8359C41.751 29.6209 41.5498 30.3929 41.1667 31.0781C40.7836 31.7633 40.2314 32.3389 39.5626 32.75L27.7821 39.9929C27.0858 40.421 26.288 40.6557 25.4709 40.6727C24.6538 40.6897 23.8469 40.4884 23.1335 40.0896C22.4201 39.6908 21.826 39.1089 21.4124 38.404C20.9989 37.6991 20.7808 36.8966 20.7808 36.0793V21.5934C20.7808 20.7761 20.9989 19.9736 21.4124 19.2687C21.826 18.5638 22.4201 17.9819 23.1335 17.5831C23.8469 17.1843 24.6538 16.983 25.4709 17C26.288 17.017 27.0858 17.2517 27.7821 17.6798L39.5626 24.9218Z" fill="url(#paint0_linear_290_3353)"/>
<defs>
<linearGradient id="paint0_linear_290_3353" x1="43.5334" y1="19.3428" x2="13.3737" y2="34.6026" gradientUnits="userSpaceOnUse">
<stop stop-color="#88EDFE"/>
<stop offset="0.489" stop-color="#625EFE"/>
<stop offset="1" stop-color="#C224FE"/>
</linearGradient>
</defs>
</svg>
