<svg width="18" height="18" viewBox="0 0 18 18" fill="none" xmlns="http://www.w3.org/2000/svg">
<path fill-rule="evenodd" clip-rule="evenodd" d="M4.24661 2.27354C5.45089 1.46876 6.86676 1.03916 8.31519 1.03906C10.2569 1.04118 12.1185 1.81342 13.4915 3.18637C14.8646 4.55932 15.6369 6.42085 15.6392 8.36256C15.6392 9.81099 15.2097 11.2269 14.405 12.4312C14.2636 12.6429 14.1117 12.8463 13.9501 13.041L17.4245 16.5154C17.5504 16.6423 17.6209 16.814 17.6205 16.9928C17.6201 17.1716 17.5489 17.3429 17.4225 17.4694C17.2961 17.5958 17.1247 17.667 16.9459 17.6674C16.7671 17.6677 16.5954 17.5973 16.4685 17.4714L12.9941 13.997C12.4321 14.4635 11.8005 14.846 11.1184 15.1285C9.78022 15.6829 8.30774 15.8279 6.88713 15.5454C5.46652 15.2628 4.1616 14.5654 3.13737 13.5412C2.11314 12.5171 1.41561 11.2122 1.13297 9.79161C0.850335 8.37103 0.995294 6.89853 1.54952 5.56033C2.10374 4.22212 3.04233 3.07831 4.24661 2.27354ZM4.99779 13.328C5.97972 13.9842 7.13418 14.3345 8.31519 14.3346C9.89854 14.3328 11.4165 13.7031 12.5361 12.5835C13.6557 11.4639 14.2855 9.94591 14.2872 8.36256C14.2871 7.18155 13.9368 6.02709 13.2806 5.04516C12.6244 4.06323 11.6918 3.29793 10.6007 2.84602C9.50953 2.39411 8.3089 2.2759 7.15059 2.50633C5.99228 2.73676 4.9283 3.30548 4.0932 4.14057C3.2581 4.97567 2.68938 6.03965 2.45896 7.19796C2.22853 8.35627 2.34674 9.5569 2.79865 10.648C3.25056 11.7392 4.01586 12.6718 4.99779 13.328Z" fill="#CFD3DB"/>
<path d="M8.31519 1.03906L8.31546 0.789062L8.31517 0.789062L8.31519 1.03906ZM4.24661 2.27354L4.1077 2.06568L4.24661 2.27354ZM15.6392 8.36256H15.8892V8.36227L15.6392 8.36256ZM14.405 12.4312L14.6129 12.5701L14.405 12.4312ZM13.9501 13.041L13.7577 12.8812L13.6122 13.0566L13.7733 13.2177L13.9501 13.041ZM17.4245 16.5154L17.602 16.3393L17.6013 16.3386L17.4245 16.5154ZM17.6205 16.9928L17.8705 16.9933L17.6205 16.9928ZM17.4225 17.4694L17.5993 17.6462L17.5993 17.6462L17.4225 17.4694ZM16.9459 17.6674L16.9464 17.9174L16.9459 17.6674ZM16.4685 17.4714L16.2917 17.6481L16.2925 17.6489L16.4685 17.4714ZM12.9941 13.997L13.1708 13.8202L13.0097 13.659L12.8344 13.8046L12.9941 13.997ZM11.1184 15.1285L11.0227 14.8976L11.1184 15.1285ZM1.13297 9.79161L0.887777 9.8404H0.887777L1.13297 9.79161ZM1.54952 5.56033L1.78049 5.65599L1.54952 5.56033ZM8.31519 14.3346L8.31517 14.5846H8.31546L8.31519 14.3346ZM4.99779 13.328L4.85889 13.5358L4.99779 13.328ZM14.2872 8.36256L14.5372 8.36283V8.36254L14.2872 8.36256ZM13.2806 5.04516L13.4885 4.90626L13.2806 5.04516ZM2.79865 10.648L2.56767 10.7437L2.79865 10.648ZM8.31517 0.789062C6.8173 0.789165 5.35309 1.23343 4.1077 2.06568L4.38551 2.4814C5.54868 1.70409 6.91622 1.28916 8.31521 1.28906L8.31517 0.789062ZM13.6683 3.00959C12.2484 1.58983 10.3234 0.791252 8.31546 0.789063L8.31492 1.28906C10.1904 1.29111 11.9885 2.03702 13.3148 3.36316L13.6683 3.00959ZM15.8892 8.36227C15.8869 6.35436 15.0882 4.42935 13.6683 3.00959L13.3148 3.36316C14.641 4.68929 15.387 6.48735 15.3892 8.36285L15.8892 8.36227ZM14.6129 12.5701C15.445 11.3247 15.8892 9.86044 15.8892 8.36256H15.3892C15.3892 9.76155 14.9743 11.1291 14.1971 12.2923L14.6129 12.5701ZM14.1424 13.2007C14.3095 12.9994 14.4666 12.789 14.6129 12.5701L14.1971 12.2923C14.0605 12.4968 13.9138 12.6933 13.7577 12.8812L14.1424 13.2007ZM17.6013 16.3386L14.1269 12.8642L13.7733 13.2177L17.2477 16.6921L17.6013 16.3386ZM17.8705 16.9933C17.871 16.7484 17.7745 16.5132 17.602 16.3393L17.247 16.6914C17.3263 16.7714 17.3707 16.8796 17.3705 16.9923L17.8705 16.9933ZM17.5993 17.6462C17.7725 17.473 17.87 17.2382 17.8705 16.9933L17.3705 16.9923C17.3703 17.1049 17.3254 17.2129 17.2457 17.2926L17.5993 17.6462ZM16.9464 17.9174C17.1913 17.9168 17.4261 17.8193 17.5993 17.6462L17.2457 17.2926C17.1661 17.3723 17.0581 17.4171 16.9454 17.4174L16.9464 17.9174ZM16.2925 17.6489C16.4664 17.8213 16.7015 17.9179 16.9464 17.9174L16.9454 17.4174C16.8327 17.4176 16.7245 17.3732 16.6445 17.2938L16.2925 17.6489ZM12.8173 14.1737L16.2917 17.6481L16.6453 17.2946L13.1708 13.8202L12.8173 14.1737ZM11.2141 15.3595C11.9195 15.0673 12.5727 14.6718 13.1538 14.1893L12.8344 13.8046C12.2916 14.2553 11.6816 14.6247 11.0227 14.8976L11.2141 15.3595ZM6.83836 15.7906C8.30747 16.0828 9.83022 15.9327 11.2141 15.3595L11.0227 14.8976C9.73023 15.433 8.30801 15.5731 6.9359 15.3002L6.83836 15.7906ZM2.9606 13.718C4.01979 14.7771 5.36926 15.4984 6.83836 15.7906L6.9359 15.3002C5.56379 15.0273 4.30341 14.3537 3.31414 13.3645L2.9606 13.718ZM0.887777 9.8404C1.18006 11.3095 1.90141 12.6589 2.9606 13.718L3.31414 13.3645C2.32488 12.3753 1.65115 11.1149 1.37817 9.74283L0.887777 9.8404ZM1.31854 5.46467C0.7454 6.84855 0.595493 8.37131 0.887777 9.8404L1.37817 9.74283C1.10518 8.37074 1.24519 6.94851 1.78049 5.65599L1.31854 5.46467ZM4.1077 2.06568C2.86232 2.89793 1.89168 4.08078 1.31854 5.46467L1.78049 5.65599C2.31579 4.36346 3.22235 3.2587 4.38551 2.4814L4.1077 2.06568ZM8.31521 14.0846C7.18365 14.0845 6.07752 13.7488 5.1367 13.1201L4.85889 13.5358C5.88193 14.2195 7.08472 14.5845 8.31517 14.5846L8.31521 14.0846ZM12.3594 12.4067C11.2866 13.4795 9.83205 14.0829 8.31492 14.0846L8.31546 14.5846C9.96502 14.5828 11.5465 13.9267 12.7129 12.7603L12.3594 12.4067ZM14.0372 8.36229C14.0355 9.87943 13.4321 11.334 12.3594 12.4067L12.7129 12.7603C13.8793 11.5939 14.5354 10.0124 14.5372 8.36283L14.0372 8.36229ZM13.0727 5.18407C13.7015 6.12489 14.0371 7.23102 14.0372 8.36258L14.5372 8.36254C14.5371 7.13209 14.1721 5.9293 13.4885 4.90626L13.0727 5.18407ZM10.505 3.07699C11.5504 3.50998 12.444 4.24325 13.0727 5.18407L13.4885 4.90626C12.8048 3.88322 11.8331 3.08587 10.6963 2.61505L10.505 3.07699ZM7.19936 2.75152C8.30918 2.53074 9.45955 2.64401 10.505 3.07699L10.6963 2.61505C9.55951 2.14422 8.30861 2.02106 7.10181 2.26113L7.19936 2.75152ZM4.26998 4.31735C5.07012 3.51721 6.08955 2.9723 7.19936 2.75152L7.10181 2.26113C5.895 2.50121 4.78649 3.09374 3.91643 3.9638L4.26998 4.31735ZM2.70415 7.24674C2.92493 6.13692 3.46984 5.11749 4.26998 4.31735L3.91643 3.9638C3.04637 4.83386 2.45384 5.94238 2.21376 7.14918L2.70415 7.24674ZM3.02962 10.5524C2.59663 9.50692 2.48337 8.35655 2.70415 7.24674L2.21376 7.14918C1.97369 8.35598 2.09685 9.60688 2.56767 10.7437L3.02962 10.5524ZM5.1367 13.1201C4.19587 12.4914 3.46261 11.5978 3.02962 10.5524L2.56767 10.7437C3.0385 11.8805 3.83584 12.8522 4.85889 13.5358L5.1367 13.1201Z" fill="#CDD1D9"/>
</svg>
