<svg width="18" height="18" viewBox="0 0 18 18" fill="none" xmlns="http://www.w3.org/2000/svg">
<path fill-rule="evenodd" clip-rule="evenodd" d="M4.25442 2.23448C5.4587 1.4297 6.87457 1.0001 8.323 1C10.2647 1.00212 12.1263 1.77436 13.4993 3.14731C14.8724 4.52026 15.6448 6.38179 15.647 8.3235C15.647 9.77193 15.2175 11.1878 14.4128 12.3922C14.2714 12.6038 14.1195 12.8073 13.9579 13.0019L17.4323 16.4763C17.5582 16.6033 17.6287 16.7749 17.6283 16.9537C17.6279 17.1325 17.5567 17.3039 17.4303 17.4303C17.3039 17.5567 17.1325 17.6279 16.9537 17.6283C16.7749 17.6287 16.6033 17.5582 16.4763 17.4323L13.0019 13.9579C12.4399 14.4245 11.8083 14.8069 11.1262 15.0895C9.78804 15.6438 8.31555 15.7889 6.89494 15.5063C5.47434 15.2238 4.16941 14.5263 3.14518 13.5022C2.12095 12.478 1.42342 11.1731 1.14078 9.75255C0.858148 8.33196 1.00311 6.85947 1.55733 5.52126C2.11155 4.18306 3.05014 3.03925 4.25442 2.23448ZM5.0056 13.2889C5.98754 13.9451 7.14199 14.2954 8.323 14.2955C9.90635 14.2938 11.4243 13.664 12.5439 12.5444C13.6635 11.4248 14.2933 9.90685 14.295 8.3235C14.2949 7.14249 13.9446 5.98803 13.2884 5.0061C12.6322 4.02417 11.6996 3.25886 10.6085 2.80696C9.51734 2.35505 8.31671 2.23684 7.1584 2.46727C6.00009 2.69769 4.93611 3.26641 4.10102 4.10151C3.26592 4.93661 2.6972 6.00058 2.46677 7.1589C2.23634 8.31721 2.35455 9.51783 2.80646 10.609C3.25837 11.7001 4.02367 12.6327 5.0056 13.2889Z" fill="url(#paint0_linear_5765_10820)"/>
<path d="M8.323 1L8.32328 0.75L8.32299 0.75L8.323 1ZM4.25442 2.23448L4.11552 2.02662L4.11552 2.02662L4.25442 2.23448ZM15.647 8.3235L15.897 8.3235L15.897 8.32321L15.647 8.3235ZM14.4128 12.3922L14.6207 12.5311L14.6207 12.5311L14.4128 12.3922ZM13.9579 13.0019L13.7656 12.8422L13.62 13.0175L13.7811 13.1787L13.9579 13.0019ZM17.4323 16.4763L17.6098 16.3003L17.6091 16.2995L17.4323 16.4763ZM17.6283 16.9537L17.8783 16.9542L17.8783 16.9542L17.6283 16.9537ZM16.9537 17.6283L16.9542 17.8783L16.9542 17.8783L16.9537 17.6283ZM16.4763 17.4323L16.2995 17.6091L16.3003 17.6098L16.4763 17.4323ZM13.0019 13.9579L13.1787 13.7811L13.0175 13.62L12.8422 13.7656L13.0019 13.9579ZM11.1262 15.0895L11.0305 14.8585L11.0305 14.8585L11.1262 15.0895ZM1.14078 9.75255L0.895589 9.80133L0.895589 9.80133L1.14078 9.75255ZM1.55733 5.52126L1.7883 5.61692L1.55733 5.52126ZM8.323 14.2955L8.32298 14.5455L8.32327 14.5455L8.323 14.2955ZM5.0056 13.2889L4.8667 13.4968L4.8667 13.4968L5.0056 13.2889ZM14.295 8.3235L14.545 8.32377L14.545 8.32348L14.295 8.3235ZM13.2884 5.0061L13.4963 4.8672L13.4963 4.8672L13.2884 5.0061ZM2.80646 10.609L2.57549 10.7046L2.57549 10.7046L2.80646 10.609ZM8.32299 0.75C6.82511 0.750102 5.3609 1.19437 4.11552 2.02662L4.39333 2.44233C5.55649 1.66503 6.92403 1.2501 8.32302 1.25L8.32299 0.75ZM13.6761 2.97053C12.2562 1.55077 10.3312 0.75219 8.32328 0.75L8.32273 1.25C10.1982 1.25204 11.9963 1.99796 13.3226 3.32409L13.6761 2.97053ZM15.897 8.32321C15.8947 6.31529 15.096 4.39029 13.6761 2.97053L13.3226 3.32409C14.6488 4.65023 15.3948 6.44829 15.397 8.32379L15.897 8.32321ZM14.6207 12.5311C15.4528 11.2856 15.897 9.82138 15.897 8.3235H15.397C15.397 9.72249 14.9822 11.0901 14.2049 12.2533L14.6207 12.5311ZM14.1502 13.1616C14.3173 12.9603 14.4744 12.7499 14.6207 12.5311L14.2049 12.2533C14.0683 12.4577 13.9216 12.6542 13.7656 12.8422L14.1502 13.1616ZM17.6091 16.2995L14.1347 12.8251L13.7811 13.1787L17.2555 16.6531L17.6091 16.2995ZM17.8783 16.9542C17.8788 16.7093 17.7823 16.4742 17.6098 16.3003L17.2548 16.6523C17.3341 16.7323 17.3785 16.8405 17.3783 16.9532L17.8783 16.9542ZM17.6071 17.6071C17.7803 17.4339 17.8778 17.1992 17.8783 16.9542L17.3783 16.9532C17.3781 17.0659 17.3332 17.1739 17.2535 17.2535L17.6071 17.6071ZM16.9542 17.8783C17.1992 17.8778 17.4339 17.7803 17.6071 17.6071L17.2535 17.2535C17.1739 17.3332 17.0659 17.3781 16.9532 17.3783L16.9542 17.8783ZM16.3003 17.6098C16.4742 17.7823 16.7093 17.8788 16.9542 17.8783L16.9532 17.3783C16.8405 17.3785 16.7323 17.3341 16.6523 17.2548L16.3003 17.6098ZM12.8251 14.1347L16.2995 17.6091L16.6531 17.2555L13.1787 13.7811L12.8251 14.1347ZM11.2219 15.3205C11.9273 15.0282 12.5805 14.6327 13.1616 14.1502L12.8422 13.7656C12.2994 14.2162 11.6894 14.5856 11.0305 14.8585L11.2219 15.3205ZM6.84618 15.7515C8.31528 16.0437 9.83803 15.8937 11.2219 15.3205L11.0305 14.8585C9.73804 15.3939 8.31582 15.534 6.94371 15.2611L6.84618 15.7515ZM2.96841 13.679C4.02761 14.7381 5.37708 15.4593 6.84618 15.7515L6.94371 15.2611C5.5716 14.9882 4.31122 14.3146 3.32195 13.3254L2.96841 13.679ZM0.895589 9.80133C1.18787 11.2704 1.90922 12.6198 2.96841 13.679L3.32195 13.3254C2.33269 12.3362 1.65896 11.0759 1.38598 9.70377L0.895589 9.80133ZM1.32635 5.42561C0.753212 6.80949 0.603305 8.33225 0.895589 9.80133L1.38598 9.70377C1.11299 8.33167 1.253 6.90945 1.7883 5.61692L1.32635 5.42561ZM4.11552 2.02662C2.87013 2.85887 1.89949 4.04172 1.32635 5.42561L1.7883 5.61692C2.32361 4.3244 3.23016 3.21964 4.39333 2.44233L4.11552 2.02662ZM8.32302 14.0455C7.19146 14.0454 6.08533 13.7098 5.14451 13.0811L4.8667 13.4968C5.88974 14.1804 7.09253 14.5454 8.32298 14.5455L8.32302 14.0455ZM12.3672 12.3677C11.2944 13.4404 9.83987 14.0439 8.32273 14.0455L8.32327 14.5455C9.97283 14.5437 11.5543 13.8876 12.7207 12.7212L12.3672 12.3677ZM14.045 8.32323C14.0434 9.84036 13.4399 11.2949 12.3672 12.3677L12.7207 12.7212C13.8871 11.5548 14.5432 9.97333 14.545 8.32377L14.045 8.32323ZM13.0806 5.14501C13.7093 6.08583 14.0449 7.19196 14.045 8.32352L14.545 8.32348C14.5449 7.09303 14.1799 5.89024 13.4963 4.8672L13.0806 5.14501ZM10.5128 3.03793C11.5583 3.47092 12.4518 4.20418 13.0806 5.14501L13.4963 4.8672C12.8126 3.84415 11.8409 3.04681 10.7041 2.57598L10.5128 3.03793ZM7.20718 2.71246C8.31699 2.49168 9.46736 2.60494 10.5128 3.03793L10.7041 2.57598C9.56732 2.10516 8.31643 1.982 7.10962 2.22207L7.20718 2.71246ZM4.27779 4.27829C5.07793 3.47815 6.09736 2.93324 7.20718 2.71246L7.10962 2.22207C5.90282 2.46214 4.7943 3.05467 3.92424 3.92474L4.27779 4.27829ZM2.71196 7.20767C2.93274 6.09786 3.47765 5.07843 4.27779 4.27829L3.92424 3.92474C3.05418 4.7948 2.46165 5.90331 2.22157 7.11012L2.71196 7.20767ZM3.03743 10.5133C2.60445 9.46785 2.49118 8.31749 2.71196 7.20767L2.22157 7.11012C1.9815 8.31692 2.10466 9.56782 2.57549 10.7046L3.03743 10.5133ZM5.14451 13.0811C4.20369 12.4523 3.47042 11.5587 3.03743 10.5133L2.57549 10.7046C3.04631 11.8414 3.84366 12.8131 4.8667 13.4968L5.14451 13.0811Z" fill="url(#paint1_linear_5765_10820)"/>
<defs>
<linearGradient id="paint0_linear_5765_10820" x1="26.4247" y1="-3.48964" x2="-15.5119" y2="19.075" gradientUnits="userSpaceOnUse">
<stop stop-color="#88EDFE"/>
<stop offset="0.489" stop-color="#625EFE"/>
<stop offset="1" stop-color="#C224FE"/>
</linearGradient>
<linearGradient id="paint1_linear_5765_10820" x1="26.4247" y1="-3.48964" x2="-15.5119" y2="19.075" gradientUnits="userSpaceOnUse">
<stop stop-color="#88EDFE"/>
<stop offset="0.489" stop-color="#625EFE"/>
<stop offset="1" stop-color="#C224FE"/>
</linearGradient>
</defs>
</svg>
