<svg width="11" height="11" viewBox="0 0 11 11" fill="none" xmlns="http://www.w3.org/2000/svg">
<path d="M9.2565 2.89474H7.8265L4.675 1.15789L1.1 3.12632V8.68421C0.495 8.68421 0 8.16316 0 7.52632V2.99316C0 2.68632 0.176 2.36211 0.44 2.21737L4.675 0L8.822 2.21737C9.0585 2.35053 9.2235 2.62263 9.2565 2.89474ZM9.9 3.47368H2.75C2.145 3.47368 1.65 3.99474 1.65 4.63158V9.8421C1.65 10.4789 2.145 11 2.75 11H9.9C10.505 11 11 10.4789 11 9.8421V4.63158C11 3.99474 10.505 3.47368 9.9 3.47368ZM9.9 5.59842L6.325 7.52632L2.75 5.59842V4.63158L6.325 6.55947L9.9 4.63158V5.59842Z" fill="#303548"/>
</svg>
