<svg width="12" height="12" viewBox="0 0 12 12" fill="none" xmlns="http://www.w3.org/2000/svg">
<path d="M2.37791 10.5542L0.000137329 11.9191L1.36507 9.53066L1.42893 9.52002L3.21144 7.7285L1.60129 6.1077C1.30134 5.80911 1.33627 5.47122 1.70609 5.09403H3.6147L6.47229 2.3433L6.34415 2.20451C6.27556 2.14165 6.22109 2.06496 6.18432 1.9795C6.14755 1.89404 6.12933 1.80175 6.13085 1.70873C6.12953 1.61547 6.14733 1.52292 6.18317 1.4368C6.21901 1.35068 6.27213 1.27283 6.33923 1.20804C6.40418 1.14106 6.48213 1.08805 6.5683 1.05229C6.65447 1.01652 6.74705 0.998754 6.84034 1.00007C6.93388 0.998796 7.02675 1.01605 7.11359 1.05083C7.20044 1.08561 7.27954 1.13723 7.34635 1.20272L10.7034 4.57205C10.7693 4.63878 10.8212 4.71788 10.8564 4.8048C10.8915 4.89172 10.9091 4.98473 10.9081 5.07848C10.9097 5.17133 10.8926 5.26356 10.8578 5.34965C10.8229 5.43574 10.7711 5.51394 10.7054 5.57958C10.6418 5.64675 10.5648 5.69993 10.4794 5.73574C10.3941 5.77154 10.3022 5.78919 10.2097 5.78755C10.1152 5.78857 10.0214 5.77016 9.93432 5.73347C9.8472 5.69678 9.76856 5.64259 9.70325 5.57426L9.56446 5.43547L6.81413 8.30411L6.80349 10.2127C6.43394 10.5823 6.09987 10.6142 5.80129 10.3085L4.19072 8.69672L2.39961 10.4878L2.37791 10.5542Z" fill="#303548"/>
<path d="M3.60381 1.61192C3.26868 1.27399 2.77381 1.22137 2.4985 1.4944C2.22319 1.76743 2.27168 2.26272 2.60681 2.60065L9.58511 9.63729C9.92024 9.97522 10.4151 10.0278 10.6904 9.7548C10.9657 9.48177 10.9172 8.98649 10.5821 8.64856L3.60381 1.61192Z" fill="#303548"/>
<path d="M2 1.1084L11 10.1084" stroke="#303548" stroke-linecap="round"/>
</svg>
