<svg width="12" height="10" viewBox="0 0 12 10" fill="none" xmlns="http://www.w3.org/2000/svg">
<path fill-rule="evenodd" clip-rule="evenodd" d="M9.99268 9.42276L7.14428 6.93042L5.86591 8.21924L4.12875 6.46013V6.18016H5.17186V5.20455L2.88806 3.20622H1.21254V2.30529L0.882084 2.64109C0.835886 2.68804 0.791513 2.73016 0.749723 2.76984L0.749712 2.76985C0.492578 3.01397 0.333203 3.16527 0.448031 3.77503C0.525776 4.18788 0.775333 5.67264 0.989052 6.94418L0.989057 6.94421C1.1423 7.85594 1.27711 8.65803 1.31696 8.87676C1.34603 9.03645 1.43043 9.1808 1.55533 9.28444C1.68024 9.38809 1.83767 9.44442 1.99998 9.44352H9.82112C9.87936 9.44381 9.93697 9.43674 9.99268 9.42276ZM4.40665 3.20622H10.6057V2.30529L10.9353 2.64109H10.937C10.9827 2.68755 11.0267 2.72933 11.0682 2.76872C11.3264 3.01404 11.4867 3.16635 11.3731 3.77503C11.2977 4.17901 11.0555 5.61808 10.8442 6.87422L10.8442 6.87427L10.8441 6.87471C10.7271 7.57016 10.6195 8.20949 10.5549 8.58596L6.56281 5.09286V4.71729H6.13358L4.40665 3.20622ZM3.76079 2.64109L2.47146 1.51292C2.49927 1.50899 2.52742 1.50719 2.55564 1.50756H9.26054C9.33489 1.50636 9.40872 1.52026 9.47754 1.54843C9.54637 1.5766 9.60876 1.61844 9.66094 1.67143C9.71312 1.72442 9.754 1.78745 9.78111 1.8567C9.80823 1.92595 9.821 1.99999 9.81866 2.07432L9.8203 2.64109H3.76079ZM1.99916 2.42843L2.2422 2.64109H1.99916V2.42843ZM5.40348 5.40721V6.41259H4.41076L5.86591 7.88806L6.96718 6.77545L6.55248 6.41259H6.33119V6.21896L5.40348 5.40721ZM8.14223 0.373613H3.67436C3.59995 0.372359 3.52606 0.386221 3.45716 0.41436C3.38827 0.442499 3.3258 0.484329 3.27355 0.537317C3.22129 0.590305 3.18033 0.653349 3.15315 0.722631C3.12597 0.791913 3.11313 0.865991 3.11541 0.94038H8.70118C8.70346 0.865991 8.69062 0.791913 8.66344 0.722631C8.63626 0.653349 8.5953 0.590305 8.54305 0.537317C8.49079 0.484329 8.42832 0.442499 8.35943 0.41436C8.29053 0.386221 8.21664 0.372359 8.14223 0.373613Z" fill="#303548"/>
</svg>
