<svg width="24" height="24" viewBox="0 0 24 24" fill="none" xmlns="http://www.w3.org/2000/svg">
<g id="Iconly/Bulk/Heart">
<g id="Heart">
<path id="Path_34179" d="M11.7757 21.8374C9.49262 20.4273 7.37032 18.7645 5.44758 16.8796C4.0902 15.5338 3.05355 13.8905 2.41686 12.0753C1.27922 8.53523 2.6035 4.48948 6.3008 3.2884C8.25231 2.67553 10.3747 3.05175 12.0067 4.29983V4.29983C13.6393 3.05315 15.7611 2.67705 17.7127 3.2884C21.41 4.48948 22.7431 8.53523 21.6055 12.0753C20.974 13.8888 19.9435 15.5319 18.5926 16.8796C16.6681 18.7625 14.546 20.4251 12.2645 21.8374L12.0156 22L11.7757 21.8374Z" fill="#FF6969"/>
<path id="Path_34178" d="M12.0109 22L11.776 21.8374C9.49013 20.4274 7.36487 18.7647 5.43902 16.8796C4.0752 15.5356 3.03238 13.8922 2.39052 12.0752C1.26177 8.5352 2.58605 4.48945 6.28335 3.28837C8.23486 2.6755 10.3853 3.05201 12.0109 4.31054V22Z" fill="#FF6969"/>
</g>
</g>
</svg>
