<svg width="28" height="28" viewBox="0 0 28 28" fill="none" xmlns="http://www.w3.org/2000/svg">
<path d="M17.434 0H10.566C4.73058 0 0 4.73058 0 10.566V17.434C0 23.2694 4.73058 28 10.566 28H17.434C23.2694 28 28 23.2694 28 17.434V10.566C28 4.73058 23.2694 0 17.434 0Z" fill="#484863"/>
<path d="M11.7247 20.962V18.5352C11.7247 17.9157 12.2305 17.4135 12.8546 17.4135H15.1357C15.4353 17.4135 15.7227 17.5317 15.9346 17.7421C16.1465 17.9524 16.2655 18.2377 16.2655 18.5352V20.962C16.2637 21.2195 16.3654 21.4672 16.5482 21.6499C16.7309 21.8327 16.9797 21.9355 17.2391 21.9355H18.7954C19.5222 21.9374 20.2199 21.6521 20.7345 21.1425C21.2491 20.633 21.5383 19.9411 21.5383 19.2195V12.306C21.5383 11.7232 21.2781 11.1703 20.8277 10.7964L15.5336 6.5989C14.6127 5.86295 13.2932 5.88671 12.3998 6.65534L7.22645 10.7964C6.75481 11.1593 6.47291 11.7138 6.45898 12.306V19.2125C6.45898 20.7164 7.68706 21.9355 9.20198 21.9355H10.7227C11.2615 21.9355 11.6995 21.5039 11.7034 20.969L11.7247 20.962Z" fill="#A2A2AF"/>
</svg>
