<svg width="39" height="39" viewBox="0 0 39 39" fill="none" xmlns="http://www.w3.org/2000/svg">
<path d="M19.0132 0C13.9706 0 9.13454 2.00317 5.56889 5.56882C2.00323 9.13448 6.48499e-05 13.9706 6.48499e-05 19.0132C6.48499e-05 24.0558 2.00323 28.8918 5.56889 32.4575C9.13454 36.0231 13.9706 38.0263 19.0132 38.0263H38.0264V19.0132C38.0264 13.9706 36.0232 9.13448 32.4575 5.56882C28.8919 2.00317 24.0558 0 19.0132 0Z" fill="white"/>
<path d="M20.0662 23.8343V24.889H21.9949C22.1209 24.8876 22.2458 24.9116 22.3624 24.9594C22.4789 25.0073 22.5846 25.0781 22.6732 25.1677C22.7654 25.2546 22.8385 25.3598 22.8878 25.4766C22.9371 25.5934 22.9614 25.7192 22.9593 25.8459C22.9612 25.973 22.9375 26.0993 22.8896 26.2171C22.8417 26.3349 22.7707 26.4418 22.6807 26.5316C22.5926 26.6244 22.4861 26.6978 22.368 26.747C22.2499 26.7963 22.1228 26.8204 21.9949 26.8178H16.2081C16.0802 26.8204 15.9531 26.7963 15.8351 26.747C15.717 26.6977 15.6105 26.6244 15.5224 26.5316C15.4322 26.4419 15.3611 26.335 15.3132 26.2171C15.2653 26.0993 15.2417 25.9731 15.2437 25.8459C15.2429 25.7194 15.2674 25.594 15.3157 25.4771C15.364 25.3602 15.4351 25.254 15.5249 25.1649C15.6147 25.0758 15.7214 25.0055 15.8387 24.9582C15.956 24.9108 16.0816 24.8873 16.2081 24.889H18.1368V23.8343C16.7913 23.6203 15.5685 22.9271 14.6939 21.8824C13.7876 20.8476 13.2964 19.5139 13.315 18.1384C13.3136 18.0125 13.3375 17.8875 13.3854 17.771C13.4333 17.6545 13.5041 17.5488 13.5936 17.4602C13.6817 17.3674 13.7882 17.294 13.9063 17.2448C14.0244 17.1955 14.1514 17.1714 14.2793 17.174C14.4072 17.1714 14.5343 17.1955 14.6524 17.2448C14.7705 17.294 14.877 17.3674 14.9651 17.4602C15.0546 17.5488 15.1254 17.6545 15.1733 17.771C15.2212 17.8875 15.2451 18.0125 15.2437 18.1384C15.2362 18.6456 15.3326 19.1489 15.527 19.6174C15.7213 20.0859 16.0096 20.5097 16.3739 20.8626C16.7273 21.2272 17.1516 21.5155 17.6206 21.7099C18.0896 21.9043 18.5935 22.0005 19.1012 21.9928C19.609 22.0009 20.1131 21.9048 20.5823 21.7104C21.0515 21.516 21.4758 21.2275 21.8291 20.8626C22.1938 20.5093 22.4822 20.085 22.6766 19.6159C22.8709 19.1469 22.9672 18.643 22.9593 18.1353C22.9634 17.8797 23.0674 17.6359 23.249 17.4561C23.4307 17.2763 23.6756 17.1748 23.9312 17.1734C24.0579 17.1713 24.1837 17.1956 24.3005 17.2449C24.4173 17.2942 24.5225 17.3673 24.6094 17.4595C24.6989 17.5481 24.7698 17.6538 24.8176 17.7704C24.8655 17.8869 24.8894 18.0118 24.888 18.1378C24.9068 19.5135 24.4156 20.8474 23.5091 21.8824C22.6345 22.9271 21.4117 23.6203 20.0662 23.8343ZM19.1018 21.029C18.7216 21.0307 18.3448 20.9571 17.9932 20.8124C17.6416 20.6678 17.3221 20.455 17.0531 20.1863C16.7841 19.9175 16.5709 19.5983 16.4259 19.2468C16.2809 18.8953 16.2068 18.5186 16.2081 18.1384V14.2803C16.2017 13.899 16.2736 13.5204 16.4193 13.168C16.565 12.8155 16.7815 12.4967 17.0553 12.2312C17.3207 11.9585 17.6392 11.743 17.991 11.5978C18.3429 11.4527 18.7206 11.381 19.1012 11.3872C19.4824 11.3802 19.861 11.4516 20.2135 11.5967C20.5661 11.7419 20.8851 11.9579 21.1509 12.2312C21.424 12.4971 21.6398 12.816 21.785 13.1684C21.9302 13.5208 22.0016 13.8992 21.9949 14.2803V18.1384C21.9965 18.5188 21.9227 18.8957 21.7779 19.2474C21.6331 19.5991 21.42 19.9187 21.1511 20.1876C20.8821 20.4566 20.5625 20.6697 20.2108 20.8145C19.8591 20.9593 19.4822 21.0331 19.1018 21.0315V21.029Z" fill="url(#paint0_linear_798_4804)"/>
<defs>
<linearGradient id="paint0_linear_798_4804" x1="24.8886" y1="11.3867" x2="10.0743" y2="22.4981" gradientUnits="userSpaceOnUse">
<stop stop-color="#88EDFE"/>
<stop offset="0.489" stop-color="#625EFE"/>
<stop offset="1" stop-color="#C224FE"/>
</linearGradient>
</defs>
</svg>
