<svg width="34" height="34" viewBox="0 0 34 34" fill="none" xmlns="http://www.w3.org/2000/svg">
<path d="M22 0H12C5.37258 0 0 5.37258 0 12V22C0 28.6274 5.37258 34 12 34H22C28.6274 34 34 28.6274 34 22V12C34 5.37258 28.6274 0 22 0Z" fill="#505665"/>
<path d="M23.309 24.2789H10.693C10.4321 24.2798 10.1792 24.1893 9.97825 24.023C9.77727 23.8568 9.64094 23.6253 9.59299 23.3689C9.52799 23.0139 9.30799 21.7209 9.05499 20.2209C8.70699 18.1669 8.31399 15.8369 8.18899 15.1799C8.08045 14.895 8.06938 14.5822 8.15749 14.2904C8.2456 13.9985 8.42794 13.7441 8.67599 13.5669C8.74099 13.5059 8.81399 13.4359 8.88899 13.3599L9.42799 12.8209V14.2699H24.575V12.8209L25.107 13.3599C25.183 13.4359 25.256 13.5049 25.32 13.5659C25.5685 13.743 25.7514 13.9974 25.84 14.2894C25.9287 14.5814 25.9181 14.8945 25.81 15.1799C25.686 15.8339 25.294 18.1579 24.947 20.2079V20.2249V20.2319C24.695 21.7249 24.477 23.0139 24.412 23.3679C24.3643 23.6251 24.2277 23.8573 24.026 24.0238C23.8244 24.1904 23.5705 24.2807 23.309 24.2789ZM14.173 19.1119V19.5649L16.996 22.4109L19.828 19.5699V19.1119H18.128V16.7439H15.868V19.1119H14.173ZM16.996 21.8749L14.628 19.4909H16.246V17.1209H17.753V19.4909H19.371L16.997 21.8749H16.996ZM23.306 13.3599H10.692V12.4499C10.6893 12.3305 10.7107 12.2118 10.7548 12.1008C10.799 11.9899 10.865 11.8889 10.949 11.804C11.0329 11.7191 11.1332 11.6519 11.2436 11.6066C11.3541 11.5612 11.4726 11.5385 11.592 11.5399H22.405C22.5244 11.5385 22.6429 11.5612 22.7533 11.6066C22.8638 11.6519 22.964 11.7191 23.048 11.804C23.132 11.8889 23.198 11.9899 23.2422 12.1008C23.2863 12.2118 23.3077 12.3305 23.305 12.4499V13.3599H23.306ZM21.503 10.6309H12.493C12.4903 10.5115 12.5117 10.3928 12.5558 10.2818C12.6 10.1709 12.666 10.0699 12.75 9.985C12.8339 9.90009 12.9342 9.83295 13.0446 9.78757C13.1551 9.7422 13.2736 9.71952 13.393 9.7209H20.601C20.7204 9.71939 20.8388 9.74194 20.9493 9.7872C21.0597 9.83246 21.16 9.89951 21.2439 9.98434C21.3279 10.0692 21.394 10.1701 21.4382 10.281C21.4823 10.3919 21.5037 10.5105 21.501 10.6299L21.503 10.6309Z" fill="#F4FAFF"/>
</svg>
