<svg width="40" height="39" viewBox="0 0 40 39" fill="none" xmlns="http://www.w3.org/2000/svg">
<path d="M20.0025 0C14.9599 0 10.1238 2.00317 6.55814 5.56882C2.99249 9.13448 0.989323 13.9706 0.989323 19.0132C0.989323 24.0558 2.99249 28.8918 6.55814 32.4575C10.1238 36.0231 14.9599 38.0263 20.0025 38.0263H39.0156V19.0132C39.0156 13.9706 37.0125 9.13448 33.4468 5.56882C29.8811 2.00317 25.0451 0 20.0025 0Z" fill="white"/>
<path d="M19.9922 23C20.2755 23 20.5132 22.904 20.7052 22.712C20.8972 22.52 20.9929 22.2827 20.9922 22V20H22.9922C23.2755 20 23.5132 19.904 23.7052 19.712C23.8972 19.52 23.9929 19.2827 23.9922 19C23.9922 18.7167 23.8962 18.479 23.7042 18.287C23.5122 18.095 23.2749 17.9993 22.9922 18H20.9922V16C20.9922 15.7167 20.8962 15.479 20.7042 15.287C20.5122 15.095 20.2749 14.9993 19.9922 15C19.7089 15 19.4712 15.096 19.2792 15.288C19.0872 15.48 18.9915 15.7173 18.9922 16V18H16.9922C16.7089 18 16.4712 18.096 16.2792 18.288C16.0872 18.48 15.9915 18.7173 15.9922 19C15.9922 19.2833 16.0882 19.521 16.2802 19.713C16.4722 19.905 16.7095 20.0007 16.9922 20H18.9922V22C18.9922 22.2833 19.0882 22.521 19.2802 22.713C19.4722 22.905 19.7095 23.0007 19.9922 23ZM13.9922 27C13.4422 27 12.9712 26.804 12.5792 26.412C12.1872 26.02 11.9915 25.5493 11.9922 25V13C11.9922 12.45 12.1882 11.979 12.5802 11.587C12.9722 11.195 13.4429 10.9993 13.9922 11H25.9922C26.5422 11 27.0132 11.196 27.4052 11.588C27.7972 11.98 27.9929 12.4507 27.9922 13V17.5L31.1422 14.35C31.2922 14.2 31.4712 14.1623 31.6792 14.237C31.8872 14.3117 31.9915 14.466 31.9922 14.7V23.3C31.9922 23.5333 31.8879 23.6877 31.6792 23.763C31.4705 23.8383 31.2915 23.8007 31.1422 23.65L27.9922 20.5V25C27.9922 25.55 27.7962 26.021 27.4042 26.413C27.0122 26.805 26.5415 27.0007 25.9922 27H13.9922Z" fill="url(#paint0_linear_9366_13911)"/>
<defs>
<linearGradient id="paint0_linear_9366_13911" x1="2.46567" y1="17" x2="34.0725" y2="35.9092" gradientUnits="userSpaceOnUse">
<stop stop-color="#D51AFF"/>
<stop offset="0.502" stop-color="#4E6AFE"/>
<stop offset="1" stop-color="#8BF3FE"/>
</linearGradient>
</defs>
</svg>
