<svg width="34" height="34" viewBox="0 0 34 34" fill="none" xmlns="http://www.w3.org/2000/svg">
<path d="M22 0H12C5.37258 0 0 5.37258 0 12V22C0 28.6274 5.37258 34 12 34H22C28.6274 34 34 28.6274 34 22V12C34 5.37258 28.6274 0 22 0Z" fill="#505665"/>
<path d="M22.483 10.7319H19.61V10.2099C19.61 9.79452 19.445 9.3961 19.1514 9.10226C18.8577 8.80842 18.4594 8.64321 18.044 8.64294H15.955C15.5394 8.64294 15.1408 8.80804 14.8469 9.10191C14.5531 9.39578 14.388 9.79435 14.388 10.2099V10.7319H11.516C11.1696 10.7319 10.8374 10.8695 10.5925 11.1145C10.3476 11.3594 10.21 11.6916 10.21 12.0379V13.0819C10.21 13.2204 10.265 13.3532 10.3629 13.4511C10.4607 13.5489 10.5935 13.6039 10.732 13.6039H23.267C23.4054 13.6039 23.5382 13.5489 23.6361 13.4511C23.734 13.3532 23.789 13.2204 23.789 13.0819V12.0379C23.789 11.6916 23.6514 11.3594 23.4064 11.1145C23.1615 10.8695 22.8293 10.7319 22.483 10.7319ZM15.432 10.2099C15.4322 10.0716 15.4873 9.93896 15.5851 9.84113C15.683 9.74329 15.8156 9.68821 15.954 9.68794H18.043C18.1813 9.68821 18.3139 9.74329 18.4118 9.84113C18.5096 9.93896 18.5647 10.0716 18.565 10.2099V10.7319H15.433L15.432 10.2099Z" fill="#F4FAFF"/>
<path d="M11.2013 14.6489C11.1792 14.6489 11.1573 14.6534 11.137 14.662C11.1167 14.6707 11.0984 14.6835 11.0831 14.6995C11.0679 14.7155 11.056 14.7344 11.0483 14.7551C11.0406 14.7758 11.0372 14.7979 11.0383 14.8199L11.4693 23.8629C11.4881 24.2652 11.6612 24.6448 11.9527 24.9227C12.2442 25.2005 12.6316 25.3554 13.0343 25.3549H20.9653C21.368 25.3554 21.7554 25.2005 22.0469 24.9227C22.3384 24.6448 22.5115 24.2652 22.5303 23.8629L22.9613 14.8199C22.9624 14.7979 22.959 14.7758 22.9513 14.7551C22.9435 14.7344 22.9317 14.7155 22.9165 14.6995C22.9012 14.6835 22.8829 14.6707 22.8626 14.662C22.8423 14.6534 22.8204 14.6489 22.7983 14.6489H11.2013ZM19.0883 15.9549C19.0883 15.8163 19.1433 15.6835 19.2413 15.5855C19.3393 15.4875 19.4722 15.4324 19.6108 15.4324C19.7494 15.4324 19.8823 15.4875 19.9802 15.5855C20.0782 15.6835 20.1333 15.8163 20.1333 15.9549V22.7449C20.1333 22.8835 20.0782 23.0164 19.9802 23.1144C19.8823 23.2124 19.7494 23.2674 19.6108 23.2674C19.4722 23.2674 19.3393 23.2124 19.2413 23.1144C19.1433 23.0164 19.0883 22.8835 19.0883 22.7449V15.9549ZM16.4773 15.9549C16.4773 15.8163 16.5323 15.6835 16.6303 15.5855C16.7283 15.4875 16.8612 15.4324 16.9998 15.4324C17.1384 15.4324 17.2713 15.4875 17.3692 15.5855C17.4672 15.6835 17.5223 15.8163 17.5223 15.9549V22.7449C17.5223 22.8835 17.4672 23.0164 17.3692 23.1144C17.2713 23.2124 17.1384 23.2674 16.9998 23.2674C16.8612 23.2674 16.7283 23.2124 16.6303 23.1144C16.5323 23.0164 16.4773 22.8835 16.4773 22.7449V15.9549ZM13.8663 15.9549C13.8663 15.8163 13.9213 15.6835 14.0193 15.5855C14.1173 15.4875 14.2502 15.4324 14.3888 15.4324C14.5274 15.4324 14.6603 15.4875 14.7582 15.5855C14.8562 15.6835 14.9113 15.8163 14.9113 15.9549V22.7449C14.9113 22.8835 14.8562 23.0164 14.7582 23.1144C14.6603 23.2124 14.5274 23.2674 14.3888 23.2674C14.2502 23.2674 14.1173 23.2124 14.0193 23.1144C13.9213 23.0164 13.8663 22.8835 13.8663 22.7449V15.9549Z" fill="#F4FAFF"/>
</svg>
