<svg width="12" height="11" viewBox="0 0 12 11" fill="none" xmlns="http://www.w3.org/2000/svg">
<path d="M11.9208 4.49742C11.9213 4.55046 11.9109 4.60303 11.8903 4.6519C11.8696 4.70076 11.8392 4.74488 11.8009 4.78155L8.56664 8.01578C8.51009 8.07159 8.43836 8.10952 8.36039 8.12482C8.28242 8.14012 8.20168 8.13211 8.12823 8.10181C8.05478 8.0715 7.99188 8.02024 7.94739 7.95441C7.9029 7.88858 7.87878 7.81111 7.87804 7.73166V6.11413H6.46439C6.05172 6.11413 5.68231 6.12682 5.35615 6.1522C5.02945 6.17765 4.7046 6.22304 4.38343 6.28812C4.09346 6.3429 3.81132 6.4331 3.54335 6.55669C3.30261 6.67239 3.07856 6.82001 2.87726 6.99556C2.67061 7.17486 2.49927 7.39119 2.37206 7.6334C2.23091 7.9097 2.12789 8.20387 2.06583 8.50787C1.98838 8.88386 1.95132 9.26705 1.9553 9.65091C1.9553 9.88235 1.9658 10.1416 1.98682 10.4288C1.98918 10.4784 1.99437 10.5279 2.00238 10.577C2.0112 10.6324 2.01639 10.6883 2.01793 10.7444C2.01989 10.8017 2.00082 10.8578 1.9643 10.902C1.94599 10.9231 1.92313 10.9397 1.89746 10.9506C1.87178 10.9615 1.84397 10.9665 1.8161 10.9651C1.77998 10.9633 1.74486 10.9525 1.71397 10.9337C1.68308 10.9149 1.65739 10.8887 1.63924 10.8574C1.60673 10.8144 1.57926 10.7679 1.55736 10.7186C1.53225 10.664 1.50387 10.6008 1.47221 10.5291C1.44055 10.4573 1.41844 10.4068 1.40589 10.3776C0.954062 9.48995 0.681537 8.52199 0.603878 7.52901C0.583556 6.81324 0.697133 6.09998 0.938765 5.42594C1.62109 3.72912 3.46338 2.88072 6.46562 2.88072H7.88008V1.26401C7.87963 1.21097 7.89003 1.1584 7.91066 1.10954C7.93129 1.06067 7.96171 1.01655 8.00004 0.979888C8.03697 0.941907 8.08114 0.911716 8.12994 0.891101C8.17874 0.870485 8.23118 0.859863 8.28416 0.859863C8.33714 0.859863 8.38957 0.870485 8.43838 0.891101C8.48718 0.911716 8.53135 0.941907 8.56828 0.979888L11.8025 4.21412C11.8408 4.25078 11.8713 4.29491 11.8919 4.34377C11.9125 4.39263 11.9229 4.4452 11.9225 4.49824L11.9208 4.49742Z" fill="#303548"/>
</svg>
