<svg width="34" height="34" viewBox="0 0 34 34" fill="none" xmlns="http://www.w3.org/2000/svg">
<path d="M22 0H12C5.37258 0 0 5.37258 0 12V22C0 28.6274 5.37258 34 12 34H22C28.6274 34 34 28.6274 34 22V12C34 5.37258 28.6274 0 22 0Z" fill="#505665"/>
<path d="M23.5488 13.596L17.6148 10.664C17.4232 10.5702 17.2126 10.5215 16.9993 10.5215C16.7859 10.5215 16.5754 10.5702 16.3838 10.664L10.4488 13.596C10.1296 13.7509 9.86047 13.9925 9.67213 14.2931C9.48379 14.5937 9.38387 14.9413 9.38379 15.296V21.572C9.38854 22.0792 9.59395 22.5638 9.95508 22.9198C10.3162 23.2759 10.8037 23.4744 11.3108 23.472H22.6878C23.1949 23.4744 23.6824 23.2759 24.0435 22.9198C24.4046 22.5638 24.61 22.0792 24.6148 21.572V15.299C24.6147 14.9443 24.5148 14.5967 24.3264 14.2961C24.1381 13.9955 23.869 13.7539 23.5498 13.599L23.5488 13.596ZM16.8758 11.637C16.9141 11.6182 16.9561 11.6085 16.9988 11.6085C17.0414 11.6085 17.0835 11.6182 17.1218 11.637L22.8808 14.481L17.0338 17.371C16.9955 17.3898 16.9534 17.3996 16.9108 17.3996C16.8681 17.3996 16.8261 17.3898 16.7878 17.371L11.0278 14.526L16.8758 11.637Z" fill="#F4FAFF"/>
</svg>
