<svg width="10" height="9" viewBox="0 0 10 9" fill="none" xmlns="http://www.w3.org/2000/svg">
<path d="M8.69186 2.70553L5.35395 1.0559C5.24622 1.00306 5.12781 0.975586 5.00782 0.975586C4.88782 0.975586 4.76942 1.00306 4.66168 1.0559L1.32377 2.70553C1.14381 2.79282 0.99213 2.9291 0.886144 3.09872C0.780158 3.26834 0.72417 3.46442 0.724612 3.66443V7.1932C0.726656 7.47862 0.841749 7.75159 1.04468 7.95232C1.2476 8.15304 1.52182 8.26515 1.80724 8.26407H8.20777C8.4932 8.26515 8.76741 8.15304 8.97034 7.95232C9.17327 7.75159 9.28836 7.47862 9.2904 7.1932V3.66288C9.29084 3.46287 9.23486 3.2668 9.12887 3.09718C9.02289 2.92755 8.8712 2.79127 8.69124 2.70398L8.69186 2.70553ZM4.93853 1.60341C4.96009 1.59281 4.98379 1.58731 5.00782 1.58731C5.03184 1.58731 5.05554 1.59281 5.07711 1.60341L8.31572 3.20292L5.027 4.82842C5.00543 4.83901 4.98173 4.84452 4.95771 4.84452C4.93368 4.84452 4.90998 4.83901 4.88842 4.82842L1.64918 3.22859L4.93853 1.60341Z" fill="white"/>
</svg>
