<svg width="12" height="10" viewBox="0 0 12 10" fill="none" xmlns="http://www.w3.org/2000/svg">
<path d="M10.7362 2.37799L6.31844 0.194682C6.17585 0.124742 6.01914 0.0883789 5.86032 0.0883789C5.70151 0.0883789 5.5448 0.124742 5.40221 0.194682L0.984411 2.37799C0.746233 2.49352 0.545475 2.6739 0.405201 2.8984C0.264926 3.12289 0.190825 3.38241 0.19141 3.64712V8.31752C0.194115 8.69528 0.346444 9.05657 0.615022 9.32223C0.883601 9.58789 1.24653 9.73627 1.6243 9.73485H10.0955C10.4733 9.73627 10.8362 9.58789 11.1048 9.32223C11.3734 9.05657 11.5257 8.69528 11.5284 8.31752V3.64508C11.529 3.38036 11.4549 3.12085 11.3146 2.89635C11.1744 2.67185 10.9736 2.49148 10.7354 2.37595L10.7362 2.37799ZM5.76862 0.919314C5.79716 0.905294 5.82853 0.898004 5.86032 0.898004C5.89212 0.898004 5.92349 0.905294 5.95203 0.919314L10.2384 3.0363L5.88571 5.18768C5.85717 5.2017 5.8258 5.20899 5.794 5.20899C5.76221 5.20899 5.73083 5.2017 5.7023 5.18768L1.4151 3.07028L5.76862 0.919314Z" fill="#303548"/>
</svg>
