<svg width="25" height="25" viewBox="0 0 25 25" fill="none" xmlns="http://www.w3.org/2000/svg">
<path d="M16.1929 0H9.07754C4.36187 0 0.539062 3.82237 0.539062 8.5375V15.6521C0.539062 20.3672 4.36187 24.1896 9.07754 24.1896H16.1929C20.9086 24.1896 24.7314 20.3672 24.7314 15.6521V8.5375C24.7314 3.82237 20.9086 0 16.1929 0Z" fill="#505665"/>
<path d="M16.2565 9.63158H14.8265L11.675 8.05263L8.1 9.84211V14.8947C7.495 14.8947 7 14.4211 7 13.8421V9.72105C7 9.44211 7.176 9.14737 7.44 9.01579L11.675 7L15.822 9.01579C16.0585 9.13684 16.2235 9.38421 16.2565 9.63158ZM16.9 10.1579H9.75C9.145 10.1579 8.65 10.6316 8.65 11.2105V15.9474C8.65 16.5263 9.145 17 9.75 17H16.9C17.505 17 18 16.5263 18 15.9474V11.2105C18 10.6316 17.505 10.1579 16.9 10.1579ZM16.9 12.0895L13.325 13.8421L9.75 12.0895V11.2105L13.325 12.9632L16.9 11.2105V12.0895Z" fill="#F8F8F8"/>
</svg>
