<svg width="52" height="52" viewBox="0 0 52 52" fill="none" xmlns="http://www.w3.org/2000/svg">
<path d="M25.986 51.9716C40.3377 51.9716 51.972 40.3372 51.972 25.9856C51.972 11.6339 40.3377 -0.000427246 25.986 -0.000427246C11.6343 -0.000427246 0 11.6339 0 25.9856C0 40.3372 11.6343 51.9716 25.986 51.9716Z" fill="white" fill-opacity="0.7"/>
<path fill-rule="evenodd" clip-rule="evenodd" d="M23.135 33.0537C23.135 33.3788 23.0058 33.6907 22.7759 33.9206C22.546 34.1505 22.2342 34.2797 21.909 34.2797H20.684C20.3589 34.2797 20.047 34.1505 19.8171 33.9206C19.5872 33.6907 19.458 33.3788 19.458 33.0537V18.3467C19.458 18.1857 19.4897 18.0262 19.5513 17.8775C19.6129 17.7288 19.7033 17.5936 19.8171 17.4798C19.9309 17.3659 20.0661 17.2756 20.2148 17.214C20.3636 17.1524 20.523 17.1207 20.684 17.1207H21.91C22.2352 17.1207 22.547 17.2498 22.7769 17.4798C23.0068 17.7097 23.136 18.0215 23.136 18.3467L23.135 33.0537ZM31.714 33.0537C31.714 33.3788 31.5848 33.6907 31.3549 33.9206C31.125 34.1505 30.8132 34.2797 30.488 34.2797H29.258C28.9329 34.2797 28.621 34.1505 28.3911 33.9206C28.1612 33.6907 28.032 33.3788 28.032 33.0537V18.3467C28.032 18.1857 28.0637 18.0262 28.1253 17.8775C28.1869 17.7288 28.2772 17.5936 28.3911 17.4798C28.5049 17.3659 28.6401 17.2756 28.7888 17.214C28.9376 17.1524 29.097 17.1207 29.258 17.1207H30.488C30.8132 17.1207 31.125 17.2498 31.3549 17.4798C31.5848 17.7097 31.714 18.0215 31.714 18.3467V33.0537Z" fill="#ECF6F8"/>
</svg>
