<svg width="34" height="34" viewBox="0 0 34 34" fill="none" xmlns="http://www.w3.org/2000/svg">
<path d="M12 0H22C25.1826 0 28.2348 1.26428 30.4853 3.51472C32.7357 5.76516 34 8.8174 34 12V22C34 25.1826 32.7357 28.2348 30.4853 30.4853C28.2348 32.7357 25.1826 34 22 34H12C8.8174 34 5.76516 32.7357 3.51472 30.4853C1.26428 28.2348 0 25.1826 0 22L0 12C0 8.8174 1.26428 5.76516 3.51472 3.51472C5.76516 1.26428 8.8174 0 12 0V0Z" fill="#505665"/>
<path d="M18.2701 18.672V22.341L24.6301 16.998L18.2701 11.274V14.454C10.8281 14.454 9.37012 22.723 9.37012 22.723C11.4771 19.026 14.2361 18.672 18.2701 18.672Z" fill="#F4FAFF"/>
</svg>
