<svg width="25" height="25" viewBox="0 0 25 25" fill="none" xmlns="http://www.w3.org/2000/svg">
<path d="M15.9234 0H8.80801C4.09234 0 0.269531 3.82237 0.269531 8.5375V15.6521C0.269531 20.3672 4.09234 24.1896 8.80801 24.1896H15.9234C20.6391 24.1896 24.4619 20.3672 24.4619 15.6521V8.5375C24.4619 3.82237 20.6391 0 15.9234 0Z" fill="#505665"/>
<path d="M16.901 17.7339H7.90099C7.87246 17.7339 7.23219 17.7268 7.11432 17.0898C7.06792 16.8389 6.91192 15.923 6.73125 14.8624C6.48352 13.4084 6.20273 11.7596 6.11406 11.2941C5.98233 10.6021 6.16259 10.4328 6.46073 10.1528C6.50699 10.1096 6.55925 10.0603 6.61312 10.0061L6.99352 9.62493V10.6501H17.8025V9.62493L18.1819 10.0061C18.2353 10.0595 18.2886 10.109 18.3341 10.1518C18.6338 10.4318 18.814 10.6012 18.6841 11.294C18.5959 11.7569 18.3157 13.4016 18.0685 14.8527L18.0663 14.8649L18.0655 14.87C17.8854 15.9265 17.7299 16.8393 17.6837 17.0897C17.5675 17.7268 16.9282 17.7339 16.901 17.7339ZM10.3837 14.0775V14.3975L12.3977 16.4118L14.4158 14.401V14.0771H13.2055V12.4007H11.5922V14.0771L10.3837 14.0775ZM12.3977 16.0328L10.7109 14.346H11.8625V12.6701H12.9377V14.346H14.0921L12.3987 16.0329L12.3977 16.0328ZM16.8987 10.0061H7.90033V9.36211C7.90033 8.72544 8.53646 8.71797 8.54286 8.71797H16.2561C16.2626 8.71797 16.8987 8.72544 16.8987 9.36211V10.006V10.0061ZM15.6126 8.07454H9.18499C9.18499 7.43788 9.82166 7.43066 9.82806 7.43066H14.9699C14.9763 7.43066 15.6123 7.43789 15.6126 8.07415V8.07454Z" fill="#F4FAFF"/>
<path d="M6 6L17.7333 18" stroke="#505665" stroke-width="2.47059"/>
</svg>
