<svg width="21" height="16" viewBox="0 0 21 16" fill="none" xmlns="http://www.w3.org/2000/svg">
<path d="M9.29763 15.6671C8.77634 15.6281 8.28265 15.4233 7.89256 15.0843L4.76514 12.5492H3.1646C2.55947 12.541 1.98111 12.305 1.55081 11.8906C1.12051 11.4762 0.871699 10.9157 0.856564 10.3266C0.685833 8.69868 0.685833 7.05809 0.856564 5.4302C0.898484 4.85565 1.15763 4.31662 1.58393 3.9173C2.01022 3.51798 2.57339 3.28672 3.1646 3.26821H4.76514L7.83024 0.771057C8.26187 0.409708 8.80086 0.192228 9.36845 0.150391C9.85865 0.171177 10.3285 0.347044 10.7068 0.651326C11.0851 0.955608 11.3512 1.37171 11.4647 1.83654C11.5655 2.26067 11.6339 2.69148 11.6694 3.12545L11.7119 3.50613C11.8712 6.4396 11.8712 9.37923 11.7119 12.3127L11.6694 12.7079C11.6384 13.1299 11.572 13.5487 11.4711 13.9602C11.3633 14.4273 11.1013 14.8472 10.7251 15.1554C10.3489 15.4637 9.87934 15.6434 9.38828 15.6671H9.29763ZM16.9229 15.4781C16.7462 15.352 16.6263 15.1643 16.5883 14.9542C16.5503 14.7441 16.5971 14.5279 16.7189 14.3506C17.9788 12.4294 18.627 10.1884 18.5822 7.90941C18.6269 5.63064 17.9787 3.38986 16.7189 1.46896C16.5967 1.29206 16.5494 1.07608 16.5867 0.866022C16.6241 0.655967 16.7432 0.468044 16.9193 0.341418C17.0068 0.280547 17.106 0.237451 17.2109 0.214699C17.3159 0.191948 17.4245 0.190006 17.5302 0.208991C17.636 0.227976 17.7367 0.267498 17.8264 0.325201C17.9161 0.382905 17.993 0.457608 18.0524 0.544859C19.5007 2.73873 20.2493 5.30107 20.204 7.90872C20.249 10.5171 19.4996 13.08 18.0503 15.274C17.9764 15.3801 17.877 15.4669 17.7607 15.527C17.6444 15.5871 17.5148 15.6186 17.3832 15.6188C17.2174 15.6194 17.0555 15.5698 16.92 15.4767L16.9229 15.4781ZM14.124 12.8575C13.9475 12.7313 13.8278 12.5436 13.7899 12.3335C13.752 12.1234 13.7989 11.9072 13.9208 11.73C14.6668 10.5893 15.05 9.2594 15.022 7.90735C15.0501 6.55527 14.6669 5.22531 13.9208 4.08473C13.7988 3.90758 13.7518 3.69143 13.7896 3.48136C13.8273 3.27128 13.9469 3.0835 14.1233 2.95718C14.2111 2.89676 14.3105 2.85411 14.4155 2.83178C14.5206 2.80945 14.6292 2.80789 14.7348 2.82718C14.8405 2.84648 14.9411 2.88624 15.0307 2.94411C15.1203 3.00198 15.1971 3.07678 15.2565 3.16407C16.1911 4.57767 16.6751 6.22907 16.6474 7.9101C16.6751 9.59114 16.1911 11.2425 15.2565 12.6561C15.1973 12.7437 15.1206 12.8187 15.031 12.8767C14.9415 12.9347 14.8408 12.9746 14.735 12.9939C14.6293 13.0132 14.5206 13.0116 14.4155 12.9891C14.3104 12.9666 14.211 12.9237 14.1233 12.863L14.124 12.8575Z" fill="white"/>
</svg>
