<svg width="39" height="39" viewBox="0 0 39 39" fill="none" xmlns="http://www.w3.org/2000/svg">
<path d="M19.0132 0C24.0558 0 28.8918 2.00317 32.4575 5.56882C36.0231 9.13448 38.0263 13.9706 38.0263 19.0132V38.0263H19.0132C13.9706 38.0263 9.13448 36.0231 5.56882 32.4575C2.00317 28.8918 0 24.0558 0 19.0132H0C0 13.9706 2.00317 9.13448 5.56882 5.56882C9.13448 2.00317 13.9706 0 19.0132 0Z" fill="white"/>
<path d="M26.6907 23.8988C26.5234 23.8987 26.3579 23.8635 26.2051 23.7953C26.1694 23.7796 26.1354 23.7604 26.1035 23.738L23.0146 21.5636C22.8581 21.4533 22.7303 21.307 22.6421 21.137C22.5539 20.967 22.5078 20.7783 22.5078 20.5868V17.6214C22.5079 17.4298 22.554 17.2411 22.6424 17.071C22.7307 16.901 22.8586 16.7548 23.0152 16.6445L26.1047 14.4702C26.1366 14.4477 26.1707 14.4285 26.2063 14.4128C26.3884 14.3313 26.588 14.2967 26.7869 14.3122C26.9857 14.3276 27.1776 14.3926 27.3449 14.5011C27.5123 14.6097 27.6498 14.7585 27.7449 14.9338C27.84 15.1092 27.8897 15.3055 27.8895 15.505V22.7032C27.8895 23.0201 27.7636 23.3241 27.5395 23.5482C27.3153 23.7723 27.0114 23.8982 26.6944 23.8982L26.6907 23.8988Z" fill="url(#paint0_linear_798_4797)"/>
<path d="M19.3712 24.4818H12.5009C11.8278 24.4809 11.1825 24.2132 10.7065 23.7372C10.2305 23.2612 9.96274 22.6159 9.96191 21.9427V16.2656C9.96274 15.5925 10.2305 14.9471 10.7065 14.4711C11.1825 13.9952 11.8278 13.7274 12.5009 13.7266H19.3887C20.0573 13.7272 20.6982 13.9931 21.171 14.4658C21.6437 14.9386 21.9096 15.5796 21.9103 16.2481V21.9421C21.9096 22.6154 21.6419 23.2609 21.1659 23.737C20.6899 24.2131 20.0445 24.4809 19.3712 24.4818Z" fill="url(#paint1_linear_798_4797)"/>
<defs>
<linearGradient id="paint0_linear_798_4797" x1="27.8895" y1="13.0715" x2="20.0001" y2="19.3666" gradientUnits="userSpaceOnUse">
<stop stop-color="#88EDFE"/>
<stop offset="0.489" stop-color="#625EFE"/>
<stop offset="1" stop-color="#C224FE"/>
</linearGradient>
<linearGradient id="paint1_linear_798_4797" x1="21.9103" y1="12.3391" x2="13.7084" y2="25.2953" gradientUnits="userSpaceOnUse">
<stop stop-color="#88EDFE"/>
<stop offset="0.489" stop-color="#625EFE"/>
<stop offset="1" stop-color="#C224FE"/>
</linearGradient>
</defs>
</svg>
