<svg width="18" height="18" viewBox="0 0 18 18" fill="none" xmlns="http://www.w3.org/2000/svg">
<path fill-rule="evenodd" clip-rule="evenodd" d="M8.732 2.87338C8.70351 2.88579 8.65689 2.92181 8.6284 2.95346C8.57948 3.00782 8.5766 3.04747 8.5766 3.66678C8.5766 4.29273 8.57909 4.32585 8.63105 4.39546C8.73726 4.53779 8.95971 4.53785 9.06605 4.39557C9.11697 4.32743 9.12104 4.28485 9.12876 3.73541C9.13733 3.12368 9.12259 2.99891 9.03207 2.917C8.97432 2.86473 8.80763 2.84049 8.732 2.87338ZM4.15874 4.79055C4.10067 4.84862 4.08304 4.89005 4.08304 4.96832C4.08304 5.09208 4.12261 5.14499 4.58808 5.64391C5.01938 6.1062 5.1078 6.1436 5.30011 5.9452C5.37213 5.8709 5.3898 5.83223 5.3898 5.74876C5.3898 5.64849 5.37335 5.62847 4.92275 5.17985C4.46347 4.7226 4.45387 4.71486 4.34506 4.71486C4.25734 4.71486 4.21878 4.73052 4.15874 4.79055ZM12.7297 5.22431C12.4304 5.52195 12.264 5.70666 12.2539 5.75255C12.2281 5.87028 12.2994 5.99919 12.4105 6.03589C12.5889 6.09478 12.6529 6.05371 13.1286 5.5751C13.5534 5.14763 13.5623 5.13647 13.5623 5.02837C13.5623 4.8727 13.4562 4.76665 13.3004 4.76665C13.192 4.76665 13.1817 4.77489 12.7297 5.22431ZM8.42121 5.63741C7.49807 5.77707 6.77384 6.13741 6.14112 6.77187C5.57148 7.3431 5.23792 7.94933 5.06266 8.73206C4.97774 9.11141 4.9773 9.85648 5.06181 10.2467C5.25838 11.1545 5.71007 11.896 6.41928 12.4753C6.73994 12.7371 7.00725 13.1217 7.12755 13.4942C7.16627 13.6141 7.17614 13.7756 7.19 14.5171C7.20577 15.3614 7.20895 15.404 7.26767 15.553C7.31162 15.6645 7.37339 15.7526 7.48655 15.8652C7.73565 16.1129 7.74031 16.1137 8.90296 16.1045L9.87158 16.0968L10.0177 16.0251C10.1882 15.9414 10.3579 15.7679 10.4372 15.5964C10.49 15.4821 10.4941 15.4248 10.5089 14.5818C10.5217 13.851 10.5326 13.6608 10.5686 13.5368C10.682 13.1472 10.8854 12.8241 11.1866 12.5551C11.8182 11.9911 12.0351 11.7352 12.2759 11.2695C12.4448 10.9429 12.5525 10.6455 12.6344 10.2798C12.6865 10.0474 12.6946 9.94062 12.6946 9.49296C12.6946 9.04529 12.6865 8.93852 12.6344 8.70616C12.2856 7.1485 11.1633 6.0275 9.61989 5.69531C9.38571 5.64492 8.61709 5.60778 8.42121 5.63741ZM9.50899 6.22945C10.1508 6.36254 10.7001 6.64946 11.1396 7.08132C12.0652 7.99067 12.3942 9.30831 11.9952 10.5074C11.7852 11.1383 11.4923 11.5513 10.8644 12.1022C10.4066 12.5037 10.0661 13.1183 9.98305 13.6927L9.95177 13.909L8.84979 13.9023L7.74782 13.8955L7.72798 13.7143C7.66877 13.173 7.40051 12.6393 6.99194 12.25C6.90912 12.171 6.76794 12.0445 6.67825 11.9687C6.11379 11.4921 5.7685 10.9045 5.60738 10.1465C5.53149 9.78943 5.52582 9.20316 5.59518 8.88436C5.8923 7.51829 7.0008 6.42726 8.30466 6.21759C8.4115 6.20042 8.51639 6.18211 8.53776 6.17693C8.63423 6.15354 9.32228 6.19073 9.50899 6.22945ZM8.732 7.01832C8.59507 7.07436 8.53465 7.2486 8.60253 7.39165C8.65314 7.49827 8.72247 7.52865 8.9651 7.55038C9.94394 7.6381 10.6906 8.3847 10.7783 9.36347C10.8002 9.60763 10.8302 9.6753 10.9396 9.7272C11.015 9.76297 11.0488 9.76568 11.1272 9.7422C11.2982 9.69097 11.3225 9.63982 11.3179 9.34107C11.3084 8.73071 11.0425 8.15004 10.5591 7.68412C10.3024 7.43664 10.0315 7.26626 9.70971 7.14982C9.35867 7.0228 8.87875 6.95826 8.732 7.01832ZM2.40925 9.21236C2.2694 9.24141 2.17753 9.47048 2.25 9.6095C2.26854 9.64511 2.32438 9.69493 2.37403 9.72023C2.45429 9.7611 2.53243 9.7654 3.07759 9.75908C3.6544 9.75235 3.69522 9.7487 3.76372 9.6975C3.90596 9.59121 3.90596 9.3688 3.76372 9.26252C3.69485 9.21106 3.6574 9.20788 3.07759 9.20451C2.7403 9.20252 2.43953 9.20606 2.40925 9.21236ZM14.0122 9.21236C13.8724 9.24141 13.7805 9.47048 13.853 9.6095C13.8715 9.64511 13.9274 9.69493 13.977 9.72023C14.0573 9.7611 14.1354 9.7654 14.6806 9.75908C15.2574 9.75235 15.2982 9.7487 15.3667 9.6975C15.509 9.59121 15.509 9.3688 15.3667 9.26252C15.2978 9.21106 15.2604 9.20788 14.6806 9.20451C14.3433 9.20252 14.0425 9.20606 14.0122 9.21236ZM5.04132 12.9413C5.01995 12.9494 4.79561 13.1615 4.54275 13.4126C4.08894 13.8632 4.08304 13.8705 4.08304 13.9806C4.08304 14.1446 4.16581 14.2193 4.3476 14.2193H4.48502L4.93741 13.7664C5.37301 13.3303 5.3898 13.3096 5.3898 13.2095C5.3898 13.1286 5.37263 13.0884 5.31267 13.0285C5.23598 12.9519 5.11547 12.9132 5.04132 12.9413ZM12.4051 12.9662C12.3595 12.9886 12.3038 13.0467 12.2803 13.0963C12.2023 13.2606 12.234 13.312 12.7044 13.7855L13.1354 14.2193H13.3044C13.4635 14.2193 13.476 14.2148 13.5178 14.1441C13.5423 14.1027 13.5623 14.0248 13.5623 13.971C13.5623 13.879 13.5359 13.8465 13.1284 13.4356C12.7198 13.0234 12.6011 12.9236 12.5211 12.925C12.5026 12.9253 12.4504 12.9438 12.4051 12.9662ZM9.96223 14.8805C9.96223 15.3818 9.93985 15.4678 9.79334 15.529C9.71546 15.5615 9.55527 15.5667 8.81027 15.5604L7.92028 15.553L7.85494 15.4916C7.76429 15.4064 7.73487 15.2402 7.73487 14.8136V14.4523H8.84855H9.96223V14.8805Z" fill="#FF6969" stroke="#FF6969" stroke-width="0.0946341"/>
</svg>
