<svg width="24" height="24" viewBox="0 0 24 24" fill="none" xmlns="http://www.w3.org/2000/svg">
<path d="M13.2004 3.59844C13.2004 3.28018 13.074 2.97495 12.8489 2.74991C12.6239 2.52487 12.3186 2.39844 12.0004 2.39844C11.6821 2.39844 11.3769 2.52487 11.1519 2.74991C10.9268 2.97495 10.8004 3.28018 10.8004 3.59844V4.79844C10.8004 5.1167 10.9268 5.42192 11.1519 5.64696C11.3769 5.87201 11.6821 5.99844 12.0004 5.99844C12.3186 5.99844 12.6239 5.87201 12.8489 5.64696C13.074 5.42192 13.2004 5.1167 13.2004 4.79844V3.59844ZM18.7888 6.90684C19.0074 6.68051 19.1283 6.37739 19.1256 6.06276C19.1229 5.74812 18.9967 5.44714 18.7742 5.22465C18.5517 5.00216 18.2507 4.87596 17.9361 4.87323C17.6214 4.87049 17.3183 4.99145 17.092 5.21004L16.2436 6.05844C16.025 6.28476 15.904 6.58788 15.9068 6.90252C15.9095 7.21715 16.0357 7.51813 16.2582 7.74062C16.4807 7.96311 16.7817 8.08931 17.0963 8.09205C17.4109 8.09478 17.7141 7.97383 17.9404 7.75524L18.7888 6.90684ZM21.6004 11.9984C21.6004 12.3167 21.474 12.6219 21.2489 12.847C21.0239 13.072 20.7186 13.1984 20.4004 13.1984H19.2004C18.8821 13.1984 18.5769 13.072 18.3519 12.847C18.1268 12.6219 18.0004 12.3167 18.0004 11.9984C18.0004 11.6802 18.1268 11.375 18.3519 11.1499C18.5769 10.9249 18.8821 10.7984 19.2004 10.7984H20.4004C20.7186 10.7984 21.0239 10.9249 21.2489 11.1499C21.474 11.375 21.6004 11.6802 21.6004 11.9984ZM6.06039 7.75524C6.17109 7.86985 6.3035 7.96127 6.4499 8.02416C6.59631 8.08705 6.75377 8.12015 6.91311 8.12154C7.07244 8.12292 7.23046 8.09256 7.37793 8.03222C7.52541 7.97189 7.65939 7.88278 7.77206 7.77011C7.88474 7.65744 7.97384 7.52346 8.03418 7.37598C8.09451 7.22851 8.12487 7.07049 8.12349 6.91116C8.12211 6.75182 8.089 6.59436 8.02611 6.44795C7.96322 6.30155 7.8718 6.16913 7.75719 6.05844L6.90879 5.21004C6.68247 4.99145 6.37934 4.87049 6.06471 4.87323C5.75007 4.87596 5.4491 5.00216 5.22661 5.22465C5.00412 5.44714 4.87792 5.74812 4.87518 6.06276C4.87245 6.37739 4.9934 6.68051 5.21199 6.90684L6.06039 7.75524ZM6.00039 11.9984C6.00039 12.3167 5.87396 12.6219 5.64892 12.847C5.42387 13.072 5.11865 13.1984 4.80039 13.1984H3.60039C3.28213 13.1984 2.97691 13.072 2.75186 12.847C2.52682 12.6219 2.40039 12.3167 2.40039 11.9984C2.40039 11.6802 2.52682 11.375 2.75186 11.1499C2.97691 10.9249 3.28213 10.7984 3.60039 10.7984H4.80039C5.11865 10.7984 5.42387 10.9249 5.64892 11.1499C5.87396 11.375 6.00039 11.6802 6.00039 11.9984ZM9.60039 19.1984V17.9984H14.4004V19.1984C14.4004 19.835 14.1475 20.4454 13.6974 20.8955C13.2474 21.3456 12.6369 21.5984 12.0004 21.5984C11.3639 21.5984 10.7534 21.3456 10.3033 20.8955C9.85325 20.4454 9.60039 19.835 9.60039 19.1984ZM14.4004 16.7984C14.4184 16.3904 14.65 16.0232 14.9728 15.7676C15.756 15.1499 16.3273 14.3036 16.6074 13.3462C16.8874 12.3889 16.8622 11.368 16.5353 10.4256C16.2084 9.48323 15.596 8.66609 14.7833 8.08777C13.9706 7.50946 12.9979 7.19871 12.0004 7.19871C11.0029 7.19871 10.0302 7.50946 9.21747 8.08777C8.40475 8.66609 7.79238 9.48323 7.46548 10.4256C7.13858 11.368 7.11339 12.3889 7.39342 13.3462C7.67344 14.3036 8.24477 15.1499 9.02799 15.7676C9.35199 16.0232 9.58239 16.3904 9.59919 16.7984H14.4016H14.4004Z" fill="#FF6969"/>
</svg>
