<svg width="34" height="34" viewBox="0 0 34 34" fill="none" xmlns="http://www.w3.org/2000/svg">
<path d="M23.1736 0.695444C20.3798 0.695444 17.7004 1.80527 15.7249 3.78078C13.7494 5.75629 12.6396 8.43565 12.6396 11.2294C12.6387 12.2649 12.7928 13.2946 13.0966 14.2844L0.93457 26.4454V33.4684H7.95757L20.1196 21.3074C21.6254 21.7695 23.2158 21.888 24.7735 21.6541C26.3312 21.4203 27.8167 20.8401 29.1205 19.9562C30.4243 19.0723 31.5133 17.9073 32.3073 16.5469C33.1014 15.1865 33.5802 13.6654 33.7086 12.0954C33.945 9.59711 33.2581 7.09871 31.7776 5.07244C30.7965 3.71046 29.5042 2.60264 28.0082 1.84128C26.5123 1.07992 24.8561 0.687063 23.1776 0.695444H23.1736ZM23.1736 19.4234C22.3804 19.4204 21.5918 19.3022 20.8326 19.0724L19.4866 18.6624L18.4916 19.6574L14.7686 23.3804L13.1186 21.7644L11.4686 23.4144L13.0846 25.0294L11.2236 26.8904L9.60757 25.2754L7.95757 26.9254L9.57257 28.5454L6.98457 31.1284H3.27557V27.4184L14.7466 15.9114L15.7416 14.9164L15.4026 13.8044C14.8138 11.9518 14.8894 9.95189 15.6162 8.14894C16.343 6.346 17.6756 4.85282 19.3846 3.92644C20.6151 3.28362 21.9888 2.96402 23.3767 2.99766C24.7646 3.03129 26.1212 3.41706 27.3191 4.11875C28.517 4.82043 29.517 5.81502 30.2252 7.00914C30.9333 8.20326 31.3264 9.55774 31.3676 10.9454C31.4488 12.6019 31.002 14.2413 30.0916 15.6274C29.3513 16.7914 28.329 17.7496 27.1197 18.4132C25.9103 19.0768 24.553 19.4243 23.1736 19.4234Z" fill="#888D8B"/>
</svg>
