<svg width="6" height="21" viewBox="0 0 6 21" fill="none" xmlns="http://www.w3.org/2000/svg">
<path d="M5.46613 7.07129L0.316131 7.71729L0.132131 8.57229L1.14413 8.75929C1.80513 8.91729 1.93613 9.15529 1.79413 9.81429L0.134131 17.6173C-0.301869 19.6353 0.37013 20.5853 1.95213 20.5853C3.1855 20.5908 4.37075 20.1071 5.24813 19.2403L5.44813 18.3043C5.00917 18.6598 4.46248 18.8557 3.89763 18.8598C3.27863 18.8598 3.05363 18.4258 3.21363 17.6598L5.46613 7.07129Z" fill="#CFD3DB"/>
<path d="M5.62305 2.37305C5.62305 2.81805 5.49109 3.25307 5.24385 3.62308C4.99662 3.99309 4.64522 4.28148 4.23409 4.45178C3.82295 4.62207 3.37055 4.66663 2.93409 4.57981C2.49764 4.493 2.09673 4.27871 1.78206 3.96404C1.46739 3.64937 1.2531 3.24846 1.16628 2.812C1.07946 2.37554 1.12402 1.92314 1.29432 1.51201C1.46462 1.10088 1.753 0.749473 2.12301 0.50224C2.49303 0.255007 2.92804 0.123047 3.37305 0.123047C3.96979 0.123047 4.54208 0.3601 4.96404 0.782057C5.38599 1.20401 5.62305 1.77631 5.62305 2.37305Z" fill="#CFD3DB"/>
</svg>
