<svg width="18" height="18" viewBox="0 0 18 18" fill="none" xmlns="http://www.w3.org/2000/svg">
<path fill-rule="evenodd" clip-rule="evenodd" d="M9.43724 2.89364C9.21742 2.95471 8.98124 3.09989 8.83154 3.26594C8.7638 3.34108 8.61567 3.56755 8.50239 3.76922C8.05326 4.56862 7.38169 5.63287 6.87255 6.35204C6.55685 6.79795 6.01296 7.52556 5.99535 7.52556C5.98687 7.52556 5.95498 7.49394 5.92443 7.45531C5.79302 7.28905 5.78963 7.28873 4.22352 7.28873H2.78212L2.68376 7.35534C2.62968 7.39199 2.55742 7.45954 2.52317 7.50552L2.46094 7.58912V11.4777V15.3664L2.52317 15.45C2.55742 15.4959 2.63018 15.5639 2.68492 15.6009L2.78447 15.6683L4.25892 15.6601L5.7334 15.6519L5.82825 15.5846C5.88043 15.5476 5.94591 15.4659 5.97378 15.403L6.02445 15.2887L6.25081 15.4781C6.52076 15.704 6.88823 15.8999 7.25248 16.0122L7.51839 16.0942L9.13198 16.1041C10.9235 16.1152 11.0684 16.1046 11.5245 15.9296C11.8379 15.8093 12.2386 15.54 12.4695 15.2943C12.6735 15.0773 15.3223 11.1511 15.4916 10.8147C16.005 9.79485 15.5797 8.50235 14.5565 7.97261C14.1042 7.73847 14.0541 7.73279 12.4372 7.73279C11.1016 7.73279 11.014 7.72959 11.014 7.68098C11.014 7.65247 11.1478 7.02969 11.3113 6.29698C11.6303 4.8676 11.6509 4.70983 11.5632 4.37152C11.4995 4.12604 11.3727 3.86795 11.2248 3.6828C11.062 3.47906 10.4459 3.02162 10.2203 2.93695C9.99427 2.85213 9.65424 2.83334 9.43724 2.89364ZM5.09379 11.4777V14.7194H4.24592H3.39805V11.4777V8.23606H4.24592H5.09379V11.4777Z" fill="url(#paint0_linear_1915_5722)"/>
<defs>
<linearGradient id="paint0_linear_1915_5722" x1="22.7183" y1="-0.71877" x2="-10.6951" y2="17.2598" gradientUnits="userSpaceOnUse">
<stop stop-color="#88EDFE"/>
<stop offset="0.489" stop-color="#625EFE"/>
<stop offset="1" stop-color="#C224FE"/>
</linearGradient>
</defs>
</svg>
