<svg width="39" height="39" viewBox="0 0 39 39" fill="none" xmlns="http://www.w3.org/2000/svg">
<path d="M19.0132 0C13.9706 0 9.13454 2.00317 5.56889 5.56882C2.00323 9.13448 6.48499e-05 13.9706 6.48499e-05 19.0132C6.48499e-05 24.0558 2.00323 28.8918 5.56889 32.4575C9.13454 36.0231 13.9706 38.0263 19.0132 38.0263H38.0264V19.0132C38.0264 13.9706 36.0232 9.13448 32.4575 5.56882C28.8919 2.00317 24.0558 0 19.0132 0Z" fill="white"/>
<path d="M28.5731 24.899C28.3774 24.8988 28.1838 24.8575 28.005 24.7777C27.9633 24.7592 27.9236 24.7367 27.8864 24.7104L24.2726 22.1665C24.0894 22.0374 23.9399 21.8663 23.8367 21.6673C23.7336 21.4684 23.6797 21.2477 23.6797 21.0236V17.5546C23.6797 17.3305 23.7337 17.1097 23.8369 16.9108C23.9402 16.7119 24.0898 16.5407 24.273 16.4118L27.8877 13.8696C27.9249 13.8433 27.9647 13.8207 28.0064 13.8023C28.2192 13.7076 28.4524 13.6676 28.6846 13.686C28.9168 13.7043 29.1408 13.7804 29.3362 13.9074C29.5315 14.0343 29.692 14.208 29.8031 14.4128C29.9143 14.6175 29.9724 14.8468 29.9724 15.0798V23.5002C29.9724 23.6839 29.9362 23.8658 29.8659 24.0355C29.7955 24.2052 29.6924 24.3593 29.5625 24.4892C29.4325 24.619 29.2783 24.7219 29.1085 24.7921C28.9388 24.8623 28.7568 24.8983 28.5731 24.8981V24.899Z" fill="#FF4B55"/>
<path d="M20.0104 25.5828H11.9708C11.1831 25.582 10.428 25.2687 9.87103 24.7118C9.31408 24.1548 9.00082 23.3997 9 22.612V15.9699C9.00105 15.1824 9.31441 14.4275 9.87134 13.8707C10.4283 13.314 11.1833 13.0008 11.9708 13H20.0299C20.8124 13.0005 21.5627 13.3114 22.1161 13.8646C22.6695 14.4178 22.9808 15.1679 22.9816 15.9504V22.612C22.9808 23.3997 22.6675 24.155 22.1104 24.7119C21.5534 25.2689 20.7981 25.5821 20.0104 25.5828Z" fill="#FF4B55"/>
<path fill-rule="evenodd" clip-rule="evenodd" d="M14.1777 19.5969C14.1777 19.2394 14.2838 18.8898 14.4824 18.5925C14.6811 18.2952 14.9634 18.0635 15.2938 17.9267C15.6241 17.7898 15.9876 17.754 16.3383 17.8238C16.689 17.8936 17.0111 18.0657 17.2639 18.3186C17.5168 18.5714 17.6889 18.8935 17.7587 19.2442C17.8285 19.5949 17.7927 19.9584 17.6558 20.2888C17.519 20.6191 17.2873 20.9014 16.99 21.1001C16.6927 21.2987 16.3431 21.4048 15.9856 21.4048C15.5061 21.4048 15.0463 21.2143 14.7072 20.8753C14.3682 20.5362 14.1777 20.0764 14.1777 19.5969Z" fill="white"/>
<path d="M13.2726 17.7842C12.914 18.3208 12.7227 18.9517 12.7227 19.5971C12.7227 20.4625 13.0664 21.2925 13.6784 21.9044C14.2903 22.5164 15.1203 22.8602 15.9857 22.8602C16.6311 22.8602 17.262 22.6688 17.7986 22.3102C18.3352 21.9517 18.7535 21.4421 19.0004 20.8458C19.2474 20.2496 19.312 19.5935 19.1861 18.9605C19.0602 18.3275 18.7495 17.7461 18.2931 17.2897C17.8367 16.8334 17.2553 16.5226 16.6223 16.3967C15.9894 16.2708 15.3333 16.3354 14.737 16.5824C14.1408 16.8293 13.6311 17.2476 13.2726 17.7842Z" stroke="white" stroke-width="0.5"/>
</svg>
