<svg width="24" height="24" viewBox="0 0 24 24" fill="none" xmlns="http://www.w3.org/2000/svg">
<path opacity="0.1" d="M14.9434 0H9.0566C4.05478 0 0 4.05478 0 9.0566V14.9434C0 19.9452 4.05478 24 9.0566 24H14.9434C19.9452 24 24 19.9452 24 14.9434V9.0566C24 4.05478 19.9452 0 14.9434 0Z" fill="#F4FAFF"/>
<g opacity="0.7">
<g opacity="0.7">
<path d="M13.9272 18.9093H10.07C6.57932 18.9093 5.08789 17.4179 5.08789 13.9272V10.07C5.08789 6.57932 6.57932 5.08789 10.07 5.08789H13.9272C17.4179 5.08789 18.9093 6.57932 18.9093 10.07V13.9272C18.9093 17.4179 17.4179 18.9093 13.9272 18.9093ZM10.07 6.05218C7.10646 6.05218 6.05218 7.10646 6.05218 10.07V13.9272C6.05218 16.8907 7.10646 17.945 10.07 17.945H13.9272C16.8907 17.945 17.945 16.8907 17.945 13.9272V10.07C17.945 7.10646 16.8907 6.05218 13.9272 6.05218H10.07Z" fill="white"/>
<path d="M15.5367 15.7475H14.3474C14.0838 15.7475 13.8652 15.5289 13.8652 15.2653C13.8652 15.0018 14.0838 14.7832 14.3474 14.7832H15.5367C15.8002 14.7832 16.0188 15.0018 16.0188 15.2653C16.0188 15.5289 15.8002 15.7475 15.5367 15.7475Z" fill="white"/>
<path d="M12.6239 15.7475H8.46456C8.20099 15.7475 7.98242 15.5289 7.98242 15.2653C7.98242 15.0018 8.20099 14.7832 8.46456 14.7832H12.6239C12.8874 14.7832 13.106 15.0018 13.106 15.2653C13.106 15.5289 12.8939 15.7475 12.6239 15.7475Z" fill="white"/>
<path d="M15.5352 13.3295H11.9802C11.7166 13.3295 11.498 13.1109 11.498 12.8474C11.498 12.5838 11.7166 12.3652 11.9802 12.3652H15.5352C15.7988 12.3652 16.0173 12.5838 16.0173 12.8474C16.0173 13.1109 15.7988 13.3295 15.5352 13.3295Z" fill="white"/>
<path d="M10.2453 13.3295H8.46456C8.20099 13.3295 7.98242 13.1109 7.98242 12.8474C7.98242 12.5838 8.20099 12.3652 8.46456 12.3652H10.2453C10.5089 12.3652 10.7274 12.5838 10.7274 12.8474C10.7274 13.1109 10.5089 13.3295 10.2453 13.3295Z" fill="white"/>
</g>
</g>
</svg>
