<svg width="25" height="24" viewBox="0 0 25 24" fill="none" xmlns="http://www.w3.org/2000/svg">
<path d="M8.63158 11H7.36842C5.84 11 5 10.16 5 8.63158V7.36842C5 5.84 5.84 5 7.36842 5H8.63158C10.16 5 11 5.84 11 7.36842V8.63158C11 10.16 10.16 11 8.63158 11Z" fill="white"/>
<path d="M17.6316 11H16.3684C14.84 11 14 10.16 14 8.63158V7.36842C14 5.84 14.84 5 16.3684 5H17.6316C19.16 5 20 5.84 20 7.36842V8.63158C20 10.16 19.16 11 17.6316 11Z" fill="white"/>
<path d="M17.6316 19H16.3684C14.84 19 14 18.16 14 16.6316V15.3684C14 13.84 14.84 13 16.3684 13H17.6316C19.16 13 20 13.84 20 15.3684V16.6316C20 18.16 19.16 19 17.6316 19Z" fill="white"/>
<path d="M8.63158 19H7.36842C5.84 19 5 18.16 5 16.6316V15.3684C5 13.84 5.84 13 7.36842 13H8.63158C10.16 13 11 13.84 11 15.3684V16.6316C11 18.16 10.16 19 8.63158 19Z" fill="white"/>
</svg>
