<svg width="135" height="135" viewBox="0 0 135 135" fill="none" xmlns="http://www.w3.org/2000/svg">
<path d="M73.2133 102.263H45.0928V123.952H73.2133V102.263Z" fill="#EBEBEB"/>
<path d="M66.1688 123.8C66.131 123.8 66.0986 118.965 66.0986 113C66.0986 107.036 66.131 102.2 66.1688 102.2C66.2066 102.2 66.239 107.036 66.239 113C66.239 118.965 66.2066 123.8 66.1688 123.8Z" fill="#E0E0E0"/>
<path d="M70.8294 119.016H68.6748V121.454H70.8294V119.016Z" fill="#FAFAFA"/>
<path d="M56.8679 102.319H53.6738V106.947H56.8679V102.319Z" fill="#E0E0E0"/>
<path d="M56.8679 119.259H53.6738V123.887H56.8679V119.259Z" fill="#E0E0E0"/>
<path d="M124.241 96.8252H88.7822V124.173H124.241V96.8252Z" fill="#EBEBEB"/>
<path d="M115.355 123.979C115.318 123.979 115.285 117.885 115.285 110.365C115.285 102.846 115.318 96.752 115.355 96.752C115.393 96.752 115.426 102.846 115.426 110.365C115.426 117.885 115.396 123.979 115.355 123.979Z" fill="#E0E0E0"/>
<path d="M121.233 117.947H118.514V121.02H121.233V117.947Z" fill="#FAFAFA"/>
<path d="M103.626 96.8945H99.5977V102.729H103.626V96.8945Z" fill="#E0E0E0"/>
<path d="M103.626 118.255H99.5977V124.09H103.626V118.255Z" fill="#E0E0E0"/>
<path d="M21.9943 97.6289C23.4307 96.8892 25.1209 96.792 26.7139 97.0566C27.5698 97.197 28.4608 97.4535 29.044 98.0961C29.6272 98.7387 29.7352 99.8699 29.0683 100.423C28.6687 100.753 28.1152 100.801 27.5968 100.796C26.3494 100.78 24.967 100.561 23.9707 101.312C23.401 101.741 23.023 102.451 22.3507 102.662C21.6784 102.872 20.9359 102.475 20.5849 101.876C20.2602 101.251 20.1887 100.525 20.3851 99.8483C20.4646 99.3796 20.6512 98.9355 20.9303 98.5505C21.2094 98.1656 21.5735 97.8502 21.9943 97.6289Z" fill="#EBEBEB"/>
<path d="M18.7061 91.2817C19.5836 92.5345 21.29 92.1214 22.0811 91.3546C22.8722 90.5878 23.207 89.4808 23.5094 88.4251C24.206 86.0086 24.9053 83.4733 24.3896 81.0136C24.2654 80.2676 23.9374 79.5706 23.4419 78.9994C23.191 78.7188 22.8712 78.5087 22.5141 78.3899C22.157 78.271 21.775 78.2475 21.4061 78.3217C20.5448 78.5485 20.0102 79.4017 19.6241 80.1928C18.4857 82.5577 17.8898 85.147 17.8799 87.7717C17.8799 88.9948 18.0176 90.2746 18.7061 91.2817Z" fill="#EBEBEB"/>
<path d="M16.2976 93.0796C17.2507 91.9483 17.4316 90.3013 17.0077 88.8838C16.5838 87.4663 15.6253 86.2621 14.521 85.2766C13.2222 84.1213 11.7108 83.2299 10.0714 82.6522C9.43597 82.3955 8.75251 82.2794 8.06798 82.312C7.7265 82.3315 7.39497 82.4342 7.10226 82.6111C6.80955 82.7881 6.56455 83.0339 6.38858 83.3272C5.91878 84.2209 6.36968 85.3036 6.85568 86.1892C7.71153 87.7474 8.68833 89.2361 9.77708 90.6415C10.6546 91.7701 11.6671 92.8852 12.9928 93.3955C14.3185 93.9058 15.7171 93.8464 16.4245 92.9203" fill="#EBEBEB"/>
<path d="M18.6468 110.187C18.6936 110.001 18.7208 109.811 18.7278 109.62C18.7683 109.204 18.8169 108.683 18.879 108.065C18.9564 107.3 19.0726 106.539 19.2273 105.786C19.4301 104.865 19.7073 103.962 20.0562 103.086C20.3983 102.215 20.8609 101.397 21.4305 100.656C21.8961 100.053 22.4888 99.5595 23.1666 99.2113C23.6275 98.9841 24.1213 98.831 24.63 98.7577C24.8214 98.7502 25.0115 98.7222 25.197 98.674C25.0058 98.6529 24.813 98.6529 24.6219 98.674C24.0937 98.7138 23.577 98.8483 23.0964 99.0709C22.3807 99.4085 21.7531 99.9076 21.2631 100.529C20.6669 101.28 20.1864 102.117 19.8375 103.01C19.4891 103.897 19.2181 104.812 19.0275 105.745C18.8806 106.508 18.7787 107.279 18.7224 108.054C18.6738 108.715 18.6549 109.25 18.6468 109.62C18.6269 109.808 18.6269 109.998 18.6468 110.187Z" fill="#E0E0E0"/>
<path d="M18.7548 108.994C18.7708 108.905 18.7762 108.814 18.771 108.724C18.771 108.524 18.771 108.273 18.771 107.968C18.771 107.312 18.771 106.361 18.8034 105.19C18.8628 102.846 19.0734 100.33 19.4541 96.7682C19.824 93.4229 20.3181 89.5322 20.8419 87.0023C20.9526 86.4272 21.066 85.9088 21.174 85.4552C21.282 85.0016 21.3603 84.6074 21.444 84.2915C21.5277 83.9756 21.5736 83.7515 21.6222 83.5571C21.6486 83.4694 21.664 83.3787 21.6681 83.2871C21.6274 83.3658 21.5966 83.4493 21.5763 83.5355C21.5169 83.7272 21.444 83.9648 21.3549 84.2591C21.2658 84.5534 21.1578 84.9638 21.0444 85.4147C20.931 85.8656 20.8014 86.384 20.6799 86.9591C20.0313 89.9512 19.5437 92.976 19.2192 96.0203C18.8304 99.5843 18.6549 102.83 18.6387 105.179C18.6387 106.353 18.6387 107.306 18.6792 107.962C18.6981 108.268 18.7143 108.519 18.7251 108.716C18.7238 108.809 18.7337 108.903 18.7548 108.994Z" fill="#E0E0E0"/>
<path d="M18.7707 102.735C18.7913 102.472 18.7913 102.207 18.7707 101.944C18.741 101.436 18.6708 100.705 18.5277 99.8056C18.3511 98.7545 18.1149 97.7142 17.8203 96.6898C17.4798 95.4291 17.0438 94.1962 16.5162 93.0017C15.6128 90.8006 14.3164 88.7823 12.6903 87.0455C12.4082 86.7472 12.1069 86.4676 11.7885 86.2085C11.6508 86.0897 11.5185 85.9735 11.4051 85.8817L11.0703 85.6414C10.8602 85.4811 10.6371 85.3384 10.4034 85.2148C10.3656 85.2661 11.3457 85.8439 12.5823 87.1588C14.1553 88.9119 15.4172 90.9208 16.3137 93.0988C16.8322 94.2856 17.2697 95.5061 17.6232 96.7519C17.9201 97.7668 18.1661 98.7959 18.3603 99.8354C18.5223 100.724 18.6303 101.455 18.6735 101.952C18.685 102.215 18.7175 102.477 18.7707 102.735Z" fill="#E0E0E0"/>
<path d="M12.3018 112.822L12.9282 121.416H23.9685L24.5949 112.822H12.3018Z" fill="#EBEBEB"/>
<path d="M25.9099 109.437H11.2354V112.822H25.9099V109.437Z" fill="#EBEBEB"/>
<path d="M11.2354 121.087V122.024H11.9266H25.6696V121.087H11.2354Z" fill="#E0E0E0"/>
<path d="M12.6018 123.573L11.9268 121.921H25.1433L24.3549 123.573H12.6018Z" fill="#E0E0E0"/>
<path d="M24.3899 115.63C24.3761 115.659 24.3589 115.686 24.3386 115.711C24.2954 115.768 24.2387 115.841 24.1739 115.93L23.5313 116.74L23.5016 116.778L23.4746 116.74L21.8951 114.556H21.9842L20.429 116.756L20.3804 116.826L20.3264 116.762L18.4823 114.566H18.5876L18.4877 114.696L16.838 116.762L16.7813 116.832L16.7327 116.759L15.1748 114.558H15.2666L13.3496 116.74L13.3172 116.78L13.2902 116.735L12.6908 115.741C12.626 115.633 12.5774 115.544 12.5369 115.471C12.5165 115.441 12.5002 115.408 12.4883 115.374C12.5135 115.4 12.5353 115.429 12.5531 115.46L12.7232 115.717L13.3523 116.708H13.2929L15.1829 114.499L15.2288 114.442L15.272 114.502L16.8434 116.694H16.7408L18.3851 114.623C18.4202 114.58 18.4553 114.537 18.485 114.496L18.539 114.429L18.593 114.494L20.4317 116.694H20.3291L21.9005 114.504L21.9464 114.44L21.9896 114.504C22.6133 115.393 23.1425 116.146 23.5367 116.713H23.48L24.1496 115.903C24.2225 115.819 24.2819 115.752 24.3278 115.695C24.3469 115.672 24.3676 115.65 24.3899 115.63Z" fill="#F5F5F5"/>
<path d="M24.7488 112.766C24.7488 112.804 21.9813 112.836 18.5712 112.836C15.1611 112.836 12.3936 112.804 12.3936 112.766C12.3936 112.728 15.1584 112.698 18.5712 112.698C21.984 112.698 24.7488 112.728 24.7488 112.766Z" fill="#F5F5F5"/>
<path d="M102.175 15.3364L99.9121 15.3486L99.973 26.6075L102.236 26.5952L102.175 15.3364Z" fill="#E0E0E0"/>
<path d="M86.1695 15.3667L80.3105 15.3984L80.3442 21.6137L86.2031 21.582L86.1695 15.3667Z" fill="#EBEBEB"/>
<path d="M92.0005 15.3345L86.1416 15.3662L86.1752 21.5815L92.0341 21.5498L92.0005 15.3345Z" fill="#F5F5F5"/>
<path d="M80.3174 17.1178C84.2126 17.1502 88.1096 17.1322 92.0084 17.0638C92.0248 17.0638 92.0406 17.0573 92.0523 17.0456C92.0639 17.034 92.0705 17.0182 92.0705 17.0017C92.0705 16.9852 92.0639 16.9695 92.0523 16.9578C92.0406 16.9462 92.0248 16.9396 92.0084 16.9396C88.115 16.918 84.2108 16.9396 80.3174 17.0125C80.3055 17.0152 80.2948 17.0219 80.2872 17.0315C80.2795 17.0411 80.2754 17.0529 80.2754 17.0652C80.2754 17.0774 80.2795 17.0893 80.2872 17.0988C80.2948 17.1084 80.3055 17.1151 80.3174 17.1178Z" fill="#E0E0E0"/>
<path d="M87.3042 21.4785L76.6582 21.5361L76.6856 26.6013L87.3316 26.5437L87.3042 21.4785Z" fill="#EBEBEB"/>
<path d="M97.8979 21.4209L87.252 21.4785L87.2794 26.5436L97.9253 26.486L97.8979 21.4209Z" fill="#F5F5F5"/>
<path d="M76.6644 22.9498C83.7357 23.0281 90.8312 22.9498 97.9052 22.8445C97.9217 22.8445 97.9375 22.838 97.9492 22.8263C97.9608 22.8147 97.9673 22.7989 97.9673 22.7824C97.9673 22.766 97.9608 22.7502 97.9492 22.7385C97.9375 22.7269 97.9217 22.7203 97.9052 22.7203C90.8339 22.6825 83.7357 22.6852 76.6644 22.8418C76.65 22.8418 76.6363 22.8475 76.6262 22.8576C76.616 22.8678 76.6104 22.8815 76.6104 22.8958C76.6104 22.9101 76.616 22.9239 76.6262 22.934C76.6363 22.9441 76.65 22.9498 76.6644 22.9498Z" fill="#E0E0E0"/>
<path d="M113.927 26.6055H72.6816V28.4199H113.927V26.6055Z" fill="#E0E0E0"/>
<path d="M81.1086 27.4775H79.4346V33.6686H81.1086V27.4775Z" fill="#E0E0E0"/>
<path d="M106.103 27.4775H104.429V33.6686H106.103V27.4775Z" fill="#E0E0E0"/>
<path d="M104.382 11.1372L102.119 11.1494L102.203 26.6337L104.465 26.6214L104.382 11.1372Z" fill="#EBEBEB"/>
<path d="M107.916 14.02L104.4 14.0391L104.468 26.5885L107.984 26.5695L107.916 14.02Z" fill="#F5F5F5"/>
<path d="M107.893 16.443C106.724 16.5255 105.551 16.5255 104.383 16.443C105.551 16.3641 106.724 16.3641 107.893 16.443Z" fill="#E0E0E0"/>
<path d="M107.892 15.9301C107.308 15.9892 106.721 16.009 106.135 15.9895C105.548 16.0089 104.961 15.9891 104.377 15.9301C105.545 15.8475 106.718 15.8475 107.887 15.9301H107.892Z" fill="#E0E0E0"/>
<path d="M107.893 24.6862C106.724 24.7687 105.551 24.7687 104.383 24.6862C105.551 24.6072 106.724 24.6072 107.893 24.6862Z" fill="#E0E0E0"/>
<path d="M107.893 24.1596C106.724 24.2385 105.551 24.2385 104.383 24.1596C105.551 24.077 106.724 24.077 107.893 24.1596Z" fill="#E0E0E0"/>
<path d="M106.191 23.009C106.159 23.009 106.132 21.7427 106.132 20.1821C106.132 18.6215 106.159 17.3525 106.191 17.3525C106.224 17.3525 106.253 18.6188 106.253 20.1821C106.253 21.7454 106.226 23.009 106.191 23.009Z" fill="#E0E0E0"/>
<path d="M111.759 17.1074H107.933V26.579H111.759V17.1074Z" fill="#EBEBEB"/>
<path d="M103.216 14.4371C103.576 14.4371 103.867 14.1458 103.867 13.7864C103.867 13.4271 103.576 13.1357 103.216 13.1357C102.857 13.1357 102.565 13.4271 102.565 13.7864C102.565 14.1458 102.857 14.4371 103.216 14.4371Z" fill="#E0E0E0"/>
<path d="M103.419 15.5762H103.017V24.7886H103.419V15.5762Z" fill="#E0E0E0"/>
<path d="M125.458 124.024C125.458 124.065 99.506 124.094 67.5029 124.094C35.4998 124.094 9.54199 124.065 9.54199 124.024C9.54199 123.984 35.489 123.954 67.5029 123.954C99.5168 123.954 125.458 123.987 125.458 124.024Z" fill="#263238"/>
<path d="M40.287 24.9346C41.5602 26.4928 42.2497 28.4465 42.2364 30.4588C42.2229 31.5982 42.0123 32.8537 42.6765 33.7798C43.1787 34.4818 44.0967 34.8355 44.5044 35.5969C44.9958 36.5122 44.5773 37.6705 44.8797 38.6641C45.3063 40.0735 46.9587 40.6648 47.9388 41.7637C48.3566 42.2496 48.6489 42.8306 48.7901 43.4556C48.9313 44.0807 48.9171 44.7309 48.7488 45.3493C48.5702 45.965 48.2473 46.5293 47.8068 46.9951C47.3663 47.461 46.821 47.815 46.2162 48.0277C45.5704 48.2822 44.85 48.2706 44.2128 47.9953C43.5513 47.6659 43.1328 46.9882 42.8088 46.3267C42.1581 45.0253 36.4422 37.9918 36.1182 36.5716" fill="#263238"/>
<path d="M36.1287 23.2766C33.7905 22.8986 31.5387 24.4511 30.5586 26.6057C29.5785 28.7603 29.5461 31.1956 29.4786 33.5716C29.4111 35.9476 29.2383 38.41 28.0314 40.4458C27.2646 41.7391 26.0766 42.8758 25.8903 44.3635C25.7229 45.6973 26.4141 47.0419 26.1846 48.3676C25.9848 49.5232 25.1046 50.5276 25.1397 51.6967C25.1829 53.1061 26.6328 54.1672 28.0395 54.205C29.4462 54.2428 30.7638 53.5057 31.8681 52.6309C33.6673 51.2024 35.107 49.3725 36.072 47.2876" fill="#263238"/>
<path d="M32.2812 28.8502C32.2077 28.262 32.2532 27.6651 32.4149 27.0948C32.5765 26.5246 32.8511 25.9926 33.2223 25.5305C33.5935 25.0684 34.0538 24.6855 34.5757 24.4047C35.0977 24.1239 35.6708 23.9508 36.261 23.8957C38.6181 23.6689 40.716 25.4266 41.0697 27.7702C41.3802 29.8249 41.6448 31.8985 41.6367 32.6518C41.607 34.9225 40.2867 35.8054 39.7467 36.0727C39.5524 36.1424 39.3516 36.1922 39.1473 36.2212V36.2374L39.6495 38.8456C39.879 40.5547 38.9259 42.0856 37.2195 42.3259C35.5131 42.5662 34.1712 41.2621 33.9093 39.553L32.2812 28.8502Z" fill="#FFBE9D"/>
<path d="M40.6048 28.7631C40.567 28.8171 40.2673 28.6578 39.8839 28.7145C39.5005 28.7712 39.244 29.0034 39.1954 28.9629C39.1468 28.9224 39.1954 28.8549 39.3142 28.7469C39.4619 28.603 39.6506 28.5087 39.8542 28.4769C40.054 28.4461 40.2584 28.4801 40.4374 28.5741C40.5724 28.6605 40.6237 28.7415 40.6048 28.7631Z" fill="#263238"/>
<path d="M37.1869 29.5947C37.1491 29.6487 36.8494 29.4867 36.4633 29.5434C36.0772 29.6001 35.8261 29.835 35.7775 29.7945C35.7289 29.754 35.7775 29.6838 35.8963 29.5785C36.0439 29.4346 36.2326 29.3403 36.4363 29.3085C36.6363 29.28 36.8403 29.3149 37.0195 29.4084C37.1518 29.4921 37.2058 29.5704 37.1869 29.5947Z" fill="#263238"/>
<path d="M38.5884 31.655C38.7816 31.5621 38.9857 31.4941 39.1959 31.4525C39.2931 31.4282 39.3822 31.3958 39.3903 31.3256C39.3816 31.227 39.344 31.1331 39.2823 31.0556L38.88 30.3374C38.3211 29.333 37.9026 28.5014 37.9431 28.4771C37.9836 28.4528 38.4831 29.2547 39.0231 30.2591C39.1608 30.5075 39.2931 30.7451 39.4119 30.9692C39.4904 31.079 39.5285 31.2125 39.5199 31.3472C39.511 31.384 39.4937 31.4183 39.4694 31.4474C39.445 31.4764 39.4143 31.4994 39.3795 31.5146C39.3269 31.5376 39.2716 31.554 39.2148 31.5632C39.0109 31.621 38.8003 31.6518 38.5884 31.655Z" fill="#263238"/>
<path d="M39.1254 36.2234C39.1254 36.2234 37.6592 36.5609 35.6396 35.7158C35.6396 35.7158 36.5117 37.5923 39.2631 36.9254L39.1254 36.2234Z" fill="#EB996E"/>
<path d="M36.9903 28.5881C36.9687 28.6988 36.5772 28.7042 36.1344 28.8257C35.6916 28.9472 35.3433 29.12 35.2704 29.0363C35.238 28.9958 35.2866 28.8878 35.4189 28.7663C35.5971 28.6139 35.8076 28.5041 36.0345 28.4451C36.2613 28.3862 36.4987 28.3797 36.7284 28.4261C36.9066 28.4666 36.9903 28.5368 36.9903 28.5881Z" fill="#263238"/>
<path d="M40.2896 27.9133C40.2356 28.0105 39.9575 27.9592 39.6389 27.9997C39.3203 28.0402 39.0584 28.1455 38.9828 28.0618C38.9504 28.0213 38.9828 27.9295 39.0854 27.8296C39.227 27.704 39.4046 27.6265 39.593 27.6082C39.7789 27.5858 39.9673 27.6206 40.133 27.7081C40.2626 27.781 40.3139 27.8647 40.2896 27.9133Z" fill="#263238"/>
<path d="M36.3525 30.0922C36.3585 30.134 36.3727 30.1742 36.3942 30.2104C36.4158 30.2467 36.4444 30.2783 36.4783 30.3034C36.5123 30.3285 36.5508 30.3467 36.5918 30.3567C36.6328 30.3668 36.6753 30.3687 36.717 30.3622C36.7576 30.3575 36.7968 30.3448 36.8324 30.3249C36.868 30.3049 36.8993 30.2781 36.9244 30.2459C36.9495 30.2137 36.968 30.1769 36.9788 30.1375C36.9895 30.0982 36.9923 30.0571 36.9871 30.0166C36.9744 29.9325 36.9289 29.8569 36.8606 29.8063C36.7923 29.7557 36.7067 29.7342 36.6225 29.7466C36.5819 29.7509 36.5425 29.7634 36.5067 29.7832C36.4709 29.8031 36.4395 29.8299 36.4143 29.8622C36.3891 29.8944 36.3706 29.9314 36.36 29.9709C36.3494 30.0104 36.3469 30.0517 36.3525 30.0922Z" fill="#263238"/>
<path d="M39.7578 29.3549C39.7705 29.439 39.816 29.5146 39.8843 29.5652C39.9526 29.6158 40.0382 29.6373 40.1223 29.6249C40.1629 29.6202 40.2021 29.6075 40.2377 29.5876C40.2733 29.5676 40.3045 29.5408 40.3297 29.5086C40.3548 29.4764 40.3733 29.4396 40.384 29.4002C40.3948 29.3609 40.3976 29.3198 40.3923 29.2793C40.3797 29.1952 40.3342 29.1196 40.2659 29.069C40.1975 29.0184 40.1119 28.9969 40.0278 29.0093C39.9871 29.0136 39.9477 29.0261 39.9119 29.0459C39.8762 29.0658 39.8447 29.0926 39.8196 29.1249C39.7944 29.1571 39.7759 29.1941 39.7653 29.2336C39.7547 29.2731 39.7522 29.3144 39.7578 29.3549Z" fill="#263238"/>
<path d="M39.1927 32.4004C39.0868 32.3674 38.9726 32.3725 38.87 32.415C38.7674 32.4574 38.6829 32.5344 38.6311 32.6326C38.5817 32.7227 38.5616 32.8261 38.5737 32.9282C38.5858 33.0303 38.6295 33.1261 38.6986 33.2023C38.7722 33.2746 38.8691 33.3183 38.972 33.3257C39.0749 33.3332 39.1771 33.3037 39.2602 33.2428C39.3644 33.1479 39.4274 33.0162 39.4357 32.8756C39.4541 32.7467 39.4232 32.6156 39.3493 32.5084C39.3114 32.456 39.2573 32.4175 39.1953 32.3989C39.1333 32.3804 39.0669 32.3828 39.0064 32.4058" fill="#EB996E"/>
<path d="M40.7695 25.9202C40.5575 25.0648 40.0287 24.3217 39.2899 23.8412C38.6851 23.4044 37.9668 23.1521 37.2217 23.1149C36.4719 23.0827 35.74 23.3487 35.1859 23.8547C34.7927 24.2445 34.5678 24.7727 34.5595 25.3262L34.6027 24.9482C34.4892 25.2558 34.4892 25.5938 34.6027 25.9013C34.6648 26.066 34.7404 26.2334 34.8052 26.3981C34.9985 26.8741 35.357 27.2643 35.815 27.497C36.0224 27.6083 36.2546 27.665 36.49 27.6617C36.6078 27.6594 36.7237 27.6313 36.8295 27.5796C36.9354 27.5278 37.0287 27.4536 37.1029 27.362C37.2705 27.0694 37.3225 26.7245 37.2487 26.3954C37.4258 26.7206 37.6787 26.9985 37.9858 27.2054C38.1426 27.3056 38.3291 27.3488 38.514 27.3277C38.6989 27.3065 38.8708 27.2224 39.001 27.0893C39.2224 26.8193 39.136 26.3927 39.001 26.0579C39.2098 26.3737 39.5025 26.6252 39.8461 26.7842C39.9365 26.8361 40.0367 26.8686 40.1403 26.8798C40.244 26.891 40.3488 26.8805 40.4482 26.849C40.5276 26.8096 40.5971 26.7527 40.6513 26.6826C40.7056 26.6124 40.7432 26.5308 40.7614 26.444C40.8014 26.272 40.8042 26.0934 40.7695 25.9202Z" fill="#263238"/>
<path d="M38.8179 26.6388C38.7936 26.6388 38.799 26.3175 38.6937 25.8288C38.5722 25.1794 38.2458 24.586 37.7622 24.1359C37.4964 23.8942 37.1758 23.7209 36.828 23.6309C36.5432 23.561 36.2466 23.5537 35.9586 23.6094C35.6932 23.6714 35.4397 23.7763 35.208 23.9198C35.208 23.9198 35.2539 23.8523 35.3727 23.7659C35.5432 23.6467 35.7346 23.5606 35.937 23.5122C36.2398 23.4413 36.5549 23.4413 36.8577 23.5122C37.2308 23.6053 37.5744 23.791 37.8567 24.0522C38.363 24.5209 38.6936 25.1488 38.7936 25.8315C38.8257 26.0333 38.842 26.2373 38.8422 26.4417C38.8455 26.5083 38.8373 26.5749 38.8179 26.6388Z" fill="#455A64"/>
<path d="M63.6845 58.1182L53.303 54.0007C53.303 54.0007 47.9867 47.0266 48.0974 46.8916L44.3633 50.9794L49.7903 58.3207L62.3696 61.2691L64.5296 60.6697C64.0544 58.3774 63.6845 58.1182 63.6845 58.1182Z" fill="#FFBE9D"/>
<path d="M41.0588 38.2216L39.644 37.6816L33.5366 38.4565V39.5365L33.3611 39.5581C32.0446 39.8381 30.7818 40.3286 29.6216 41.0107C28.5348 41.6742 27.6712 42.6475 27.142 43.8056C26.6127 44.9638 26.4419 46.2537 26.6516 47.5096C26.9 49.054 27.3806 50.9305 28.3094 52.0159C30.0833 54.0922 31.7033 51.5272 31.7033 51.5272C31.7033 51.5272 32.8157 54.0652 32.7509 55.2667C32.6969 56.2738 32.2541 58.369 32.111 59.0224C32.1051 59.0486 32.1046 59.0756 32.1095 59.1019C32.1144 59.1282 32.1247 59.1533 32.1396 59.1755C32.1545 59.1977 32.1737 59.2167 32.1962 59.2312C32.2187 59.2458 32.2439 59.2556 32.2703 59.26L45.1547 61.6441L45.2168 58.4932L44.8064 45.5332L44.2259 40.5004C44.2259 40.5004 44.2448 38.0974 41.0588 38.2216Z" fill="url(#paint0_linear_2143_3808)"/>
<path d="M44.0293 39.6631L48.9433 46.7614L44.9878 51.5782L44.0293 39.6631Z" fill="url(#paint1_linear_2143_3808)"/>
<path d="M45.0901 54.5995C45.0724 54.4472 45.0661 54.2937 45.0712 54.1405C45.0712 53.8219 45.0712 53.4034 45.055 52.8931C45.0311 51.5235 44.9328 50.1562 44.7607 48.7972C44.5582 47.2042 44.2477 45.7813 44.0128 44.7472L43.7266 43.5322C43.6851 43.3852 43.6544 43.2354 43.6348 43.084C43.6962 43.2243 43.745 43.3697 43.7806 43.5187C43.8643 43.7887 43.9777 44.2126 44.1073 44.7256C44.4559 46.0577 44.721 47.4104 44.9011 48.7756C45.0746 50.1402 45.1594 51.5147 45.1549 52.8904C45.1549 53.4304 45.1414 53.8462 45.1252 54.1405C45.1266 54.2942 45.1148 54.4478 45.0901 54.5995Z" fill="#263238"/>
<path d="M32.994 43.8074C32.994 43.829 32.6214 43.8263 32.0247 43.856C31.2461 43.8982 30.4717 43.9984 29.7081 44.1557C28.9446 44.3159 28.1938 44.5316 27.4617 44.801C26.9001 45.0089 26.5626 45.1628 26.5518 45.1412C26.621 45.0869 26.6973 45.0424 26.7786 45.0089C26.9271 44.9279 27.1485 44.8253 27.4266 44.7092C28.8835 44.1075 30.4405 43.7852 32.0166 43.7588C32.319 43.7588 32.5566 43.7588 32.7321 43.775C32.8205 43.7721 32.9089 43.7831 32.994 43.8074Z" fill="#FAFAFA"/>
<path d="M44.3748 47.0558C44.1773 47.1275 43.9712 47.1729 43.7619 47.1908C42.7635 47.3365 41.752 47.371 40.746 47.2934C40.5359 47.2898 40.3272 47.2589 40.125 47.2016C40.3334 47.1831 40.543 47.1831 40.7514 47.2016C41.1348 47.2016 41.6667 47.2016 42.2526 47.2016C42.8385 47.2016 43.3677 47.1422 43.7511 47.1071C43.957 47.0711 44.1658 47.054 44.3748 47.0558Z" fill="#FAFAFA"/>
<path d="M46.6286 43.8458C46.331 44.1897 45.9744 44.4777 45.5756 44.6963C45.1991 44.9508 44.779 45.1339 44.3363 45.2363C44.3201 45.1985 44.8763 44.9663 45.5027 44.5667C46.1291 44.1671 46.6016 43.8134 46.6286 43.8458Z" fill="#FAFAFA"/>
<path d="M44.6442 40.5547C43.7923 41.321 42.7069 41.7776 41.5635 41.8507C41.5635 41.8075 42.306 41.6941 43.1592 41.3296C44.0124 40.9651 44.6172 40.5196 44.6442 40.5547Z" fill="#FAFAFA"/>
<path d="M44.912 52.5528C44.8326 52.6062 44.7475 52.6506 44.6582 52.6851C44.4881 52.7661 44.2424 52.866 43.9292 52.9821C43.1155 53.2745 42.2755 53.4879 41.4209 53.6193C40.5663 53.7512 39.7009 53.7991 38.837 53.7624C38.5049 53.7489 38.2376 53.7246 38.054 53.7003C37.9579 53.6939 37.8628 53.6767 37.7705 53.649C37.7705 53.6247 38.1809 53.649 38.8505 53.6652C40.5672 53.6812 42.2751 53.4186 43.9076 52.8876C44.5232 52.6851 44.9039 52.5312 44.912 52.5528Z" fill="#FAFAFA"/>
<path d="M45.0119 56.2119C45.0119 56.2119 44.9741 56.2389 44.8958 56.2794L44.5502 56.4306C44.2532 56.571 43.8131 56.7546 43.2623 56.9706C42.7115 57.1866 42.0446 57.3945 41.294 57.5997C39.6622 58.0391 37.9873 58.299 36.299 58.3746C35.5214 58.4043 34.8221 58.4016 34.2335 58.3746C33.6449 58.3476 33.1724 58.3044 32.8457 58.2585L32.4704 58.2072C32.4262 58.204 32.3826 58.1949 32.3408 58.1802C32.3846 58.1732 32.4293 58.1732 32.4731 58.1802L32.8511 58.2045C33.1778 58.2315 33.6611 58.2585 34.2362 58.2747C34.8113 58.2909 35.5214 58.2747 36.2936 58.2477C37.0658 58.2207 37.9136 58.1235 38.7965 57.9777C39.6794 57.8319 40.511 57.6564 41.2616 57.4674C42.0122 57.2784 42.6764 57.0651 43.2272 56.868C43.778 56.6709 44.2262 56.5062 44.5286 56.382L44.8796 56.2443C44.9225 56.2289 44.9668 56.2181 45.0119 56.2119Z" fill="#FAFAFA"/>
<path d="M21.3299 113.611L19.8692 120.207L17.2043 125.092C17.159 125.175 17.1313 125.267 17.1229 125.361C17.1144 125.456 17.1255 125.551 17.1554 125.641C17.1852 125.731 17.2332 125.814 17.2965 125.885C17.3597 125.956 17.4368 126.013 17.5229 126.053C17.6229 126.099 17.7325 126.12 17.8424 126.115C17.9524 126.11 18.0594 126.078 18.1547 126.023C19.3913 125.31 23.93 122.656 24.0083 122.168C24.1028 121.603 26.0117 115.312 26.0117 115.312L21.3299 113.611Z" fill="url(#paint2_linear_2143_3808)"/>
<g opacity="0.6">
<path opacity="0.6" d="M17.5225 126.052L24.1186 121.732L24.0484 122.002C23.9906 122.243 23.849 122.456 23.6488 122.602C23.1088 122.988 21.6049 124.025 18.1759 126.028C18.0774 126.086 17.9662 126.118 17.8522 126.122C17.7382 126.127 17.6249 126.103 17.5225 126.052Z" fill="white"/>
</g>
<g opacity="0.6">
<path opacity="0.6" d="M23.2897 119.278C23.1944 119.318 23.1172 119.392 23.0728 119.485C23.0285 119.578 23.0201 119.684 23.0494 119.783C23.0854 119.88 23.157 119.958 23.2494 120.004C23.3418 120.049 23.448 120.057 23.5462 120.026C23.6482 119.984 23.7307 119.905 23.7777 119.805C23.8246 119.705 23.8326 119.592 23.8 119.486C23.7522 119.391 23.6696 119.317 23.5692 119.28C23.4688 119.244 23.3581 119.247 23.26 119.289" fill="white"/>
</g>
<path d="M19.7265 123.552C19.6176 123.309 19.4647 123.089 19.2756 122.901C19.0578 122.75 18.8132 122.641 18.5547 122.58C18.5547 122.561 18.6492 122.531 18.8085 122.548C19.0158 122.574 19.2109 122.661 19.3701 122.796C19.5305 122.926 19.6489 123.101 19.7103 123.298C19.7562 123.452 19.7427 123.552 19.7265 123.552Z" fill="#263238"/>
<path d="M19.0432 124.316C19.0054 124.338 18.8461 124.073 18.5302 123.892C18.3287 123.798 18.1212 123.718 17.9092 123.652C18.0257 123.613 18.1497 123.604 18.2709 123.623C18.392 123.642 18.5068 123.69 18.6058 123.762C18.9649 123.97 19.081 124.308 19.0432 124.316Z" fill="#263238"/>
<path d="M20.8712 122.64C20.6416 122.385 20.3924 122.148 20.126 121.932C19.8325 121.753 19.5255 121.597 19.208 121.465C19.5732 121.458 19.9291 121.58 20.2124 121.811C20.5247 121.999 20.7587 122.293 20.8712 122.64Z" fill="#263238"/>
<path d="M21.4839 120.671C21.4569 120.706 21.1302 120.466 20.6739 120.334C20.2176 120.201 19.8045 120.223 19.8018 120.177C20.1023 120.099 20.4182 120.104 20.7162 120.191C21.0142 120.278 21.2832 120.444 21.4947 120.671H21.4839Z" fill="#263238"/>
<path d="M21.9619 118.746C21.6985 118.583 21.4142 118.457 21.1168 118.371C20.8104 118.329 20.4997 118.329 20.1934 118.371C20.1934 118.354 20.2771 118.29 20.4499 118.238C20.677 118.177 20.9154 118.169 21.1461 118.216C21.3767 118.263 21.5932 118.363 21.7783 118.508C21.916 118.638 21.9727 118.735 21.9619 118.746Z" fill="#263238"/>
<path d="M21.2164 118.007C21.2166 117.921 21.235 117.836 21.2704 117.758C21.3469 117.535 21.4681 117.33 21.6268 117.156C21.7305 117.018 21.8765 116.918 22.0426 116.87C22.0991 116.861 22.1571 116.869 22.2091 116.893C22.2611 116.917 22.3046 116.956 22.3342 117.005C22.3838 117.106 22.3944 117.221 22.3639 117.329C22.2946 117.545 22.1523 117.731 21.9612 117.854C21.77 117.977 21.5421 118.03 21.3163 118.004C21.0936 117.972 20.8853 117.875 20.7176 117.725C20.5499 117.575 20.4303 117.379 20.374 117.162C20.361 117.106 20.3598 117.049 20.3705 116.993C20.3812 116.937 20.4035 116.884 20.4361 116.838C20.4734 116.794 20.5236 116.763 20.5794 116.75C20.6352 116.737 20.6938 116.742 20.7466 116.765C20.8992 116.841 21.0294 116.955 21.1246 117.097C21.2677 117.284 21.3764 117.495 21.4459 117.72C21.4787 117.801 21.4944 117.887 21.4918 117.974C21.3829 117.683 21.2309 117.41 21.0409 117.164C20.9524 117.049 20.8376 116.956 20.7061 116.894C20.6771 116.882 20.6449 116.879 20.6143 116.886C20.5836 116.893 20.5561 116.91 20.536 116.935C20.5171 116.967 20.505 117.002 20.5003 117.039C20.4957 117.075 20.4986 117.113 20.509 117.148C20.5653 117.331 20.6722 117.495 20.8174 117.62C20.9626 117.745 21.1402 117.827 21.3298 117.855C21.5207 117.878 21.7136 117.834 21.8769 117.733C22.0401 117.631 22.1642 117.478 22.2289 117.297C22.255 117.223 22.255 117.143 22.2289 117.07C22.2135 117.042 22.1899 117.02 22.1614 117.006C22.1328 116.993 22.1007 116.988 22.0696 116.994C21.9288 117.033 21.8035 117.114 21.7105 117.226C21.5033 117.457 21.3363 117.721 21.2164 118.007Z" fill="#263238"/>
<g opacity="0.3">
<path opacity="0.3" d="M21.1518 114.327L20.8359 115.839L25.6122 116.633L26.0118 115.312L21.3219 113.611L21.1518 114.327Z" fill="black"/>
</g>
<path d="M42.6603 116.051L42.2661 121.322C42.2661 121.322 47.4933 123.482 47.5149 124.475L37.2549 124.078L37.5249 115.838L42.6603 116.051Z" fill="url(#paint3_linear_2143_3808)"/>
<g opacity="0.6">
<path opacity="0.6" d="M39.1198 120.755C39.0202 120.781 38.9338 120.844 38.8771 120.93C38.8204 121.016 38.7972 121.12 38.812 121.222C38.8347 121.322 38.8948 121.41 38.98 121.468C39.0653 121.525 39.1693 121.548 39.271 121.532C39.3768 121.504 39.4686 121.438 39.5284 121.346C39.5883 121.254 39.612 121.144 39.595 121.035C39.5608 120.933 39.4884 120.848 39.3928 120.797C39.2972 120.747 39.1858 120.735 39.082 120.765" fill="white"/>
</g>
<g opacity="0.6">
<path opacity="0.6" d="M37.2598 124.079L37.3192 123.247L47.1337 123.93C47.1337 123.93 47.5846 124.146 47.5198 124.47L37.2598 124.079Z" fill="white"/>
</g>
<path d="M42.4382 121.276C42.4382 121.328 42.1844 121.341 41.9333 121.492C41.6822 121.643 41.5418 121.849 41.4959 121.827C41.45 121.805 41.5364 121.519 41.8442 121.341C42.152 121.163 42.4517 121.23 42.4382 121.276Z" fill="#263238"/>
<path d="M43.4969 121.77C43.4969 121.821 43.2863 121.897 43.1081 122.102C42.9299 122.307 42.8732 122.529 42.8219 122.526C42.7706 122.523 42.7517 122.237 42.9785 121.986C43.2053 121.735 43.4969 121.716 43.4969 121.77Z" fill="#263238"/>
<path d="M44.0589 123.074C44.013 123.074 43.9536 122.828 44.0913 122.561C44.229 122.294 44.4693 122.191 44.4882 122.234C44.5071 122.277 44.3586 122.418 44.2479 122.639C44.1372 122.861 44.1075 123.071 44.0589 123.074Z" fill="#263238"/>
<path d="M42.3897 120.066C42.3681 120.109 42.1413 120.031 41.8497 120.039C41.5581 120.047 41.3421 120.128 41.3097 120.085C41.2773 120.042 41.5041 119.872 41.8497 119.866C42.1953 119.861 42.4221 120.028 42.3897 120.066Z" fill="#263238"/>
<g opacity="0.3">
<path opacity="0.3" d="M42.5871 117.097L42.5169 118.036L37.4814 117.793L37.5165 116.708L42.5871 117.097Z" fill="black"/>
</g>
<path d="M42.457 119C42.2873 119.041 42.1096 119.033 41.944 118.978C41.7568 118.939 41.5753 118.877 41.404 118.792C41.304 118.743 41.2075 118.687 41.1151 118.624C41.0587 118.59 41.0078 118.547 40.9639 118.498C40.9341 118.459 40.918 118.411 40.918 118.363C40.918 118.314 40.9341 118.266 40.9639 118.228C40.9901 118.193 41.0242 118.166 41.0632 118.148C41.1021 118.129 41.1449 118.121 41.188 118.122C41.253 118.125 41.3174 118.136 41.3797 118.155C41.4877 118.186 41.5926 118.228 41.6929 118.279C41.8634 118.362 42.0193 118.472 42.1546 118.606C42.3841 118.835 42.457 119.027 42.4408 119.035C42.4246 119.043 42.3085 118.889 42.0736 118.697C41.9357 118.59 41.7852 118.499 41.6254 118.427C41.5301 118.388 41.4328 118.354 41.3338 118.325C41.2258 118.292 41.134 118.29 41.1043 118.325C41.0746 118.36 41.1043 118.352 41.1043 118.384C41.1367 118.42 41.1739 118.451 41.215 118.476C41.3016 118.536 41.3918 118.591 41.485 118.641C41.6407 118.727 41.8044 118.797 41.9737 118.851C42.1381 118.889 42.2996 118.939 42.457 119Z" fill="#263238"/>
<path d="M42.3904 119.071C42.3006 118.919 42.2601 118.744 42.2743 118.568C42.2753 118.379 42.3063 118.19 42.3661 118.01C42.4048 117.904 42.4527 117.802 42.5092 117.704C42.5395 117.638 42.5864 117.58 42.6455 117.536C42.7046 117.493 42.7739 117.465 42.8467 117.456C42.8928 117.459 42.9371 117.475 42.9744 117.502C43.0117 117.53 43.0404 117.567 43.0573 117.61C43.0807 117.671 43.0953 117.734 43.1005 117.799C43.1182 117.913 43.1182 118.03 43.1005 118.145C43.0644 118.335 42.9818 118.514 42.8602 118.666C42.6496 118.936 42.439 118.976 42.4336 118.96C42.4282 118.944 42.5956 118.844 42.7603 118.593C42.8548 118.45 42.9165 118.287 42.9412 118.118C42.9548 118.019 42.9548 117.919 42.9412 117.821C42.9277 117.713 42.8899 117.621 42.8494 117.632C42.8089 117.642 42.709 117.707 42.6631 117.794C42.6103 117.88 42.5643 117.97 42.5254 118.064C42.4629 118.227 42.4229 118.397 42.4065 118.571C42.3714 118.874 42.4174 119.071 42.3904 119.071Z" fill="#263238"/>
<path d="M32.0543 59.2111C32.0543 59.2111 30.4343 59.284 29.3543 64.8244C28.2743 70.3648 20.042 115.258 20.042 115.258L26.0117 115.312L37.2599 72.6301L36.512 116.64L42.5762 117.105C42.5762 117.105 47.1257 68.4262 47.1662 65.5939C47.2202 62.0623 45.1925 58.4902 45.1925 58.4902L32.0543 59.2111Z" fill="#35444C"/>
<path d="M40.2594 58.7383C40.2972 58.7383 39.6762 61.9108 38.8743 65.8069C38.0724 69.703 37.392 72.8566 37.3542 72.8485C37.3164 72.8404 37.9347 69.676 38.7366 65.7799C39.5385 61.8838 40.2297 58.7302 40.2594 58.7383Z" fill="#455A64"/>
<path d="M41.1885 59.5301C41.1885 59.5139 41.3505 59.4653 41.5368 59.63C41.5897 59.678 41.6316 59.7369 41.6596 59.8026C41.6875 59.8683 41.7009 59.9393 41.6988 60.0107C41.692 60.101 41.6598 60.1875 41.6057 60.2601C41.5517 60.3328 41.4782 60.3886 41.3937 60.4211C41.3112 60.4585 41.22 60.472 41.1302 60.4601C41.0405 60.4482 40.9559 60.4113 40.8861 60.3536C40.8339 60.3046 40.7927 60.2451 40.7652 60.179C40.7377 60.1129 40.7246 60.0417 40.7268 59.9702C40.7268 59.7218 40.8942 59.6354 40.8969 59.6516C40.8514 59.7507 40.8274 59.8584 40.8267 59.9675C40.8303 60.0223 40.8448 60.0759 40.8694 60.125C40.894 60.1742 40.9281 60.2179 40.9698 60.2537C41.0231 60.2904 41.0847 60.3132 41.1491 60.3198C41.2134 60.3265 41.2784 60.3169 41.3381 60.2919C41.3978 60.2669 41.4502 60.2273 41.4906 60.1768C41.531 60.1262 41.558 60.0663 41.5692 60.0026C41.5732 59.9479 41.5661 59.893 41.5485 59.841C41.5309 59.7891 41.503 59.7412 41.4666 59.7002C41.3343 59.5463 41.1858 59.5517 41.1885 59.5301Z" fill="#455A64"/>
<path d="M40.932 61.7223C40.932 61.7061 41.0994 61.7223 41.202 61.9464C41.2281 62.0103 41.24 62.0792 41.2367 62.1482C41.2334 62.2173 41.2151 62.2847 41.1831 62.346C41.1367 62.4187 41.0713 62.4775 40.994 62.5159C40.9167 62.5543 40.8304 62.571 40.7443 62.564C40.6583 62.5571 40.5757 62.5268 40.5056 62.4765C40.4354 62.4262 40.3803 62.3577 40.3461 62.2785C40.3246 62.2134 40.3175 62.1444 40.3254 62.0763C40.3333 62.0082 40.3561 61.9426 40.392 61.8843C40.5189 61.6818 40.6917 61.6872 40.6863 61.7034C40.6809 61.7196 40.5567 61.7574 40.4784 61.9302C40.4388 62.0271 40.4388 62.1357 40.4784 62.2326C40.5066 62.2861 40.5479 62.3317 40.5984 62.3651C40.649 62.3984 40.7071 62.4184 40.7675 62.4233C40.8278 62.4281 40.8884 62.4176 40.9436 62.3928C40.9988 62.368 41.0469 62.3295 41.0832 62.2812C41.1341 62.1888 41.1467 62.0803 41.1183 61.9788C41.04 61.7952 40.9185 61.7412 40.932 61.7223Z" fill="#455A64"/>
<path d="M35.2111 59.5841C35.2 59.6769 35.1764 59.7677 35.1409 59.8541C35.0565 60.1013 34.9508 60.3407 34.825 60.5696C34.413 61.3334 33.818 61.9831 33.0933 62.4604C32.3686 62.9377 31.5368 63.2278 30.6724 63.3047C30.4128 63.3274 30.1517 63.3274 29.8921 63.3047C29.8006 63.3018 29.7099 63.2873 29.6221 63.2615C29.6221 63.2345 30.0298 63.2804 30.6751 63.1994C31.5161 63.0974 32.322 62.8016 33.0294 62.3355C33.7368 61.8693 34.3265 61.2455 34.7521 60.5129C35.068 59.9675 35.1868 59.576 35.2111 59.5841Z" fill="#455A64"/>
<path d="M46.8262 63.5236C46.8262 63.5236 46.7561 63.4912 46.6454 63.4156C46.4907 63.3044 46.3461 63.1797 46.2134 63.043C45.7693 62.5935 45.4228 62.0572 45.1957 61.4676C44.9685 60.8781 44.8655 60.2479 44.8931 59.6167C44.8992 59.4267 44.9236 59.2377 44.966 59.0524C44.9957 58.9201 45.0146 58.8499 45.0254 58.8526C45.0362 58.8553 44.993 59.1469 44.993 59.6194C44.9934 60.8597 45.4543 62.0557 46.2862 62.9755C46.6021 63.3238 46.8397 63.502 46.8262 63.5236Z" fill="#455A64"/>
<path d="M67.7703 63.6794C67.8594 63.4634 67.8351 63.5498 66.4041 62.5994C66.4041 62.5994 68.4561 63.9494 68.2428 63.3068C68.0583 63.0634 67.8326 62.8541 67.5759 62.6885C68.1159 63.0071 68.4291 63.0422 68.5236 62.9126C68.6856 62.6885 67.5111 61.8326 66.9522 61.4465C67.4632 61.812 67.9991 62.1413 68.556 62.432C68.8881 62.5346 68.7288 62.1458 68.5047 61.8623C68.2806 61.5788 66.5418 59.9048 66.0747 59.4053C66.0303 59.3673 65.9946 59.3201 65.9701 59.2669C65.9456 59.2138 65.933 59.156 65.933 59.0975C65.933 59.039 65.9456 58.9812 65.9701 58.9281C65.9946 58.8749 66.0303 58.8277 66.0747 58.7897C66.9117 58.2497 67.2789 57.3884 67.2681 57.1049C67.2588 57.0411 67.2296 56.9818 67.1845 56.9357C67.1394 56.8895 67.0809 56.8589 67.0173 56.8481C66.9537 56.8373 66.8883 56.8469 66.8306 56.8756C66.7728 56.9043 66.7256 56.9505 66.6957 57.0077C66.4844 57.2703 66.2383 57.5029 65.964 57.6989C65.7514 57.8648 65.5122 57.9935 65.2566 58.0796C64.9596 58.1768 63.499 58.0958 63.1858 57.9365L62.1895 61.3142C62.1895 61.3142 65.8047 63.0044 66.4905 63.3338C67.3329 63.7334 67.7082 63.8441 67.7703 63.6794Z" fill="#FFBE9D"/>
<path d="M65.7533 62.1006C65.7236 62.1411 66.1934 62.484 66.8009 62.8701C67.4084 63.2562 67.9187 63.5343 67.943 63.4938C67.9673 63.4533 67.4975 63.1077 66.8927 62.7243C66.2879 62.3409 65.7803 62.0493 65.7533 62.1006Z" fill="#EB996E"/>
<path d="M66.0929 61.4385C66.0659 61.479 66.5465 61.8732 67.1729 62.3214C67.7993 62.7696 68.3177 63.1017 68.3447 63.0639C68.3717 63.0261 67.8938 62.6292 67.2647 62.181C66.6356 61.7328 66.1226 61.4007 66.0929 61.4385Z" fill="#EB996E"/>
<path d="M66.4523 60.7687C66.4253 60.8065 66.8735 61.1899 67.454 61.6219C68.0345 62.0539 68.534 62.3725 68.5556 62.3347C68.5772 62.2969 68.1371 61.9135 67.5566 61.4815C66.9761 61.0495 66.482 60.7309 66.4523 60.7687Z" fill="#EB996E"/>
<path d="M29.681 48.5356L32.3324 48.6814C32.5202 49.4216 32.7713 50.1442 33.083 50.8414C35.2187 47.137 36.863 42.1717 37.2842 40.1764C37.2248 39.9802 37.1519 39.7588 37.0655 39.5122C37.0008 39.1394 37.0118 38.7574 37.0979 38.389C37.1708 37.9462 37.295 37.3468 37.3301 37.0714C37.4462 36.229 37.5812 36.094 37.8701 36.1912C38.2697 36.3208 37.7054 38.5591 38.0321 38.6077C38.2103 38.632 38.4236 37.8652 38.4884 37.2361C38.5532 36.607 38.834 34.6738 39.0419 34.5361C39.347 34.3471 39.6116 34.6468 39.536 35.2732C39.4604 35.8996 39.3605 37.7977 39.6926 37.822C40.0247 37.8463 40.2947 34.6387 40.2947 34.6387C40.2947 34.6387 40.2434 33.9421 40.6268 33.9583C41.3207 33.988 40.7807 37.3711 40.7213 37.6924C40.6781 37.9138 41.0399 37.9624 41.0723 37.714C41.1047 37.4656 41.2721 34.5037 41.9768 34.528C42.5168 34.5469 41.5583 37.3144 41.8634 37.957C42.1685 38.5996 42.3791 35.7781 42.8975 35.8159C43.0892 35.8321 43.2323 35.8699 42.8786 37.4656C42.5334 38.7345 42.1197 39.9837 41.6393 41.2078C40.8293 45.6358 37.214 59.8 31.5656 57.208C28.4066 55.7581 26.9297 48.568 26.9297 48.568L29.681 48.5356Z" fill="#FFBE9D"/>
<path d="M41.6452 41.2317C41.6499 41.1982 41.6589 41.1656 41.6722 41.1345C41.6965 41.0643 41.7262 40.9725 41.7667 40.8645C41.8558 40.608 41.9773 40.2516 42.1366 39.7845C42.2959 39.3174 42.4876 38.7504 42.6766 38.0808C42.7738 37.7487 42.8548 37.3869 42.9277 37.0008C42.9655 36.8064 43.0006 36.6066 43.0249 36.4014C43.0316 36.2998 43.0316 36.1979 43.0249 36.0963C43.0249 35.991 43.0006 35.9046 42.9169 35.9019C42.8332 35.8992 42.7738 35.9505 42.7144 36.0396C42.6606 36.1349 42.6163 36.2353 42.5821 36.3393C42.5065 36.5526 42.4471 36.7794 42.3877 37.0089C42.3283 37.2384 42.2743 37.4787 42.2041 37.7217C42.1735 37.8548 42.1186 37.9811 42.0421 38.0943C42.0229 38.1165 41.9975 38.1324 41.9692 38.1402C41.9514 38.1441 41.9329 38.144 41.9151 38.1397C41.8974 38.1355 41.8808 38.1274 41.8666 38.1159C41.8356 38.0874 41.81 38.0536 41.791 38.016C41.7625 37.9497 41.7434 37.8797 41.7343 37.8081C41.722 37.2635 41.7764 36.7195 41.8963 36.1881C41.9422 35.9181 41.9908 35.6481 42.0259 35.3781C42.0421 35.2404 42.0583 35.1081 42.061 34.9623C42.0637 34.8165 42.0421 34.6626 41.9854 34.6383C41.9287 34.614 41.791 34.6896 41.7154 34.803C41.6408 34.9228 41.5818 35.0516 41.5399 35.1864C41.4478 35.4684 41.3783 35.7573 41.332 36.0504C41.2807 36.3474 41.2402 36.6498 41.2051 36.9576C41.1916 37.1115 41.1754 37.2654 41.1619 37.422L41.1403 37.6569C41.1432 37.7071 41.135 37.7572 41.1163 37.8039C41.0977 37.8506 41.069 37.8925 41.0323 37.9269C40.9861 37.9607 40.9303 37.9789 40.873 37.9789C40.8157 37.9789 40.7599 37.9607 40.7137 37.9269C40.6875 37.9096 40.6653 37.8869 40.6486 37.8604C40.6318 37.8339 40.6209 37.8041 40.6165 37.773C40.6124 37.7443 40.6124 37.7152 40.6165 37.6866V37.6299L40.6894 37.1574C40.7353 36.8388 40.7731 36.5202 40.8028 36.1962C40.8325 35.8722 40.8568 35.5455 40.8622 35.2188C40.878 34.8953 40.8453 34.5713 40.765 34.2576C40.7464 34.178 40.6981 34.1085 40.63 34.0632C40.5974 34.0527 40.5624 34.0528 40.5299 34.0635C40.4974 34.0742 40.4691 34.0949 40.4491 34.1226C40.3617 34.2824 40.3258 34.4654 40.3465 34.6464C40.2871 35.2809 40.2196 35.9046 40.1278 36.5175C40.0819 36.8226 40.0306 37.1277 39.955 37.4274C39.9334 37.5003 39.9118 37.5759 39.8848 37.6515C39.8591 37.7431 39.8053 37.8243 39.7309 37.8837C39.698 37.8998 39.6606 37.9044 39.6248 37.8965C39.589 37.8887 39.5569 37.8689 39.5338 37.8405C39.5008 37.8059 39.4759 37.7644 39.4609 37.719C39.4318 37.6441 39.411 37.5662 39.3988 37.4868C39.3355 36.8992 39.3301 36.3069 39.3826 35.7183C39.4225 35.4439 39.4379 35.1665 39.4285 34.8894C39.4198 34.7711 39.3656 34.6608 39.2773 34.5816C39.2566 34.5687 39.2334 34.5601 39.2093 34.5564C39.1852 34.5527 39.1606 34.5539 39.1369 34.56C39.1117 34.5685 39.0872 34.5793 39.064 34.5924C39.0397 34.614 39.0424 34.5924 39.0262 34.6383C38.9286 34.8811 38.8571 35.1336 38.8129 35.3916C38.7589 35.6616 38.713 35.9073 38.6725 36.1611C38.632 36.4149 38.5942 36.6633 38.5618 36.9117C38.5294 37.1601 38.5132 37.4031 38.4646 37.6461C38.4227 37.8835 38.3594 38.1166 38.2756 38.3427C38.2534 38.4002 38.2272 38.4561 38.1973 38.5101C38.1595 38.5614 38.1379 38.6262 38.0353 38.6586C38.0091 38.6634 37.982 38.6603 37.9575 38.6498C37.9329 38.6392 37.9121 38.6216 37.8976 38.5992C37.8787 38.568 37.8642 38.5344 37.8544 38.4993C37.8423 38.4406 37.835 38.381 37.8328 38.3211C37.8328 37.8594 37.8949 37.4382 37.9192 37.0305C37.9368 36.8356 37.9368 36.6395 37.9192 36.4446C37.9192 36.3582 37.8787 36.2556 37.8301 36.2367C37.7961 36.22 37.7587 36.2113 37.7208 36.2113C37.6828 36.2113 37.6454 36.22 37.6114 36.2367C37.4981 36.3584 37.4279 36.514 37.4116 36.6795C37.3711 36.8442 37.3549 37.0116 37.3252 37.1709C37.2118 37.8081 37.093 38.3589 37.0363 38.8071C37.0097 39.0042 37.0097 39.204 37.0363 39.4011C37.0741 39.5631 37.1308 39.7089 37.1605 39.8223C37.1902 39.9357 37.2199 40.0167 37.2388 40.0923C37.2489 40.1212 37.2561 40.1511 37.2604 40.1814C37.2442 40.1553 37.2315 40.1271 37.2226 40.0977L37.1308 39.8277C37.093 39.7116 37.0363 39.582 36.9904 39.4038C36.9615 39.2014 36.9615 38.996 36.9904 38.7936C37.0417 38.3373 37.1497 37.7919 37.2604 37.152C37.2901 36.9927 37.3063 36.8253 37.3414 36.6525C37.3607 36.5612 37.3851 36.4711 37.4143 36.3825C37.4413 36.2843 37.5002 36.1978 37.5817 36.1368C37.6308 36.1108 37.6855 36.0972 37.741 36.0972C37.7965 36.0972 37.8512 36.1108 37.9003 36.1368C37.9531 36.1701 37.9965 36.2163 38.0263 36.2712C38.056 36.326 38.0712 36.3876 38.0704 36.45C38.0893 36.653 38.0893 36.8572 38.0704 37.0602C38.0515 37.4706 37.9867 37.8999 37.9975 38.3373C37.9995 38.389 38.0058 38.4405 38.0164 38.4912C38.0164 38.5425 38.0542 38.5641 38.0488 38.5533C38.0434 38.5425 38.1001 38.5101 38.1217 38.4669C38.1483 38.419 38.1718 38.3694 38.1919 38.3184C38.2719 38.0995 38.3307 37.8735 38.3674 37.6434C38.4133 37.4085 38.4295 37.1655 38.4619 36.9144C38.4943 36.6633 38.5267 36.4149 38.5672 36.1584C38.6077 35.9019 38.6536 35.6454 38.7049 35.3835C38.7488 35.11 38.8249 34.8426 38.9317 34.587C38.9533 34.5441 38.9859 34.5078 39.0262 34.4817C39.0621 34.462 39.1001 34.4466 39.1396 34.4358C39.1849 34.4228 39.2324 34.4198 39.279 34.4267C39.3256 34.4337 39.3701 34.4506 39.4096 34.4763C39.4723 34.526 39.524 34.5881 39.5616 34.6587C39.5993 34.7293 39.622 34.8069 39.6283 34.8867C39.6486 35.0336 39.6486 35.1826 39.6283 35.3295C39.6148 35.4672 39.6013 35.5995 39.5932 35.7507C39.5406 36.3258 39.546 36.9047 39.6094 37.4787C39.621 37.5469 39.6391 37.6138 39.6634 37.6785C39.6715 37.7046 39.6853 37.7286 39.7039 37.7487C39.7039 37.7487 39.7039 37.7487 39.7174 37.7487C39.7174 37.8108 39.7174 37.7487 39.7174 37.773C39.7174 37.7973 39.7174 37.773 39.7174 37.7514C39.7511 37.7063 39.7775 37.6562 39.7957 37.6029C39.8209 37.5363 39.8425 37.4661 39.8605 37.3923C39.9334 37.1061 39.982 36.8037 40.0279 36.5013C40.1197 35.8938 40.1872 35.2701 40.2439 34.6383V34.6518C40.2199 34.4292 40.2682 34.2049 40.3816 34.0119C40.4249 33.9567 40.4843 33.9164 40.5516 33.8966C40.6188 33.8768 40.6906 33.8784 40.7569 33.9012C40.8135 33.9326 40.8633 33.9751 40.9032 34.0261C40.9431 34.0771 40.9723 34.1357 40.9891 34.1982C41.0756 34.5302 41.1111 34.8734 41.0944 35.2161C41.0944 35.5509 41.0647 35.8803 41.035 36.207C41.0053 36.5337 40.9648 36.855 40.9189 37.1736C40.8946 37.3356 40.8703 37.4922 40.846 37.6515C40.8244 37.7514 40.8298 37.7541 40.846 37.7838C40.8648 37.7964 40.8868 37.8032 40.9095 37.8032C40.9321 37.8032 40.9542 37.7964 40.9729 37.7838C41.0053 37.7595 41.0107 37.7136 41.0188 37.6245L41.0377 37.3896L41.0863 36.9225C41.1187 36.6147 41.1619 36.3069 41.2132 36.0072C41.2632 35.7062 41.3354 35.4092 41.4292 35.1189C41.4782 34.9721 41.5444 34.8317 41.6263 34.7004C41.6709 34.6296 41.7298 34.5689 41.7991 34.5222C41.8376 34.4943 41.8822 34.4761 41.9292 34.4691C41.9762 34.462 42.0241 34.4664 42.0691 34.4817C42.1105 34.5072 42.1454 34.5419 42.1711 34.5831C42.1969 34.6243 42.2128 34.6709 42.2176 34.7193C42.2287 34.7953 42.2333 34.872 42.2311 34.9488C42.2311 35.0973 42.2122 35.2404 42.196 35.3835C42.1582 35.6535 42.1069 35.9397 42.0583 36.2124C41.9423 36.7253 41.8862 37.2499 41.8909 37.7757C41.8985 37.8322 41.913 37.8875 41.9341 37.9404C41.9439 37.9596 41.9557 37.9777 41.9692 37.9944C41.9692 37.9944 41.9692 37.9944 41.9692 37.9755C42.0298 37.8779 42.0745 37.7713 42.1015 37.6596C42.1717 37.4247 42.2284 37.1871 42.2905 36.9549C42.3462 36.7239 42.4138 36.4958 42.493 36.2718C42.5304 36.1608 42.5793 36.054 42.6388 35.9532C42.671 35.8982 42.7131 35.8497 42.763 35.8101C42.7902 35.7865 42.8226 35.7699 42.8575 35.7615C42.8924 35.756 42.9279 35.756 42.9628 35.7615C42.9997 35.7652 43.0348 35.7786 43.0648 35.8005C43.0947 35.8223 43.1182 35.8517 43.1329 35.8857C43.1555 35.9424 43.1674 36.0028 43.168 36.0639C43.1701 36.1731 43.1638 36.2823 43.1491 36.3906C43.1248 36.6012 43.0843 36.801 43.0465 36.9981C42.9682 37.3842 42.8818 37.7514 42.7765 38.0781C42.574 38.7477 42.3715 39.3147 42.2068 39.7764C42.0421 40.2381 41.9017 40.5864 41.8072 40.8348C41.7613 40.9482 41.7235 41.0373 41.6965 41.1048C41.6844 41.149 41.6672 41.1915 41.6452 41.2317Z" fill="#EB996E"/>
<path d="M26.9053 48.8407C27.4183 50.6524 28.4227 53.4469 29.5 56.4007C29.5339 56.4959 29.5954 56.5788 29.6765 56.639C29.7577 56.6992 29.8548 56.734 29.9558 56.7389C30.0567 56.7438 30.1568 56.7187 30.2434 56.6666C30.33 56.6146 30.3992 56.538 30.4423 56.4466L33.0829 50.8603C33.0829 50.8603 32.4457 46.2703 32.4997 46.435C32.5537 46.5997 27.0511 47.029 27.0511 47.029L26.9053 48.8407Z" fill="url(#paint4_linear_2143_3808)"/>
<path d="M32.8565 47.9415C32.8565 47.9631 32.5271 48.0603 32.006 48.2601C31.325 48.5186 30.6689 48.8385 30.0458 49.2159C29.4236 49.5951 28.8363 50.0288 28.2908 50.5119C27.8723 50.8818 27.632 51.1356 27.6158 51.1194C27.5996 51.1032 27.6617 51.0438 27.7643 50.9223C27.909 50.7535 28.0622 50.5922 28.2233 50.439C28.7556 49.9265 29.3422 49.4738 29.9729 49.089C30.6038 48.7089 31.2737 48.3975 31.9709 48.1602C32.1817 48.0876 32.3962 48.0263 32.6135 47.9766C32.6922 47.952 32.7742 47.9402 32.8565 47.9415Z" fill="#FAFAFA"/>
<path d="M33.9036 49.3343C33.732 49.1613 33.5832 48.9671 33.4608 48.7565C33.1454 48.2648 32.8744 47.7462 32.6508 47.2067C32.427 46.6655 32.2526 46.1052 32.1297 45.5327C32.0667 45.2984 32.035 45.057 32.0352 44.8145C32.1157 45.0408 32.1797 45.2727 32.2269 45.5084C32.3715 46.0674 32.5519 46.6167 32.7669 47.1527C32.9915 47.6858 33.2494 48.2044 33.5391 48.7052C33.6739 48.9068 33.7956 49.117 33.9036 49.3343Z" fill="#263238"/>
<path d="M35.6642 24.5971C35.2061 25.3521 34.9221 26.1997 34.8329 27.0782C34.7437 27.9568 34.8515 28.8442 35.1485 29.6758C35.4185 30.4183 35.8505 31.15 35.7722 31.9384C35.6939 32.7268 35.0783 33.5071 35.2943 34.2847C35.4239 34.7464 35.8181 35.0947 35.972 35.5429C36.1475 36.0829 35.972 36.6526 35.8775 37.2061C35.6615 38.6209 36.1151 40.0438 36.2258 41.4694C36.3365 42.895 35.9558 44.5663 34.6814 45.1873C34.2953 45.3763 33.7904 45.4303 33.4691 45.1414C33.0587 44.7769 33.1721 44.1181 33.2855 43.5781C34.4033 38.1781 30.95 32.9077 31.7384 27.4429C31.8653 26.5681 32.354 25.0831 32.9831 24.4729C33.6122 23.8627 35.3591 23.9329 35.9531 24.5809" fill="#263238"/>
<path d="M30.3457 40.263C30.3457 40.263 30.5104 40.0686 30.7534 39.6852C31.0944 39.1437 31.3333 38.5443 31.4581 37.9167C31.5396 37.4843 31.5677 37.0437 31.5418 36.6045C31.4946 36.0938 31.4756 35.5809 31.4851 35.0682C31.5012 34.7874 31.5529 34.5097 31.639 34.242C31.7377 33.9661 31.8624 33.7003 32.0116 33.4482C32.314 32.9379 32.6947 32.4627 33.0457 31.9551C33.4061 31.4753 33.6568 30.9223 33.7801 30.3351C33.84 29.7819 33.808 29.2227 33.6856 28.68C33.5834 28.1756 33.5436 27.6605 33.5668 27.1464C33.5989 26.6973 33.6897 26.2543 33.8368 25.8288C34.0431 25.2113 34.3677 24.6399 34.7926 24.1467C34.9055 24.0126 35.0282 23.8871 35.1598 23.7714C35.2015 23.7269 35.2487 23.6879 35.3002 23.6553C35.3002 23.6553 35.1193 23.8308 34.8331 24.1953C34.1514 25.0414 33.7529 26.0803 33.6937 27.1653C33.6756 27.671 33.7201 28.177 33.826 28.6719C33.9548 29.2292 33.9895 29.8041 33.9286 30.3729C33.8006 30.9765 33.5426 31.545 33.1726 32.0388C32.8189 32.5545 32.4382 33.027 32.1412 33.5238C31.9951 33.7666 31.8739 34.0235 31.7794 34.2906C31.694 34.5474 31.6423 34.8142 31.6255 35.0844C31.6136 35.5915 31.628 36.0989 31.6687 36.6045C31.6901 37.0525 31.6557 37.5015 31.5661 37.941C31.4308 38.5772 31.1741 39.1813 30.8101 39.7203C30.7115 39.866 30.6033 40.0049 30.4861 40.1361C30.4441 40.1834 30.397 40.2259 30.3457 40.263Z" fill="#455A64"/>
<path d="M27.7852 40.6651C27.8069 40.6021 27.8349 40.5415 27.8689 40.4842C27.9364 40.3573 28.0228 40.1899 28.1389 39.9793C28.3657 39.5392 28.7032 38.8993 29.0353 38.0893C29.4415 37.1433 29.6668 36.1295 29.6995 35.1004C29.6996 34.8039 29.677 34.5078 29.632 34.2148C29.5861 33.9124 29.5159 33.6073 29.47 33.2887C29.4138 32.9591 29.4211 32.6219 29.4916 32.2951C29.5829 31.9596 29.7706 31.6582 30.0316 31.4284C30.5392 30.9667 31.1521 30.6643 31.4707 30.1216C31.7467 29.5835 31.9093 28.9944 31.9486 28.3909C32.0057 27.8376 32.1308 27.2935 32.3212 26.7709C32.7491 25.6489 33.5117 24.6856 34.5055 24.0115C34.6639 23.9049 34.8289 23.8084 34.9996 23.7226C35.0572 23.6881 35.1188 23.6609 35.1832 23.6416C35.1832 23.6416 34.9402 23.7712 34.5379 24.0574C33.9708 24.462 33.48 24.9639 33.088 25.5397C32.8161 25.9344 32.5948 26.3617 32.4292 26.8114C32.2472 27.3353 32.1294 27.8792 32.0782 28.4314C31.9972 29.0065 31.9324 29.6491 31.5868 30.2188C31.2412 30.7885 30.6094 31.1125 30.1261 31.5688C29.8798 31.7825 29.7022 32.0644 29.6158 32.3788C29.5501 32.688 29.5437 33.0068 29.5969 33.3184C29.6401 33.6289 29.7076 33.9367 29.7535 34.2418C29.8002 34.5419 29.8218 34.8453 29.8183 35.149C29.7816 36.1969 29.5442 37.228 29.119 38.1865C28.8428 38.8342 28.529 39.4653 28.1794 40.0765L27.8932 40.5004C27.8631 40.559 27.8269 40.6142 27.7852 40.6651Z" fill="#455A64"/>
<path d="M117.118 116.958C117.131 116.919 117.147 116.881 117.167 116.845C117.204 116.764 117.256 116.656 117.318 116.518C117.506 116.096 117.657 115.659 117.769 115.211C118.066 114.05 118.171 112.277 117.731 110.171C117.492 109.022 117.179 107.89 116.794 106.782C116.4 105.58 115.938 104.306 115.563 102.926C115.139 101.487 114.934 99.9929 114.955 98.493C115.012 96.9243 115.476 95.361 115.987 93.8004C116.497 92.2398 117.024 90.7197 117.18 89.1807C117.354 87.7049 117.057 86.2118 116.332 84.9147C115.657 83.67 114.807 82.6035 114.172 81.5019C113.578 80.4783 113.141 79.3717 112.874 78.2187C112.491 76.5494 112.462 74.8183 112.79 73.1373C112.909 72.5222 113.09 71.9207 113.33 71.3418C113.323 71.3823 113.312 71.422 113.298 71.4606L113.19 71.8035C113.098 72.1059 112.976 72.5595 112.86 73.1535C112.558 74.8269 112.603 76.5445 112.992 78.1998C113.263 79.3387 113.703 80.4308 114.297 81.4398C114.931 82.5198 115.784 83.5998 116.475 84.8499C117.218 86.1732 117.524 87.6976 117.348 89.205C117.188 90.7656 116.659 92.3019 116.149 93.8598C115.638 95.4177 115.179 96.9648 115.123 98.5065C115.099 99.9915 115.299 101.472 115.717 102.897C116.087 104.268 116.54 105.543 116.932 106.75C117.313 107.864 117.62 109.002 117.85 110.157C118.279 112.279 118.158 114.072 117.85 115.236C117.729 115.684 117.567 116.121 117.366 116.54L117.199 116.861C117.176 116.896 117.149 116.929 117.118 116.958Z" fill="#263238"/>
<path d="M115.036 82.5902C115.036 82.5902 113.746 78.4564 116.062 76.0372C116.08 76.0178 116.103 76.0037 116.129 75.9965C116.154 75.9894 116.181 75.9894 116.207 75.9967C116.232 76.004 116.255 76.0182 116.273 76.0377C116.291 76.0573 116.303 76.0814 116.308 76.1074C116.432 76.7905 116.586 78.8696 115.036 82.5902Z" fill="url(#paint5_linear_2143_3808)"/>
<path d="M115.811 77.4141C115.807 77.6701 115.778 77.9251 115.725 78.1755C115.638 78.702 115.539 79.3176 115.431 79.998C115.323 80.6784 115.223 81.2967 115.139 81.8205C115.115 82.0758 115.07 82.3287 115.004 82.5765C114.979 82.3211 114.984 82.0637 115.02 81.8097C115.063 81.3372 115.147 80.6892 115.263 79.9764C115.379 79.2636 115.506 78.6264 115.606 78.1593C115.645 77.9038 115.714 77.6537 115.811 77.4141Z" fill="#263238"/>
<path d="M116.554 92.3394C116.554 92.3394 117.345 88.0815 120.525 87.0285C120.55 87.0197 120.577 87.0182 120.603 87.0239C120.629 87.0296 120.653 87.0424 120.672 87.0609C120.691 87.0794 120.705 87.1028 120.711 87.1286C120.718 87.1543 120.717 87.1814 120.709 87.2067C120.498 87.8628 119.664 89.7717 116.554 92.3394Z" fill="url(#paint6_linear_2143_3808)"/>
<path d="M119.659 88.1221C119.536 88.3469 119.391 88.5594 119.227 88.7566L118.112 90.2281L117.005 91.705C116.865 91.9192 116.707 92.1207 116.532 92.3071C116.631 92.0695 116.758 91.8446 116.91 91.6375C117.18 91.2406 117.547 90.706 117.99 90.1309C118.433 89.5558 118.835 89.0509 119.14 88.6837C119.292 88.478 119.466 88.2897 119.659 88.1221Z" fill="#263238"/>
<path d="M115.696 103.013C115.696 103.013 115.215 98.7093 117.953 96.7788C117.974 96.7623 117.999 96.7522 118.026 96.7497C118.053 96.7471 118.079 96.7522 118.103 96.7644C118.127 96.7766 118.147 96.7954 118.16 96.8185C118.174 96.8417 118.181 96.8682 118.18 96.8949C118.171 97.5888 117.926 99.657 115.696 103.013Z" fill="url(#paint7_linear_2143_3808)"/>
<path d="M117.45 98.0801C117.4 98.3315 117.323 98.5768 117.221 98.8118L116.583 100.545C116.346 101.193 116.133 101.779 115.952 102.279C115.882 102.524 115.792 102.764 115.682 102.994C115.707 102.738 115.763 102.486 115.849 102.243C115.981 101.79 116.187 101.163 116.438 100.488C116.689 99.8135 116.934 99.206 117.121 98.7713C117.207 98.5303 117.317 98.2987 117.45 98.0801Z" fill="#263238"/>
<path d="M118.091 113.753C118.091 113.753 117.767 109.433 120.569 107.602C120.591 107.587 120.617 107.579 120.643 107.577C120.67 107.576 120.696 107.582 120.72 107.595C120.743 107.608 120.762 107.627 120.775 107.65C120.788 107.674 120.794 107.7 120.793 107.727C120.761 108.42 120.442 110.481 118.091 113.753Z" fill="url(#paint8_linear_2143_3808)"/>
<path d="M120.013 108.888C119.952 109.137 119.866 109.38 119.756 109.611C119.556 110.103 119.319 110.691 119.057 111.32C118.795 111.949 118.565 112.535 118.366 113.03C118.286 113.273 118.184 113.509 118.061 113.734C118.096 113.479 118.163 113.229 118.258 112.989C118.406 112.541 118.633 111.925 118.908 111.258C119.184 110.591 119.448 109.992 119.651 109.565C119.747 109.327 119.868 109.1 120.013 108.888Z" fill="#263238"/>
<path d="M113.179 78.9582C113.179 78.9582 109.35 76.9493 109.267 73.604C109.266 73.5778 109.273 73.552 109.286 73.5294C109.3 73.5067 109.319 73.488 109.342 73.4753C109.365 73.4626 109.391 73.4563 109.417 73.4571C109.443 73.4579 109.469 73.4658 109.491 73.4798C110.06 73.874 111.643 75.2348 113.179 78.9582Z" fill="url(#paint9_linear_2143_3808)"/>
<path d="M110.063 74.7549C110.243 74.9385 110.403 75.1403 110.541 75.357C110.855 75.7863 111.219 76.2939 111.621 76.8528L112.701 78.3432C112.866 78.5392 113.012 78.7498 113.139 78.9723C112.941 78.808 112.765 78.6203 112.612 78.4134C112.307 78.0516 111.908 77.5332 111.486 76.9473C111.065 76.3614 110.695 75.8187 110.441 75.4218C110.293 75.2132 110.166 74.9897 110.063 74.7549Z" fill="#263238"/>
<path d="M117.302 87.833C117.302 87.833 113.349 86.0645 113.071 82.7246C113.069 82.6984 113.074 82.672 113.085 82.6485C113.097 82.6249 113.115 82.605 113.138 82.5911C113.16 82.5771 113.186 82.5696 113.212 82.5693C113.238 82.5691 113.264 82.5761 113.287 82.5896C113.878 82.9487 115.539 84.2069 117.302 87.833Z" fill="url(#paint10_linear_2143_3808)"/>
<path d="M113.94 83.8262C114.131 83.9976 114.303 84.1886 114.453 84.3959L115.625 85.8242L116.8 87.2471C116.976 87.4333 117.135 87.6348 117.275 87.8492C117.068 87.6963 116.879 87.5196 116.713 87.3227C116.389 86.9771 115.957 86.4857 115.501 85.9268C115.045 85.3679 114.645 84.8468 114.364 84.4661C114.2 84.2691 114.058 84.0545 113.94 83.8262Z" fill="#263238"/>
<path d="M115.021 97.7398C115.021 97.7398 112.321 94.3648 113.582 91.2598C113.592 91.2354 113.608 91.2143 113.629 91.1987C113.65 91.1831 113.676 91.1736 113.702 91.1714C113.728 91.1692 113.754 91.1742 113.778 91.186C113.802 91.1978 113.821 91.2159 113.835 91.2382C114.211 91.8241 115.11 93.7033 115.021 97.7398Z" fill="url(#paint11_linear_2143_3808)"/>
<path d="M113.854 92.6309C113.946 92.8707 114.013 93.1196 114.054 93.3734C114.167 93.8918 114.299 94.502 114.445 95.177C114.591 95.852 114.729 96.4595 114.842 96.9779C114.914 97.2239 114.964 97.4761 114.99 97.7312C114.872 97.5016 114.781 97.2587 114.72 97.0076C114.588 96.5513 114.426 95.9276 114.275 95.2094C114.124 94.4912 114.005 93.8594 113.929 93.395C113.876 93.1438 113.851 92.8876 113.854 92.6309Z" fill="#263238"/>
<path d="M117.72 109.38C117.72 109.38 113.797 107.546 113.576 104.204C113.573 104.177 113.578 104.15 113.59 104.126C113.602 104.102 113.62 104.082 113.643 104.068C113.666 104.054 113.692 104.047 113.719 104.047C113.746 104.047 113.772 104.055 113.795 104.069C114.375 104.439 116.014 105.727 117.72 109.38Z" fill="url(#paint12_linear_2143_3808)"/>
<path d="M114.418 105.315C114.604 105.492 114.772 105.687 114.92 105.896L116.068 107.34L117.218 108.785C117.391 108.974 117.546 109.178 117.682 109.395C117.481 109.237 117.3 109.056 117.142 108.855C116.821 108.504 116.4 108.005 115.952 107.438C115.503 106.871 115.115 106.344 114.839 105.958C114.674 105.761 114.533 105.545 114.418 105.315Z" fill="#263238"/>
<path d="M125.526 92.3584C125.526 92.3584 125.526 92.3908 125.526 92.4529C125.526 92.515 125.526 92.6176 125.526 92.7229C125.526 92.9929 125.499 93.3358 125.48 93.7732C125.432 94.6966 125.359 95.9845 125.275 97.5235C125.005 99.0895 124.195 100.826 123.115 102.513C122.33 103.755 121.495 104.884 120.793 105.934C120.153 106.856 119.577 107.821 119.071 108.823C118.735 109.5 118.464 110.207 118.261 110.934C118.193 111.191 118.139 111.393 118.109 111.531C118.097 111.603 118.078 111.673 118.053 111.742C118.054 111.669 118.063 111.596 118.08 111.526C118.099 111.385 118.139 111.18 118.201 110.918C118.383 110.178 118.641 109.459 118.971 108.772C119.473 107.762 120.047 106.79 120.691 105.864C121.398 104.805 122.216 103.674 122.999 102.44C124.066 100.761 124.859 99.0517 125.159 97.51C125.267 95.9737 125.356 94.6885 125.429 93.7651C125.464 93.3277 125.494 92.9794 125.516 92.7175C125.516 92.6095 125.534 92.5177 125.543 92.4475C125.533 92.4186 125.528 92.3887 125.526 92.3584Z" fill="#263238"/>
<path d="M123.191 102.203C123.191 102.203 124.851 98.2067 122.764 95.585C122.748 95.564 122.726 95.5479 122.701 95.5385C122.676 95.5292 122.649 95.5269 122.623 95.5319C122.597 95.5369 122.573 95.5491 122.554 95.5671C122.534 95.5851 122.52 95.6081 122.513 95.6336C122.327 96.3032 121.984 98.3579 123.191 102.203Z" fill="url(#paint13_linear_2143_3808)"/>
<path d="M122.889 96.9814C122.96 97.2279 123.005 97.4814 123.021 97.7374C123.08 98.2072 123.145 98.8579 123.196 99.5788C123.248 100.3 123.272 100.953 123.272 101.428C123.288 101.685 123.273 101.942 123.226 102.195C123.179 101.943 123.157 101.687 123.159 101.431C123.123 100.891 123.08 100.278 123.034 99.5896C122.988 98.9011 122.945 98.2774 122.907 97.7482C122.876 97.4939 122.87 97.237 122.889 96.9814Z" fill="#263238"/>
<g opacity="0.3">
<path opacity="0.3" d="M123.191 102.203C123.191 102.203 124.851 98.2067 122.764 95.585C122.748 95.564 122.726 95.5479 122.701 95.5385C122.676 95.5292 122.649 95.5269 122.623 95.5319C122.597 95.5369 122.573 95.5491 122.554 95.5671C122.534 95.5851 122.52 95.6081 122.513 95.6336C122.327 96.3032 121.984 98.3579 123.191 102.203Z" fill="black"/>
</g>
<path d="M118.047 111.839C118.047 111.839 119.378 107.719 117.083 105.278C117.065 105.259 117.042 105.244 117.017 105.237C116.991 105.23 116.965 105.23 116.939 105.237C116.914 105.244 116.891 105.257 116.873 105.277C116.855 105.296 116.842 105.32 116.837 105.345C116.707 106.026 116.532 108.105 118.047 111.839Z" fill="url(#paint14_linear_2143_3808)"/>
<path d="M117.32 106.649C117.414 106.889 117.479 107.14 117.515 107.395C117.612 107.856 117.728 108.502 117.839 109.214C117.949 109.927 118.025 110.578 118.066 111.05C118.101 111.305 118.105 111.564 118.079 111.82C118.015 111.572 117.972 111.319 117.949 111.064C117.871 110.537 117.779 109.922 117.679 109.239C117.58 108.556 117.482 107.94 117.409 107.414C117.355 107.162 117.325 106.906 117.32 106.649Z" fill="#263238"/>
<g opacity="0.3">
<path opacity="0.3" d="M118.047 111.839C118.047 111.839 119.378 107.719 117.083 105.278C117.065 105.259 117.042 105.244 117.017 105.237C116.991 105.23 116.965 105.23 116.939 105.237C116.914 105.244 116.891 105.257 116.873 105.277C116.855 105.296 116.842 105.32 116.837 105.345C116.707 106.026 116.532 108.105 118.047 111.839Z" fill="black"/>
</g>
<path d="M125.308 97.3189C125.308 97.3189 128.853 94.8349 128.496 91.5031C128.494 91.4769 128.484 91.452 128.468 91.4311C128.452 91.4102 128.43 91.3941 128.406 91.3846C128.381 91.3751 128.354 91.3726 128.328 91.3773C128.302 91.382 128.278 91.3938 128.259 91.4113C127.743 91.8757 126.361 93.4201 125.308 97.3189Z" fill="url(#paint15_linear_2143_3808)"/>
<g opacity="0.3">
<path opacity="0.3" d="M125.308 97.3189C125.308 97.3189 128.853 94.8349 128.496 91.5031C128.494 91.4769 128.484 91.452 128.468 91.4311C128.452 91.4102 128.43 91.3941 128.406 91.3846C128.381 91.3751 128.354 91.3726 128.328 91.3773C128.302 91.382 128.278 91.3938 128.259 91.4113C127.743 91.8757 126.361 93.4201 125.308 97.3189Z" fill="black"/>
</g>
<path d="M127.854 92.7471C127.783 92.9943 127.685 93.2326 127.559 93.4572C127.357 93.8838 127.063 94.467 126.72 95.1042C126.377 95.7414 126.047 96.3057 125.794 96.7053C125.669 96.9296 125.517 97.1381 125.343 97.3263C125.438 97.0887 125.555 96.8609 125.694 96.6459C125.948 96.1788 126.247 95.6334 126.577 95.0259L127.457 93.4059C127.567 93.1739 127.7 92.9532 127.854 92.7471Z" fill="#263238"/>
<path d="M119.478 107.754C119.478 107.754 123.754 107.087 124.899 103.939C124.908 103.914 124.911 103.888 124.906 103.862C124.901 103.836 124.889 103.812 124.872 103.792C124.854 103.773 124.831 103.759 124.806 103.751C124.781 103.744 124.754 103.743 124.729 103.75C124.062 103.95 122.129 104.719 119.478 107.754Z" fill="url(#paint16_linear_2143_3808)"/>
<g opacity="0.3">
<path opacity="0.3" d="M119.478 107.754C119.478 107.754 123.754 107.087 124.899 103.939C124.908 103.914 124.911 103.888 124.906 103.862C124.901 103.836 124.889 103.812 124.872 103.792C124.854 103.773 124.831 103.759 124.806 103.751C124.781 103.744 124.754 103.743 124.729 103.75C124.062 103.95 122.129 104.719 119.478 107.754Z" fill="black"/>
</g>
<path d="M123.776 104.773C123.603 104.963 123.409 105.132 123.198 105.278C122.828 105.575 122.307 105.97 121.721 106.391C121.135 106.812 120.587 107.171 120.182 107.419C119.971 107.567 119.743 107.687 119.502 107.779C119.694 107.608 119.901 107.455 120.12 107.322L121.627 106.258L123.131 105.178C123.331 105.021 123.547 104.885 123.776 104.773Z" fill="#263238"/>
<path d="M115.396 115.627L114.148 124.024H121.924L120.917 115.627H115.396Z" fill="#455A64"/>
<path d="M121.23 118.227C121.23 118.273 119.826 118.308 118.095 118.308C116.365 118.308 114.958 118.273 114.958 118.227C116.002 118.147 117.049 118.12 118.095 118.146C119.141 118.12 120.187 118.147 121.23 118.227Z" fill="#263238"/>
<path d="M121.381 118.896C121.381 118.942 119.931 118.977 118.141 118.977C116.351 118.977 114.901 118.942 114.901 118.896C114.901 118.851 116.351 118.815 118.141 118.815C119.931 118.815 121.381 118.851 121.381 118.896Z" fill="#263238"/>
<path d="M91.1446 34.1656C91.1446 34.1656 91.0717 34.1656 90.9313 34.1656C90.7263 34.1534 90.5208 34.1534 90.3157 34.1656C89.5227 34.212 88.7436 34.3947 88.0126 34.7056C86.8539 35.1913 85.8455 35.977 85.0912 36.9817C84.6262 37.6091 84.2802 38.3165 84.0706 39.0688C83.5981 40.8609 83.8533 42.7671 84.7807 44.3716C85.0335 44.8159 85.342 45.226 85.6987 45.592C86.0586 45.9798 86.4778 46.3079 86.9407 46.564C87.4157 46.8313 87.9537 46.9665 88.4986 46.9555C89.0605 46.9488 89.5993 46.731 90.0079 46.3453C90.2055 46.1383 90.3604 45.8944 90.4637 45.6276C90.567 45.3608 90.6167 45.0762 90.61 44.7901C90.6059 44.1958 90.4172 43.6174 90.07 43.135C89.3707 42.1495 88.2367 41.488 87.0298 41.1316C85.7783 40.7801 84.4567 40.7615 83.1958 41.0776C82.5522 41.2451 81.9319 41.4917 81.349 41.812C80.7606 42.1441 80.2262 42.5638 79.7641 43.0567C79.6534 43.1836 79.5265 43.2997 79.4266 43.4401L79.1215 43.8505C78.936 44.1397 78.77 44.441 78.6247 44.7523C78.3359 45.3844 78.1386 46.0545 78.0388 46.7422C77.8428 48.1162 78.0297 49.5176 78.5788 50.7922C79.1037 52.0377 80.0178 53.0797 81.1843 53.7622C81.7499 54.0854 82.3813 54.2764 83.0311 54.3211C83.6683 54.3568 84.302 54.2047 84.8536 53.8837C85.4011 53.5811 85.8338 53.1067 86.0848 52.5337C86.3216 51.969 86.338 51.336 86.1307 50.7598C85.9173 50.2039 85.5684 49.7101 85.1155 49.3234C84.6763 48.9438 84.1699 48.6499 83.6224 48.4567C82.5548 48.1201 81.4124 48.1004 80.3338 48.4C79.3246 48.6735 78.3976 49.1898 77.6338 49.9039C76.9381 50.5704 76.4083 51.3906 76.0867 52.2988C75.5243 53.8746 75.5502 55.6006 76.1596 57.1588C76.6349 58.3221 77.3999 59.3445 78.3817 60.1288C79.0002 60.6249 79.6891 61.0262 80.4256 61.3195C80.6794 61.414 80.8765 61.4842 81.0115 61.522L81.2113 61.5868C81.2113 61.5868 81.1411 61.5733 81.0061 61.5355C80.8067 61.4821 80.6102 61.4181 80.4175 61.3438C79.6713 61.0634 78.9734 60.668 78.3493 60.172C77.3509 59.3882 76.5708 58.3608 76.084 57.1885C75.4638 55.6156 75.4322 53.8716 75.9949 52.2772C76.3171 51.3553 76.8528 50.5226 77.5582 49.8472C78.3328 49.1188 79.2736 48.5905 80.2987 48.3082C81.4 48.001 82.5667 48.0197 83.6575 48.3622C84.2211 48.5587 84.7424 48.8602 85.1938 49.2505C85.6645 49.6499 86.0266 50.1616 86.2468 50.7382C86.4689 51.3402 86.4592 52.0032 86.2198 52.5985C85.9535 53.1941 85.5017 53.6875 84.9319 54.0052C84.3599 54.3386 83.7031 54.4981 83.0419 54.4642C82.3762 54.4178 81.7298 54.2202 81.1519 53.8864C79.9587 53.1943 79.0219 52.1343 78.4816 50.8651C77.9207 49.5671 77.7282 48.1397 77.9254 46.7395C78.0285 46.0378 78.2303 45.3543 78.5248 44.7091C78.6732 44.3912 78.8427 44.0836 79.0324 43.7884L79.3456 43.3699C79.4455 43.2268 79.5751 43.0999 79.6885 42.9757C80.1614 42.4734 80.7076 42.0456 81.3085 41.7067C81.9049 41.3803 82.5399 41.13 83.1985 40.9615C84.4835 40.6395 85.8303 40.6591 87.1054 41.0182C88.3366 41.3854 89.4895 42.0577 90.2158 43.0783C90.5809 43.5809 90.7792 44.1852 90.7828 44.8063C90.796 45.4176 90.5658 46.009 90.1429 46.4506C89.711 46.8561 89.1424 47.0845 88.5499 47.0905C87.983 47.1034 87.4232 46.9625 86.9299 46.6828C86.456 46.4213 86.0274 46.0849 85.6609 45.6865C85.2995 45.3123 84.9866 44.8941 84.7294 44.4418C83.7855 42.8074 83.5291 40.8651 84.0166 39.0418C84.2327 38.2808 84.5869 37.566 85.0615 36.9331C85.8297 35.9207 86.8553 35.1329 88.0315 34.6516C88.7686 34.3467 89.5538 34.1749 90.3508 34.144C90.5576 34.1304 90.7651 34.1304 90.9718 34.144L91.1446 34.1656Z" fill="#263238"/>
<path d="M100.159 61.1816H62.3027V90.3794H100.159V61.1816Z" fill="url(#paint17_linear_2143_3808)"/>
<path d="M62.3027 61.1816L69.2957 67.7048H106.51L100.159 61.1816H62.3027Z" fill="url(#paint18_linear_2143_3808)"/>
<path d="M62.3027 61.1818L100.17 61.1143H100.2L100.222 61.1332L106.507 67.5888L106.572 67.6563L106.688 67.7751H106.521L69.3065 67.7454H69.2903L62.3027 61.1818L69.3227 67.6617H69.293L106.507 67.6347L106.459 67.7535L106.391 67.686L100.108 61.2304L100.157 61.252L62.3027 61.1818Z" fill="#263238"/>
<path d="M73.6756 74.6465C73.4705 74.6539 73.2765 74.7416 73.1354 74.8905C72.9943 75.0395 72.9173 75.238 72.921 75.4431C72.9247 75.6483 73.0089 75.8438 73.1553 75.9876C73.3017 76.1314 73.4987 76.212 73.7039 76.212C73.9091 76.212 74.1061 76.1314 74.2525 75.9876C74.3989 75.8438 74.4831 75.6483 74.4868 75.4431C74.4905 75.238 74.4135 75.0395 74.2724 74.8905C74.1313 74.7416 73.9373 74.6539 73.7322 74.6465" fill="#263238"/>
<path d="M82.6207 74.6465C82.4165 74.6543 82.2235 74.7419 82.0831 74.8904C81.9428 75.039 81.8664 75.2367 81.8703 75.4411C81.8741 75.6454 81.9581 75.8401 82.1039 75.9832C82.2498 76.1263 82.446 76.2065 82.6504 76.2065C82.8548 76.2065 83.051 76.1263 83.1969 75.9832C83.3428 75.8401 83.4267 75.6454 83.4306 75.4411C83.4345 75.2367 83.358 75.039 83.2177 74.8904C83.0774 74.7419 82.8844 74.6543 82.6801 74.6465" fill="#263238"/>
<path d="M82.6718 81.6347C82.5157 81.0383 82.2621 80.4717 81.9212 79.958C81.542 79.4086 81.0552 78.942 80.4902 78.5864C79.8086 78.1341 79.0136 77.8823 78.1958 77.8599C77.3781 77.8375 76.5705 78.0452 75.8651 78.4595C75.2825 78.7848 74.7711 79.2236 74.3612 79.7501C73.992 80.2449 73.7082 80.7979 73.5215 81.3863C73.5236 81.3424 73.5308 81.2989 73.5431 81.2567C73.569 81.1351 73.6023 81.0151 73.643 80.8976C73.7909 80.4639 74.0069 80.0565 74.2829 79.6907C74.6899 79.1396 75.2077 78.6798 75.803 78.3407C76.5266 77.9088 77.3581 77.6916 78.2005 77.7145C79.0429 77.7375 79.8614 77.9996 80.5604 78.4703C81.1352 78.8397 81.6263 79.3253 82.0022 79.8959C82.2587 80.2767 82.4528 80.696 82.5773 81.1379C82.6105 81.2578 82.6367 81.3795 82.6556 81.5024C82.6649 81.5459 82.6703 81.5902 82.6718 81.6347Z" fill="#263238"/>
<path opacity="0.5" d="M62.3896 61.5029L69.0856 69.9917H100.16V67.7048H69.2962L62.3896 61.5029Z" fill="black"/>
<path d="M92.6942 90.3148C92.6564 90.3148 92.624 85.2361 92.624 78.9748C92.624 72.7135 92.6564 67.6348 92.6942 67.6348C92.732 67.6348 92.7671 72.7108 92.7671 78.9748C92.7671 85.2388 92.7347 90.3148 92.6942 90.3148Z" fill="#263238"/>
<path d="M98.6389 83.6943H95.3018V87.4662H98.6389V83.6943Z" fill="#F5F5F5"/>
<path d="M62.3028 61.1816L54.5322 67.7048H62.3028V61.1816Z" fill="url(#paint19_linear_2143_3808)"/>
<g opacity="0.4">
<path opacity="0.4" d="M62.3028 61.1816L54.5322 67.7048H62.3028V61.1816Z" fill="black"/>
</g>
<path d="M101.278 90.3799H57.751V123.952H101.278V90.3799Z" fill="url(#paint20_linear_2143_3808)"/>
<path opacity="0.3" d="M101.278 90.3799H57.751V123.952H101.278V90.3799Z" fill="black"/>
<path d="M90.372 123.713C90.3342 123.713 90.3018 116.232 90.3018 107.003C90.3018 97.7744 90.3342 90.29 90.372 90.29C90.4098 90.29 90.4422 97.7717 90.4422 107.003C90.4422 116.234 90.4098 123.713 90.372 123.713Z" fill="#263238"/>
<path d="M97.5862 116.311H94.249V120.082H97.5862V116.311Z" fill="#F5F5F5"/>
<path d="M75.973 90.4688H71.0293V97.6319H75.973V90.4688Z" fill="#263238"/>
<path d="M75.973 116.688H71.0293V123.852H75.973V116.688Z" fill="#263238"/>
<path d="M100.9 90.3794H100.786H100.46L99.2041 90.3929L94.579 90.4145L79.3267 90.4496L64.069 90.4307L59.4466 90.4091L58.1911 90.3956H57.8617H57.751H57.8617H58.1911L59.4466 90.3821L64.069 90.3605L79.3267 90.3389L94.579 90.3605L99.2041 90.3821L100.46 90.3956H100.786L100.9 90.3794Z" fill="#263238"/>
<path d="M26.3035 32.2565L21.5623 31.0901H21.5974C20.3732 31.8688 18.9576 32.294 17.5069 32.3186C16.6481 32.3226 15.7935 32.1979 14.9716 31.9487C13.5266 31.4848 12.2446 30.6168 11.2772 29.4475C10.3098 28.2781 9.69729 26.8563 9.5122 25.3499C9.36683 24.2107 9.47384 23.0535 9.82566 21.9602C10.1775 20.8669 10.7655 19.8645 11.548 19.0238C11.9593 18.572 12.4204 18.1681 12.9223 17.8196C13.1761 17.6603 13.4299 17.4956 13.6945 17.3579L14.0968 17.1635L14.2966 17.0663L14.5072 16.9907C15.5914 16.5705 16.7544 16.3926 17.9146 16.4696C19.4695 16.5706 20.9598 17.1296 22.1975 18.0761C23.4352 19.0227 24.3651 20.3145 24.8698 21.7886C25.1502 22.6133 25.2979 23.4773 25.3072 24.3482C25.314 25.7957 24.9206 27.2169 24.1705 28.4549V28.4117C25.4881 30.7904 26.1523 31.9919 26.3008 32.2565C26.1469 31.9865 25.4584 30.8066 24.0949 28.4522V28.4306V28.409C24.8181 27.183 25.1916 25.7823 25.1749 24.359C25.1624 23.502 25.0129 22.6525 24.7321 21.8426C24.2328 20.3986 23.3187 19.134 22.1041 18.2071C20.8895 17.2801 19.4284 16.7321 17.9038 16.6316C16.7664 16.5575 15.6266 16.7326 14.5639 17.1446L14.3587 17.2175L14.1616 17.3147L13.7674 17.5037C13.4974 17.6414 13.2598 17.8007 13.0087 17.9573C12.5164 18.2964 12.0636 18.6895 11.6587 19.1291C10.8905 19.9544 10.3131 20.9384 9.96736 22.0115C9.62162 23.0847 9.51601 24.2207 9.658 25.3391C9.90832 27.3882 10.9596 29.2549 12.5821 30.5312C13.3075 31.106 14.1307 31.5451 15.0121 31.8272C15.8192 32.0768 16.6594 32.2033 17.5042 32.2025C18.9375 32.1872 20.3388 31.7771 21.5542 31.0172H21.5704H21.6001L26.3035 32.2565Z" fill="#263238"/>
<path d="M16.7405 20.8704L16.9808 24.8394C16.9904 24.9959 17.0569 25.1436 17.1678 25.2545C17.2787 25.3654 17.4264 25.4319 17.5829 25.4415C17.7476 25.4508 17.9097 25.3966 18.0357 25.2902C18.1617 25.1837 18.2422 25.033 18.2606 24.8691L18.7007 20.892C18.7084 20.8208 18.7008 20.7489 18.6786 20.6808C18.6563 20.6128 18.6198 20.5503 18.5716 20.4975C18.5233 20.4446 18.4644 20.4026 18.3987 20.3743C18.3329 20.3459 18.262 20.3319 18.1904 20.3331H17.2265C17.1589 20.3351 17.0923 20.3508 17.0309 20.3791C16.9695 20.4075 16.9144 20.448 16.869 20.4982C16.8236 20.5484 16.7888 20.6072 16.7668 20.6712C16.7447 20.7351 16.7357 20.8029 16.7405 20.8704Z" fill="url(#paint21_linear_2143_3808)"/>
<path d="M18.6297 27.6589C18.5693 27.8402 18.4565 27.9995 18.3055 28.1168C18.1546 28.234 17.9723 28.3038 17.7817 28.3175C17.5911 28.3311 17.4007 28.2879 17.2346 28.1934C17.0685 28.0989 16.9341 27.9572 16.8485 27.7864C16.7629 27.6155 16.7299 27.4231 16.7536 27.2335C16.7773 27.0438 16.8566 26.8655 16.9817 26.7209C17.1067 26.5764 17.2718 26.4722 17.456 26.4214C17.6403 26.3707 17.8354 26.3757 18.0168 26.4358C18.1374 26.4758 18.249 26.5392 18.3451 26.6223C18.4412 26.7054 18.5199 26.8067 18.5769 26.9203C18.6338 27.0339 18.6678 27.1576 18.6768 27.2843C18.6859 27.4111 18.6699 27.5384 18.6297 27.6589Z" fill="url(#paint22_linear_2143_3808)"/>
<defs>
<linearGradient id="paint0_linear_2143_3808" x1="22.3117" y1="34.0633" x2="59.1371" y2="59.7348" gradientUnits="userSpaceOnUse">
<stop stop-color="#D51AFF"/>
<stop offset="0.502" stop-color="#4E6AFE"/>
<stop offset="1" stop-color="#8BF3FE"/>
</linearGradient>
<linearGradient id="paint1_linear_2143_3808" x1="42.9089" y1="37.8639" x2="55.5947" y2="42.5494" gradientUnits="userSpaceOnUse">
<stop stop-color="#D51AFF"/>
<stop offset="0.502" stop-color="#4E6AFE"/>
<stop offset="1" stop-color="#8BF3FE"/>
</linearGradient>
<linearGradient id="paint2_linear_2143_3808" x1="15.0928" y1="111.723" x2="33.6519" y2="123.542" gradientUnits="userSpaceOnUse">
<stop stop-color="#D51AFF"/>
<stop offset="0.502" stop-color="#4E6AFE"/>
<stop offset="1" stop-color="#8BF3FE"/>
</linearGradient>
<linearGradient id="paint3_linear_2143_3808" x1="34.9156" y1="114.534" x2="49.0357" y2="129.555" gradientUnits="userSpaceOnUse">
<stop stop-color="#D51AFF"/>
<stop offset="0.502" stop-color="#4E6AFE"/>
<stop offset="1" stop-color="#8BF3FE"/>
</linearGradient>
<linearGradient id="paint4_linear_2143_3808" x1="25.4968" y1="44.874" x2="39.5676" y2="52.4255" gradientUnits="userSpaceOnUse">
<stop stop-color="#D51AFF"/>
<stop offset="0.502" stop-color="#4E6AFE"/>
<stop offset="1" stop-color="#8BF3FE"/>
</linearGradient>
<linearGradient id="paint5_linear_2143_3808" x1="114.289" y1="74.9948" x2="119.033" y2="76.0915" gradientUnits="userSpaceOnUse">
<stop stop-color="#D51AFF"/>
<stop offset="0.502" stop-color="#4E6AFE"/>
<stop offset="1" stop-color="#8BF3FE"/>
</linearGradient>
<linearGradient id="paint6_linear_2143_3808" x1="115.605" y1="86.2174" x2="123.794" y2="91.9558" gradientUnits="userSpaceOnUse">
<stop stop-color="#D51AFF"/>
<stop offset="0.502" stop-color="#4E6AFE"/>
<stop offset="1" stop-color="#8BF3FE"/>
</linearGradient>
<linearGradient id="paint7_linear_2143_3808" x1="115.089" y1="95.8031" x2="121.626" y2="98.155" gradientUnits="userSpaceOnUse">
<stop stop-color="#D51AFF"/>
<stop offset="0.502" stop-color="#4E6AFE"/>
<stop offset="1" stop-color="#8BF3FE"/>
</linearGradient>
<linearGradient id="paint8_linear_2143_3808" x1="117.46" y1="106.645" x2="124.355" y2="109.358" gradientUnits="userSpaceOnUse">
<stop stop-color="#D51AFF"/>
<stop offset="0.502" stop-color="#4E6AFE"/>
<stop offset="1" stop-color="#8BF3FE"/>
</linearGradient>
<linearGradient id="paint9_linear_2143_3808" x1="108.375" y1="72.6264" x2="116.54" y2="77.827" gradientUnits="userSpaceOnUse">
<stop stop-color="#D51AFF"/>
<stop offset="0.502" stop-color="#4E6AFE"/>
<stop offset="1" stop-color="#8BF3FE"/>
</linearGradient>
<linearGradient id="paint10_linear_2143_3808" x1="112.106" y1="81.7745" x2="120.282" y2="87.6609" gradientUnits="userSpaceOnUse">
<stop stop-color="#D51AFF"/>
<stop offset="0.502" stop-color="#4E6AFE"/>
<stop offset="1" stop-color="#8BF3FE"/>
</linearGradient>
<linearGradient id="paint11_linear_2143_3808" x1="112.84" y1="90.179" x2="117.773" y2="91.3767" gradientUnits="userSpaceOnUse">
<stop stop-color="#D51AFF"/>
<stop offset="0.502" stop-color="#4E6AFE"/>
<stop offset="1" stop-color="#8BF3FE"/>
</linearGradient>
<linearGradient id="paint12_linear_2143_3808" x1="112.63" y1="103.242" x2="120.822" y2="108.944" gradientUnits="userSpaceOnUse">
<stop stop-color="#D51AFF"/>
<stop offset="0.502" stop-color="#4E6AFE"/>
<stop offset="1" stop-color="#8BF3FE"/>
</linearGradient>
<linearGradient id="paint13_linear_2143_3808" x1="121.98" y1="94.5216" x2="126.198" y2="95.368" gradientUnits="userSpaceOnUse">
<stop stop-color="#D51AFF"/>
<stop offset="0.502" stop-color="#4E6AFE"/>
<stop offset="1" stop-color="#8BF3FE"/>
</linearGradient>
<linearGradient id="paint14_linear_2143_3808" x1="116.373" y1="104.234" x2="121.048" y2="105.295" gradientUnits="userSpaceOnUse">
<stop stop-color="#D51AFF"/>
<stop offset="0.502" stop-color="#4E6AFE"/>
<stop offset="1" stop-color="#8BF3FE"/>
</linearGradient>
<linearGradient id="paint15_linear_2143_3808" x1="124.575" y1="90.4775" x2="132.213" y2="94.1759" gradientUnits="userSpaceOnUse">
<stop stop-color="#D51AFF"/>
<stop offset="0.502" stop-color="#4E6AFE"/>
<stop offset="1" stop-color="#8BF3FE"/>
</linearGradient>
<linearGradient id="paint16_linear_2143_3808" x1="118.239" y1="103.14" x2="124.685" y2="110.96" gradientUnits="userSpaceOnUse">
<stop stop-color="#D51AFF"/>
<stop offset="0.502" stop-color="#4E6AFE"/>
<stop offset="1" stop-color="#8BF3FE"/>
</linearGradient>
<linearGradient id="paint17_linear_2143_3808" x1="53.6714" y1="56.7728" x2="100.966" y2="111.69" gradientUnits="userSpaceOnUse">
<stop stop-color="#D51AFF"/>
<stop offset="0.502" stop-color="#4E6AFE"/>
<stop offset="1" stop-color="#8BF3FE"/>
</linearGradient>
<linearGradient id="paint18_linear_2143_3808" x1="52.2235" y1="60.1966" x2="55.6513" y2="81.0007" gradientUnits="userSpaceOnUse">
<stop stop-color="#D51AFF"/>
<stop offset="0.502" stop-color="#4E6AFE"/>
<stop offset="1" stop-color="#8BF3FE"/>
</linearGradient>
<linearGradient id="paint19_linear_2143_3808" x1="52.7605" y1="60.1966" x2="63.4226" y2="71.5713" gradientUnits="userSpaceOnUse">
<stop stop-color="#D51AFF"/>
<stop offset="0.502" stop-color="#4E6AFE"/>
<stop offset="1" stop-color="#8BF3FE"/>
</linearGradient>
<linearGradient id="paint20_linear_2143_3808" x1="47.8269" y1="85.3105" x2="102.206" y2="148.453" gradientUnits="userSpaceOnUse">
<stop stop-color="#D51AFF"/>
<stop offset="0.502" stop-color="#4E6AFE"/>
<stop offset="1" stop-color="#8BF3FE"/>
</linearGradient>
<linearGradient id="paint21_linear_2143_3808" x1="16.2914" y1="19.5615" x2="21.4435" y2="21.3354" gradientUnits="userSpaceOnUse">
<stop stop-color="#D51AFF"/>
<stop offset="0.502" stop-color="#4E6AFE"/>
<stop offset="1" stop-color="#8BF3FE"/>
</linearGradient>
<linearGradient id="paint22_linear_2143_3808" x1="16.3053" y1="26.0948" x2="19.4526" y2="28.9134" gradientUnits="userSpaceOnUse">
<stop stop-color="#D51AFF"/>
<stop offset="0.502" stop-color="#4E6AFE"/>
<stop offset="1" stop-color="#8BF3FE"/>
</linearGradient>
</defs>
</svg>
