<svg width="21" height="24" viewBox="0 0 21 24" fill="none" xmlns="http://www.w3.org/2000/svg">
<path fill-rule="evenodd" clip-rule="evenodd" d="M20.232 12.7693C20.4077 13.2844 20.527 13.9042 20.527 14.701C20.1548 19.0178 15.6481 19.3698 10.6604 19.3698C5.67263 19.3698 1.1649 19.0178 0.796889 14.7692C0.793703 13.0114 1.33024 12.1175 1.80384 11.3303L1.97103 11.0489C2.38269 10.3413 2.73397 9.57174 2.73397 8.00656C2.73397 4.55803 5.91903 0.865234 10.6604 0.865234C10.9086 0.865234 11.1526 0.875356 11.392 0.895035C10.9876 1.37346 10.6412 1.90256 10.3637 2.47144C6.79523 2.62125 4.33397 5.45586 4.33397 8.00656C4.33397 10.2242 3.7185 11.2492 3.1745 12.1538C2.73823 12.8802 2.3937 13.454 2.3937 14.701C2.57184 16.7127 3.89983 17.7698 10.6604 17.7698C17.3836 17.7698 18.7532 16.6658 18.9302 14.6316C18.9287 14.0557 18.8454 13.6242 18.7098 13.2486C19.2392 13.1417 19.7486 12.9799 20.232 12.7693ZM10.6072 22.1985C9.87124 22.1985 9.16191 21.8604 8.60938 21.245C8.31391 20.9154 7.80831 20.8887 7.47978 21.1852C7.15124 21.4796 7.12458 21.9863 7.42004 22.3137C8.27871 23.2705 9.41044 23.7975 10.6062 23.7985H10.6083C11.8072 23.7985 12.9411 23.2716 13.803 22.3148C14.0984 21.9873 14.0718 21.4807 13.7432 21.1852C13.4158 20.8897 12.9102 20.9164 12.6136 21.2439C12.06 21.8604 11.3475 22.1985 10.6083 22.1985H10.6072Z" fill="white"/>
</svg>
