<svg width="9" height="10" viewBox="0 0 9 10" fill="none" xmlns="http://www.w3.org/2000/svg">
<path d="M3.60077 7.61572H0.474609" stroke="#646C7D" stroke-width="0.789968" stroke-miterlimit="10" stroke-linecap="round" stroke-linejoin="round"/>
<path d="M8.35393 7.61372C8.35393 7.86034 8.28097 8.10141 8.14427 8.30647C8.00756 8.51153 7.81326 8.67136 7.58592 8.76577C7.35858 8.86017 7.10842 8.8849 6.86706 8.83684C6.62569 8.78877 6.40397 8.67006 6.22992 8.49573C6.05587 8.32139 5.93731 8.09925 5.88922 7.85739C5.84114 7.61554 5.86569 7.36482 5.95977 7.13695C6.05386 6.90907 6.21325 6.71427 6.4178 6.57717C6.62235 6.44007 6.86287 6.36682 7.10895 6.3667C7.27242 6.36662 7.4343 6.39881 7.58534 6.46144C7.73638 6.52407 7.87364 6.61592 7.98925 6.73172C8.10487 6.84753 8.19658 6.98503 8.25915 7.13636C8.32173 7.2877 8.35393 7.44991 8.35393 7.61372Z" stroke="#646C7D" stroke-width="0.789968" stroke-miterlimit="10" stroke-linecap="round" stroke-linejoin="round"/>
<path d="M5.22852 2.53906H8.35499" stroke="#646C7D" stroke-width="0.789968" stroke-miterlimit="10" stroke-linecap="round" stroke-linejoin="round"/>
<path d="M0.476563 2.53609C0.476563 2.78273 0.549542 3.02383 0.686273 3.2289C0.823004 3.43397 1.01735 3.5938 1.24472 3.68819C1.4721 3.78257 1.72229 3.80727 1.96367 3.75915C2.20505 3.71104 2.42678 3.59227 2.6008 3.41787C2.77483 3.24347 2.89334 3.02127 2.94135 2.77937C2.98937 2.53747 2.96472 2.28674 2.87054 2.05887C2.77636 1.83101 2.61687 1.63625 2.41224 1.49922C2.2076 1.3622 1.96702 1.28906 1.72091 1.28906C1.55749 1.28902 1.39566 1.32125 1.24467 1.3839C1.09368 1.44656 0.956489 1.53841 0.840932 1.65422C0.725375 1.77002 0.633718 1.90751 0.571199 2.05882C0.508679 2.21014 0.476521 2.37231 0.476563 2.53609V2.53609Z" stroke="#646C7D" stroke-width="0.789968" stroke-miterlimit="10" stroke-linecap="round" stroke-linejoin="round"/>
</svg>
