<svg width="33" height="42" viewBox="0 0 33 42" fill="none" xmlns="http://www.w3.org/2000/svg">
<path d="M19.1008 33.3832V36.1819H24.3028C24.6424 36.1782 24.9792 36.2417 25.2932 36.3687C25.6073 36.4957 25.8923 36.6835 26.1311 36.9211C26.38 37.1516 26.5773 37.4308 26.7102 37.7407C26.8432 38.0506 26.9089 38.3844 26.9032 38.7208C26.9083 39.0581 26.8444 39.393 26.7154 39.7056C26.5865 40.0181 26.395 40.302 26.1524 40.5403C25.915 40.7866 25.628 40.9814 25.3097 41.1123C24.9914 41.2431 24.6489 41.3072 24.3041 41.3003H8.70173C8.35689 41.3071 8.01441 41.243 7.69616 41.1121C7.37791 40.9813 7.09089 40.7865 6.85342 40.5403C6.61054 40.3022 6.41888 40.0184 6.28988 39.7058C6.16088 39.3932 6.09718 39.0582 6.10259 38.7208C6.10073 38.3851 6.16687 38.0524 6.29716 37.7422C6.42745 37.432 6.61926 37.1504 6.86139 36.914C7.10351 36.6776 7.39109 36.4911 7.70729 36.3654C8.0235 36.2397 8.36199 36.1774 8.70298 36.1819H13.9025V33.3832C10.276 32.817 6.97963 30.9795 4.62094 28.2093C2.17587 25.4614 0.850984 21.9196 0.9018 18.267C0.898018 17.9328 0.962538 17.6012 1.09152 17.292C1.22051 16.9829 1.41133 16.7024 1.65264 16.4672C1.89001 16.2209 2.17701 16.026 2.49529 15.8952C2.81356 15.7643 3.15609 15.7002 3.50094 15.7072C3.8458 15.7002 4.18832 15.7643 4.5066 15.8952C4.82487 16.026 5.11188 16.2209 5.34925 16.4672C5.59056 16.7024 5.78137 16.9829 5.91036 17.292C6.03935 17.6012 6.10387 17.9328 6.10008 18.267C6.07838 19.6146 6.33771 20.9522 6.86204 22.1973C7.38637 23.4423 8.16455 24.5682 9.14848 25.5054C10.101 26.473 11.2447 27.2382 12.5091 27.7541C13.7735 28.27 15.1319 28.5255 16.5004 28.505C17.8691 28.5263 19.2276 28.2712 20.4922 27.7552C21.7567 27.2393 22.9003 26.4736 23.8523 25.5054C24.8353 24.5678 25.6128 23.442 26.1369 22.1973C26.661 20.9526 26.9205 19.6154 26.8995 18.2682C26.9086 17.5887 27.1883 16.9399 27.6783 16.4612C28.1683 15.9825 28.8296 15.7122 29.5199 15.7084C29.8616 15.7028 30.2007 15.7675 30.5156 15.8984C30.8304 16.0293 31.114 16.2234 31.3482 16.4685C31.5895 16.7036 31.7803 16.9841 31.9093 17.2933C32.0383 17.6025 32.1028 17.934 32.099 18.2682C32.1493 21.9188 30.8254 25.4586 28.3824 28.2056C26.0243 30.9772 22.7278 32.816 19.1008 33.3832ZM16.5004 25.9452C15.4749 25.9493 14.4588 25.7534 13.5106 25.369C12.5624 24.9846 11.7009 24.4192 10.9758 23.7054C10.2507 22.9916 9.6763 22.1435 9.28578 21.2101C8.89527 20.2767 8.69634 19.2764 8.70048 18.267V8.03022C8.6822 7.01867 8.87476 6.01418 9.26627 5.07875C9.65778 4.14333 10.2399 3.29684 10.9768 2.59155C11.6936 1.86679 12.5536 1.29419 13.5038 0.909033C14.454 0.523874 15.4742 0.334313 16.5017 0.352028C17.529 0.333825 18.5492 0.523168 19.4992 0.908361C20.4493 1.29355 21.309 1.86641 22.0253 2.59155C22.7622 3.29687 23.3444 4.14334 23.7362 5.07873C24.1279 6.01413 24.3207 7.01862 24.3028 8.03022V18.267C24.307 19.2764 24.108 20.2767 23.7175 21.2101C23.327 22.1435 22.7526 22.9916 22.0275 23.7054C21.3024 24.4192 20.4409 24.9846 19.4927 25.369C18.5445 25.7534 17.5284 25.9493 16.5029 25.9452H16.5004Z" fill="#625EFE"/>
</svg>
