<svg width="119" height="119" viewBox="0 0 119 119" fill="none" xmlns="http://www.w3.org/2000/svg">
<path opacity="0.5" d="M59.5 105C84.629 105 105 84.6285 105 59.4995C105 34.3706 84.629 13.9995 59.5 13.9995C34.371 13.9995 14 34.3706 14 59.4995C14 84.6285 34.371 105 59.5 105Z" stroke="#625EFE" stroke-width="1.95"/>
<path opacity="0.2" d="M59.5 118C91.8087 118 118 91.8087 118 59.5C118 27.1913 91.8087 1 59.5 1C27.1913 1 1 27.1913 1 59.5C1 91.8087 27.1913 118 59.5 118Z" stroke="#625EFE" stroke-width="1.95"/>
<path d="M62.1008 72.3829V75.1817H67.3028C67.6424 75.178 67.9792 75.2415 68.2932 75.3685C68.6073 75.4954 68.8923 75.6833 69.1311 75.9208C69.38 76.1513 69.5773 76.4305 69.7102 76.7404C69.8432 77.0504 69.9089 77.3842 69.9032 77.7206C69.9083 78.0579 69.8444 78.3928 69.7154 78.7053C69.5865 79.0179 69.395 79.3017 69.1524 79.54C68.915 79.7863 68.628 79.9811 68.3097 80.112C67.9914 80.2429 67.6489 80.3069 67.3041 80.3001H51.7017C51.3569 80.3069 51.0144 80.2428 50.6962 80.1119C50.3779 79.981 50.0909 79.7863 49.8534 79.54C49.6105 79.3019 49.4189 79.0181 49.2899 78.7055C49.1609 78.3929 49.0972 78.0579 49.1026 77.7206C49.1007 77.3849 49.1669 77.0522 49.2972 76.742C49.4274 76.4317 49.6193 76.1502 49.8614 75.9138C50.1035 75.6774 50.3911 75.4909 50.7073 75.3652C51.0235 75.2395 51.362 75.1771 51.703 75.1817H56.9025V72.3829C53.276 71.8167 49.9796 69.9792 47.6209 67.2091C45.1759 64.4612 43.851 60.9194 43.9018 57.2667C43.898 56.9325 43.9625 56.601 44.0915 56.2918C44.2205 55.9826 44.4113 55.7021 44.6526 55.467C44.89 55.2206 45.177 55.0258 45.4953 54.8949C45.8136 54.764 46.1561 54.7 46.5009 54.7069C46.8458 54.7 47.1883 54.764 47.5066 54.8949C47.8249 55.0258 48.1119 55.2206 48.3492 55.467C48.5906 55.7021 48.7814 55.9826 48.9104 56.2918C49.0393 56.601 49.1039 56.9325 49.1001 57.2667C49.0784 58.6143 49.3377 59.952 49.862 61.197C50.3864 62.442 51.1645 63.568 52.1485 64.5052C53.101 65.4727 54.2447 66.238 55.5091 66.7539C56.7735 67.2698 58.1319 67.5253 59.5004 67.5047C60.8691 67.5261 62.2276 67.2709 63.4922 66.755C64.7567 66.2391 65.9003 65.4734 66.8523 64.5052C67.8353 63.5676 68.6128 62.4418 69.1369 61.1971C69.661 59.9524 69.9205 58.6152 69.8995 57.268C69.9086 56.5885 70.1883 55.9396 70.6783 55.461C71.1683 54.9823 71.8296 54.712 72.5199 54.7082C72.8616 54.7025 73.2007 54.7673 73.5156 54.8981C73.8304 55.029 74.114 55.2232 74.3482 55.4682C74.5895 55.7034 74.7803 55.9839 74.9093 56.293C75.0383 56.6022 75.1028 56.9338 75.099 57.268C75.1493 60.9186 73.8254 64.4584 71.3824 67.2054C69.0243 69.9769 65.7278 71.8158 62.1008 72.3829ZM59.5004 64.9449C58.4749 64.949 57.4588 64.7532 56.5106 64.3688C55.5624 63.9843 54.7009 63.4189 53.9758 62.7051C53.2507 61.9913 52.6763 61.1433 52.2858 60.2099C51.8953 59.2765 51.6963 58.2762 51.7005 57.2667V47.03C51.6822 46.0184 51.8748 45.0139 52.2663 44.0785C52.6578 43.1431 53.2399 42.2966 53.9768 41.5913C54.6936 40.8665 55.5536 40.2939 56.5038 39.9088C57.454 39.5236 58.4742 39.3341 59.5017 39.3518C60.529 39.3336 61.5492 39.5229 62.4992 39.9081C63.4493 40.2933 64.309 40.8662 65.0253 41.5913C65.7622 42.2966 66.3444 43.1431 66.7362 44.0785C67.1279 45.0139 67.3207 46.0184 67.3028 47.03V57.2667C67.307 58.2762 67.108 59.2765 66.7175 60.2099C66.327 61.1433 65.7526 61.9913 65.0275 62.7051C64.3024 63.4189 63.4409 63.9843 62.4927 64.3688C61.5445 64.7532 60.5284 64.949 59.5029 64.9449H59.5004Z" fill="#625EFE"/>
</svg>
