<svg width="12" height="12" viewBox="0 0 12 12" fill="none" xmlns="http://www.w3.org/2000/svg">
<path d="M3.24901 10.0078L0.871231 11.3727L2.23616 8.98428L2.30002 8.97363L4.08254 7.18211L2.47238 5.56131C2.17243 5.26273 2.20737 4.92484 2.57719 4.54765H4.48579L7.34338 1.79691L7.21524 1.65813C7.14665 1.59527 7.09218 1.51858 7.05541 1.43312C7.01865 1.34765 7.00042 1.25537 7.00195 1.16235C7.00062 1.06908 7.01843 0.97653 7.05427 0.890413C7.09011 0.804296 7.14322 0.726441 7.21033 0.661655C7.27527 0.594669 7.35322 0.541666 7.43939 0.505902C7.52557 0.470138 7.61814 0.452367 7.71143 0.453681C7.80497 0.45241 7.89784 0.469661 7.98469 0.504441C8.07153 0.539222 8.15064 0.590844 8.21744 0.656333L11.5745 4.02567C11.6403 4.09239 11.6923 4.1715 11.7275 4.25841C11.7626 4.34533 11.7802 4.43835 11.7792 4.53209C11.7808 4.62494 11.7637 4.71717 11.7289 4.80326C11.694 4.88936 11.6422 4.96755 11.5765 5.03319C11.5129 5.10036 11.4359 5.15355 11.3505 5.18935C11.2652 5.22516 11.1733 5.2428 11.0808 5.24117C10.9862 5.24218 10.8925 5.22378 10.8054 5.18709C10.7183 5.15039 10.6396 5.0962 10.5743 5.02787L10.4356 4.88908L7.68523 7.75773L7.67458 9.66633C7.30504 10.0359 6.97097 10.0678 6.67238 9.76213L5.06181 8.15034L3.2707 9.94145L3.24901 10.0078Z" fill="#303548"/>
</svg>
