<svg width="13" height="14" viewBox="0 0 13 14" fill="none" xmlns="http://www.w3.org/2000/svg">
<path d="M10.8666 4.6851C11.2536 4.92822 11.5731 5.26862 11.7948 5.67382C12.0164 6.07901 12.1328 6.5355 12.1328 6.99973C12.1328 7.46396 12.0164 7.92044 11.7948 8.32564C11.5731 8.73084 11.2536 9.07123 10.8666 9.31435L4.0504 13.5974C3.64757 13.8506 3.18596 13.9894 2.71318 13.9994C2.24039 14.0095 1.77354 13.8904 1.36076 13.6546C0.947989 13.4188 0.604233 13.0747 0.364944 12.6578C0.125656 12.241 -0.000501633 11.7664 -0.000520706 11.2831V2.7169C-0.000501633 2.23359 0.125656 1.75903 0.364944 1.34217C0.604233 0.925301 0.947989 0.581214 1.36076 0.34539C1.77354 0.109565 2.24039 -0.00946023 2.71318 0.000587332C3.18596 0.0106349 3.64757 0.149392 4.0504 0.402549L10.8666 4.6851Z" fill="url(#paint0_linear_6230_15439)"/>
<defs>
<linearGradient id="paint0_linear_6230_15439" x1="13.9649" y1="-3.192" x2="-6.56027" y2="16.6706" gradientUnits="userSpaceOnUse">
<stop stop-color="#D51AFF"/>
<stop offset="0.502" stop-color="#4E6AFE"/>
<stop offset="1" stop-color="#8BF3FE"/>
</linearGradient>
</defs>
</svg>
