<svg width="24" height="24" viewBox="0 0 24 24" fill="none" xmlns="http://www.w3.org/2000/svg">
<circle cx="12" cy="12" r="12" fill="#E6F0FF"/>
<path d="M11.9844 7C9.22438 7 6.98438 9.24 6.98438 12C6.98438 14.76 9.22438 17 11.9844 17C14.7444 17 16.9844 14.76 16.9844 12C16.9844 9.24 14.7494 7 11.9844 7ZM14.1144 12.615C14.1144 13.445 13.4444 14.115 12.6144 14.115H11.3844C10.5544 14.115 9.88438 13.445 9.88438 12.615V11.385C9.88438 10.555 10.5544 9.885 11.3844 9.885H12.6144C13.4444 9.885 14.1144 10.555 14.1144 11.385V12.615Z" fill="#0565FF"/>
</svg>
