<svg width="68" height="68" viewBox="0 0 68 68" fill="none" xmlns="http://www.w3.org/2000/svg">
<path d="M34.0013 0.666992C15.6346 0.666992 0.667969 15.6337 0.667969 34.0003C0.667969 52.367 15.6346 67.3337 34.0013 67.3337C52.368 67.3337 67.3346 52.367 67.3346 34.0003C67.3346 15.6337 52.368 0.666992 34.0013 0.666992ZM31.5013 20.667C31.5013 19.3003 32.6346 18.167 34.0013 18.167C35.368 18.167 36.5013 19.3003 36.5013 20.667V37.3337C36.5013 38.7003 35.368 39.8337 34.0013 39.8337C32.6346 39.8337 31.5013 38.7003 31.5013 37.3337V20.667ZM37.068 48.6003C36.9013 49.0337 36.668 49.367 36.368 49.7003C36.0346 50.0003 35.668 50.2337 35.268 50.4003C34.868 50.567 34.4346 50.667 34.0013 50.667C33.568 50.667 33.1346 50.567 32.7346 50.4003C32.3346 50.2337 31.968 50.0003 31.6346 49.7003C31.3346 49.367 31.1013 49.0337 30.9346 48.6003C30.768 48.2003 30.668 47.767 30.668 47.3337C30.668 46.9003 30.768 46.467 30.9346 46.067C31.1013 45.667 31.3346 45.3003 31.6346 44.967C31.968 44.667 32.3346 44.4337 32.7346 44.267C33.5346 43.9337 34.468 43.9337 35.268 44.267C35.668 44.4337 36.0346 44.667 36.368 44.967C36.668 45.3003 36.9013 45.667 37.068 46.067C37.2346 46.467 37.3346 46.9003 37.3346 47.3337C37.3346 47.767 37.2346 48.2003 37.068 48.6003Z" fill="#FF6969"/>
</svg>
