<svg width="10" height="13" viewBox="0 0 10 13" fill="none" xmlns="http://www.w3.org/2000/svg">
<path d="M9.03827 1.62502H6.92295V1.21876C6.92295 1.05871 6.89311 0.90023 6.83512 0.752363C6.77713 0.604495 6.69214 0.47014 6.585 0.356967C6.47785 0.243795 6.35065 0.154021 6.21066 0.0927728C6.07067 0.0315242 5.92063 0 5.76911 0L4.23064 0C3.92465 3.50367e-05 3.63119 0.128456 3.41483 0.357014C3.19847 0.585573 3.07692 0.89555 3.07692 1.21876V1.62502H0.961476C0.706477 1.62502 0.461921 1.73201 0.28161 1.92247C0.101298 2.11293 0 2.37124 0 2.64059V3.4531C0 3.56084 0.0405218 3.66417 0.112651 3.74036C0.184781 3.81655 0.282609 3.85935 0.384615 3.85935H9.61538C9.71739 3.85935 9.81522 3.81655 9.88735 3.74036C9.95948 3.66417 10 3.56084 10 3.4531V2.64059C10 2.5072 9.97512 2.37512 9.92679 2.25188C9.87845 2.12865 9.80761 2.01669 9.7183 1.92238C9.62899 1.82807 9.52297 1.75327 9.40629 1.70225C9.28961 1.65123 9.16456 1.62498 9.03827 1.62502ZM3.84615 1.21876C3.84629 1.11108 3.88683 1.00785 3.95891 0.931699C4.03098 0.855545 4.1287 0.812683 4.23064 0.812509H5.76911C5.87109 0.812613 5.96888 0.855445 6.041 0.931606C6.11313 1.00777 6.15371 1.11104 6.15385 1.21876V1.62502H3.84615V1.21876Z" fill="#FF6969"/>
<path d="M0.733494 4.67188C0.717224 4.67187 0.701123 4.67536 0.686166 4.68213C0.671209 4.68889 0.657708 4.69879 0.646482 4.71123C0.635255 4.72367 0.626535 4.73839 0.620852 4.75449C0.615169 4.7706 0.61264 4.78775 0.613419 4.80492L0.930493 11.8391C0.944208 12.1521 1.07164 12.4474 1.28628 12.6636C1.50092 12.8799 1.78623 13.0004 2.08284 13H7.92399C8.2206 13.0004 8.50591 12.8799 8.72055 12.6636C8.93519 12.4474 9.06262 12.1521 9.07633 11.8391L9.39366 4.80492C9.39444 4.78772 9.3919 4.77053 9.38619 4.7544C9.38049 4.73827 9.37173 4.72353 9.36047 4.71109C9.3492 4.69864 9.33565 4.68875 9.32065 4.68201C9.30565 4.67527 9.28951 4.67182 9.27321 4.67188H0.733494ZM6.542 5.68744C6.542 5.5797 6.58252 5.47637 6.65465 5.40018C6.72678 5.32399 6.82461 5.28119 6.92662 5.28119C7.02862 5.28119 7.12645 5.32399 7.19858 5.40018C7.27071 5.47637 7.31123 5.5797 7.31123 5.68744V10.9686C7.31123 11.0764 7.27071 11.1797 7.19858 11.2559C7.12645 11.3321 7.02862 11.3749 6.92662 11.3749C6.82461 11.3749 6.72678 11.3321 6.65465 11.2559C6.58252 11.1797 6.542 11.0764 6.542 10.9686V5.68744ZM4.61892 5.68744C4.61892 5.5797 4.65945 5.47637 4.73158 5.40018C4.8037 5.32399 4.90153 5.28119 5.00354 5.28119C5.10555 5.28119 5.20337 5.32399 5.2755 5.40018C5.34763 5.47637 5.38815 5.5797 5.38815 5.68744V10.9686C5.38815 11.0764 5.34763 11.1797 5.2755 11.2559C5.20337 11.3321 5.10555 11.3749 5.00354 11.3749C4.90153 11.3749 4.8037 11.3321 4.73158 11.2559C4.65945 11.1797 4.61892 11.0764 4.61892 10.9686V5.68744ZM2.69585 5.68744C2.69585 5.5797 2.73637 5.47637 2.8085 5.40018C2.88063 5.32399 2.97846 5.28119 3.08046 5.28119C3.18247 5.28119 3.2803 5.32399 3.35243 5.40018C3.42456 5.47637 3.46508 5.5797 3.46508 5.68744V10.9686C3.46508 11.0764 3.42456 11.1797 3.35243 11.2559C3.2803 11.3321 3.18247 11.3749 3.08046 11.3749C2.97846 11.3749 2.88063 11.3321 2.8085 11.2559C2.73637 11.1797 2.69585 11.0764 2.69585 10.9686V5.68744Z" fill="#FF6969"/>
</svg>
