<svg width="26" height="26" viewBox="0 0 26 26" fill="none" xmlns="http://www.w3.org/2000/svg">
<path d="M24.8049 23.4545L20.563 19.3111L20.4638 19.1603C20.2768 18.9763 20.0249 18.8731 19.7625 18.8731C19.5001 18.8731 19.2482 18.9763 19.0612 19.1603C17.2996 20.7599 15.0264 21.6805 12.6482 21.7574C10.27 21.8343 7.94203 21.0625 6.0808 19.5801C4.24072 18.1268 3.00631 16.0415 2.6172 13.7293C2.2281 11.417 2.71206 9.04258 3.97514 7.06705C5.27231 5.07602 7.23781 3.61363 9.51761 2.94328C11.7974 2.27292 14.2417 2.43867 16.4101 3.41067C18.5666 4.3439 20.3027 6.04051 21.2852 8.17504C22.2677 10.3096 22.4276 12.7317 21.734 14.9769C21.6827 15.1409 21.6765 15.3157 21.7159 15.483C21.7553 15.6503 21.839 15.8039 21.9582 15.9278C22.0793 16.0537 22.231 16.1462 22.3984 16.1963C22.5659 16.2464 22.7434 16.2524 22.9139 16.2138C23.0834 16.1767 23.2402 16.0958 23.3685 15.9791C23.4969 15.8624 23.5924 15.714 23.6454 15.5488C24.4761 12.8826 24.3081 10.0052 23.1726 7.45382C22.0372 4.90246 20.012 2.85155 17.4751 1.68403C14.9227 0.471732 12.0253 0.195286 9.28968 0.903035C6.55405 1.61078 4.15427 3.25768 2.51 5.55573C0.903352 7.83298 0.186914 10.6201 0.496195 13.3898C0.805475 16.1596 2.11903 18.72 4.18842 20.5867C6.28523 22.4854 8.98138 23.5887 11.8077 23.7047C14.634 23.8208 17.4115 22.9422 19.6569 21.2218L23.4124 24.8898C23.6009 25.0711 23.8522 25.1724 24.1137 25.1724C24.3753 25.1724 24.6266 25.0711 24.8151 24.8898C24.907 24.7999 24.98 24.6925 25.0299 24.574C25.0798 24.4555 25.1055 24.3282 25.1055 24.1997C25.1055 24.0711 25.0798 23.9438 25.0299 23.8253C24.98 23.7068 24.907 23.5994 24.8151 23.5095L24.8049 23.4545Z" fill="#424A5C"/>
</svg>
