<svg width="24" height="24" viewBox="0 0 24 24" fill="none" xmlns="http://www.w3.org/2000/svg">
<path d="M22.8791 21.5844L18.8979 17.6876L18.8045 17.5455C18.6273 17.3721 18.3915 17.2752 18.1462 17.2752C17.9009 17.2752 17.6651 17.3721 17.4879 17.5455C15.8206 19.0528 13.6907 19.9173 11.4662 19.9897C9.2417 20.062 7.06239 19.3376 5.30477 17.9416C3.5832 16.5963 2.42275 14.6352 2.05617 12.4516C1.68959 10.2681 2.14399 8.02359 3.32824 6.16829C4.5698 4.28644 6.4188 2.91071 8.55195 2.28163C10.6851 1.65255 12.9666 1.81017 14.9976 2.72692C17.0076 3.57691 18.6344 5.16407 19.559 7.17708C20.4837 9.19009 20.6394 11.4837 19.9956 13.608C19.9478 13.7626 19.9421 13.9276 19.9793 14.0853C20.0164 14.2429 20.0949 14.3872 20.2062 14.5027C20.3212 14.6215 20.4638 14.7085 20.6206 14.7555C20.7775 14.8026 20.9435 14.808 21.103 14.7715C21.2609 14.7376 21.4073 14.662 21.5277 14.5522C21.6481 14.4424 21.7382 14.3022 21.7891 14.1457C23.4199 8.99427 20.9592 3.45074 15.9999 1.09906C13.6066 -0.0436702 10.9004 -0.304738 8.34035 0.360138C5.78026 1.02501 3.52392 2.57489 1.95406 4.74689C0.448225 6.88128 -0.224845 9.51323 0.0664529 12.1281C0.357751 14.743 1.59247 17.1527 3.52918 18.8862C5.51431 20.6748 8.04093 21.7105 10.6847 21.8193C13.3285 21.9281 15.9283 21.1035 18.0476 19.4838L21.5727 22.934C21.7511 23.1049 21.9865 23.2 22.231 23.2C22.4754 23.2 22.7108 23.1049 22.8892 22.934C22.9754 22.8504 23.0441 22.7496 23.091 22.638C23.1379 22.5263 23.1621 22.406 23.1621 22.2845C23.1621 22.163 23.1379 22.0427 23.091 21.931C23.0441 21.8193 22.9754 21.7186 22.8892 21.6349L22.8791 21.5844Z" fill="white"/>
</svg>
