<svg width="12" height="12" viewBox="0 0 12 12" fill="none" xmlns="http://www.w3.org/2000/svg">
<path d="M11.2489 1.28764C11.1189 1.15437 10.9549 1.05918 10.7747 1.01234C10.5946 0.965504 10.405 0.96881 10.2266 1.0219L1.72516 3.49488C1.5396 3.54565 1.37232 3.64816 1.24285 3.79045C1.11338 3.93273 1.02707 4.10892 0.99399 4.29843C0.97281 4.51392 1.01081 4.7311 1.1039 4.92659C1.197 5.12209 1.34165 5.28848 1.52229 5.40786L4.18282 7.04349C4.31517 7.12538 4.47141 7.1599 4.62595 7.14137C4.78048 7.12285 4.92414 7.05238 5.03339 6.94152L8.07799 3.87737C8.11419 3.83959 8.15765 3.80953 8.20577 3.78899C8.25389 3.76846 8.30567 3.75787 8.35799 3.75787C8.41031 3.75787 8.46209 3.76846 8.51021 3.78899C8.55833 3.80953 8.60179 3.83959 8.63799 3.87737C8.71166 3.95269 8.75291 4.05386 8.75291 4.15922C8.75291 4.26458 8.71166 4.36575 8.63799 4.44107L5.5881 7.50522C5.47811 7.61597 5.40832 7.76033 5.38985 7.91533C5.37137 8.07032 5.40527 8.22704 5.48614 8.36054L7.10961 11.0464C7.19918 11.1996 7.32756 11.3265 7.48181 11.4143C7.63606 11.502 7.81072 11.5475 7.98818 11.5462C8.03227 11.5471 8.07638 11.5453 8.12025 11.5409C8.31989 11.516 8.50788 11.4332 8.661 11.3027C8.81412 11.1722 8.92568 10.9997 8.98191 10.8066L11.503 2.31413C11.5566 2.13601 11.5614 1.94675 11.5167 1.76616C11.4721 1.58557 11.3798 1.42029 11.2494 1.28764" fill="#C7C9CE"/>
</svg>
