<svg width="12" height="13" viewBox="0 0 12 13" fill="none" xmlns="http://www.w3.org/2000/svg">
<path d="M10.0468 4.44881L4.34018 1.59548C0.506843 -0.32452 -1.06649 1.24881 0.853509 5.08215L1.43351 6.24215C1.60018 6.58215 1.60018 6.97548 1.43351 7.31548L0.853509 8.46881C-1.06649 12.3021 0.500176 13.8755 4.34018 11.9555L10.0468 9.10215C12.6068 7.82215 12.6068 5.72881 10.0468 4.44881ZM7.89351 7.27548H4.29351C4.02018 7.27548 3.79351 7.04881 3.79351 6.77548C3.79351 6.50215 4.02018 6.27548 4.29351 6.27548H7.89351C8.16684 6.27548 8.39351 6.50215 8.39351 6.77548C8.39351 7.04881 8.16684 7.27548 7.89351 7.27548Z" fill="url(#paint0_linear_3545_1506)"/>
<defs>
<linearGradient id="paint0_linear_3545_1506" x1="18.2797" y1="-2.46315" x2="-11.8896" y2="13.6825" gradientUnits="userSpaceOnUse">
<stop stop-color="#88EDFE"/>
<stop offset="0.489" stop-color="#625EFE"/>
<stop offset="1" stop-color="#C224FE"/>
</linearGradient>
</defs>
</svg>
