<svg width="21" height="17" viewBox="0 0 21 17" fill="none" xmlns="http://www.w3.org/2000/svg">
<path d="M2.26579 6.93849H19.1838C19.3787 6.93339 19.5726 6.96737 19.7541 7.03842C19.9357 7.10947 20.1011 7.21616 20.2408 7.35219C20.3804 7.48822 20.4914 7.65084 20.5672 7.83046C20.643 8.01007 20.682 8.20305 20.682 8.39799C20.682 8.59294 20.643 8.7859 20.5672 8.96552C20.4914 9.14513 20.3804 9.30775 20.2408 9.44378C20.1011 9.57981 19.9357 9.6865 19.7541 9.75756C19.5726 9.82861 19.3787 9.86259 19.1838 9.85749H2.26579C2.07091 9.86259 1.87698 9.82861 1.69544 9.75756C1.51391 9.6865 1.34844 9.57981 1.2088 9.44378C1.06916 9.30775 0.958178 9.14513 0.882399 8.96552C0.806619 8.7859 0.767578 8.59294 0.767578 8.39799C0.767578 8.20305 0.806619 8.01007 0.882399 7.83046C0.958178 7.65084 1.06916 7.48822 1.2088 7.35219C1.34844 7.21616 1.51391 7.10947 1.69544 7.03842C1.87698 6.96737 2.07091 6.93339 2.26579 6.93849Z" fill="#CFD3DB"/>
<path d="M2.16046 13.7495H11.4105C11.7843 13.7691 12.1364 13.9314 12.3941 14.203C12.6519 14.4745 12.7955 14.8346 12.7955 15.209C12.7955 15.5834 12.6519 15.9435 12.3941 16.2151C12.1364 16.4866 11.7843 16.6489 11.4105 16.6685H2.16046C1.78659 16.6489 1.43449 16.4866 1.17677 16.2151C0.919062 15.9435 0.775391 15.5834 0.775391 15.209C0.775391 14.8346 0.919062 14.4745 1.17677 14.203C1.43449 13.9314 1.78659 13.7691 2.16046 13.7495Z" fill="#CFD3DB"/>
<path d="M9.34196 0.038586H19.292C19.4868 0.0334844 19.6808 0.0674628 19.8623 0.138516C20.0438 0.209569 20.2093 0.316258 20.3489 0.45229C20.4886 0.588322 20.5996 0.750947 20.6753 0.930561C20.7511 1.11018 20.7902 1.30314 20.7902 1.49809C20.7902 1.69303 20.7511 1.886 20.6753 2.06562C20.5996 2.24523 20.4886 2.40786 20.3489 2.54389C20.2093 2.67992 20.0438 2.78661 19.8623 2.85766C19.6808 2.92872 19.4868 2.96269 19.292 2.95759H9.34196C9.14708 2.96269 8.95315 2.92872 8.77162 2.85766C8.59008 2.78661 8.42461 2.67992 8.28497 2.54389C8.14533 2.40786 8.03435 2.24523 7.95857 2.06562C7.88279 1.886 7.84375 1.69303 7.84375 1.49809C7.84375 1.30314 7.88279 1.11018 7.95857 0.930561C8.03435 0.750947 8.14533 0.588322 8.28497 0.45229C8.42461 0.316258 8.59008 0.209569 8.77162 0.138516C8.95315 0.0674628 9.14708 0.0334844 9.34196 0.038586Z" fill="#CFD3DB"/>
</svg>
