<svg width="166" height="166" viewBox="0 0 166 166" fill="none" xmlns="http://www.w3.org/2000/svg">
<path d="M32.3434 89.6894C4.45537 105.781 4.47197 131.877 32.3434 147.969C60.2148 164.061 105.413 164.061 133.288 147.969C161.163 131.877 161.176 105.781 133.288 89.6894C105.4 73.5974 60.2181 73.5941 32.3434 89.6894Z" fill="#FAFAFA"/>
<path d="M59.5542 145.017C77.4298 145.017 91.9209 137.399 91.9209 128.002C91.9209 118.605 77.4298 110.987 59.5542 110.987C41.6786 110.987 27.1875 118.605 27.1875 128.002C27.1875 137.399 41.6786 145.017 59.5542 145.017Z" fill="#E0E0E0"/>
<path d="M118.89 93.3619C119.57 94.1787 120.849 94.4775 122.233 94.1753C121.078 95.8918 117.568 96.4396 115.593 95.1016C114.112 95.6129 112.555 95.8722 110.988 95.8685C104.564 95.8685 99.3516 91.6621 99.3516 86.4763C99.3516 81.2904 104.564 77.084 110.988 77.084C117.412 77.084 122.608 81.2871 122.608 86.4763C122.618 89.1987 121.177 91.6488 118.89 93.3619Z" fill="#E0E0E0"/>
<path d="M101.132 37.9542C101.687 38.6182 102.729 38.8606 103.862 38.6182C102.915 40.0159 100.057 40.4641 98.44 39.3719C97.2333 39.789 95.9651 40 94.6884 39.996C89.4494 39.996 85.2031 36.5698 85.2031 32.36C85.2031 28.1503 89.4494 24.7041 94.6884 24.7041C99.9273 24.7041 104.174 28.1303 104.174 32.36C104.174 34.5579 103.002 36.5532 101.132 37.9542Z" fill="#E0E0E0"/>
<path d="M151.573 106.499C149.09 102.874 141.51 101.742 137.347 104.673C132.961 102.219 128.011 100.949 122.984 100.988C109.372 100.988 98.3633 109.763 98.3633 120.576C98.3633 131.389 109.386 140.164 122.984 140.164C136.583 140.164 147.602 131.386 147.602 120.576C147.602 116.625 146.128 112.94 143.618 109.869C144.418 106.941 147.811 105.693 151.573 106.499Z" fill="#BA68C8"/>
<path opacity="0.6" d="M151.573 106.499C149.09 102.874 141.51 101.742 137.347 104.673C132.961 102.219 128.011 100.949 122.984 100.988C109.372 100.988 98.3633 109.763 98.3633 120.576C98.3633 131.389 109.386 140.164 122.984 140.164C136.583 140.164 147.602 131.386 147.602 120.576C147.602 116.625 146.128 112.94 143.618 109.869C144.418 106.941 147.811 105.693 151.573 106.499Z" fill="white"/>
<path d="M121.927 118.999H116.213V128.378H121.927V118.999ZM130.121 114.842H124.404V128.378H130.121V114.842ZM113.737 110.918H108.02V128.378H113.737V110.918ZM132.597 122.176V128.394H138.315V122.176H132.597ZM108.029 129.981H138.325V129.407H108.02L108.029 129.981Z" fill="white"/>
<path d="M153.937 72.4521C154.867 71.3366 156.616 70.9282 158.515 71.3399C156.932 68.9927 152.128 68.239 149.412 70.0717C147.383 69.371 145.251 69.0164 143.104 69.0225C134.303 69.0225 127.168 74.7827 127.168 81.8842C127.168 88.9857 134.303 94.7459 143.104 94.7459C151.905 94.7459 159.04 88.989 159.04 81.8842C159.043 78.1592 157.075 74.8027 153.937 72.4521Z" fill="#BA68C8"/>
<path d="M137.446 77.3559L138.73 85.0617C138.501 85.0233 138.266 85.0233 138.037 85.0617C137.638 85.129 137.268 85.3131 136.974 85.5906C136.68 85.8682 136.474 86.2268 136.384 86.621C136.293 87.0152 136.322 87.4274 136.466 87.8054C136.61 88.1835 136.862 88.5104 137.192 88.7448C137.521 88.9792 137.913 89.1107 138.317 89.1225C138.722 89.1343 139.12 89.026 139.463 88.8112C139.806 88.5964 140.077 88.2849 140.243 87.9159C140.409 87.5469 140.461 87.1371 140.394 86.7383L139.245 79.8327L145.885 76.8446L147.04 83.6639C146.811 83.624 146.576 83.624 146.347 83.6639C145.947 83.7319 145.577 83.917 145.283 84.1956C144.989 84.4742 144.785 84.8338 144.695 85.2289C144.606 85.6239 144.636 86.0366 144.781 86.4146C144.927 86.7926 145.181 87.1189 145.512 87.3521C145.844 87.5854 146.236 87.715 146.641 87.7246C147.046 87.7342 147.445 87.6233 147.787 87.4061C148.129 87.1888 148.398 86.875 148.562 86.5043C148.725 86.1336 148.774 85.7228 148.704 85.3239L146.778 73.8965L137.446 77.3559Z" fill="white"/>
<path d="M149.151 53.7545C153.248 50.6868 155.814 46.311 155.814 41.4472C155.814 32.1811 146.518 24.668 135.024 24.668C123.53 24.668 114.234 32.1811 114.234 41.4472C114.234 50.7134 123.53 58.2265 135.024 58.2265C137.824 58.2343 140.605 57.7719 143.251 56.8587C146.794 59.2524 153.058 58.2697 155.127 55.1987C152.65 55.7432 150.366 55.2086 149.151 53.7545Z" fill="#BA68C8"/>
<path opacity="0.6" d="M149.151 53.7545C153.248 50.6868 155.814 46.311 155.814 41.4472C155.814 32.1811 146.518 24.668 135.024 24.668C123.53 24.668 114.234 32.1811 114.234 41.4472C114.234 50.7134 123.53 58.2265 135.024 58.2265C137.824 58.2343 140.605 57.7719 143.251 56.8587C146.794 59.2524 153.058 58.2697 155.127 55.1987C152.65 55.7432 150.366 55.2086 149.151 53.7545Z" fill="white"/>
<path d="M129.555 46.696V36.1882C129.555 36.0484 129.589 35.9107 129.656 35.7876C129.722 35.6645 129.818 35.56 129.935 35.4835C130.052 35.407 130.187 35.3609 130.326 35.3495C130.465 35.3381 130.605 35.3616 130.733 35.418L142.609 40.6702C142.758 40.7353 142.885 40.8425 142.975 40.9787C143.064 41.115 143.111 41.2743 143.111 41.4371C143.111 41.6 143.064 41.7593 142.975 41.8955C142.885 42.0317 142.758 42.139 142.609 42.204L130.733 47.4762C130.605 47.5329 130.464 47.5564 130.323 47.5445C130.183 47.5326 130.048 47.4856 129.931 47.408C129.814 47.3303 129.718 47.2244 129.652 47.1C129.586 46.9756 129.553 46.8367 129.555 46.696Z" fill="white"/>
<path d="M119.432 68.7407C122.838 66.1909 124.973 62.5522 124.973 58.5085C124.973 50.8027 117.231 44.5645 107.686 44.5645C98.1407 44.5645 90.3984 50.8127 90.3984 58.5085C90.3984 66.2042 98.1374 72.4524 107.686 72.4524C110.013 72.458 112.325 72.0731 114.525 71.3137C117.473 73.3057 122.682 72.4856 124.402 69.9359C122.34 70.3841 120.444 69.9525 119.432 68.7407Z" fill="#BA68C8"/>
<path opacity="0.3" d="M119.432 68.7407C122.838 66.1909 124.973 62.5522 124.973 58.5085C124.973 50.8027 117.231 44.5645 107.686 44.5645C98.1407 44.5645 90.3984 50.8127 90.3984 58.5085C90.3984 66.2042 98.1374 72.4524 107.686 72.4524C110.013 72.458 112.325 72.0731 114.525 71.3137C117.473 73.3057 122.682 72.4856 124.402 69.9359C122.34 70.3841 120.444 69.9525 119.432 68.7407Z" fill="white"/>
<path d="M116.722 51.4864H98.645C98.4349 51.4873 98.2335 51.5711 98.0849 51.7198C97.9363 51.8684 97.8524 52.0697 97.8516 52.2799V64.7398C97.8516 64.9506 97.9351 65.1527 98.0838 65.3021C98.2325 65.4514 98.4343 65.5357 98.645 65.5366H116.722C116.828 65.5375 116.932 65.5176 117.03 65.478C117.128 65.4383 117.216 65.3798 117.291 65.3058C117.366 65.2318 117.426 65.1437 117.467 65.0465C117.508 64.9494 117.529 64.8452 117.529 64.7398V52.2799C117.529 52.1747 117.508 52.0706 117.467 51.9737C117.426 51.8767 117.366 51.7888 117.291 51.7151C117.216 51.6413 117.127 51.5831 117.03 51.5438C116.932 51.5046 116.828 51.4851 116.722 51.4864ZM116.922 64.5473C116.922 64.6723 116.872 64.7922 116.784 64.8806C116.695 64.969 116.575 65.0187 116.45 65.0187H98.9372C98.8122 65.0187 98.6923 64.969 98.6038 64.8806C98.5154 64.7922 98.4658 64.6723 98.4658 64.5473V52.4558C98.4658 52.3308 98.5154 52.2109 98.6038 52.1225C98.6923 52.0341 98.8122 51.9844 98.9372 51.9844H116.467C116.592 51.9844 116.712 52.0341 116.8 52.1225C116.889 52.2109 116.938 52.3308 116.938 52.4558L116.922 64.5473Z" fill="white"/>
<path d="M115.574 52.9212H99.7941C99.6552 52.9254 99.5232 52.9829 99.4256 53.0818C99.3279 53.1807 99.272 53.3134 99.2695 53.4524V60.7829L103.602 56.7989L108.788 61.2178L107.4 59.01L110.999 55.617L116.135 60.6435V53.4524C116.133 53.3806 116.118 53.3098 116.088 53.2442C116.059 53.1786 116.017 53.1194 115.965 53.07C115.913 53.0206 115.852 52.982 115.784 52.9565C115.717 52.931 115.646 52.9189 115.574 52.9212ZM106.676 56.6429C106.479 56.6429 106.287 56.5845 106.123 56.475C105.959 56.3656 105.832 56.21 105.756 56.028C105.681 55.846 105.661 55.6458 105.7 55.4526C105.738 55.2594 105.833 55.0819 105.972 54.9426C106.111 54.8033 106.289 54.7084 106.482 54.67C106.675 54.6316 106.876 54.6513 107.058 54.7267C107.24 54.8021 107.395 54.9297 107.505 55.0935C107.614 55.2573 107.672 55.4499 107.672 55.6469C107.672 55.911 107.568 56.1644 107.381 56.3512C107.194 56.5379 106.941 56.6429 106.676 56.6429Z" fill="white"/>
<path d="M17.2177 135.473C16.6601 135.434 16.1027 135.553 15.6103 135.817C15.1178 136.082 14.7104 136.481 14.4355 136.967C13.6321 138.279 13.4661 139.922 13.5856 140.061C13.7051 140.201 15.2987 139.806 16.4209 138.401C16.7675 138.006 17.0194 137.537 17.1575 137.029C17.2956 136.522 17.3161 135.99 17.2177 135.473Z" fill="#BA68C8"/>
<path d="M20.8349 134.231C20.3213 134.451 19.8804 134.812 19.5631 135.272C19.2459 135.732 19.0653 136.273 19.0421 136.831C18.9259 138.365 19.5269 139.902 19.7061 139.972C19.8854 140.041 21.1105 138.976 21.4691 137.193C21.5949 136.684 21.6031 136.152 21.4933 135.639C21.3834 135.126 21.1583 134.645 20.8349 134.231Z" fill="#BA68C8"/>
<path d="M20.9735 131.297C20.6691 130.827 20.2383 130.454 19.7308 130.219C19.2233 129.984 18.6597 129.897 18.105 129.969C16.5712 130.121 15.2399 130.828 15.2001 131.008C15.1602 131.187 16.5579 132.356 18.1714 132.508C19.9211 132.684 20.6448 131.595 20.9735 131.297Z" fill="#BA68C8"/>
<path d="M33.5838 127.744C32.206 127.608 30.795 127.916 29.4637 128.255C28.2132 128.577 26.9916 129.002 25.8117 129.527C23.3517 130.614 21.0474 132.025 18.9592 133.72C17.6445 134.792 16.27 135.994 15.367 137.448C15.347 137.481 15.4134 137.544 15.44 137.518C16.4968 136.36 17.6644 135.308 18.926 134.377C20.0174 133.494 21.1726 132.693 22.3821 131.98C24.4478 130.779 26.6534 129.837 28.9491 129.175C30.4696 128.723 32.0267 128.534 33.5971 128.262C33.6658 128.26 33.7309 128.231 33.7782 128.181C33.8256 128.131 33.8512 128.065 33.8494 127.996C33.8476 127.927 33.8187 127.862 33.7688 127.815C33.719 127.768 33.6525 127.742 33.5838 127.744Z" fill="#37474F"/>
<path d="M22.2158 131.419C21.5527 131.196 20.8667 131.047 20.1707 130.977C19.507 130.88 18.831 130.911 18.1787 131.067C18.089 131.093 18.2218 131.146 18.2783 131.146C18.8751 131.165 19.4704 131.218 20.0611 131.306C20.6883 131.403 21.2986 131.589 21.8738 131.857C21.9529 131.891 22.0404 131.9 22.1246 131.883C22.2089 131.865 22.2859 131.823 22.3453 131.761C22.3649 131.731 22.3771 131.697 22.3811 131.661C22.385 131.626 22.3804 131.59 22.3678 131.557C22.3552 131.523 22.3348 131.493 22.3084 131.469C22.282 131.445 22.2502 131.428 22.2158 131.419Z" fill="#37474F"/>
<path d="M22.0323 131.602C21.3683 132.329 21.0363 133.08 20.6114 134.142C20.4504 134.558 20.3206 134.985 20.2229 135.42C20.1026 135.935 20.059 136.466 20.0935 136.994C20.0935 137.014 20.1599 137.13 20.1665 137.09C20.2484 136.58 20.3592 136.074 20.4985 135.576C20.6166 135.12 20.7755 134.676 20.9733 134.248C21.3424 133.385 21.8067 132.565 22.3577 131.805C22.4739 131.652 22.1452 131.473 22.0323 131.602Z" fill="#37474F"/>
<path d="M25.7622 131.356C25.2139 131.464 24.7072 131.724 24.3006 132.107C23.894 132.49 23.6042 132.98 23.4647 133.521C23.0331 134.998 23.2987 136.629 23.4647 136.732C23.6307 136.834 25.0517 136.038 25.7688 134.384C25.9962 133.912 26.1136 133.394 26.1125 132.87C26.1113 132.345 25.9916 131.828 25.7622 131.356Z" fill="#BA68C8"/>
<path d="M27.4798 129.032C26.6863 129.606 26.1983 130.267 25.5642 131.223C25.3131 131.594 25.0911 131.984 24.9002 132.389C24.6739 132.868 24.5206 133.378 24.4453 133.902C24.4453 133.922 24.4818 134.049 24.4951 134.012C24.6792 133.53 24.8909 133.059 25.1292 132.601C25.3493 132.179 25.6059 131.777 25.8962 131.399C26.4399 130.634 27.068 129.932 27.7686 129.308C27.9047 129.175 27.6192 128.936 27.4798 129.032Z" fill="#37474F"/>
<path d="M10.2574 124.228C9.66804 124.395 9.04331 124.392 8.45568 124.218C7.86805 124.045 7.34161 123.709 6.93741 123.248C5.77873 122.02 5.23093 120.294 5.32721 120.118C5.42349 119.942 7.22625 120.008 8.75013 121.27C9.20894 121.616 9.58301 122.063 9.84411 122.575C10.1052 123.088 10.2465 123.653 10.2574 124.228Z" fill="#BA68C8"/>
<path d="M14.4211 124.749C13.8199 124.629 13.265 124.341 12.8208 123.919C12.3766 123.496 12.0612 122.957 11.9112 122.362C11.443 120.739 11.7418 118.953 11.9112 118.84C12.0805 118.727 13.6475 119.607 14.4277 121.426C14.679 121.944 14.8091 122.513 14.8079 123.088C14.8068 123.664 14.6745 124.232 14.4211 124.749Z" fill="#BA68C8"/>
<path d="M15.2319 127.87C15.0093 128.442 14.6297 128.939 14.1368 129.303C13.6439 129.668 13.0579 129.886 12.4464 129.932C10.7665 130.111 9.17287 129.653 9.08987 129.471C9.00687 129.288 10.2485 127.718 11.9451 127.19C13.7976 126.615 14.8102 127.625 15.2319 127.87Z" fill="#BA68C8"/>
<path d="M29.5735 128.853C28.1227 129.308 26.539 129.294 25.0351 129.228C23.6201 129.164 22.213 128.982 20.8286 128.683C17.9423 128.069 15.1509 127.072 12.5286 125.719C10.8686 124.859 9.13559 123.879 7.82751 122.521C7.80095 122.492 7.85407 122.409 7.88727 122.432C9.28611 123.438 10.7807 124.305 12.3493 125.018C13.7207 125.724 15.1422 126.327 16.6023 126.824C19.0914 127.65 21.6727 128.166 24.2881 128.361C26.0211 128.504 27.7375 128.361 29.4739 128.298C29.5415 128.297 29.6072 128.32 29.6594 128.364C29.7115 128.407 29.7467 128.467 29.7587 128.533C29.7706 128.6 29.7586 128.668 29.7247 128.727C29.6908 128.785 29.6372 128.83 29.5735 128.853Z" fill="#37474F"/>
<path d="M16.5408 127.459C15.8795 127.848 15.1769 128.162 14.4458 128.395C13.7526 128.64 13.0194 128.753 12.2845 128.727C12.1816 128.727 12.3111 128.634 12.3742 128.617C13.0099 128.464 13.6362 128.275 14.25 128.05C14.9014 127.805 15.515 127.47 16.0726 127.054C16.1509 127 16.2435 126.972 16.3382 126.972C16.433 126.972 16.5255 127 16.6038 127.054C16.6339 127.081 16.6567 127.115 16.6702 127.154C16.6837 127.192 16.6874 127.233 16.6812 127.273C16.675 127.313 16.6589 127.351 16.6343 127.384C16.6098 127.416 16.5777 127.442 16.5408 127.459Z" fill="#37474F"/>
<path d="M16.2979 127.306C15.4281 126.672 14.8969 125.945 14.203 124.896C13.9355 124.486 13.7002 124.057 13.4992 123.611C13.2515 123.086 13.0858 122.526 13.0078 121.951C13.0078 121.928 13.0477 121.788 13.0609 121.831C13.2636 122.36 13.4941 122.878 13.7515 123.382C13.9818 123.847 14.2517 124.291 14.5583 124.71C15.1523 125.549 15.8383 126.32 16.6034 127.007C16.7627 127.157 16.4507 127.416 16.2979 127.306Z" fill="#37474F"/>
<path d="M20.3647 126.732C19.7512 126.74 19.1479 126.574 18.6249 126.253C18.1019 125.932 17.6806 125.47 17.4099 124.919C16.6131 123.432 16.5335 121.622 16.6729 121.476C16.8123 121.33 18.5321 121.865 19.6609 123.468C20.0184 123.923 20.2676 124.453 20.3895 125.019C20.5115 125.584 20.503 126.17 20.3647 126.732Z" fill="#BA68C8"/>
<path d="M22.7299 128.839C21.7339 128.401 21.0699 127.8 20.1768 126.92C19.8315 126.58 19.5119 126.215 19.2206 125.828C18.8693 125.364 18.5895 124.851 18.3906 124.304C18.3906 124.281 18.3906 124.138 18.4205 124.178C18.7262 124.653 19.0588 125.111 19.4165 125.549C19.7368 125.954 20.0923 126.329 20.4789 126.671C21.2379 127.366 22.072 127.974 22.9656 128.484C23.1515 128.59 22.9091 128.916 22.7299 128.839Z" fill="#37474F"/>
<path d="M16.549 46.2177C17.0901 46.9713 17.6379 47.7249 18.189 48.4719C19.3079 49.9925 20.4134 51.523 21.5688 53.017C21.6562 53.117 21.7716 53.1884 21.9 53.2222C22.0284 53.2559 22.164 53.2504 22.2892 53.2063C22.3717 53.1886 22.4498 53.1546 22.5188 53.1061C22.5879 53.0576 22.6464 52.9957 22.691 52.9241C22.7475 52.8439 22.7779 52.7482 22.7779 52.6502C22.7779 52.5521 22.7475 52.4564 22.691 52.3763C21.5489 50.9354 20.3902 49.5045 19.278 48.037C18.6738 47.2358 18.0728 46.4323 17.4752 45.6267C17.0104 44.9926 16.5191 44.0696 15.8152 43.6745C15.6194 43.5617 15.035 43.5185 15.1147 43.9069C15.3006 44.7403 16.0576 45.5371 16.549 46.2177ZM14.6532 54.6637C16.4427 55.2746 18.2189 55.9021 20.0217 56.4698C20.1506 56.5022 20.2863 56.4952 20.4112 56.4496C20.5361 56.404 20.6444 56.322 20.7222 56.2142C20.7794 56.1522 20.8238 56.0795 20.8529 56.0003C20.8819 55.9211 20.8951 55.837 20.8915 55.7527C20.8936 55.6551 20.8658 55.5592 20.8118 55.4779C20.7578 55.3966 20.6802 55.3338 20.5894 55.2979C18.8298 54.7633 17.0602 54.2487 15.3106 53.6777C14.3578 53.3656 13.4049 53.0502 12.4554 52.7249C11.7084 52.4725 10.7954 51.9911 9.98532 52.0609C9.75956 52.0808 9.25492 52.3763 9.54044 52.6518C10.1513 53.2395 11.2303 53.4619 12.0172 53.7408C12.897 54.0595 13.7734 54.3649 14.6532 54.6637ZM20.0682 59.7135C20.0869 59.6312 20.0893 59.546 20.075 59.4628C20.0608 59.3796 20.0302 59.3001 19.9852 59.2287C19.9401 59.1422 19.8692 59.0717 19.7824 59.0271C19.6956 58.9825 19.5971 58.966 19.5004 58.9797C17.7043 59.3848 15.9115 59.8097 14.1088 60.1783C13.126 60.3775 12.1411 60.57 11.154 60.7559C10.3804 60.9053 9.33792 60.9452 8.68056 61.4033C8.49464 61.5328 8.20248 62.0375 8.5876 62.1371C9.40764 62.3462 10.4568 62.0076 11.2801 61.8615C12.1964 61.6988 13.1094 61.5295 14.0258 61.3602C15.8783 61.0083 17.7342 60.6763 19.5834 60.2779C19.7113 60.2429 19.8259 60.1705 19.9123 60.0699C19.9987 59.9693 20.0529 59.8452 20.0682 59.7135Z" fill="#E0E0E0"/>
<path d="M43.002 30.1121L43.0718 30.298C43.7032 31.9891 44.1333 33.7486 44.3533 35.5403C44.58 37.3636 44.6411 39.2038 44.5359 41.0382C44.4894 41.9213 44.4064 42.7978 44.2968 43.6743C44.246 43.9437 44.2183 44.2169 44.2138 44.491C44.2346 44.6873 44.2758 44.8809 44.3367 45.0687C44.4029 45.364 44.4363 45.6657 44.4363 45.9684C44.4927 47.4398 44.4595 48.9133 44.3367 50.3807C44.0642 53.3279 43.5794 56.2515 42.8858 59.1289C42.5538 60.6162 42.172 62.097 41.7936 63.5777C41.3852 65.1679 40.9735 66.7582 40.6714 68.3717C40.0074 71.9706 39.8978 75.6525 39.267 79.258C38.6362 82.8635 37.3946 86.5023 34.8514 89.1317C34.619 89.3707 33.8554 90.1011 33.4969 89.7957C33.1881 89.5367 33.4338 88.7997 33.4205 88.4677C33.304 85.6913 32.4689 82.9927 30.9969 80.6358C30.7362 80.3043 30.5135 79.9446 30.3329 79.5635C30.2831 79.4207 30.2599 79.2713 30.2001 79.1319C30.0408 78.7567 29.4996 78.3351 29.4996 77.9367C28.5036 76.3331 27.4644 74.7395 26.8801 72.9567C25.8144 69.6964 26.3954 66.1274 27.335 62.8307C26.3483 63.8338 25.5959 65.0429 25.1315 66.3711C24.6672 67.6993 24.5024 69.1138 24.6491 70.5131C22.9015 66.4901 22.7543 61.952 24.2374 57.8241C24.9014 56.0446 25.8244 54.3746 26.3755 52.5619C27.4346 49.0792 26.983 45.3442 26.8668 41.7022C26.8048 39.9131 26.9026 38.1221 27.159 36.3504C27.6688 32.9785 29.4099 29.915 32.046 27.7516C33.3396 26.6431 34.911 25.9085 36.5911 25.6268C38.3076 25.391 40.3958 25.079 41.7471 26.1447C42.0558 26.387 41.7471 27.5026 41.9529 27.8478C42.3495 28.58 42.6998 29.3362 43.002 30.1121Z" fill="#263238"/>
<path d="M89.7723 83.9191C87.0964 77.0799 82.8767 71.6019 80.2439 68.2753C76.2931 64.0921 71.5787 64.8756 65.2773 65.0648L68.4878 84.4071C68.4878 87.4383 72.9731 89.8984 78.5075 89.8984C84.1881 89.8486 90.0578 87.2856 89.7723 83.9191Z" fill="#455A64"/>
<path d="M82.11 107.169C82.3756 101.446 82.6147 96.2133 82.6147 96.2133C82.6147 96.2133 87.1531 93.3747 86.3164 86.2333C85.8018 81.8344 82.6877 77.1 77.784 72.8969C74.2582 69.8757 65.2809 65.0684 65.2809 65.0684L61.4729 65.2078L42.8178 68.5278L37.0609 70.2608C35.2814 71.1705 31.6327 78.3948 33.0504 90.639C33.4953 94.4968 38.2263 101.233 39.2156 106.691C38.7375 115.655 35.4673 115.742 32.7516 124.659C32.7516 127.943 37.3531 132.132 42.2634 134.287C51.7088 138.401 66.7119 138.497 76.6918 134.679C82.3623 132.511 87.2295 128.809 87.2129 125.522C87.2129 125.519 83.6107 111.754 82.11 107.169Z" fill="#BA68C8"/>
<path d="M45.0781 57.7877C42.9268 55.8289 34.8459 52.0839 32.9469 43.1099C31.7583 37.4859 33.4017 32.9341 35.7888 28.8837C40.3073 21.2013 55.6291 16.5997 65.1143 23.8506C74.5365 23.8108 77.9528 38.193 69.0751 41.5031C61.9371 49.0229 45.0781 57.7877 45.0781 57.7877Z" fill="#455A64"/>
<path d="M68.7897 32.8679C68.6071 32.3865 67.2526 31.8387 66.7977 31.6262C66.0168 31.2501 65.1976 30.9596 64.3542 30.7597C62.6095 30.3545 60.8041 30.2813 59.0322 30.5439C55.8019 31.0153 52.1233 32.8181 51.3962 36.3306C51.0642 37.9906 51.373 39.9229 50.2741 41.2143C49.8192 41.7489 49.1519 42.1207 48.8631 42.7581C48.4713 43.6346 48.9295 44.7169 48.5311 45.5967C48.3319 46.0449 47.731 46.5928 47.2031 46.5131C46.7416 46.4533 46.4959 45.9354 46.2602 45.5801C45.6626 44.6837 45.1082 43.6711 44.2018 43.0071C42.5119 41.7754 40.3241 42.5656 39.0027 43.8471C37.1037 45.6864 37.263 50.1551 39.7597 52.4094C42.8738 55.2148 45.895 53.1431 45.9415 52.5356C45.9415 52.5356 46.061 55.5235 45.0783 57.7977C45.0783 57.7977 45.0783 63.6443 45.0783 64.6834C45.0982 66.3036 44.9455 67.6216 42.8207 68.5512C47.8007 72.8008 62.5016 79.2217 65.4664 77.2031C67.9697 75.4967 65.0547 68.1495 61.4824 65.2146C61.1106 65.1084 59.8689 65.0387 59.8224 63.6177C59.7892 62.1237 59.8224 62.6682 59.8224 62.6682C63.0627 62.8209 64.4306 62.6018 66.2433 61.5626C68.9524 60.0155 71.303 56.9976 71.303 47.2169C71.303 43.628 69.9318 42.5689 70.1509 40.9554C70.7817 36.4003 69.4172 34.4913 68.7897 32.8679Z" fill="#FFBDA7"/>
<path d="M50.2889 60.5463C48.7253 59.6624 47.4441 58.3536 46.5938 56.7715C46.7403 57.7393 47.0805 58.6676 47.5939 59.501C48.1073 60.3344 48.7833 61.0557 49.5818 61.622C53.2338 64.1518 58.7881 64.3876 60.0431 64.4075C59.9099 64.1608 59.8414 63.8844 59.8439 63.604C59.8439 63.0529 59.8273 62.7807 59.8273 62.6545C56.5305 62.442 52.7922 61.8677 50.2889 60.5463Z" fill="#F0997A"/>
<path d="M64.3281 37.8016L67.6216 36.208C67.736 36.4172 67.8065 36.6475 67.8289 36.8849C67.8513 37.1222 67.825 37.3616 67.7516 37.5885C67.6783 37.8154 67.5594 38.0249 67.4024 38.2042C67.2453 38.3836 67.0533 38.529 66.838 38.6316C66.3929 38.8405 65.8846 38.8709 65.4178 38.7166C64.9509 38.5622 64.5609 38.2347 64.3281 37.8016Z" fill="#263238"/>
<path d="M63.49 36.5659C63.4399 36.546 63.3847 36.5434 63.333 36.5585C63.2813 36.5735 63.2361 36.6053 63.2045 36.6489C63.0555 36.9631 62.9861 37.3091 63.0023 37.6565C63.0185 38.0039 63.1199 38.3419 63.2974 38.6409C63.3647 38.7478 63.4475 38.844 63.5431 38.9264C63.6509 39.0329 63.7868 39.1066 63.9349 39.1389C63.9542 39.1422 63.974 39.1392 63.9914 39.1302C64.0088 39.1212 64.0227 39.1068 64.0311 39.0891C64.0876 38.953 63.9548 38.7969 63.8917 38.6774C63.8286 38.5579 63.7888 38.4981 63.7423 38.4085C63.6564 38.2396 63.5938 38.0598 63.5564 37.874C63.4922 37.5083 63.5277 37.1321 63.6593 36.785C63.6925 36.6887 63.5763 36.5925 63.49 36.5659Z" fill="#F0997A"/>
<path d="M57.9907 36.5829C57.9053 36.4893 57.8055 36.4097 57.6952 36.3472C57.5709 36.2619 57.4244 36.2146 57.2736 36.2111C57.2536 36.2099 57.2339 36.2159 57.218 36.2282C57.2022 36.2404 57.1912 36.2579 57.1873 36.2775C57.1574 36.4202 57.3168 36.5497 57.3998 36.656C57.4828 36.7622 57.5326 36.812 57.5956 36.895C57.7112 37.0437 57.8051 37.208 57.8745 37.383C58.0034 37.7308 58.0377 38.1066 57.9741 38.472C57.9575 38.5816 58.0903 38.6546 58.1766 38.6646C58.2298 38.6752 58.2851 38.668 58.3337 38.644C58.3824 38.6199 58.4217 38.5805 58.4456 38.5318C58.5359 38.1946 58.5417 37.8403 58.4624 37.5003C58.383 37.1604 58.221 36.8453 57.9907 36.5829Z" fill="#F0997A"/>
<path d="M53.8707 40.2082L57.0048 38.2362C56.8863 38.0257 56.7263 37.8415 56.5344 37.6948C56.3425 37.5481 56.1228 37.4421 55.8886 37.383C55.6544 37.324 55.4106 37.3133 55.1722 37.3515C54.9337 37.3897 54.7055 37.4761 54.5015 37.6054C54.0836 37.8764 53.7854 38.2972 53.6681 38.7813C53.5508 39.2653 53.6233 39.7759 53.8707 40.2082Z" fill="#263238"/>
<path d="M67.8324 48.2063L62.6133 50.9088L60.8438 40.5371L67.8324 48.2063Z" fill="#F0997A"/>
<path d="M61.3219 53.5283C61.3705 53.4481 61.4373 53.3805 61.5169 53.3309C61.5965 53.2813 61.6866 53.2511 61.78 53.2428C61.136 52.9473 59.8146 53.2428 59.6087 54.1824C59.5453 54.3915 59.542 54.6142 59.5991 54.8252C59.6562 55.0361 59.7715 55.2267 59.9318 55.3753C60.0921 55.5238 60.2909 55.6243 60.5056 55.6652C60.7202 55.7062 60.9421 55.6859 61.1458 55.6068C61.3495 55.5277 61.5268 55.3929 61.6576 55.2178C61.7884 55.0427 61.8673 54.8344 61.8853 54.6166C61.9033 54.3988 61.8597 54.1804 61.7595 53.9862C61.6593 53.792 61.5065 53.6299 61.3186 53.5184L61.3219 53.5283Z" fill="#B16668"/>
<path d="M58.0595 44.4484C58.0711 44.7422 57.9953 45.0329 57.8417 45.2837C57.6881 45.5345 57.4636 45.7341 57.1967 45.8573C56.9297 45.9806 56.6321 46.0219 56.3416 45.9761C56.0512 45.9303 55.7808 45.7994 55.5646 45.6C55.3485 45.4006 55.1964 45.1416 55.1274 44.8557C55.0585 44.5698 55.0758 44.2699 55.1772 43.9939C55.2786 43.7179 55.4596 43.4781 55.6973 43.3049C55.9349 43.1317 56.2186 43.0328 56.5124 43.0208C56.7078 43.0128 56.9028 43.0434 57.0863 43.1108C57.2698 43.1782 57.4383 43.2812 57.582 43.4138C57.7257 43.5464 57.8418 43.706 57.9237 43.8835C58.0057 44.0611 58.0518 44.253 58.0595 44.4484Z" fill="#263238"/>
<path d="M68.6884 42.7286C68.7 43.0225 68.6242 43.3132 68.4706 43.5639C68.317 43.8147 68.0926 44.0143 67.8256 44.1376C67.5586 44.2608 67.261 44.3022 66.9705 44.2564C66.6801 44.2106 66.4097 44.0797 66.1936 43.8803C65.9774 43.6808 65.8253 43.4218 65.7563 43.136C65.6874 42.8501 65.7047 42.5502 65.8061 42.2742C65.9075 41.9981 66.0885 41.7584 66.3262 41.5852C66.5638 41.412 66.8475 41.3131 67.1413 41.3011C67.3367 41.293 67.5317 41.3236 67.7152 41.3911C67.8987 41.4585 68.0672 41.5615 68.2109 41.6941C68.3546 41.8267 68.4707 41.9863 68.5526 42.1638C68.6346 42.3413 68.6807 42.5333 68.6884 42.7286Z" fill="#263238"/>
<path d="M89.4895 71.9307C87.6398 69.788 86.1893 67.3311 85.2067 64.6765C84.2107 61.8445 81.6842 58.4515 80.8044 57.4256C79.9246 56.3997 78.0986 54.9422 76.6743 53.5213C75.25 52.1003 74.835 51.7086 72.9625 51.5691C70.3962 51.3766 68.3743 51.1608 67.4115 51.5691C66.4487 51.9775 66.5383 52.6083 67.4812 53.4051C68.4241 54.2019 70.2534 54.245 70.8344 54.3646C71.4154 54.4841 72.6936 54.9057 72.6936 54.9057L75.3496 58.1361C75.3496 58.1361 71.4453 59.2383 70.7016 59.7363C69.9579 60.2343 69.4832 62.3093 69.928 63.3883C69.928 63.3883 68.5635 64.5105 69.264 65.8916C69.264 65.8916 68.4805 67.1366 69.181 68.0297C69.955 68.9289 70.8294 69.7365 71.7872 70.4367C72.3118 70.8085 74.2341 70.7355 74.2341 70.7355C74.2341 70.7355 74.9379 72.5382 77.5541 73.9326C79.058 74.7361 79.7519 76.0176 81.0368 78.7699L89.4895 71.9307Z" fill="#FFBDA7"/>
<path d="M82.1072 58.7904C81.6822 58.2924 81.234 57.8177 80.8124 57.3263C80.0687 56.4631 78.8204 55.4206 77.9771 54.6271C74.9028 51.7852 75.6133 51.5761 71.2076 51.3071C70.2291 51.2108 69.2448 51.1875 68.2628 51.2374C67.7408 51.2487 67.2375 51.4333 66.8319 51.762C66.3638 52.1869 66.7223 52.8576 67.1008 53.2062C68.037 54.2022 69.541 54.2619 70.7926 54.4545C71.4035 54.5906 72.021 54.7865 72.6253 54.9791L75.1717 58.06C73.6611 58.5381 72.0078 58.9265 70.6266 59.6835C69.7634 60.4737 69.4978 62.2665 69.883 63.3355C69.538 63.6473 69.2795 64.043 69.1326 64.4842C69.0613 64.7108 69.0358 64.9493 69.0575 65.1858C69.0791 65.4223 69.1475 65.6522 69.2588 65.862C68.947 66.3418 68.8283 66.9218 68.9268 67.4855C68.9769 67.6687 69.0626 67.8402 69.1791 67.9901C68.701 67.3627 68.9069 66.4928 69.282 65.8653C68.8438 64.9656 69.2422 63.9796 69.9826 63.3654C69.5742 62.2963 69.9162 59.9026 71.1744 59.5474C72.5987 59.0116 74.0492 58.5484 75.5203 58.1596L75.4174 58.0335L72.7614 54.7965L72.7382 54.7699H72.7083C72.0841 54.5707 71.4699 54.3682 70.8192 54.2221C69.8498 54.0694 68.887 54.0096 68.0072 53.5813C67.3432 53.2493 66.1679 52.1703 67.3432 51.6923C67.9431 51.4843 68.5789 51.3996 69.2123 51.4433C70.3411 51.4433 71.958 51.6159 73.1 51.6856C73.7375 51.7045 74.3621 51.8691 74.926 52.167C75.9984 52.8609 76.8317 53.9333 77.8144 54.7533C78.6511 55.5235 79.9326 56.566 80.6663 57.4093C82.583 59.5442 84.1071 62.0012 85.1682 64.6668C84.5574 62.8242 83.3754 60.2678 82.1072 58.7904Z" fill="#F0997A"/>
<path d="M73.6032 58.644C73.0023 58.2655 72.0561 57.6081 71.1995 58.0298C70.343 58.4514 71.08 59.5304 71.08 59.5304L73.6032 58.644Z" fill="#F0997A"/>
<path d="M73.7045 60.9619C72.7666 61.1329 71.8584 61.4393 71.0087 61.8716C70.5892 62.0945 70.1844 62.344 69.7969 62.6186C69.8104 62.873 69.863 63.1239 69.9529 63.3623L70.016 63.3889C70.5228 62.8191 71.1154 62.3319 71.7723 61.9446C72.3765 61.5695 73.7045 60.9619 73.7045 60.9619Z" fill="#F0997A"/>
<path d="M69.9364 64.7062C69.6419 64.8616 69.359 65.038 69.0898 65.2341C69.1179 65.4664 69.1888 65.6916 69.299 65.8981C69.7505 65.1112 71.623 64.0986 71.623 64.0986C71.0403 64.2389 70.4747 64.4426 69.9364 64.7062Z" fill="#F0997A"/>
<path d="M74.2487 70.7159C73.7309 69.8267 73.1139 68.9991 72.4094 68.2491C71.7753 67.6449 70.6697 67.8474 70.4539 68.2491C70.2381 68.6509 71.523 68.4815 71.9147 68.611C72.3065 68.7405 73.495 69.7365 74.2487 70.7159Z" fill="#F0997A"/>
<path d="M76.5224 57.9171C76.5224 57.9171 75.5264 56.8647 74.0821 55.3541C72.6379 53.8435 72.7309 54.0725 71.4427 53.9397C70.2409 53.8136 67.7243 53.6077 67.0039 52.9072C67.1251 53.0481 67.2584 53.178 67.4023 53.2957C68.3153 54.0692 70.1745 54.1389 70.7555 54.2551C71.3365 54.3713 72.618 54.7963 72.618 54.7963L75.5363 58.1827L76.5224 57.9171Z" fill="#F0997A"/>
<path d="M104.653 90.5293C104.203 89.2077 103.544 87.9669 102.7 86.8541C99.8553 83.4245 91.7777 74.5999 89.4902 71.9141L81.0508 78.7367C81.0508 78.7367 81.1537 79.1085 85.1344 88.3647C86.3528 91.1933 87.4584 94.3407 88.7631 97.1361C89.7293 99.2177 92.0632 101.452 94.5101 103.135C95.9097 103.993 97.4292 104.637 99.0186 105.048C100.109 105.343 101.269 105.242 102.292 104.762C103.474 104.201 104.41 102.471 104.719 101.313C105.392 98.5268 105.57 95.6445 105.247 92.7969C105.14 92.0201 104.94 91.2588 104.653 90.5293Z" fill="#FFBDA7"/>
<path d="M30.1359 141.167C29.1997 140.144 27.9979 139.244 27.6061 137.847C27.4925 137.493 27.4633 137.118 27.521 136.752C27.5787 136.385 27.7215 136.037 27.9381 135.735C28.05 135.627 28.1363 135.496 28.1904 135.35C28.2185 135.224 28.2185 135.094 28.1904 134.968C28.0589 134.446 28.0949 133.895 28.2933 133.395C28.3909 133.191 28.5299 133.01 28.7014 132.863C28.8729 132.716 29.0731 132.607 29.2893 132.541C29.0403 131.767 29.0473 130.934 29.3093 130.164C29.6213 129.261 30.5543 128.541 31.1651 129.55C31.4552 130.054 31.6922 130.587 31.8723 131.14C32.3358 132.507 32.6378 133.923 32.772 135.36C32.9247 136.854 33.28 141.084 30.9659 141.283C30.78 141.3 30.2687 141.31 30.1359 141.167Z" fill="#F0997A"/>
<path d="M37.0624 70.2744C26.9696 73.1595 25.3195 76.6023 20.0109 83.9097C14.7719 91.124 10.7945 96.4028 8.59337 100.453C6.26937 104.723 6.03697 106.429 11.0269 111.894C13.6232 114.733 16.7639 117.538 21.4982 121.778C23.5998 123.653 29.3401 128.64 30.1933 129.483C30.9204 130.207 31.7172 131.967 31.9595 133.006C32.002 133.182 32.0265 133.362 32.0326 133.544C32.0625 134.317 31.85 135.074 31.757 135.841C31.6607 136.866 31.7009 137.898 31.8765 138.912C32.006 139.762 32.2285 140.572 31.2657 141.034C30.9062 141.171 30.5183 141.216 30.1369 141.166C30.7971 141.67 31.5305 142.07 32.3115 142.352C33.1025 142.633 33.9708 142.605 34.7417 142.272C35.6754 141.788 36.6378 141.361 37.6235 140.994C38.0418 140.871 38.4867 140.891 38.9083 140.781C39.3431 140.665 39.7293 140.412 40.0105 140.061C40.4521 139.506 40.6314 138.71 41.2555 138.371C41.5698 138.246 41.8913 138.141 42.2183 138.056C42.5309 137.905 42.8028 137.682 43.0108 137.405C43.2189 137.127 43.357 136.804 43.4135 136.462C43.5197 135.777 43.5029 135.079 43.3637 134.4C43.0882 132.561 42.7728 130.559 42.3179 128.756C41.7237 126.416 41.063 125.204 40.1168 123.886C37.0159 119.55 25.2332 104.773 25.2332 104.773L35.6813 93.3351C38.0584 91.4295 43.1048 77.9901 37.0624 70.2744Z" fill="#FFBDA7"/>
<path d="M25.2316 104.772C22.5192 107.428 18.3127 107.641 16.7656 107.548C22.2303 109.776 26.3007 106.12 26.3007 106.12L25.2316 104.772Z" fill="#F0997A"/>
</svg>
