<svg width="67" height="67" viewBox="0 0 67 67" fill="none" xmlns="http://www.w3.org/2000/svg">
<path d="M33.5007 0.583008C15.3636 0.583008 0.583984 15.3626 0.583984 33.4997C0.583984 51.6368 15.3636 66.4163 33.5007 66.4163C51.6377 66.4163 66.4173 51.6368 66.4173 33.4997C66.4173 15.3626 51.6377 0.583008 33.5007 0.583008ZM49.2348 25.9288L30.5711 44.5926C30.1102 45.0534 29.4848 45.3168 28.8265 45.3168C28.1682 45.3168 27.5427 45.0534 27.0819 44.5926L17.7665 35.2772C16.8119 34.3226 16.8119 32.7426 17.7665 31.788C18.7211 30.8334 20.3011 30.8334 21.2557 31.788L28.8265 39.3588L45.7457 22.4397C46.7002 21.4851 48.2802 21.4851 49.2348 22.4397C50.1894 23.3943 50.1894 24.9413 49.2348 25.9288Z" fill="url(#paint0_linear_2741_1253)"/>
<defs>
<linearGradient id="paint0_linear_2741_1253" x1="101.243" y1="-17.192" x2="-64.7885" y2="72.1438" gradientUnits="userSpaceOnUse">
<stop stop-color="#88EDFE"/>
<stop offset="0.489" stop-color="#625EFE"/>
<stop offset="1" stop-color="#C224FE"/>
</linearGradient>
</defs>
</svg>
