<svg width="24" height="24" viewBox="0 0 24 24" fill="none" xmlns="http://www.w3.org/2000/svg">
<path d="M19.3898 7.99646C19.3734 7.99646 19.3488 7.99646 19.3241 7.99646C14.983 7.4715 10.6501 7.2734 6.35815 7.79836L4.68406 7.99646C4.3394 8.03608 4.03576 7.73893 4.00294 7.32292C3.97011 6.90692 4.2163 6.55034 4.55276 6.51072L6.22685 6.31262C10.5926 5.77775 15.0158 5.98576 19.4472 6.51072C19.7837 6.55034 20.0299 6.91682 19.9971 7.32292C19.9724 7.70922 19.7016 7.99646 19.3898 7.99646Z" fill="#292D32"/>
<path d="M9.52984 6.99934C9.50161 6.99934 9.47338 6.99934 9.43809 6.99039C9.15579 6.92776 8.95818 6.57882 9.00758 6.22094L9.16285 5.04888C9.27577 4.18996 9.43104 3 11.0755 3H12.9245C14.576 3 14.7313 4.23469 14.8372 5.05782L14.9924 6.22094C15.0418 6.58777 14.8442 6.93671 14.5619 6.99039C14.2725 7.05302 13.9973 6.8025 13.955 6.44462L13.7997 5.2815C13.7009 4.50311 13.6797 4.35101 12.9316 4.35101H11.0825C10.3344 4.35101 10.3203 4.47626 10.2144 5.27255L10.0521 6.43567C10.0098 6.76671 9.78392 6.99934 9.52984 6.99934Z" fill="#292D32"/>
<path d="M14.5336 21H9.46644C6.71188 21 6.60138 19.3873 6.51457 18.0838L6.00154 9.66925C5.97786 9.32665 6.23043 9.02583 6.55403 9.00077C6.88552 8.98405 7.16177 9.24309 7.18545 9.58569L7.69847 18.0002C7.78529 19.2703 7.81686 19.7466 9.46644 19.7466H14.5336C16.191 19.7466 16.2226 19.2703 16.3015 18.0002L16.8146 9.58569C16.8382 9.24309 17.1224 8.98405 17.446 9.00077C17.7696 9.02583 18.0221 9.31829 17.9985 9.66925L17.4854 18.0838C17.3986 19.3873 17.2881 21 14.5336 21Z" fill="#292D32"/>
<path d="M13.3789 16H10.6211C10.2816 16 10 15.7733 10 15.5C10 15.2267 10.2816 15 10.6211 15H13.3789C13.7184 15 14 15.2267 14 15.5C14 15.7733 13.7184 16 13.3789 16Z" fill="#292D32"/>
<path d="M14.3077 13H9.69231C9.31385 13 9 12.7733 9 12.5C9 12.2267 9.31385 12 9.69231 12H14.3077C14.6862 12 15 12.2267 15 12.5C15 12.7733 14.6862 13 14.3077 13Z" fill="#292D32"/>
</svg>
