<svg width="80" height="80" viewBox="0 0 80 80" fill="none" xmlns="http://www.w3.org/2000/svg">
<path d="M70.2335 17.4337C64.8669 16.9003 59.5002 16.5003 54.1002 16.2003V16.167L53.3669 11.8337C52.8669 8.76699 52.1335 4.16699 44.3335 4.16699H35.6002C27.8335 4.16699 27.1002 8.56699 26.5669 11.8003L25.8669 16.067C22.7669 16.267 19.6669 16.467 16.5669 16.767L9.76687 17.4337C8.36687 17.567 7.36687 18.8003 7.5002 20.167C7.63353 21.5337 8.83353 22.5337 10.2335 22.4003L17.0335 21.7337C34.5002 20.0003 52.1002 20.667 69.7669 22.4337C69.8669 22.4337 69.9335 22.4337 70.0335 22.4337C71.3002 22.4337 72.4002 21.467 72.5335 20.167C72.6335 18.8003 71.6335 17.567 70.2335 17.4337Z" fill="#FF6969"/>
<path d="M64.0998 27.133C63.2998 26.2997 62.1998 25.833 61.0665 25.833H18.9331C17.7998 25.833 16.6665 26.2997 15.8998 27.133C15.1331 27.9663 14.6998 29.0997 14.7665 30.2663L16.8332 64.4663C17.1998 69.533 17.6665 75.8663 29.2998 75.8663H50.6998C62.3332 75.8663 62.7998 69.5663 63.1665 64.4663L65.2331 30.2997C65.2998 29.0997 64.8665 27.9663 64.0998 27.133ZM45.5331 59.1663H34.4332C33.0665 59.1663 31.9332 58.033 31.9332 56.6663C31.9332 55.2997 33.0665 54.1663 34.4332 54.1663H45.5331C46.8998 54.1663 48.0331 55.2997 48.0331 56.6663C48.0331 58.033 46.8998 59.1663 45.5331 59.1663ZM48.3331 45.833H31.6665C30.2998 45.833 29.1665 44.6997 29.1665 43.333C29.1665 41.9663 30.2998 40.833 31.6665 40.833H48.3331C49.6998 40.833 50.8332 41.9663 50.8332 43.333C50.8332 44.6997 49.6998 45.833 48.3331 45.833Z" fill="#FF6969"/>
</svg>
