<svg width="9" height="7" viewBox="0 0 9 7" fill="none" xmlns="http://www.w3.org/2000/svg">
<path fill-rule="evenodd" clip-rule="evenodd" d="M7.07037 6.85096L5.0421 5.07623L4.15338 5.97221L2.83102 4.63315V4.42002H3.62506V3.83631L1.68602 2.13965H0.606118V1.45914L0.356494 1.71278C0.321593 1.74825 0.288071 1.78007 0.2565 1.81004C0.0622612 1.99443 -0.0581306 2.10872 0.0286104 2.5693C0.0873399 2.88114 0.275857 4.00267 0.437301 4.96312L0.437302 4.96313C0.55306 5.65179 0.654898 6.25765 0.684995 6.42286C0.706955 6.54348 0.770711 6.65251 0.865066 6.7308C0.959421 6.80909 1.07834 6.85163 1.20095 6.85096H7.07037ZM2.71676 1.71278L1.73824 0.856576H6.68557C6.74173 0.85567 6.7975 0.866172 6.84949 0.887449C6.90148 0.908726 6.94861 0.940334 6.98803 0.980358C7.02745 1.02038 7.05833 1.06799 7.07881 1.1203C7.09929 1.17261 7.10894 1.22853 7.10717 1.28468L7.10841 1.71278H2.71676ZM3.20461 2.13965H7.7017V1.45914L7.9507 1.71278H7.95194C7.98651 1.74787 8.01973 1.77943 8.05105 1.80918L8.05105 1.80919C8.24609 1.99449 8.36719 2.10954 8.28137 2.5693C8.22442 2.87438 8.04158 3.96101 7.88195 4.9097L7.88185 4.91028L7.88183 4.91041C7.8067 5.35688 7.73673 5.77275 7.68745 6.06213L4.68387 3.434V3.30646H4.53811L3.20461 2.13965ZM3.80137 3.99058V4.59696H3.04569L4.15338 5.72011L4.90739 4.95835L3.80137 3.99058ZM5.8408 5.89944e-05H2.46577C2.40956 -0.000888336 2.35375 0.00958226 2.30171 0.0308367C2.24966 0.0520911 2.20248 0.0836872 2.163 0.123712C2.12353 0.163736 2.09259 0.211356 2.07205 0.263687C2.05152 0.316019 2.04182 0.371974 2.04355 0.428163H6.26303C6.26475 0.371974 6.25506 0.316019 6.23452 0.263687C6.21399 0.211356 6.18305 0.163736 6.14357 0.123712C6.1041 0.0836872 6.05691 0.0520911 6.00487 0.0308367C5.95283 0.00958226 5.89701 -0.000888336 5.8408 5.89944e-05Z" fill="white"/>
</svg>
