<svg width="30" height="24" viewBox="0 0 30 24" fill="none" xmlns="http://www.w3.org/2000/svg">
<path d="M19.8195 16.9076L14.9178 12.0054L10.0156 16.9076" stroke="black" stroke-width="1.72755" stroke-linecap="round" stroke-linejoin="round"/>
<path d="M14.918 12.0054V23.0352" stroke="black" stroke-width="1.72755" stroke-linecap="round" stroke-linejoin="round"/>
<path d="M25.1997 19.8365C26.3951 19.1849 27.3394 18.1538 27.8836 16.9059C28.4278 15.658 28.541 14.2644 28.2052 12.945C27.8694 11.6257 27.1038 10.4557 26.0293 9.61981C24.9547 8.78389 23.6323 8.32964 22.2709 8.32874H20.7259C20.3553 6.89375 19.6641 5.56148 18.7044 4.43208C17.7448 3.30269 16.5415 2.40558 15.1851 1.80821C13.8288 1.21084 12.3547 0.928756 10.8736 0.983174C9.39251 1.03759 7.94305 1.42709 6.63419 2.12239C5.32534 2.81768 4.19115 3.80068 3.31693 4.99745C2.4427 6.19423 1.85119 7.57363 1.58687 9.03194C1.32254 10.4903 1.39229 11.9895 1.79087 13.417C2.18944 14.8445 2.90647 16.163 3.88803 17.2734" stroke="black" stroke-width="1.72755" stroke-linecap="round" stroke-linejoin="round"/>
<path d="M19.8195 16.9076L14.9178 12.0054L10.0156 16.9076" stroke="black" stroke-width="1.72755" stroke-linecap="round" stroke-linejoin="round"/>
</svg>
