<svg width="18" height="18" viewBox="0 0 18 18" fill="none" xmlns="http://www.w3.org/2000/svg">
<path d="M12.6128 0.666016C15.4372 0.666016 17.3346 2.64778 17.3346 5.59662V12.4021C17.3346 15.3509 15.4372 17.3327 12.612 17.3327H5.38979C2.56538 17.3327 0.667969 15.3509 0.667969 12.4021V5.59662C0.667969 2.64778 2.56538 0.666016 5.38979 0.666016H12.6128ZM13.5318 9.45773C12.6385 8.90045 11.9489 9.68304 11.7628 9.9333C11.5835 10.175 11.4293 10.4416 11.2667 10.7082C10.8695 11.3661 10.4145 12.1246 9.62681 12.5657C8.48212 13.1996 7.61314 12.6156 6.98801 12.1908C6.75337 12.0325 6.52544 11.8829 6.29835 11.7831C5.73858 11.5415 5.23495 11.8167 4.48747 12.7661C4.0953 13.2623 3.70647 13.7543 3.31262 14.2444C3.07715 14.5377 3.13329 14.9901 3.45089 15.1861C3.95787 15.4983 4.5763 15.666 5.27517 15.666H12.2983C12.6947 15.666 13.0919 15.6118 13.4706 15.488C14.3237 15.2094 15.0008 14.5712 15.3544 13.7285C15.6527 13.0198 15.7977 12.1598 15.5186 11.4443C15.4256 11.207 15.2865 10.9859 15.0913 10.7916C14.5793 10.2833 14.1008 9.8086 13.5318 9.45773ZM6.08368 3.99935C4.93481 3.99935 4.0013 4.93412 4.0013 6.08268C4.0013 7.23124 4.93481 8.16602 6.08368 8.16602C7.23172 8.16602 8.16607 7.23124 8.16607 6.08268C8.16607 4.93412 7.23172 3.99935 6.08368 3.99935Z" fill="white"/>
</svg>
