<svg width="35" height="35" viewBox="0 0 35 35" fill="none" xmlns="http://www.w3.org/2000/svg">
<path d="M34.15 17.075C34.15 7.64474 26.5053 0 17.075 0C7.64474 0 0 7.64474 0 17.075C0 26.5053 7.64474 34.15 17.075 34.15C26.5053 34.15 34.15 26.5053 34.15 17.075Z" fill="#303548"/>
<path d="M17.0007 17.6253C14.359 17.6253 12.209 15.4753 12.209 12.8337C12.209 10.192 14.359 8.04199 17.0007 8.04199C19.6423 8.04199 21.7923 10.192 21.7923 12.8337C21.7923 15.4753 19.6423 17.6253 17.0007 17.6253ZM17.0007 9.29199C15.0507 9.29199 13.459 10.8837 13.459 12.8337C13.459 14.7837 15.0507 16.3753 17.0007 16.3753C18.9507 16.3753 20.5423 14.7837 20.5423 12.8337C20.5423 10.8837 18.9507 9.29199 17.0007 9.29199Z" fill="white"/>
<path d="M24.1585 25.9583C23.8168 25.9583 23.5335 25.675 23.5335 25.3333C23.5335 22.4583 20.6001 20.125 17.0001 20.125C13.4001 20.125 10.4668 22.4583 10.4668 25.3333C10.4668 25.675 10.1835 25.9583 9.8418 25.9583C9.50013 25.9583 9.2168 25.675 9.2168 25.3333C9.2168 21.775 12.7085 18.875 17.0001 18.875C21.2918 18.875 24.7835 21.775 24.7835 25.3333C24.7835 25.675 24.5001 25.9583 24.1585 25.9583Z" fill="white"/>
</svg>
