<svg width="40" height="40" viewBox="0 0 40 40" fill="none" xmlns="http://www.w3.org/2000/svg">
<rect x="0.0644531" width="39.9347" height="40" rx="10" fill="#303548"/>
<path d="M20.0319 20.6253C17.3902 20.6253 15.2402 18.4753 15.2402 15.8337C15.2402 13.192 17.3902 11.042 20.0319 11.042C22.6736 11.042 24.8236 13.192 24.8236 15.8337C24.8236 18.4753 22.6736 20.6253 20.0319 20.6253ZM20.0319 12.292C18.0819 12.292 16.4902 13.8837 16.4902 15.8337C16.4902 17.7837 18.0819 19.3753 20.0319 19.3753C21.9819 19.3753 23.5736 17.7837 23.5736 15.8337C23.5736 13.8837 21.9819 12.292 20.0319 12.292Z" fill="white"/>
<path d="M27.1897 28.9583C26.848 28.9583 26.5647 28.675 26.5647 28.3333C26.5647 25.4583 23.6314 23.125 20.0314 23.125C16.4314 23.125 13.498 25.4583 13.498 28.3333C13.498 28.675 13.2147 28.9583 12.873 28.9583C12.5314 28.9583 12.248 28.675 12.248 28.3333C12.248 24.775 15.7397 21.875 20.0314 21.875C24.323 21.875 27.8147 24.775 27.8147 28.3333C27.8147 28.675 27.5314 28.9583 27.1897 28.9583Z" fill="white"/>
</svg>
