<svg width="10" height="14" viewBox="0 0 10 14" fill="none" xmlns="http://www.w3.org/2000/svg">
<path fill-rule="evenodd" clip-rule="evenodd" d="M2.74301 12.7344C2.74301 12.9943 2.64665 13.2435 2.47513 13.4273C2.30361 13.6111 2.07099 13.7143 1.82842 13.7143H0.914584C0.672021 13.7143 0.439393 13.6111 0.267875 13.4273C0.0963576 13.2435 0 12.9943 0 12.7344V0.979877C0 0.851198 0.0236564 0.723779 0.0696186 0.604895C0.115581 0.48601 0.182948 0.377989 0.267875 0.286999C0.352802 0.196009 0.453626 0.123832 0.564588 0.0745887C0.67555 0.0253453 0.794479 0 0.914584 0H1.82917C2.07173 0 2.30436 0.103237 2.47588 0.286999C2.64739 0.470762 2.74375 0.719998 2.74375 0.979877L2.74301 12.7344ZM9.14286 12.7344C9.14286 12.9943 9.0465 13.2435 8.87498 13.4273C8.70346 13.6111 8.47084 13.7143 8.22827 13.7143H7.3107C7.06814 13.7143 6.83551 13.6111 6.664 13.4273C6.49248 13.2435 6.39612 12.9943 6.39612 12.7344V0.979877C6.39612 0.851198 6.41978 0.723779 6.46574 0.604895C6.5117 0.48601 6.57907 0.377989 6.664 0.286999C6.74892 0.196009 6.84975 0.123832 6.96071 0.0745887C7.07167 0.0253453 7.1906 0 7.3107 0H8.22827C8.47084 0 8.70346 0.103237 8.87498 0.286999C9.0465 0.470762 9.14286 0.719998 9.14286 0.979877V12.7344Z" fill="white"/>
</svg>
