<svg width="18" height="14" viewBox="0 0 18 14" fill="none" xmlns="http://www.w3.org/2000/svg">
<path fill-rule="evenodd" clip-rule="evenodd" d="M3.68264 0.990234H8.63756C10.7095 0.990234 12.1561 2.41804 12.1561 4.46422V10.3483C12.1561 12.3945 10.7095 13.8223 8.63756 13.8223H3.68264C1.61067 13.8223 0.164062 12.3945 0.164062 10.3483V4.46422C0.164062 2.41804 1.61067 0.990234 3.68264 0.990234ZM15.5268 3.02522C15.9024 2.83415 16.343 2.85412 16.7014 3.07993C17.0598 3.30487 17.2737 3.69569 17.2737 4.12299V10.6897C17.2737 11.1179 17.0598 11.5078 16.7014 11.7328C16.5055 11.8552 16.2865 11.9177 16.0658 11.9177C15.8819 11.9177 15.6979 11.8743 15.526 11.7866L14.259 11.1474C13.7902 10.9094 13.4994 10.4318 13.4994 9.9011V4.91072C13.4994 4.3792 13.7902 3.90153 14.259 3.6653L15.5268 3.02522Z" fill="url(#paint0_linear_5509_1930)"/>
<defs>
<linearGradient id="paint0_linear_5509_1930" x1="26.3247" y1="-2.47441" x2="-10.4106" y2="23.8806" gradientUnits="userSpaceOnUse">
<stop stop-color="#88EDFE"/>
<stop offset="0.489" stop-color="#625EFE"/>
<stop offset="1" stop-color="#C224FE"/>
</linearGradient>
</defs>
</svg>
