<svg width="14" height="19" viewBox="0 0 14 19" fill="none" xmlns="http://www.w3.org/2000/svg">
<path d="M8.0832 14.9049V16.1679H10.3942C10.545 16.1663 10.6946 16.1949 10.8341 16.2522C10.9736 16.3095 11.1001 16.3943 11.2062 16.5015C11.3168 16.6055 11.4044 16.7315 11.4635 16.8713C11.5225 17.0112 11.5517 17.1618 11.5492 17.3136C11.5515 17.4659 11.5232 17.617 11.4659 17.7581C11.4086 17.8992 11.3235 18.0273 11.2157 18.1348C11.1103 18.246 10.9828 18.334 10.8414 18.393C10.7 18.4521 10.5479 18.481 10.3947 18.4779H3.46437C3.31118 18.481 3.15903 18.452 3.01765 18.393C2.87627 18.3339 2.74876 18.246 2.64328 18.1348C2.53558 18.0271 2.4507 17.8988 2.3937 17.7576C2.33671 17.6163 2.30878 17.465 2.31159 17.3127C2.31073 17.1613 2.34008 17.0112 2.39791 16.8712C2.45574 16.7312 2.5409 16.6041 2.64841 16.4975C2.75592 16.3908 2.88361 16.3066 3.02402 16.2499C3.16444 16.1931 3.31475 16.165 3.46618 16.167H5.77718V14.9049C4.16576 14.6492 2.70118 13.8192 1.65363 12.5682C0.567599 11.3291 -0.0212699 9.73181 0.000587341 8.08423C-0.00107686 7.93342 0.0275892 7.78381 0.084882 7.64429C0.142175 7.50478 0.226925 7.3782 0.334096 7.2721C0.439541 7.1609 0.567039 7.07295 0.708428 7.01387C0.849817 6.9548 1.00198 6.9259 1.15518 6.92903C1.30838 6.9259 1.46055 6.9548 1.60193 7.01387C1.74332 7.07295 1.87082 7.1609 1.97627 7.2721C2.08376 7.37805 2.16885 7.50456 2.22646 7.64408C2.28406 7.7836 2.31302 7.93329 2.31159 8.08423C2.30204 8.69216 2.41717 9.29559 2.64989 9.85728C2.88261 10.419 3.22797 10.927 3.66466 11.35C4.08774 11.7865 4.59572 12.1318 5.1573 12.3645C5.71887 12.5973 6.32215 12.7125 6.92996 12.7032C7.53782 12.7129 8.14119 12.5977 8.70282 12.365C9.26444 12.1322 9.77238 11.7868 10.1953 11.35C10.6318 10.9269 10.9771 10.4189 11.2098 9.8572C11.4426 9.29553 11.5578 8.69214 11.5483 8.08423C11.5525 7.77762 11.6768 7.48487 11.8945 7.26894C12.1121 7.053 12.4059 6.93111 12.7124 6.92948C12.8642 6.92698 13.0148 6.9562 13.1547 7.01528C13.2945 7.07435 13.4205 7.16198 13.5245 7.27255C13.6316 7.37866 13.7164 7.50523 13.7737 7.64474C13.831 7.78426 13.8596 7.93387 13.858 8.08468C13.8804 9.73181 13.2923 11.3289 12.2072 12.5682C11.1595 13.8193 9.69478 14.6493 8.0832 14.9049ZM6.9286 11.5489C6.47323 11.5507 6.022 11.4624 5.60095 11.2889C5.17989 11.1154 4.79733 10.8603 4.47533 10.5383C4.15333 10.2162 3.89826 9.83363 3.72483 9.41252C3.55139 8.99141 3.46302 8.54012 3.46482 8.08468V3.46477C3.45662 3.00847 3.54202 2.55533 3.71574 2.13333C3.88946 1.71132 4.14782 1.32941 4.47486 1.01115C4.79324 0.684115 5.17518 0.425733 5.59718 0.251922C6.01918 0.0781118 6.47229 -0.00744629 6.9286 0.000518278C7.38466 -0.00751963 7.83752 0.0780123 8.25923 0.251834C8.68095 0.425656 9.06256 0.68408 9.38053 1.01115C9.70755 1.32945 9.96592 1.71136 10.1397 2.13335C10.3135 2.55534 10.399 3.00846 10.391 3.46477V8.08423C10.3928 8.53967 10.3045 8.99095 10.131 9.41207C9.95759 9.83318 9.70252 10.2158 9.38052 10.5378C9.05852 10.8599 8.67596 11.115 8.2549 11.2884C7.83384 11.4619 7.38262 11.5503 6.92724 11.5485L6.9286 11.5489Z" fill="url(#paint0_linear_5083_14111)"/>
<defs>
<linearGradient id="paint0_linear_5083_14111" x1="16.7249" y1="20.8633" x2="-7.98534" y2="3.50955" gradientUnits="userSpaceOnUse">
<stop stop-color="#C224FE"/>
<stop offset="0.523958" stop-color="#625EFE"/>
<stop offset="1" stop-color="#88EDFE"/>
</linearGradient>
</defs>
</svg>
