<svg width="20" height="20" viewBox="0 0 20 20" fill="none" xmlns="http://www.w3.org/2000/svg">
<path d="M15.0002 13.6789C14.8669 13.6789 14.7419 13.6381 14.6252 13.5564C14.3502 13.3523 14.2919 12.9684 14.5002 12.6989C15.5502 11.3269 15.7752 9.50577 15.1002 7.9296C14.9669 7.61927 15.1169 7.25994 15.4336 7.12927C15.7502 6.9986 16.1169 7.1456 16.2502 7.45594C17.1002 9.43227 16.8086 11.7271 15.5002 13.4421C15.3752 13.5973 15.1919 13.6789 15.0002 13.6789Z" fill="white"/>
<path d="M16.5256 15.7208C16.3923 15.7208 16.2673 15.68 16.1506 15.5984C15.8756 15.3942 15.8173 15.0103 16.0256 14.7408C17.809 12.4133 18.2006 9.29368 17.0506 6.60685C16.9173 6.29652 17.0673 5.93718 17.384 5.80652C17.7006 5.67585 18.0673 5.82285 18.2006 6.13318C19.5256 9.22018 19.0756 12.7972 17.0256 15.4759C16.909 15.6392 16.7173 15.7208 16.5256 15.7208Z" fill="white"/>
<path d="M11.6997 10.5839C12.2247 10.0694 13.1247 10.4369 13.1247 11.1637V13.5565C13.1247 14.9612 12.6081 16.0147 11.6831 16.521C11.3081 16.7252 10.8914 16.8232 10.4581 16.8232C9.79141 16.8232 9.07474 16.6027 8.34141 16.1535L7.80807 15.8269C7.35807 15.5492 7.28307 14.9285 7.65807 14.561L11.6997 10.5839Z" fill="white"/>
<path d="M18.141 1.82096C17.891 1.57596 17.4827 1.57596 17.2327 1.82096L13.1077 5.86346C13.0577 4.55679 12.5577 3.57679 11.6743 3.09496C10.741 2.58862 9.54935 2.71929 8.33268 3.46246L5.90768 4.94879C5.74102 5.04679 5.54935 5.10396 5.35768 5.10396H4.58268H4.16602C2.14935 5.10396 1.04102 6.19012 1.04102 8.16646V11.4331C1.04102 13.4095 2.14935 14.4956 4.16602 14.4956H4.29935L1.84935 16.8966C1.59935 17.1416 1.59935 17.5418 1.84935 17.7868C1.98268 17.9011 2.14102 17.9665 2.30768 17.9665C2.47435 17.9665 2.63268 17.9011 2.75768 17.7786L18.141 2.70296C18.3994 2.45796 18.3994 2.06596 18.141 1.82096Z" fill="white"/>
</svg>
