<svg width="39" height="39" viewBox="0 0 39 39" fill="none" xmlns="http://www.w3.org/2000/svg">
<path d="M19.0132 0C13.9706 0 9.13454 2.00317 5.56889 5.56882C2.00323 9.13448 6.48499e-05 13.9706 6.48499e-05 19.0132C6.48499e-05 24.0558 2.00323 28.8918 5.56889 32.4575C9.13454 36.0231 13.9706 38.0263 19.0132 38.0263H38.0264V19.0132C38.0264 13.9706 36.0232 9.13448 32.4575 5.56882C28.8919 2.00317 24.0558 0 19.0132 0Z" fill="white"/>
<path d="M27.0238 17.7114C27.0238 18.1726 27.3977 18.5465 27.8589 18.5465C28.3202 18.5465 28.6941 18.1726 28.6941 17.7114H27.0238ZM23.0518 11.0008C22.5905 11.0008 22.2166 11.3747 22.2166 11.8359C22.2166 12.2972 22.5905 12.6711 23.0518 12.6711V11.0008ZM27.0238 16.6431V17.7114H28.6941V16.6431H27.0238ZM23.0518 12.6711C25.2454 12.6711 27.0238 14.4494 27.0238 16.6431H28.6941C28.6941 13.5269 26.1679 11.0008 23.0518 11.0008V12.6711Z" fill="url(#paint0_linear_798_4809)"/>
<path d="M27.0238 22.5181C27.0238 22.0568 27.3977 21.6829 27.8589 21.6829C28.3202 21.6829 28.6941 22.0568 28.6941 22.5181H27.0238ZM23.0518 28.6945C22.5905 28.6945 22.2166 28.3206 22.2166 27.8594C22.2166 27.3981 22.5905 27.0242 23.0518 27.0242V28.6945ZM27.0238 23.0522V22.5181H28.6941V23.0522H27.0238ZM23.0518 27.0242C25.2454 27.0242 27.0238 25.2459 27.0238 23.0522H28.6941C28.6941 26.1684 26.1679 28.6945 23.0518 28.6945V27.0242Z" fill="url(#paint1_linear_798_4809)"/>
<path fill-rule="evenodd" clip-rule="evenodd" d="M18.0117 11.8351C18.0117 11.3739 17.6378 11 17.1766 11H16.6424C13.5263 11 11.0001 13.5261 11.0001 16.6423V17.7106C11.0001 18.1718 11.374 18.5457 11.8353 18.5457C12.2965 18.5457 12.6704 18.1718 12.6704 17.7106V16.6423C12.6704 14.4486 14.4488 12.6703 16.6424 12.6703H17.1766C17.6378 12.6703 18.0117 12.2964 18.0117 11.8351Z" fill="url(#paint2_linear_798_4809)"/>
<path d="M17.1768 28.6945C17.638 28.6945 18.0119 28.3206 18.0119 27.8594C18.0119 27.3981 17.638 27.0242 17.1768 27.0242V28.6945ZM12.6706 22.5181C12.6706 22.0568 12.2967 21.6829 11.8355 21.6829C11.3742 21.6829 11.0003 22.0568 11.0003 22.5181H12.6706ZM17.1768 27.0242H16.6426V28.6945H17.1768V27.0242ZM12.6706 23.0522V22.5181H11.0003V23.0522H12.6706ZM16.6426 27.0242C14.4489 27.0242 12.6706 25.2459 12.6706 23.0522H11.0003C11.0003 26.1684 13.5265 28.6945 16.6426 28.6945V27.0242Z" fill="url(#paint3_linear_798_4809)"/>
<rect x="16.7764" y="16.7773" width="6.40956" height="6.40956" rx="3.20478" fill="url(#paint4_linear_798_4809)"/>
<defs>
<linearGradient id="paint0_linear_798_4809" x1="28.8532" y1="18.4698" x2="20.7882" y2="12.2909" gradientUnits="userSpaceOnUse">
<stop stop-color="#C224FE"/>
<stop offset="0.523958" stop-color="#625EFE"/>
<stop offset="1" stop-color="#88EDFE"/>
</linearGradient>
<linearGradient id="paint1_linear_798_4809" x1="28.8532" y1="21.8286" x2="21.3695" y2="28.1355" gradientUnits="userSpaceOnUse">
<stop stop-color="#C224FE"/>
<stop offset="0.523958" stop-color="#625EFE"/>
<stop offset="1" stop-color="#88EDFE"/>
</linearGradient>
<linearGradient id="paint2_linear_798_4809" x1="9.54998" y1="19.5197" x2="20.1743" y2="10.2754" gradientUnits="userSpaceOnUse">
<stop stop-color="#C224FE"/>
<stop offset="0.523958" stop-color="#625EFE"/>
<stop offset="1" stop-color="#88EDFE"/>
</linearGradient>
<linearGradient id="paint3_linear_798_4809" x1="10.7308" y1="21.8286" x2="18.3078" y2="28.9237" gradientUnits="userSpaceOnUse">
<stop stop-color="#C224FE"/>
<stop offset="0.523958" stop-color="#625EFE"/>
<stop offset="1" stop-color="#88EDFE"/>
</linearGradient>
<linearGradient id="paint4_linear_798_4809" x1="24.5116" y1="24.0142" x2="15.4191" y2="15.5001" gradientUnits="userSpaceOnUse">
<stop stop-color="#C224FE"/>
<stop offset="0.523958" stop-color="#625EFE"/>
<stop offset="1" stop-color="#88EDFE"/>
</linearGradient>
</defs>
</svg>
