<svg width="18" height="14" viewBox="0 0 18 14" fill="none" xmlns="http://www.w3.org/2000/svg">
<path d="M8.92222 0.75C10.9406 0.75 12.3498 2.14086 12.3498 4.13409V9.8659C12.3498 11.8591 10.9406 13.25 8.92222 13.25H4.0955C2.07715 13.25 0.667969 11.8591 0.667969 9.8659V4.13409C0.667969 2.14086 2.07715 0.75 4.0955 0.75H8.92222ZM15.633 2.73249C15.9988 2.54636 16.428 2.56582 16.7771 2.78579C17.1263 3.00491 17.3346 3.38562 17.3346 3.80186V10.1986C17.3346 10.6157 17.1263 10.9956 16.7771 11.2147C16.5863 11.334 16.373 11.3949 16.158 11.3949C15.9788 11.3949 15.7996 11.3526 15.6321 11.2672L14.3979 10.6445C13.9413 10.4127 13.6579 9.94738 13.6579 9.43046V4.5692C13.6579 4.05144 13.9413 3.58613 14.3979 3.35601L15.633 2.73249Z" fill="#F2F2F2"/>
</svg>
