<svg width="17" height="18" viewBox="0 0 17 18" fill="none" xmlns="http://www.w3.org/2000/svg">
<path d="M16 16.9981V15.2231C16 14.2799 15.6047 13.3754 14.901 12.7085C14.1974 12.0416 13.243 11.667 12.2479 11.667H4.75207C3.75696 11.667 2.8026 12.0416 2.09895 12.7085C1.39531 13.3754 1 14.2799 1 15.2231V16.9999" stroke="white" stroke-width="1.50404" stroke-linecap="round" stroke-linejoin="round"/>
<path d="M12.2502 4.73349C12.2502 5.4719 12.0302 6.19374 11.6179 6.80771C11.2056 7.42168 10.6196 7.90021 9.93402 8.18279C9.24842 8.46536 8.494 8.5393 7.76617 8.39524C7.03834 8.25119 6.36979 7.8956 5.84505 7.37347C5.32031 6.85133 4.96296 6.18608 4.81819 5.46186C4.67342 4.73763 4.74772 3.98695 5.0317 3.30475C5.31569 2.62254 5.7966 2.03945 6.41363 1.62921C7.03065 1.21897 7.75607 1 8.49816 1C9.49327 1 10.4476 1.39335 11.1513 2.09351C11.8549 2.79368 12.2502 3.74331 12.2502 4.73349V4.73349Z" stroke="white" stroke-width="1.50404" stroke-linecap="round" stroke-linejoin="round"/>
</svg>
