<svg width="8" height="7" viewBox="0 0 8 7" fill="none" xmlns="http://www.w3.org/2000/svg">
<path d="M3.51871 6.28419C3.48575 6.25175 3.34483 6.13052 3.22891 6.01725C2.29185 5.04932 1.51943 3.93416 0.942322 2.71609C0.849619 2.50278 0.785606 2.27808 0.751963 2.04789C0.751209 1.86961 0.79372 1.69381 0.875839 1.53564C0.993399 1.33381 1.17387 1.17624 1.38953 1.08713C1.58818 1.02699 1.79003 0.977961 1.99413 0.94029C2.71024 0.836938 3.43343 0.79088 4.15684 0.802552C4.8575 0.796224 5.55779 0.836725 6.25307 0.923784C6.50922 0.968038 6.76139 1.03294 7.00712 1.11787C7.17457 1.20102 7.31582 1.3289 7.4153 1.48739C7.51477 1.64588 7.56858 1.82882 7.57081 2.01601V2.04846C7.52937 2.30886 7.45112 2.56203 7.3384 2.80033C6.76428 3.98931 6.0034 5.07831 5.08477 6.02579C4.98588 6.12397 4.88072 6.21561 4.76997 6.30013C4.5944 6.42804 4.38245 6.49607 4.16536 6.49422C3.9327 6.49681 3.70558 6.42305 3.51871 6.28419Z" fill="white"/>
</svg>
