<svg width="21" height="22" viewBox="0 0 21 22" fill="none" xmlns="http://www.w3.org/2000/svg">
<path d="M10.5 21.5C16.299 21.5 21 16.799 21 11C21 5.20101 16.299 0.5 10.5 0.5C4.70101 0.5 0 5.20101 0 11C0 16.799 4.70101 21.5 10.5 21.5Z" fill="white"/>
<path fill-rule="evenodd" clip-rule="evenodd" d="M6.47876 6.50074C6.37787 6.51029 6.28185 6.54866 6.20214 6.61129C6.12244 6.67392 6.0624 6.75816 6.02919 6.85397C5.99598 6.94979 5.99099 7.05314 6.01482 7.15171C6.03865 7.25029 6.0903 7.33994 6.1636 7.40996L9.74784 11.005L6.1636 14.5918C6.06396 14.6916 6.00798 14.8268 6.00798 14.9678C6.00798 15.1088 6.06396 15.2441 6.1636 15.3438C6.26325 15.4435 6.3984 15.4996 6.53932 15.4996C6.68024 15.4996 6.81538 15.4435 6.91503 15.3438L10.5087 11.7493L14.093 15.3443C14.1926 15.444 14.3277 15.5 14.4687 15.5C14.6096 15.5 14.7447 15.444 14.8444 15.3443C14.944 15.2445 15 15.1093 15 14.9683C15 14.8272 14.944 14.692 14.8444 14.5923L11.252 11.0054L14.8444 7.4104C14.8937 7.36103 14.9329 7.30241 14.9596 7.2379C14.9863 7.17339 15 7.10425 15 7.03443C15 6.9646 14.9863 6.89544 14.9596 6.83093C14.9329 6.76642 14.8937 6.7078 14.8444 6.65842C14.795 6.60905 14.7365 6.56989 14.672 6.54317C14.6075 6.51645 14.5384 6.50269 14.4687 6.50269C14.3989 6.50269 14.3298 6.51645 14.2653 6.54317C14.2009 6.56989 14.1423 6.60905 14.093 6.65842L10.5087 10.2444L6.91638 6.65798C6.86675 6.6077 6.80756 6.56787 6.74229 6.54086C6.67703 6.51385 6.60701 6.50021 6.53639 6.50074C6.51719 6.49975 6.49796 6.49975 6.47876 6.50074Z" fill="#0F172A"/>
</svg>
