<svg width="45" height="45" viewBox="0 0 45 45" fill="none" xmlns="http://www.w3.org/2000/svg">
<path fill-rule="evenodd" clip-rule="evenodd" d="M3.718e-06 22.5129C-0.00255429 18.0623 1.31489 13.7108 3.7857 10.009C6.2565 6.30719 9.76968 3.4213 13.8808 1.71637C17.992 0.0114318 22.5164 -0.435946 26.8819 0.430818C31.2473 1.29758 35.2576 3.43955 38.4056 6.58579C41.5535 9.73202 43.6977 13.7412 44.5668 18.1062C45.4359 22.4711 44.991 26.9958 43.2883 31.1079C41.5856 35.22 38.7016 38.7347 35.0011 41.2075C31.3007 43.6803 26.9499 45.0001 22.4993 45C16.5368 44.9915 10.8209 42.6199 6.60364 38.405C2.38641 34.1901 0.0117848 28.4754 3.718e-06 22.5129ZM30.7491 24.7904C30.9636 24.5695 31.1664 24.3376 31.3569 24.0957C31.6979 23.6395 31.8808 23.0846 31.8777 22.5151C31.8841 21.9027 31.6853 21.3058 31.3131 20.8196C31.2829 20.7894 31.2233 20.7248 31.1471 20.6407C31.0034 20.4834 30.7951 20.2578 30.5968 20.0595C27.9866 17.5966 24.9943 15.5733 21.7363 14.0684C21.1592 13.8249 20.5535 13.6559 19.9337 13.5655C19.4594 13.5655 18.9918 13.6772 18.5687 13.8917C18.0258 14.1936 17.5981 14.6667 17.3524 15.2373C17.1925 15.7576 17.062 16.2865 16.9616 16.8215C16.684 18.6968 16.5605 20.5916 16.5923 22.4871C16.5755 24.323 16.6845 26.1578 16.9185 27.9788C16.9242 27.9845 16.9422 28.0779 16.9716 28.2224C17.0687 28.8138 17.2254 29.3939 17.4393 29.9538C17.6686 30.3962 18.0143 30.7676 18.4393 31.0278C18.8642 31.288 19.3521 31.4271 19.8504 31.4302H19.9373C20.6357 31.3234 21.3156 31.1188 21.9569 30.8224C24.2559 29.8676 28.7978 26.894 30.6226 24.9183L30.7491 24.7904Z" fill="white"/>
</svg>
