<svg width="45" height="45" viewBox="0 0 45 45" fill="none" xmlns="http://www.w3.org/2000/svg">
<path fill-rule="evenodd" clip-rule="evenodd" d="M45 22.5C45 34.9264 34.9264 45 22.5 45C10.0736 45 0 34.9264 0 22.5C0 10.0736 10.0736 0 22.5 0C34.9264 0 45 10.0736 45 22.5ZM18.9108 31.7405C19.152 31.4821 19.2875 31.1316 19.2875 30.7662L19.2886 14.2364C19.2886 13.8709 19.1531 13.5204 18.9119 13.262C18.6707 13.0036 18.3435 12.8584 18.0024 12.8584H16.7163C16.5474 12.8584 16.3802 12.894 16.2241 12.9633C16.0681 13.0325 15.9263 13.134 15.8069 13.262C15.6874 13.3899 15.5927 13.5419 15.5281 13.709C15.4634 13.8762 15.4302 14.0554 15.4302 14.2364V30.7662C15.4302 31.1316 15.5657 31.4821 15.8069 31.7405C16.0481 31.9989 16.3752 32.1441 16.7163 32.1441H18.0014C18.3425 32.1441 18.6696 31.9989 18.9108 31.7405ZM27.9106 31.7405C28.1518 31.4821 28.2873 31.1316 28.2873 30.7662V14.2364C28.2873 13.8709 28.1518 13.5204 27.9106 13.262C27.6694 13.0036 27.3423 12.8584 27.0012 12.8584H25.7109C25.542 12.8584 25.3747 12.894 25.2187 12.9633C25.0626 13.0325 24.9208 13.134 24.8014 13.262C24.682 13.3899 24.5873 13.5419 24.5226 13.709C24.458 13.8762 24.4247 14.0554 24.4247 14.2364V30.7662C24.4247 31.1316 24.5602 31.4821 24.8014 31.7405C25.0426 31.9989 25.3698 32.1441 25.7109 32.1441H27.0012C27.3423 32.1441 27.6694 31.9989 27.9106 31.7405Z" fill="#F4FAFF"/>
</svg>
