<svg width="21" height="17" viewBox="0 0 21 17" fill="none" xmlns="http://www.w3.org/2000/svg">
<path d="M1.49821 6.938H18.4162C18.6111 6.9329 18.805 6.96688 18.9865 7.03793C19.1681 7.10898 19.3336 7.21567 19.4732 7.3517C19.6128 7.48774 19.7238 7.65035 19.7996 7.82997C19.8754 8.00958 19.9144 8.20256 19.9144 8.3975C19.9144 8.59245 19.8754 8.78542 19.7996 8.96503C19.7238 9.14465 19.6128 9.30726 19.4732 9.44329C19.3336 9.57933 19.1681 9.68602 18.9865 9.75707C18.805 9.82812 18.6111 9.8621 18.4162 9.857H1.49821C1.30333 9.8621 1.1094 9.82812 0.927866 9.75707C0.74633 9.68602 0.580861 9.57933 0.441221 9.44329C0.301582 9.30726 0.1906 9.14465 0.11482 8.96503C0.0390412 8.78542 0 8.59245 0 8.3975C0 8.20256 0.0390412 8.00958 0.11482 7.82997C0.1906 7.65035 0.301582 7.48774 0.441221 7.3517C0.580861 7.21567 0.74633 7.10898 0.927866 7.03793C1.1094 6.96688 1.30333 6.9329 1.49821 6.938Z" fill="#CFD3DB"/>
<path d="M1.39288 13.75H10.6429C11.0167 13.7696 11.3688 13.9319 11.6266 14.2035C11.8843 14.475 12.0279 14.8351 12.0279 15.2095C12.0279 15.5839 11.8843 15.944 11.6266 16.2156C11.3688 16.4871 11.0167 16.6494 10.6429 16.669H1.39288C1.01901 16.6494 0.66691 16.4871 0.409197 16.2156C0.151484 15.944 0.0078125 15.5839 0.0078125 15.2095C0.0078125 14.8351 0.151484 14.475 0.409197 14.2035C0.66691 13.9319 1.01901 13.7696 1.39288 13.75Z" fill="#CFD3DB"/>
<path d="M1.57438 0.0395625H18.5244C18.7193 0.034461 18.9132 0.0684393 19.0947 0.139492C19.2763 0.210545 19.4417 0.317235 19.5814 0.453266C19.721 0.589298 19.832 0.751924 19.9078 0.931538C19.9835 1.11115 20.0226 1.30412 20.0226 1.49907C20.0226 1.69401 19.9835 1.88698 19.9078 2.06659C19.832 2.24621 19.721 2.40883 19.5814 2.54486C19.4417 2.6809 19.2763 2.78759 19.0947 2.85864C18.9132 2.92969 18.7193 2.96367 18.5244 2.95857H1.57438C1.3795 2.96367 1.18557 2.92969 1.00404 2.85864C0.822502 2.78759 0.657032 2.6809 0.517393 2.54486C0.377754 2.40883 0.266772 2.24621 0.190992 2.06659C0.115213 1.88698 0.0761719 1.69401 0.0761719 1.49907C0.0761719 1.30412 0.115213 1.11115 0.190992 0.931538C0.266772 0.751924 0.377754 0.589298 0.517393 0.453266C0.657032 0.317235 0.822502 0.210545 1.00404 0.139492C1.18557 0.0684393 1.3795 0.034461 1.57438 0.0395625Z" fill="#CFD3DB"/>
</svg>
