<svg width="57" height="50" viewBox="0 0 57 50" fill="none" xmlns="http://www.w3.org/2000/svg">
<path d="M15.1504 37.9941H56.0674V45.6841C56.0674 46.2094 55.9639 46.7296 55.7629 47.2149C55.5619 47.7002 55.2673 48.1411 54.8958 48.5126C54.5244 48.884 54.0834 49.1786 53.5981 49.3797C53.1128 49.5807 52.5927 49.6841 52.0674 49.6841H19.1504C18.0895 49.6841 17.0721 49.2627 16.322 48.5126C15.5718 47.7624 15.1504 46.745 15.1504 45.6841V37.9941Z" fill="#103F91"/>
<path d="M56.0674 24.8418H15.1504V37.9938H56.0674V24.8418Z" fill="#1859BC"/>
<path d="M56.0674 13.1519H15.1504V24.8419H56.0674V13.1519Z" fill="#2B7CD3"/>
<path d="M19.1504 0H52.0674C53.1283 0 54.1457 0.421427 54.8958 1.17157C55.646 1.92172 56.0674 2.93913 56.0674 4V13.152H15.1504V4C15.1504 2.93913 15.5718 1.92172 16.322 1.17157C17.0721 0.421427 18.0895 0 19.1504 0V0Z" fill="#41A5EE"/>
<path d="M24.688 11H6C2.68629 11 0 13.6863 0 17V34.226C0 37.5397 2.68629 40.226 6 40.226H24.688C28.0017 40.226 30.688 37.5397 30.688 34.226V17C30.688 13.6863 28.0017 11 24.688 11Z" fill="#144FB2"/>
<path d="M12.522 30.4614H10.167L7.22695 19.9614H9.40195L11.412 27.7464L13.602 19.9614H15.372L17.577 27.7464L19.587 19.9614H21.762L18.822 30.4614H16.467L14.487 23.5314L12.522 30.4614Z" fill="white"/>
</svg>
