<svg width="206" height="211" viewBox="0 0 206 211" fill="none" xmlns="http://www.w3.org/2000/svg">
<g opacity="0.4">
<path fill-rule="evenodd" clip-rule="evenodd" d="M39.1504 92.5715C68.2498 92.5715 91.8396 68.9818 91.8396 39.8824C91.8396 35.0451 91.1877 30.36 89.967 25.9103C97.1328 24.2809 104.623 23.417 112.33 23.417C164.068 23.417 205.999 62.3484 205.999 110.396C205.999 158.443 164.068 197.375 112.33 197.375C98.2793 197.375 84.9973 194.406 73.0324 189.262C64.0314 197.459 45.8463 210.756 21.5873 210.756C20.4165 210.756 19.392 210.004 18.9163 208.749C18.4406 207.495 18.6602 206.073 19.4651 205.111C19.6481 204.902 34.9426 186.126 39.5163 165.05C26.4904 150.122 18.6602 131.137 18.6602 110.396C18.6602 103.192 19.6028 96.1931 21.3797 89.4995C26.9316 91.4882 32.9145 92.5715 39.1504 92.5715ZM53.7863 110.396C53.7863 117.798 59.0186 123.777 65.495 123.777C71.9713 123.777 77.2037 117.798 77.2037 110.396C77.2037 102.994 71.9713 97.0146 65.495 97.0146C59.0186 97.0146 53.7863 102.994 53.7863 110.396ZM100.621 110.396C100.621 117.798 105.853 123.777 112.33 123.777C118.806 123.777 124.038 117.798 124.038 110.396C124.038 102.994 118.806 97.0146 112.33 97.0146C105.853 97.0146 100.621 102.994 100.621 110.396ZM147.456 110.396C147.456 117.798 152.688 123.777 159.165 123.777C165.641 123.777 170.873 117.798 170.873 110.396C170.873 102.994 165.641 97.0146 159.165 97.0146C152.688 97.0146 147.456 102.994 147.456 110.396Z" fill="url(#paint0_linear_1540_4315)"/>
<circle cx="41.3464" cy="41.3464" r="41.3464" fill="url(#paint1_linear_1540_4315)"/>
<path d="M41.1656 53.3682C37.9701 53.3682 35.4576 52.1608 33.6281 49.7458C31.823 47.3065 30.9205 44.0744 30.9205 40.0496C30.9205 36.0247 31.823 32.8048 33.6281 30.3899C35.4576 27.9506 37.9701 26.7309 41.1656 26.7309C44.3855 26.7309 46.898 27.9506 48.7031 30.3899C50.5082 32.8048 51.4107 36.0247 51.4107 40.0496C51.4107 44.0744 50.5082 47.3065 48.7031 49.7458C46.898 52.1608 44.3855 53.3682 41.1656 53.3682ZM37.2871 46.3064C38.1652 47.7212 39.4581 48.4286 41.1656 48.4286C42.8731 48.4286 44.166 47.709 45.0441 46.2698C45.9466 44.8306 46.3979 42.7572 46.3979 40.0496C46.3979 37.3175 45.9466 35.2319 45.0441 33.7927C44.166 32.3535 42.8731 31.6339 41.1656 31.6339C39.4581 31.6339 38.1652 32.3535 37.2871 33.7927C36.4089 35.2319 35.9699 37.3175 35.9699 40.0496C35.9699 42.7816 36.4089 44.8672 37.2871 46.3064Z" fill="white"/>
</g>
<defs>
<linearGradient id="paint0_linear_1540_4315" x1="-24.0532" y1="-4.87123" x2="280.935" y2="268.269" gradientUnits="userSpaceOnUse">
<stop stop-color="#D51AFF"/>
<stop offset="0.502" stop-color="#4E6AFE"/>
<stop offset="1" stop-color="#8BF3FE"/>
</linearGradient>
<linearGradient id="paint1_linear_1540_4315" x1="-18.8539" y1="-12.4866" x2="115.77" y2="108.079" gradientUnits="userSpaceOnUse">
<stop stop-color="#D51AFF"/>
<stop offset="0.502" stop-color="#4E6AFE"/>
<stop offset="1" stop-color="#8BF3FE"/>
</linearGradient>
</defs>
</svg>
