<svg width="15" height="12" viewBox="0 0 15 12" fill="none" xmlns="http://www.w3.org/2000/svg">
<path d="M12.7003 12.0004H2.30083C2.08498 12.0023 1.87536 11.9281 1.70869 11.7909C1.54203 11.6537 1.42895 11.4623 1.38928 11.2501C1.33598 10.9577 1.15508 9.89118 0.946819 8.65567C0.663535 6.96227 0.33888 5.04169 0.236505 4.49966C0.14633 4.26453 0.136791 4.00612 0.209385 3.76498C0.28198 3.52385 0.432597 3.31365 0.63759 3.16738C0.690882 3.1169 0.751185 3.0594 0.813591 2.99699L1.25324 2.55313V3.74517H13.7437V2.55313L14.1819 2.99699C14.2444 3.0601 14.3047 3.1162 14.3579 3.16668C14.5633 3.31271 14.7144 3.5227 14.7876 3.76378C14.8608 4.00486 14.852 4.26342 14.7625 4.49896C14.6609 5.03818 14.3369 6.95316 14.0515 8.64375V8.65777V8.66408C13.8412 9.89469 13.6638 10.9577 13.6105 11.2494C13.5711 11.4615 13.4583 11.653 13.2919 11.7904C13.1255 11.9277 12.9161 12.002 12.7003 12.0004ZM5.16944 7.7413V8.11434L7.49672 10.4606L9.82891 8.11855V7.7413H8.43071V5.78917H6.56693V7.7413H5.16944ZM7.49672 10.0188L5.54738 8.05544H6.87966V6.1005H8.12219V8.05264H9.45447L7.49742 10.016L7.49672 10.0188ZM12.6982 2.9998H2.29943V2.24951C2.29716 2.15102 2.31476 2.05307 2.35118 1.96153C2.3876 1.86998 2.44208 1.78671 2.51139 1.71668C2.58069 1.64666 2.6634 1.59131 2.75456 1.55395C2.84573 1.51659 2.94349 1.49798 3.042 1.49923H11.9549C12.0535 1.49798 12.1512 1.51659 12.2424 1.55395C12.3335 1.59131 12.4162 1.64666 12.4856 1.71668C12.5549 1.78671 12.6093 1.86998 12.6458 1.96153C12.6822 2.05307 12.6998 2.15102 12.6975 2.24951V2.9998H12.6982ZM11.2117 0.74965H3.78457C3.7824 0.651211 3.80007 0.553342 3.83653 0.461878C3.87299 0.370413 3.92749 0.287226 3.99678 0.217276C4.06608 0.147326 4.14875 0.0920441 4.23987 0.0547268C4.33099 0.0174096 4.42869 -0.00117931 4.52714 6.84035e-05H10.4691C10.5676 -0.00127729 10.6653 0.0172447 10.7565 0.0545275C10.8476 0.0918102 10.9304 0.147088 10.9997 0.217059C11.069 0.287029 11.1235 0.370255 11.1599 0.461764C11.1963 0.553272 11.2139 0.651185 11.2117 0.74965Z" fill="white"/>
</svg>
