<svg width="22" height="22" viewBox="0 0 22 22" fill="none" xmlns="http://www.w3.org/2000/svg">
<path d="M10.4497 20.8516H6.96634C2.94217 20.8516 1.14551 19.0549 1.14551 15.0307V11.5474C1.14551 7.52323 2.94217 5.72656 6.96634 5.72656H9.71634C10.0922 5.72656 10.4038 6.03823 10.4038 6.41406C10.4038 6.7899 10.0922 7.10156 9.71634 7.10156H6.96634C3.68467 7.10156 2.52051 8.26573 2.52051 11.5474V15.0307C2.52051 18.3124 3.68467 19.4766 6.96634 19.4766H10.4497C13.7313 19.4766 14.8955 18.3124 14.8955 15.0307V12.2807C14.8955 11.9049 15.2072 11.5932 15.583 11.5932C15.9588 11.5932 16.2705 11.9049 16.2705 12.2807V15.0307C16.2705 19.0549 14.4738 20.8516 10.4497 20.8516Z" fill="white"/>
<path d="M15.5825 12.9669H12.6492C10.0733 12.9669 9.02832 11.9219 9.02832 9.34604V6.41271C9.02832 6.13771 9.19332 5.88104 9.44999 5.78021C9.70665 5.67021 9.99999 5.73438 10.2017 5.92688L16.0683 11.7935C16.2608 11.986 16.325 12.2885 16.215 12.5452C16.1142 12.8019 15.8575 12.9669 15.5825 12.9669ZM10.4033 8.07188V9.34604C10.4033 11.1702 10.825 11.5919 12.6492 11.5919H13.9233L10.4033 8.07188Z" fill="white"/>
<path d="M14.2995 2.52344H10.6328C10.257 2.52344 9.94531 2.21177 9.94531 1.83594C9.94531 1.4601 10.257 1.14844 10.6328 1.14844H14.2995C14.6753 1.14844 14.987 1.4601 14.987 1.83594C14.987 2.21177 14.6753 2.52344 14.2995 2.52344Z" fill="white"/>
<path d="M6.41699 5.27344C6.04116 5.27344 5.72949 4.96177 5.72949 4.58594C5.72949 2.68844 7.26949 1.14844 9.16699 1.14844H11.5687C11.9445 1.14844 12.2562 1.4601 12.2562 1.83594C12.2562 2.21177 11.9445 2.52344 11.5687 2.52344H9.16699C8.03033 2.52344 7.10449 3.44927 7.10449 4.58594C7.10449 4.96177 6.79283 5.27344 6.41699 5.27344Z" fill="white"/>
<path d="M17.5908 16.2734C17.215 16.2734 16.9033 15.9618 16.9033 15.5859C16.9033 15.2101 17.215 14.8984 17.5908 14.8984C18.6358 14.8984 19.4792 14.0459 19.4792 13.0101V7.33594C19.4792 6.9601 19.7908 6.64844 20.1667 6.64844C20.5425 6.64844 20.8542 6.9601 20.8542 7.33594V13.0101C20.8542 14.8068 19.3875 16.2734 17.5908 16.2734Z" fill="white"/>
<path d="M20.167 8.02208H17.417C14.9787 8.02208 13.9795 7.02292 13.9795 4.58458V1.83458C13.9795 1.55958 14.1445 1.30292 14.4012 1.20208C14.6578 1.09208 14.9512 1.15625 15.1528 1.34875L20.6528 6.84875C20.8453 7.04125 20.9095 7.34375 20.7995 7.60042C20.6987 7.85708 20.442 8.02208 20.167 8.02208ZM15.3545 3.49375V4.58458C15.3545 6.26208 15.7395 6.64708 17.417 6.64708H18.5078L15.3545 3.49375Z" fill="white"/>
</svg>
