<svg width="32" height="32" viewBox="0 0 32 32" fill="none" xmlns="http://www.w3.org/2000/svg">
<path d="M24 6C24.2652 6 24.5196 6.10536 24.7071 6.29289C24.8946 6.48043 25 6.73478 25 7V9.92864C25 10.459 24.7893 10.9677 24.4143 11.3428L16.5855 19.1724C16.2112 19.5468 16.0006 20.0543 15.9998 20.5837L15.9978 21.995C15.9963 23.0996 16.8904 23.9963 17.995 23.9978L19.4109 23.9998C19.9423 24.0006 20.4522 23.7898 20.828 23.414L21.5858 22.6562C22.8457 21.3963 25 22.2886 25 24.0704V25C25 25.2652 24.8946 25.5196 24.7071 25.7071C24.5196 25.8946 24.2652 26 24 26H8C7.73478 26 7.48043 25.8946 7.29289 25.7071C7.10536 25.5196 7 25.2652 7 25V7C7 6.73478 7.10536 6.48043 7.29289 6.29289C7.48043 6.10536 7.73478 6 8 6H24ZM25.071 13.515C25.4615 13.1245 26.0945 13.1245 26.485 13.515V13.515C26.8755 13.9055 26.8755 14.5385 26.485 14.929L19.7077 21.7063C19.5197 21.8943 19.2641 21.9998 18.9982 21.9994V21.9994C18.4464 21.9986 17.9986 21.5507 17.9994 20.999V20.999C17.9998 20.7345 18.105 20.481 18.292 20.294L25.071 13.515ZM16 17C16 16.4477 15.5523 16 15 16H12C11.4477 16 11 16.4477 11 17V17C11 17.5523 11.4477 18 12 18H15C15.5523 18 16 17.5523 16 17V17ZM19 13C19 12.4477 18.5523 12 18 12H12C11.4477 12 11 12.4477 11 13V13C11 13.5523 11.4477 14 12 14H18C18.5523 14 19 13.5523 19 13V13Z" fill="#979AA3"/>
</svg>
