<svg width="24" height="24" viewBox="0 0 24 24" fill="none" xmlns="http://www.w3.org/2000/svg">
<path d="M19.3333 2.83325C19.5764 2.83325 19.8096 2.92983 19.9815 3.10174C20.1534 3.27365 20.25 3.5068 20.25 3.74992V6.36547C20.25 6.89587 20.0393 7.40454 19.6643 7.77961L12.5855 14.8592C12.2111 15.2336 12.0005 15.7411 11.9997 16.2705L11.9982 17.3287C11.9967 18.4332 12.8908 19.3299 13.9954 19.3315L15.0575 19.333C15.5889 19.3337 16.0988 19.123 16.4745 18.7472L16.8358 18.386C18.0957 17.126 20.25 18.0184 20.25 19.8002V20.2499C20.25 20.493 20.1534 20.7262 19.9815 20.8981C19.8096 21.07 19.5764 21.1666 19.3333 21.1666H4.66667C4.42355 21.1666 4.19039 21.07 4.01849 20.8981C3.84658 20.7262 3.75 20.493 3.75 20.2499V3.74992C3.75 3.5068 3.84658 3.27365 4.01849 3.10174C4.19039 2.92983 4.42355 2.83325 4.66667 2.83325H19.3333ZM20.3151 9.722C20.673 9.36408 21.2533 9.36407 21.6113 9.722V9.722C21.9692 10.0799 21.9692 10.6602 21.6112 11.0182L15.3987 17.2307C15.2264 17.4031 14.9921 17.4997 14.7483 17.4994V17.4994C14.2426 17.4987 13.8321 17.0881 13.8328 16.5823V16.5823C13.8331 16.3399 13.9296 16.1075 14.101 15.9361L20.3151 9.722ZM12 12.9166C12 12.4103 11.5896 11.9999 11.0833 11.9999H8.33333C7.82707 11.9999 7.41667 12.4103 7.41667 12.9166V12.9166C7.41667 13.4228 7.82707 13.8333 8.33333 13.8333H11.0833C11.5896 13.8333 12 13.4228 12 12.9166V12.9166ZM14.75 9.24992C14.75 8.74366 14.3396 8.33325 13.8333 8.33325H8.33333C7.82707 8.33325 7.41667 8.74366 7.41667 9.24992V9.24992C7.41667 9.75618 7.82707 10.1666 8.33333 10.1666H13.8333C14.3396 10.1666 14.75 9.75618 14.75 9.24992V9.24992Z" fill="white"/>
</svg>
