<svg width="39" height="39" viewBox="0 0 39 39" fill="none" xmlns="http://www.w3.org/2000/svg">
<path d="M19.0132 0C13.9706 0 9.13454 2.00317 5.56889 5.56882C2.00323 9.13448 6.48499e-05 13.9706 6.48499e-05 19.0132C6.48499e-05 24.0558 2.00323 28.8918 5.56889 32.4575C9.13454 36.0231 13.9706 38.0263 19.0132 38.0263H38.0264V19.0132C38.0264 13.9706 36.0232 9.13448 32.4575 5.56882C28.8919 2.00317 24.0558 0 19.0132 0Z" fill="white"/>
<path d="M19.1663 21.5H20.833V19H23.333V17.3333H20.833V14.8333H19.1663V17.3333H16.6663V19H19.1663V21.5ZM27.4997 11.5H12.4997C11.5747 11.5 10.833 12.2417 10.833 13.1667V23.1667C10.833 23.6087 11.0086 24.0326 11.3212 24.3452C11.6337 24.6577 12.0576 24.8333 12.4997 24.8333H16.6663V26.5H23.333V24.8333H27.4997C28.4163 24.8333 29.1663 24.0833 29.1663 23.1667V13.1667C29.1663 12.7246 28.9907 12.3007 28.6782 11.9882C28.3656 11.6756 27.9417 11.5 27.4997 11.5ZM27.4997 23.1667H12.4997V13.1667H27.4997V23.1667Z" fill="url(#paint0_linear_2799_26706)"/>
<defs>
<linearGradient id="paint0_linear_2799_26706" x1="6.65301" y1="9.235" x2="31.1217" y2="36.0183" gradientUnits="userSpaceOnUse">
<stop stop-color="#D51AFF"/>
<stop offset="0.502" stop-color="#4E6AFE"/>
<stop offset="1" stop-color="#8BF3FE"/>
</linearGradient>
</defs>
</svg>
