<svg width="20" height="20" viewBox="0 0 20 20" fill="none" xmlns="http://www.w3.org/2000/svg">
<path d="M8.73842 0.65625C7.14 0.656395 5.57752 1.13052 4.24855 2.01866C2.91958 2.9068 1.88381 4.16907 1.27222 5.64587C0.66063 7.12266 0.500686 8.74764 0.812612 10.3153C1.12454 11.883 1.89432 13.323 3.02463 14.4532C4.15494 15.5834 5.595 16.3531 7.16272 16.6649C8.73044 16.9767 10.3554 16.8166 11.8321 16.2048C13.3089 15.5931 14.5711 14.5572 15.4591 13.2282C16.3471 11.8991 16.8211 10.3366 16.8211 8.73818C16.8186 6.59536 15.9662 4.54105 14.4509 3.02592C12.9356 1.51079 10.8812 0.65858 8.73842 0.65625ZM8.73842 15.3293C7.43503 15.3292 6.16094 14.9425 5.07726 14.2183C3.99359 13.4941 3.14899 12.4648 2.65027 11.2606C2.15155 10.0564 2.0211 8.73135 2.27542 7.45301C2.52973 6.17466 3.15739 5.00043 4.07903 4.07879C5.00067 3.15715 6.17491 2.52949 7.45325 2.27517C8.7316 2.02085 10.0566 2.1513 11.2609 2.65003C12.4651 3.14875 13.4944 3.99334 14.2186 5.07702C14.9428 6.16069 15.3294 7.43478 15.3296 8.73818C15.3278 10.4857 14.6328 12.1612 13.3971 13.3969C12.1614 14.6326 10.486 15.3276 8.73842 15.3293Z" fill="white"/>
<path d="M18.791 17.7357L14.5138 13.4585C14.445 13.3871 14.3626 13.3301 14.2716 13.2908C14.1805 13.2516 14.0825 13.2309 13.9833 13.23C13.8842 13.229 13.7858 13.2479 13.694 13.2854C13.6023 13.3229 13.5188 13.3784 13.4487 13.4485C13.3786 13.5186 13.3232 13.602 13.2856 13.6938C13.2481 13.7856 13.2293 13.8839 13.2302 13.9831C13.2312 14.0823 13.2518 14.1802 13.2911 14.2713C13.3303 14.3624 13.3873 14.4447 13.4588 14.5135L17.736 18.7907C17.8768 18.9263 18.0651 19.0012 18.2606 18.9994C18.456 18.9975 18.6429 18.9191 18.7811 18.7809C18.9193 18.6427 18.9978 18.4557 18.9996 18.2603C19.0015 18.0649 18.9265 17.8765 18.791 17.7357Z" fill="white"/>
<path d="M8.73842 0.65625C7.14 0.656395 5.57752 1.13052 4.24855 2.01866C2.91958 2.9068 1.88381 4.16907 1.27222 5.64587C0.66063 7.12266 0.500686 8.74764 0.812612 10.3153C1.12454 11.883 1.89432 13.323 3.02463 14.4532C4.15494 15.5834 5.595 16.3531 7.16272 16.6649C8.73044 16.9767 10.3554 16.8166 11.8321 16.2048C13.3089 15.5931 14.5711 14.5572 15.4591 13.2282C16.3471 11.8991 16.8211 10.3366 16.8211 8.73818C16.8186 6.59536 15.9662 4.54105 14.4509 3.02592C12.9356 1.51079 10.8812 0.65858 8.73842 0.65625ZM8.73842 15.3293C7.43503 15.3292 6.16094 14.9425 5.07726 14.2183C3.99359 13.4941 3.14899 12.4648 2.65027 11.2606C2.15155 10.0564 2.0211 8.73135 2.27542 7.45301C2.52973 6.17466 3.15739 5.00043 4.07903 4.07879C5.00067 3.15715 6.17491 2.52949 7.45325 2.27517C8.7316 2.02085 10.0566 2.1513 11.2609 2.65003C12.4651 3.14875 13.4944 3.99334 14.2186 5.07702C14.9428 6.16069 15.3294 7.43478 15.3296 8.73818C15.3278 10.4857 14.6328 12.1612 13.3971 13.3969C12.1614 14.6326 10.486 15.3276 8.73842 15.3293Z" stroke="white"/>
<path d="M18.791 17.7357L14.5138 13.4585C14.445 13.3871 14.3626 13.3301 14.2716 13.2908C14.1805 13.2516 14.0825 13.2309 13.9833 13.23C13.8842 13.229 13.7858 13.2479 13.694 13.2854C13.6023 13.3229 13.5188 13.3784 13.4487 13.4485C13.3786 13.5186 13.3232 13.602 13.2856 13.6938C13.2481 13.7856 13.2293 13.8839 13.2302 13.9831C13.2312 14.0823 13.2518 14.1802 13.2911 14.2713C13.3303 14.3624 13.3873 14.4447 13.4588 14.5135L17.736 18.7907C17.8768 18.9263 18.0651 19.0012 18.2606 18.9994C18.456 18.9975 18.6429 18.9191 18.7811 18.7809C18.9193 18.6427 18.9978 18.4557 18.9996 18.2603C19.0015 18.0649 18.9265 17.8765 18.791 17.7357Z" stroke="white"/>
</svg>
