<svg width="16" height="16" viewBox="0 0 16 16" fill="none" xmlns="http://www.w3.org/2000/svg">
<path d="M14.0297 4.11331L9.70969 1.09081C8.53219 0.265805 6.72469 0.310805 5.59219 1.18831L1.83469 4.12081C1.08469 4.70581 0.492188 5.90581 0.492188 6.85081V12.0258C0.492188 13.9383 2.04469 15.4983 3.95719 15.4983H12.0422C13.9547 15.4983 15.5072 13.9458 15.5072 12.0333V6.94831C15.5072 5.93581 14.8547 4.69081 14.0297 4.11331ZM8.56219 12.4983C8.56219 12.8058 8.30719 13.0608 7.99969 13.0608C7.69219 13.0608 7.43719 12.8058 7.43719 12.4983V10.2483C7.43719 9.94081 7.69219 9.68581 7.99969 9.68581C8.30719 9.68581 8.56219 9.94081 8.56219 10.2483V12.4983Z" fill="white"/>
</svg>
