<svg width="17" height="14" viewBox="0 0 17 14" fill="none" xmlns="http://www.w3.org/2000/svg">
<path d="M8.30175 3.875C7.87146 3.87544 7.45583 4.03138 7.13145 4.31408C6.80706 4.59678 6.59578 4.9872 6.53653 5.41339C6.47728 5.83958 6.57406 6.27282 6.80903 6.63328C7.04401 6.99374 7.40134 7.25714 7.8152 7.37493V12.922C7.8152 13.051 7.86645 13.1748 7.9577 13.266C8.04895 13.3573 8.1727 13.4086 8.30175 13.4086C8.43079 13.4086 8.55455 13.3573 8.64579 13.266C8.73704 13.1748 8.78831 13.051 8.78831 12.922V7.37493C9.20216 7.25714 9.55949 6.99374 9.79447 6.63328C10.0294 6.27282 10.1262 5.83958 10.067 5.41339C10.0077 4.9872 9.79644 4.59678 9.47206 4.31408C9.14767 4.03138 8.73203 3.87544 8.30175 3.875ZM8.30175 6.46997C8.14136 6.46997 7.98458 6.42241 7.85122 6.3333C7.71786 6.2442 7.61393 6.11755 7.55255 5.96937C7.49117 5.82119 7.47511 5.65814 7.5064 5.50083C7.53769 5.34353 7.61493 5.19904 7.72834 5.08563C7.84175 4.97222 7.98624 4.89498 8.14355 4.86369C8.30085 4.8324 8.4639 4.84847 8.61207 4.90984C8.76025 4.97122 8.8869 5.07516 8.97601 5.20851C9.06511 5.34187 9.11268 5.49865 9.11268 5.65904C9.1124 5.87403 9.02687 6.08013 8.87485 6.23214C8.72283 6.38416 8.51673 6.46969 8.30175 6.46997Z" fill="white"/>
<path d="M6.0512 3.05591C5.96 2.96507 5.83652 2.91406 5.7078 2.91406C5.57908 2.91406 5.45561 2.96507 5.36442 3.05591C5.00557 3.41412 4.72088 3.83957 4.52664 4.30791C4.3324 4.77626 4.23242 5.27831 4.23242 5.78533C4.23242 6.29236 4.3324 6.79442 4.52664 7.26276C4.72088 7.73111 5.00557 8.15655 5.36442 8.51475C5.45723 8.59674 5.5778 8.64025 5.70158 8.63642C5.82536 8.63259 5.94302 8.58171 6.03059 8.49414C6.11815 8.40658 6.16903 8.28892 6.17286 8.16514C6.17669 8.04137 6.13318 7.92078 6.0512 7.82797C5.78297 7.55999 5.57018 7.24178 5.425 6.89152C5.27983 6.54125 5.2051 6.16581 5.2051 5.78666C5.2051 5.4075 5.27983 5.03206 5.425 4.68179C5.57018 4.33153 5.78297 4.01332 6.0512 3.74534C6.09658 3.70013 6.13258 3.64641 6.15715 3.58726C6.18172 3.52811 6.19437 3.46468 6.19437 3.40063C6.19437 3.33658 6.18172 3.27315 6.15715 3.214C6.13258 3.15485 6.09658 3.10112 6.0512 3.05591Z" fill="white"/>
<path d="M11.2403 3.0594C11.1475 2.97741 11.0269 2.9339 10.9032 2.93773C10.7794 2.94156 10.6617 2.99245 10.5742 3.08001C10.4866 3.16758 10.4357 3.28523 10.4319 3.40901C10.428 3.53279 10.4716 3.65337 10.5535 3.74618C11.0941 4.28801 11.3977 5.02213 11.3977 5.7875C11.3977 6.55286 11.0941 7.28698 10.5535 7.82881C10.4716 7.92163 10.428 8.04221 10.4319 8.16599C10.4357 8.28976 10.4866 8.40742 10.5742 8.49498C10.6617 8.58255 10.7794 8.63343 10.9032 8.63726C11.0269 8.64109 11.1475 8.59758 11.2403 8.5156C11.9632 7.7912 12.3693 6.80959 12.3693 5.78618C12.3693 4.76276 11.9632 3.78115 11.2403 3.05675V3.0594Z" fill="white"/>
<path d="M4.58069 2.2809C4.63048 2.23692 4.67073 2.18321 4.69897 2.12309C4.72721 2.06296 4.74284 1.99768 4.7449 1.93129C4.74695 1.86489 4.73539 1.79878 4.71092 1.73702C4.68645 1.67526 4.64959 1.61917 4.60262 1.57219C4.55565 1.52522 4.49955 1.48837 4.43779 1.4639C4.37604 1.43943 4.30992 1.42787 4.24353 1.42992C4.17713 1.43197 4.11186 1.4476 4.05173 1.47584C3.9916 1.50408 3.9379 1.54433 3.89392 1.59412C2.78242 2.7082 2.1582 4.21767 2.1582 5.7914C2.1582 7.36512 2.78242 8.87459 3.89392 9.98867C3.98673 10.0707 4.10731 10.1142 4.23108 10.1103C4.35486 10.1065 4.47252 10.0556 4.56009 9.96807C4.64765 9.8805 4.69853 9.76284 4.70236 9.63906C4.70619 9.51528 4.66268 9.3947 4.58069 9.30189C3.64998 8.37068 3.12716 7.10798 3.12716 5.7914C3.12716 4.47481 3.64998 3.21211 4.58069 2.2809Z" fill="white"/>
<path d="M12.7086 1.58631C12.6647 1.53653 12.611 1.49627 12.5508 1.46803C12.4907 1.43979 12.4254 1.42416 12.359 1.42211C12.2926 1.42005 12.2265 1.43162 12.1647 1.45609C12.103 1.48056 12.0469 1.51741 11.9999 1.56439C11.953 1.61136 11.9161 1.66745 11.8916 1.72921C11.8672 1.79097 11.8556 1.85708 11.8577 1.92348C11.8597 1.98988 11.8753 2.05515 11.9036 2.11528C11.9318 2.1754 11.9721 2.22911 12.0219 2.27309C12.9518 3.2042 13.4741 4.46633 13.4741 5.78227C13.4741 7.0982 12.9518 8.36034 12.0219 9.29144C11.9721 9.33542 11.9318 9.38913 11.9036 9.44926C11.8753 9.50938 11.8597 9.57466 11.8577 9.64105C11.8556 9.70745 11.8672 9.77356 11.8916 9.83532C11.9161 9.89708 11.953 9.95317 11.9999 10.0001C12.0469 10.0471 12.103 10.084 12.1647 10.1084C12.2265 10.1329 12.2926 10.1445 12.359 10.1424C12.4254 10.1404 12.4907 10.1247 12.5508 10.0965C12.611 10.0683 12.6647 10.028 12.7086 9.97822C13.8193 8.86425 14.443 7.35534 14.443 5.78227C14.443 4.20919 13.8193 2.70029 12.7086 1.58631Z" fill="white"/>
<path d="M3.11532 0.80868C3.19731 0.715869 3.24082 0.59529 3.23699 0.471512C3.23316 0.347735 3.18228 0.230075 3.09471 0.142509C3.00715 0.0549435 2.88949 0.00406207 2.76571 0.000232883C2.64193 -0.0035963 2.52135 0.0399155 2.42854 0.121901C1.66115 0.852474 1.05019 1.73134 0.632727 2.70517C0.215263 3.679 0 4.7275 0 5.78704C0 6.84657 0.215263 7.89507 0.632727 8.8689C1.05019 9.84273 1.66115 10.7216 2.42854 11.4522C2.47252 11.502 2.52623 11.5422 2.58636 11.5704C2.64648 11.5987 2.71176 11.6143 2.77815 11.6164C2.84455 11.6184 2.91067 11.6069 2.97242 11.5824C3.03418 11.5579 3.09027 11.5211 3.13725 11.4741C3.18422 11.4271 3.22108 11.371 3.24554 11.3093C3.27001 11.2475 3.28158 11.1814 3.27952 11.115C3.27747 11.0486 3.26184 10.9833 3.2336 10.9232C3.20536 10.8631 3.16511 10.8094 3.11532 10.7654C2.44231 10.1226 1.90661 9.35003 1.54061 8.49436C1.17462 7.63869 0.985914 6.71769 0.985914 5.78704C0.985914 4.85638 1.17462 3.93538 1.54061 3.07971C1.90661 2.22404 2.44231 1.45147 3.11532 0.80868Z" fill="white"/>
<path d="M14.1774 0.121901C14.0846 0.0399155 13.964 -0.0035963 13.8402 0.000232883C13.7164 0.00406207 13.5988 0.0549435 13.5112 0.142509C13.4236 0.230075 13.3728 0.347733 13.3689 0.47151C13.3651 0.595288 13.4086 0.715869 13.4906 0.80868C14.1632 1.45143 14.6986 2.22384 15.0643 3.07927C15.4301 3.93469 15.6186 4.85538 15.6186 5.78571C15.6186 6.71605 15.4301 7.63674 15.0643 8.49216C14.6986 9.34758 14.1632 10.12 13.4906 10.7627C13.4408 10.8067 13.4006 10.8604 13.3723 10.9206C13.3441 10.9807 13.3285 11.046 13.3264 11.1124C13.3244 11.1788 13.3359 11.2449 13.3604 11.3066C13.3848 11.3684 13.4217 11.4245 13.4687 11.4715C13.5157 11.5184 13.5717 11.5553 13.6335 11.5798C13.6953 11.6042 13.7614 11.6158 13.8278 11.6137C13.8942 11.6117 13.9594 11.596 14.0196 11.5678C14.0797 11.5396 14.1334 11.4993 14.1774 11.4495C14.9444 10.719 15.555 9.84028 15.9722 8.8667C16.3894 7.89311 16.6045 6.84493 16.6045 5.78571C16.6045 4.7265 16.3894 3.67831 15.9722 2.70473C15.555 1.73114 14.9444 0.85244 14.1774 0.121901Z" fill="white"/>
</svg>
