<svg width="5" height="16" viewBox="0 0 5 16" fill="none" xmlns="http://www.w3.org/2000/svg">
<path d="M3.90672 5.67969L0.240306 6.13931L0.10823 6.74791L0.828306 6.88105C1.29849 6.99357 1.392 7.16263 1.28951 7.63176L0.10823 13.1847C-0.201883 14.6207 0.27623 15.298 1.40204 15.298C2.27981 15.3019 3.12332 14.9576 3.7477 14.3407L3.88876 13.6745C3.57737 13.9259 3.1901 14.0646 2.78989 14.0681C2.34929 14.0681 2.18921 13.759 2.30332 13.2149L3.90672 5.67969Z" fill="white"/>
<path d="M4.01897 2.33566C4.01897 2.65236 3.92506 2.96195 3.74911 3.22528C3.57316 3.48861 3.32307 3.69385 3.03047 3.81505C2.73788 3.93625 2.41591 3.96796 2.1053 3.90617C1.79468 3.84439 1.50936 3.69188 1.28541 3.46794C1.06147 3.24399 0.908961 2.95867 0.847175 2.64805C0.785389 2.33743 0.8171 2.01547 0.938297 1.72287C1.05949 1.43028 1.26474 1.18019 1.52806 1.00424C1.79139 0.828289 2.10099 0.734375 2.41769 0.734375C2.84238 0.734375 3.24967 0.903081 3.54997 1.20338C3.85027 1.50368 4.01897 1.91097 4.01897 2.33566Z" fill="white"/>
</svg>
