<svg width="19" height="19" viewBox="0 0 19 19" fill="none" xmlns="http://www.w3.org/2000/svg">
<path d="M11.8747 18.013H7.12467C2.82592 18.013 0.989258 16.1764 0.989258 11.8776V7.1276C0.989258 2.82885 2.82592 0.992188 7.12467 0.992188H11.8747C16.1734 0.992188 18.0101 2.82885 18.0101 7.1276V11.8776C18.0101 16.1764 16.1734 18.013 11.8747 18.013ZM7.12467 2.17969C3.47509 2.17969 2.17676 3.47802 2.17676 7.1276V11.8776C2.17676 15.5272 3.47509 16.8255 7.12467 16.8255H11.8747C15.5243 16.8255 16.8226 15.5272 16.8226 11.8776V7.1276C16.8226 3.47802 15.5243 2.17969 11.8747 2.17969H7.12467Z" fill="white"/>
<path d="M13.8552 14.1172H12.3906C12.066 14.1172 11.7969 13.848 11.7969 13.5234C11.7969 13.1989 12.066 12.9297 12.3906 12.9297H13.8552C14.1798 12.9297 14.449 13.1989 14.449 13.5234C14.449 13.848 14.1798 14.1172 13.8552 14.1172Z" fill="white"/>
<path d="M10.2676 14.1172H5.14551C4.82092 14.1172 4.55176 13.848 4.55176 13.5234C4.55176 13.1989 4.82092 12.9297 5.14551 12.9297H10.2676C10.5922 12.9297 10.8613 13.1989 10.8613 13.5234C10.8613 13.848 10.6001 14.1172 10.2676 14.1172Z" fill="white"/>
<path d="M13.8535 11.1406H9.47559C9.151 11.1406 8.88184 10.8715 8.88184 10.5469C8.88184 10.2223 9.151 9.95312 9.47559 9.95312H13.8535C14.1781 9.95312 14.4473 10.2223 14.4473 10.5469C14.4473 10.8715 14.1781 11.1406 13.8535 11.1406Z" fill="white"/>
<path d="M7.33843 11.1406H5.14551C4.82092 11.1406 4.55176 10.8715 4.55176 10.5469C4.55176 10.2223 4.82092 9.95312 5.14551 9.95312H7.33843C7.66301 9.95312 7.93218 10.2223 7.93218 10.5469C7.93218 10.8715 7.66301 11.1406 7.33843 11.1406Z" fill="white"/>
</svg>
