<svg width="17" height="16" viewBox="0 0 17 16" fill="none" xmlns="http://www.w3.org/2000/svg">
<path d="M14.2048 9.375C13.9181 9.3754 13.6432 9.48951 13.4404 9.69228C13.2376 9.89506 13.1235 10.17 13.1231 10.4567C13.1223 10.9347 12.9321 11.3929 12.5941 11.7308C12.2561 12.0688 11.798 12.259 11.32 12.2598H5.54727C5.0693 12.259 4.61114 12.0688 4.27316 11.7308C3.93519 11.3929 3.74496 10.9347 3.74415 10.4567C3.74375 10.1701 3.62976 9.89529 3.42715 9.69254C3.22454 9.48979 2.94983 9.3756 2.66319 9.375H0.138672V14.0637C0.139478 14.5417 0.329707 14.9999 0.667684 15.3378C1.00566 15.6758 1.46382 15.866 1.94179 15.8668H14.9262C15.4042 15.866 15.8624 15.6758 16.2004 15.3378C16.5383 14.9999 16.7286 14.5417 16.7294 14.0637V9.375H14.2048Z" fill="white"/>
<path d="M10.1318 7.31952C10.0641 7.25211 9.97246 7.21427 9.87695 7.21427C9.78143 7.21427 9.68982 7.25211 9.62214 7.31952L8.79561 8.14604V0.360701C8.79561 0.265037 8.75761 0.173291 8.68996 0.105647C8.62232 0.0380025 8.53058 0 8.43492 0C8.33925 0 8.2475 0.0380025 8.17986 0.105647C8.11221 0.173291 8.07422 0.265037 8.07422 0.360701V9.01523C8.07428 9.08658 8.09552 9.15631 8.13526 9.21557C8.17499 9.27484 8.23143 9.32097 8.29742 9.34812C8.3411 9.36635 8.38797 9.37567 8.4353 9.37555C8.53068 9.37556 8.62218 9.33776 8.68973 9.27042L10.1325 7.82762C10.1994 7.75991 10.2368 7.66855 10.2366 7.57341C10.2365 7.47827 10.1988 7.38703 10.1318 7.31952Z" fill="white"/>
<path d="M16.3051 7.91053L13.7044 4.00948C13.4744 3.66301 13.1623 3.37883 12.7958 3.18225C12.4294 2.98567 12.02 2.8828 11.6042 2.88281H9.51613V6.55076C9.74752 6.46925 9.99973 6.46876 10.2314 6.54936C10.4631 6.62996 10.6606 6.78687 10.7914 6.99438C10.9223 7.2019 10.9788 7.44771 10.9516 7.69153C10.9245 7.93534 10.8153 8.1627 10.642 8.33636L9.19924 9.77916C9.01471 9.96545 8.76829 10.0776 8.50662 10.0945C8.24495 10.1113 7.98618 10.0317 7.77929 9.87057C7.7572 9.85382 7.73587 9.83629 7.7153 9.81801C7.69473 9.79973 7.68254 9.7944 7.66807 9.77993L6.22527 8.33713C6.04916 8.16458 5.93753 7.93687 5.90899 7.69198C5.88045 7.44709 5.93672 7.19982 6.06843 6.9914C6.20013 6.78297 6.3993 6.626 6.63272 6.54664C6.86615 6.46729 7.11973 6.47036 7.35117 6.55533V2.88281H5.66003C5.12255 2.88218 4.59336 3.01533 4.12019 3.27027C3.64701 3.52521 3.24474 3.89391 2.94963 4.34314L0.626981 7.86863C0.455472 8.1061 0.326587 8.3716 0.246094 8.65326H2.66321C3.14118 8.65406 3.59934 8.8443 3.93732 9.18227C4.27529 9.52025 4.46552 9.97841 4.46633 10.4564C4.46673 10.7431 4.58083 11.0181 4.7836 11.2208C4.98638 11.4236 5.26128 11.5377 5.54805 11.5381H11.3185C11.6053 11.5377 11.8802 11.4236 12.0829 11.2208C12.2857 11.0181 12.3998 10.7431 12.4002 10.4564C12.401 9.97841 12.5912 9.52025 12.9292 9.18227C13.2672 8.8443 13.7254 8.65406 14.2033 8.65326H16.6372C16.5677 8.38923 16.4555 8.13835 16.3051 7.91053Z" fill="white"/>
<path d="M8.69203 8.75918L7.24923 7.31638C7.21572 7.28291 7.17595 7.25638 7.13218 7.23829C7.08841 7.2202 7.04151 7.2109 6.99415 7.21094C6.94679 7.21097 6.8999 7.22033 6.85616 7.23849C6.81242 7.25664 6.77269 7.28324 6.73923 7.31675C6.70577 7.35026 6.67923 7.39004 6.66114 7.43381C6.64305 7.47758 6.63375 7.52447 6.63379 7.57183C6.63382 7.61919 6.64318 7.66608 6.66134 7.70982C6.67949 7.75356 6.70609 7.7933 6.7396 7.82676L8.18241 9.26956C8.24999 9.33715 8.34164 9.37511 8.43722 9.37511C8.53279 9.37511 8.62445 9.33715 8.69203 9.26956C8.75961 9.20198 8.79759 9.11032 8.79759 9.01475C8.79759 8.91917 8.75961 8.82751 8.69203 8.75993V8.75918Z" fill="white"/>
</svg>
