<svg width="16" height="17" viewBox="0 0 16 17" fill="none" xmlns="http://www.w3.org/2000/svg">
<path d="M15.0638 1.00532C14.8737 0.810434 14.634 0.671218 14.3705 0.602724C14.107 0.53423 13.8298 0.539065 13.5688 0.616706L1.13622 4.23323C0.864857 4.30747 0.620223 4.45739 0.430884 4.66547C0.241545 4.87355 0.115317 5.13121 0.0669421 5.40835C0.0359681 5.72348 0.0915426 6.04109 0.227681 6.32698C0.36382 6.61287 0.575365 6.85621 0.839538 7.0308L4.73033 9.42276C4.92389 9.54253 5.15238 9.593 5.37837 9.56591C5.60436 9.53882 5.81445 9.43577 5.97421 9.27365L10.4267 4.79259C10.4796 4.73734 10.5432 4.69338 10.6136 4.66334C10.6839 4.63331 10.7596 4.61782 10.8362 4.61782C10.9127 4.61782 10.9884 4.63331 11.0588 4.66334C11.1291 4.69338 11.1927 4.73734 11.2456 4.79259C11.3534 4.90274 11.4137 5.05069 11.4137 5.20477C11.4137 5.35885 11.3534 5.5068 11.2456 5.61695L6.78544 10.098C6.62458 10.26 6.52252 10.4711 6.4955 10.6978C6.46848 10.9244 6.51805 11.1536 6.63633 11.3488L9.01052 15.2767C9.14149 15.5008 9.32924 15.6863 9.55482 15.8146C9.7804 15.943 10.0358 16.0095 10.2953 16.0076C10.3598 16.0089 10.4243 16.0063 10.4885 15.9999C10.7805 15.9635 11.0554 15.8424 11.2793 15.6515C11.5032 15.4607 11.6664 15.2085 11.7486 14.926L15.4354 2.50648C15.5139 2.24599 15.5208 1.96921 15.4556 1.70512C15.3903 1.44102 15.2553 1.19932 15.0646 1.00532" fill="white"/>
</svg>
