<svg width="20" height="18" viewBox="0 0 20 18" fill="none" xmlns="http://www.w3.org/2000/svg">
<path d="M17.4247 6.45556C15.7655 6.45556 15.0872 5.28222 15.9122 3.84306C16.3888 3.00889 16.1047 1.94556 15.2705 1.46889L13.6847 0.561389C12.9605 0.130555 12.0255 0.387222 11.5947 1.11139L11.4938 1.28556C10.6688 2.72472 9.31217 2.72472 8.47801 1.28556L8.37717 1.11139C7.96467 0.387222 7.02967 0.130555 6.30551 0.561389L4.71967 1.46889C3.88551 1.94556 3.60134 3.01806 4.07801 3.85222C4.91217 5.28222 4.23384 6.45556 2.57467 6.45556C1.62134 6.45556 0.833008 7.23472 0.833008 8.19722V9.81055C0.833008 10.7639 1.61217 11.5522 2.57467 11.5522C4.23384 11.5522 4.91217 12.7256 4.07801 14.1647C3.60134 14.9989 3.88551 16.0622 4.71967 16.5389L6.30551 17.4464C7.02967 17.8772 7.96467 17.6206 8.39551 16.8964L8.49634 16.7222C9.32134 15.2831 10.678 15.2831 11.5122 16.7222L11.613 16.8964C12.0438 17.6206 12.9788 17.8772 13.703 17.4464L15.2888 16.5389C16.123 16.0622 16.4072 14.9897 15.9305 14.1647C15.0963 12.7256 15.7747 11.5522 17.4338 11.5522C18.3872 11.5522 19.1755 10.7731 19.1755 9.81055V8.19722C19.1663 7.24389 18.3872 6.45556 17.4247 6.45556ZM9.99967 11.9831C8.35884 11.9831 7.02051 10.6447 7.02051 9.00389C7.02051 7.36305 8.35884 6.02472 9.99967 6.02472C11.6405 6.02472 12.9788 7.36305 12.9788 9.00389C12.9788 10.6447 11.6405 11.9831 9.99967 11.9831Z" fill="white"/>
</svg>
