<svg width="102" height="102" viewBox="0 0 102 102" fill="none" xmlns="http://www.w3.org/2000/svg">
<circle opacity="0.2" cx="51" cy="51" r="51" fill="#4E6AFE"/>
<circle cx="50.9999" cy="51.0019" r="35.8378" fill="url(#paint0_linear_8563_33044)"/>
<path d="M29.5 52.5L37.2967 59.5677C38.1525 60.3435 39.4855 60.2352 40.2048 59.3315L54 42" stroke="white" stroke-width="6" stroke-linecap="round"/>
<path d="M52.9693 55.7141L50.7062 53.7448L46.7675 58.2711L49.0307 60.2404L52.9693 55.7141ZM71.3833 43.8221C72.3896 42.5059 72.1383 40.6231 70.8221 39.6167C69.5059 38.6104 67.6231 38.8617 66.6167 40.1779L71.3833 43.8221ZM52.8662 59.6012L50.8969 61.8643L52.8662 59.6012ZM55.7679 59.3072L53.3847 57.4851L55.7679 59.3072ZM49.0307 60.2404L50.8969 61.8643L54.8355 57.3381L52.9693 55.7141L49.0307 60.2404ZM58.1512 61.1293L71.3833 43.8221L66.6167 40.1779L53.3847 57.4851L58.1512 61.1293ZM50.8969 61.8643C53.074 63.7588 56.3983 63.4219 58.1512 61.1293L53.3847 57.4851C53.7352 57.0265 54.4001 56.9592 54.8355 57.3381L50.8969 61.8643Z" fill="white"/>
<defs>
<linearGradient id="paint0_linear_8563_33044" x1="124.754" y1="-4.18836" x2="-56.0118" y2="93.0755" gradientUnits="userSpaceOnUse">
<stop stop-color="#88EDFE"/>
<stop offset="0.489" stop-color="#625EFE"/>
<stop offset="1" stop-color="#C224FE"/>
</linearGradient>
</defs>
</svg>
