<svg width="14" height="12" viewBox="0 0 14 12" fill="none" xmlns="http://www.w3.org/2000/svg">
<path d="M11.9938 4.92906H8.30239C8.24482 4.92906 8.18961 4.90653 8.14891 4.86641C8.1082 4.82629 8.08533 4.77188 8.08533 4.71515V1.07724C8.08533 0.793479 7.97095 0.521342 7.76735 0.320695C7.56376 0.120047 7.28762 0.00732422 6.99969 0.00732422C6.71175 0.00732422 6.43562 0.120047 6.23202 0.320695C6.02842 0.521342 5.91404 0.793479 5.91404 1.07724V4.71515C5.91404 4.77188 5.89117 4.82629 5.85046 4.86641C5.80976 4.90653 5.75455 4.92906 5.69698 4.92906H2.00557C1.71764 4.92906 1.4415 5.04179 1.2379 5.24243C1.0343 5.44308 0.919922 5.71522 0.919922 5.99898C0.919922 6.28273 1.0343 6.55487 1.2379 6.75552C1.4415 6.95617 1.71764 7.06889 2.00557 7.06889H5.69698C5.75455 7.06889 5.80976 7.09143 5.85046 7.13154C5.89117 7.17166 5.91404 7.22607 5.91404 7.2828V10.9207C5.91404 11.2045 6.02842 11.4766 6.23202 11.6773C6.43562 11.8779 6.71175 11.9906 6.99969 11.9906C7.28762 11.9906 7.56376 11.8779 7.76735 11.6773C7.97095 11.4766 8.08533 11.2045 8.08533 10.9207V7.2828C8.08533 7.22607 8.1082 7.17166 8.14891 7.13154C8.18961 7.09143 8.24482 7.06889 8.30239 7.06889H11.9938C12.2817 7.06889 12.5579 6.95617 12.7615 6.75552C12.9651 6.55487 13.0795 6.28273 13.0795 5.99898C13.0795 5.71522 12.9651 5.44308 12.7615 5.24243C12.5579 5.04179 12.2817 4.92906 11.9938 4.92906Z" fill="url(#paint0_linear_7707_24195)"/>
<defs>
<linearGradient id="paint0_linear_7707_24195" x1="10.6597" y1="1.50524" x2="2.31576" y2="9.66777" gradientUnits="userSpaceOnUse">
<stop stop-color="#88EDFE"/>
<stop offset="0.489" stop-color="#625EFE"/>
<stop offset="1" stop-color="#C224FE"/>
</linearGradient>
</defs>
</svg>
