<svg width="24" height="24" viewBox="0 0 24 24" fill="none" xmlns="http://www.w3.org/2000/svg">
<path d="M7.81 22H16.19C19.83 22 22 19.83 22 16.19V7.82C22 4.17 19.83 2 16.19 2H7.82C4.18 2 2.01 4.17 2.01 7.81V16.19C2 19.83 4.17 22 7.81 22ZM10.21 9C9.92 8.71 9.92 8.23 10.21 7.94C10.36 7.79 10.55 7.72 10.74 7.72C10.93 7.72 11.12 7.79 11.27 7.94L14.8 11.47C15.09 11.76 15.09 12.24 14.8 12.53L11.27 16.06C10.98 16.35 10.5 16.35 10.21 16.06C9.92 15.77 9.92 15.29 10.21 15L13.21 12L10.21 9Z" fill="white"/>
</svg>
