<svg width="334" height="172" viewBox="0 0 334 172" fill="none" xmlns="http://www.w3.org/2000/svg">
<rect x="0.0625" width="333" height="172" rx="10" fill="url(#paint0_linear_6128_14220)"/>
<path d="M177.135 62H157.013C148.273 62 143.062 67.208 143.062 75.944V96.032C143.062 104.792 148.273 110 157.013 110H177.111C185.852 110 191.062 104.792 191.062 96.056V75.944C191.086 67.208 185.876 62 177.135 62ZM179.369 80.72C179.369 82.184 178.744 83.48 177.688 84.248C177.015 84.728 176.199 84.992 175.335 84.992C174.83 84.992 174.326 84.896 173.798 84.728L168.299 82.904C168.275 82.904 168.227 82.88 168.203 82.856V93.8C168.203 97.496 165.178 100.52 161.48 100.52C157.782 100.52 154.756 97.496 154.756 93.8C154.756 90.104 157.782 87.08 161.48 87.08C162.656 87.08 163.737 87.416 164.697 87.92V77.912V76.448C164.697 74.984 165.322 73.688 166.378 72.92C167.459 72.152 168.875 71.96 170.268 72.44L175.767 74.264C177.832 74.96 179.393 77.12 179.393 79.28V80.72H179.369Z" fill="white"/>
<defs>
<linearGradient id="paint0_linear_6128_14220" x1="-75.8615" y1="-25.972" x2="167.987" y2="396.832" gradientUnits="userSpaceOnUse">
<stop stop-color="#D51AFF"/>
<stop offset="0.502" stop-color="#4E6AFE"/>
<stop offset="1" stop-color="#8BF3FE"/>
</linearGradient>
</defs>
</svg>
