<svg width="16" height="16" viewBox="0 0 16 16" fill="none" xmlns="http://www.w3.org/2000/svg">
<g opacity="0.4">
<path d="M6.13875 9.53125C5.54645 9.53125 5.07422 10.0113 5.07422 10.6033C5.07422 11.1953 5.55446 11.6673 6.13875 11.6673C6.73104 11.6673 7.21128 11.1873 7.21128 10.6033C7.21128 10.0113 6.73104 9.53125 6.13875 9.53125Z" fill="#303548"/>
<path d="M11.3577 0H4.65032C1.73687 0 0 1.736 0 4.648V11.344C0 14.264 1.73687 16 4.65032 16H11.3497C14.2631 16 16 14.264 16 11.352V4.648C16.008 1.736 14.2711 0 11.3577 0ZM12.102 6.24C12.102 6.728 11.8939 7.16 11.5418 7.416C11.3176 7.576 11.0455 7.664 10.7574 7.664C10.5893 7.664 10.4212 7.632 10.2451 7.576L8.41219 6.968C8.40419 6.968 8.38818 6.96 8.38018 6.952V10.6C8.38018 11.832 7.37167 12.84 6.13906 12.84C4.90645 12.84 3.89794 11.832 3.89794 10.6C3.89794 9.368 4.90645 8.36 6.13906 8.36C6.53125 8.36 6.89143 8.472 7.21159 8.64V5.304V4.816C7.21159 4.328 7.4197 3.896 7.77187 3.64C8.13205 3.384 8.60429 3.32 9.06852 3.48L10.9014 4.088C11.5898 4.32 12.11 5.04 12.11 5.76V6.24H12.102Z" fill="#303548"/>
</g>
</svg>
