<svg width="12" height="16" viewBox="0 0 12 16" fill="none" xmlns="http://www.w3.org/2000/svg">
<g opacity="0.4">
<path d="M6 4.8V0H1.5C1.10218 0 0.720644 0.168571 0.43934 0.468629C0.158035 0.768687 0 1.17565 0 1.6V14.4C0 14.8243 0.158035 15.2313 0.43934 15.5314C0.720644 15.8314 1.10218 16 1.5 16H10.5C10.8978 16 11.2794 15.8314 11.5607 15.5314C11.842 15.2313 12 14.8243 12 14.4V6.4H7.5C7.10218 6.4 6.72064 6.23143 6.43934 5.93137C6.15804 5.63131 6 5.22435 6 4.8ZM2.25 8.2C2.25 8.04087 2.30926 7.88826 2.41475 7.77574C2.52024 7.66321 2.66332 7.6 2.8125 7.6C2.96168 7.6 3.10476 7.66321 3.21025 7.77574C3.31574 7.88826 3.375 8.04087 3.375 8.2C3.375 8.35913 3.31574 8.51174 3.21025 8.62426C3.10476 8.73679 2.96168 8.8 2.8125 8.8C2.66332 8.8 2.52024 8.73679 2.41475 8.62426C2.30926 8.51174 2.25 8.35913 2.25 8.2ZM2.25 10.6C2.25 10.4409 2.30926 10.2883 2.41475 10.1757C2.52024 10.0632 2.66332 10 2.8125 10C2.96168 10 3.10476 10.0632 3.21025 10.1757C3.31574 10.2883 3.375 10.4409 3.375 10.6C3.375 10.7591 3.31574 10.9117 3.21025 11.0243C3.10476 11.1368 2.96168 11.2 2.8125 11.2C2.66332 11.2 2.52024 11.1368 2.41475 11.0243C2.30926 10.9117 2.25 10.7591 2.25 10.6ZM2.25 13C2.25 12.8409 2.30926 12.6883 2.41475 12.5757C2.52024 12.4632 2.66332 12.4 2.8125 12.4C2.96168 12.4 3.10476 12.4632 3.21025 12.5757C3.31574 12.6883 3.375 12.8409 3.375 13C3.375 13.1591 3.31574 13.3117 3.21025 13.4243C3.10476 13.5368 2.96168 13.6 2.8125 13.6C2.66332 13.6 2.52024 13.5368 2.41475 13.4243C2.30926 13.3117 2.25 13.1591 2.25 13ZM4.5 8.2C4.5 8.04087 4.55926 7.88826 4.66475 7.77574C4.77024 7.66321 4.91332 7.6 5.0625 7.6H9.1875C9.33668 7.6 9.47976 7.66321 9.58525 7.77574C9.69074 7.88826 9.75 8.04087 9.75 8.2C9.75 8.35913 9.69074 8.51174 9.58525 8.62426C9.47976 8.73679 9.33668 8.8 9.1875 8.8H5.0625C4.91332 8.8 4.77024 8.73679 4.66475 8.62426C4.55926 8.51174 4.5 8.35913 4.5 8.2ZM4.5 10.6C4.5 10.4409 4.55926 10.2883 4.66475 10.1757C4.77024 10.0632 4.91332 10 5.0625 10H9.1875C9.33668 10 9.47976 10.0632 9.58525 10.1757C9.69074 10.2883 9.75 10.4409 9.75 10.6C9.75 10.7591 9.69074 10.9117 9.58525 11.0243C9.47976 11.1368 9.33668 11.2 9.1875 11.2H5.0625C4.91332 11.2 4.77024 11.1368 4.66475 11.0243C4.55926 10.9117 4.5 10.7591 4.5 10.6ZM4.5 13C4.5 12.8409 4.55926 12.6883 4.66475 12.5757C4.77024 12.4632 4.91332 12.4 5.0625 12.4H9.1875C9.33668 12.4 9.47976 12.4632 9.58525 12.5757C9.69074 12.6883 9.75 12.8409 9.75 13C9.75 13.1591 9.69074 13.3117 9.58525 13.4243C9.47976 13.5368 9.33668 13.6 9.1875 13.6H5.0625C4.91332 13.6 4.77024 13.5368 4.66475 13.4243C4.55926 13.3117 4.5 13.1591 4.5 13Z" fill="#303548"/>
<path d="M7.12695 4.79844V0.398438L11.627 5.19844H7.50195C7.4025 5.19844 7.30711 5.15629 7.23679 5.08128C7.16646 5.00627 7.12695 4.90452 7.12695 4.79844Z" fill="#303548"/>
</g>
</svg>
