<svg width="16" height="16" viewBox="0 0 16 16" fill="none" xmlns="http://www.w3.org/2000/svg">
<g opacity="0.4">
<path d="M11.5382 14.4643H1.53842V4.46452C1.53842 4.04146 1.19228 3.69531 0.769212 3.69531C0.346145 3.69531 0 4.04146 0 4.46452V14.4643C0 15.3104 0.69229 16.0027 1.53842 16.0027H11.5382C11.9612 16.0027 12.3074 15.6566 12.3074 15.2335C12.3074 14.8104 11.9612 14.4643 11.5382 14.4643Z" fill="#303548"/>
<path d="M14.4604 0H5.22983C4.3837 0 3.69141 0.69229 3.69141 1.53842V10.769C3.69141 11.6151 4.3837 12.3074 5.22983 12.3074H14.4604C15.3065 12.3074 15.9988 11.6151 15.9988 10.769V1.53842C15.9988 0.69229 15.3065 0 14.4604 0ZM9.85279 9.99975C9.39896 9.99975 9.04512 9.63822 9.04512 9.19208C9.04512 8.73824 9.40665 8.3921 9.85279 8.3921C10.3066 8.3921 10.6528 8.73824 10.6528 9.19208C10.6451 9.63822 10.3066 9.99975 9.85279 9.99975ZM11.7758 5.25371C11.2912 5.96908 10.8297 6.18446 10.5758 6.64599C10.5143 6.75368 10.4759 6.84598 10.4528 7.0229C10.4143 7.32289 10.1759 7.54597 9.87587 7.54597H9.85279C9.51434 7.54597 9.24511 7.25366 9.27588 6.91521C9.29896 6.69983 9.34511 6.47676 9.46818 6.26907C9.78356 5.70755 10.3759 5.37679 10.722 4.88449C11.0912 4.36143 10.8835 3.39222 9.8451 3.39222C9.37588 3.39222 9.06819 3.63837 8.87589 3.93067C8.72974 4.15374 8.43744 4.23066 8.19129 4.12297C7.86823 3.98452 7.72977 3.58453 7.92976 3.29992C8.32206 2.7307 8.97589 2.30763 9.83741 2.30763C10.7835 2.30763 11.4374 2.73839 11.7681 3.27684C12.0527 3.74606 12.2143 4.60758 11.7758 5.25371Z" fill="#303548"/>
</g>
</svg>
