<svg width="16" height="10" viewBox="0 0 16 10" fill="none" xmlns="http://www.w3.org/2000/svg">
<g opacity="0.4">
<path d="M14.9328 9.4601C14.7834 9.46002 14.6358 9.42727 14.4993 9.36399C14.4676 9.3493 14.4373 9.33136 14.4089 9.31045L11.6513 7.28568C11.5116 7.18308 11.3976 7.04702 11.319 6.88897C11.2403 6.73092 11.1992 6.5555 11.1992 6.37747V3.62058C11.1993 3.44249 11.2405 3.26703 11.3192 3.10898C11.398 2.95092 11.5121 2.8149 11.6519 2.71237L14.4095 0.687601C14.4379 0.666686 14.4682 0.648752 14.4999 0.634063C14.6627 0.55906 14.8409 0.527667 15.0183 0.542743C15.1957 0.557818 15.3667 0.618883 15.5157 0.720376C15.6646 0.821869 15.7869 0.960565 15.8712 1.12383C15.9555 1.2871 15.9993 1.46975 15.9986 1.65516V8.34547C15.9986 8.64023 15.8862 8.92292 15.6861 9.13135C15.486 9.33978 15.2146 9.45687 14.9316 9.45687L14.9328 9.4601Z" fill="#303548"/>
<path d="M8.40104 10H2.26653C1.66561 9.99932 1.08949 9.75037 0.664577 9.30777C0.239661 8.86518 0.00065567 8.26509 0 7.63917V2.36083C0.00065567 1.73491 0.239661 1.13482 0.664577 0.692226C1.08949 0.249632 1.66561 0.000682949 2.26653 0H8.41652C9.01334 0.00068294 9.58552 0.247933 10.0075 0.687503C10.4295 1.12707 10.6669 1.72306 10.6676 2.34471V7.63917C10.6669 8.26509 10.4279 8.86518 10.003 9.30777C9.57808 9.75037 9.00196 9.99932 8.40104 10Z" fill="#303548"/>
</g>
</svg>
