<svg width="20" height="20" viewBox="0 0 20 20" fill="none" xmlns="http://www.w3.org/2000/svg">
<g opacity="0.4">
<path d="M2.15065 15.8453L2.13398 15.862C1.90898 15.3703 1.76732 14.812 1.70898 14.1953C1.76732 14.8036 1.92565 15.3536 2.15065 15.8453Z" fill="#303548"/>
<path d="M7.50091 8.64635C8.59628 8.64635 9.48425 7.75839 9.48425 6.66302C9.48425 5.56766 8.59628 4.67969 7.50091 4.67969C6.40555 4.67969 5.51758 5.56766 5.51758 6.66302C5.51758 7.75839 6.40555 8.64635 7.50091 8.64635Z" fill="#303548"/>
<path d="M13.491 1.66406H6.50768C3.47435 1.66406 1.66602 3.4724 1.66602 6.50573V13.4891C1.66602 14.3974 1.82435 15.1891 2.13268 15.8557C2.84935 17.4391 4.38268 18.3307 6.50768 18.3307H13.491C16.5244 18.3307 18.3327 16.5224 18.3327 13.4891V11.5807V6.50573C18.3327 3.4724 16.5244 1.66406 13.491 1.66406ZM16.9744 10.4141C16.3244 9.85573 15.2743 9.85573 14.6243 10.4141L11.1577 13.3891C10.5077 13.9474 9.45768 13.9474 8.80768 13.3891L8.52435 13.1557C7.93268 12.6391 6.99102 12.5891 6.32435 13.0391L3.20768 15.1307C3.02435 14.6641 2.91602 14.1224 2.91602 13.4891V6.50573C2.91602 4.15573 4.15768 2.91406 6.50768 2.91406H13.491C15.841 2.91406 17.0827 4.15573 17.0827 6.50573V10.5057L16.9744 10.4141Z" fill="#303548"/>
</g>
</svg>
