<svg width="102" height="102" viewBox="0 0 102 102" fill="none" xmlns="http://www.w3.org/2000/svg">
<circle opacity="0.2" cx="51" cy="51" r="51" fill="#4E6AFE"/>
<circle cx="50.9999" cy="51.0019" r="35.8378" fill="url(#paint0_linear_8563_33076)"/>
<path d="M64.7838 38.5961H60.6487V37.2177C60.6487 36.8522 60.5035 36.5016 60.245 36.2431C59.9865 35.9846 59.6359 35.8394 59.2703 35.8394H42.7298C42.3642 35.8394 42.0136 35.9846 41.7551 36.2431C41.4966 36.5016 41.3514 36.8522 41.3514 37.2177V38.5961H37.2163C36.8507 38.5961 36.5001 38.7413 36.2416 38.9998C35.9831 39.2583 35.8379 39.6089 35.8379 39.9745V42.7312C35.8429 44.3818 36.4408 45.9757 37.5227 47.2223C38.6046 48.4689 40.0984 49.2852 41.7318 49.5225C42.2465 51.3066 43.2644 52.9045 44.6637 54.1251C46.0629 55.3456 47.7843 56.1371 49.6217 56.4048V59.2718H44.1082C43.8188 59.2717 43.5367 59.3627 43.3019 59.532C43.0671 59.7012 42.8915 59.94 42.8001 60.2146L41.4217 64.3497C41.3527 64.5569 41.3339 64.7776 41.3669 64.9935C41.3999 65.2094 41.4837 65.4144 41.6114 65.5915C41.7392 65.7687 41.9072 65.9129 42.1016 66.0124C42.2961 66.1119 42.5114 66.1637 42.7298 66.1637H59.2703C59.4886 66.1635 59.7037 66.1115 59.898 66.0119C60.0923 65.9124 60.2601 65.7681 60.3877 65.591C60.5153 65.4138 60.599 65.209 60.6319 64.9932C60.6648 64.7774 60.646 64.5568 60.577 64.3497L59.1986 60.2146C59.1073 59.9402 58.9319 59.7016 58.6974 59.5324C58.4629 59.3632 58.1811 59.272 57.8919 59.2718H52.3784V56.4048C54.2158 56.1371 55.9372 55.3456 57.3364 54.1251C58.7357 52.9045 59.7536 51.3066 60.2683 49.5225C61.9017 49.2852 63.3955 48.4689 64.4774 47.2223C65.5593 45.9757 66.1572 44.3818 66.1622 42.7312V39.9745C66.1622 39.6089 66.017 39.2583 65.7585 38.9998C65.5 38.7413 65.1494 38.5961 64.7838 38.5961ZM41.3514 46.6307C40.5457 46.3446 39.8483 45.8162 39.3547 45.1181C38.8612 44.4199 38.5957 43.5862 38.5946 42.7312V41.3529H41.3514V46.6307ZM56.8981 62.0285L57.3571 63.4069H44.6416L45.102 62.0285H56.8981ZM57.8919 46.8664C57.8919 48.6942 57.1658 50.4472 55.8734 51.7397C54.5809 53.0322 52.8279 53.7583 51.0001 53.7583C49.1722 53.7583 47.4192 53.0322 46.1267 51.7397C44.8343 50.4472 44.1082 48.6942 44.1082 46.8664V38.5961H57.8919V46.8664ZM63.4055 42.7312C63.4044 43.5862 63.1389 44.4199 62.6454 45.1181C62.1518 45.8162 61.4544 46.3446 60.6487 46.6307V41.3529H63.4055V42.7312ZM49.1627 46.4074L46.8649 44.5121L49.6217 44.1096L51.0001 41.3529L52.3784 44.1096L55.1352 44.5121L52.8374 46.4074L53.5556 49.6231L51.0001 47.7858L48.4445 49.6231L49.1627 46.4074Z" fill="white"/>
<defs>
<linearGradient id="paint0_linear_8563_33076" x1="124.754" y1="-4.18836" x2="-56.0118" y2="93.0755" gradientUnits="userSpaceOnUse">
<stop stop-color="#88EDFE"/>
<stop offset="0.489" stop-color="#625EFE"/>
<stop offset="1" stop-color="#C224FE"/>
</linearGradient>
</defs>
</svg>
