<svg width="32" height="32" viewBox="0 0 32 32" fill="none" xmlns="http://www.w3.org/2000/svg">
<circle cx="16" cy="16" r="16" fill="#303548"/>
<path d="M22.3128 19.7087C22.1696 19.7086 22.0281 19.6785 21.8973 19.6202C21.8668 19.6067 21.8378 19.5902 21.8106 19.571L19.1677 17.7079C19.0338 17.6135 18.9245 17.4883 18.8491 17.3429C18.7737 17.1974 18.7344 17.036 18.7344 16.8722V14.3355C18.7344 14.1716 18.7739 14.0101 18.8494 13.8647C18.9249 13.7193 19.0343 13.5941 19.1682 13.4998L21.8112 11.6367C21.8384 11.6174 21.8674 11.6009 21.8979 11.5874C22.0539 11.5184 22.2247 11.4895 22.3947 11.5034C22.5648 11.5173 22.7286 11.5734 22.8714 11.6668C23.0142 11.7602 23.1313 11.8878 23.2121 12.0381C23.293 12.1883 23.3349 12.3564 23.3342 12.527V18.6831C23.3342 18.9543 23.2265 19.2144 23.0347 19.4062C22.8429 19.598 22.5828 19.7057 22.3116 19.7057L22.3128 19.7087Z" fill="white"/>
<path d="M16.0518 20.2015H10.1723C9.59637 20.2008 9.0442 19.9718 8.63695 19.5645C8.2297 19.1573 8.00063 18.6051 8 18.0292V13.1723C8.00063 12.5964 8.2297 12.0442 8.63695 11.637C9.0442 11.2297 9.59637 11.0006 10.1723 11H16.0667C16.6387 11.0006 17.1871 11.2281 17.5915 11.6326C17.996 12.0371 18.2235 12.5855 18.2241 13.1575V18.0292C18.2235 18.6051 17.9944 19.1573 17.5872 19.5645C17.1799 19.9718 16.6278 20.2008 16.0518 20.2015Z" fill="white"/>
</svg>
