<svg width="24" height="24" viewBox="0 0 24 24" fill="none" xmlns="http://www.w3.org/2000/svg">
<path d="M18.465 12.8025C18.18 12.8025 17.94 12.585 17.9025 12.3C17.7225 10.605 16.8075 9.06752 15.3975 8.09252C15.1425 7.91252 15.0825 7.56752 15.255 7.31252C15.435 7.05752 15.7875 6.99752 16.035 7.17002C17.715 8.33252 18.795 10.1625 19.0125 12.18C19.0425 12.4875 18.825 12.765 18.51 12.8025C18.5025 12.8025 18.48 12.8025 18.465 12.8025Z" fill="white"/>
<path d="M5.61749 12.8399C5.59499 12.8399 5.57999 12.8399 5.55749 12.8399C5.24999 12.8024 5.02499 12.5249 5.05499 12.2174C5.25749 10.1999 6.32999 8.37745 7.98749 7.19995C8.24249 7.01995 8.59499 7.07995 8.77499 7.33495C8.95499 7.58995 8.89499 7.94245 8.63999 8.12245C7.24499 9.10495 6.34499 10.6424 6.17249 12.3374C6.14999 12.6224 5.90249 12.8399 5.61749 12.8399Z" fill="white"/>
<path d="M12.045 19.9575C10.935 19.9575 9.87747 19.7025 8.88747 19.2075C8.60997 19.065 8.49747 18.7275 8.63997 18.45C8.78247 18.1725 9.11997 18.06 9.39747 18.2025C11.0175 19.02 12.9675 19.035 14.6025 18.2475C14.88 18.1125 15.2175 18.2325 15.3525 18.51C15.4875 18.7875 15.3675 19.125 15.09 19.26C14.13 19.725 13.11 19.9575 12.045 19.9575Z" fill="white"/>
<path d="M12.045 9.32991C10.5825 9.32991 9.39752 8.14491 9.39752 6.68241C9.39752 5.21991 10.5825 4.03491 12.045 4.03491C13.5075 4.03491 14.6925 5.21991 14.6925 6.68241C14.6925 8.14491 13.5 9.32991 12.045 9.32991ZM12.045 5.16741C11.205 5.16741 10.5225 5.84991 10.5225 6.68991C10.5225 7.52991 11.205 8.21241 12.045 8.21241C12.885 8.21241 13.5675 7.52991 13.5675 6.68991C13.5675 5.84991 12.8775 5.16741 12.045 5.16741Z" fill="white"/>
<path d="M6.62248 18.5025C5.15998 18.5025 3.97498 17.3175 3.97498 15.855C3.97498 14.4 5.15998 13.2075 6.62248 13.2075C8.08498 13.2075 9.26998 14.3925 9.26998 15.855C9.26998 17.31 8.08498 18.5025 6.62248 18.5025ZM6.62248 14.3325C5.78248 14.3325 5.09998 15.015 5.09998 15.855C5.09998 16.695 5.78248 17.3775 6.62248 17.3775C7.46248 17.3775 8.14498 16.695 8.14498 15.855C8.14498 15.015 7.46248 14.3325 6.62248 14.3325Z" fill="white"/>
<path d="M17.3775 18.5025C15.915 18.5025 14.73 17.3175 14.73 15.855C14.73 14.4 15.915 13.2075 17.3775 13.2075C18.84 13.2075 20.025 14.3925 20.025 15.855C20.0175 17.31 18.8325 18.5025 17.3775 18.5025ZM17.3775 14.3325C16.5375 14.3325 15.855 15.015 15.855 15.855C15.855 16.695 16.5375 17.3775 17.3775 17.3775C18.2175 17.3775 18.9 16.695 18.9 15.855C18.8925 15.015 18.2175 14.3325 17.3775 14.3325Z" fill="white"/>
</svg>
