<svg width="16" height="20" viewBox="0 0 16 20" fill="none" xmlns="http://www.w3.org/2000/svg">
<g opacity="0.4">
<path d="M8.28655 19.818L2.3704 12.8408C2.2882 12.736 2.20684 12.6306 2.12635 12.5245C1.11577 11.1933 0.569824 9.56726 0.572274 7.89591C0.572274 5.84996 1.38503 3.8878 2.83173 2.4411C4.27844 0.994392 6.24059 0.181641 8.28655 0.181641C10.3325 0.181641 12.2947 0.994392 13.7414 2.4411C15.1881 3.8878 16.0008 5.84996 16.0008 7.89591C16.0033 9.5665 15.4576 11.1918 14.4474 12.5224L14.4467 12.5245C14.4467 12.5245 14.2364 12.8008 14.2048 12.838L8.28655 19.818ZM3.24562 11.6794C3.24702 11.6794 3.40972 11.8954 3.44689 11.9417L8.28655 17.6496L13.1325 11.934C13.1634 11.8954 13.3275 11.678 13.3282 11.6773C14.1537 10.5897 14.5998 9.26136 14.5982 7.89591C14.5982 6.22195 13.9332 4.61655 12.7496 3.43288C11.5659 2.24921 9.96051 1.58424 8.28655 1.58424C6.61258 1.58424 5.00718 2.24921 3.82352 3.43288C2.63985 4.61655 1.97487 6.22195 1.97487 7.89591C1.9734 9.26221 2.42004 10.5913 3.24632 11.6794H3.24562Z" fill="#141D19"/>
<path d="M11.7923 11.4016H10.3897V5.79127H6.18189V11.4016H4.7793V5.79127C4.77967 5.41939 4.92756 5.06285 5.19052 4.79989C5.45347 4.53694 5.81001 4.38904 6.18189 4.38867H10.3897C10.7616 4.38904 11.1181 4.53694 11.3811 4.79989C11.644 5.06285 11.7919 5.41939 11.7923 5.79127V11.4016Z" fill="#141D19"/>
<path d="M7.58594 10.0005H8.98853V11.4031H7.58594V10.0005ZM7.58594 7.19531H8.98853V8.59791H7.58594V7.19531Z" fill="#141D19"/>
</g>
</svg>
