<svg width="20" height="21" viewBox="0 0 20 21" fill="none" xmlns="http://www.w3.org/2000/svg">
<path d="M14.3206 6.42874H12.306V6.06241C12.306 5.77106 12.1903 5.49164 11.9842 5.28562C11.7782 5.07961 11.4988 4.96387 11.2075 4.96387H9.74259C9.59829 4.96381 9.45539 4.99218 9.32206 5.04736C9.18873 5.10254 9.06757 5.18345 8.96552 5.28547C8.86346 5.38748 8.7825 5.5086 8.72727 5.64191C8.67203 5.77522 8.64361 5.91811 8.64361 6.06241V6.42874H6.62946C6.38663 6.42874 6.15375 6.5252 5.98204 6.69691C5.81033 6.86862 5.71387 7.1015 5.71387 7.34433V8.07699C5.71387 8.17415 5.75246 8.26732 5.82116 8.33602C5.88986 8.40472 5.98304 8.44332 6.08019 8.44332H14.8699C14.967 8.44332 15.0602 8.40472 15.1289 8.33602C15.1976 8.26732 15.2362 8.17415 15.2362 8.07699V7.34433C15.2362 7.1015 15.1397 6.86862 14.968 6.69691C14.7963 6.5252 14.5634 6.42874 14.3206 6.42874ZM9.37626 6.06241C9.37638 5.96529 9.41501 5.87218 9.48368 5.8035C9.55236 5.73483 9.64547 5.6962 9.74259 5.69608H11.2075C11.3046 5.6962 11.3977 5.73483 11.4664 5.8035C11.535 5.87218 11.5737 5.96529 11.5738 6.06241V6.42874H9.37626V6.06241Z" fill="#303548"/>
<path d="M6.40852 9.7627C6.39303 9.76268 6.3777 9.76581 6.36346 9.77189C6.34922 9.77797 6.33636 9.78687 6.32566 9.79807C6.31496 9.80926 6.30664 9.82252 6.30121 9.83702C6.29578 9.85152 6.29335 9.86698 6.29407 9.88245L6.59632 16.224C6.6094 16.5061 6.73075 16.7723 6.93512 16.9672C7.13948 17.1621 7.41113 17.2707 7.69354 17.2704H13.2556C13.538 17.2707 13.8097 17.1621 14.014 16.9672C14.2184 16.7723 14.3398 16.5061 14.3528 16.224L14.6551 9.88245C14.6558 9.86698 14.6534 9.85152 14.6479 9.83702C14.6425 9.82252 14.6342 9.80926 14.6235 9.79807C14.6128 9.78687 14.5999 9.77797 14.5857 9.77189C14.5715 9.76581 14.5561 9.76268 14.5406 9.7627H6.40852ZM11.9397 10.6783C11.9397 10.5811 11.9783 10.488 12.047 10.4193C12.1157 10.3506 12.2088 10.312 12.306 10.312C12.4032 10.312 12.4963 10.3506 12.565 10.4193C12.6337 10.488 12.6723 10.5811 12.6723 10.6783V15.4392C12.6723 15.5364 12.6337 15.6296 12.565 15.6983C12.4963 15.767 12.4032 15.8056 12.306 15.8056C12.2088 15.8056 12.1157 15.767 12.047 15.6983C11.9783 15.6296 11.9397 15.5364 11.9397 15.4392V10.6783ZM10.1085 10.6783C10.1085 10.5811 10.1471 10.488 10.2158 10.4193C10.2845 10.3506 10.3776 10.312 10.4748 10.312C10.572 10.312 10.6651 10.3506 10.7338 10.4193C10.8025 10.488 10.8411 10.5811 10.8411 10.6783V15.4392C10.8411 15.5364 10.8025 15.6296 10.7338 15.6983C10.6651 15.767 10.572 15.8056 10.4748 15.8056C10.3776 15.8056 10.2845 15.767 10.2158 15.6983C10.1471 15.6296 10.1085 15.5364 10.1085 15.4392V10.6783ZM8.27727 10.6783C8.27727 10.5811 8.31587 10.488 8.38457 10.4193C8.45327 10.3506 8.54645 10.312 8.6436 10.312C8.74076 10.312 8.83394 10.3506 8.90264 10.4193C8.97133 10.488 9.00993 10.5811 9.00993 10.6783V15.4392C9.00993 15.5364 8.97133 15.6296 8.90264 15.6983C8.83394 15.767 8.74076 15.8056 8.6436 15.8056C8.54645 15.8056 8.45327 15.767 8.38457 15.6983C8.31587 15.6296 8.27727 15.5364 8.27727 15.4392V10.6783Z" fill="#303548"/>
</svg>
