<svg width="32" height="32" viewBox="0 0 32 32" fill="none" xmlns="http://www.w3.org/2000/svg">
<path opacity="0.4" fill-rule="evenodd" clip-rule="evenodd" d="M13.9357 7.09421C13.6437 7.20646 13.3371 7.50063 13.1978 7.80223L13.0841 8.04846V9.71186V11.3753L13.1966 11.6188C13.4821 12.2368 13.8516 12.4124 14.8665 12.4124H15.5695V13.6627V14.913L12.8395 14.9276C9.7771 14.9439 9.9301 14.9302 9.32998 15.2417C8.94485 15.4416 8.51977 15.8506 8.33683 16.1973C8.08114 16.6818 8.08301 16.667 8.06501 18.3659L8.04861 19.9161L7.55268 19.9371C6.75742 19.9707 6.3917 20.167 6.12865 20.7014L6 20.9627V22.4508V23.9389L6.10164 24.1541C6.2346 24.4357 6.48204 24.6846 6.75714 24.8136L6.97847 24.9173H8.48532H9.99217L10.2135 24.8136C10.4886 24.6846 10.736 24.4357 10.869 24.1541L10.9706 23.9389V22.4508V20.9627L10.842 20.7014C10.5784 20.166 10.2136 19.9708 9.41358 19.9369L8.91327 19.9158L8.92434 18.3852L8.93542 16.8547L9.03202 16.659C9.17221 16.375 9.43984 16.127 9.79628 15.9508L10.1054 15.798L12.8375 15.7872L15.5695 15.7764V17.8461V19.9159L15.0704 19.937C14.2718 19.9708 13.9067 20.1663 13.6433 20.7014L13.5147 20.9627V22.4508V23.9389L13.6163 24.1541C13.7493 24.4357 13.9967 24.6846 14.2718 24.8136L14.4932 24.9173H16H17.5068L17.7282 24.8136C18.0033 24.6846 18.2507 24.4357 18.3837 24.1541L18.4853 23.9389V22.4508V20.9627L18.3567 20.7014C18.0933 20.1663 17.7282 19.9708 16.9296 19.937L16.4305 19.9159V17.8461V15.7764L19.1625 15.7872L21.8946 15.798L22.2037 15.9508C22.5602 16.127 22.8278 16.375 22.968 16.659L23.0646 16.8547L23.0757 18.3852L23.0867 19.9158L22.5864 19.9369C21.7863 19.9708 21.4215 20.166 21.158 20.7014L21.0294 20.9627V22.4508V23.9389L21.131 24.1541C21.264 24.4357 21.5114 24.6846 21.7865 24.8136L22.0078 24.9173H23.5147H25.0215L25.2429 24.8136C25.518 24.6846 25.7654 24.4357 25.8984 24.1541L26 23.9389V22.4508V20.9627L25.8714 20.7014C25.6083 20.167 25.2426 19.9707 24.4473 19.9371L23.9514 19.9161L23.935 18.3659C23.917 16.667 23.9189 16.6818 23.6632 16.1973C23.4802 15.8506 23.0551 15.4416 22.67 15.2417C22.0699 14.9302 22.2229 14.9439 19.1605 14.9276L16.4305 14.913V13.6627V12.4124H17.1335C18.1418 12.4124 18.5196 12.2334 18.8022 11.6215L18.9159 11.3753V9.71186V8.04846L18.8034 7.80493C18.6574 7.48885 18.3648 7.20889 18.0621 7.09566C17.7235 6.96897 14.2647 6.96775 13.9357 7.09421ZM17.7993 7.89131C18.0789 8.03593 18.0744 8.00576 18.0744 9.71186C18.0744 11.8038 18.3099 11.5905 16 11.5905C13.6903 11.5905 13.9256 11.8034 13.9256 9.71421C13.9256 8.02286 13.9199 8.06372 14.1784 7.90611C14.3422 7.80619 17.6088 7.79284 17.7993 7.89131ZM9.89045 20.8449C10.1449 20.9765 10.1475 20.9914 10.1605 22.3861C10.1779 24.2448 10.3037 24.115 8.48532 24.115C6.66697 24.115 6.79276 24.2448 6.8101 22.3861C6.82305 20.9977 6.82599 20.9806 7.07213 20.8468C7.22419 20.7642 9.73108 20.7625 9.89045 20.8449ZM17.4051 20.8449C17.6596 20.9765 17.6622 20.9914 17.6752 22.3861C17.6926 24.2448 17.8184 24.115 16 24.115C14.1816 24.115 14.3074 24.2448 14.3248 22.3861C14.3377 20.9977 14.3407 20.9806 14.5868 20.8468C14.7389 20.7642 17.2458 20.7625 17.4051 20.8449ZM24.9198 20.8449C25.1743 20.9765 25.1769 20.9914 25.1899 22.3861C25.2072 24.2448 25.333 24.115 23.5147 24.115C21.6963 24.115 21.8221 24.2448 21.8395 22.3861C21.8524 20.9977 21.8553 20.9806 22.1015 20.8468C22.2535 20.7642 24.7604 20.7625 24.9198 20.8449Z" fill="#141D19"/>
</svg>
