<svg width="334" height="172" viewBox="0 0 334 172" fill="none" xmlns="http://www.w3.org/2000/svg">
<rect x="0.0625" width="333" height="172" rx="10" fill="url(#paint0_linear_6128_15535)"/>
<path d="M166.062 76.4V62H151.812C150.553 62 149.345 62.5057 148.454 63.4059C147.563 64.3061 147.062 65.527 147.062 66.8V105.2C147.062 106.473 147.563 107.694 148.454 108.594C149.345 109.494 150.553 110 151.812 110H180.312C181.572 110 182.78 109.494 183.671 108.594C184.562 107.694 185.062 106.473 185.062 105.2V81.2H170.812C169.553 81.2 168.345 80.6943 167.454 79.7941C166.563 78.8939 166.062 77.673 166.062 76.4ZM154.188 86.6C154.188 86.1226 154.375 85.6648 154.709 85.3272C155.043 84.9896 155.496 84.8 155.969 84.8C156.441 84.8 156.894 84.9896 157.228 85.3272C157.562 85.6648 157.75 86.1226 157.75 86.6C157.75 87.0774 157.562 87.5352 157.228 87.8728C156.894 88.2104 156.441 88.4 155.969 88.4C155.496 88.4 155.043 88.2104 154.709 87.8728C154.375 87.5352 154.188 87.0774 154.188 86.6ZM154.188 93.8C154.188 93.3226 154.375 92.8648 154.709 92.5272C155.043 92.1896 155.496 92 155.969 92C156.441 92 156.894 92.1896 157.228 92.5272C157.562 92.8648 157.75 93.3226 157.75 93.8C157.75 94.2774 157.562 94.7352 157.228 95.0728C156.894 95.4104 156.441 95.6 155.969 95.6C155.496 95.6 155.043 95.4104 154.709 95.0728C154.375 94.7352 154.188 94.2774 154.188 93.8ZM154.188 101C154.188 100.523 154.375 100.065 154.709 99.7272C155.043 99.3896 155.496 99.2 155.969 99.2C156.441 99.2 156.894 99.3896 157.228 99.7272C157.562 100.065 157.75 100.523 157.75 101C157.75 101.477 157.562 101.935 157.228 102.273C156.894 102.61 156.441 102.8 155.969 102.8C155.496 102.8 155.043 102.61 154.709 102.273C154.375 101.935 154.188 101.477 154.188 101ZM161.312 86.6C161.312 86.1226 161.5 85.6648 161.834 85.3272C162.168 84.9896 162.621 84.8 163.094 84.8H176.156C176.629 84.8 177.082 84.9896 177.416 85.3272C177.75 85.6648 177.938 86.1226 177.938 86.6C177.938 87.0774 177.75 87.5352 177.416 87.8728C177.082 88.2104 176.629 88.4 176.156 88.4H163.094C162.621 88.4 162.168 88.2104 161.834 87.8728C161.5 87.5352 161.312 87.0774 161.312 86.6ZM161.312 93.8C161.312 93.3226 161.5 92.8648 161.834 92.5272C162.168 92.1896 162.621 92 163.094 92H176.156C176.629 92 177.082 92.1896 177.416 92.5272C177.75 92.8648 177.938 93.3226 177.938 93.8C177.938 94.2774 177.75 94.7352 177.416 95.0728C177.082 95.4104 176.629 95.6 176.156 95.6H163.094C162.621 95.6 162.168 95.4104 161.834 95.0728C161.5 94.7352 161.312 94.2774 161.312 93.8ZM161.312 101C161.312 100.523 161.5 100.065 161.834 99.7272C162.168 99.3896 162.621 99.2 163.094 99.2H176.156C176.629 99.2 177.082 99.3896 177.416 99.7272C177.75 100.065 177.938 100.523 177.938 101C177.938 101.477 177.75 101.935 177.416 102.273C177.082 102.61 176.629 102.8 176.156 102.8H163.094C162.621 102.8 162.168 102.61 161.834 102.273C161.5 101.935 161.312 101.477 161.312 101Z" fill="white"/>
<path d="M169.628 76.3992V63.1992L183.878 77.5992H170.815C170.5 77.5992 170.198 77.4728 169.976 77.2477C169.753 77.0227 169.628 76.7175 169.628 76.3992Z" fill="white"/>
<defs>
<linearGradient id="paint0_linear_6128_15535" x1="-75.8615" y1="-25.972" x2="167.987" y2="396.832" gradientUnits="userSpaceOnUse">
<stop stop-color="#D51AFF"/>
<stop offset="0.502" stop-color="#4E6AFE"/>
<stop offset="1" stop-color="#8BF3FE"/>
</linearGradient>
</defs>
</svg>
