<svg width="61" height="60" viewBox="0 0 61 60" fill="none" xmlns="http://www.w3.org/2000/svg">
<path d="M40.0625 56.875H20.0625C10.9375 56.875 5.6875 51.625 5.6875 42.5V17.5C5.6875 8.375 10.9375 3.125 20.0625 3.125H40.0625C49.1875 3.125 54.4375 8.375 54.4375 17.5V42.5C54.4375 51.625 49.1875 56.875 40.0625 56.875ZM20.0625 6.875C12.9125 6.875 9.4375 10.35 9.4375 17.5V42.5C9.4375 49.65 12.9125 53.125 20.0625 53.125H40.0625C47.2125 53.125 50.6875 49.65 50.6875 42.5V17.5C50.6875 10.35 47.2125 6.875 40.0625 6.875H20.0625Z" fill="#91939D"/>
<path d="M46.3125 23.125H41.3125C37.5125 23.125 34.4375 20.05 34.4375 16.25V11.25C34.4375 10.225 35.2875 9.375 36.3125 9.375C37.3375 9.375 38.1875 10.225 38.1875 11.25V16.25C38.1875 17.975 39.5875 19.375 41.3125 19.375H46.3125C47.3375 19.375 48.1875 20.225 48.1875 21.25C48.1875 22.275 47.3375 23.125 46.3125 23.125Z" fill="#91939D"/>
<path d="M30.0625 34.375H20.0625C19.0375 34.375 18.1875 33.525 18.1875 32.5C18.1875 31.475 19.0375 30.625 20.0625 30.625H30.0625C31.0875 30.625 31.9375 31.475 31.9375 32.5C31.9375 33.525 31.0875 34.375 30.0625 34.375Z" fill="#91939D"/>
<path d="M40.0625 44.375H20.0625C19.0375 44.375 18.1875 43.525 18.1875 42.5C18.1875 41.475 19.0375 40.625 20.0625 40.625H40.0625C41.0875 40.625 41.9375 41.475 41.9375 42.5C41.9375 43.525 41.0875 44.375 40.0625 44.375Z" fill="#91939D"/>
</svg>
