<svg width="20" height="16" viewBox="0 0 20 16" fill="none" xmlns="http://www.w3.org/2000/svg">
<path d="M4.93172 3.15309H5.43172V2.65309V1.90127C5.43172 1.13555 6.06542 0.5 6.86681 0.5H13.1332C13.9346 0.5 14.5683 1.13555 14.5683 1.90127V2.65254V3.15254H15.0683H17.7882C17.7883 3.15254 17.7884 3.15254 17.7885 3.15254C18.7421 3.15309 19.5 3.91052 19.5 4.82597V13.8271C19.5 14.7427 18.742 15.5 17.7885 15.5H2.21153C1.25801 15.5 0.5 14.7427 0.5 13.8271V4.82597C0.5 3.91041 1.25801 3.15309 2.21153 3.15309H4.93172ZM12.7255 9.326C12.7255 10.7891 11.5108 11.9951 10 11.9951C8.48928 11.9951 7.27503 10.7892 7.27503 9.326C7.27503 7.86277 8.48928 6.65686 10 6.65686C11.5108 6.65686 12.7255 7.86337 12.7255 9.326ZM15.3842 9.326C15.3842 6.39556 12.9609 4.0272 10 4.0272C7.03963 4.0272 4.61638 6.3956 4.61638 9.326C4.61638 12.2564 7.03963 14.6248 10 14.6248C12.9609 14.6248 15.3842 12.2564 15.3842 9.326Z" fill="white" stroke="white"/>
</svg>
