<svg width="192" height="191" viewBox="0 0 192 191" fill="none" xmlns="http://www.w3.org/2000/svg">
<g clip-path="url(#clip0_3532_16068)">
<path d="M91.3285 104.195L85.5361 127.781H88.5929L93.9717 104.195H91.3285Z" fill="#E0E0E0"/>
<path d="M101.997 104.195L106.977 127.781H110.126L104.537 104.195H101.997Z" fill="#E0E0E0"/>
<path d="M87.3818 85.1052L90.7118 102.603H94.4958L90.937 85.1052H87.3818Z" fill="#E0E0E0"/>
<path d="M29.3773 104.195L23.585 127.781H26.6417L32.0206 104.195H29.3773Z" fill="#E0E0E0"/>
<path d="M40.0469 104.195L45.027 127.781H48.1761L42.5868 104.195H40.0469Z" fill="#E0E0E0"/>
<path d="M25.4307 85.1052L28.7606 102.603H32.5446L28.9858 85.1052H25.4307Z" fill="#E0E0E0"/>
<path d="M94.6067 83.5164H18.6162V86.6974H94.6067V83.5164Z" fill="#F0F0F0"/>
<path d="M95.6663 90.0298H19.6758V93.2108H95.6663V90.0298Z" fill="#F0F0F0"/>
<path d="M96.8772 96.0891H20.8867V99.2701H96.8772V96.0891Z" fill="#F0F0F0"/>
<path d="M106.815 102.603H25.6787V105.784H106.815V102.603Z" fill="#F0F0F0"/>
<path d="M183.168 97.9918C183.076 98.0878 181.256 96.4844 178.941 94.6002C176.626 92.716 174.692 91.2492 174.766 91.1421C174.84 91.035 176.896 92.3465 179.225 94.2492C181.555 96.1519 183.249 97.9068 183.168 97.9918Z" fill="#E0E0E0"/>
<path d="M138.063 108.274C137.62 108.309 137.188 108.434 136.795 108.64C136.401 108.847 136.052 109.131 135.771 109.475C135.211 110.167 134.817 110.978 134.619 111.847C134.191 113.509 134.479 115.464 134.966 117.112C136.756 116.454 137.845 114.525 138.336 113.52C139.115 111.921 139.551 108.559 138.063 108.274Z" fill="#3B8D34"/>
<path d="M132.4 119.143C132.666 118.723 132.817 118.24 132.836 117.743C132.856 117.246 132.743 116.753 132.511 116.313C132.27 115.879 131.945 115.497 131.555 115.19C131.165 114.882 130.718 114.655 130.24 114.522C130.027 114.436 129.797 114.398 129.568 114.411C129.338 114.424 129.114 114.487 128.911 114.595C128.742 114.728 128.611 114.902 128.531 115.101C128.452 115.301 128.426 115.517 128.457 115.73C128.529 116.155 128.711 116.553 128.985 116.886C129.867 118.061 130.938 119.036 132.4 119.143Z" fill="#3B8D34"/>
<path d="M132.385 124.848C132.432 124.736 132.461 124.617 132.474 124.497C132.518 124.271 132.577 123.939 132.636 123.529C132.808 122.457 132.837 121.368 132.721 120.289C132.594 119.197 132.174 118.161 131.506 117.289C131.3 117.03 131.062 116.798 130.798 116.598C130.706 116.519 130.603 116.456 130.491 116.409C130.818 116.706 131.12 117.029 131.396 117.374C132.016 118.248 132.406 119.264 132.529 120.329C132.64 121.393 132.631 122.467 132.5 123.529C132.436 123.966 132.398 124.406 132.385 124.848Z" fill="#455A64"/>
<path d="M137.505 110.805C137.404 110.975 137.316 111.153 137.243 111.337C137.081 111.684 136.874 112.19 136.593 112.815C136.058 114.071 135.346 115.822 134.607 117.777C133.869 119.731 133.245 121.515 132.817 122.812C132.603 123.462 132.448 123.991 132.322 124.357C132.256 124.543 132.204 124.735 132.167 124.929C132.259 124.753 132.335 124.569 132.392 124.379C132.536 123.987 132.721 123.477 132.946 122.857C133.407 121.571 134.053 119.797 134.792 117.843C135.53 115.889 136.221 114.149 136.723 112.866L137.313 111.359C137.395 111.181 137.459 110.995 137.505 110.805Z" fill="#455A64"/>
<path d="M134.264 120.776C134.855 119.911 135.643 119.198 136.564 118.698C137.484 118.197 138.511 117.923 139.558 117.898C140.09 117.898 140.721 118.02 140.931 118.508C141.142 118.996 140.795 119.557 140.425 119.927C139.61 120.685 138.589 121.184 137.491 121.362C136.392 121.541 135.266 121.389 134.253 120.928" fill="#3B8D34"/>
<path d="M138.646 119.206C138.531 119.189 138.414 119.189 138.299 119.206C138.164 119.213 138.029 119.231 137.897 119.258C137.72 119.284 137.545 119.32 137.372 119.365C136.918 119.48 136.476 119.641 136.054 119.845C135.541 120.101 135.056 120.409 134.607 120.765C134.166 121.132 133.765 121.544 133.411 121.996C133.126 122.368 132.879 122.768 132.673 123.189C132.591 123.348 132.52 123.512 132.459 123.68C132.406 123.8 132.362 123.924 132.326 124.05C132.284 124.157 132.259 124.271 132.252 124.386C132.289 124.386 132.422 123.924 132.795 123.233C133.007 122.832 133.254 122.45 133.533 122.092C134.235 121.214 135.116 120.498 136.117 119.989C136.524 119.783 136.949 119.614 137.387 119.483C138.159 119.28 138.65 119.243 138.646 119.206Z" fill="#455A64"/>
<path opacity="0.1" d="M112.039 9.80292C112.295 9.68912 112.512 9.50294 112.663 9.26728C112.815 9.03163 112.894 8.75679 112.892 8.47658C112.905 8.2916 112.881 8.10577 112.819 7.93072C112.758 7.75567 112.661 7.59516 112.535 7.45923C112.409 7.32331 112.256 7.21488 112.086 7.14073C111.916 7.06659 111.733 7.02832 111.548 7.02832C111.362 7.02832 111.179 7.06659 111.009 7.14073C110.839 7.21488 110.686 7.32331 110.56 7.45923C110.434 7.59516 110.337 7.75567 110.276 7.93072C110.215 8.10577 110.19 8.2916 110.204 8.47658C110.2 8.75908 110.278 9.03661 110.431 9.27448C110.583 9.51235 110.802 9.70002 111.06 9.81401C110.637 9.86463 110.238 10.0403 109.915 10.3186C109.591 10.5969 109.358 10.9653 109.244 11.3768C109.721 11.9203 110.375 12.2765 111.09 12.3817H111.917C112.65 12.2855 113.323 11.9257 113.811 11.3694C113.705 10.9612 113.48 10.5939 113.164 10.3147C112.849 10.0355 112.457 9.85731 112.039 9.80292Z" fill="#455A64" fill-opacity="0.1"/>
<path opacity="0.1" d="M111.522 12.4038C111.522 12.3816 111.791 12.4038 112.26 12.2708C112.915 12.0941 113.491 11.7041 113.899 11.1624C114.197 10.7638 114.39 10.2972 114.461 9.80493C114.533 9.31269 114.481 8.81035 114.309 8.34346C114.211 8.07838 114.074 7.82936 113.903 7.60455C113.727 7.36431 113.514 7.15356 113.272 6.98018C112.765 6.60772 112.152 6.40687 111.524 6.40687C110.895 6.40687 110.282 6.60772 109.776 6.98018C109.534 7.15458 109.321 7.36518 109.144 7.60455C108.973 7.82936 108.836 8.07838 108.738 8.34346C108.566 8.81043 108.513 9.3132 108.586 9.80571C108.658 10.2982 108.853 10.7647 109.152 11.1624C109.558 11.7038 110.134 12.0939 110.787 12.2708C111.252 12.3927 111.525 12.3816 111.525 12.4038C111.46 12.4118 111.395 12.4118 111.33 12.4038C111.146 12.4031 110.963 12.3821 110.783 12.341C110.097 12.1836 109.488 11.7916 109.059 11.2326C108.759 10.8491 108.554 10.3995 108.461 9.92104C108.35 9.37325 108.387 8.80565 108.568 8.27696C108.781 7.68416 109.167 7.16916 109.676 6.79914C110.214 6.39851 110.866 6.18213 111.537 6.18213C112.207 6.18213 112.859 6.39851 113.397 6.79914C113.652 6.98564 113.877 7.21132 114.062 7.46786C114.241 7.7143 114.38 7.98731 114.475 8.27696C114.665 8.80473 114.709 9.37423 114.601 9.92473C114.488 10.5093 114.209 11.0488 113.797 11.4782C113.385 11.9076 112.858 12.2085 112.279 12.3447C112.096 12.3881 111.909 12.4104 111.721 12.4112C111.655 12.4171 111.588 12.4146 111.522 12.4038Z" fill="#455A64" fill-opacity="0.1"/>
<path d="M147.255 15.1601C147.255 15.1601 147.351 15.1601 147.528 15.1232C147.793 15.0695 148.038 14.9414 148.233 14.7537C148.389 14.6016 148.51 14.4167 148.587 14.2123C148.663 14.0079 148.694 13.789 148.676 13.5714C148.676 13.0468 148.676 12.4631 148.676 11.7648C148.676 10.4015 148.676 8.73528 148.676 6.80303C148.676 6.31905 148.676 5.82028 148.676 5.30304C148.689 5.04563 148.632 4.78949 148.509 4.5627C148.387 4.33591 148.204 4.14723 147.982 4.01734C147.528 3.72917 146.933 3.85478 146.361 3.82892H144.582L106.557 3.85848C106.34 3.85913 106.127 3.91141 105.934 4.01099C105.742 4.11056 105.575 4.25458 105.449 4.43113C105.324 4.60748 105.243 4.81154 105.213 5.02595C105.187 5.23285 105.213 5.47669 105.213 5.70205V8.43233C105.213 10.2427 105.213 12.0222 105.213 13.7709C105.221 13.976 105.275 14.1766 105.373 14.3572C105.47 14.5378 105.607 14.6937 105.774 14.8128C105.937 14.9314 106.126 15.011 106.324 15.0456C106.534 15.0694 106.745 15.078 106.956 15.0714H114.446L131.535 15.0899L143.057 15.1232L146.188 15.1416H147.003H147.28C147.28 15.1416 147.184 15.1416 147.003 15.1416H146.188H143.057L131.535 15.1712L114.446 15.1934H106.93C106.709 15.2028 106.488 15.1942 106.269 15.1675C106.04 15.1304 105.824 15.0392 105.638 14.9015C105.449 14.7655 105.293 14.5885 105.183 14.3837C105.072 14.179 105.009 13.9518 104.999 13.7192C104.999 11.9655 104.999 10.1823 104.999 8.36952V5.69097C104.999 5.45822 104.999 5.24024 105.017 4.98901C105.049 4.74339 105.142 4.50963 105.287 4.30921C105.43 4.1069 105.619 3.94188 105.839 3.82807C106.058 3.71426 106.302 3.655 106.55 3.65527L144.574 3.68483H147.21C147.421 3.67734 147.632 3.71392 147.828 3.79225C148.024 3.87057 148.202 3.98892 148.35 4.13976C148.498 4.2906 148.612 4.47062 148.687 4.66836C148.762 4.86609 148.794 5.07721 148.783 5.28827C148.783 5.8055 148.783 6.30427 148.783 6.78825C148.783 8.7205 148.783 10.3867 148.764 11.75C148.764 12.4298 148.764 13.032 148.764 13.5567C148.78 13.7814 148.745 14.0067 148.663 14.2163C148.58 14.4258 148.452 14.6145 148.288 14.7685C148.085 14.9628 147.827 15.0915 147.55 15.1379C147.453 15.1585 147.354 15.166 147.255 15.1601Z" fill="#E0E0E0"/>
<path opacity="0.1" d="M128.161 6.72168H117.422V7.52709H128.161V6.72168Z" fill="#455A64" fill-opacity="0.1"/>
<path opacity="0.1" d="M136.235 11.2771H117.422V12.0825H136.235V11.2771Z" fill="#455A64" fill-opacity="0.1"/>
<path opacity="0.1" d="M144.685 8.9458H117.422V9.75121H144.685V8.9458Z" fill="#455A64" fill-opacity="0.1"/>
<path d="M112.039 38.6979C112.295 38.5841 112.512 38.398 112.663 38.1623C112.815 37.9267 112.894 37.6518 112.892 37.3716C112.905 37.1866 112.881 37.0008 112.819 36.8257C112.758 36.6507 112.661 36.4902 112.535 36.3543C112.409 36.2183 112.256 36.1099 112.086 36.0358C111.916 35.9616 111.733 35.9233 111.548 35.9233C111.362 35.9233 111.179 35.9616 111.009 36.0358C110.839 36.1099 110.686 36.2183 110.56 36.3543C110.434 36.4902 110.337 36.6507 110.276 36.8257C110.215 37.0008 110.19 37.1866 110.204 37.3716C110.2 37.6541 110.278 37.9316 110.431 38.1695C110.583 38.4074 110.802 38.595 111.06 38.709C110.637 38.7596 110.238 38.9353 109.915 39.2136C109.591 39.4919 109.358 39.8603 109.244 40.2718C109.721 40.8153 110.375 41.1715 111.09 41.2767H111.917C112.65 41.1806 113.323 40.8207 113.811 40.2644C113.705 39.8562 113.48 39.4889 113.164 39.2097C112.849 38.9306 112.457 38.7523 112.039 38.6979Z" fill="#455A64" fill-opacity="0.1"/>
<path d="M111.522 41.2989C111.522 41.2768 111.791 41.2989 112.26 41.1659C112.915 40.9893 113.492 40.5992 113.899 40.0576C114.197 39.6589 114.39 39.1923 114.461 38.7001C114.533 38.2078 114.481 37.7055 114.309 37.2386C114.211 36.9735 114.074 36.7245 113.903 36.4997C113.727 36.2595 113.514 36.0487 113.272 35.8753C112.765 35.5029 112.153 35.302 111.524 35.302C110.895 35.302 110.283 35.5029 109.776 35.8753C109.535 36.0497 109.322 36.2603 109.145 36.4997C108.973 36.7245 108.836 36.9735 108.738 37.2386C108.568 37.7052 108.518 38.2069 108.591 38.698C108.665 39.1891 108.86 39.6539 109.159 40.0502C109.566 40.5916 110.141 40.9817 110.795 41.1585C111.26 41.2804 111.533 41.2694 111.533 41.2915C111.468 41.2996 111.402 41.2996 111.337 41.2915C111.148 41.2927 110.96 41.2703 110.776 41.225C110.09 41.0677 109.48 40.6757 109.052 40.1167C108.752 39.7332 108.547 39.2836 108.454 38.8051C108.348 38.2545 108.391 37.6855 108.58 37.1573C108.792 36.5645 109.178 36.0495 109.687 35.6795C110.225 35.2789 110.877 35.0625 111.548 35.0625C112.218 35.0625 112.871 35.2789 113.408 35.6795C113.664 35.866 113.888 36.0917 114.073 36.3482C114.255 36.5905 114.398 36.8598 114.498 37.1462C114.688 37.674 114.731 38.2435 114.623 38.794C114.511 39.3786 114.231 39.9181 113.819 40.3475C113.407 40.7769 112.88 41.0778 112.301 41.2139C112.118 41.2574 111.931 41.2797 111.743 41.2804C111.671 41.297 111.596 41.3032 111.522 41.2989Z" fill="#455A64" fill-opacity="0.1"/>
<path d="M147.255 44.0551C147.255 44.0551 147.351 44.0551 147.528 44.0181C147.793 43.9645 148.038 43.8364 148.233 43.6487C148.389 43.4966 148.51 43.3117 148.587 43.1073C148.663 42.9029 148.694 42.684 148.676 42.4664C148.676 41.9418 148.676 41.3396 148.676 40.6598C148.676 39.2965 148.676 37.6303 148.676 35.698C148.676 35.214 148.676 34.7153 148.676 34.198C148.689 33.9406 148.632 33.6845 148.509 33.4577C148.387 33.2309 148.204 33.0422 147.982 32.9123C147.528 32.6241 146.933 32.7498 146.361 32.7239H144.582L106.557 32.7535C106.34 32.7541 106.127 32.8064 105.934 32.906C105.742 33.0056 105.575 33.1496 105.449 33.3261C105.324 33.5025 105.243 33.7065 105.213 33.9209C105.187 34.1278 105.213 34.3717 105.213 34.597V37.3273C105.213 39.1376 105.213 40.9172 105.213 42.6659C105.221 42.871 105.275 43.0715 105.373 43.2522C105.47 43.4328 105.607 43.5887 105.774 43.7078C105.937 43.8264 106.126 43.906 106.324 43.9406C106.534 43.9644 106.745 43.973 106.956 43.9664H114.446L131.535 43.9849L143.057 44.0181H146.188H147.003H147.28C147.28 44.0181 147.184 44.0181 147.003 44.0181H146.188L143.057 44.0366L131.535 44.0662L114.446 44.0883H106.93C106.709 44.0978 106.488 44.0892 106.269 44.0625C106.04 44.0254 105.824 43.9342 105.638 43.7965C105.449 43.6605 105.293 43.4835 105.183 43.2787C105.072 43.0739 105.009 42.8468 104.999 42.6142C104.999 40.8605 104.999 39.0773 104.999 37.2645V34.5342C104.999 34.3015 104.999 34.0835 105.017 33.8323C105.049 33.5867 105.142 33.3529 105.287 33.1525C105.43 32.9508 105.62 32.7863 105.839 32.6726C106.059 32.5588 106.302 32.4992 106.55 32.4985L144.574 32.5281H147.21C147.421 32.5206 147.632 32.5572 147.828 32.6355C148.024 32.7138 148.202 32.8322 148.35 32.983C148.498 33.1339 148.612 33.3139 148.687 33.5116C148.762 33.7094 148.794 33.9205 148.783 34.1315C148.783 34.6488 148.783 35.1475 148.783 35.6315C148.783 37.5638 148.783 39.23 148.764 40.5933C148.764 41.2731 148.764 41.8753 148.764 42.3999C148.78 42.6246 148.745 42.8499 148.663 43.0595C148.58 43.2691 148.452 43.4577 148.288 43.6117C148.085 43.806 147.827 43.9347 147.55 43.9812C147.455 44.0193 147.356 44.0442 147.255 44.0551Z" fill="#E0E0E0"/>
<path d="M127.947 35.6167H117.208V36.4221H127.947V35.6167Z" fill="#455A64" fill-opacity="0.1"/>
<path d="M136.235 40.1721H117.422V40.9775H136.235V40.1721Z" fill="#455A64" fill-opacity="0.1"/>
<path d="M144.685 37.8408H117.422V38.6462H144.685V37.8408Z" fill="#455A64" fill-opacity="0.1"/>
<path d="M112.039 53.1437C112.294 53.0305 112.511 52.845 112.663 52.61C112.814 52.375 112.894 52.1007 112.892 51.8211C112.905 51.6361 112.881 51.4503 112.819 51.2752C112.758 51.1002 112.661 50.9396 112.535 50.8037C112.409 50.6678 112.256 50.5594 112.086 50.4852C111.916 50.4111 111.733 50.3728 111.548 50.3728C111.362 50.3728 111.179 50.4111 111.009 50.4852C110.839 50.5594 110.686 50.6678 110.56 50.8037C110.434 50.9396 110.337 51.1002 110.276 51.2752C110.215 51.4503 110.19 51.6361 110.204 51.8211C110.199 52.1037 110.278 52.3814 110.43 52.6194C110.583 52.8573 110.802 53.0449 111.06 53.1585C110.637 53.2091 110.238 53.3848 109.915 53.6631C109.591 53.9414 109.358 54.3098 109.244 54.7213C109.72 55.2661 110.375 55.6225 111.09 55.7262H111.917C112.651 55.6317 113.324 55.2716 113.811 54.7139C113.705 54.3052 113.481 53.9374 113.165 53.6576C112.849 53.3778 112.457 53.1988 112.039 53.1437Z" fill="#455A64" fill-opacity="0.1"/>
<path d="M111.522 55.7446C111.522 55.7224 111.792 55.7446 112.261 55.6153C112.915 55.4379 113.491 55.048 113.9 54.5069C114.198 54.1091 114.391 53.6432 114.463 53.1514C114.534 52.6597 114.482 52.1579 114.31 51.6917C114.213 51.4262 114.076 51.1771 113.904 50.9528C113.73 50.7108 113.516 50.4997 113.272 50.3284C112.766 49.9559 112.153 49.7551 111.524 49.7551C110.896 49.7551 110.283 49.9559 109.776 50.3284C109.533 50.5008 109.32 50.7117 109.145 50.9528C108.973 51.1771 108.836 51.4262 108.739 51.6917C108.567 52.1586 108.514 52.6614 108.586 53.1539C108.659 53.6464 108.853 54.1129 109.152 54.5106C109.56 55.0508 110.135 55.4406 110.788 55.619C111.253 55.7409 111.526 55.7261 111.526 55.7483C111.461 55.7579 111.395 55.7579 111.331 55.7483C111.141 55.7478 110.953 55.7242 110.769 55.6781C110.083 55.5216 109.473 55.1294 109.045 54.5697C108.745 54.1859 108.54 53.7364 108.447 53.2582C108.341 52.7063 108.385 52.1361 108.573 51.6067C108.785 51.0139 109.171 50.4989 109.68 50.1289C110.219 49.7294 110.871 49.5137 111.541 49.5137C112.211 49.5137 112.863 49.7294 113.402 50.1289C113.904 50.5012 114.284 51.0161 114.491 51.6067C114.666 52.0992 114.716 52.628 114.634 53.1445C114.552 53.661 114.341 54.1485 114.022 54.5623C113.592 55.1216 112.981 55.5135 112.294 55.6707C112.112 55.7168 111.925 55.7404 111.737 55.7409C111.666 55.7537 111.594 55.7549 111.522 55.7446Z" fill="#455A64" fill-opacity="0.1"/>
<path d="M147.255 58.5009C147.255 58.5009 147.351 58.5009 147.528 58.4639C147.793 58.4093 148.037 58.2813 148.233 58.0945C148.389 57.9424 148.51 57.7575 148.587 57.5531C148.663 57.3487 148.694 57.1298 148.676 56.9122C148.676 56.3876 148.676 55.7817 148.676 55.1019C148.676 53.7386 148.676 52.0724 148.676 50.1401C148.676 49.6598 148.676 49.1574 148.676 48.6401C148.689 48.3828 148.631 48.1268 148.509 47.9001C148.386 47.6734 148.204 47.4846 147.982 47.3544C147.528 47.0662 146.933 47.1919 146.361 47.166H144.582L106.557 47.1955C106.34 47.1953 106.126 47.2472 105.933 47.3468C105.741 47.4465 105.575 47.591 105.449 47.7682C105.324 47.9433 105.243 48.1461 105.213 48.3593C105.187 48.5662 105.213 48.8101 105.213 49.0354V51.7694C105.213 53.5773 105.213 55.3568 105.213 57.108C105.221 57.3124 105.276 57.5123 105.373 57.6922C105.471 57.8722 105.608 58.0274 105.774 58.1462C105.936 58.2674 106.125 58.3484 106.324 58.3826C106.534 58.4052 106.745 58.4126 106.956 58.4048H114.446L131.535 58.427L143.057 58.4565L131.535 58.4898L114.446 58.5083H106.93C106.709 58.5141 106.488 58.5054 106.269 58.4824C106.041 58.4423 105.825 58.35 105.638 58.2127C105.448 58.0773 105.292 57.9004 105.182 57.6955C105.071 57.4906 105.009 57.2632 104.999 57.0304C104.999 55.2792 104.999 53.4972 104.999 51.6844V48.9505C104.999 48.7177 104.999 48.4997 105.017 48.2485C105.05 48.0042 105.142 47.7718 105.287 47.5724C105.43 47.3701 105.619 47.2051 105.839 47.0913C106.058 46.9774 106.302 46.9182 106.55 46.9185L144.574 46.9443H147.21C147.5 46.9331 147.788 47.0062 148.037 47.1549C148.274 47.2978 148.468 47.5025 148.599 47.7472C148.729 47.9919 148.79 48.2673 148.776 48.5441C148.776 49.0613 148.776 49.5638 148.776 50.044C148.776 51.9763 148.776 53.6425 148.757 55.0058C148.757 55.6856 148.757 56.2915 148.757 56.8162C148.772 57.0408 148.737 57.266 148.655 57.4756C148.573 57.6851 148.445 57.8738 148.281 58.028C148.075 58.2189 147.819 58.347 147.542 58.3974C147.452 58.4467 147.355 58.4817 147.255 58.5009Z" fill="#E0E0E0"/>
<path d="M128.161 50.0662H117.422V50.8716H128.161V50.0662Z" fill="#455A64" fill-opacity="0.1"/>
<path d="M136.235 54.6177H117.422V55.4231H136.235V54.6177Z" fill="#455A64" fill-opacity="0.1"/>
<path d="M144.685 52.2866H117.422V53.092H144.685V52.2866Z" fill="#455A64" fill-opacity="0.1"/>
<path d="M112.039 67.593C112.295 67.4792 112.512 67.293 112.663 67.0573C112.815 66.8217 112.894 66.5468 112.892 66.2666C112.905 66.0816 112.881 65.8958 112.819 65.7208C112.758 65.5457 112.661 65.3852 112.535 65.2493C112.409 65.1133 112.256 65.0049 112.086 64.9308C111.916 64.8566 111.733 64.8184 111.548 64.8184C111.362 64.8184 111.179 64.8566 111.009 64.9308C110.839 65.0049 110.686 65.1133 110.56 65.2493C110.434 65.3852 110.337 65.5457 110.276 65.7208C110.215 65.8958 110.19 66.0816 110.204 66.2666C110.2 66.5491 110.278 66.8266 110.431 67.0645C110.583 67.3024 110.802 67.49 111.06 67.604C110.637 67.6547 110.238 67.8303 109.915 68.1086C109.591 68.387 109.358 68.7553 109.244 69.1668C109.721 69.7103 110.375 70.0665 111.09 70.1718H111.917C112.65 70.0756 113.323 69.7158 113.811 69.1595C113.705 68.7512 113.48 68.3839 113.164 68.1047C112.849 67.8256 112.457 67.6473 112.039 67.593Z" fill="#455A64" fill-opacity="0.1"/>
<path d="M111.523 70.1939C111.523 70.1717 111.792 70.1939 112.261 70.0609C112.915 69.8843 113.492 69.4942 113.9 68.9525C114.197 68.5539 114.39 68.0873 114.462 67.5951C114.534 67.1028 114.481 66.6005 114.31 66.1336C114.212 65.8685 114.075 65.6195 113.904 65.3947C113.728 65.1545 113.515 64.9437 113.272 64.7703C112.766 64.3979 112.153 64.197 111.524 64.197C110.896 64.197 110.283 64.3979 109.776 64.7703C109.535 64.9447 109.322 65.1553 109.145 65.3947C108.974 65.6195 108.837 65.8685 108.739 66.1336C108.567 66.6006 108.514 67.1033 108.586 67.5958C108.659 68.0884 108.853 68.5548 109.152 68.9525C109.559 69.494 110.135 69.8841 110.788 70.0609C111.253 70.1828 111.526 70.1717 111.526 70.1939C111.461 70.202 111.396 70.202 111.331 70.1939C111.141 70.1951 110.953 70.1727 110.769 70.1274C110.083 69.97 109.474 69.5781 109.045 69.019C108.745 68.6356 108.54 68.186 108.447 67.7075C108.341 67.1569 108.385 66.5879 108.573 66.0597C108.785 65.4669 109.171 64.9519 109.68 64.5819C110.219 64.1835 110.871 63.9685 111.541 63.9685C112.211 63.9685 112.863 64.1835 113.402 64.5819C113.657 64.7684 113.881 64.9941 114.066 65.2506C114.248 65.4929 114.391 65.7622 114.491 66.0486C114.681 66.5764 114.724 67.1459 114.616 67.6964C114.504 68.281 114.225 68.8205 113.813 69.2499C113.401 69.6793 112.873 69.9802 112.294 70.1163C112.112 70.1616 111.924 70.1839 111.737 70.1828C111.666 70.1962 111.594 70.1999 111.523 70.1939Z" fill="#455A64" fill-opacity="0.1"/>
<path d="M147.255 72.9501C147.255 72.9501 147.351 72.9501 147.528 72.9132C147.793 72.8596 148.038 72.7314 148.233 72.5437C148.389 72.3917 148.51 72.2068 148.587 72.0023C148.663 71.7979 148.694 71.5791 148.676 71.3615C148.676 70.8369 148.676 70.2346 148.676 69.5548C148.676 68.1915 148.676 66.5253 148.676 64.5931C148.676 64.1091 148.676 63.6103 148.676 63.0931C148.689 62.8357 148.632 62.5795 148.509 62.3527C148.387 62.1259 148.204 61.9373 147.982 61.8074C147.528 61.5192 146.933 61.6448 146.361 61.619H144.582L106.557 61.6448C106.34 61.6455 106.127 61.6977 105.934 61.7973C105.742 61.8969 105.575 62.0409 105.449 62.2175C105.324 62.3938 105.243 62.5979 105.213 62.8123C105.187 63.0192 105.213 63.263 105.213 63.4884V66.2187C105.213 68.029 105.213 69.8085 105.213 71.5573C105.221 71.7623 105.275 71.9629 105.373 72.1435C105.47 72.3241 105.607 72.48 105.774 72.5992C105.937 72.7177 106.126 72.7973 106.324 72.8319C106.534 72.8576 106.745 72.8662 106.956 72.8578H114.446L131.535 72.8762L143.057 72.9095L146.188 72.928H147.003H147.28C147.28 72.928 147.184 72.928 147.003 72.928H146.188H143.057L131.535 72.9575L114.446 72.9797H106.93C106.709 72.9892 106.488 72.9805 106.269 72.9538C106.04 72.9167 105.824 72.8255 105.638 72.6878C105.449 72.5518 105.293 72.3748 105.183 72.1701C105.072 71.9653 105.009 71.7381 104.999 71.5056C104.999 69.7519 104.999 67.9686 104.999 66.1559V63.4256C104.999 63.1928 104.999 62.9748 105.017 62.7236C105.049 62.478 105.142 62.2442 105.287 62.0438C105.43 61.8422 105.62 61.6777 105.839 61.5639C106.059 61.4502 106.302 61.3905 106.55 61.3899L144.574 61.4194H147.21C147.5 61.4118 147.786 61.4847 148.037 61.63C148.275 61.7735 148.469 61.9789 148.599 62.2242C148.729 62.4695 148.79 62.7456 148.776 63.0229C148.776 63.5401 148.776 64.0389 148.776 64.5229C148.776 66.4551 148.776 68.1214 148.757 69.4846C148.757 70.1644 148.757 70.7667 148.757 71.2913C148.772 71.516 148.738 71.7413 148.655 71.9509C148.573 72.1605 148.445 72.3491 148.281 72.5031C148.077 72.6974 147.82 72.8261 147.542 72.8725C147.45 72.9113 147.354 72.9374 147.255 72.9501Z" fill="#E0E0E0"/>
<path d="M128.161 64.5117H117.422V65.3171H128.161V64.5117Z" fill="#455A64" fill-opacity="0.1"/>
<path d="M136.235 69.0671H117.422V69.8725H136.235V69.0671Z" fill="#455A64" fill-opacity="0.1"/>
<path d="M144.685 66.7361H117.422V67.5415H144.685V66.7361Z" fill="#455A64" fill-opacity="0.1"/>
<path d="M124.31 80.0401C124.3 80.1882 124.247 80.33 124.157 80.4483C124.068 80.5665 123.946 80.656 123.806 80.7056C123.666 80.7553 123.515 80.7629 123.371 80.7277C123.227 80.6924 123.096 80.6158 122.995 80.5072C122.894 80.3986 122.827 80.2629 122.802 80.1166C122.777 79.9703 122.795 79.8199 122.855 79.6839C122.914 79.5479 123.012 79.4322 123.136 79.3511C123.26 79.2699 123.405 79.2269 123.553 79.2273C123.761 79.235 123.958 79.3249 124.1 79.4772C124.241 79.6296 124.317 79.832 124.31 80.0401Z" fill="#455A64" fill-opacity="0.1"/>
<path d="M126.658 80.0511C126.648 80.1991 126.595 80.341 126.505 80.4593C126.415 80.5775 126.293 80.667 126.154 80.7166C126.014 80.7662 125.863 80.7739 125.719 80.7387C125.574 80.7034 125.444 80.6268 125.343 80.5182C125.242 80.4096 125.175 80.2738 125.15 80.1276C125.125 79.9813 125.143 79.8309 125.202 79.6949C125.262 79.5588 125.359 79.4432 125.483 79.362C125.608 79.2809 125.753 79.2379 125.901 79.2383C126.004 79.2416 126.106 79.2653 126.2 79.308C126.294 79.3507 126.378 79.4116 126.448 79.4872C126.519 79.5627 126.573 79.6514 126.609 79.7482C126.645 79.845 126.662 79.9479 126.658 80.0511Z" fill="#455A64" fill-opacity="0.1"/>
<path d="M129.013 80.0623C129.003 80.2112 128.95 80.3537 128.859 80.4723C128.769 80.5908 128.645 80.6802 128.504 80.7292C128.364 80.7782 128.212 80.7847 128.067 80.7479C127.923 80.7111 127.792 80.6327 127.692 80.5223C127.592 80.4119 127.526 80.2745 127.503 80.1271C127.48 79.9796 127.501 79.8288 127.563 79.6932C127.625 79.5575 127.726 79.4432 127.853 79.3643C127.979 79.2855 128.126 79.2455 128.275 79.2495C128.48 79.261 128.672 79.3526 128.81 79.5047C128.949 79.6567 129.021 79.857 129.013 80.0623Z" fill="#455A64" fill-opacity="0.1"/>
<path d="M131.528 15.4823L90.8122 18.3346C90.0109 18.3908 89.4068 19.0863 89.4629 19.8882L90.0573 28.3857C90.1133 29.1876 90.8084 29.7922 91.6097 29.736L132.326 26.8837C133.127 26.8276 133.731 26.132 133.675 25.3301L133.081 16.8327C133.025 16.0308 132.329 15.4262 131.528 15.4823Z" fill="#625EFE"/>
<path d="M112.41 19.4046L101.698 20.1768L101.756 20.9801L112.468 20.2079L112.41 19.4046Z" fill="#FAFAFA"/>
<path d="M120.79 23.3678L102.025 24.7205L102.083 25.5238L120.848 24.1711L120.79 23.3678Z" fill="#FAFAFA"/>
<path d="M129.323 20.8469L102.06 22.7568L102.116 23.5623L129.379 21.6524L129.323 20.8469Z" fill="#FAFAFA"/>
<path d="M96.5527 23.6277C96.8006 23.4973 97.0045 23.2967 97.1391 23.0509C97.2737 22.8052 97.333 22.5252 97.3095 22.246C97.3119 22.0598 97.2757 21.8751 97.2033 21.7036C97.1308 21.5321 97.0237 21.3775 96.8886 21.2494C96.7535 21.1214 96.5934 21.0228 96.4183 20.9598C96.2432 20.8967 96.057 20.8706 95.8714 20.8832C95.6858 20.8957 95.5047 20.9466 95.3397 21.0326C95.1747 21.1186 95.0293 21.2379 94.9126 21.3829C94.7959 21.5279 94.7105 21.6956 94.6617 21.8753C94.613 22.055 94.6019 22.2428 94.6293 22.427C94.6456 22.7091 94.7447 22.9801 94.9141 23.2061C95.0835 23.4322 95.3158 23.6032 95.5818 23.6979C95.1628 23.7788 94.7773 23.9825 94.4743 24.2831C94.1713 24.5838 93.9644 24.9678 93.8799 25.3863C94.3971 25.9002 95.0832 26.2087 95.8107 26.2545L96.6339 26.1991C97.3581 26.0503 98.0035 25.6433 98.4502 25.0538C98.3123 24.6537 98.0578 24.3042 97.7196 24.05C97.3815 23.7959 96.9751 23.6488 96.5527 23.6277Z" fill="#FAFAFA"/>
<path d="M96.2351 26.2585C96.2351 26.2363 96.5083 26.229 96.9735 26.0738C97.6132 25.8486 98.159 25.4155 98.524 24.8435C98.7758 24.4544 98.9326 24.0114 98.9818 23.5504C99.0368 23.0216 98.9515 22.4876 98.7344 22.0024C98.6186 21.741 98.463 21.4992 98.273 21.2857C98.0828 21.0563 97.8557 20.8603 97.6011 20.7056C97.0687 20.3701 96.4431 20.2136 95.8156 20.2588C95.1881 20.304 94.5913 20.5486 94.1124 20.9568C93.6642 21.336 93.339 21.8402 93.1784 22.4051C93.0387 22.8824 93.0217 23.3873 93.1288 23.8729C93.2359 24.3586 93.4638 24.8093 93.7912 25.1834C94.2348 25.6982 94.8378 26.0494 95.5042 26.1809C95.9767 26.2696 96.2425 26.2363 96.2425 26.2585C96.18 26.276 96.1154 26.2847 96.0506 26.2844C95.8618 26.296 95.6723 26.2861 95.4857 26.2548C94.7905 26.1457 94.1542 25.7999 93.6842 25.2758C93.3591 24.9131 93.1238 24.479 92.9975 24.0085C92.8498 23.4667 92.8498 22.8952 92.9975 22.3534C93.0764 22.061 93.201 21.7829 93.3667 21.5295C93.5318 21.2586 93.7401 21.0165 93.9832 20.8128C94.4898 20.3804 95.1213 20.1214 95.7854 20.0735C96.4496 20.0256 97.1116 20.1915 97.6749 20.5467C98.2011 20.8781 98.6163 21.3593 98.8673 21.9285C99.0947 22.4421 99.1802 23.0073 99.1147 23.5652C99.0563 24.0493 98.8843 24.5126 98.6126 24.9174C98.2258 25.5065 97.6443 25.9407 96.9698 26.144C96.7916 26.2029 96.6069 26.2402 96.4197 26.2548C96.3585 26.2629 96.2966 26.2642 96.2351 26.2585Z" fill="#FAFAFA"/>
<path d="M81.4782 125.076L80.9355 128.213L85.7643 128.564L85.7791 125.483L81.4782 125.076Z" fill="#FF725E"/>
<path d="M83.6498 125.121C83.6713 125.599 83.6428 126.078 83.5649 126.551C83.5335 127.028 83.4569 127.502 83.336 127.966C83.3146 127.487 83.343 127.008 83.4209 126.536C83.4519 126.058 83.5285 125.584 83.6498 125.121Z" fill="#263238"/>
<path d="M85.7648 128.224C85.5311 128.231 85.2972 128.214 85.0671 128.172L83.3873 127.988C82.7339 127.91 82.1395 127.833 81.715 127.759C81.4811 127.733 81.2507 127.681 81.0283 127.604C81.2619 127.601 81.4954 127.618 81.7261 127.655L83.4058 127.844C84.0592 127.918 84.6536 127.999 85.0818 128.073C85.3145 128.097 85.5437 128.148 85.7648 128.224Z" fill="#263238"/>
<path d="M101.407 127.581L102.024 124.84L96.8994 123.65L95.958 127.652L96.2681 127.748C97.6636 128.154 103.397 129.713 104.408 129.647C105.534 129.569 101.407 127.581 101.407 127.581Z" fill="#FF725E"/>
<path d="M97.8219 128.043C97.8451 127.593 97.7033 127.151 97.4232 126.798C97.148 126.451 96.7529 126.219 96.3157 126.148L95.9834 127.581L97.8219 128.043Z" fill="#EBEBEB"/>
<path d="M103.401 128.631C103.401 128.631 104.822 129.425 104.575 129.632C104.328 129.839 98.4763 128.479 95.9512 127.652L95.9844 127.541L102.796 129.185C102.796 129.185 103.106 128.572 103.401 128.631Z" fill="#EBEBEB"/>
<path d="M95.9102 127.519L95.9988 127.548L96.2461 127.622L97.169 127.881C97.948 128.091 99.0149 128.368 100.229 128.649C101.444 128.93 102.526 129.159 103.316 129.314L104.257 129.491L104.516 129.536H104.604L104.516 129.51L104.261 129.454L103.327 129.259C102.537 129.092 101.444 128.856 100.244 128.575C99.0444 128.294 97.9628 128.025 97.1801 127.836L96.2535 127.6L96.0024 127.537L95.9102 127.519Z" fill="#263238"/>
<path d="M102.78 129.262C102.857 129.118 102.95 128.983 103.057 128.86C103.181 128.751 103.316 128.655 103.46 128.575C103.29 128.608 103.135 128.691 103.014 128.814C102.893 128.936 102.811 129.093 102.78 129.262Z" fill="#263238"/>
<path d="M101.447 128.146C101.447 128.146 101.551 128.087 101.654 127.984C101.758 127.88 101.828 127.792 101.817 127.781C101.806 127.77 101.713 127.84 101.61 127.94C101.507 128.039 101.436 128.132 101.447 128.146Z" fill="#263238"/>
<path d="M101.082 127.829C101.082 127.829 101.186 127.829 101.293 127.751C101.4 127.674 101.477 127.629 101.47 127.615C101.463 127.6 101.367 127.637 101.263 127.696C101.16 127.755 101.075 127.814 101.082 127.829Z" fill="#263238"/>
<path d="M100.935 127.286C101.013 127.335 101.101 127.368 101.193 127.382C101.281 127.411 101.374 127.422 101.466 127.415C101.466 127.397 101.355 127.356 101.208 127.319C101.06 127.282 100.938 127.267 100.935 127.286Z" fill="#263238"/>
<path d="M100.923 126.92C100.923 126.92 101.03 127.023 101.2 127.079C101.3 127.121 101.411 127.131 101.517 127.108C101.421 127.068 101.32 127.038 101.218 127.016C101.122 126.977 101.023 126.945 100.923 126.92Z" fill="#263238"/>
<path d="M101.725 127.736C101.829 127.78 101.94 127.806 102.053 127.814C102.176 127.825 102.3 127.825 102.422 127.814C102.497 127.808 102.571 127.796 102.644 127.777C102.688 127.763 102.725 127.733 102.747 127.692C102.758 127.669 102.762 127.643 102.759 127.617C102.755 127.592 102.745 127.568 102.729 127.548C102.617 127.458 102.479 127.409 102.336 127.409C102.193 127.409 102.054 127.458 101.942 127.548C101.876 127.601 101.822 127.668 101.784 127.744C101.758 127.799 101.75 127.829 101.754 127.832C101.811 127.738 101.883 127.655 101.968 127.585C102.063 127.515 102.176 127.474 102.293 127.467C102.427 127.457 102.559 127.499 102.662 127.585C102.707 127.637 102.662 127.692 102.607 127.714C102.54 127.732 102.472 127.745 102.404 127.751C102.281 127.762 102.158 127.762 102.035 127.751C101.854 127.755 101.728 127.729 101.725 127.736Z" fill="#263238"/>
<path d="M101.805 127.774C101.862 127.715 101.895 127.637 101.898 127.556C101.906 127.467 101.894 127.377 101.864 127.293C101.82 127.205 101.772 127.086 101.628 127.061C101.593 127.06 101.559 127.074 101.534 127.098C101.509 127.122 101.493 127.155 101.491 127.19C101.487 127.244 101.495 127.298 101.514 127.349C101.54 127.431 101.576 127.511 101.621 127.585C101.659 127.656 101.714 127.716 101.779 127.763C101.779 127.763 101.728 127.689 101.661 127.563C101.623 127.49 101.592 127.413 101.569 127.334C101.539 127.253 101.539 127.12 101.624 127.123C101.709 127.127 101.772 127.238 101.809 127.315C101.839 127.391 101.854 127.471 101.853 127.552C101.844 127.627 101.828 127.701 101.805 127.774Z" fill="#263238"/>
<path d="M96.3418 126.133C96.3418 126.133 96.4895 126.152 96.711 126.233C97.0079 126.334 97.2698 126.517 97.466 126.762C97.6622 127.007 97.7845 127.303 97.8185 127.615C97.8443 127.855 97.8185 128.002 97.8185 128.006C97.8326 127.973 97.8413 127.938 97.8443 127.903C97.8525 127.806 97.8525 127.708 97.8443 127.611C97.8215 127.288 97.7017 126.98 97.5008 126.727C97.2998 126.474 97.0271 126.287 96.7183 126.192C96.6271 126.163 96.5331 126.143 96.4378 126.133C96.4061 126.127 96.3735 126.127 96.3418 126.133Z" fill="#263238"/>
<path d="M97.3684 124.131C97.2504 124.471 97.1542 124.819 97.0804 125.172C96.9847 125.52 96.9083 125.873 96.8516 126.229C96.9702 125.889 97.0664 125.54 97.1395 125.187C97.2353 124.84 97.3117 124.487 97.3684 124.131Z" fill="#455A64" fill-opacity="0.1"/>
<path d="M98.6016 127.692C98.8355 127.807 99.0839 127.89 99.3399 127.94C99.5882 128.013 99.8453 128.051 100.104 128.054C100.104 128.036 99.7682 127.98 99.3658 127.881C98.9634 127.781 98.6016 127.677 98.6016 127.692Z" fill="#263238"/>
<path d="M97.5791 127.459C97.5791 127.459 97.5791 127.537 97.6086 127.622C97.6382 127.707 97.6271 127.777 97.6455 127.781C97.664 127.784 97.6899 127.707 97.6714 127.607C97.6529 127.507 97.5939 127.448 97.5791 127.459Z" fill="#263238"/>
<path d="M97.3125 126.898C97.3125 126.898 97.3125 126.968 97.3568 127.034C97.4011 127.101 97.4417 127.149 97.4565 127.138C97.4712 127.127 97.4565 127.068 97.4122 127.001C97.3679 126.935 97.3273 126.89 97.3125 126.898Z" fill="#263238"/>
<path d="M96.8184 126.558C96.8184 126.576 96.8885 126.591 96.9586 126.636C97.0288 126.68 97.0694 126.732 97.0878 126.724C97.1063 126.717 97.0879 126.636 96.9919 126.58C96.8959 126.525 96.8184 126.539 96.8184 126.558Z" fill="#263238"/>
<path d="M96.4561 126.366C96.4561 126.366 96.4561 126.414 96.5114 126.44C96.5668 126.465 96.589 126.477 96.5963 126.462C96.6037 126.447 96.5963 126.414 96.5447 126.388C96.493 126.362 96.4671 126.351 96.4561 126.366Z" fill="#263238"/>
<path d="M128.106 24.6956C127.737 24.1377 125.322 25.6266 125.108 25.7375C124.894 25.8483 124.739 25.5453 124.927 25.4567C125.212 25.3274 128.15 23.8939 127.781 23.3434C127.574 23.0404 127.043 23.4616 127.043 23.4616C127.043 23.4616 124.388 25.0022 124.222 24.7362C124.056 24.4702 125.581 23.506 126.116 23.2215C126.651 22.937 126.729 22.5712 126.411 22.4382C126.19 22.3496 124.521 23.1771 123.997 23.4838C123.473 23.7904 122.048 24.6143 122.413 23.6316C122.779 22.6488 122.694 21.751 122.502 21.5257C122.453 21.4778 122.39 21.4466 122.322 21.4365C122.254 21.4263 122.184 21.4377 122.123 21.4691C122.062 21.5005 122.012 21.5503 121.981 21.6115C121.949 21.6727 121.938 21.7422 121.948 21.8102C121.937 22.1648 121.879 22.5164 121.775 22.8557C121.71 23.1372 121.584 23.4009 121.405 23.6279C121.302 23.7424 121.21 23.8532 121.121 23.9567L120.844 24.3261C120.497 24.7436 120.324 24.9801 120.324 24.9801L106.436 42.5661L107.174 49.8739L123.281 27.9764V27.9579C124.307 27.7007 125.319 27.3886 126.312 27.0232C127.759 26.4246 127.707 26.2843 127.608 26.1365C127.342 25.7153 125.023 27.0971 125.352 26.5059C125.681 25.9148 128.401 25.1242 128.106 24.6956Z" fill="#E5BAAB"/>
<path d="M88.8068 37.2941L90.7449 25.9518C90.9628 25.671 91.2839 25.2572 91.6457 24.7511C91.8193 24.5107 92.0328 24.302 92.277 24.1341C92.5715 23.9121 92.8959 23.733 93.2406 23.6021C93.3108 23.5891 93.3751 23.5544 93.4244 23.5028C93.4738 23.4512 93.5056 23.3853 93.5154 23.3145C93.5252 23.2438 93.5125 23.1717 93.4791 23.1086C93.4456 23.0455 93.3932 22.9945 93.3292 22.9629C93.0449 22.8521 92.1367 23.0738 91.2987 23.772C90.4607 24.4703 90.7892 22.7856 90.9 22.1686C91.0108 21.5516 91.2692 19.6304 91.092 19.4457C90.852 19.176 90.5197 19.3829 90.4274 20.0036C90.3352 20.6243 89.918 22.4531 89.5968 22.3792C89.2756 22.3053 89.8737 19.1797 89.8737 19.1797C89.8737 19.1797 90.11 18.5295 89.7408 18.4408C89.0726 18.2672 88.685 21.6403 88.6554 21.9617C88.6333 22.1871 88.2863 22.1206 88.3158 21.8804C88.3453 21.6403 88.984 18.7696 88.3158 18.5886C87.7953 18.4445 87.9725 21.3595 87.511 21.8804C87.0495 22.4014 87.6033 19.6637 87.1012 19.5418C86.9129 19.5011 86.769 19.4938 86.6767 21.1157C86.6642 22.2848 86.7122 23.4539 86.8206 24.6181C86.7431 25.0393 84.5096 37.2645 84.3619 39.0896C84.2143 40.9147 90.4791 51.7028 90.4791 51.7028L94.8058 47.2694L88.8068 37.2941Z" fill="#E5BAAB"/>
<path d="M86.0158 44.6571C85.8644 44.9896 88.6 48.8209 89.9918 51.7248L91.2174 59.8121C89.8109 62.3983 88.1976 65.3946 87.4186 68.7086C92.9747 71.2948 99.2986 70.9918 105.375 69.817L104.102 60.8873L106.224 52.0203L111.47 45.6879L107.657 40.6116L103.485 45.0672L101.517 45.5549C99.7232 46.0019 96.408 45.71 94.7172 44.9527L91.8893 41.3061L86.0158 44.6571Z" fill="#C224FE"/>
<path d="M99.4835 59.3098C99.2225 59.4759 98.9373 59.6006 98.6381 59.6793C97.923 59.9193 97.1769 60.055 96.4231 60.082C95.671 60.1083 94.9189 60.0275 94.1896 59.8418C93.8845 59.7817 93.5906 59.6745 93.3184 59.5241C94.3318 59.7738 95.372 59.8979 96.4157 59.8935C97.4581 59.8238 98.4883 59.6278 99.4835 59.3098Z" fill="#263238"/>
<path d="M107.635 50.4871C107.579 50.551 107.512 50.6037 107.436 50.6423C107.238 50.7635 107.024 50.8579 106.801 50.9231C106.053 51.1513 105.246 51.0801 104.55 50.7245C103.854 50.3688 103.323 49.7566 103.069 49.0167C102.987 48.7997 102.937 48.572 102.921 48.3406C102.921 48.1781 102.921 48.0857 102.921 48.0857C102.992 48.3847 103.079 48.6796 103.183 48.9687C103.455 49.6546 103.968 50.2177 104.625 50.5529C105.282 50.8881 106.038 50.9724 106.753 50.7901C107.318 50.6608 107.617 50.4539 107.635 50.4871Z" fill="#263238"/>
<path d="M110.755 46.4749C110.564 46.2139 110.396 45.9371 110.252 45.6474C109.957 45.1338 109.547 44.4245 109.067 43.656C108.587 42.8875 108.13 42.2077 107.794 41.7164C107.596 41.4612 107.42 41.1893 107.27 40.9036C107.51 41.1238 107.723 41.3718 107.905 41.6425C108.274 42.1154 108.746 42.7878 109.23 43.5599C109.713 44.3321 110.108 45.0562 110.374 45.5919C110.533 45.8713 110.661 46.1675 110.755 46.4749Z" fill="#263238"/>
<path d="M92.4502 41.8975C92.1766 42.0938 91.8863 42.2656 91.5826 42.411L89.4673 43.5822L87.3704 44.794C87.09 44.9792 86.7935 45.1387 86.4844 45.2706C86.7357 45.0454 87.009 44.8461 87.3003 44.6758C87.8171 44.3359 88.5481 43.8814 89.3713 43.4159C90.1946 42.9504 90.9624 42.5588 91.5199 42.3076C91.8158 42.1406 92.1274 42.0032 92.4502 41.8975Z" fill="#263238"/>
<path d="M90.9631 49.002C90.9108 49.3204 90.8216 49.6316 90.6973 49.9293C90.6293 50.2449 90.5239 50.5512 90.3835 50.8418C90.3398 50.5122 90.3844 50.1769 90.5127 49.8702C90.5811 49.5451 90.7368 49.245 90.9631 49.002Z" fill="#263238"/>
<path d="M100.546 45.5512C100.48 44.7273 100.443 43.7926 100.443 43.7926C100.443 43.7926 102.433 43.3049 102.289 41.2064C102.145 39.1079 101.384 34.305 101.384 34.305L97.46 32.9121L93.8311 36.6362L95.8098 46.981L99.5643 46.7334C99.849 46.7017 100.11 46.5608 100.293 46.3404C100.477 46.1199 100.567 45.8371 100.546 45.5512Z" fill="#E5BAAB"/>
<path d="M100.001 39.969C100.001 39.969 100.001 40.0096 99.9823 40.065C99.9572 40.1018 99.9243 40.1328 99.8861 40.1557C99.8479 40.1787 99.8052 40.1931 99.7609 40.198C99.5246 40.198 99.2662 39.9875 99.1406 39.6808C99.0823 39.5343 99.0583 39.3763 99.0705 39.219C99.0689 39.151 99.0847 39.0838 99.1164 39.0237C99.148 38.9636 99.1945 38.9125 99.2514 38.8754C99.2759 38.8648 99.3023 38.8594 99.3289 38.8594C99.3556 38.8594 99.382 38.8648 99.4064 38.8754C99.4449 38.8885 99.4776 38.9146 99.4987 38.9493C99.5357 39.0084 99.5172 39.049 99.4987 39.0453C99.4803 39.0417 99.4987 39.0121 99.4507 38.9752C99.426 38.9541 99.3946 38.9425 99.3621 38.9425C99.3297 38.9425 99.2983 38.9541 99.2735 38.9752C99.2327 39.0089 99.2006 39.0521 99.18 39.101C99.1595 39.1499 99.151 39.2031 99.1554 39.2559C99.1518 39.3963 99.1769 39.5358 99.2292 39.666C99.34 39.9431 99.5652 40.1463 99.7424 40.1463C99.8146 40.1457 99.8836 40.1165 99.9344 40.065C99.9823 39.9985 99.9934 39.969 100.001 39.969Z" fill="#D78776"/>
<path d="M100.845 32.6906L100.926 32.8014C100.204 32.2839 99.3121 32.0594 98.4308 32.1733C97.5109 32.2176 96.6078 32.4357 95.769 32.8162C95.5438 32.9196 95.3187 33.0231 95.0972 33.1339C95.2173 32.9415 95.3116 32.734 95.3777 32.5169C95.4875 32.1859 95.4952 31.8295 95.3997 31.4941C95.3042 31.1587 95.11 30.8598 94.8424 30.6364C94.5413 30.4432 94.1804 30.3659 93.8266 30.4189C93.4729 30.4719 93.1504 30.6516 92.919 30.9246C92.704 31.2112 92.5877 31.56 92.5877 31.9184C92.5877 32.2769 92.704 32.6256 92.919 32.9123C93.0774 33.1153 93.2765 33.283 93.5034 33.4046C93.7304 33.5261 93.9803 33.5988 94.237 33.6179C94.0893 33.7177 93.9453 33.8211 93.8087 33.932C93.2314 34.4152 92.7969 35.0471 92.5523 35.7594C92.3077 36.4718 92.2622 37.2375 92.4207 37.9738C92.5284 38.3728 92.6691 38.762 92.8415 39.1376C92.8705 39.4692 92.8568 39.8032 92.8009 40.1314C92.7372 40.5342 92.5793 40.9162 92.34 41.2462C92.1007 41.5762 91.7868 41.8449 91.4239 42.0304C91.1464 42.1124 90.893 42.2608 90.6855 42.4627C90.6012 42.6026 90.5566 42.7629 90.5566 42.9263C90.5566 43.0897 90.6012 43.2501 90.6855 43.39C90.8313 43.6385 91.027 43.8542 91.2602 44.0233C91.4934 44.1924 91.759 44.3114 92.0404 44.3727C92.1291 44.3944 92.2191 44.4105 92.3099 44.4208C92.2451 44.8658 92.3012 45.3202 92.4723 45.736C92.8389 46.3231 93.369 46.7901 93.9974 47.0796C94.6258 47.3691 95.325 47.4684 96.009 47.3653L96.0644 46.3863L96.4336 47.4946C96.4336 47.4946 97.6666 47.9565 100.446 46.7003C101.373 46.2754 100.015 42.906 100.015 42.906C99.3242 42.2225 99.5457 41.0883 99.5457 41.0883C98.9624 41.1622 98.3939 39.6363 98.5157 39.1265C98.563 38.8675 98.6956 38.6319 98.8923 38.4571C99.089 38.2824 99.3385 38.1785 99.6011 38.1622C99.8336 38.1622 99.7746 39.3592 100.38 39.2262C100.893 39.2262 100.701 38.2694 100.86 37.7891C101.229 36.7435 101.923 35.2805 101.668 34.209C102.473 33.2448 101.668 32.081 100.845 32.6906Z" fill="#263238"/>
<path d="M91.3692 36.0638C91.2461 35.838 91.2131 35.574 91.2769 35.3249C91.3201 35.0574 91.4264 34.8041 91.587 34.586C91.7838 34.3097 92.065 34.1048 92.3881 34.0022C92.7039 33.9277 93.0272 33.8892 93.3516 33.8877C93.5986 33.883 93.8397 33.8115 94.0494 33.6808C94.1436 33.619 94.2247 33.5392 94.288 33.446C94.3514 33.3528 94.3957 33.2481 94.4186 33.1377C94.4186 33.1377 94.4555 33.2042 94.4186 33.3372C94.376 33.5214 94.2669 33.6833 94.1121 33.7916C93.8909 33.9554 93.6264 34.0505 93.3516 34.065C93.0421 34.0737 92.7341 34.1133 92.4324 34.1833C92.175 34.2753 91.9449 34.431 91.7636 34.6357C91.5823 34.8404 91.4555 35.0876 91.395 35.3544C91.3616 35.5893 91.3529 35.8271 91.3692 36.0638Z" fill="#263238"/>
<path d="M100.185 46.5672C100.347 46.332 100.492 46.085 100.617 45.8283C100.746 45.5147 100.809 45.1774 100.8 44.8382C100.791 44.499 100.711 44.1655 100.565 43.8591C100.38 43.5246 100.176 43.2014 99.9526 42.8911C99.7642 42.6251 99.6254 42.3272 99.5428 42.0118C99.4921 41.8682 99.4741 41.7151 99.49 41.5636C99.506 41.4121 99.5555 41.2661 99.6351 41.1362C99.5835 41.4164 99.5974 41.7047 99.6757 41.9786C99.7722 42.2701 99.9142 42.5444 100.097 42.7914C100.333 43.1023 100.548 43.4294 100.739 43.7704C100.919 44.1335 101.001 44.537 100.979 44.9416C100.961 45.2683 100.879 45.5883 100.739 45.8837C100.645 46.0807 100.52 46.2615 100.37 46.4194C100.266 46.5266 100.193 46.5746 100.185 46.5672Z" fill="#263238"/>
<path d="M87.6297 68.7973L79.8291 125.427L87.5817 125.664C87.5817 125.664 95.4894 75.8169 96.0099 76.1088C96.5305 76.4007 101.817 97.6185 101.584 98.9189C101.452 99.6579 95.482 125.102 95.9066 125.002C96.3311 124.903 103.386 125.616 103.386 125.616C103.386 125.616 109.466 98.8561 109.378 98.2096C109.167 96.6357 105.169 68.1101 105.169 68.1101L87.6297 68.7973Z" fill="#263238"/>
<path d="M98.9185 76.7925C98.5914 76.7793 98.2668 76.7285 97.9513 76.641C96.4115 76.305 94.9107 75.8097 93.4732 75.1632C93.1694 75.044 92.8797 74.8916 92.6094 74.7087C92.9247 74.7916 93.2322 74.9017 93.5286 75.0376C94.0898 75.2555 94.865 75.5474 95.7437 75.8356C96.6223 76.1237 97.4086 76.3528 97.9919 76.5117C98.3079 76.5797 98.6179 76.6737 98.9185 76.7925Z" fill="#455A64" fill-opacity="0.1"/>
<path d="M101.078 125.394C101.13 125.394 101.13 125.616 101.078 125.863C101.027 126.111 100.938 126.307 100.886 126.296C100.835 126.285 100.835 126.074 100.886 125.823C100.938 125.572 101.027 125.394 101.078 125.394Z" fill="#455A64" fill-opacity="0.1"/>
<path d="M101.849 121.822C101.856 122.436 101.73 123.045 101.48 123.606C101.45 123.298 101.484 122.988 101.58 122.693C101.611 122.388 101.702 122.091 101.849 121.822Z" fill="#455A64" fill-opacity="0.1"/>
<path d="M102.625 118.26C102.628 118.873 102.502 119.48 102.256 120.041C102.252 119.428 102.378 118.821 102.625 118.26Z" fill="#455A64" fill-opacity="0.1"/>
<path d="M103.401 114.68C103.43 114.988 103.397 115.298 103.301 115.592C103.266 115.899 103.169 116.196 103.017 116.464C102.985 116.157 103.018 115.846 103.113 115.552C103.148 115.245 103.246 114.948 103.401 114.68Z" fill="#455A64" fill-opacity="0.1"/>
<path d="M104.172 111.133C104.175 111.746 104.049 112.353 103.803 112.914C103.799 112.301 103.925 111.694 104.172 111.133Z" fill="#455A64" fill-opacity="0.1"/>
<path d="M104.944 107.568C104.942 108.184 104.81 108.792 104.557 109.353C104.559 108.737 104.691 108.129 104.944 107.568Z" fill="#455A64" fill-opacity="0.1"/>
<path d="M105.715 104.006C105.745 104.313 105.712 104.622 105.619 104.915C105.584 105.223 105.486 105.52 105.331 105.787C105.33 105.174 105.456 104.568 105.7 104.006H105.715Z" fill="#455A64" fill-opacity="0.1"/>
<path d="M106.49 100.441C106.488 101.057 106.356 101.665 106.103 102.226C106.105 101.61 106.237 101.002 106.49 100.441Z" fill="#455A64" fill-opacity="0.1"/>
<path d="M106.723 96.8577C106.856 97.1363 106.932 97.4393 106.944 97.7481C106.978 97.9757 106.998 98.2052 107.003 98.4352V98.4537C106.955 98.5867 106.919 98.6606 106.896 98.6569C106.874 98.6532 106.867 98.5645 106.896 98.4242V98.4463C106.839 98.2239 106.796 97.9981 106.767 97.7702C106.69 97.4723 106.675 97.1617 106.723 96.8577Z" fill="#455A64" fill-opacity="0.1"/>
<path d="M106.206 93.2517C106.34 93.5303 106.414 93.8334 106.424 94.1421C106.499 94.4419 106.509 94.7543 106.454 95.0583C106.32 94.7798 106.246 94.4766 106.236 94.168C106.161 93.8682 106.151 93.5557 106.206 93.2517Z" fill="#455A64" fill-opacity="0.1"/>
<path d="M105.704 89.6348C105.839 89.9129 105.915 90.2161 105.926 90.5252C105.999 90.8252 106.009 91.1372 105.955 91.4414C105.822 91.1627 105.746 90.8598 105.734 90.551C105.663 90.2506 105.653 89.9391 105.704 89.6348Z" fill="#455A64" fill-opacity="0.1"/>
<path d="M105.206 86.0215C105.339 86.3002 105.415 86.6031 105.427 86.9119C105.498 87.2123 105.508 87.5238 105.457 87.8281C105.322 87.55 105.246 87.2467 105.235 86.9377C105.162 86.6376 105.152 86.3257 105.206 86.0215Z" fill="#455A64" fill-opacity="0.1"/>
<path d="M104.708 82.4082C104.841 82.6868 104.915 82.9899 104.925 83.2986C105.001 83.5984 105.011 83.9108 104.955 84.2148C104.824 83.9356 104.75 83.6328 104.737 83.3245C104.664 83.0244 104.654 82.7124 104.708 82.4082Z" fill="#455A64" fill-opacity="0.1"/>
<path d="M104.205 78.7986C104.34 79.0767 104.416 79.38 104.427 79.689C104.5 79.9891 104.51 80.301 104.456 80.6052C104.323 80.3267 104.249 80.0235 104.238 79.7148C104.165 79.4148 104.154 79.1031 104.205 78.7986Z" fill="#455A64" fill-opacity="0.1"/>
<path d="M103.707 75.1853C103.84 75.464 103.916 75.7669 103.928 76.0757C104.001 76.3758 104.012 76.6878 103.958 76.9919C103.825 76.7133 103.749 76.4103 103.737 76.1015C103.666 75.8011 103.656 75.4896 103.707 75.1853Z" fill="#455A64" fill-opacity="0.1"/>
<path d="M103.331 72.4661C103.386 72.4661 103.456 72.6582 103.489 72.9094C103.523 73.1606 103.512 73.3712 103.46 73.3786C103.408 73.386 103.334 73.1865 103.301 72.9353C103.268 72.6841 103.279 72.4735 103.331 72.4661Z" fill="#455A64" fill-opacity="0.1"/>
<path d="M95.1123 126.055L103.721 126.562L104.175 124.094L95.5959 123.75L95.1123 126.055Z" fill="#455A64" fill-opacity="0.1"/>
<path d="M79.3193 125.424L87.9321 125.926L88.3825 123.462L79.803 123.118L79.3193 125.424Z" fill="#455A64" fill-opacity="0.1"/>
<path d="M94.4001 76.4044C94.3484 76.4044 94.3484 76.179 94.4001 75.9315C94.4518 75.6839 94.533 75.4881 94.5847 75.4992C94.6364 75.5103 94.6401 75.7209 94.5847 75.9684C94.5293 76.216 94.4518 76.4118 94.4001 76.4044Z" fill="#455A64" fill-opacity="0.1"/>
<path d="M93.6729 79.9511C93.6403 79.6453 93.6705 79.3361 93.7615 79.0423C93.7915 78.7371 93.8846 78.4415 94.0346 78.1741C94.0404 78.7861 93.9145 79.3921 93.6655 79.9511H93.6729Z" fill="#455A64" fill-opacity="0.1"/>
<path d="M92.9641 83.5166C92.9288 83.2113 92.9565 82.902 93.0453 82.6078C93.0757 82.302 93.1673 82.0054 93.3148 81.7358C93.3544 82.0411 93.3267 82.3513 93.2336 82.6447C93.2051 82.9509 93.1134 83.2478 92.9641 83.5166Z" fill="#455A64" fill-opacity="0.1"/>
<path d="M92.2704 87.0781C92.233 86.7731 92.2594 86.4636 92.3479 86.1693C92.376 85.8635 92.4665 85.5668 92.6137 85.2974C92.6511 85.6024 92.6247 85.9119 92.5362 86.2062C92.5073 86.5118 92.4168 86.8084 92.2704 87.0781Z" fill="#455A64" fill-opacity="0.1"/>
<path d="M91.5874 90.6431C91.5496 90.3383 91.5747 90.029 91.6612 89.7343C91.6883 89.4276 91.7775 89.1297 91.9234 88.8586C91.9657 89.1631 91.9418 89.4732 91.8532 89.7675C91.8275 90.0749 91.7369 90.3734 91.5874 90.6431Z" fill="#455A64" fill-opacity="0.1"/>
<path d="M90.937 94.2122C90.9163 93.601 91.0271 92.9924 91.2619 92.4277C91.3017 92.7323 91.2778 93.0418 91.1918 93.3366C91.1672 93.6428 91.0805 93.9407 90.937 94.2122Z" fill="#455A64" fill-opacity="0.1"/>
<path d="M90.3018 97.7847C90.2793 97.1732 90.3862 96.5638 90.6156 95.9966C90.6584 96.3006 90.637 96.6102 90.5528 96.9054C90.5311 97.2128 90.4456 97.5123 90.3018 97.7847Z" fill="#455A64" fill-opacity="0.1"/>
<path d="M89.6888 101.357C89.6655 100.747 89.7685 100.138 89.9915 99.5693C90.0391 99.874 90.0202 100.185 89.9361 100.482C89.9168 100.788 89.8325 101.087 89.6888 101.357Z" fill="#455A64" fill-opacity="0.1"/>
<path d="M89.1056 104.938C89.0554 104.635 89.0718 104.325 89.1536 104.029C89.1719 103.722 89.2536 103.423 89.3936 103.149C89.4395 103.452 89.4232 103.762 89.3456 104.058C89.3273 104.365 89.2456 104.664 89.1056 104.938Z" fill="#455A64" fill-opacity="0.1"/>
<path d="M88.5448 108.521C88.5109 107.911 88.6053 107.301 88.8217 106.729C88.8563 107.34 88.762 107.95 88.5448 108.521Z" fill="#455A64" fill-opacity="0.1"/>
<path d="M88.0095 112.112C87.9609 111.809 87.9734 111.498 88.0464 111.2C88.0594 110.892 88.1374 110.591 88.2753 110.317C88.324 110.62 88.3115 110.931 88.2384 111.229C88.2254 111.536 88.1474 111.837 88.0095 112.112Z" fill="#455A64" fill-opacity="0.1"/>
<path d="M87.5256 115.703C87.4696 115.401 87.4784 115.09 87.5514 114.791C87.564 114.484 87.6394 114.184 87.7729 113.908C87.8259 114.209 87.8159 114.519 87.7434 114.817C87.7313 115.124 87.6572 115.425 87.5256 115.703Z" fill="#455A64" fill-opacity="0.1"/>
<path d="M87.0319 119.298C86.9672 118.999 86.9672 118.689 87.0319 118.389C87.0417 118.082 87.1146 117.78 87.246 117.503C87.2947 118.111 87.2155 118.723 87.0135 119.298H87.0319Z" fill="#455A64" fill-opacity="0.1"/>
<path d="M86.58 122.9C86.5248 122.292 86.6004 121.678 86.8015 121.101C86.863 121.401 86.863 121.71 86.8015 122.01C86.7933 122.319 86.7177 122.623 86.58 122.9Z" fill="#455A64" fill-opacity="0.1"/>
<path d="M86.2637 125.62C86.212 125.62 86.1935 125.405 86.2231 125.15C86.2526 124.895 86.3191 124.696 86.3707 124.703C86.4224 124.711 86.4409 124.921 86.4114 125.173C86.3818 125.424 86.3191 125.627 86.2637 125.62Z" fill="#455A64" fill-opacity="0.1"/>
<path d="M106.671 98.7934C105.923 98.7928 105.175 98.7533 104.43 98.6752C103.681 98.6592 102.933 98.6025 102.189 98.5052C103.689 98.379 105.2 98.4761 106.671 98.7934Z" fill="#455A64" fill-opacity="0.1"/>
<path d="M106.246 97.8697C105.005 98.1378 103.727 98.1853 102.47 98.0101C103.096 97.9377 103.726 97.9056 104.356 97.9141C104.985 97.8584 105.616 97.8435 106.246 97.8697Z" fill="#455A64" fill-opacity="0.1"/>
<path d="M86.7141 100.567C86.0087 99.6311 85.4071 98.6215 84.9199 97.5557C85.6253 98.4913 86.2269 99.5009 86.7141 100.567Z" fill="#455A64" fill-opacity="0.1"/>
<path d="M105.39 70.2421C105.39 70.2421 105.39 70.3381 105.39 70.5007C105.357 70.7345 105.307 70.9654 105.239 71.1916C105.144 71.5376 104.965 71.8548 104.718 72.1152C104.558 72.272 104.366 72.3935 104.155 72.4717C103.945 72.55 103.72 72.5833 103.496 72.5696C103.062 72.5471 102.636 72.4457 102.237 72.2704C101.909 72.1384 101.604 71.9524 101.337 71.7199C101.071 71.5205 100.895 71.2245 100.846 70.896C100.991 71.1708 101.188 71.4154 101.425 71.6164C101.691 71.8234 101.988 71.9879 102.304 72.1041C102.684 72.2623 103.089 72.3548 103.5 72.3775C103.701 72.392 103.903 72.3651 104.094 72.2984C104.284 72.2316 104.459 72.1265 104.608 71.9896C104.843 71.7526 105.02 71.4643 105.124 71.1472C105.294 70.6004 105.357 70.2347 105.39 70.2421Z" fill="#455A64" fill-opacity="0.1"/>
<path d="M94.5841 75.5178C94.5841 75.5178 94.5213 75.4735 94.429 75.3812C94.2805 75.2651 94.1433 75.1352 94.0193 74.9932C93.8239 74.7824 93.6654 74.5401 93.5504 74.2765C93.4878 73.9329 93.4717 73.5825 93.5024 73.2346C93.543 72.4957 93.6279 71.8602 93.6907 71.3873C93.7098 71.1363 93.7581 70.8883 93.8347 70.6484C93.8974 70.6484 93.7904 71.8233 93.6944 73.2568C93.665 73.5843 93.6737 73.9141 93.7202 74.2395C93.8231 74.484 93.9598 74.7129 94.1263 74.9193C94.2518 75.1151 94.4032 75.2223 94.4955 75.3442C94.5878 75.4661 94.5952 75.492 94.5841 75.5178Z" fill="#455A64" fill-opacity="0.1"/>
</g>
<path opacity="0.6" d="M0.432797 163.6H6.4928V164.656H4.0088V172H2.9048V164.656H0.432797V163.6ZM10.4773 165.844C11.1813 165.844 11.7453 166.068 12.1693 166.516C12.5933 166.956 12.8053 167.556 12.8053 168.316V172H11.7613V168.376C11.7613 167.896 11.6293 167.52 11.3653 167.248C11.1013 166.976 10.7373 166.84 10.2733 166.84C9.73727 166.84 9.31327 167.008 9.00127 167.344C8.68927 167.672 8.53327 168.164 8.53327 168.82V172H7.48927V163.6H8.53327V166.864C8.94927 166.184 9.59727 165.844 10.4773 165.844ZM20.0227 169.48H14.9947C15.0987 170.008 15.3427 170.424 15.7267 170.728C16.1107 171.024 16.5907 171.172 17.1667 171.172C17.9587 171.172 18.5347 170.88 18.8947 170.296L19.7827 170.8C19.1907 171.704 18.3107 172.156 17.1427 172.156C16.1987 172.156 15.4227 171.86 14.8147 171.268C14.2227 170.66 13.9267 169.904 13.9267 169C13.9267 168.088 14.2187 167.336 14.8027 166.744C15.3867 166.144 16.1427 165.844 17.0707 165.844C17.9507 165.844 18.6667 166.156 19.2187 166.78C19.7787 167.388 20.0587 168.132 20.0587 169.012C20.0587 169.164 20.0467 169.32 20.0227 169.48ZM17.0707 166.828C16.5187 166.828 16.0547 166.984 15.6787 167.296C15.3107 167.608 15.0827 168.032 14.9947 168.568H19.0027C18.9147 168.016 18.6947 167.588 18.3427 167.284C17.9907 166.98 17.5667 166.828 17.0707 166.828ZM22.3028 166V167.008C22.6468 166.264 23.2708 165.892 24.1748 165.892V166.984C23.6628 166.96 23.2228 167.096 22.8548 167.392C22.4868 167.688 22.3028 168.164 22.3028 168.82V172H21.2588V166H22.3028ZM30.6282 169.48H25.6002C25.7042 170.008 25.9482 170.424 26.3322 170.728C26.7162 171.024 27.1962 171.172 27.7722 171.172C28.5642 171.172 29.1402 170.88 29.5002 170.296L30.3882 170.8C29.7962 171.704 28.9162 172.156 27.7482 172.156C26.8042 172.156 26.0282 171.86 25.4202 171.268C24.8282 170.66 24.5322 169.904 24.5322 169C24.5322 168.088 24.8242 167.336 25.4082 166.744C25.9922 166.144 26.7482 165.844 27.6762 165.844C28.5562 165.844 29.2722 166.156 29.8242 166.78C30.3842 167.388 30.6642 168.132 30.6642 169.012C30.6642 169.164 30.6522 169.32 30.6282 169.48ZM27.6762 166.828C27.1242 166.828 26.6602 166.984 26.2842 167.296C25.9162 167.608 25.6882 168.032 25.6002 168.568H29.6082C29.5202 168.016 29.3002 167.588 28.9482 167.284C28.5962 166.98 28.1722 166.828 27.6762 166.828ZM39.8323 167.032V166H40.8763V172H39.8323V170.968C39.3203 171.76 38.5643 172.156 37.5643 172.156C36.7163 172.156 36.0003 171.852 35.4163 171.244C34.8243 170.628 34.5283 169.88 34.5283 169C34.5283 168.128 34.8243 167.384 35.4163 166.768C36.0083 166.152 36.7243 165.844 37.5643 165.844C38.5643 165.844 39.3203 166.24 39.8323 167.032ZM37.6963 171.148C38.3043 171.148 38.8123 170.944 39.2203 170.536C39.6283 170.112 39.8323 169.6 39.8323 169C39.8323 168.392 39.6283 167.884 39.2203 167.476C38.8123 167.06 38.3043 166.852 37.6963 166.852C37.0963 166.852 36.5923 167.06 36.1843 167.476C35.7763 167.884 35.5723 168.392 35.5723 169C35.5723 169.6 35.7763 170.112 36.1843 170.536C36.5923 170.944 37.0963 171.148 37.6963 171.148ZM43.502 166V167.008C43.846 166.264 44.47 165.892 45.374 165.892V166.984C44.862 166.96 44.422 167.096 44.054 167.392C43.686 167.688 43.502 168.164 43.502 168.82V172H42.458V166H43.502ZM51.8274 169.48H46.7994C46.9034 170.008 47.1474 170.424 47.5314 170.728C47.9154 171.024 48.3954 171.172 48.9714 171.172C49.7634 171.172 50.3394 170.88 50.6994 170.296L51.5874 170.8C50.9954 171.704 50.1154 172.156 48.9474 172.156C48.0034 172.156 47.2274 171.86 46.6194 171.268C46.0274 170.66 45.7314 169.904 45.7314 169C45.7314 168.088 46.0234 167.336 46.6074 166.744C47.1914 166.144 47.9474 165.844 48.8754 165.844C49.7554 165.844 50.4714 166.156 51.0234 166.78C51.5834 167.388 51.8634 168.132 51.8634 169.012C51.8634 169.164 51.8514 169.32 51.8274 169.48ZM48.8754 166.828C48.3234 166.828 47.8594 166.984 47.4834 167.296C47.1154 167.608 46.8874 168.032 46.7994 168.568H50.8074C50.7194 168.016 50.4994 167.588 50.1474 167.284C49.7954 166.98 49.3714 166.828 48.8754 166.828ZM59.0515 165.844C59.7555 165.844 60.3195 166.068 60.7435 166.516C61.1675 166.956 61.3795 167.556 61.3795 168.316V172H60.3355V168.376C60.3355 167.896 60.2035 167.52 59.9395 167.248C59.6755 166.976 59.3115 166.84 58.8475 166.84C58.3115 166.84 57.8875 167.008 57.5755 167.344C57.2635 167.672 57.1075 168.164 57.1075 168.82V172H56.0635V166H57.1075V166.864C57.5235 166.184 58.1715 165.844 59.0515 165.844ZM67.9009 171.244C67.2929 171.852 66.5449 172.156 65.6569 172.156C64.7689 172.156 64.0209 171.852 63.4129 171.244C62.8049 170.636 62.5009 169.888 62.5009 169C62.5009 168.112 62.8049 167.364 63.4129 166.756C64.0209 166.148 64.7689 165.844 65.6569 165.844C66.5449 165.844 67.2929 166.148 67.9009 166.756C68.5169 167.372 68.8249 168.12 68.8249 169C68.8249 169.88 68.5169 170.628 67.9009 171.244ZM65.6569 171.136C66.2569 171.136 66.7609 170.932 67.1689 170.524C67.5769 170.116 67.7809 169.608 67.7809 169C67.7809 168.392 67.5769 167.884 67.1689 167.476C66.7609 167.068 66.2569 166.864 65.6569 166.864C65.0649 166.864 64.5649 167.068 64.1569 167.476C63.7489 167.884 63.5449 168.392 63.5449 169C63.5449 169.608 63.7489 170.116 64.1569 170.524C64.5649 170.932 65.0649 171.136 65.6569 171.136ZM73.1637 172V163.6H74.2797V172H73.1637ZM78.9616 165.844C79.6656 165.844 80.2296 166.068 80.6536 166.516C81.0776 166.956 81.2896 167.556 81.2896 168.316V172H80.2456V168.376C80.2456 167.896 80.1136 167.52 79.8496 167.248C79.5856 166.976 79.2216 166.84 78.7576 166.84C78.2216 166.84 77.7976 167.008 77.4856 167.344C77.1736 167.672 77.0176 168.164 77.0176 168.82V172H75.9736V166H77.0176V166.864C77.4336 166.184 78.0816 165.844 78.9616 165.844ZM86.0111 166V167.008H84.4151V170.26C84.4151 170.556 84.4711 170.768 84.5831 170.896C84.7031 171.016 84.8831 171.08 85.1231 171.088C85.3631 171.088 85.6591 171.08 86.0111 171.064V172C85.0911 172.12 84.4191 172.044 83.9951 171.772C83.5791 171.5 83.3711 170.996 83.3711 170.26V167.008H82.1831V166H83.3711V164.632L84.4151 164.32V166H86.0111ZM92.7024 169.48H87.6744C87.7784 170.008 88.0224 170.424 88.4064 170.728C88.7904 171.024 89.2704 171.172 89.8464 171.172C90.6384 171.172 91.2144 170.88 91.5744 170.296L92.4624 170.8C91.8704 171.704 90.9904 172.156 89.8224 172.156C88.8784 172.156 88.1024 171.86 87.4944 171.268C86.9024 170.66 86.6064 169.904 86.6064 169C86.6064 168.088 86.8984 167.336 87.4824 166.744C88.0664 166.144 88.8224 165.844 89.7504 165.844C90.6304 165.844 91.3464 166.156 91.8984 166.78C92.4584 167.388 92.7384 168.132 92.7384 169.012C92.7384 169.164 92.7264 169.32 92.7024 169.48ZM89.7504 166.828C89.1984 166.828 88.7344 166.984 88.3584 167.296C87.9904 167.608 87.7624 168.032 87.6744 168.568H91.6824C91.5944 168.016 91.3744 167.588 91.0224 167.284C90.6704 166.98 90.2464 166.828 89.7504 166.828ZM94.9825 166V167.008C95.3265 166.264 95.9505 165.892 96.8545 165.892V166.984C96.3425 166.96 95.9025 167.096 95.5345 167.392C95.1665 167.688 94.9825 168.164 94.9825 168.82V172H93.9385V166H94.9825ZM102.516 167.032V166H103.56V172H102.516V170.968C102.004 171.76 101.248 172.156 100.248 172.156C99.3999 172.156 98.6839 171.852 98.0999 171.244C97.5079 170.628 97.2119 169.88 97.2119 169C97.2119 168.128 97.5079 167.384 98.0999 166.768C98.6919 166.152 99.4079 165.844 100.248 165.844C101.248 165.844 102.004 166.24 102.516 167.032ZM100.38 171.148C100.988 171.148 101.496 170.944 101.904 170.536C102.312 170.112 102.516 169.6 102.516 169C102.516 168.392 102.312 167.884 101.904 167.476C101.496 167.06 100.988 166.852 100.38 166.852C99.7799 166.852 99.2759 167.06 98.8679 167.476C98.4599 167.884 98.2559 168.392 98.2559 169C98.2559 169.6 98.4599 170.112 98.8679 170.536C99.2759 170.944 99.7799 171.148 100.38 171.148ZM107.962 172.156C107.058 172.156 106.306 171.856 105.706 171.256C105.106 170.648 104.806 169.896 104.806 169C104.806 168.104 105.106 167.356 105.706 166.756C106.306 166.148 107.058 165.844 107.962 165.844C108.554 165.844 109.086 165.988 109.558 166.276C110.03 166.556 110.382 166.936 110.614 167.416L109.738 167.92C109.586 167.6 109.35 167.344 109.03 167.152C108.718 166.96 108.362 166.864 107.962 166.864C107.362 166.864 106.858 167.068 106.45 167.476C106.05 167.892 105.85 168.4 105.85 169C105.85 169.592 106.05 170.096 106.45 170.512C106.858 170.92 107.362 171.124 107.962 171.124C108.362 171.124 108.722 171.032 109.042 170.848C109.362 170.656 109.606 170.4 109.774 170.08L110.662 170.596C110.398 171.076 110.026 171.456 109.546 171.736C109.066 172.016 108.538 172.156 107.962 172.156ZM114.956 166V167.008H113.36V170.26C113.36 170.556 113.416 170.768 113.528 170.896C113.648 171.016 113.828 171.08 114.068 171.088C114.308 171.088 114.604 171.08 114.956 171.064V172C114.036 172.12 113.364 172.044 112.94 171.772C112.524 171.5 112.316 170.996 112.316 170.26V167.008H111.128V166H112.316V164.632L113.36 164.32V166H114.956ZM116.72 164.908C116.52 164.908 116.352 164.84 116.216 164.704C116.08 164.568 116.012 164.404 116.012 164.212C116.012 164.02 116.08 163.856 116.216 163.72C116.352 163.576 116.52 163.504 116.72 163.504C116.912 163.504 117.076 163.576 117.212 163.72C117.348 163.856 117.416 164.02 117.416 164.212C117.416 164.404 117.348 164.568 117.212 164.704C117.076 164.84 116.912 164.908 116.72 164.908ZM117.236 172H116.192V166H117.236V172ZM123.893 171.244C123.285 171.852 122.537 172.156 121.649 172.156C120.761 172.156 120.013 171.852 119.405 171.244C118.797 170.636 118.493 169.888 118.493 169C118.493 168.112 118.797 167.364 119.405 166.756C120.013 166.148 120.761 165.844 121.649 165.844C122.537 165.844 123.285 166.148 123.893 166.756C124.509 167.372 124.817 168.12 124.817 169C124.817 169.88 124.509 170.628 123.893 171.244ZM121.649 171.136C122.249 171.136 122.753 170.932 123.161 170.524C123.569 170.116 123.773 169.608 123.773 169C123.773 168.392 123.569 167.884 123.161 167.476C122.753 167.068 122.249 166.864 121.649 166.864C121.057 166.864 120.557 167.068 120.149 167.476C119.741 167.884 119.537 168.392 119.537 169C119.537 169.608 119.741 170.116 120.149 170.524C120.557 170.932 121.057 171.136 121.649 171.136ZM129.036 165.844C129.74 165.844 130.304 166.068 130.728 166.516C131.152 166.956 131.364 167.556 131.364 168.316V172H130.32V168.376C130.32 167.896 130.188 167.52 129.924 167.248C129.66 166.976 129.296 166.84 128.832 166.84C128.296 166.84 127.872 167.008 127.56 167.344C127.248 167.672 127.092 168.164 127.092 168.82V172H126.048V166H127.092V166.864C127.508 166.184 128.156 165.844 129.036 165.844ZM133.721 167.62C133.721 168.004 134.117 168.304 134.909 168.52C135.205 168.584 135.453 168.652 135.653 168.724C135.861 168.788 136.085 168.888 136.325 169.024C136.573 169.16 136.761 169.34 136.889 169.564C137.017 169.788 137.081 170.052 137.081 170.356C137.081 170.9 136.869 171.336 136.445 171.664C136.021 171.992 135.485 172.156 134.837 172.156C134.261 172.156 133.761 172.032 133.337 171.784C132.921 171.528 132.625 171.184 132.449 170.752L133.349 170.236C133.445 170.524 133.625 170.752 133.889 170.92C134.153 171.088 134.469 171.172 134.837 171.172C135.197 171.172 135.485 171.104 135.701 170.968C135.917 170.832 136.025 170.628 136.025 170.356C136.025 169.948 135.629 169.652 134.837 169.468C134.573 169.396 134.373 169.34 134.237 169.3C134.101 169.26 133.913 169.188 133.673 169.084C133.441 168.98 133.265 168.872 133.145 168.76C133.025 168.64 132.913 168.484 132.809 168.292C132.713 168.092 132.665 167.872 132.665 167.632C132.665 167.112 132.865 166.684 133.265 166.348C133.673 166.012 134.181 165.844 134.789 165.844C135.277 165.844 135.709 165.956 136.085 166.18C136.469 166.396 136.757 166.7 136.949 167.092L136.073 167.584C135.857 167.072 135.429 166.816 134.789 166.816C134.485 166.816 134.229 166.888 134.021 167.032C133.821 167.176 133.721 167.372 133.721 167.62ZM146.285 167.032V166H147.329V172H146.285V170.968C145.773 171.76 145.017 172.156 144.017 172.156C143.169 172.156 142.453 171.852 141.869 171.244C141.277 170.628 140.981 169.88 140.981 169C140.981 168.128 141.277 167.384 141.869 166.768C142.461 166.152 143.177 165.844 144.017 165.844C145.017 165.844 145.773 166.24 146.285 167.032ZM144.149 171.148C144.757 171.148 145.265 170.944 145.673 170.536C146.081 170.112 146.285 169.6 146.285 169C146.285 168.392 146.081 167.884 145.673 167.476C145.265 167.06 144.757 166.852 144.149 166.852C143.549 166.852 143.045 167.06 142.637 167.476C142.229 167.884 142.025 168.392 142.025 169C142.025 169.6 142.229 170.112 142.637 170.536C143.045 170.944 143.549 171.148 144.149 171.148ZM151.227 170.884L153.111 166H154.239L151.839 172H150.615L148.215 166H149.343L151.227 170.884ZM159.856 167.032V166H160.9V172H159.856V170.968C159.344 171.76 158.588 172.156 157.588 172.156C156.74 172.156 156.024 171.852 155.44 171.244C154.848 170.628 154.552 169.88 154.552 169C154.552 168.128 154.848 167.384 155.44 166.768C156.032 166.152 156.748 165.844 157.588 165.844C158.588 165.844 159.344 166.24 159.856 167.032ZM157.72 171.148C158.328 171.148 158.836 170.944 159.244 170.536C159.652 170.112 159.856 169.6 159.856 169C159.856 168.392 159.652 167.884 159.244 167.476C158.836 167.06 158.328 166.852 157.72 166.852C157.12 166.852 156.616 167.06 156.208 167.476C155.8 167.884 155.596 168.392 155.596 169C155.596 169.6 155.8 170.112 156.208 170.536C156.616 170.944 157.12 171.148 157.72 171.148ZM163.009 164.908C162.809 164.908 162.641 164.84 162.505 164.704C162.369 164.568 162.301 164.404 162.301 164.212C162.301 164.02 162.369 163.856 162.505 163.72C162.641 163.576 162.809 163.504 163.009 163.504C163.201 163.504 163.365 163.576 163.501 163.72C163.637 163.856 163.705 164.02 163.705 164.212C163.705 164.404 163.637 164.568 163.501 164.704C163.365 164.84 163.201 164.908 163.009 164.908ZM163.525 172H162.481V166H163.525V172ZM166.162 172H165.118V163.24H166.162V172ZM172.723 167.032V166H173.767V172H172.723V170.968C172.211 171.76 171.455 172.156 170.455 172.156C169.607 172.156 168.891 171.852 168.307 171.244C167.715 170.628 167.419 169.88 167.419 169C167.419 168.128 167.715 167.384 168.307 166.768C168.899 166.152 169.615 165.844 170.455 165.844C171.455 165.844 172.211 166.24 172.723 167.032ZM170.587 171.148C171.195 171.148 171.703 170.944 172.111 170.536C172.519 170.112 172.723 169.6 172.723 169C172.723 168.392 172.519 167.884 172.111 167.476C171.703 167.06 171.195 166.852 170.587 166.852C169.987 166.852 169.483 167.06 169.075 167.476C168.667 167.884 168.463 168.392 168.463 169C168.463 169.6 168.667 170.112 169.075 170.536C169.483 170.944 169.987 171.148 170.587 171.148ZM178.661 165.844C179.501 165.844 180.217 166.152 180.809 166.768C181.401 167.384 181.697 168.128 181.697 169C181.697 169.88 181.401 170.628 180.809 171.244C180.225 171.852 179.509 172.156 178.661 172.156C177.669 172.156 176.913 171.76 176.393 170.968V172H175.349V163.6H176.393V167.032C176.913 166.24 177.669 165.844 178.661 165.844ZM178.529 171.148C179.129 171.148 179.633 170.944 180.041 170.536C180.449 170.112 180.653 169.6 180.653 169C180.653 168.392 180.449 167.884 180.041 167.476C179.633 167.06 179.129 166.852 178.529 166.852C177.921 166.852 177.413 167.06 177.005 167.476C176.597 167.884 176.393 168.392 176.393 169C176.393 169.6 176.597 170.112 177.005 170.536C177.413 170.944 177.921 171.148 178.529 171.148ZM183.986 172H182.942V163.24H183.986V172ZM191.339 169.48H186.311C186.415 170.008 186.659 170.424 187.043 170.728C187.427 171.024 187.907 171.172 188.483 171.172C189.275 171.172 189.851 170.88 190.211 170.296L191.099 170.8C190.507 171.704 189.627 172.156 188.459 172.156C187.515 172.156 186.739 171.86 186.131 171.268C185.539 170.66 185.243 169.904 185.243 169C185.243 168.088 185.535 167.336 186.119 166.744C186.703 166.144 187.459 165.844 188.387 165.844C189.267 165.844 189.983 166.156 190.535 166.78C191.095 167.388 191.375 168.132 191.375 169.012C191.375 169.164 191.363 169.32 191.339 169.48ZM188.387 166.828C187.835 166.828 187.371 166.984 186.995 167.296C186.627 167.608 186.399 168.032 186.311 168.568H190.319C190.231 168.016 190.011 167.588 189.659 167.284C189.307 166.98 188.883 166.828 188.387 166.828ZM59.9196 179.908C59.7196 179.908 59.5516 179.84 59.4156 179.704C59.2796 179.568 59.2116 179.404 59.2116 179.212C59.2116 179.02 59.2796 178.856 59.4156 178.72C59.5516 178.576 59.7196 178.504 59.9196 178.504C60.1116 178.504 60.2756 178.576 60.4116 178.72C60.5476 178.856 60.6156 179.02 60.6156 179.212C60.6156 179.404 60.5476 179.568 60.4116 179.704C60.2756 179.84 60.1116 179.908 59.9196 179.908ZM60.4356 187H59.3916V181H60.4356V187ZM65.0163 180.844C65.7203 180.844 66.2843 181.068 66.7083 181.516C67.1323 181.956 67.3443 182.556 67.3443 183.316V187H66.3003V183.376C66.3003 182.896 66.1683 182.52 65.9043 182.248C65.6403 181.976 65.2763 181.84 64.8123 181.84C64.2763 181.84 63.8523 182.008 63.5403 182.344C63.2283 182.672 63.0723 183.164 63.0723 183.82V187H62.0283V181H63.0723V181.864C63.4883 181.184 64.1363 180.844 65.0163 180.844ZM75.0658 181V182.008H73.4698V185.26C73.4698 185.556 73.5258 185.768 73.6378 185.896C73.7578 186.016 73.9378 186.08 74.1778 186.088C74.4178 186.088 74.7138 186.08 75.0658 186.064V187C74.1458 187.12 73.4738 187.044 73.0498 186.772C72.6338 186.5 72.4258 185.996 72.4258 185.26V182.008H71.2378V181H72.4258V179.632L73.4698 179.32V181H75.0658ZM79.2898 180.844C79.9938 180.844 80.5578 181.068 80.9818 181.516C81.4058 181.956 81.6178 182.556 81.6178 183.316V187H80.5738V183.376C80.5738 182.896 80.4418 182.52 80.1778 182.248C79.9138 181.976 79.5498 181.84 79.0858 181.84C78.5498 181.84 78.1258 182.008 77.8138 182.344C77.5018 182.672 77.3458 183.164 77.3458 183.82V187H76.3018V178.6H77.3458V181.864C77.7618 181.184 78.4098 180.844 79.2898 180.844ZM83.6032 179.908C83.4032 179.908 83.2352 179.84 83.0992 179.704C82.9632 179.568 82.8952 179.404 82.8952 179.212C82.8952 179.02 82.9632 178.856 83.0992 178.72C83.2352 178.576 83.4032 178.504 83.6032 178.504C83.7952 178.504 83.9592 178.576 84.0952 178.72C84.2312 178.856 84.2992 179.02 84.2992 179.212C84.2992 179.404 84.2312 179.568 84.0952 179.704C83.9592 179.84 83.7952 179.908 83.6032 179.908ZM84.1192 187H83.0752V181H84.1192V187ZM86.6002 182.62C86.6002 183.004 86.9962 183.304 87.7882 183.52C88.0842 183.584 88.3322 183.652 88.5322 183.724C88.7402 183.788 88.9642 183.888 89.2042 184.024C89.4522 184.16 89.6402 184.34 89.7682 184.564C89.8962 184.788 89.9602 185.052 89.9602 185.356C89.9602 185.9 89.7482 186.336 89.3242 186.664C88.9002 186.992 88.3642 187.156 87.7162 187.156C87.1402 187.156 86.6402 187.032 86.2162 186.784C85.8002 186.528 85.5042 186.184 85.3282 185.752L86.2282 185.236C86.3242 185.524 86.5042 185.752 86.7682 185.92C87.0322 186.088 87.3482 186.172 87.7162 186.172C88.0762 186.172 88.3642 186.104 88.5802 185.968C88.7962 185.832 88.9042 185.628 88.9042 185.356C88.9042 184.948 88.5082 184.652 87.7162 184.468C87.4522 184.396 87.2522 184.34 87.1162 184.3C86.9802 184.26 86.7922 184.188 86.5522 184.084C86.3202 183.98 86.1442 183.872 86.0242 183.76C85.9042 183.64 85.7922 183.484 85.6882 183.292C85.5922 183.092 85.5442 182.872 85.5442 182.632C85.5442 182.112 85.7442 181.684 86.1442 181.348C86.5522 181.012 87.0602 180.844 87.6682 180.844C88.1562 180.844 88.5882 180.956 88.9642 181.18C89.3482 181.396 89.6362 181.7 89.8282 182.092L88.9522 182.584C88.7362 182.072 88.3082 181.816 87.6682 181.816C87.3642 181.816 87.1082 181.888 86.9002 182.032C86.7002 182.176 86.6002 182.372 86.6002 182.62ZM95.0963 182.62C95.0963 183.004 95.4923 183.304 96.2843 183.52C96.5803 183.584 96.8283 183.652 97.0283 183.724C97.2363 183.788 97.4603 183.888 97.7003 184.024C97.9483 184.16 98.1363 184.34 98.2643 184.564C98.3923 184.788 98.4563 185.052 98.4563 185.356C98.4563 185.9 98.2443 186.336 97.8203 186.664C97.3963 186.992 96.8603 187.156 96.2123 187.156C95.6363 187.156 95.1363 187.032 94.7123 186.784C94.2963 186.528 94.0003 186.184 93.8243 185.752L94.7243 185.236C94.8203 185.524 95.0003 185.752 95.2643 185.92C95.5283 186.088 95.8443 186.172 96.2123 186.172C96.5723 186.172 96.8603 186.104 97.0763 185.968C97.2923 185.832 97.4003 185.628 97.4003 185.356C97.4003 184.948 97.0043 184.652 96.2123 184.468C95.9483 184.396 95.7483 184.34 95.6123 184.3C95.4763 184.26 95.2883 184.188 95.0483 184.084C94.8163 183.98 94.6403 183.872 94.5203 183.76C94.4003 183.64 94.2883 183.484 94.1843 183.292C94.0883 183.092 94.0403 182.872 94.0403 182.632C94.0403 182.112 94.2403 181.684 94.6403 181.348C95.0483 181.012 95.5563 180.844 96.1643 180.844C96.6523 180.844 97.0843 180.956 97.4603 181.18C97.8443 181.396 98.1323 181.7 98.3243 182.092L97.4483 182.584C97.2323 182.072 96.8043 181.816 96.1643 181.816C95.8603 181.816 95.6043 181.888 95.3963 182.032C95.1963 182.176 95.0963 182.372 95.0963 182.62ZM105.288 184.48H100.26C100.364 185.008 100.608 185.424 100.992 185.728C101.376 186.024 101.856 186.172 102.432 186.172C103.224 186.172 103.8 185.88 104.16 185.296L105.048 185.8C104.456 186.704 103.576 187.156 102.408 187.156C101.464 187.156 100.688 186.86 100.08 186.268C99.4883 185.66 99.1923 184.904 99.1923 184C99.1923 183.088 99.4843 182.336 100.068 181.744C100.652 181.144 101.408 180.844 102.336 180.844C103.216 180.844 103.932 181.156 104.484 181.78C105.044 182.388 105.324 183.132 105.324 184.012C105.324 184.164 105.312 184.32 105.288 184.48ZM102.336 181.828C101.784 181.828 101.32 181.984 100.944 182.296C100.576 182.608 100.348 183.032 100.26 183.568H104.268C104.18 183.016 103.96 182.588 103.608 182.284C103.256 181.98 102.832 181.828 102.336 181.828ZM109.333 187.156C108.429 187.156 107.677 186.856 107.077 186.256C106.477 185.648 106.177 184.896 106.177 184C106.177 183.104 106.477 182.356 107.077 181.756C107.677 181.148 108.429 180.844 109.333 180.844C109.925 180.844 110.457 180.988 110.929 181.276C111.401 181.556 111.753 181.936 111.985 182.416L111.109 182.92C110.957 182.6 110.721 182.344 110.401 182.152C110.089 181.96 109.733 181.864 109.333 181.864C108.733 181.864 108.229 182.068 107.821 182.476C107.421 182.892 107.221 183.4 107.221 184C107.221 184.592 107.421 185.096 107.821 185.512C108.229 185.92 108.733 186.124 109.333 186.124C109.733 186.124 110.093 186.032 110.413 185.848C110.733 185.656 110.977 185.4 111.145 185.08L112.033 185.596C111.769 186.076 111.397 186.456 110.917 186.736C110.437 187.016 109.909 187.156 109.333 187.156ZM116.327 181V182.008H114.731V185.26C114.731 185.556 114.787 185.768 114.899 185.896C115.019 186.016 115.199 186.08 115.439 186.088C115.679 186.088 115.975 186.08 116.327 186.064V187C115.407 187.12 114.735 187.044 114.311 186.772C113.895 186.5 113.687 185.996 113.687 185.26V182.008H112.499V181H113.687V179.632L114.731 179.32V181H116.327ZM118.091 179.908C117.891 179.908 117.723 179.84 117.587 179.704C117.451 179.568 117.383 179.404 117.383 179.212C117.383 179.02 117.451 178.856 117.587 178.72C117.723 178.576 117.891 178.504 118.091 178.504C118.283 178.504 118.447 178.576 118.583 178.72C118.719 178.856 118.787 179.02 118.787 179.212C118.787 179.404 118.719 179.568 118.583 179.704C118.447 179.84 118.283 179.908 118.091 179.908ZM118.607 187H117.563V181H118.607V187ZM125.264 186.244C124.656 186.852 123.908 187.156 123.02 187.156C122.132 187.156 121.384 186.852 120.776 186.244C120.168 185.636 119.864 184.888 119.864 184C119.864 183.112 120.168 182.364 120.776 181.756C121.384 181.148 122.132 180.844 123.02 180.844C123.908 180.844 124.656 181.148 125.264 181.756C125.88 182.372 126.188 183.12 126.188 184C126.188 184.88 125.88 185.628 125.264 186.244ZM123.02 186.136C123.62 186.136 124.124 185.932 124.532 185.524C124.94 185.116 125.144 184.608 125.144 184C125.144 183.392 124.94 182.884 124.532 182.476C124.124 182.068 123.62 181.864 123.02 181.864C122.428 181.864 121.928 182.068 121.52 182.476C121.112 182.884 120.908 183.392 120.908 184C120.908 184.608 121.112 185.116 121.52 185.524C121.928 185.932 122.428 186.136 123.02 186.136ZM130.407 180.844C131.111 180.844 131.675 181.068 132.099 181.516C132.523 181.956 132.735 182.556 132.735 183.316V187H131.691V183.376C131.691 182.896 131.559 182.52 131.295 182.248C131.031 181.976 130.667 181.84 130.203 181.84C129.667 181.84 129.243 182.008 128.931 182.344C128.619 182.672 128.463 183.164 128.463 183.82V187H127.419V181H128.463V181.864C128.879 181.184 129.527 180.844 130.407 180.844Z" fill="#505665"/>
<defs>
<clipPath id="clip0_3532_16068">
<rect width="165" height="135" fill="white" transform="translate(10)"/>
</clipPath>
</defs>
</svg>
