<svg width="46" height="46" viewBox="0 0 46 46" fill="none" xmlns="http://www.w3.org/2000/svg">
<path d="M10.6178 37.4141C9.44865 37.4141 8.35615 37.0116 7.57032 36.2641C6.57365 35.325 6.09449 33.9066 6.26699 32.3733L6.97615 26.1633C7.11032 24.9941 7.81949 23.4416 8.64365 22.5983L24.3795 5.94245C28.3087 1.78329 32.4103 1.66829 36.5695 5.59745C40.7287 9.52662 40.8437 13.6283 36.9145 17.7875L21.1787 34.4433C20.3737 35.3058 18.8787 36.1108 17.7095 36.3025L11.5378 37.3566C11.212 37.3758 10.9245 37.4141 10.6178 37.4141ZM30.532 5.57829C29.0562 5.57829 27.772 6.49829 26.4687 7.87829L10.7328 24.5533C10.3495 24.9558 9.90865 25.9141 9.83199 26.47L9.12282 32.68C9.04615 33.3125 9.19949 33.83 9.54449 34.1558C9.88949 34.4816 10.407 34.5966 11.0395 34.5008L17.2112 33.4466C17.767 33.3508 18.687 32.8525 19.0703 32.45L34.8062 15.7941C37.1828 13.2641 38.0453 10.9258 34.5762 7.66745C33.0428 6.19162 31.7203 5.57829 30.532 5.57829Z" fill="url(#paint0_linear_4122_27323)"/>
<path d="M33.2355 20.9883C33.1972 20.9883 33.1397 20.9883 33.1013 20.9883C27.1213 20.3941 22.3105 15.8516 21.3905 9.90994C21.2755 9.1241 21.8122 8.39577 22.598 8.2616C23.3838 8.1466 24.1122 8.68327 24.2463 9.4691C24.9747 14.1074 28.7313 17.6724 33.408 18.1324C34.1938 18.2091 34.7688 18.9183 34.6922 19.7041C34.5963 20.4324 33.9638 20.9883 33.2355 20.9883Z" fill="url(#paint1_linear_4122_27323)"/>
<path d="M40.25 43.6055H5.75C4.96417 43.6055 4.3125 42.9538 4.3125 42.168C4.3125 41.3821 4.96417 40.7305 5.75 40.7305H40.25C41.0358 40.7305 41.6875 41.3821 41.6875 42.168C41.6875 42.9538 41.0358 43.6055 40.25 43.6055Z" fill="url(#paint2_linear_4122_27323)"/>
<defs>
<linearGradient id="paint0_linear_4122_27323" x1="-1.41587" y1="-2.50227" x2="54.8062" y2="46.2016" gradientUnits="userSpaceOnUse">
<stop stop-color="#D51AFF"/>
<stop offset="0.502" stop-color="#4E6AFE"/>
<stop offset="1" stop-color="#8BF3FE"/>
</linearGradient>
<linearGradient id="paint1_linear_4122_27323" x1="18.3371" y1="6.32203" x2="39.1628" y2="25.8247" gradientUnits="userSpaceOnUse">
<stop stop-color="#D51AFF"/>
<stop offset="0.502" stop-color="#4E6AFE"/>
<stop offset="1" stop-color="#8BF3FE"/>
</linearGradient>
<linearGradient id="paint2_linear_4122_27323" x1="-4.209" y1="40.2963" x2="-3.40599" y2="49.6454" gradientUnits="userSpaceOnUse">
<stop stop-color="#D51AFF"/>
<stop offset="0.502" stop-color="#4E6AFE"/>
<stop offset="1" stop-color="#8BF3FE"/>
</linearGradient>
</defs>
</svg>
