<svg width="32" height="32" viewBox="0 0 32 32" fill="none" xmlns="http://www.w3.org/2000/svg">
<path d="M19.2534 9.66667C19.0001 9.66667 18.7468 9.57334 18.5468 9.37334L15.8401 6.66667L13.1334 9.37334C12.7468 9.76 12.1068 9.76 11.7201 9.37334C11.3334 8.98667 11.3334 8.34667 11.7201 7.96L15.1334 4.54667C15.5201 4.16 16.1601 4.16 16.5468 4.54667L19.9601 7.96C20.3468 8.34667 20.3468 8.98667 19.9601 9.37334C19.7601 9.57334 19.5068 9.66667 19.2534 9.66667Z" fill="#353452"/>
<path d="M15.8401 19.9067C15.2935 19.9067 14.8401 19.4533 14.8401 18.9067V5.34666C14.8401 4.8 15.2935 4.34666 15.8401 4.34666C16.3868 4.34666 16.8401 4.8 16.8401 5.34666V18.9067C16.8401 19.4667 16.3868 19.9067 15.8401 19.9067Z" fill="#353452"/>
<path d="M16.0001 27.6667C9.13343 27.6667 4.33344 22.8667 4.33344 16C4.33344 15.4533 4.78677 15 5.33343 15C5.8801 15 6.33343 15.4533 6.33343 16C6.33343 21.6933 10.3068 25.6667 16.0001 25.6667C21.6934 25.6667 25.6668 21.6933 25.6668 16C25.6668 15.4533 26.1201 15 26.6668 15C27.2134 15 27.6668 15.4533 27.6668 16C27.6668 22.8667 22.8668 27.6667 16.0001 27.6667Z" fill="#353452"/>
</svg>
