<svg width="102" height="102" viewBox="0 0 102 102" fill="none" xmlns="http://www.w3.org/2000/svg">
<circle opacity="0.2" cx="51" cy="51" r="51" fill="#4E6AFE"/>
<circle cx="50.9999" cy="51.0019" r="35.8378" fill="url(#paint0_linear_7926_66765)"/>
<path d="M64.7838 38.5927H60.6487V37.2143C60.6487 36.8487 60.5035 36.4982 60.245 36.2397C59.9865 35.9812 59.6359 35.8359 59.2703 35.8359H42.7298C42.3642 35.8359 42.0136 35.9812 41.7551 36.2397C41.4966 36.4982 41.3514 36.8487 41.3514 37.2143V38.5927H37.2163C36.8507 38.5927 36.5001 38.7379 36.2416 38.9964C35.9831 39.2549 35.8379 39.6055 35.8379 39.9711V42.7278C35.8429 44.3784 36.4408 45.9723 37.5227 47.2189C38.6046 48.4655 40.0984 49.2818 41.7318 49.5191C42.2465 51.3031 43.2644 52.9011 44.6637 54.1216C46.0629 55.3422 47.7843 56.1337 49.6217 56.4013V59.2684H44.1082C43.8188 59.2683 43.5367 59.3593 43.3019 59.5285C43.0671 59.6978 42.8915 59.9366 42.8001 60.2112L41.4217 64.3463C41.3527 64.5535 41.3339 64.7742 41.3669 64.9901C41.3999 65.206 41.4837 65.411 41.6114 65.5881C41.7392 65.7653 41.9072 65.9095 42.1016 66.009C42.2961 66.1085 42.5114 66.1603 42.7298 66.1603H59.2703C59.4886 66.1601 59.7037 66.1081 59.898 66.0085C60.0923 65.9089 60.2601 65.7647 60.3877 65.5875C60.5153 65.4104 60.599 65.2055 60.6319 64.9897C60.6648 64.7739 60.646 64.5534 60.577 64.3463L59.1986 60.2112C59.1073 59.9368 58.9319 59.6982 58.6974 59.529C58.4629 59.3598 58.1811 59.2686 57.8919 59.2684H52.3784V56.4013C54.2158 56.1337 55.9372 55.3422 57.3364 54.1216C58.7357 52.9011 59.7536 51.3031 60.2683 49.5191C61.9017 49.2818 63.3955 48.4655 64.4774 47.2189C65.5593 45.9723 66.1572 44.3784 66.1622 42.7278V39.9711C66.1622 39.6055 66.017 39.2549 65.7585 38.9964C65.5 38.7379 65.1494 38.5927 64.7838 38.5927ZM41.3514 46.6273C40.5457 46.3411 39.8483 45.8128 39.3547 45.1146C38.8612 44.4165 38.5957 43.5828 38.5946 42.7278V41.3495H41.3514V46.6273ZM56.8981 62.0251L57.3571 63.4035H44.6416L45.102 62.0251H56.8981ZM57.8919 46.863C57.8919 48.6908 57.1658 50.4438 55.8734 51.7363C54.5809 53.0287 52.8279 53.7549 51.0001 53.7549C49.1722 53.7549 47.4192 53.0287 46.1267 51.7363C44.8343 50.4438 44.1082 48.6908 44.1082 46.863V38.5927H57.8919V46.863ZM63.4055 42.7278C63.4044 43.5828 63.1389 44.4165 62.6454 45.1146C62.1518 45.8128 61.4544 46.3411 60.6487 46.6273V41.3495H63.4055V42.7278ZM49.1627 46.404L46.8649 44.5087L49.6217 44.1062L51.0001 41.3495L52.3784 44.1062L55.1352 44.5087L52.8374 46.404L53.5556 49.6197L51.0001 47.7823L48.4445 49.6197L49.1627 46.404Z" fill="white"/>
<defs>
<linearGradient id="paint0_linear_7926_66765" x1="124.754" y1="-4.18836" x2="-56.0118" y2="93.0755" gradientUnits="userSpaceOnUse">
<stop stop-color="#88EDFE"/>
<stop offset="0.489" stop-color="#625EFE"/>
<stop offset="1" stop-color="#C224FE"/>
</linearGradient>
</defs>
</svg>
