<svg width="14" height="19" viewBox="0 0 14 19" fill="none" xmlns="http://www.w3.org/2000/svg">
<path d="M10.3114 3.45308H7.08447V3.45745C7.95557 3.50291 8.776 3.88093 9.37655 4.51356C9.97711 5.14618 10.312 5.98516 10.3121 6.85745C10.3121 7.76034 9.95343 8.62626 9.31499 9.2647C8.67654 9.90314 7.81063 10.2618 6.90774 10.2618C6.08904 10.2631 5.29753 9.96807 4.67938 9.43126L4.66992 9.43854C5.74305 10.4499 7.16257 11.0123 8.6372 11.0102C9.60159 11.0107 10.5508 10.7701 11.3986 10.3105C12.2464 9.85083 12.9659 9.18661 13.4917 8.37818C13.6065 7.87917 13.6643 7.36875 13.6641 6.85672C13.6663 5.38973 13.1887 3.96228 12.3041 2.79199C11.7288 3.22095 11.0304 3.45257 10.3128 3.45236" fill="url(#paint0_linear_955_2623)"/>
<path d="M6.90603 0.101562H6.88857C5.09989 0.106184 3.38605 0.819976 2.12289 2.0864C0.859737 3.35283 0.150385 5.06851 0.150391 6.8572C0.150391 8.6489 0.862145 10.3672 2.12907 11.6342C3.396 12.9011 5.11432 13.6128 6.90603 13.6128C8.43363 13.6125 9.91605 13.0946 11.1116 12.1437C12.3071 11.1927 13.1452 9.86483 13.4893 8.37647C12.9635 9.1849 12.244 9.84913 11.3962 10.3088C10.5484 10.7684 9.59914 11.009 8.63475 11.0085C7.16013 11.0106 5.74061 10.4482 4.66748 9.43684L4.67694 9.42956C4.30737 9.11034 4.011 8.71517 3.80805 8.27099C3.6051 7.82682 3.50035 7.34409 3.50093 6.85574C3.50112 5.95329 3.85956 5.08782 4.49749 4.44948C5.13542 3.81114 6.00065 3.45215 6.90311 3.45138H6.92275C6.97657 3.45138 7.02966 3.45138 7.08275 3.45574V3.45284H10.3998H10.4798L10.5606 3.44774H10.5686L10.6457 3.4412H10.6507L10.7293 3.43174H10.7387L10.8115 3.42156H10.818L10.8907 3.40847H10.9009L10.9737 3.39465H10.9824L11.0551 3.37865H11.0675L11.1337 3.36265H11.146L11.2187 3.34374L11.2318 3.34011L11.2937 3.3212L11.3097 3.31611L11.3751 3.29502L11.3904 3.28993L11.4478 3.26956L11.4653 3.26302L11.5249 3.23974L11.5453 3.23174L11.5991 3.20993L11.6188 3.20193L11.674 3.17793L11.6973 3.16702L11.7475 3.14302L11.7686 3.13284L11.8173 3.10811L11.8457 3.09429L11.8922 3.06956L11.914 3.05793L11.9598 3.03247L11.9882 3.01574L12.0318 2.98956L12.0544 2.97574L12.0973 2.94884L12.1264 2.92993L12.1678 2.90302L12.1918 2.88702L12.2311 2.86011L12.2609 2.83829L12.2995 2.80993L12.3366 2.85938L12.2995 2.80993C12.7206 2.49878 13.0629 2.09331 13.2991 1.62601C13.5353 1.15872 13.6587 0.6426 13.6595 0.119017L6.90603 0.101562Z" fill="url(#paint1_linear_955_2623)"/>
<path d="M6.90652 14.8779C5.56123 14.8786 4.23742 14.5407 3.05706 13.8952C1.8767 13.2498 0.877779 12.3177 0.152344 11.1848V11.3477C0.157524 13.1376 0.87086 14.8528 2.13653 16.1184C3.4022 17.3841 5.11733 18.0974 6.90725 18.1026C8.69717 18.0974 10.4123 17.3841 11.678 16.1184C12.9436 14.8528 13.657 13.1376 13.6622 11.3477V11.1826C12.9368 12.3162 11.9378 13.2488 10.7572 13.8946C9.57651 14.5404 8.25225 14.8786 6.90652 14.8779Z" fill="url(#paint2_linear_955_2623)"/>
<defs>
<linearGradient id="paint0_linear_955_2623" x1="9.14004" y1="4.48494" x2="9.17007" y2="9.35014" gradientUnits="userSpaceOnUse">
<stop stop-color="#D51AFF"/>
<stop offset="0.502" stop-color="#4E6AFE"/>
<stop offset="1" stop-color="#8BF3FE"/>
</linearGradient>
<linearGradient id="paint1_linear_955_2623" x1="0.150391" y1="6.8572" x2="13.6595" y2="6.8572" gradientUnits="userSpaceOnUse">
<stop stop-color="#D51AFF"/>
<stop offset="0.502" stop-color="#4E6AFE"/>
<stop offset="1" stop-color="#8BF3FE"/>
</linearGradient>
<linearGradient id="paint2_linear_955_2623" x1="13.8648" y1="14.6426" x2="0.530619" y2="14.6426" gradientUnits="userSpaceOnUse">
<stop stop-color="#D51AFF"/>
<stop offset="0.502" stop-color="#4E6AFE"/>
<stop offset="1" stop-color="#8BF3FE"/>
</linearGradient>
</defs>
</svg>
