<svg width="24" height="24" viewBox="0 0 24 24" fill="none" xmlns="http://www.w3.org/2000/svg">
<path d="M9.86968 11.715C9.84718 11.715 9.83218 11.715 9.80968 11.715C9.77218 11.7075 9.71968 11.7075 9.67468 11.715C7.49968 11.6475 5.85718 9.9375 5.85718 7.83C5.85718 5.685 7.60468 3.9375 9.74968 3.9375C11.8947 3.9375 13.6422 5.685 13.6422 7.83C13.6347 9.9375 11.9847 11.6475 9.89218 11.715C9.88468 11.715 9.87718 11.715 9.86968 11.715ZM9.74968 5.0625C8.22718 5.0625 6.98218 6.3075 6.98218 7.83C6.98218 9.33 8.15218 10.5375 9.64468 10.59C9.68968 10.5825 9.78718 10.5825 9.88468 10.59C11.3547 10.5225 12.5097 9.315 12.5172 7.83C12.5172 6.3075 11.2722 5.0625 9.74968 5.0625Z" fill="white"/>
<path d="M15.4047 11.8125C15.3822 11.8125 15.3597 11.8125 15.3372 11.805C15.0297 11.835 14.7147 11.6175 14.6847 11.31C14.6547 11.0025 14.8422 10.725 15.1497 10.6875C15.2397 10.68 15.3372 10.68 15.4197 10.68C16.5147 10.62 17.3697 9.72 17.3697 8.6175C17.3697 7.4775 16.4472 6.555 15.3072 6.555C14.9997 6.5625 14.7447 6.3075 14.7447 6C14.7447 5.6925 14.9997 5.4375 15.3072 5.4375C17.0622 5.4375 18.4947 6.87 18.4947 8.625C18.4947 10.35 17.1447 11.745 15.4272 11.8125C15.4197 11.8125 15.4122 11.8125 15.4047 11.8125Z" fill="white"/>
<path d="M9.87721 19.9125C8.40721 19.9125 6.92971 19.5375 5.81221 18.7875C4.76971 18.0975 4.19971 17.1525 4.19971 16.125C4.19971 15.0975 4.76971 14.145 5.81221 13.4475C8.06221 11.955 11.7072 11.955 13.9422 13.4475C14.9772 14.1375 15.5547 15.0825 15.5547 16.11C15.5547 17.1375 14.9847 18.09 13.9422 18.7875C12.8172 19.5375 11.3472 19.9125 9.87721 19.9125ZM6.43471 14.3925C5.71471 14.8725 5.32471 15.4875 5.32471 16.1325C5.32471 16.77 5.72221 17.385 6.43471 17.8575C8.30221 19.11 11.4522 19.11 13.3197 17.8575C14.0397 17.3775 14.4297 16.7625 14.4297 16.1175C14.4297 15.48 14.0322 14.865 13.3197 14.3925C11.4522 13.1475 8.30221 13.1475 6.43471 14.3925Z" fill="white"/>
<path d="M16.7547 18.5625C16.4922 18.5625 16.2597 18.3825 16.2072 18.1125C16.1472 17.805 16.3422 17.5125 16.6422 17.445C17.1147 17.3475 17.5497 17.16 17.8872 16.8975C18.3147 16.575 18.5472 16.17 18.5472 15.7425C18.5472 15.315 18.3147 14.91 17.8947 14.595C17.5647 14.34 17.1522 14.16 16.6647 14.0475C16.3647 13.98 16.1697 13.68 16.2372 13.3725C16.3047 13.0725 16.6047 12.8775 16.9122 12.945C17.5572 13.0875 18.1197 13.3425 18.5772 13.695C19.2747 14.22 19.6722 14.9625 19.6722 15.7425C19.6722 16.5225 19.2672 17.265 18.5697 17.7975C18.1047 18.1575 17.5197 18.42 16.8747 18.5475C16.8297 18.5625 16.7922 18.5625 16.7547 18.5625Z" fill="white"/>
</svg>
