<svg width="20" height="21" viewBox="0 0 20 21" fill="none" xmlns="http://www.w3.org/2000/svg">
<path d="M9.99967 3.18457C9.08301 3.18457 8.33301 3.93457 8.33301 4.85124C8.33301 5.7679 9.08301 6.5179 9.99967 6.5179C10.9163 6.5179 11.6663 5.7679 11.6663 4.85124C11.6663 3.93457 10.9163 3.18457 9.99967 3.18457ZM9.99967 14.8512C9.08301 14.8512 8.33301 15.6012 8.33301 16.5179C8.33301 17.4346 9.08301 18.1846 9.99967 18.1846C10.9163 18.1846 11.6663 17.4346 11.6663 16.5179C11.6663 15.6012 10.9163 14.8512 9.99967 14.8512ZM9.99967 9.0179C9.08301 9.0179 8.33301 9.7679 8.33301 10.6846C8.33301 11.6012 9.08301 12.3512 9.99967 12.3512C10.9163 12.3512 11.6663 11.6012 11.6663 10.6846C11.6663 9.7679 10.9163 9.0179 9.99967 9.0179Z" fill="white"/>
</svg>
