<svg width="20" height="21" viewBox="0 0 20 21" fill="none" xmlns="http://www.w3.org/2000/svg">
<path d="M16.5038 8.89015C16.5043 8.94739 16.4931 9.00414 16.4708 9.05688C16.4486 9.10962 16.4157 9.15725 16.3744 9.19682L12.8834 12.6878C12.8224 12.748 12.7449 12.7889 12.6608 12.8055C12.5766 12.822 12.4895 12.8133 12.4102 12.7806C12.3309 12.7479 12.263 12.6926 12.215 12.6215C12.167 12.5505 12.1409 12.4668 12.1402 12.3811V10.6352H10.6143C10.1689 10.6352 9.77014 10.6489 9.4181 10.6763C9.06546 10.7037 8.71483 10.7527 8.36817 10.823C8.05519 10.8821 7.75065 10.9795 7.46141 11.1129C7.20157 11.2377 6.95974 11.3971 6.74245 11.5866C6.5194 11.7801 6.33447 12.0136 6.19716 12.275C6.0448 12.5733 5.93361 12.8908 5.86663 13.2189C5.78302 13.6247 5.74303 14.0383 5.74731 14.4527C5.74731 14.7025 5.75866 14.9824 5.78134 15.2923C5.78389 15.3459 5.78949 15.3993 5.79813 15.4522C5.80765 15.512 5.81326 15.5724 5.81492 15.633C5.81704 15.6948 5.79645 15.7553 5.75704 15.8031C5.73727 15.8258 5.71259 15.8437 5.68488 15.8555C5.65717 15.8673 5.62715 15.8727 5.59707 15.8711C5.55808 15.8693 5.52018 15.8576 5.48683 15.8373C5.45349 15.817 5.42576 15.7887 5.40617 15.7549C5.37109 15.7085 5.34143 15.6583 5.3178 15.6051C5.29069 15.5462 5.26006 15.478 5.22588 15.4005C5.19171 15.323 5.16785 15.2685 5.1543 15.237C4.66661 14.2789 4.37246 13.2341 4.28863 12.1624C4.2667 11.3898 4.38929 10.6199 4.6501 9.89236C5.38658 8.06086 7.37509 7.14512 10.6156 7.14512H12.1424V5.40009C12.1419 5.34284 12.1531 5.2861 12.1754 5.23336C12.1976 5.18062 12.2305 5.13299 12.2718 5.09342C12.3117 5.05242 12.3594 5.01984 12.4121 4.99758C12.4647 4.97533 12.5213 4.96387 12.5785 4.96387C12.6357 4.96387 12.6923 4.97533 12.745 4.99758C12.7976 5.01984 12.8453 5.05242 12.8852 5.09342L16.3761 8.58436C16.4175 8.62393 16.4503 8.67155 16.4726 8.7243C16.4949 8.77704 16.5061 8.83378 16.5056 8.89103L16.5038 8.89015Z" fill="#303548"/>
</svg>
