<svg width="46" height="46" viewBox="0 0 46 46" fill="none" xmlns="http://www.w3.org/2000/svg">
<g clip-path="url(#clip0_8074_30185)">
<path d="M9.28984 0.16172C8.28359 0.521095 7.54688 1.16797 7.0707 2.11133C6.74727 2.75821 6.64844 3.36914 6.64844 4.62695V5.75H5.32773C4.51016 5.75 3.82734 5.79492 3.54883 5.87578C1.91367 6.30703 0.557031 7.66367 0.125781 9.29883C0.0269531 9.66719 0 12.2188 0 22.8293V35.9016L0.251563 36.1531C0.583984 36.4586 1.05117 36.5395 1.41953 36.3508C2.0125 36.0453 1.97656 36.6113 1.97656 26.459V17.25H23H44.0234V26.3152V35.3895L40.816 35.4164L37.5996 35.4434L37.0965 35.6949C36.5035 35.9824 35.9105 36.5844 35.641 37.1773C35.4523 37.5816 35.4434 37.7434 35.4164 40.816L35.3895 44.0234H31.9754C28.3098 44.0234 28.2199 44.0324 27.9055 44.4906C27.627 44.8859 27.8066 45.6945 28.202 45.9102C28.3187 45.9641 29.882 46 32.6312 46H36.8809L41.4359 41.4359L46 36.8809V23.3145C46 12.2996 45.973 9.66719 45.8742 9.29883C45.443 7.66367 44.0863 6.30703 42.4512 5.87578C42.1727 5.79492 41.4898 5.75 40.6812 5.75H39.3516V4.62695C39.3516 4.01602 39.3066 3.29727 39.2527 3.03672C39.0012 1.87774 38.2285 0.88047 37.1504 0.350391C36.5395 0.0539055 36.4945 0.0449219 35.4434 0.0449219C34.4641 0.0449219 34.3203 0.0718765 33.8441 0.287502C33.1254 0.628906 32.3438 1.39258 31.9754 2.13828C31.6699 2.74023 31.6699 2.74023 31.643 4.24063L31.607 5.75H29.2352H26.8633V4.50117C26.8633 3.51289 26.8273 3.13555 26.6836 2.67735C26.3512 1.59922 25.6684 0.817577 24.6262 0.323437C24.0691 0.0628929 23.9703 0.0449219 23 0.0449219C22.0297 0.0449219 21.9309 0.0628929 21.3738 0.323437C20.3316 0.817577 19.6488 1.59922 19.3164 2.67735C19.1727 3.13555 19.1367 3.51289 19.1367 4.50117V5.75H16.7648H14.393L14.357 4.24063C14.3301 2.83906 14.3121 2.7043 14.0875 2.21914C13.7461 1.50039 12.9824 0.71875 12.2367 0.350391C11.6887 0.0808601 11.5539 0.0449219 10.6914 0.0269547C9.95469 0 9.64922 0.0359383 9.28984 0.16172ZM11.2125 2.12031C11.6527 2.3 12.0211 2.65937 12.2277 3.09961C12.3625 3.38711 12.3984 3.68359 12.3984 4.6V5.75H11.7605C11.4102 5.75 11.0508 5.79492 10.952 5.83984C10.5566 6.05547 10.377 6.86406 10.6555 7.25938C10.9789 7.72656 11.0148 7.72656 15.2285 7.72656H19.1367V8.48125C19.1367 10.2332 20.0531 11.6437 21.5895 12.2457C22.2543 12.5063 24.15 12.5781 24.4824 12.3625C25.0215 12.0031 25.1113 11.2035 24.6531 10.7723C24.4465 10.5836 24.3207 10.5477 23.4582 10.5027C22.2723 10.4488 21.8051 10.2242 21.4098 9.54141L21.1582 9.11914L21.1313 6.42383C21.1043 3.46797 21.1313 3.19844 21.5895 2.65039C22.3172 1.76992 23.6828 1.76094 24.4105 2.64141C24.7969 3.10859 24.8867 3.51289 24.8867 4.70781V5.75H24.2039C23.575 5.75 23.5031 5.76797 23.2605 6.01055C23.0449 6.23516 23 6.35196 23 6.71133C23 7.08867 23.0449 7.19648 23.2785 7.42109L23.548 7.68164L27.582 7.7086L31.607 7.73555L31.643 8.69688C31.6699 9.55039 31.7059 9.73008 31.9574 10.2512C32.6582 11.7605 33.907 12.4883 35.7758 12.4883C37.0426 12.4883 37.375 12.2816 37.375 11.5C37.375 10.7543 37.0246 10.5117 35.9734 10.5117C35.1289 10.5117 34.7066 10.3949 34.2664 10.0355C33.6285 9.50547 33.6016 9.37969 33.6016 6.24414C33.6016 3.11758 33.6285 3.00977 34.2574 2.45274C35.1738 1.64414 36.5305 1.90469 37.0965 2.9918C37.2852 3.36914 37.3211 3.57578 37.357 4.59101L37.402 5.75H36.6832C36.0184 5.75 35.9555 5.76797 35.7219 6.00156C35.4164 6.33398 35.3355 6.80117 35.5242 7.16953C35.8027 7.7086 35.9105 7.72656 38.9383 7.72656C41.5258 7.72656 41.7055 7.73555 42.1996 7.92422C42.8914 8.18476 43.5652 8.85859 43.8258 9.55039C44.0145 10.0355 44.0234 10.2242 44.0234 12.668V15.2734H23H1.97656V12.668C1.97656 9.59531 2.02148 9.37969 2.82109 8.57109C3.51289 7.88828 4.01602 7.72656 5.48047 7.72656H6.64844V8.30156C6.64844 10.0895 7.46602 11.4461 8.95742 12.1559C9.52344 12.4164 9.6582 12.4434 10.7094 12.4703L11.8594 12.5063L12.1738 12.1918C12.4344 11.9313 12.4883 11.8145 12.4883 11.5C12.4883 11.1945 12.4344 11.0688 12.1828 10.8172C11.8863 10.5207 11.8594 10.5117 11.1316 10.5117C10.1793 10.5117 9.775 10.3949 9.34375 10.0086C8.69687 9.41563 8.66992 9.32578 8.64297 6.59453C8.60703 3.89024 8.66992 3.28828 9.05625 2.74922C9.53242 2.06641 10.4488 1.79688 11.2125 2.12031ZM40.0254 39.9805L37.4199 42.5859L37.393 40.6813C37.375 39.6301 37.393 38.5969 37.4199 38.3902C37.4828 37.923 37.7523 37.5816 38.1207 37.4738C38.2824 37.4289 39.3605 37.384 40.5195 37.384L42.6309 37.375L40.0254 39.9805Z" fill="#FF4B55"/>
<path d="M20.3855 20.3855L20.125 20.6461V23V25.3539L20.3855 25.6145L20.6461 25.875H23H25.3539L25.6145 25.6145L25.875 25.3539V23V20.6461L25.6145 20.3855L25.3539 20.125H23H20.6461L20.3855 20.3855ZM23.8984 23V23.8984H23H22.1016V23V22.1016H23H23.8984V23Z" fill="#FF4B55"/>
<path d="M28.184 20.2238C27.8066 20.4484 27.7617 20.727 27.7617 23C27.7617 25.291 27.8066 25.5695 28.202 25.7852C28.3098 25.8391 29.2801 25.875 30.6996 25.875H33.0266L33.2961 25.5965L33.5566 25.327V23V20.673L33.2961 20.4035L33.0266 20.125H30.6906C29.2621 20.125 28.2828 20.1699 28.184 20.2238ZM31.625 23V23.8984H30.6816H29.7383V23V22.1016H30.6816H31.625V23Z" fill="#FF4B55"/>
<path d="M35.7039 20.4035L35.4434 20.673V23V25.327L35.7039 25.5965L35.9734 25.875H38.3004C39.7199 25.875 40.6902 25.8391 40.798 25.7852C41.1934 25.5695 41.2383 25.291 41.2383 23C41.2383 20.709 41.1934 20.4305 40.798 20.2148C40.6902 20.1609 39.7199 20.125 38.3004 20.125H35.9734L35.7039 20.4035ZM39.2617 23V23.8984H38.3184H37.375V23V22.1016H38.3184H39.2617V23Z" fill="#FF4B55"/>
<path d="M12.6949 21.1492C12.1289 21.3289 11.7066 21.6254 11.4191 22.0387C10.7632 23 0.26051 41.1934 0.125744 41.5887C-0.10785 42.3074 -0.018006 43.5562 0.305432 44.2211C0.619885 44.841 1.15895 45.398 1.75192 45.7215L2.20113 45.9551L13.2699 45.982C24.2668 46 24.3386 46 24.8328 45.8203C25.5246 45.5598 26.1625 44.9488 26.5218 44.2211C26.8004 43.6551 26.8183 43.5562 26.8183 42.6758C26.8183 41.7953 26.8004 41.6875 26.5488 41.1844C26.405 40.8879 23.8714 36.5125 20.9336 31.4453C15.0937 21.3918 15.1296 21.4457 14.1953 21.1672C13.6203 20.9965 13.207 20.9965 12.6949 21.1492ZM13.764 23.2426C13.9617 23.4762 24.5902 41.7773 24.7519 42.1637C24.8238 42.3434 24.8867 42.5859 24.8867 42.6937C24.8777 43.0621 24.5453 43.6551 24.2398 43.8437C23.9433 44.0234 23.8175 44.0234 13.3507 44.0234H2.76715L2.42574 43.682C2.03043 43.2957 1.89567 42.8195 2.03942 42.3164C2.10231 42.0918 9.81988 28.7051 12.9375 23.4223C13.0902 23.1707 13.189 23.0898 13.3777 23.0898C13.5214 23.0898 13.6921 23.1617 13.764 23.2426Z" fill="#FF4B55"/>
<path d="M12.8656 27.9055C12.3984 28.2289 12.3984 28.2199 12.3984 33.0625C12.3984 37.9051 12.3984 37.8961 12.8656 38.2195C13.2609 38.498 14.0695 38.3184 14.2852 37.923C14.4109 37.6805 14.4109 28.4445 14.2852 28.202C14.0695 27.8066 13.2609 27.627 12.8656 27.9055Z" fill="#FF4B55"/>
<path d="M12.7218 40.5016C11.8053 41.4719 13.153 42.8195 14.1233 41.9031C14.33 41.6965 14.3749 41.5797 14.3749 41.2113C14.3749 40.852 14.33 40.7352 14.1143 40.5105C13.8897 40.2949 13.7729 40.25 13.4136 40.25C13.0452 40.25 12.9284 40.2949 12.7218 40.5016Z" fill="#FF4B55"/>
<path d="M21.3826 28.0223C21.0861 28.3188 20.9783 28.6422 21.0592 28.9836C21.0951 29.1184 21.2389 29.334 21.3826 29.4777C21.6342 29.7383 21.6432 29.7383 22.7662 29.7383H23.8983V31.2656C23.8983 32.9816 23.9611 33.2152 24.4553 33.4758C24.8236 33.6645 25.2908 33.5836 25.6233 33.2781L25.8748 33.0266V30.6996C25.8748 29.2801 25.8389 28.3098 25.785 28.202C25.5783 27.8156 25.2639 27.7617 23.4041 27.7617H21.6342L21.3826 28.0223Z" fill="#FF4B55"/>
<path d="M28.0672 28.0672L27.7617 28.3727V30.6547C27.7617 33.1434 27.7707 33.1883 28.3008 33.4668C28.5074 33.5746 28.9746 33.6016 30.6816 33.6016C33.7812 33.6016 33.6195 33.7723 33.5836 30.5379L33.5566 28.2828L33.2602 28.0223L32.9727 27.7617H30.6727H28.3727L28.0672 28.0672ZM31.625 30.6816V31.625H30.6816H29.7383V30.6816V29.7383H30.6816H31.625V30.6816Z" fill="#FF4B55"/>
<path d="M35.8654 27.9055C35.4342 28.202 35.3982 28.4176 35.3982 30.6816C35.3982 33.7543 35.2455 33.6016 38.3181 33.6016C40.0252 33.6016 40.4924 33.5746 40.699 33.4668C41.2291 33.1883 41.2381 33.1434 41.2381 30.6547V28.3727L40.9326 28.0672L40.6271 27.7617H38.3451C36.4224 27.7617 36.0361 27.7797 35.8654 27.9055ZM39.2615 30.6816V31.625H38.3181H37.3748V30.6816V29.7383H38.3181H39.2615V30.6816Z" fill="#FF4B55"/>
<path d="M28.2379 35.5781C28.0852 35.668 27.9055 35.8297 27.8605 35.9285C27.7977 36.0363 27.7617 36.9437 27.7617 38.3633V40.6273L28.0672 40.9328L28.3727 41.2383H30.6547C33.1434 41.2383 33.1883 41.2293 33.4668 40.6992C33.5746 40.4926 33.6016 40.0254 33.6016 38.3184C33.6016 35.2367 33.7633 35.3984 30.6637 35.3984C28.7051 35.3984 28.4984 35.4164 28.2379 35.5781ZM31.625 38.3184V39.2617H30.6816H29.7383V38.3184V37.375H30.6816H31.625V38.3184Z" fill="#FF4B55"/>
</g>
<defs>
<clipPath id="clip0_8074_30185">
<rect width="46" height="46" fill="white"/>
</clipPath>
</defs>
</svg>
