<svg width="32" height="32" viewBox="0 0 32 32" fill="none" xmlns="http://www.w3.org/2000/svg">
<g opacity="0.4">
<path d="M9.35011 6.06976C7.46079 6.4799 6.3562 7.43262 6.05339 8.90656C5.99795 9.18853 5.98942 9.41069 6.01075 10.1284C6.18987 16.4215 10.0069 22.0909 15.7644 24.6286C17.8201 25.5343 19.9226 25.9872 22.0764 25.9957L23.0786 26L23.4795 25.859C24.3708 25.5471 24.9722 25.0046 25.4242 24.0988C25.7313 23.4879 26 22.4924 26 21.984C25.9957 21.497 25.7398 20.8134 25.4541 20.5443C25.275 20.3734 22.7758 18.3996 22.5327 18.233C22.1318 17.9595 21.5134 17.8271 20.9803 17.8997C20.396 17.9809 20.0548 18.1817 19.2616 18.9336L18.5835 19.5745L18.1868 19.442C17.0609 19.0661 15.7729 18.2287 14.6598 17.1564C13.5638 16.0968 12.8942 15.1313 12.5658 14.1529C12.3398 13.4694 12.3184 13.5335 13.0477 12.7602C13.3932 12.3927 13.7344 11.9912 13.8026 11.8673C14.2333 11.1196 14.2205 10.1583 13.7685 9.46196C13.6746 9.32524 13.1245 8.60323 12.5359 7.86412C11.3802 6.40299 11.265 6.28764 10.7319 6.11248C10.3395 5.98004 9.82777 5.96295 9.35011 6.06976ZM10.4973 7.05666C10.7276 7.1421 10.749 7.16346 11.8322 8.5306C12.4336 9.29106 12.9752 10.0045 13.0349 10.1156C13.1245 10.2908 13.1415 10.3762 13.1415 10.7052C13.1415 11.2179 13.0861 11.3161 12.3355 12.1022C12.0071 12.4526 11.6702 12.8157 11.5891 12.9182L11.4441 13.0977L11.4697 13.4822C11.4996 13.9692 11.6233 14.4349 11.8621 14.9775C12.8473 17.1863 15.4829 19.5531 17.8456 20.3392C18.3788 20.5186 18.7199 20.5785 18.8991 20.5357C18.9588 20.5186 19.3469 20.1897 19.7648 19.8009C20.6775 18.9464 20.8054 18.8695 21.3087 18.8653C21.603 18.8653 21.7096 18.8824 21.8631 18.9635C21.9697 19.0148 22.6777 19.5488 23.4411 20.1512C24.6651 21.1125 24.84 21.2663 24.921 21.4415C25.1087 21.8345 25.0959 22.1763 24.8656 22.9453C24.5158 24.1074 23.8377 24.8208 22.8867 25.0216C22.5114 25.1028 21.5902 25.0815 20.6263 24.9704C14.0286 24.2185 8.60376 19.2412 7.26461 12.7132C7.07269 11.7946 6.93621 10.5172 6.93621 9.7012C6.94048 8.37252 7.71668 7.48388 9.22643 7.09083C9.79365 6.9413 10.1647 6.93276 10.4973 7.05666Z" fill="#141D19"/>
</g>
</svg>
