<svg width="28" height="28" viewBox="0 0 28 28" fill="none" xmlns="http://www.w3.org/2000/svg">
<mask id="path-1-inside-1_3276_75924" fill="white">
<path d="M16.2877 11.7067C15.0744 10.4938 13.429 9.8125 11.7133 9.8125C9.99772 9.8125 8.35232 10.4938 7.13894 11.7067L2.56306 16.2811C1.34965 17.4945 0.667969 19.1403 0.667969 20.8563C0.667969 22.5723 1.34965 24.218 2.56306 25.4314C3.77646 26.6448 5.42219 27.3265 7.1382 27.3265C8.85421 27.3265 10.4999 26.6448 11.7133 25.4314L14.0005 23.1442"/>
</mask>
<path d="M14.1669 13.8285C15.3387 14.9998 17.2382 14.9994 18.4095 13.8276C19.5808 12.6558 19.5804 10.7563 18.4086 9.58496L14.1669 13.8285ZM7.13894 11.7067L5.01806 9.58496L5.01796 9.58506L7.13894 11.7067ZM2.56306 16.2811L0.442078 14.1595L0.441735 14.1598L2.56306 16.2811ZM0.667969 20.8563H-2.33203H0.667969ZM11.7133 25.4314L13.8347 27.5527H13.8347L11.7133 25.4314ZM16.1219 25.2655C17.2934 24.094 17.2934 22.1945 16.1219 21.0229C14.9503 19.8513 13.0508 19.8513 11.8792 21.0229L16.1219 25.2655ZM18.4086 9.58496C16.6327 7.80975 14.2244 6.8125 11.7133 6.8125V12.8125C12.6335 12.8125 13.5161 13.1779 14.1669 13.8285L18.4086 9.58496ZM11.7133 6.8125C9.20228 6.8125 6.79402 7.80975 5.01806 9.58496L9.25982 13.8285C9.91063 13.1779 10.7932 12.8125 11.7133 12.8125V6.8125ZM5.01796 9.58506L0.442078 14.1595L4.68403 18.4028L9.25992 13.8284L5.01796 9.58506ZM0.441735 14.1598C-1.33428 15.9358 -2.33203 18.3446 -2.33203 20.8563H3.66797C3.66797 19.9359 4.03358 19.0532 4.68438 18.4024L0.441735 14.1598ZM-2.33203 20.8563C-2.33203 23.3679 -1.33428 25.7767 0.441735 27.5527L4.68438 23.3101C4.03358 22.6593 3.66797 21.7766 3.66797 20.8563H-2.33203ZM0.441735 27.5527C2.21775 29.3288 4.62654 30.3265 7.1382 30.3265V24.3265C6.21784 24.3265 5.33517 23.9609 4.68438 23.3101L0.441735 27.5527ZM7.1382 30.3265C9.64986 30.3265 12.0587 29.3288 13.8347 27.5527L9.59202 23.3101C8.94123 23.9609 8.05856 24.3265 7.1382 24.3265V30.3265ZM13.8347 27.5527L16.1219 25.2655L11.8792 21.0229L9.59202 23.3101L13.8347 27.5527Z" fill="#303548" mask="url(#path-1-inside-1_3276_75924)"/>
<mask id="path-3-inside-2_3276_75924" fill="white">
<path d="M11.7129 16.2838C12.9263 17.4967 14.5717 18.1781 16.2873 18.1781C18.0029 18.1781 19.6483 17.4967 20.8617 16.2838L25.4376 11.7094C26.651 10.496 27.3327 8.8503 27.3327 7.13429C27.3327 5.41828 26.651 3.77255 25.4376 2.55915C24.2242 1.34575 22.5785 0.664063 20.8624 0.664062C19.1464 0.664063 17.5007 1.34575 16.2873 2.55915L14.0001 4.84635"/>
</mask>
<path d="M13.8338 14.1621C12.662 12.9907 10.7625 12.9911 9.59113 14.163C8.4198 15.3348 8.4202 17.2343 9.59201 18.4056L13.8338 14.1621ZM20.8617 16.2838L22.9826 18.4056L22.9827 18.4055L20.8617 16.2838ZM25.4376 11.7094L27.5586 13.8311L27.5589 13.8308L25.4376 11.7094ZM27.3327 7.13429H30.3327H27.3327ZM20.8624 0.664062V-2.33594V0.664062ZM16.2873 2.55915L14.166 0.437828L14.166 0.437829L16.2873 2.55915ZM11.8788 2.72503C10.7072 3.8966 10.7072 5.7961 11.8788 6.96767C13.0503 8.13924 14.9498 8.13924 16.1214 6.96767L11.8788 2.72503ZM9.59201 18.4056C11.368 20.1808 13.7762 21.1781 16.2873 21.1781V15.1781C15.3671 15.1781 14.4846 14.8126 13.8338 14.1621L9.59201 18.4056ZM16.2873 21.1781C18.7984 21.1781 21.2066 20.1808 22.9826 18.4056L18.7408 14.1621C18.09 14.8126 17.2075 15.1781 16.2873 15.1781V21.1781ZM22.9827 18.4055L27.5586 13.8311L23.3166 9.58777L18.7407 14.1622L22.9827 18.4055ZM27.5589 13.8308C29.3349 12.0547 30.3327 9.64595 30.3327 7.13429H24.3327C24.3327 8.05466 23.9671 8.93732 23.3163 9.58812L27.5589 13.8308ZM30.3327 7.13429C30.3327 4.62263 29.3349 2.21384 27.5589 0.437828L23.3163 4.68047C23.9671 5.33126 24.3327 6.21393 24.3327 7.13429H30.3327ZM27.5589 0.437828C25.7829 -1.33819 23.3741 -2.33594 20.8624 -2.33594V3.66406C21.7828 3.66406 22.6655 4.02968 23.3163 4.68047L27.5589 0.437828ZM20.8624 -2.33594C18.3508 -2.33594 15.942 -1.33818 14.166 0.437828L18.4086 4.68047C19.0594 4.02968 19.9421 3.66406 20.8624 3.66406V-2.33594ZM14.166 0.437829L11.8788 2.72503L16.1214 6.96767L18.4086 4.68047L14.166 0.437829Z" fill="#303548" mask="url(#path-3-inside-2_3276_75924)"/>
</svg>
