<svg width="64" height="64" viewBox="0 0 64 64" fill="none" xmlns="http://www.w3.org/2000/svg">
<mask id="path-1-inside-1_3502_13815" fill="white">
<path d="M36.5755 27.4213C34.1487 24.9955 30.8579 23.6328 27.4267 23.6328C23.9954 23.6328 20.7046 24.9955 18.2779 27.4213L9.12611 36.5701C6.6993 38.9969 5.33594 42.2883 5.33594 45.7204C5.33594 49.1524 6.6993 52.4438 9.12611 54.8706C11.5529 57.2975 14.8444 58.6608 18.2764 58.6608C21.7084 58.6608 24.9999 57.2975 27.4267 54.8706L32.0011 50.2962"/>
</mask>
<path d="M33.7477 30.2503C35.3101 31.812 37.8427 31.8115 39.4045 30.2491C40.9663 28.6867 40.9658 26.154 39.4033 24.5922L33.7477 30.2503ZM18.2779 27.4213L15.45 24.5922L15.4499 24.5924L18.2779 27.4213ZM9.12611 36.5701L6.29814 33.7412L6.29768 33.7416L9.12611 36.5701ZM5.33594 45.7204H1.33594H5.33594ZM27.4267 54.8706L30.2551 57.6991H30.2551L27.4267 54.8706ZM34.8295 53.1247C36.3916 51.5626 36.3916 49.0299 34.8295 47.4678C33.2674 45.9057 30.7348 45.9057 29.1727 47.4678L34.8295 53.1247ZM39.4033 24.5922C36.2265 21.4167 31.9185 19.6328 27.4267 19.6328V27.6328C29.7974 27.6328 32.071 28.5743 33.7477 30.2503L39.4033 24.5922ZM27.4267 19.6328C22.9349 19.6328 18.6269 21.4167 15.45 24.5922L21.1057 30.2503C22.7824 28.5743 25.056 27.6328 27.4267 27.6328V19.6328ZM15.4499 24.5924L6.29814 33.7412L11.9541 39.399L21.1058 30.2501L15.4499 24.5924ZM6.29768 33.7416C3.12073 36.9186 1.33594 41.2275 1.33594 45.7204H9.33594C9.33594 43.3492 10.2779 41.0752 11.9545 39.3985L6.29768 33.7416ZM1.33594 45.7204C1.33594 50.2132 3.12073 54.5221 6.29768 57.6991L11.9545 52.0422C10.2779 50.3656 9.33594 48.0915 9.33594 45.7204H1.33594ZM6.29768 57.6991C9.47464 60.876 13.7835 62.6608 18.2764 62.6608V54.6608C15.9052 54.6608 13.6312 53.7189 11.9545 52.0422L6.29768 57.6991ZM18.2764 62.6608C22.7693 62.6608 27.0782 60.876 30.2551 57.6991L24.5983 52.0422C22.9216 53.7189 20.6476 54.6608 18.2764 54.6608V62.6608ZM30.2551 57.6991L34.8295 53.1247L29.1727 47.4678L24.5983 52.0422L30.2551 57.6991Z" fill="url(#paint0_linear_3502_13815)" mask="url(#path-1-inside-1_3502_13815)"/>
<mask id="path-3-inside-2_3502_13815" fill="white">
<path d="M27.4258 36.5677C29.8525 38.9934 33.1433 40.3561 36.5746 40.3561C40.0058 40.3561 43.2966 38.9934 45.7234 36.5677L54.8752 27.4189C57.302 24.9921 58.6653 21.7006 58.6653 18.2686C58.6653 14.8366 57.302 11.5451 54.8752 9.1183C52.4484 6.69149 49.1569 5.32813 45.7249 5.32812C42.2929 5.32813 39.0014 6.69149 36.5746 9.1183L32.0002 13.6927"/>
</mask>
<path d="M30.2536 33.7387C28.6912 32.1769 26.1585 32.1774 24.5968 33.7398C23.035 35.3023 23.0355 37.8349 24.5979 39.3967L30.2536 33.7387ZM45.7234 36.5677L48.5512 39.3967L48.5514 39.3966L45.7234 36.5677ZM54.8752 27.4189L57.7031 30.2478L57.7036 30.2473L54.8752 27.4189ZM58.6653 18.2686H62.6653H58.6653ZM45.7249 5.32812V1.32812V5.32812ZM36.5746 9.1183L33.7462 6.28987L33.7462 6.28987L36.5746 9.1183ZM29.1718 10.8643C27.6097 12.4264 27.6097 14.959 29.1718 16.5211C30.7339 18.0832 33.2665 18.0832 34.8286 16.5211L29.1718 10.8643ZM24.5979 39.3967C27.7748 42.5722 32.0828 44.3561 36.5746 44.3561V36.3561C34.2039 36.3561 31.9303 35.4146 30.2536 33.7387L24.5979 39.3967ZM36.5746 44.3561C41.0664 44.3561 45.3744 42.5722 48.5512 39.3967L42.8956 33.7387C41.2189 35.4146 38.9453 36.3561 36.5746 36.3561V44.3561ZM48.5514 39.3966L57.7031 30.2478L52.0472 24.59L42.8954 33.7388L48.5514 39.3966ZM57.7036 30.2473C60.8805 27.0704 62.6653 22.7615 62.6653 18.2686H54.6653C54.6653 20.6397 53.7234 22.9138 52.0467 24.5904L57.7036 30.2473ZM62.6653 18.2686C62.6653 13.7757 60.8805 9.46682 57.7036 6.28987L52.0467 11.9467C53.7234 13.6234 54.6653 15.8974 54.6653 18.2686H62.6653ZM57.7036 6.28987C54.5266 3.11292 50.2178 1.32812 45.7249 1.32812V9.32812C48.096 9.32812 50.3701 10.2701 52.0467 11.9467L57.7036 6.28987ZM45.7249 1.32812C41.232 1.32812 36.9231 3.11292 33.7462 6.28987L39.403 11.9467C41.0797 10.2701 43.3537 9.32812 45.7249 9.32812V1.32812ZM33.7462 6.28987L29.1718 10.8643L34.8286 16.5211L39.403 11.9467L33.7462 6.28987Z" fill="url(#paint1_linear_3502_13815)" mask="url(#path-3-inside-2_3502_13815)"/>
<defs>
<linearGradient id="paint0_linear_3502_13815" x1="53.1012" y1="14.1753" x2="-29.4785" y2="53.8028" gradientUnits="userSpaceOnUse">
<stop stop-color="#88EDFE"/>
<stop offset="0.489" stop-color="#625EFE"/>
<stop offset="1" stop-color="#C224FE"/>
</linearGradient>
<linearGradient id="paint1_linear_3502_13815" x1="75.1911" y1="-4.12943" x2="-7.38867" y2="35.4982" gradientUnits="userSpaceOnUse">
<stop stop-color="#88EDFE"/>
<stop offset="0.489" stop-color="#625EFE"/>
<stop offset="1" stop-color="#C224FE"/>
</linearGradient>
</defs>
</svg>
