<svg width="67" height="67" viewBox="0 0 67 67" fill="none" xmlns="http://www.w3.org/2000/svg">
<path d="M21.9159 0H45.0841C50.8966 0 56.471 2.30899 60.581 6.41902C64.691 10.529 67 16.1034 67 21.9159V45.0841C67 50.8966 64.691 56.471 60.581 60.581C56.471 64.691 50.8966 67 45.0841 67H21.9159C16.1034 67 10.529 64.691 6.41902 60.581C2.30899 56.471 0 50.8966 0 45.0841L0 21.9159C0 16.1034 2.30899 10.529 6.41902 6.41902C10.529 2.30899 16.1034 0 21.9159 0V0Z" fill="white"/>
<path d="M40.6623 21.3011H33.8715V21.3105C35.7049 21.4059 37.4317 22.2014 38.6957 23.5328C39.9598 24.8641 40.6646 26.6299 40.6648 28.4657C40.6648 30.366 39.9099 32.1886 38.5662 33.5323C37.2224 34.876 35.3999 35.6309 33.4996 35.6309C31.7762 35.6333 30.1101 35.0121 28.809 33.8821L28.7889 33.8983C31.0471 36.0269 34.0344 37.2106 37.1376 37.2064C39.1672 37.2075 41.1648 36.7014 42.949 35.7342C44.7333 34.7669 46.2475 33.3692 47.3542 31.6679C47.5956 30.6179 47.7173 29.5438 47.7168 28.4663C47.7216 25.379 46.7167 22.3747 44.8552 19.9116C43.6446 20.8142 42.1748 21.3015 40.6648 21.3011" fill="url(#paint0_linear_7707_22711)"/>
<path d="M33.4999 14.248H33.4623C29.6987 14.258 26.0925 15.7598 23.4344 18.4243C20.7763 21.0887 19.2831 24.6984 19.2821 28.4621C19.2821 30.3291 19.6499 32.1779 20.3644 33.9029C21.0789 35.6278 22.1262 37.1951 23.4464 38.5153C24.7667 39.8355 26.334 40.8827 28.059 41.5972C29.784 42.3116 31.6328 42.6793 33.4999 42.6792C36.7143 42.6789 39.8338 41.5898 42.3499 39.5894C44.866 37.589 46.6302 34.7953 47.3551 31.6637C46.2484 33.3649 44.7342 34.7627 42.9499 35.7299C41.1657 36.6971 39.1681 37.2032 37.1385 37.2021C34.0353 37.2063 31.048 36.0227 28.7898 33.8941L28.8099 33.8778C28.0321 33.206 27.4084 32.3744 26.9812 31.4397C26.554 30.505 26.3335 29.4891 26.3346 28.4614C26.3346 26.5621 27.0888 24.7404 28.4313 23.3968C29.7738 22.0533 31.5949 21.2977 33.4942 21.2962H33.5349C33.6476 21.2962 33.7604 21.3 33.8718 21.3056V21.2962H40.6626C40.7198 21.2962 40.7772 21.2962 40.8348 21.2962H40.8523C40.9087 21.2962 40.965 21.2931 41.0208 21.2899H41.0252C41.0821 21.2899 41.1385 21.283 41.1949 21.2787H41.2118C41.2662 21.2743 41.3201 21.2693 41.3739 21.2643H41.384C41.4391 21.2586 41.4935 21.2524 41.5486 21.2448H41.568C41.6194 21.238 41.672 21.2311 41.7233 21.2229H41.7377C41.791 21.2148 41.8442 21.2054 41.8968 21.196L41.9181 21.1923L42.0671 21.1634L42.0859 21.1597L42.2399 21.1259L42.265 21.1196C42.3119 21.109 42.3576 21.0977 42.404 21.0858L42.4303 21.0789L42.5762 21.0388L42.6044 21.0307L42.7346 20.9919L42.7678 20.9819L42.9055 20.9368L42.9381 20.9255L43.059 20.8829L43.0959 20.8691L43.2211 20.8209L43.2637 20.804L43.3764 20.7577L43.4171 20.7402L43.533 20.6894L43.5824 20.6669L43.6889 20.6168L43.7327 20.5955L43.8354 20.5442L43.8943 20.5141L43.9919 20.4621L44.0377 20.4371L44.1335 20.3839L44.1961 20.3488L44.2881 20.2943L44.3363 20.2655L44.4259 20.2092L44.4885 20.1691L44.5749 20.1115L44.6256 20.0777L44.7077 20.0207L44.7703 19.9756L44.8517 19.913C44.8773 19.9474 44.9037 19.9812 44.9293 20.0163C44.9037 19.9812 44.878 19.9474 44.8517 19.913C45.7378 19.2581 46.4582 18.4048 46.9551 17.4213C47.452 16.4379 47.7117 15.3518 47.7133 14.2499L33.4999 14.248Z" fill="url(#paint1_linear_7707_22711)"/>
<path d="M33.5 45.3474C30.6689 45.3488 27.8829 44.6377 25.3989 43.2795C22.9149 41.9212 20.8126 39.9596 19.2859 37.5754V37.9186C19.2975 41.6848 20.7988 45.2935 23.4619 47.9566C26.1251 50.6198 29.7337 52.121 33.5 52.1326C37.2662 52.121 40.8749 50.6198 43.538 47.9566C46.2012 45.2935 47.7024 41.6848 47.714 37.9186V37.571C46.1875 39.9566 44.0849 41.9195 41.6001 43.2785C39.1154 44.6376 36.3284 45.3491 33.4962 45.3474" fill="url(#paint2_linear_7707_22711)"/>
<defs>
<linearGradient id="paint0_linear_7707_22711" x1="38.1961" y1="23.4743" x2="38.2593" y2="33.7129" gradientUnits="userSpaceOnUse">
<stop stop-color="#D51AFF"/>
<stop offset="0.502" stop-color="#4E6AFE"/>
<stop offset="1" stop-color="#8BF3FE"/>
</linearGradient>
<linearGradient id="paint1_linear_7707_22711" x1="19.2821" y1="28.4636" x2="47.7133" y2="28.4636" gradientUnits="userSpaceOnUse">
<stop stop-color="#D51AFF"/>
<stop offset="0.502" stop-color="#4E6AFE"/>
<stop offset="1" stop-color="#8BF3FE"/>
</linearGradient>
<linearGradient id="paint2_linear_7707_22711" x1="48.1404" y1="44.8518" x2="20.0819" y2="44.8518" gradientUnits="userSpaceOnUse">
<stop stop-color="#D51AFF"/>
<stop offset="0.502" stop-color="#4E6AFE"/>
<stop offset="1" stop-color="#8BF3FE"/>
</linearGradient>
</defs>
</svg>
