<svg width="20" height="20" viewBox="0 0 20 20" fill="none" xmlns="http://www.w3.org/2000/svg">
<path opacity="0.4" fill-rule="evenodd" clip-rule="evenodd" d="M10.4091 0.0555968C9.80213 0.242498 9.65999 0.605648 9.65999 1.96968C9.65999 3.4082 9.49744 3.81743 8.78076 4.18296C8.55583 4.29771 8.54272 4.27746 8.69065 4.04359C9.86379 2.18894 7.76841 -0.0918421 5.77855 0.873814C4.47097 1.50836 4.08301 3.4182 5.06936 4.3649C5.23662 4.52545 5.23187 4.53267 4.92118 4.59001C3.74214 4.80754 2.60213 5.51108 1.91716 6.44397C1.63219 6.83214 0.125956 9.36503 0.0537172 9.57763C-0.190568 10.2964 0.431453 11.0132 1.24886 10.955C1.80766 10.9152 1.85973 10.8596 3.12957 8.9466C4.02828 7.59265 4.34613 7.17176 4.46984 7.17176C4.49423 7.17176 4.50819 7.81418 4.50735 8.89673L4.50602 10.6217L3.88971 12.779L3.27341 14.9362L2.878 15.0502C2.11714 15.2696 1.58853 15.6276 1.38803 16.0594C1.23791 16.3826 1.23526 18.4542 1.38453 18.7724C2.02578 20.1395 5.8454 20.4556 7.23525 19.2566L7.40629 19.1091L7.57733 19.2566C8.71597 20.2389 11.8918 20.2389 13.0305 19.2566L13.2015 19.1091L13.3726 19.2566C14.761 20.4544 18.5901 20.1376 19.2242 18.7725L19.3179 18.5706V14.1927V9.81469L19.2205 9.60483C19.043 9.22267 18.37 8.73855 17.8799 8.64046C17.7142 8.6073 17.6198 8.78145 18.6278 7.26082C19.9221 5.3082 20.2063 4.33395 19.8704 3.00107C18.7303 -1.52362 12.2464 -0.686077 12.2601 3.98411C12.2636 5.18445 12.3693 5.44874 13.5705 7.2609C14.2993 8.36039 14.4372 8.59067 14.3787 8.61109C13.6137 8.87772 13.1683 9.19475 12.9756 9.60967L12.8804 9.81469L12.88 11.984L12.8796 14.1533L12.6079 14.0172C12.3421 13.8841 12.1034 13.797 11.7656 13.7099L11.5974 13.6665L11.5845 12.5476L11.5716 11.4287L11.4385 11.1468C11.3183 10.8923 11.1944 10.7532 10.1607 9.71289L9.01607 8.56077V7.6491V6.73744L9.36821 6.62736C10.5974 6.24315 11.451 5.34306 11.8176 4.04464C11.9214 3.67685 11.9499 1.10353 11.8538 0.772092C11.6838 0.185887 11.0336 -0.136631 10.4091 0.0555968ZM11.1252 0.794204L11.2496 0.918966L11.2614 2.17877C11.2859 4.8012 10.5721 5.83469 8.52308 6.14389L8.37216 6.16669V7.50675V8.84681L9.57821 10.0555C10.5326 11.012 10.8016 11.3047 10.8675 11.4583C10.9946 11.7544 10.9752 14.3652 10.8447 14.5403C10.5545 14.9298 10.0534 14.9299 9.76309 14.5404C9.68514 14.4359 9.67886 14.3602 9.65975 13.2921C9.63503 11.9124 9.76128 12.1725 8.53402 10.9736L7.53358 9.99626H7.19146H6.84934L6.78765 10.1879C6.75372 10.2934 6.34339 11.5953 5.87579 13.0812C4.90734 16.1588 4.92086 16.1295 4.46783 16.1295C3.69276 16.1295 3.69714 15.7875 4.50868 12.9418L5.15259 10.6839V8.56469V6.44546L4.90106 6.44595C4.04876 6.44756 3.9502 6.53992 2.54152 8.65745C1.40256 10.3695 1.42095 10.349 1.06237 10.3085C0.437691 10.2379 0.48027 10.0371 1.47057 8.38226C2.9593 5.89461 3.74745 5.27632 5.56852 5.16758L6.00457 5.14155L5.98171 5.31938C5.96915 5.41722 5.91997 6.10305 5.87244 6.84352L5.78608 8.18983L6.27421 8.67924L6.76237 9.16869L7.25062 8.67916L7.73887 8.18963L7.65283 6.86361C7.6055 6.13428 7.55636 5.43571 7.5436 5.31119L7.52042 5.08474L7.97647 5.0364C9.70578 4.85317 10.2595 4.14434 10.3012 2.06055L10.324 0.923808L10.4246 0.815387C10.6309 0.593099 10.9159 0.584464 11.1252 0.794204ZM16.8644 0.729765C18.4113 1.153 19.3013 2.34364 19.2968 3.98411C19.2939 5.0749 19.2673 5.13219 17.5942 7.64725C16.2527 9.66378 16.1983 9.73173 15.9996 9.64098C15.8762 9.58457 13.3687 5.83065 13.1778 5.41654C12.0188 2.90164 14.2828 0.0234782 16.8644 0.729765ZM7.42355 1.4348C8.25271 1.82381 8.5989 2.78136 8.20172 3.58707C7.59954 4.80871 5.92521 4.80871 5.32303 3.58707C4.66623 2.25471 6.08111 0.804937 7.42355 1.4348ZM15.5399 1.34304C14.3954 1.59196 13.5249 2.68073 13.5249 3.86306C13.5249 6.12654 16.2941 7.29233 17.8878 5.69976C19.7156 3.87323 18.057 0.795575 15.5399 1.34304ZM16.5602 1.98804C18.0057 2.36551 18.5086 4.11795 17.4813 5.19776C16.4406 6.29169 14.6124 5.80132 14.229 4.32539C13.8706 2.94583 15.1843 1.62872 16.5602 1.98804ZM6.88488 5.16435C6.88584 5.16988 6.92951 5.79179 6.98195 6.54634L7.07729 7.91824L6.91981 8.07903L6.76237 8.23987L6.60494 8.07903L6.44746 7.91824L6.5428 6.54634C6.59524 5.79179 6.6389 5.16988 6.63987 5.16435C6.64084 5.15882 6.69597 5.15426 6.76237 5.15426C6.82878 5.15426 6.88391 5.15882 6.88488 5.16435ZM15.0974 9.5625C15.4214 10.0502 15.4775 10.11 15.7168 10.2232C16.2457 10.4732 16.6125 10.2975 17.1034 9.55867L17.3539 9.18164L17.5012 9.20904C19.0051 9.48858 18.9737 10.414 17.4473 10.8C14.8684 11.4522 12.1706 10.09 14.4461 9.28461C14.829 9.14908 14.8203 9.1454 15.0974 9.5625ZM8.40234 11.7506L9.01607 12.3558V13.0104V13.665L8.84503 13.7092C7.71267 14.0013 7.08586 14.5357 7.08473 15.2099L7.08433 15.4404L6.79256 15.2998C6.63206 15.2224 6.37707 15.1221 6.22587 15.0767C6.05825 15.0265 5.9572 14.9757 5.96694 14.9465C5.97575 14.9203 6.28053 13.9505 6.64418 12.7915L7.30535 10.6842L7.54698 10.9148C7.67987 11.0417 8.06481 11.4178 8.40234 11.7506ZM13.8919 11.178C15.2098 11.8141 17.2259 11.7444 18.6446 11.0139C18.7097 10.9803 18.6799 18.4234 18.6145 18.5504C18.0769 19.5925 14.1213 19.5925 13.5838 18.5504C13.5183 18.4234 13.4885 10.9803 13.5537 11.0139C13.5703 11.0224 13.7224 11.0963 13.8919 11.178ZM14.1674 12.5787V12.9015H14.4893H14.8113V12.5787V12.2559H14.4893H14.1674V12.5787ZM14.1674 15.8067V18.0663H14.4893H14.8113V15.8067V13.5471H14.4893H14.1674V15.8067ZM9.05672 14.4449C9.05793 14.7292 9.38858 15.1609 9.75187 15.3524C10.4408 15.7156 11.548 15.1571 11.5511 14.4449C11.5516 14.3369 11.589 14.3338 11.8762 14.4185C13.016 14.7543 13.1689 15.3276 12.2346 15.7622C10.2323 16.6936 6.385 15.6156 8.2171 14.6366C8.69907 14.379 9.05608 14.2975 9.05672 14.4449ZM3.28146 15.8602C3.57713 17.0292 5.24519 17.06 5.66108 15.9042C5.77654 15.5832 6.05894 15.6035 6.6814 15.9776C8.3136 16.9585 4.54989 17.9482 2.58478 17.0549C1.64632 16.6282 1.77409 16.0835 2.89776 15.7205C3.19638 15.624 3.22427 15.6342 3.28146 15.8602ZM8.09664 16.3428C9.41462 16.9789 11.4307 16.9092 12.8494 16.1787C12.9131 16.1458 12.8841 18.4246 12.8192 18.5504C12.2817 19.5925 8.32608 19.5925 7.78857 18.5504C7.7237 18.4246 7.69472 16.1458 7.75843 16.1787C7.77501 16.1872 7.92721 16.2611 8.09664 16.3428ZM2.30142 17.634C3.62128 18.271 5.63343 18.2014 7.05415 17.4699C7.11524 17.4384 7.08767 18.427 7.024 18.5504C6.4865 19.5925 2.53085 19.5925 1.99335 18.5504C1.92968 18.427 1.90211 17.4384 1.9632 17.4699C1.97982 17.4784 2.13199 17.5523 2.30142 17.634Z" fill="#141D19"/>
</svg>
