<svg width="32" height="32" viewBox="0 0 32 32" fill="none" xmlns="http://www.w3.org/2000/svg">
<path d="M3.66602 14.0052C3.11935 14.0052 2.66602 13.5519 2.66602 13.0052V9.67187C2.66602 5.81854 5.81268 2.67188 9.66602 2.67188H12.9993C13.546 2.67188 13.9993 3.12521 13.9993 3.67187C13.9993 4.21854 13.546 4.67187 12.9993 4.67187H9.66602C6.90602 4.67187 4.66602 6.91187 4.66602 9.67187V13.0052C4.66602 13.5519 4.21268 14.0052 3.66602 14.0052Z" fill="white"/>
<path d="M28.3333 14.0052C27.7867 14.0052 27.3333 13.5519 27.3333 13.0052V9.67187C27.3333 6.91187 25.0933 4.67187 22.3333 4.67187H19C18.4533 4.67187 18 4.21854 18 3.67187C18 3.12521 18.4533 2.67188 19 2.67188H22.3333C26.1867 2.67188 29.3333 5.81854 29.3333 9.67187V13.0052C29.3333 13.5519 28.88 14.0052 28.3333 14.0052Z" fill="white"/>
<path d="M22.334 29.3281H20.334C19.7873 29.3281 19.334 28.8748 19.334 28.3281C19.334 27.7815 19.7873 27.3281 20.334 27.3281H22.334C25.094 27.3281 27.334 25.0881 27.334 22.3281V20.3281C27.334 19.7815 27.7873 19.3281 28.334 19.3281C28.8807 19.3281 29.334 19.7815 29.334 20.3281V22.3281C29.334 26.1815 26.1873 29.3281 22.334 29.3281Z" fill="white"/>
<path d="M12.9993 29.3333H9.66602C5.81268 29.3333 2.66602 26.1867 2.66602 22.3333V19C2.66602 18.4533 3.11935 18 3.66602 18C4.21268 18 4.66602 18.4533 4.66602 19V22.3333C4.66602 25.0933 6.90602 27.3333 9.66602 27.3333H12.9993C13.546 27.3333 13.9993 27.7867 13.9993 28.3333C13.9993 28.88 13.546 29.3333 12.9993 29.3333Z" fill="white"/>
</svg>
