<svg width="61" height="60" viewBox="0 0 61 60" fill="none" xmlns="http://www.w3.org/2000/svg">
<path d="M30.0625 49.375C20.7625 49.375 13.1875 41.8 13.1875 32.5V20C13.1875 10.7 20.7625 3.125 30.0625 3.125C39.3625 3.125 46.9375 10.7 46.9375 20V32.5C46.9375 41.8 39.3625 49.375 30.0625 49.375ZM30.0625 6.875C22.8375 6.875 16.9375 12.75 16.9375 20V32.5C16.9375 39.75 22.8375 45.625 30.0625 45.625C37.2875 45.625 43.1875 39.75 43.1875 32.5V20C43.1875 12.75 37.2875 6.875 30.0625 6.875Z" fill="#91939D"/>
<path d="M30.0625 56.875C16.6125 56.875 5.6875 45.95 5.6875 32.5V27.5C5.6875 26.475 6.5375 25.625 7.5625 25.625C8.5875 25.625 9.4375 26.475 9.4375 27.5V32.5C9.4375 43.875 18.6875 53.125 30.0625 53.125C41.4375 53.125 50.6875 43.875 50.6875 32.5V27.5C50.6875 26.475 51.5375 25.625 52.5625 25.625C53.5875 25.625 54.4375 26.475 54.4375 27.5V32.5C54.4375 45.95 43.5125 56.875 30.0625 56.875Z" fill="#91939D"/>
<path d="M36.5882 20.5742C36.3882 20.5742 36.1632 20.5492 35.9382 20.4742C31.9132 19.0242 27.4882 19.0242 23.4632 20.4742C22.5132 20.8242 21.4382 20.3242 21.0882 19.3492C20.7382 18.3742 21.2382 17.2992 22.2132 16.9492C27.0632 15.1992 32.3882 15.1992 37.2382 16.9492C38.2132 17.2992 38.7132 18.3742 38.3632 19.3492C38.0882 20.1242 37.3632 20.5742 36.5882 20.5742Z" fill="#91939D"/>
<path d="M34.3133 28.0742C34.1633 28.0742 33.9883 28.0492 33.8133 27.9992C31.1383 27.2742 28.3133 27.2742 25.6383 27.9992C24.6133 28.2742 23.6133 27.6742 23.3383 26.6742C23.0633 25.6742 23.6633 24.6492 24.6633 24.3742C27.9883 23.4742 31.4883 23.4742 34.8133 24.3742C35.8133 24.6492 36.4133 25.6742 36.1383 26.6742C35.8883 27.5492 35.1383 28.0742 34.3133 28.0742Z" fill="#91939D"/>
</svg>
