<svg width="32" height="32" viewBox="0 0 32 32" fill="none" xmlns="http://www.w3.org/2000/svg">
<path d="M25.4932 12.1618C24.9732 12.1618 24.5599 12.5751 24.5599 13.0951V15.2018C24.5599 19.9218 20.7199 23.7618 15.9999 23.7618C11.2799 23.7618 7.43991 19.9218 7.43991 15.2018V13.0818C7.43991 12.5618 7.02658 12.1484 6.50658 12.1484C5.98658 12.1484 5.57324 12.5618 5.57324 13.0818V15.1884C5.57324 20.6151 9.74658 25.0818 15.0666 25.5618V28.4018C15.0666 28.9218 15.4799 29.3351 15.9999 29.3351C16.5199 29.3351 16.9332 28.9218 16.9332 28.4018V25.5618C22.2399 25.0951 26.4266 20.6151 26.4266 15.1884V13.0818C26.4132 12.5751 25.9999 12.1618 25.4932 12.1618Z" fill="white"/>
<path d="M16 2.66797C12.7467 2.66797 10.1067 5.30797 10.1067 8.5613V15.388C10.1067 18.6413 12.7467 21.2813 16 21.2813C19.2534 21.2813 21.8934 18.6413 21.8934 15.388V8.5613C21.8934 5.30797 19.2534 2.66797 16 2.66797ZM17.7467 11.9346C17.6534 12.2813 17.3467 12.508 17 12.508C16.9334 12.508 16.8667 12.4946 16.8 12.4813C16.28 12.3346 15.7334 12.3346 15.2134 12.4813C14.7867 12.6013 14.3734 12.348 14.2667 11.9346C14.1467 11.5213 14.4 11.0946 14.8134 10.988C15.6 10.7746 16.4267 10.7746 17.2134 10.988C17.6134 11.0946 17.8534 11.5213 17.7467 11.9346ZM18.4534 9.34797C18.3334 9.66797 18.04 9.85464 17.72 9.85464C17.6267 9.85464 17.5467 9.8413 17.4534 9.81464C16.52 9.46797 15.48 9.46797 14.5467 9.81464C14.1467 9.9613 13.6934 9.74797 13.5467 9.34797C13.4 8.94797 13.6134 8.49464 14.0134 8.3613C15.2934 7.89464 16.7067 7.89464 17.9867 8.3613C18.3867 8.50797 18.6 8.94797 18.4534 9.34797Z" fill="white"/>
</svg>
