<svg width="64" height="65" viewBox="0 0 64 65" fill="none" xmlns="http://www.w3.org/2000/svg">
<path d="M32 5.69531C18.7653 5.69531 8 16.4606 8 29.6953C8 38.57 12.8533 46.314 20.0347 50.4686L14.5227 54.1433C14.0467 54.4607 13.6853 54.9228 13.4921 55.4613C13.2989 55.9998 13.2839 56.5862 13.4496 57.1339C13.6152 57.6815 13.9525 58.1614 14.4118 58.5026C14.871 58.8438 15.4279 59.0282 16 59.0286H48C48.5724 59.0288 49.1296 58.8447 49.5893 58.5037C50.049 58.1628 50.3868 57.6829 50.5527 57.1351C50.7187 56.5874 50.704 56.0007 50.5108 55.4619C50.3176 54.9232 49.9562 54.4608 49.48 54.1433L43.968 50.4686C51.1467 46.314 56 38.57 56 29.6953C56 16.4606 45.2347 5.69531 32 5.69531ZM32 48.362C21.7093 48.362 13.3333 39.986 13.3333 29.6953C13.3333 19.4046 21.7093 11.0286 32 11.0286C42.2907 11.0286 50.6667 19.4046 50.6667 29.6953C50.6667 39.986 42.2907 48.362 32 48.362Z" fill="url(#paint0_linear_3502_13428)"/>
<path d="M31.9993 16.3594C24.6473 16.3594 18.666 22.3407 18.666 29.6927C18.666 37.0447 24.6473 43.026 31.9993 43.026C39.3513 43.026 45.3327 37.0447 45.3327 29.6927C45.3327 22.3407 39.3513 16.3594 31.9993 16.3594ZM27.9993 29.6927C27.4739 29.6925 26.9536 29.5889 26.4682 29.3876C25.9828 29.1864 25.5418 28.8915 25.1704 28.5198C24.4202 27.7692 23.999 26.7513 23.9993 25.69C23.9995 25.1646 24.1032 24.6443 24.3044 24.1589C24.5057 23.6735 24.8006 23.2325 25.1723 22.8611C25.9229 22.1109 26.9408 21.6897 28.002 21.69C29.0632 21.6904 30.0808 22.1123 30.831 22.8629C31.5811 23.6136 32.0024 24.6315 32.002 25.6927C32.0017 26.7539 31.5798 27.7715 30.8291 28.5217C30.0785 29.2718 29.0606 29.6931 27.9993 29.6927Z" fill="url(#paint1_linear_3502_13428)"/>
<defs>
<linearGradient id="paint0_linear_3502_13428" x1="-2.944" y1="-2.35802" x2="82.4187" y2="66.446" gradientUnits="userSpaceOnUse">
<stop stop-color="#D51AFF"/>
<stop offset="0.502" stop-color="#4E6AFE"/>
<stop offset="1" stop-color="#8BF3FE"/>
</linearGradient>
<linearGradient id="paint1_linear_3502_13428" x1="12.586" y1="12.3327" x2="55.9993" y2="51.2127" gradientUnits="userSpaceOnUse">
<stop stop-color="#D51AFF"/>
<stop offset="0.502" stop-color="#4E6AFE"/>
<stop offset="1" stop-color="#8BF3FE"/>
</linearGradient>
</defs>
</svg>
