<svg width="20" height="20" viewBox="0 0 20 20" fill="none" xmlns="http://www.w3.org/2000/svg">
<path d="M3.35011 0.0697556C1.46079 0.479897 0.356197 1.43262 0.0533941 2.90656C-0.00204869 3.18853 -0.0105784 3.41069 0.0107458 4.12843C0.189869 10.4215 4.00689 16.0909 9.76441 18.6286C11.8201 19.5343 13.9226 19.9872 16.0764 19.9957L17.0786 20L17.4795 19.859C18.3708 19.5471 18.9722 19.0046 19.4242 18.0988C19.7313 17.4879 20 16.4924 20 15.984C19.9957 15.497 19.7398 14.8134 19.4541 14.5443C19.275 14.3734 16.7758 12.3996 16.5327 12.233C16.1318 11.9595 15.5134 11.8271 14.9803 11.8997C14.396 11.9809 14.0548 12.1817 13.2616 12.9336L12.5835 13.5745L12.1868 13.442C11.0609 13.0661 9.77294 12.2287 8.65982 11.1564C7.56376 10.0968 6.89418 9.13129 6.56579 8.15293C6.33975 7.46937 6.31843 7.53345 7.04771 6.76017C7.39317 6.39275 7.73435 5.99115 7.80259 5.86726C8.23334 5.11961 8.22054 4.15834 7.76847 3.46196C7.67464 3.32524 7.12448 2.60323 6.53593 1.86412C5.38017 0.402994 5.26502 0.287643 4.73191 0.112478C4.33955 -0.0199623 3.82777 -0.0370522 3.35011 0.0697556ZM4.49735 1.05666C4.72765 1.1421 4.74897 1.16346 5.83224 2.5306C6.43358 3.29107 6.97521 4.00454 7.03492 4.11562C7.12448 4.29078 7.14154 4.37623 7.14154 4.70519C7.14154 5.21787 7.0861 5.31613 6.33549 6.10223C6.0071 6.45256 5.67017 6.81571 5.58914 6.91824L5.44414 7.09768L5.46973 7.48218C5.49958 7.96922 5.62326 8.4349 5.86209 8.97749C6.84727 11.1863 9.48293 13.5531 11.8456 14.3392C12.3787 14.5186 12.7199 14.5785 12.8991 14.5357C12.9588 14.5186 13.3469 14.1897 13.7648 13.8009C14.6775 12.9464 14.8054 12.8695 15.3087 12.8653C15.603 12.8653 15.7096 12.8824 15.8631 12.9635C15.9697 13.0148 16.6777 13.5488 17.4411 14.1512C18.6651 15.1125 18.84 15.2663 18.921 15.4415C19.1087 15.8345 19.0959 16.1763 18.8656 16.9453C18.5158 18.1074 17.8377 18.8208 16.8867 19.0216C16.5114 19.1028 15.5902 19.0815 14.6263 18.9704C8.02862 18.2185 2.60376 13.2412 1.26461 6.71317C1.07269 5.79463 0.936214 4.51721 0.936214 3.7012C0.940479 2.37252 1.71668 1.48388 3.22643 1.09083C3.79365 0.941303 4.16469 0.932758 4.49735 1.05666Z" fill="#141D19"/>
</svg>
