<svg width="24" height="24" viewBox="0 0 24 24" fill="none" xmlns="http://www.w3.org/2000/svg">
<path d="M12 12.1877C11.67 12.1877 11.34 12.1052 11.04 11.9477L6.1575 9.3152C5.715 9.0752 5.4375 8.6027 5.4375 8.0777C5.4375 7.5527 5.715 7.0802 6.1575 6.8402L11.04 4.2077C11.64 3.8852 12.36 3.8852 12.9525 4.2077L17.835 6.8402C18.2775 7.0802 18.555 7.5527 18.555 8.0777C18.555 8.6027 18.2775 9.0752 17.835 9.3152L12.9525 11.9477C12.66 12.1127 12.33 12.1877 12 12.1877ZM12 5.0852C11.8575 5.0852 11.7075 5.1227 11.5725 5.1977L6.6975 7.8227C6.57 7.8902 6.5625 8.0327 6.5625 8.0777C6.5625 8.1227 6.57 8.2652 6.6975 8.3252L11.58 10.9577C11.85 11.1002 12.1575 11.1002 12.4275 10.9577L17.31 8.3252C17.43 8.2577 17.445 8.1152 17.445 8.0777C17.445 8.0327 17.4375 7.8902 17.31 7.8302L12.4275 5.1977C12.2925 5.1227 12.1425 5.0852 12 5.0852Z" fill="white"/>
<path d="M10.335 20.0398C10.125 20.0398 9.9075 19.9873 9.7125 19.8898L5.1675 17.6248C4.41 17.2423 3.9375 16.4773 3.9375 15.6298V11.3398C3.9375 10.8523 4.185 10.4098 4.5975 10.1548C5.0175 9.89983 5.52 9.87733 5.955 10.0948L10.5 12.3598C11.2575 12.7423 11.73 13.4998 11.73 14.3548V18.6448C11.73 19.1323 11.4825 19.5748 11.07 19.8298C10.845 19.9723 10.59 20.0398 10.335 20.0398ZM5.3325 11.0698C5.2725 11.0698 5.22 11.0923 5.19 11.1073C5.145 11.1373 5.0625 11.2048 5.0625 11.3398V15.6298C5.0625 16.0498 5.295 16.4323 5.67 16.6198L10.2075 18.8923C10.3275 18.9523 10.425 18.9073 10.47 18.8848C10.515 18.8548 10.5975 18.7873 10.5975 18.6523V14.3623C10.5975 13.9423 10.365 13.5598 9.99 13.3723L5.4525 11.0998C5.4075 11.0773 5.37 11.0698 5.3325 11.0698Z" fill="white"/>
<path d="M13.665 20.04C13.41 20.04 13.155 19.9725 12.93 19.83C12.5175 19.575 12.27 19.1325 12.27 18.645V14.355C12.27 13.5075 12.7425 12.7425 13.5 12.36L18.0375 10.0875C18.4725 9.87 18.9825 9.8925 19.395 10.1475C19.8075 10.4025 20.055 10.845 20.055 11.3325V15.6225C20.055 16.47 19.5825 17.235 18.825 17.6175L14.2875 19.89C14.0925 19.995 13.875 20.04 13.665 20.04ZM18.6675 11.07C18.63 11.07 18.5925 11.0775 18.5475 11.1L14.01 13.3725C13.635 13.56 13.4025 13.935 13.4025 14.3625V18.6525C13.4025 18.7875 13.485 18.855 13.53 18.885C13.575 18.915 13.6725 18.9525 13.7925 18.8925L18.33 16.62C18.705 16.4325 18.9375 16.05 18.9375 15.63V11.34C18.9375 11.205 18.855 11.1375 18.81 11.1075C18.78 11.0925 18.7275 11.07 18.6675 11.07Z" fill="white"/>
</svg>
