<svg width="102" height="102" viewBox="0 0 102 102" fill="none" xmlns="http://www.w3.org/2000/svg">
<circle opacity="0.2" cx="51" cy="51" r="51" fill="#FF4B55"/>
<circle cx="51.0019" cy="51.0019" r="35.8378" fill="#FF4B55"/>
<path d="M38.796 60.9625L48.7599 50.9986L38.796 41.0347C38.5076 40.7361 38.348 40.3361 38.3516 39.921C38.3552 39.5058 38.5217 39.1087 38.8153 38.8152C39.1089 38.5216 39.506 38.3551 39.9211 38.3515C40.3363 38.3479 40.7362 38.5075 41.0349 38.7959L50.9988 48.7598L60.9627 38.7959C61.1087 38.6446 61.2835 38.524 61.4766 38.441C61.6698 38.3581 61.8776 38.3144 62.0878 38.3126C62.298 38.3107 62.5065 38.3508 62.7011 38.4304C62.8957 38.51 63.0725 38.6276 63.2211 38.7762C63.3698 38.9249 63.4874 39.1017 63.567 39.2963C63.6466 39.4909 63.6867 39.6994 63.6848 39.9096C63.683 40.1198 63.6393 40.3276 63.5564 40.5208C63.4734 40.7139 63.3527 40.8886 63.2015 41.0347L53.2376 50.9986L63.2015 60.9625C63.3527 61.1086 63.4734 61.2833 63.5564 61.4765C63.6393 61.6697 63.683 61.8774 63.6848 62.0877C63.6867 62.2979 63.6466 62.5064 63.567 62.701C63.4874 62.8956 63.3698 63.0723 63.2211 63.221C63.0725 63.3697 62.8957 63.4872 62.7011 63.5668C62.5065 63.6465 62.298 63.6865 62.0878 63.6847C61.8776 63.6829 61.6698 63.6392 61.4766 63.5562C61.2835 63.4732 61.1087 63.3526 60.9627 63.2014L50.9988 53.2375L41.0349 63.2014C40.7362 63.4898 40.3363 63.6494 39.9211 63.6458C39.506 63.6422 39.1089 63.4756 38.8153 63.1821C38.5217 62.8885 38.3552 62.4914 38.3516 62.0763C38.348 61.6611 38.5076 61.2612 38.796 60.9625Z" fill="white"/>
</svg>
