<svg width="32" height="32" viewBox="0 0 32 32" fill="none" xmlns="http://www.w3.org/2000/svg">
<path d="M8.59363 4.79375C8.24988 4.84375 7.41238 5.05625 7.06863 5.1875C5.04988 5.9625 3.44988 7.65625 2.75613 9.74375C2.18738 11.45 2.19363 13.2875 2.78113 15.0375C3.12488 16.0625 4.04988 17.6812 4.95613 18.8437C5.96863 20.1375 7.63738 21.8187 9.21863 23.1312C11.3311 24.8875 13.9686 26.7312 14.8436 27.075C15.1624 27.2 15.3311 27.2188 15.9999 27.2188C17.0124 27.2188 17.2499 27.1375 18.4061 26.3812C18.6499 26.225 18.8561 26.0812 18.8749 26.0562C18.8936 26.0375 19.0749 25.9125 19.2811 25.7812C19.8061 25.4375 21.3124 24.3312 21.7874 23.9437C21.8936 23.8562 22.1061 23.6812 22.2561 23.5625C22.4061 23.4437 22.6561 23.2375 22.8124 23.1062C22.9686 22.975 23.2499 22.7312 23.4374 22.575C24.2436 21.8937 25.8749 20.275 26.4124 19.6187C28.2499 17.3812 29.1499 15.7312 29.5436 13.875C29.6936 13.1625 29.6936 11.6875 29.5499 10.9062C29.1624 8.86875 28.0999 7.1625 26.4999 6.0375C25.3186 5.20625 24.1874 4.83125 22.6686 4.76875C21.6561 4.73125 21.1249 4.7875 20.2561 5.0375C19.7624 5.18125 18.8624 5.59375 18.3686 5.89375C17.8061 6.24375 16.7374 7.2 16.2311 7.8125L15.9999 8.09375L15.7999 7.84375C15.3624 7.3 14.3874 6.4125 13.8186 6.0375C12.3999 5.1125 11.1749 4.74375 9.61238 4.75625C9.15613 4.7625 8.69988 4.78125 8.59363 4.79375Z" fill="#FA333E"/>
</svg>
