<svg width="20" height="20" viewBox="0 0 20 20" fill="none" xmlns="http://www.w3.org/2000/svg">
<path d="M7.50016 8.95833C6.2335 8.95833 5.2085 7.93333 5.2085 6.66667C5.2085 5.4 6.2335 4.375 7.50016 4.375C8.76683 4.375 9.79183 5.4 9.79183 6.66667C9.79183 7.93333 8.76683 8.95833 7.50016 8.95833ZM7.50016 5.625C6.92516 5.625 6.4585 6.09167 6.4585 6.66667C6.4585 7.24167 6.92516 7.70833 7.50016 7.70833C8.07516 7.70833 8.54183 7.24167 8.54183 6.66667C8.54183 6.09167 8.07516 5.625 7.50016 5.625Z" fill="white"/>
<path d="M12.4998 18.9596H7.49984C2.97484 18.9596 1.0415 17.0263 1.0415 12.5013V7.5013C1.0415 2.9763 2.97484 1.04297 7.49984 1.04297H10.8332C11.1748 1.04297 11.4582 1.3263 11.4582 1.66797C11.4582 2.00964 11.1748 2.29297 10.8332 2.29297H7.49984C3.65817 2.29297 2.2915 3.65964 2.2915 7.5013V12.5013C2.2915 16.343 3.65817 17.7096 7.49984 17.7096H12.4998C16.3415 17.7096 17.7082 16.343 17.7082 12.5013V8.33464C17.7082 7.99297 17.9915 7.70964 18.3332 7.70964C18.6748 7.70964 18.9582 7.99297 18.9582 8.33464V12.5013C18.9582 17.0263 17.0248 18.9596 12.4998 18.9596Z" fill="white"/>
<path d="M17.7083 4.79297H13.125C12.7833 4.79297 12.5 4.50964 12.5 4.16797C12.5 3.8263 12.7833 3.54297 13.125 3.54297H17.7083C18.05 3.54297 18.3333 3.8263 18.3333 4.16797C18.3333 4.50964 18.05 4.79297 17.7083 4.79297Z" fill="white"/>
<path d="M15.4165 7.08333C15.0748 7.08333 14.7915 6.8 14.7915 6.45833V1.875C14.7915 1.53333 15.0748 1.25 15.4165 1.25C15.7582 1.25 16.0415 1.53333 16.0415 1.875V6.45833C16.0415 6.8 15.7582 7.08333 15.4165 7.08333Z" fill="white"/>
<path d="M2.22492 16.4148C2.02492 16.4148 1.82492 16.3148 1.70825 16.1398C1.51659 15.8565 1.59159 15.4648 1.87492 15.2732L5.98325 12.5148C6.88325 11.9148 8.12492 11.9815 8.94158 12.6732L9.21659 12.9148C9.63325 13.2732 10.3416 13.2732 10.7499 12.9148L14.2166 9.93984C15.1083 9.18151 16.4916 9.18151 17.3833 9.93984L18.7416 11.1065C18.9999 11.3315 19.0333 11.7232 18.8083 11.9898C18.5833 12.2482 18.1916 12.2815 17.9249 12.0565L16.5666 10.8898C16.1499 10.5315 15.4416 10.5315 15.0333 10.8898L11.5666 13.8648C10.6833 14.6232 9.29158 14.6232 8.39992 13.8648L8.12492 13.6232C7.74159 13.2982 7.10825 13.2648 6.68325 13.5565L2.58325 16.3148C2.46659 16.3815 2.34159 16.4148 2.22492 16.4148Z" fill="white"/>
</svg>
