<svg width="61" height="60" viewBox="0 0 61 60" fill="none" xmlns="http://www.w3.org/2000/svg">
<path d="M52.5597 16.8242C52.5097 16.8242 52.4347 16.8242 52.3597 16.8242C39.1347 15.4992 25.9347 14.9992 12.8597 16.3242L7.75973 16.8242C6.70973 16.9242 5.78473 16.1742 5.68473 15.1242C5.58473 14.0742 6.33473 13.1742 7.35973 13.0742L12.4597 12.5742C25.7597 11.2242 39.2347 11.7492 52.7347 13.0742C53.7597 13.1742 54.5097 14.0992 54.4097 15.1242C54.3347 16.0992 53.5097 16.8242 52.5597 16.8242Z" fill="url(#paint0_linear_6128_17252)"/>
<path d="M21.3104 14.3C21.2104 14.3 21.1104 14.3 20.9854 14.275C19.9854 14.1 19.2854 13.125 19.4604 12.125L20.0104 8.85C20.4104 6.45 20.9604 3.125 26.7854 3.125H33.3354C39.1854 3.125 39.7354 6.575 40.1104 8.875L40.6604 12.125C40.8354 13.15 40.1354 14.125 39.1354 14.275C38.1104 14.45 37.1354 13.75 36.9854 12.75L36.4354 9.5C36.0854 7.325 36.0104 6.9 33.3604 6.9H26.8104C24.1604 6.9 24.1104 7.25 23.7354 9.475L23.1604 12.725C23.0104 13.65 22.2104 14.3 21.3104 14.3Z" fill="url(#paint1_linear_6128_17252)"/>
<path d="M38.0904 56.8749H22.0404C13.3154 56.8749 12.9654 52.0499 12.6904 48.1499L11.0654 22.9749C10.9904 21.9499 11.7904 21.0499 12.8154 20.9749C13.8654 20.9249 14.7404 21.6999 14.8154 22.7249L16.4404 47.8999C16.7154 51.6999 16.8154 53.1249 22.0404 53.1249H38.0904C43.3404 53.1249 43.4404 51.6999 43.6904 47.8999L45.3154 22.7249C45.3904 21.6999 46.2904 20.9249 47.3154 20.9749C48.3404 21.0499 49.1404 21.9249 49.0654 22.9749L47.4404 48.1499C47.1654 52.0499 46.8154 56.8749 38.0904 56.8749Z" fill="url(#paint2_linear_6128_17252)"/>
<path d="M34.2098 43.125H25.8848C24.8598 43.125 24.0098 42.275 24.0098 41.25C24.0098 40.225 24.8598 39.375 25.8848 39.375H34.2098C35.2348 39.375 36.0848 40.225 36.0848 41.25C36.0848 42.275 35.2348 43.125 34.2098 43.125Z" fill="url(#paint3_linear_6128_17252)"/>
<path d="M36.3105 33.125H23.8105C22.7855 33.125 21.9355 32.275 21.9355 31.25C21.9355 30.225 22.7855 29.375 23.8105 29.375H36.3105C37.3355 29.375 38.1855 30.225 38.1855 31.25C38.1855 32.275 37.3355 33.125 36.3105 33.125Z" fill="url(#paint4_linear_6128_17252)"/>
<defs>
<linearGradient id="paint0_linear_6128_17252" x1="-5.4376" y1="11.0229" x2="-3.55059" y2="27.341" gradientUnits="userSpaceOnUse">
<stop stop-color="#D51AFF"/>
<stop offset="0.502" stop-color="#4E6AFE"/>
<stop offset="1" stop-color="#8BF3FE"/>
</linearGradient>
<linearGradient id="paint1_linear_6128_17252" x1="14.5877" y1="1.43729" x2="30.5747" y2="28.6633" gradientUnits="userSpaceOnUse">
<stop stop-color="#D51AFF"/>
<stop offset="0.502" stop-color="#4E6AFE"/>
<stop offset="1" stop-color="#8BF3FE"/>
</linearGradient>
<linearGradient id="paint2_linear_6128_17252" x1="2.39432" y1="15.5514" x2="61.1158" y2="71.2281" gradientUnits="userSpaceOnUse">
<stop stop-color="#D51AFF"/>
<stop offset="0.502" stop-color="#4E6AFE"/>
<stop offset="1" stop-color="#8BF3FE"/>
</linearGradient>
<linearGradient id="paint3_linear_6128_17252" x1="21.2567" y1="38.8087" x2="25.0592" y2="49.7745" gradientUnits="userSpaceOnUse">
<stop stop-color="#D51AFF"/>
<stop offset="0.502" stop-color="#4E6AFE"/>
<stop offset="1" stop-color="#8BF3FE"/>
</linearGradient>
<linearGradient id="paint4_linear_6128_17252" x1="18.2305" y1="28.8087" x2="21.1988" y2="40.3282" gradientUnits="userSpaceOnUse">
<stop stop-color="#D51AFF"/>
<stop offset="0.502" stop-color="#4E6AFE"/>
<stop offset="1" stop-color="#8BF3FE"/>
</linearGradient>
</defs>
</svg>
