<svg width="20" height="21" viewBox="0 0 20 21" fill="none" xmlns="http://www.w3.org/2000/svg">
<path fill-rule="evenodd" clip-rule="evenodd" d="M7.80866 6.39169H12.6301C12.7104 6.39033 12.7902 6.40529 12.8645 6.43565C12.9389 6.46602 13.0063 6.51115 13.0627 6.56833C13.1191 6.62551 13.1633 6.69354 13.1926 6.7683C13.2219 6.84306 13.2358 6.92299 13.2333 7.00326H7.20548C7.20302 6.92299 7.21687 6.84306 7.24621 6.7683C7.27554 6.69354 7.31974 6.62551 7.37613 6.56833C7.43253 6.51115 7.49994 6.46602 7.57428 6.43565C7.64863 6.40529 7.72837 6.39033 7.80866 6.39169ZM14.3987 7.99203C14.428 8.06676 14.4418 8.14665 14.4392 8.22686L14.441 8.83844H6.00089V8.22686C5.99837 8.1468 6.01211 8.06706 6.04125 7.99245C6.0704 7.91784 6.11436 7.84991 6.17048 7.79276C6.2266 7.73561 6.29372 7.69042 6.36778 7.65991C6.44185 7.62941 6.52133 7.61423 6.60142 7.61528H13.8369C13.9172 7.61399 13.9969 7.62899 14.0711 7.65939C14.1454 7.68978 14.2127 7.73494 14.269 7.79211C14.3253 7.84929 14.3695 7.9173 14.3987 7.99203ZM15.2886 8.47609L15.6443 8.83844H15.646C15.6954 8.88857 15.7429 8.93365 15.7876 8.97616C16.0663 9.24087 16.2393 9.40523 16.1167 10.062C16.0353 10.498 15.774 12.0508 15.5459 13.4063C15.3752 14.4211 15.223 15.3251 15.179 15.5671C15.1475 15.7394 15.0564 15.8951 14.9216 16.0069C14.7869 16.1188 14.617 16.1796 14.4419 16.1787H6.00177C5.82662 16.1797 5.65673 16.1189 5.52194 16.007C5.38715 15.8952 5.29607 15.7394 5.2647 15.5671C5.2217 15.3311 5.07622 14.4656 4.91085 13.4818C4.68021 12.1097 4.4109 10.5075 4.327 10.062C4.20309 9.40406 4.37508 9.24079 4.65256 8.97737C4.69766 8.93456 4.74555 8.8891 4.79541 8.83844L5.15202 8.47609V9.44825H15.2886V8.47609ZM8.33057 13.0102L10.2197 14.9232L12.1123 13.0151V12.7058H10.9775V11.115H9.4649V12.7058H8.33057V13.0102ZM10.2197 14.563L8.63724 12.9585H9.71678V11.3677H10.7256V12.9585H11.8078L10.2197 14.563Z" fill="#303548"/>
<path d="M6.26542 5.84805C5.80023 5.36102 5.14542 5.23786 4.80287 5.57295C4.46031 5.90804 4.55973 6.5745 5.02492 7.06153L14.7114 17.2027C15.1766 17.6897 15.8314 17.8129 16.1739 17.4778C16.5165 17.1427 16.4171 16.4763 15.9519 15.9892L6.26542 5.84805Z" fill="#303548" stroke="white"/>
</svg>
