<svg width="20" height="21" viewBox="0 0 20 21" fill="none" xmlns="http://www.w3.org/2000/svg">
<path d="M6.79399 15.1506L4.28884 16.6059L5.72688 14.0594L5.79417 14.048L7.67217 12.1379L5.97576 10.4098C5.65974 10.0914 5.69655 9.73113 6.08618 9.32897H8.09703L11.1077 6.39611L10.9727 6.24813C10.9004 6.18111 10.843 6.09934 10.8043 6.00822C10.7656 5.9171 10.7464 5.81871 10.748 5.71953C10.7466 5.62008 10.7653 5.52141 10.8031 5.42959C10.8409 5.33777 10.8968 5.25476 10.9675 5.18568C11.0359 5.11426 11.1181 5.05775 11.2089 5.01962C11.2996 4.98149 11.3972 4.96254 11.4955 4.96394C11.594 4.96258 11.6919 4.98098 11.7834 5.01806C11.8749 5.05514 11.9582 5.11018 12.0286 5.18001L15.5655 8.77243C15.6349 8.84357 15.6896 8.92791 15.7266 9.02059C15.7637 9.11326 15.7822 9.21243 15.7811 9.31238C15.7828 9.41138 15.7648 9.50972 15.7281 9.60151C15.6914 9.6933 15.6369 9.77668 15.5676 9.84666C15.5005 9.91828 15.4195 9.97499 15.3295 10.0132C15.2396 10.0513 15.1428 10.0702 15.0453 10.0684C14.9457 10.0695 14.847 10.0499 14.7552 10.0107C14.6634 9.97163 14.5806 9.91385 14.5117 9.84099L14.3655 9.69301L11.4679 12.7516L11.4566 14.7866C11.0673 15.1806 10.7153 15.2146 10.4008 14.8887L8.70391 13.1702L6.81685 15.0799L6.79399 15.1506Z" fill="#303548"/>
<path d="M7.0828 4.88223C6.61761 4.3952 5.9628 4.27204 5.62025 4.60713C5.2777 4.94222 5.37711 5.60868 5.8423 6.09571L15.5288 16.2369C15.994 16.7239 16.6488 16.8471 16.9913 16.512C17.3339 16.1769 17.2345 15.5104 16.7693 15.0234L7.0828 4.88223Z" fill="#303548" stroke="white"/>
</svg>
