<svg width="20" height="21" viewBox="0 0 20 21" fill="none" xmlns="http://www.w3.org/2000/svg">
<path d="M15.6679 8.14713L10.8995 5.79052C10.7456 5.71503 10.5764 5.67578 10.405 5.67578C10.2336 5.67578 10.0644 5.71503 9.91053 5.79052L5.14208 8.14713C4.885 8.27183 4.6683 8.46652 4.5169 8.70883C4.36549 8.95115 4.28551 9.23126 4.28614 9.51699V14.5581C4.28906 14.9658 4.45348 15.3558 4.74337 15.6425C5.03327 15.9293 5.425 16.0894 5.83276 16.0879H14.9764C15.3841 16.0894 15.7759 15.9293 16.0657 15.6425C16.3556 15.3558 16.5201 14.9658 16.523 14.5581V9.51478C16.5236 9.22905 16.4436 8.94894 16.2922 8.70662C16.1408 8.46431 15.9241 8.26962 15.667 8.14492L15.6679 8.14713ZM10.306 6.57267C10.3368 6.55754 10.3707 6.54967 10.405 6.54967C10.4393 6.54967 10.4732 6.55754 10.504 6.57267L15.1306 8.85769L10.4324 11.1798C10.4016 11.195 10.3677 11.2028 10.3334 11.2028C10.2991 11.2028 10.2652 11.195 10.2344 11.1798L5.60695 8.89436L10.306 6.57267Z" fill="#303548"/>
<path d="M6.0828 5.88223C5.61761 5.3952 4.9628 5.27204 4.62025 5.60713C4.2777 5.94222 4.37711 6.60868 4.8423 7.09571L14.5288 17.2369C14.994 17.7239 15.6488 17.8471 15.9913 17.512C16.3339 17.1769 16.2345 16.5104 15.7693 16.0234L6.0828 5.88223Z" fill="#303548" stroke="white"/>
</svg>
