<svg width="20" height="20" viewBox="0 0 20 20" fill="none" xmlns="http://www.w3.org/2000/svg">
<path opacity="0.4" fill-rule="evenodd" clip-rule="evenodd" d="M0.948113 0.0232194C0.596873 0.10882 0.273709 0.3727 0.106419 0.710489L0.00959477 0.906013V2.48976V4.07351L0.143216 4.31991C0.29162 4.59361 0.413392 4.71147 0.709299 4.86754L0.909008 4.97293H10.0009H19.0928L19.2925 4.86754C19.5884 4.71147 19.7102 4.59361 19.8586 4.31991L19.9922 4.07351V2.48976V0.906013L19.8586 0.659613C19.7102 0.385918 19.5884 0.268055 19.2925 0.111988L19.0928 0.00659984L10.0791 0.00061679C5.12159 -0.00266802 1.01264 0.00749926 0.948113 0.0232194ZM18.9372 0.869919C19.1817 0.985944 19.1906 1.04265 19.1906 2.48976C19.1906 3.93688 19.1817 3.99358 18.9372 4.10961C18.7384 4.20397 1.26346 4.20397 1.06457 4.10961C0.820123 3.99358 0.811246 3.93688 0.811246 2.48976C0.811246 1.04992 0.820592 0.988603 1.05843 0.871327C1.24918 0.77728 18.7391 0.775911 18.9372 0.869919ZM16.9656 7.55565C15.8536 7.79689 15.0077 8.85206 15.0077 9.99791C15.0077 12.1915 17.6985 13.3214 19.2471 11.7779C21.0231 10.0078 19.4115 7.02507 16.9656 7.55565ZM0.23699 8.37365C-0.083123 8.51286 -0.0776484 8.98607 0.245554 9.12114C0.442995 9.20361 12.8694 9.20463 13.0668 9.12219C13.4161 8.97622 13.4161 8.51689 13.0668 8.37091C12.8725 8.28973 0.423872 8.29235 0.23699 8.37365ZM18.0802 8.43903C19.2172 8.86211 19.5388 10.3182 18.6841 11.1729C17.7252 12.1317 16.0816 11.5865 15.8644 10.2375C15.668 9.0181 16.9154 8.00559 18.0802 8.43903ZM0.23699 10.8764C-0.083123 11.0156 -0.0776484 11.4888 0.245554 11.6239C0.442995 11.7063 12.8694 11.7073 13.0668 11.6249C13.4161 11.4789 13.4161 11.0196 13.0668 10.8736C12.8725 10.7924 0.423872 10.7951 0.23699 10.8764ZM16.9656 15.0638C15.8536 15.305 15.0077 16.3602 15.0077 17.5061C15.0077 19.6997 17.6985 20.8295 19.2471 19.2861C21.0231 17.5159 19.4115 14.5332 16.9656 15.0638ZM0.23699 15.8818C-0.083123 16.021 -0.0776484 16.4942 0.245554 16.6293C0.442995 16.7118 12.8694 16.7128 13.0668 16.6303C13.4161 16.4844 13.4161 16.025 13.0668 15.8791C12.8725 15.7979 0.423872 15.8005 0.23699 15.8818ZM18.0802 15.9472C19.6859 16.5447 19.4444 18.8776 17.7486 19.1507C16.6781 19.3231 15.692 18.337 15.8644 17.2665C16.0331 16.2192 17.1016 15.583 18.0802 15.9472ZM0.23699 18.3845C-0.083123 18.5237 -0.0776484 18.9969 0.245554 19.132C0.442995 19.2145 12.8694 19.2155 13.0668 19.1331C13.4161 18.9871 13.4161 18.5278 13.0668 18.3818C12.8725 18.3006 0.423872 18.3032 0.23699 18.3845Z" fill="#141D19"/>
</svg>
