<svg width="32" height="32" viewBox="0 0 32 32" fill="none" xmlns="http://www.w3.org/2000/svg">
<path d="M19.9993 30.3307H11.9993C4.75935 30.3307 1.66602 27.2374 1.66602 19.9974V11.9974C1.66602 4.7574 4.75935 1.66406 11.9993 1.66406H19.9993C27.2393 1.66406 30.3327 4.7574 30.3327 11.9974V19.9974C30.3327 27.2374 27.2393 30.3307 19.9993 30.3307ZM11.9993 3.66406C5.85268 3.66406 3.66602 5.85073 3.66602 11.9974V19.9974C3.66602 26.1441 5.85268 28.3307 11.9993 28.3307H19.9993C26.146 28.3307 28.3327 26.1441 28.3327 19.9974V11.9974C28.3327 5.85073 26.146 3.66406 19.9993 3.66406H11.9993Z" fill="#353452"/>
<path d="M28.6413 10.4766H3.36133C2.81466 10.4766 2.36133 10.0232 2.36133 9.47656C2.36133 8.9299 2.80133 8.47656 3.36133 8.47656H28.6413C29.188 8.47656 29.6413 8.9299 29.6413 9.47656C29.6413 10.0232 29.2013 10.4766 28.6413 10.4766Z" fill="#353452"/>
<path d="M11.3613 10.2925C10.8147 10.2925 10.3613 9.83917 10.3613 9.2925V2.8125C10.3613 2.26583 10.8147 1.8125 11.3613 1.8125C11.908 1.8125 12.3613 2.26583 12.3613 2.8125V9.2925C12.3613 9.83917 11.908 10.2925 11.3613 10.2925Z" fill="#353452"/>
<path d="M20.6387 9.6925C20.092 9.6925 19.6387 9.23917 19.6387 8.6925V2.8125C19.6387 2.26583 20.092 1.8125 20.6387 1.8125C21.1853 1.8125 21.6387 2.26583 21.6387 2.8125V8.6925C21.6387 9.2525 21.1987 9.6925 20.6387 9.6925Z" fill="#353452"/>
<path d="M14.7867 24.1616C14.3067 24.1616 13.8533 24.0416 13.44 23.815C12.5333 23.2816 12 22.215 12 20.8683V17.6683C12 16.3216 12.5333 15.2416 13.4533 14.7083C14.3733 14.175 15.5733 14.255 16.7333 14.935L19.5067 16.535C20.6667 17.2016 21.3467 18.2016 21.3467 19.2683C21.3467 20.335 20.6667 21.335 19.4933 22.0016L16.72 23.6016C16.08 23.975 15.4133 24.1616 14.7867 24.1616ZM14.8 16.3616C14.6667 16.3616 14.5467 16.3883 14.4533 16.4416C14.1733 16.6016 14 17.055 14 17.6683V20.8683C14 21.4683 14.1733 21.9216 14.4533 22.095C14.7333 22.255 15.2133 22.175 15.7333 21.8683L18.5067 20.2683C19.0267 19.9616 19.3467 19.5883 19.3467 19.2683C19.3467 18.9483 19.04 18.575 18.5067 18.2683L15.7333 16.6683C15.3867 16.4683 15.0533 16.3616 14.8 16.3616Z" fill="#353452"/>
</svg>
