<svg width="32" height="32" viewBox="0 0 32 32" fill="none" xmlns="http://www.w3.org/2000/svg">
<path d="M16 2.66406C9.38267 2.66406 4 8.04673 4 14.6641C4 19.1014 6.42667 22.9734 10.0173 25.0507L7.26133 26.8881C7.02333 27.0468 6.84267 27.2778 6.74605 27.5471C6.64943 27.8163 6.64197 28.1095 6.72478 28.3833C6.80758 28.6572 6.97626 28.8971 7.20589 29.0677C7.43552 29.2383 7.71393 29.3305 8 29.3307H24C24.2862 29.3308 24.5648 29.2388 24.7946 29.0683C25.0245 28.8978 25.1934 28.6579 25.2764 28.384C25.3593 28.1101 25.352 27.8168 25.2554 27.5474C25.1588 27.278 24.9781 27.0468 24.74 26.8881L21.984 25.0507C25.5733 22.9734 28 19.1014 28 14.6641C28 8.04673 22.6173 2.66406 16 2.66406ZM16 23.9974C10.8547 23.9974 6.66667 19.8094 6.66667 14.6641C6.66667 9.51873 10.8547 5.33073 16 5.33073C21.1453 5.33073 25.3333 9.51873 25.3333 14.6641C25.3333 19.8094 21.1453 23.9974 16 23.9974Z" fill="#303548"/>
<path d="M16.0007 8C12.3247 8 9.33398 10.9907 9.33398 14.6667C9.33398 18.3427 12.3247 21.3333 16.0007 21.3333C19.6767 21.3333 22.6673 18.3427 22.6673 14.6667C22.6673 10.9907 19.6767 8 16.0007 8ZM14.0007 14.6667C13.7379 14.6666 13.4778 14.6147 13.2351 14.5141C12.9924 14.4135 12.7719 14.2661 12.5862 14.0802C12.2111 13.7049 12.0005 13.1959 12.0007 12.6653C12.0007 12.4026 12.0526 12.1425 12.1532 11.8998C12.2538 11.6571 12.4013 11.4366 12.5871 11.2508C12.9624 10.8758 13.4714 10.6652 14.002 10.6653C14.5326 10.6655 15.0414 10.8765 15.4165 11.2518C15.7915 11.6271 16.0022 12.1361 16.002 12.6667C16.0018 13.1973 15.7909 13.7061 15.4155 14.0812C15.0402 14.4562 14.5313 14.6668 14.0007 14.6667Z" fill="#303548"/>
</svg>
