<svg width="24" height="24" viewBox="0 0 24 24" fill="none" xmlns="http://www.w3.org/2000/svg">
<path d="M12 8.8V4H7.5C7.10218 4 6.72064 4.16857 6.43934 4.46863C6.15804 4.76869 6 5.17565 6 5.6V18.4C6 18.8243 6.15804 19.2313 6.43934 19.5314C6.72064 19.8314 7.10218 20 7.5 20H16.5C16.8978 20 17.2794 19.8314 17.5607 19.5314C17.842 19.2313 18 18.8243 18 18.4V10.4H13.5C13.1022 10.4 12.7206 10.2314 12.4393 9.93137C12.158 9.63131 12 9.22435 12 8.8ZM8.25 12.2C8.25 12.0409 8.30926 11.8883 8.41475 11.7757C8.52024 11.6632 8.66332 11.6 8.8125 11.6C8.96168 11.6 9.10476 11.6632 9.21025 11.7757C9.31574 11.8883 9.375 12.0409 9.375 12.2C9.375 12.3591 9.31574 12.5117 9.21025 12.6243C9.10476 12.7368 8.96168 12.8 8.8125 12.8C8.66332 12.8 8.52024 12.7368 8.41475 12.6243C8.30926 12.5117 8.25 12.3591 8.25 12.2ZM8.25 14.6C8.25 14.4409 8.30926 14.2883 8.41475 14.1757C8.52024 14.0632 8.66332 14 8.8125 14C8.96168 14 9.10476 14.0632 9.21025 14.1757C9.31574 14.2883 9.375 14.4409 9.375 14.6C9.375 14.7591 9.31574 14.9117 9.21025 15.0243C9.10476 15.1368 8.96168 15.2 8.8125 15.2C8.66332 15.2 8.52024 15.1368 8.41475 15.0243C8.30926 14.9117 8.25 14.7591 8.25 14.6ZM8.25 17C8.25 16.8409 8.30926 16.6883 8.41475 16.5757C8.52024 16.4632 8.66332 16.4 8.8125 16.4C8.96168 16.4 9.10476 16.4632 9.21025 16.5757C9.31574 16.6883 9.375 16.8409 9.375 17C9.375 17.1591 9.31574 17.3117 9.21025 17.4243C9.10476 17.5368 8.96168 17.6 8.8125 17.6C8.66332 17.6 8.52024 17.5368 8.41475 17.4243C8.30926 17.3117 8.25 17.1591 8.25 17ZM10.5 12.2C10.5 12.0409 10.5593 11.8883 10.6648 11.7757C10.7702 11.6632 10.9133 11.6 11.0625 11.6H15.1875C15.3367 11.6 15.4798 11.6632 15.5852 11.7757C15.6907 11.8883 15.75 12.0409 15.75 12.2C15.75 12.3591 15.6907 12.5117 15.5852 12.6243C15.4798 12.7368 15.3367 12.8 15.1875 12.8H11.0625C10.9133 12.8 10.7702 12.7368 10.6648 12.6243C10.5593 12.5117 10.5 12.3591 10.5 12.2ZM10.5 14.6C10.5 14.4409 10.5593 14.2883 10.6648 14.1757C10.7702 14.0632 10.9133 14 11.0625 14H15.1875C15.3367 14 15.4798 14.0632 15.5852 14.1757C15.6907 14.2883 15.75 14.4409 15.75 14.6C15.75 14.7591 15.6907 14.9117 15.5852 15.0243C15.4798 15.1368 15.3367 15.2 15.1875 15.2H11.0625C10.9133 15.2 10.7702 15.1368 10.6648 15.0243C10.5593 14.9117 10.5 14.7591 10.5 14.6ZM10.5 17C10.5 16.8409 10.5593 16.6883 10.6648 16.5757C10.7702 16.4632 10.9133 16.4 11.0625 16.4H15.1875C15.3367 16.4 15.4798 16.4632 15.5852 16.5757C15.6907 16.6883 15.75 16.8409 15.75 17C15.75 17.1591 15.6907 17.3117 15.5852 17.4243C15.4798 17.5368 15.3367 17.6 15.1875 17.6H11.0625C10.9133 17.6 10.7702 17.5368 10.6648 17.4243C10.5593 17.3117 10.5 17.1591 10.5 17Z" fill="white"/>
<path d="M13.127 8.79844V4.39844L17.627 9.19844H13.502C13.4025 9.19844 13.3071 9.15629 13.2368 9.08128C13.1665 9.00627 13.127 8.90452 13.127 8.79844Z" fill="white"/>
</svg>
