<svg width="24" height="24" viewBox="0 0 24 24" fill="none" xmlns="http://www.w3.org/2000/svg">
<path d="M4.15004 17.8453L4.13337 17.862C3.90837 17.3703 3.76671 16.812 3.70837 16.1953C3.76671 16.8036 3.92504 17.3536 4.15004 17.8453Z" fill="white"/>
<path d="M9.50006 10.6464C10.5954 10.6464 11.4834 9.75839 11.4834 8.66302C11.4834 7.56766 10.5954 6.67969 9.50006 6.67969C8.40469 6.67969 7.51672 7.56766 7.51672 8.66302C7.51672 9.75839 8.40469 10.6464 9.50006 10.6464Z" fill="white"/>
<path d="M15.4916 3.66406H8.50829C5.47496 3.66406 3.66663 5.4724 3.66663 8.50573V15.4891C3.66663 16.3974 3.82496 17.1891 4.13329 17.8557C4.84996 19.4391 6.38329 20.3307 8.50829 20.3307H15.4916C18.525 20.3307 20.3333 18.5224 20.3333 15.4891V13.5807V8.50573C20.3333 5.4724 18.525 3.66406 15.4916 3.66406ZM18.975 12.4141C18.325 11.8557 17.275 11.8557 16.625 12.4141L13.1583 15.3891C12.5083 15.9474 11.4583 15.9474 10.8083 15.3891L10.525 15.1557C9.93329 14.6391 8.99163 14.5891 8.32496 15.0391L5.20829 17.1307C5.02496 16.6641 4.91663 16.1224 4.91663 15.4891V8.50573C4.91663 6.15573 6.15829 4.91406 8.50829 4.91406H15.4916C17.8416 4.91406 19.0833 6.15573 19.0833 8.50573V12.5057L18.975 12.4141Z" fill="white"/>
</svg>
