<svg width="24" height="24" viewBox="0 0 24 24" fill="none" xmlns="http://www.w3.org/2000/svg">
<path d="M10.1387 13.5312C9.54645 13.5312 9.07422 14.0113 9.07422 14.6033C9.07422 15.1953 9.55446 15.6673 10.1387 15.6673C10.731 15.6673 11.2113 15.1873 11.2113 14.6033C11.2113 14.0113 10.731 13.5312 10.1387 13.5312Z" fill="white"/>
<path d="M15.3577 4H8.65032C5.73687 4 4 5.736 4 8.648V15.344C4 18.264 5.73687 20 8.65032 20H15.3497C18.2631 20 20 18.264 20 15.352V8.648C20.008 5.736 18.2711 4 15.3577 4ZM16.102 10.24C16.102 10.728 15.8939 11.16 15.5418 11.416C15.3176 11.576 15.0455 11.664 14.7574 11.664C14.5893 11.664 14.4212 11.632 14.2451 11.576L12.4122 10.968C12.4042 10.968 12.3882 10.96 12.3802 10.952V14.6C12.3802 15.832 11.3717 16.84 10.1391 16.84C8.90644 16.84 7.89794 15.832 7.89794 14.6C7.89794 13.368 8.90644 12.36 10.1391 12.36C10.5313 12.36 10.8914 12.472 11.2116 12.64V9.304V8.816C11.2116 8.328 11.4197 7.896 11.7719 7.64C12.1321 7.384 12.6043 7.32 13.0685 7.48L14.9014 8.088C15.5898 8.32 16.11 9.04 16.11 9.76V10.24H16.102Z" fill="white"/>
</svg>
