<svg width="24" height="24" viewBox="0 0 24 24" fill="none" xmlns="http://www.w3.org/2000/svg">
<path d="M18.9328 16.4601C18.7834 16.46 18.6358 16.4273 18.4993 16.364C18.4676 16.3493 18.4373 16.3314 18.4089 16.3104L15.6513 14.2857C15.5116 14.1831 15.3976 14.047 15.319 13.889C15.2403 13.7309 15.1992 13.5555 15.1992 13.3775V10.6206C15.1993 10.4425 15.2405 10.267 15.3192 10.109C15.398 9.95092 15.5121 9.8149 15.6519 9.71237L18.4095 7.6876C18.4379 7.66669 18.4682 7.64875 18.4999 7.63406C18.6627 7.55906 18.8409 7.52767 19.0183 7.54274C19.1957 7.55782 19.3667 7.61888 19.5157 7.72038C19.6646 7.82187 19.7869 7.96057 19.8712 8.12383C19.9555 8.2871 19.9993 8.46975 19.9986 8.65516V15.3455C19.9986 15.6402 19.8862 15.9229 19.6861 16.1314C19.486 16.3398 19.2146 16.4569 18.9316 16.4569L18.9328 16.4601Z" fill="white"/>
<path d="M12.401 17H6.26653C5.66561 16.9993 5.08949 16.7504 4.66458 16.3078C4.23966 15.8652 4.00066 15.2651 4 14.6392V9.36083C4.00066 8.73491 4.23966 8.13482 4.66458 7.69223C5.08949 7.24963 5.66561 7.00068 6.26653 7H12.4165C13.0133 7.00068 13.5855 7.24793 14.0075 7.6875C14.4295 8.12707 14.6669 8.72306 14.6676 9.34471V14.6392C14.6669 15.2651 14.4279 15.8652 14.003 16.3078C13.5781 16.7504 13.002 16.9993 12.401 17V17Z" fill="white"/>
</svg>
