<svg width="24" height="24" viewBox="0 0 24 24" fill="none" xmlns="http://www.w3.org/2000/svg">
<path d="M15.5382 18.4643H5.53842V8.46452C5.53842 8.04146 5.19228 7.69531 4.76921 7.69531C4.34615 7.69531 4 8.04146 4 8.46452V18.4643C4 19.3104 4.69229 20.0027 5.53842 20.0027H15.5382C15.9612 20.0027 16.3074 19.6566 16.3074 19.2335C16.3074 18.8104 15.9612 18.4643 15.5382 18.4643Z" fill="white"/>
<path d="M18.4612 4H9.23068C8.38455 4 7.69226 4.69229 7.69226 5.53842V14.769C7.69226 15.6151 8.38455 16.3074 9.23068 16.3074H18.4612C19.3074 16.3074 19.9996 15.6151 19.9996 14.769V5.53842C19.9996 4.69229 19.3074 4 18.4612 4ZM13.8536 13.9997C13.3998 13.9997 13.046 13.6382 13.046 13.1921C13.046 12.7382 13.4075 12.3921 13.8536 12.3921C14.3075 12.3921 14.6536 12.7382 14.6536 13.1921C14.6459 13.6382 14.3075 13.9997 13.8536 13.9997V13.9997ZM15.7767 9.25371C15.2921 9.96908 14.8305 10.1845 14.5767 10.646C14.5152 10.7537 14.4767 10.846 14.4536 11.0229C14.4152 11.3229 14.1767 11.546 13.8767 11.546H13.8536C13.5152 11.546 13.246 11.2537 13.2767 10.9152C13.2998 10.6998 13.346 10.4768 13.469 10.2691C13.7844 9.70755 14.3767 9.37679 14.7229 8.88449C15.0921 8.36143 14.8844 7.39222 13.846 7.39222C13.3767 7.39222 13.069 7.63837 12.8767 7.93067C12.7306 8.15374 12.4383 8.23066 12.1921 8.12297C11.8691 7.98452 11.7306 7.58453 11.9306 7.29992C12.3229 6.7307 12.9767 6.30763 13.8383 6.30763C14.7844 6.30763 15.4382 6.73839 15.769 7.27684C16.0536 7.74606 16.2151 8.60758 15.7767 9.25371Z" fill="white"/>
</svg>
