<svg width="24" height="24" viewBox="0 0 24 24" fill="none" xmlns="http://www.w3.org/2000/svg">
<path fill-rule="evenodd" clip-rule="evenodd" d="M6.25074 6.26168C6.41134 6.10099 6.62913 6.01072 6.85622 6.01072C7.08331 6.01072 7.3011 6.10099 7.4617 6.26168L11.9946 10.7985L16.5276 6.26168C16.6066 6.17981 16.7011 6.11451 16.8056 6.06959C16.9101 6.02467 17.0224 6.00102 17.1362 6.00003C17.2499 5.99904 17.3626 6.02073 17.4679 6.06383C17.5731 6.10693 17.6688 6.17057 17.7492 6.25105C17.8296 6.33153 17.8932 6.42723 17.9362 6.53257C17.9793 6.63791 18.001 6.75078 18 6.86459C17.999 6.9784 17.9754 7.09088 17.9305 7.19545C17.8856 7.30003 17.8203 7.39461 17.7386 7.47368L13.2056 12.0105L17.7386 16.5474C17.8946 16.709 17.9809 16.9256 17.9789 17.1503C17.977 17.375 17.8869 17.59 17.7281 17.7489C17.5693 17.9079 17.3545 17.998 17.13 18C16.9054 18.0019 16.6891 17.9155 16.5276 17.7594L11.9946 13.2225L7.4617 17.7594C7.30018 17.9155 7.08385 18.0019 6.8593 18C6.63476 17.998 6.41996 17.9079 6.26118 17.7489C6.10239 17.59 6.01232 17.375 6.01037 17.1503C6.00842 16.9256 6.09474 16.709 6.25074 16.5474L10.7837 12.0105L6.25074 7.47368C6.09019 7.31294 6 7.09496 6 6.86768C6 6.64039 6.09019 6.42241 6.25074 6.26168Z" fill="#141518"/>
</svg>
