<svg width="24" height="24" viewBox="0 0 24 24" fill="none" xmlns="http://www.w3.org/2000/svg">
<path d="M9.57043 18.8172C9.38043 18.8172 9.19043 18.7472 9.04043 18.5972L2.97043 12.5272C2.68043 12.2372 2.68043 11.7572 2.97043 11.4672L9.04043 5.39719C9.33043 5.10719 9.81043 5.10719 10.1004 5.39719C10.3904 5.68719 10.3904 6.16719 10.1004 6.45719L4.56043 11.9972L10.1004 17.5372C10.3904 17.8272 10.3904 18.3072 10.1004 18.5972C9.96043 18.7472 9.76043 18.8172 9.57043 18.8172Z" fill="#292D32"/>
<path d="M20.4999 12.75H3.66992C3.25992 12.75 2.91992 12.41 2.91992 12C2.91992 11.59 3.25992 11.25 3.66992 11.25H20.4999C20.9099 11.25 21.2499 11.59 21.2499 12C21.2499 12.41 20.9099 12.75 20.4999 12.75Z" fill="#292D32"/>
</svg>
