<svg width="16" height="17" viewBox="0 0 16 17" fill="none" xmlns="http://www.w3.org/2000/svg">
<g clip-path="url(#clip0_3732_12306)">
<path d="M4.62031 7.24907C4.4477 7.07647 4.31078 6.87155 4.21737 6.64603C4.12395 6.42051 4.07587 6.17879 4.07587 5.93469C4.07587 5.69059 4.12395 5.44887 4.21737 5.22335C4.31078 4.99783 4.4477 4.79291 4.62031 4.62031C4.79291 4.4477 4.99783 4.31078 5.22335 4.21737C5.44887 4.12395 5.69059 4.07587 5.93469 4.07587C6.17879 4.07587 6.42051 4.12395 6.64603 4.21737C6.87155 4.31078 7.07647 4.4477 7.24907 4.62031L11.3797 8.75092C11.7283 9.09952 11.9241 9.57232 11.9241 10.0653C11.9241 10.5583 11.7283 11.0311 11.3797 11.3797C11.2071 11.5523 11.0022 11.6892 10.7766 11.7826C10.5511 11.876 10.3094 11.9241 10.0653 11.9241C9.57232 11.9241 9.09952 11.7283 8.75092 11.3797L6.59162 9.22039C6.52997 9.15873 6.48106 9.08554 6.4477 9.00499C6.41433 8.92444 6.39716 8.83811 6.39716 8.75092C6.39716 8.66374 6.41433 8.5774 6.4477 8.49685C6.48106 8.4163 6.52997 8.34311 6.59162 8.28146C6.65327 8.21981 6.72646 8.17091 6.80701 8.13754C6.88756 8.10418 6.97389 8.08701 7.06108 8.08701C7.14827 8.08701 7.2346 8.10418 7.31515 8.13754C7.3957 8.17091 7.46889 8.21981 7.53054 8.28146L9.50185 10.2533C9.6015 10.353 9.73665 10.4089 9.87758 10.4089C10.0185 10.4089 10.1537 10.353 10.2533 10.2533C10.353 10.1537 10.4089 10.0185 10.4089 9.87758C10.4089 9.73665 10.353 9.6015 10.2533 9.50185L8.28146 7.53054C7.95678 7.21177 7.51936 7.03411 7.06436 7.0362C6.60936 7.03829 6.17359 7.21997 5.85186 7.5417C5.53012 7.86344 5.34844 8.29921 5.34635 8.75421C5.34426 9.20921 5.52193 9.64663 5.84069 9.97131L8 12.1306C8.27056 12.4048 8.59269 12.6228 8.94784 12.772C9.30299 12.9212 9.68414 12.9987 10.0694 13C10.4546 13.0013 10.8362 12.9264 11.1924 12.7795C11.5485 12.6327 11.8721 12.4169 12.1445 12.1445C12.4169 11.8721 12.6327 11.5485 12.7795 11.1924C12.9264 10.8362 13.0013 10.4546 13 10.0694C12.9987 9.68414 12.9212 9.30299 12.772 8.94784C12.6228 8.59269 12.4048 8.27056 12.1306 8L8 3.86938C7.72944 3.59517 7.40731 3.37719 7.05216 3.22799C6.69701 3.07878 6.31585 3.00131 5.93064 3.00002C5.54542 2.99873 5.16375 3.07365 4.80761 3.22047C4.45147 3.36729 4.12789 3.58311 3.8555 3.8555C3.58311 4.12789 3.36729 4.45147 3.22047 4.80761C3.07365 5.16375 2.99873 5.54542 3.00002 5.93064C3.00131 6.31585 3.07878 6.69701 3.22799 7.05216C3.37719 7.40731 3.59517 7.72944 3.86938 8L4.05685 8.18746C4.1058 8.23822 4.16437 8.27872 4.22915 8.3066C4.29392 8.33447 4.36359 8.34917 4.43411 8.34983C4.50462 8.3505 4.57456 8.33711 4.63984 8.31045C4.70513 8.2838 4.76445 8.2444 4.81435 8.19458C4.86424 8.14475 4.90372 8.08548 4.93047 8.02024C4.95722 7.95499 4.9707 7.88507 4.97014 7.81456C4.96958 7.74404 4.95498 7.67435 4.92719 7.60954C4.89941 7.54473 4.85899 7.4861 4.8083 7.43707L4.62031 7.24907Z" fill="white"/>
</g>
<defs>
<clipPath id="clip0_3732_12306">
<rect width="15.6768" height="15.6768" fill="white" transform="translate(0 0.676758)"/>
</clipPath>
</defs>
</svg>
