<svg width="33" height="33" viewBox="0 0 33 33" fill="none" xmlns="http://www.w3.org/2000/svg">
<path d="M12.3311 19.1641C11.1471 19.1641 10.2031 20.1241 10.2031 21.3081C10.2031 22.4921 11.1631 23.4361 12.3311 23.4361C13.5151 23.4361 14.4751 22.4761 14.4751 21.3081C14.4751 20.1241 13.5151 19.1641 12.3311 19.1641Z" fill="#303548"/>
<path d="M22.7665 0.09375H9.3585C3.5345 0.09375 0.0625 3.56575 0.0625 9.38975V22.7818C0.0625 28.6218 3.5345 32.0938 9.3585 32.0938H22.7505C28.5745 32.0938 32.0465 28.6218 32.0465 22.7978V9.38975C32.0625 3.56575 28.5905 0.09375 22.7665 0.09375ZM24.2545 12.5738C24.2545 13.5498 23.8385 14.4138 23.1345 14.9258C22.6865 15.2458 22.1425 15.4218 21.5665 15.4218C21.2305 15.4218 20.8945 15.3578 20.5425 15.2458L16.8785 14.0297C16.8625 14.0297 16.8305 14.0137 16.8145 13.9977V21.2938C16.8145 23.7577 14.7985 25.7737 12.3345 25.7737C9.8705 25.7737 7.8545 23.7577 7.8545 21.2938C7.8545 18.8298 9.8705 16.8137 12.3345 16.8137C13.1185 16.8137 13.8385 17.0378 14.4785 17.3738V10.7018V9.72575C14.4785 8.74975 14.8945 7.88575 15.5985 7.37375C16.3185 6.86175 17.2625 6.73375 18.1905 7.05375L21.8545 8.26975C23.2305 8.73375 24.2705 10.1737 24.2705 11.6137V12.5738H24.2545Z" fill="#303548"/>
</svg>
