<svg width="12" height="12" viewBox="0 0 12 12" fill="none" xmlns="http://www.w3.org/2000/svg">
<path d="M0.153963 0.797048C0.0489881 0.867031 0 0.960342 0 1.09098C0 1.18195 0.0513209 1.35225 0.221613 1.82113L0.440893 2.43465L0.373243 2.54662C0.258937 2.73091 0.144632 2.99918 0.0793141 3.23012C-0.00233277 3.52172 -0.0256604 4.06759 0.0326587 4.37551C0.28693 5.73085 1.56062 6.7876 3.20989 7.01621C3.5598 7.06519 4.33428 7.05353 4.65387 6.99521C5.77127 6.7876 6.70437 6.2184 7.24791 5.4066C7.4182 5.15233 7.54417 4.87239 7.63282 4.54347C7.70047 4.3032 7.7168 3.70134 7.66547 3.42841C7.4112 2.08007 6.13751 1.01633 4.50457 0.79005C4.17332 0.743394 3.52015 0.741062 3.19822 0.787717C2.77366 0.848369 2.24646 1.00466 1.93153 1.16329C1.87088 1.19362 1.80789 1.21928 1.79157 1.21928C1.77524 1.21928 1.46731 1.1143 1.10806 0.986002C0.401236 0.734063 0.284598 0.710736 0.153963 0.797048ZM4.27596 2.26203C4.48591 2.36234 4.68886 2.56295 4.78917 2.77524C4.85916 2.92453 4.86382 2.94786 4.86382 3.20213C4.86382 3.45407 4.85916 3.47973 4.7915 3.62203C4.69819 3.82032 4.51624 4.01393 4.34128 4.10958C4.21998 4.17256 4.19665 4.19589 4.17565 4.27287C4.09634 4.5668 3.75109 4.65311 3.57147 4.4245C3.52248 4.36385 3.51781 4.33819 3.52714 4.18189C3.54581 3.88563 3.69277 3.67335 3.97504 3.54038C4.13833 3.4634 4.19898 3.37242 4.19898 3.1998C4.19898 2.98052 4.07068 2.85222 3.85373 2.85222C3.63678 2.85222 3.51781 2.96419 3.48749 3.1928C3.45949 3.40275 3.33352 3.52872 3.15157 3.52872C3.0256 3.52872 2.91596 3.4634 2.85764 3.35843C2.82498 3.29544 2.81798 3.24412 2.82731 3.10416C2.84364 2.86621 2.93929 2.66326 3.12124 2.48131C3.35219 2.24803 3.54347 2.17338 3.88406 2.18271C4.09167 2.18738 4.136 2.19671 4.27596 2.26203ZM4.02169 5.01936C4.122 5.08701 4.17565 5.18265 4.17565 5.30162C4.17565 5.48824 4.03569 5.62821 3.84907 5.62821C3.66245 5.62821 3.52248 5.48824 3.52248 5.30162C3.52248 5.115 3.66245 4.97503 3.84907 4.97503C3.91205 4.97503 3.9797 4.9937 4.02169 5.01936Z" fill="#303548"/>
<path d="M8.21291 5.04717C8.15925 5.22213 7.88632 5.73067 7.73469 5.93596C6.99987 6.92505 5.79383 7.56889 4.44082 7.69486L4.27286 7.70886L4.25886 7.79517C4.2332 7.9538 4.24487 8.39936 4.28219 8.59065C4.53413 9.92266 5.81482 10.9864 7.43843 11.2127C7.76968 11.2593 8.42285 11.2617 8.74478 11.215C9.16934 11.1544 9.69655 10.9981 10.0115 10.8394C10.0721 10.8091 10.1351 10.7834 10.1514 10.7834C10.1678 10.7834 10.4757 10.8884 10.8349 11.0167C11.3318 11.194 11.5161 11.25 11.6047 11.25C11.81 11.25 11.943 11.117 11.943 10.9117C11.943 10.8208 11.8917 10.6505 11.7214 10.1816L11.5021 9.57041L11.5838 9.43277C11.6911 9.25315 11.8147 8.95689 11.8754 8.73528C11.95 8.46001 11.964 7.88382 11.901 7.58756C11.775 6.98337 11.5044 6.51448 11.0122 6.04093C10.541 5.59071 9.92516 5.25945 9.216 5.07983C8.98039 5.02151 8.5115 4.95153 8.34121 4.95153C8.24323 4.95153 8.2409 4.95386 8.21291 5.04717ZM6.86223 7.46392C6.89956 7.48725 6.95321 7.54323 6.9812 7.58756C7.03019 7.66454 7.03253 7.6972 7.03253 8.10076C7.03253 8.50433 7.03019 8.53699 6.9812 8.61397C6.91589 8.72128 6.81558 8.77727 6.69427 8.77727C6.57297 8.77727 6.47266 8.72128 6.40734 8.61397C6.35836 8.53699 6.35602 8.50433 6.35602 8.10076C6.35602 7.70186 6.36069 7.6622 6.40501 7.59222C6.50765 7.43126 6.70827 7.37527 6.86223 7.46392ZM8.26189 7.46392C8.29922 7.48725 8.35287 7.54323 8.38087 7.58756C8.42985 7.66454 8.43219 7.6972 8.43219 8.10076C8.43219 8.50433 8.42985 8.53699 8.38087 8.61397C8.31555 8.72128 8.21524 8.77727 8.09393 8.77727C7.97263 8.77727 7.87232 8.72128 7.807 8.61397C7.75802 8.53699 7.75568 8.50433 7.75568 8.10076C7.75568 7.70186 7.76035 7.6622 7.80467 7.59222C7.90731 7.43126 8.10793 7.37527 8.26189 7.46392ZM9.66155 7.46392C9.69888 7.48725 9.75253 7.54323 9.78053 7.58756C9.82951 7.66454 9.83185 7.6972 9.83185 8.10076C9.83185 8.50433 9.82951 8.53699 9.78053 8.61397C9.71521 8.72128 9.6149 8.77727 9.4936 8.77727C9.37229 8.77727 9.27198 8.72128 9.20666 8.61397C9.15768 8.53699 9.15534 8.50433 9.15534 8.10076C9.15534 7.70186 9.16001 7.6622 9.20433 7.59222C9.30697 7.43126 9.50759 7.37527 9.66155 7.46392Z" fill="#303548"/>
</svg>
