<svg width="18" height="18" viewBox="0 0 18 18" fill="none" xmlns="http://www.w3.org/2000/svg">
<path d="M9.00008 0.664062C4.40841 0.664062 0.666748 4.40573 0.666748 8.9974C0.666748 13.5891 4.40841 17.3307 9.00008 17.3307C13.5917 17.3307 17.3334 13.5891 17.3334 8.9974C17.3334 4.40573 13.5917 0.664062 9.00008 0.664062ZM12.9834 7.08073L8.25841 11.8057C8.14175 11.9224 7.98342 11.9891 7.81675 11.9891C7.65008 11.9891 7.49175 11.9224 7.37508 11.8057L5.01675 9.4474C4.77508 9.20573 4.77508 8.80573 5.01675 8.56406C5.25841 8.3224 5.65841 8.3224 5.90008 8.56406L7.81675 10.4807L12.1001 6.1974C12.3417 5.95573 12.7417 5.95573 12.9834 6.1974C13.2251 6.43906 13.2251 6.83073 12.9834 7.08073Z" fill="#4E6AFE"/>
</svg>
