<svg width="40" height="40" viewBox="0 0 40 40" fill="none" xmlns="http://www.w3.org/2000/svg">
<path d="M15.125 36.25H24.875C33 36.25 36.25 33 36.25 24.875V15.125C36.25 7 33 3.75 24.875 3.75H15.125C7 3.75 3.75 7 3.75 15.125V24.875C3.75 33 7 36.25 15.125 36.25Z" fill="white"/>
<path d="M22 23.9982C22 25.7648 21.2333 27.3648 20 28.4648C18.9333 29.4315 17.5333 29.9982 16 29.9982C12.6833 29.9982 10 27.3148 10 23.9982C10 21.2315 11.8834 18.8982 14.4167 18.2148C15.1 19.9482 16.5833 21.2982 18.4166 21.7982C18.9166 21.9315 19.45 22.0148 20 22.0148C20.55 22.0148 21.0834 21.9482 21.5834 21.7982C21.85 22.4648 22 23.2148 22 23.9982Z" fill="#FF6969" stroke="#FF6969" stroke-width="1.5" stroke-linecap="round" stroke-linejoin="round"/>
<path d="M25.9999 16C25.9999 16.7833 25.8499 17.5333 25.5833 18.2167C24.8999 19.95 23.4166 21.3 21.5833 21.8C21.0833 21.9333 20.55 22.0167 20 22.0167C19.45 22.0167 18.9166 21.95 18.4166 21.8C16.5833 21.3 15.1 19.9667 14.4167 18.2167C14.15 17.5333 14 16.7833 14 16C14 12.6833 16.6833 10 20 10C23.3166 10 25.9999 12.6833 25.9999 16Z" fill="#FFCB40" stroke="#FFCB40" stroke-width="1.5" stroke-linecap="round" stroke-linejoin="round"/>
<path d="M30 23.9992C30 27.3159 27.3167 29.9992 24 29.9992C22.4667 29.9992 21.0667 29.4159 20 28.4659C21.2333 27.3826 22 25.7826 22 23.9992C22 23.2159 21.85 22.4659 21.5834 21.7826C23.4167 21.2826 24.9 19.9492 25.5833 18.1992C28.1166 18.8992 30 21.2326 30 23.9992Z" fill="#8BF3FE" stroke="#8BF3FE" stroke-width="1.5" stroke-linecap="round" stroke-linejoin="round"/>
</svg>
