<svg width="64" height="64" viewBox="0 0 64 64" fill="none" xmlns="http://www.w3.org/2000/svg">
<path d="M58.0266 42.4559L40.9599 11.7359C38.6666 7.6026 35.4933 5.33594 31.9999 5.33594C28.5066 5.33594 25.3333 7.6026 23.0399 11.7359L5.97327 42.4559C3.81327 46.3759 3.57327 50.1359 5.30661 53.0959C7.03994 56.0559 10.4533 57.6826 14.9333 57.6826H49.0666C53.5466 57.6826 56.9599 56.0559 58.6933 53.0959C60.4266 50.1359 60.1866 46.3493 58.0266 42.4559ZM29.9999 24.0026C29.9999 22.9093 30.9066 22.0026 31.9999 22.0026C33.0933 22.0026 33.9999 22.9093 33.9999 24.0026V37.3359C33.9999 38.4293 33.0933 39.3359 31.9999 39.3359C30.9066 39.3359 29.9999 38.4293 29.9999 37.3359V24.0026ZM33.8933 47.2293C33.7599 47.3359 33.6266 47.4426 33.4933 47.5493C33.3333 47.6559 33.1733 47.7359 33.0133 47.7893C32.8533 47.8693 32.6933 47.9226 32.5066 47.9493C32.3466 47.9759 32.1599 48.0026 31.9999 48.0026C31.8399 48.0026 31.6533 47.9759 31.4666 47.9493C31.3066 47.9226 31.1466 47.8693 30.9866 47.7893C30.8266 47.7359 30.6666 47.6559 30.5066 47.5493C30.3733 47.4426 30.2399 47.3359 30.1066 47.2293C29.6266 46.7226 29.3333 46.0293 29.3333 45.3359C29.3333 44.6426 29.6266 43.9493 30.1066 43.4426C30.2399 43.3359 30.3733 43.2293 30.5066 43.1226C30.6666 43.0159 30.8266 42.9359 30.9866 42.8826C31.1466 42.8026 31.3066 42.7493 31.4666 42.7226C31.8133 42.6426 32.1866 42.6426 32.5066 42.7226C32.6933 42.7493 32.8533 42.8026 33.0133 42.8826C33.1733 42.9359 33.3333 43.0159 33.4933 43.1226C33.6266 43.2293 33.7599 43.3359 33.8933 43.4426C34.3733 43.9493 34.6666 44.6426 34.6666 45.3359C34.6666 46.0293 34.3733 46.7226 33.8933 47.2293Z" fill="#FF4B55"/>
</svg>
