<svg width="32" height="32" viewBox="0 0 32 32" fill="none" xmlns="http://www.w3.org/2000/svg">
<rect width="32" height="32" rx="8" fill="url(#paint0_linear_4425_33306)"/>
<path d="M25.0697 9.23C23.4597 9.07 21.8497 8.95 20.2297 8.86V8.85L20.0097 7.55C19.8597 6.63 19.6397 5.25 17.2997 5.25H14.6797C12.3497 5.25 12.1297 6.57 11.9697 7.54L11.7597 8.82C10.8297 8.88 9.89967 8.94 8.96967 9.03L6.92967 9.23C6.50967 9.27 6.20967 9.64 6.24967 10.05C6.28967 10.46 6.64967 10.76 7.06967 10.72L9.10967 10.52C14.3497 10 19.6297 10.2 24.9297 10.73C24.9597 10.73 24.9797 10.73 25.0097 10.73C25.3897 10.73 25.7197 10.44 25.7597 10.05C25.7897 9.64 25.4897 9.27 25.0697 9.23Z" fill="white"/>
<path d="M23.2297 12.14C22.9897 11.89 22.6597 11.75 22.3197 11.75H9.67975C9.33975 11.75 8.99975 11.89 8.76975 12.14C8.53975 12.39 8.40975 12.73 8.42975 13.08L9.04975 23.34C9.15975 24.86 9.29975 26.76 12.7897 26.76H19.2097C22.6997 26.76 22.8398 24.87 22.9497 23.34L23.5697 13.09C23.5897 12.73 23.4597 12.39 23.2297 12.14ZM17.6597 21.75H14.3297C13.9197 21.75 13.5797 21.41 13.5797 21C13.5797 20.59 13.9197 20.25 14.3297 20.25H17.6597C18.0697 20.25 18.4097 20.59 18.4097 21C18.4097 21.41 18.0697 21.75 17.6597 21.75ZM18.4997 17.75H13.4997C13.0897 17.75 12.7497 17.41 12.7497 17C12.7497 16.59 13.0897 16.25 13.4997 16.25H18.4997C18.9097 16.25 19.2497 16.59 19.2497 17C19.2497 17.41 18.9097 17.75 18.4997 17.75Z" fill="white"/>
<defs>
<linearGradient id="paint0_linear_4425_33306" x1="-7.296" y1="-4.832" x2="44.8" y2="41.824" gradientUnits="userSpaceOnUse">
<stop stop-color="#D51AFF"/>
<stop offset="0.502" stop-color="#4E6AFE"/>
<stop offset="1" stop-color="#8BF3FE"/>
</linearGradient>
</defs>
</svg>
