<svg width="26" height="33" viewBox="0 0 26 33" fill="none" xmlns="http://www.w3.org/2000/svg">
<path d="M12.8625 9.69375V0.09375H3.2625C2.41381 0.09375 1.59987 0.430892 0.999758 1.03101C0.399642 1.63112 0.0625 2.44506 0.0625 3.29375V28.8938C0.0625 29.7424 0.399642 30.5564 0.999758 31.1565C1.59987 31.7566 2.41381 32.0938 3.2625 32.0938H22.4625C23.3112 32.0938 24.1251 31.7566 24.7252 31.1565C25.3254 30.5564 25.6625 29.7424 25.6625 28.8938V12.8938H16.0625C15.2138 12.8938 14.3999 12.5566 13.7998 11.9565C13.1996 11.3564 12.8625 10.5424 12.8625 9.69375ZM4.8625 16.4937C4.8625 16.1755 4.98893 15.8703 5.21397 15.6452C5.43902 15.4202 5.74424 15.2937 6.0625 15.2937C6.38076 15.2937 6.68598 15.4202 6.91103 15.6452C7.13607 15.8703 7.2625 16.1755 7.2625 16.4937C7.2625 16.812 7.13607 17.1172 6.91103 17.3423C6.68598 17.5673 6.38076 17.6938 6.0625 17.6938C5.74424 17.6938 5.43902 17.5673 5.21397 17.3423C4.98893 17.1172 4.8625 16.812 4.8625 16.4937ZM4.8625 21.2938C4.8625 20.9755 4.98893 20.6703 5.21397 20.4452C5.43902 20.2202 5.74424 20.0938 6.0625 20.0938C6.38076 20.0938 6.68598 20.2202 6.91103 20.4452C7.13607 20.6703 7.2625 20.9755 7.2625 21.2938C7.2625 21.612 7.13607 21.9172 6.91103 22.1423C6.68598 22.3673 6.38076 22.4937 6.0625 22.4937C5.74424 22.4937 5.43902 22.3673 5.21397 22.1423C4.98893 21.9172 4.8625 21.612 4.8625 21.2938ZM4.8625 26.0938C4.8625 25.7755 4.98893 25.4703 5.21397 25.2452C5.43902 25.0202 5.74424 24.8938 6.0625 24.8938C6.38076 24.8938 6.68598 25.0202 6.91103 25.2452C7.13607 25.4703 7.2625 25.7755 7.2625 26.0938C7.2625 26.412 7.13607 26.7172 6.91103 26.9423C6.68598 27.1673 6.38076 27.2938 6.0625 27.2938C5.74424 27.2938 5.43902 27.1673 5.21397 26.9423C4.98893 26.7172 4.8625 26.412 4.8625 26.0938ZM9.6625 16.4937C9.6625 16.1755 9.78893 15.8703 10.014 15.6452C10.239 15.4202 10.5442 15.2937 10.8625 15.2937H19.6625C19.9808 15.2937 20.286 15.4202 20.511 15.6452C20.7361 15.8703 20.8625 16.1755 20.8625 16.4937C20.8625 16.812 20.7361 17.1172 20.511 17.3423C20.286 17.5673 19.9808 17.6938 19.6625 17.6938H10.8625C10.5442 17.6938 10.239 17.5673 10.014 17.3423C9.78893 17.1172 9.6625 16.812 9.6625 16.4937ZM9.6625 21.2938C9.6625 20.9755 9.78893 20.6703 10.014 20.4452C10.239 20.2202 10.5442 20.0938 10.8625 20.0938H19.6625C19.9808 20.0938 20.286 20.2202 20.511 20.4452C20.7361 20.6703 20.8625 20.9755 20.8625 21.2938C20.8625 21.612 20.7361 21.9172 20.511 22.1423C20.286 22.3673 19.9808 22.4937 19.6625 22.4937H10.8625C10.5442 22.4937 10.239 22.3673 10.014 22.1423C9.78893 21.9172 9.6625 21.612 9.6625 21.2938ZM9.6625 26.0938C9.6625 25.7755 9.78893 25.4703 10.014 25.2452C10.239 25.0202 10.5442 24.8938 10.8625 24.8938H19.6625C19.9808 24.8938 20.286 25.0202 20.511 25.2452C20.7361 25.4703 20.8625 25.7755 20.8625 26.0938C20.8625 26.412 20.7361 26.7172 20.511 26.9423C20.286 27.1673 19.9808 27.2938 19.6625 27.2938H10.8625C10.5442 27.2938 10.239 27.1673 10.014 26.9423C9.78893 26.7172 9.6625 26.412 9.6625 26.0938Z" fill="#303548"/>
<path d="M15.2656 9.69062V0.890625L24.8656 10.4906H16.0656C15.8535 10.4906 15.65 10.4063 15.4999 10.2563C15.3499 10.1063 15.2656 9.9028 15.2656 9.69062Z" fill="#303548"/>
</svg>
