<svg width="24" height="24" viewBox="0 0 24 24" fill="none" xmlns="http://www.w3.org/2000/svg">
<path opacity="0.1" d="M14.9434 0H9.0566C4.05478 0 0 4.05478 0 9.0566V14.9434C0 19.9452 4.05478 24 9.0566 24H14.9434C19.9452 24 24 19.9452 24 14.9434V9.0566C24 4.05478 19.9452 0 14.9434 0Z" fill="#F4FAFF"/>
<path d="M16.6667 6.16699C16.8214 6.16699 16.9697 6.22845 17.0791 6.33785C17.1885 6.44724 17.25 6.59562 17.25 6.75033V8.11355C17.25 8.64394 17.0393 9.15262 16.6643 9.52768L12.5118 13.6806C12.1844 14.008 12.0002 14.4519 11.9996 14.9149C11.9982 15.881 12.7802 16.6652 13.7462 16.6665L13.898 16.6668C14.2667 16.6673 14.6204 16.521 14.8812 16.2603C15.7553 15.3862 17.25 16.0141 17.25 17.2503C17.25 17.405 17.1885 17.5534 17.0791 17.6628C16.9697 17.7722 16.8214 17.8337 16.6667 17.8337H7.33333C7.17862 17.8337 7.03025 17.7722 6.92085 17.6628C6.81146 17.5534 6.75 17.405 6.75 17.2503V6.75033C6.75 6.59562 6.81146 6.44724 6.92085 6.33785C7.03025 6.22845 7.17862 6.16699 7.33333 6.16699H16.6667ZM17.2914 10.5507C17.5192 10.323 17.8885 10.323 18.1162 10.5507C18.344 10.7785 18.344 11.1478 18.1162 11.3756L14.1628 15.329C14.0531 15.4387 13.904 15.5002 13.7489 15.5C13.4271 15.4995 13.1659 15.2382 13.1663 14.9164C13.1665 14.7621 13.2279 14.6142 13.337 14.5051L17.2914 10.5507ZM12 12.5837C12 12.2615 11.7388 12.0003 11.4167 12.0003H9.66667C9.3445 12.0003 9.08333 12.2615 9.08333 12.5837C9.08333 12.9058 9.3445 13.167 9.66667 13.167H11.4167C11.7388 13.167 12 12.9058 12 12.5837ZM13.75 10.2503C13.75 9.92816 13.4888 9.66699 13.1667 9.66699H9.66667C9.3445 9.66699 9.08333 9.92816 9.08333 10.2503C9.08333 10.5725 9.3445 10.8337 9.66667 10.8337H13.1667C13.4888 10.8337 13.75 10.5725 13.75 10.2503Z" fill="#C7C9CE"/>
</svg>
