<svg width="103" height="102" viewBox="0 0 103 102" fill="none" xmlns="http://www.w3.org/2000/svg">
<circle opacity="0.2" cx="51.625" cy="51" r="51" fill="#4E6AFE"/>
<circle cx="51.6249" cy="51.0019" r="35.8378" fill="url(#paint0_linear_8381_31978)"/>
<path d="M50.5354 30.235C45.9774 30.8137 42.0773 33.7308 40.27 37.9163C39.184 40.437 38.962 43.37 39.6437 46.0572C40.1431 47.9835 40.7773 49.228 42.4261 51.4397C43.3218 52.6525 44.0511 54.333 44.4158 56.0294C44.5584 56.7269 44.5901 57.1946 44.6377 59.6044C44.6694 61.1264 44.7249 62.4898 44.7725 62.6167C45.0737 63.5045 45.7713 64.3527 46.5005 64.7173C46.7225 64.8283 46.9127 64.9234 46.9365 64.9393C46.9603 64.9551 46.992 65.4704 47.0158 66.0887C47.0554 67.143 47.0713 67.246 47.3091 67.7454C47.753 68.6967 48.5457 69.3704 49.5366 69.6479C50.2579 69.8461 53.6903 69.8619 54.4275 69.6637C55.4105 69.4101 56.2111 68.7521 56.6708 67.8168C56.9562 67.2381 56.9641 67.1985 57.0038 66.0966C57.0276 65.4783 57.0593 64.9551 57.083 64.9393C57.1068 64.9234 57.305 64.8283 57.519 64.7173C58.2483 64.3527 58.9459 63.5045 59.2471 62.6167C59.2947 62.4898 59.3502 61.1106 59.3819 59.5648C59.4374 57.1312 59.4691 56.6477 59.6117 55.9818C59.9764 54.3092 60.7136 52.6366 61.5935 51.4397C63.3771 49.0457 64.0984 47.5475 64.5502 45.2804C64.8039 43.9962 64.8039 41.8401 64.5502 40.5559C63.9716 37.6547 62.5606 35.2132 60.3727 33.3028C58.716 31.8521 56.6312 30.8375 54.4037 30.3856C53.5159 30.2112 51.3994 30.1241 50.5354 30.235ZM54.0787 32.6924C58.7239 33.6436 62.1563 37.615 62.4417 42.3871C62.5606 44.2975 62.0295 46.5012 61.0545 48.142C60.888 48.4274 60.4203 49.1091 60.0239 49.6482C58.3514 51.9232 57.4239 54.2062 57.1227 56.8062L57.0751 57.266H52.0098H46.9445L46.8969 56.8062C46.8018 56.0294 46.5402 54.8165 46.2944 54.0397C45.7633 52.3909 45.1371 51.2018 43.9877 49.6402C42.7115 47.9042 42.1249 46.6914 41.7761 45.0584C41.5383 43.9407 41.5224 42.0303 41.7364 40.9761C42.6718 36.4418 46.2786 33.1125 50.8683 32.5338C51.661 32.4308 53.1671 32.5101 54.0787 32.6924ZM57.0038 60.8252C57.0038 62.0697 57.0038 62.0935 56.7977 62.3392C56.3775 62.8307 56.5361 62.8148 52.0098 62.8148C47.4835 62.8148 47.642 62.8307 47.2219 62.3392C47.0158 62.0935 47.0158 62.0697 47.0158 60.8252V59.5648H52.0098H57.0038V60.8252ZM54.705 65.8509C54.705 66.7546 54.5781 67.0558 54.0708 67.3174C53.7379 67.4838 53.6269 67.4918 52.0098 67.4918C50.3927 67.4918 50.2817 67.4838 49.9488 67.3094C49.4415 67.0558 49.3146 66.7546 49.3146 65.8509V65.1137H52.0098H54.705V65.8509Z" fill="white"/>
<path d="M51.1424 36.4597C50.5082 36.6261 50.0009 36.9353 49.5174 37.4426C49.0338 37.9499 48.8039 38.3463 48.6375 39.0042C48.3917 39.9475 48.5741 40.55 49.2082 40.8591C49.6363 41.0652 50.0009 41.0256 50.3735 40.7402C50.6668 40.5183 50.7857 40.2725 50.857 39.7177C50.9918 38.6951 52.1967 38.3067 52.8625 39.0597C52.9973 39.2183 53.1241 39.4719 53.1558 39.6542C53.2351 40.1299 53.029 40.4866 52.3473 41.0098C51.6894 41.5171 51.4515 41.7866 51.182 42.3256C50.7778 43.15 50.6906 44.3708 50.9997 44.9732C51.4278 45.8214 52.5851 45.8214 53.0211 44.9732C53.1558 44.6958 53.1955 44.4897 53.1955 44.0141C53.1955 43.3006 53.2668 43.1817 54.012 42.6506C55.7876 41.3823 55.9778 38.8457 54.4004 37.3475C53.4729 36.4597 52.3077 36.1426 51.1424 36.4597Z" fill="white"/>
<path d="M51.4113 48.1414C51.0546 48.3555 50.8644 48.6884 50.8644 49.1164C50.8564 49.7506 51.3558 50.25 52.0058 50.25C52.418 50.25 52.6955 50.0994 52.9888 49.703C53.3455 49.2353 53.1156 48.3951 52.5607 48.1097C52.2436 47.9433 51.6967 47.9591 51.4113 48.1414Z" fill="white"/>
<path d="M34.0517 35.5051C33.5048 35.7508 33.1956 36.3929 33.37 36.924C33.5127 37.3521 33.8377 37.5819 34.7652 37.9307C36.2792 38.4935 36.6121 38.5728 36.9451 38.4856C37.5396 38.3271 37.9359 37.6137 37.7457 37.035C37.5872 36.5673 37.278 36.3612 36.0255 35.9014C34.678 35.41 34.3847 35.3465 34.0517 35.5051Z" fill="white"/>
<path d="M68.6554 35.6666C66.6975 36.3562 66.4517 36.5068 66.2694 37.0379C66.1505 37.4105 66.2377 37.8069 66.5231 38.1319C66.8798 38.5361 67.2365 38.6075 67.8786 38.4093C69.0121 38.0605 70.1298 37.6008 70.3359 37.4026C70.5975 37.1568 70.7481 36.6733 70.6768 36.3404C70.5738 35.8885 69.9872 35.3971 69.5512 35.3971C69.4719 35.3971 69.0676 35.5239 68.6554 35.6666Z" fill="white"/>
<path d="M33.0782 41.8006C32.6026 41.9195 32.1904 42.4586 32.1904 42.958C32.1904 43.3385 32.4758 43.7586 32.8563 43.9488C33.1892 44.1074 33.3081 44.1153 34.6399 44.0915C36.1935 44.0677 36.2728 44.044 36.6612 43.5287C36.8832 43.2275 36.8753 42.633 36.6375 42.3C36.3045 41.8244 36.0984 41.7689 34.6478 41.7531C33.9264 41.7451 33.2209 41.7689 33.0782 41.8006Z" fill="white"/>
<path d="M67.9786 41.8423C67.606 41.9849 67.2652 42.3575 67.1938 42.6984C67.0908 43.2295 67.4396 43.824 67.9628 44.0222C68.0896 44.0697 68.7634 44.1094 69.5085 44.1094C71.0939 44.1094 71.3872 44.0222 71.6647 43.4673C71.95 42.9124 71.7994 42.3496 71.2366 41.9374C71.0384 41.7868 70.8878 41.7709 69.6591 41.7471C68.6207 41.7313 68.2164 41.7551 67.9786 41.8423Z" fill="white"/>
<path d="M35.0816 47.8353C33.6786 48.3506 33.4328 48.525 33.3377 49.0957C33.2743 49.4921 33.5042 50.047 33.8292 50.2531C34.2414 50.5305 34.5347 50.4988 35.803 50.0311C37.3963 49.4524 37.4835 49.4049 37.6737 48.9689C37.9274 48.3823 37.7689 47.8353 37.2378 47.5183C36.8335 47.2725 36.4609 47.328 35.0816 47.8353Z" fill="white"/>
<path d="M66.772 47.5183C66.2409 47.8353 66.0824 48.3823 66.336 48.9689C66.5263 49.4049 66.6135 49.4524 68.2068 50.0311C69.4751 50.4988 69.7684 50.5305 70.1806 50.2531C70.4977 50.047 70.7355 49.4921 70.6721 49.1037C70.577 48.5329 70.2757 48.3189 68.8647 47.8116C67.5171 47.328 67.1684 47.2725 66.772 47.5183Z" fill="white"/>
<defs>
<linearGradient id="paint0_linear_8381_31978" x1="125.379" y1="-4.18836" x2="-55.3868" y2="93.0755" gradientUnits="userSpaceOnUse">
<stop stop-color="#88EDFE"/>
<stop offset="0.489" stop-color="#625EFE"/>
<stop offset="1" stop-color="#C224FE"/>
</linearGradient>
</defs>
</svg>
