<svg width="215" height="150" viewBox="0 0 215 150" fill="none" xmlns="http://www.w3.org/2000/svg">
<g clip-path="url(#clip0_7597_22507)">
<path d="M24.2154 15.7631C24.8408 15.7631 25.3478 15.2537 25.3478 14.6252C25.3478 13.9968 24.8408 13.4873 24.2154 13.4873C23.59 13.4873 23.083 13.9968 23.083 14.6252C23.083 15.2537 23.59 15.7631 24.2154 15.7631Z" fill="white"/>
<path d="M28.5121 15.7631C29.1375 15.7631 29.6445 15.2537 29.6445 14.6252C29.6445 13.9968 29.1375 13.4873 28.5121 13.4873C27.8867 13.4873 27.3798 13.9968 27.3798 14.6252C27.3798 15.2537 27.8867 15.7631 28.5121 15.7631Z" fill="white"/>
<path d="M32.8124 15.7631C33.4378 15.7631 33.9448 15.2537 33.9448 14.6252C33.9448 13.9968 33.4378 13.4873 32.8124 13.4873C32.187 13.4873 31.6801 13.9968 31.6801 14.6252C31.6801 15.2537 32.187 15.7631 32.8124 15.7631Z" fill="white"/>
<path d="M165.261 17.2998H21.465V18.1029H165.261V17.2998Z" fill="white"/>
<path d="M165.382 0.0957031H0.0692139V106.486H165.382V0.0957031Z" fill="#E6E6E6"/>
<path d="M165.312 0H0V7.05739H165.312V0Z" fill="#6C63FF"/>
<path d="M160.793 12.752H4.93445V53.309H160.793V12.752Z" fill="white"/>
<path d="M160.891 59.9707H5.03284V100.528H160.891V59.9707Z" fill="white"/>
<path d="M141.916 21.7197H57.5654V25.4975H141.916V21.7197Z" fill="#E6E6E6"/>
<path d="M87.6404 31.1641H57.5654V34.9418H87.6404V31.1641Z" fill="#E6E6E6"/>
<path d="M117.48 40.6094H57.5654V44.3871H117.48V40.6094Z" fill="#E6E6E6"/>
<path d="M51.2207 80.0434C51.2252 82.7939 50.4284 85.4855 48.9286 87.7863C48.6144 88.2716 48.27 88.7364 47.8974 89.178C47.0239 90.2178 46.0065 91.1263 44.8761 91.8756C44.5687 92.0804 44.2527 92.272 43.9282 92.4506C42.2388 93.3896 40.3741 93.9666 38.4517 94.1454C38.0148 94.1883 37.5706 94.2087 37.1225 94.2087C35.8943 94.2099 34.6712 94.0492 33.4846 93.7307C32.8119 93.5531 32.154 93.3235 31.5166 93.0441C31.1908 92.9026 30.8723 92.7489 30.5613 92.5828C29.8131 92.188 29.1023 91.7253 28.4378 91.2006C28.1286 90.9587 27.8306 90.7038 27.5436 90.4359C25.8267 88.8371 24.533 86.8339 23.7792 84.6071C23.0255 82.3802 22.8355 79.9997 23.2263 77.6806C23.6172 75.3614 24.5766 73.1766 26.018 71.3233C27.4594 69.47 29.3373 68.0065 31.4824 67.0651C33.6274 66.1236 35.972 65.7337 38.3045 65.9306C40.6371 66.1275 42.8841 66.905 44.8427 68.1929C46.8014 69.4808 48.4101 71.2385 49.5236 73.3075C50.6371 75.3765 51.2203 77.6915 51.2207 80.0437V80.0434Z" fill="#6C63FF"/>
<path d="M37.9891 73.4287H36.2609V86.6507H37.9891V73.4287Z" fill="white"/>
<path d="M43.7044 79.1709H30.5466V80.9075H43.7044V79.1709Z" fill="white"/>
<path d="M139.803 68.9434H55.4519V72.7211H139.803V68.9434Z" fill="#E6E6E6"/>
<path d="M85.5268 78.3877H55.4519V82.1655H85.5268V78.3877Z" fill="#E6E6E6"/>
<path d="M115.367 87.832H55.4519V91.6098H115.367V87.832Z" fill="#E6E6E6"/>
<path d="M10.9321 4.67862C11.5738 4.67862 12.0939 4.15594 12.0939 3.51118C12.0939 2.86643 11.5738 2.34375 10.9321 2.34375C10.2905 2.34375 9.77039 2.86643 9.77039 3.51118C9.77039 4.15594 10.2905 4.67862 10.9321 4.67862Z" fill="white"/>
<path d="M15.3418 4.67862C15.9834 4.67862 16.5036 4.15594 16.5036 3.51118C16.5036 2.86643 15.9834 2.34375 15.3418 2.34375C14.7002 2.34375 14.1801 2.86643 14.1801 3.51118C14.1801 4.15594 14.7002 4.67862 15.3418 4.67862Z" fill="white"/>
<path d="M6.51161 4.67862C7.15324 4.67862 7.67337 4.15594 7.67337 3.51118C7.67337 2.86643 7.15324 2.34375 6.51161 2.34375C5.86999 2.34375 5.34985 2.86643 5.34985 3.51118C5.34985 4.15594 5.86999 4.67862 6.51161 4.67862Z" fill="white"/>
<path d="M45.5753 44.4207C44.3431 43.7682 43.057 43.2243 41.7313 42.7951L41.5623 40.9161L34.7067 40.1738L33.8354 42.5756L31.3751 43.5034C31.2871 43.5369 31.2033 43.5808 31.1254 43.6341H31.1228C30.9855 43.7273 30.8685 43.8477 30.7791 43.9879C30.6897 44.1281 30.6296 44.2852 30.6026 44.4495C30.5764 44.6128 30.5826 44.7798 30.6209 44.9408L30.751 45.4765C30.9381 45.5889 31.1307 45.6961 31.323 45.798L31.4453 45.8607C31.7262 46.0071 32.0123 46.1456 32.3062 46.2737C32.366 46.2998 32.431 46.3259 32.4909 46.3521C32.4961 46.3547 32.4986 46.3547 32.5038 46.3573C32.6417 46.4148 32.7795 46.4697 32.92 46.5219C33.3813 46.699 33.8519 46.8508 34.3295 46.9767C35.5487 47.3032 36.8051 47.4684 38.0669 47.468C38.5272 47.468 38.9823 47.4471 39.4323 47.4027C40.4603 47.3073 41.4752 47.1014 42.4596 46.7885C42.4621 46.7885 42.4648 46.7859 42.4673 46.7859C43.0892 46.5868 43.6966 46.3449 44.2853 46.062C44.2879 46.0594 44.2931 46.0593 44.2957 46.0567C44.4283 45.994 44.5558 45.9261 44.6859 45.8607L44.7482 45.8294C44.8522 45.7745 44.9563 45.7196 45.0603 45.6621C45.3204 45.5184 45.5753 45.3668 45.8275 45.2047C45.8977 45.1629 45.9654 45.1185 46.0356 45.0715C46.1344 45.0061 46.2332 44.9382 46.3295 44.8676C46.0876 44.7108 45.8354 44.5618 45.5753 44.4207Z" fill="#3F3D56"/>
<path d="M32.7099 45.5779L32.2808 43.6309H31.1598C31.1485 43.631 31.1372 43.6319 31.126 43.6335H31.1234C30.7205 43.6677 30.3326 43.8025 29.9947 44.0255C29.7655 44.1725 29.5617 44.3561 29.3914 44.5691C29.7242 44.8226 30.0701 45.0578 30.4265 45.2826L30.4421 45.2904C30.5434 45.3531 30.6475 45.4159 30.7516 45.476C30.9387 45.5883 31.1313 45.6955 31.3236 45.7974L31.4459 45.8601C31.7268 46.0065 32.0129 46.145 32.3068 46.2731C32.3666 46.2992 32.4316 46.3253 32.4915 46.3515C32.4967 46.3541 32.4992 46.3541 32.5044 46.3567C32.6423 46.4142 32.7801 46.4691 32.9206 46.5213L32.7099 45.5779Z" fill="#3F3D56"/>
<path d="M37.8638 38.9856C40.5907 38.9856 42.8013 36.7642 42.8013 34.0241C42.8013 31.2839 40.5907 29.0625 37.8638 29.0625C35.137 29.0625 32.9264 31.2839 32.9264 34.0241C32.9264 36.7642 35.137 38.9856 37.8638 38.9856Z" fill="#FFB8B8"/>
<path d="M34.5494 31.61C35.0605 32.2178 35.9255 32.3893 36.7234 32.4596C38.5889 32.5632 40.4598 32.4096 42.2838 32.0034C42.3969 33.1042 42.0887 34.2911 42.7339 35.1967C43.0364 34.1004 43.2123 32.9727 43.2581 31.836C43.3063 31.3483 43.2429 30.856 43.0728 30.3967C42.9819 30.1665 42.8285 29.9665 42.6302 29.8195C42.4318 29.6726 42.1963 29.5845 41.9506 29.5653C42.3184 29.2848 42.7493 29.0997 43.2052 29.0263L41.6375 28.2346L42.0401 27.8192L39.2018 27.6447L40.0238 27.1199C38.7865 26.949 37.5348 26.9093 36.2892 27.0014C35.7109 27.0442 35.1061 27.126 34.6375 27.4628C34.1689 27.7995 33.8981 28.4689 34.189 28.9633C33.8248 29.0234 33.4818 29.1759 33.1927 29.4065C32.9035 29.637 32.6778 29.9379 32.5367 30.2807C32.3584 30.8255 32.3153 31.4059 32.4113 31.9713C32.5182 32.8784 32.728 33.7703 33.0366 34.6295L34.5494 31.61Z" fill="#2F2E41"/>
<path d="M51.7507 28.6481C51.058 26.6482 49.9395 24.8243 48.4731 23.3035C47.0068 21.7826 45.228 20.6015 43.2608 19.8425C41.2935 19.0834 39.1852 18.7648 37.0828 18.9087C34.9804 19.0526 32.9346 19.6556 31.0879 20.6756C29.2413 21.6957 27.6383 23.1083 26.3907 24.8149C25.1431 26.5214 24.2811 28.4809 23.8646 30.5567C23.4481 32.6325 23.4872 34.7746 23.9792 36.8337C24.4712 38.8927 25.4042 40.8191 26.7132 42.4785C26.8432 42.6432 26.9785 42.8078 27.1164 42.9673C27.1268 42.9777 27.1346 42.9882 27.145 42.9986C27.484 43.3912 27.8443 43.7646 28.2243 44.1172C28.3232 44.2087 28.4272 44.3027 28.5312 44.3916C28.7288 44.5693 28.9317 44.7392 29.1424 44.9012C29.2256 44.9666 29.3062 45.0319 29.3921 45.0946C29.7249 45.3481 30.0708 45.5833 30.4272 45.8081L30.4428 45.8159C30.5441 45.8787 30.6483 45.9414 30.7523 46.0015C30.9395 46.1139 31.132 46.221 31.3244 46.323L31.4466 46.3857C31.7276 46.532 32.0137 46.6705 32.3075 46.7986C32.3673 46.8247 32.4324 46.8509 32.4922 46.877C32.4974 46.8796 32.4999 46.8796 32.5051 46.8822C32.643 46.9397 32.7808 46.9946 32.9213 47.0469C33.3826 47.2239 33.8532 47.3757 34.3309 47.5016C35.5501 47.8281 36.8064 47.9933 38.0682 47.993C38.5285 47.993 38.9837 47.972 39.4336 47.9276C40.4617 47.8323 41.4766 47.6264 42.4609 47.3134C42.4635 47.3134 42.4661 47.3108 42.4687 47.3108C43.0905 47.1118 43.6979 46.8699 44.2867 46.5869C44.2892 46.5843 44.2944 46.5843 44.2971 46.5817C44.4296 46.519 44.5571 46.451 44.6872 46.3857L44.7495 46.3543C44.8535 46.2994 44.9577 46.2445 45.0617 46.187C45.3217 46.0433 45.5766 45.8917 45.8288 45.7297C45.899 45.6879 45.9667 45.6435 46.037 45.5964C46.1358 45.5311 46.2345 45.4631 46.3308 45.3926C46.4582 45.3037 46.5857 45.2122 46.7105 45.1181C46.7495 45.0894 46.7911 45.0606 46.8302 45.0293C49.2667 43.1708 51.0552 40.5849 51.9391 37.6421C52.8231 34.6993 52.7571 31.5509 51.7507 28.6481ZM46.3516 44.3942C46.2658 44.4622 46.1774 44.5275 46.0889 44.5876C46.003 44.6529 45.9173 44.7157 45.8288 44.7732C45.7534 44.828 45.6779 44.8803 45.6 44.93L45.5766 44.9457C45.5193 44.9849 45.4622 45.0214 45.4049 45.058C45.189 45.1939 44.9706 45.3246 44.7495 45.4501C44.7261 45.4631 44.7026 45.4762 44.6793 45.4893C44.5805 45.5441 44.4817 45.5964 44.3829 45.6487C44.3698 45.6565 44.3542 45.6618 44.3412 45.6696L44.3256 45.6774C44.2008 45.7428 44.0733 45.8055 43.9459 45.8656C43.4541 46.1036 42.9477 46.3096 42.4296 46.4824C42.362 46.5059 42.2944 46.5294 42.2268 46.5503C41.2951 46.8481 40.3343 47.0444 39.3608 47.1358C38.9342 47.175 38.5025 47.1959 38.0682 47.1959C36.8748 47.1983 35.6863 47.0419 34.5338 46.7307C33.9423 46.5755 33.3626 46.3781 32.7991 46.14C32.7704 46.127 32.7391 46.1165 32.7106 46.1034C32.6795 46.0904 32.6508 46.0799 32.6222 46.0668C32.5909 46.0538 32.5624 46.0407 32.5311 46.025C32.2867 45.9179 32.0448 45.8003 31.8082 45.6774L31.6938 45.6173C31.405 45.4657 31.1215 45.3037 30.8459 45.1312C30.7652 45.0816 30.682 45.0293 30.6039 44.9744C30.5832 44.9613 30.5649 44.9483 30.5441 44.9352C30.3595 44.8124 30.1748 44.6843 29.9954 44.551C29.8732 44.4596 29.7509 44.3681 29.6313 44.274C29.431 44.1224 29.2385 43.9604 29.0513 43.7931C28.9525 43.7095 28.8563 43.618 28.7627 43.5318C28.3939 43.1896 28.0449 42.8266 27.7172 42.4446C27.608 42.3191 27.5013 42.1937 27.3998 42.063C27.3768 42.0372 27.3551 42.0101 27.3348 41.982C25.645 39.8392 24.6286 37.2393 24.4153 34.5137C24.2019 31.7882 24.8012 29.0605 26.1368 26.6786C27.4724 24.2967 29.4837 22.3685 31.9142 21.14C34.3447 19.9114 37.0843 19.4381 39.7836 19.7805C42.4829 20.1229 45.0195 21.2655 47.07 23.0624C49.1205 24.8594 50.5919 27.2293 51.2965 29.87C52.0012 32.5107 51.9071 35.3025 51.0264 37.8893C50.1457 40.4761 48.5183 42.7407 46.3516 44.3942Z" fill="#3F3D56"/>
<path d="M175.049 98.5211C174.356 96.5213 173.237 94.6973 171.771 93.1765C170.305 91.6557 168.526 90.4745 166.559 89.7155C164.592 88.9565 162.483 88.6378 160.381 88.7817C158.278 88.9256 156.233 89.5286 154.386 90.5487C152.539 91.5687 150.936 92.9813 149.689 94.6879C148.441 96.3945 147.579 98.354 147.163 100.43C146.746 102.506 146.785 104.648 147.277 106.707C147.769 108.766 148.702 110.692 150.011 112.352C150.141 112.516 150.276 112.681 150.414 112.84C150.425 112.851 150.432 112.861 150.443 112.872C150.782 113.264 151.142 113.638 151.522 113.99C151.621 114.082 151.725 114.176 151.829 114.265C152.027 114.442 152.23 114.612 152.44 114.774C152.852 115.1 153.28 115.403 153.725 115.681L153.741 115.689C154.029 115.869 154.323 116.037 154.622 116.196L154.744 116.259C155.025 116.405 155.311 116.544 155.605 116.672C155.665 116.698 155.73 116.724 155.79 116.75C155.795 116.753 155.798 116.753 155.803 116.755C156.397 117.003 157.007 117.21 157.629 117.375C158.848 117.701 160.104 117.866 161.366 117.866C161.826 117.866 162.281 117.845 162.731 117.801C163.759 117.705 164.774 117.499 165.759 117.186C165.761 117.186 165.764 117.184 165.766 117.184C166.388 116.985 166.996 116.743 167.584 116.46C167.587 116.457 167.592 116.457 167.595 116.455C167.727 116.392 167.855 116.324 167.985 116.259L168.047 116.227C168.151 116.172 168.255 116.118 168.359 116.06C168.62 115.916 168.874 115.765 169.127 115.603C169.197 115.561 169.265 115.516 169.335 115.469C169.564 115.318 169.79 115.156 170.008 114.991C170.047 114.962 170.089 114.934 170.128 114.902C172.565 113.044 174.353 110.458 175.237 107.515C176.121 104.572 176.055 101.424 175.049 98.5211Z" fill="white"/>
<path d="M166.147 109.305C167.346 109.305 168.319 108.328 168.319 107.123C168.319 105.918 167.346 104.941 166.147 104.941C164.948 104.941 163.976 105.918 163.976 107.123C163.976 108.328 164.948 109.305 166.147 109.305Z" fill="#2F2E41"/>
<path d="M166.753 105.003C167.129 105.003 167.498 105.101 167.825 105.288C168.152 105.474 168.425 105.743 168.618 106.067C168.811 106.391 168.916 106.76 168.924 107.138C168.933 107.515 168.843 107.889 168.665 108.221C168.853 107.984 168.99 107.711 169.067 107.418C169.145 107.125 169.16 106.819 169.113 106.52C169.066 106.221 168.958 105.934 168.795 105.68C168.632 105.425 168.418 105.207 168.166 105.04C167.915 104.873 167.632 104.76 167.334 104.709C167.037 104.658 166.733 104.67 166.44 104.743C166.148 104.817 165.874 104.951 165.636 105.137C165.398 105.323 165.201 105.557 165.058 105.824C165.261 105.568 165.519 105.361 165.813 105.219C166.106 105.077 166.428 105.003 166.754 105.003H166.753Z" fill="#2F2E41"/>
<path d="M162.089 107.118C165.612 107.118 168.468 104.249 168.468 100.709C168.468 97.1686 165.612 94.2988 162.089 94.2988C158.566 94.2988 155.71 97.1686 155.71 100.709C155.71 104.249 158.566 107.118 162.089 107.118Z" fill="#2F2E41"/>
<path d="M157.084 96.7336C158.183 95.4914 159.719 94.727 161.368 94.6016C163.018 94.4762 164.651 94.9996 165.924 96.0614C165.872 96.0115 165.819 95.9613 165.766 95.9129C164.506 94.7786 162.849 94.1938 161.16 94.287C159.47 94.3803 157.887 95.144 156.759 96.4102C155.63 97.6764 155.048 99.3413 155.14 101.039C155.233 102.736 155.993 104.327 157.253 105.461C157.265 105.472 157.278 105.483 157.29 105.494C157.344 105.542 157.4 105.588 157.455 105.634C156.257 104.489 155.548 102.92 155.479 101.259C155.409 99.5986 155.985 97.9759 157.084 96.7336Z" fill="#2F2E41"/>
<path d="M162.034 107.067C164.303 107.067 166.143 105.219 166.143 102.939C166.143 100.659 164.303 98.8105 162.034 98.8105C159.766 98.8105 157.926 100.659 157.926 102.939C157.926 105.219 159.766 107.067 162.034 107.067Z" fill="#A0616A"/>
<path d="M169.387 113.694V115.079C169.135 115.241 168.88 115.393 168.62 115.536C168.516 115.594 168.412 115.649 168.308 115.704L168.245 115.735C168.115 115.8 167.988 115.868 167.855 115.931C167.853 115.934 167.847 115.934 167.845 115.936C167.256 116.219 166.649 116.461 166.027 116.66C166.024 116.66 166.022 116.663 166.019 116.663C165.035 116.976 164.02 117.182 162.992 117.277C162.542 117.322 162.087 117.342 161.626 117.342C160.365 117.343 159.108 117.178 157.889 116.851C157.267 116.687 156.657 116.48 156.063 116.232C156.058 116.229 156.056 116.229 156.05 116.226C155.991 116.2 155.925 116.174 155.866 116.148C155.572 116.02 155.286 115.881 155.005 115.735L154.883 115.672C154.583 115.513 154.29 115.346 154.001 115.165L153.985 115.158C153.541 114.879 153.112 114.576 152.701 114.251C152.49 114.089 152.287 113.919 152.089 113.741C151.985 113.652 151.881 113.558 151.783 113.467C151.403 113.114 151.042 112.741 150.703 112.348C150.748 112.076 150.814 111.808 150.901 111.546L150.903 111.543C150.919 111.498 150.937 111.455 150.958 111.412C150.972 111.375 150.989 111.338 151.007 111.303C151.473 110.427 152.316 110.21 153.361 110.163C153.952 110.137 154.604 110.166 155.294 110.158C155.658 110.155 156.035 110.142 156.412 110.108C158.792 109.891 158.36 108.48 158.466 107.72C158.573 106.983 159.234 107.62 159.278 107.662L159.28 107.665C160.627 108.298 162.117 108.561 163.598 108.425C163.853 108.394 164.107 108.376 164.362 108.368C165.033 108.36 164.888 108.553 164.656 108.713C164.544 108.787 164.427 108.853 164.305 108.911C164.305 108.911 164.199 109.565 164.089 110.542C163.985 111.478 165.769 111.917 165.918 111.951C165.921 111.953 165.924 111.954 165.928 111.953C166.58 111.784 167.265 111.802 167.907 112.006H167.91C168.276 112.141 168.604 112.367 168.862 112.661C169.12 112.956 169.3 113.311 169.387 113.694Z" fill="#6C63FF"/>
<path d="M156.091 115.373C156.091 115.566 156.086 115.752 156.078 115.927C156.076 116.031 156.07 116.133 156.065 116.23C156.06 116.227 156.057 116.227 156.052 116.225C155.992 116.199 155.927 116.172 155.867 116.146C155.574 116.018 155.287 115.88 155.007 115.733L154.884 115.671C154.585 115.511 154.291 115.344 154.003 115.164C154.01 115.072 154.024 114.981 154.037 114.889C154.065 114.688 154.089 114.484 154.104 114.283C154.206 112.869 153.951 111.452 153.363 110.164V110.161C153.311 110.057 153.28 109.999 153.28 109.999C153.28 109.999 154.037 109.346 155.116 109.999C155.185 110.04 155.246 110.093 155.295 110.156C155.946 110.927 156.122 113.52 156.091 115.373Z" fill="#2F2E41"/>
<path d="M167.899 115.019C167.888 115.311 167.873 115.617 167.855 115.928V115.931C167.852 115.933 167.847 115.933 167.844 115.936C167.256 116.219 166.648 116.461 166.026 116.66C166.024 116.66 166.021 116.662 166.019 116.662L165.99 115.928L165.987 115.831L165.849 112.256C165.846 112.175 165.858 112.094 165.887 112.018C165.915 111.943 165.958 111.873 166.014 111.815C166.07 111.756 166.136 111.709 166.211 111.677C166.285 111.646 166.364 111.629 166.445 111.629H167.764C167.829 111.629 167.875 111.762 167.907 112.003V112.005C167.971 113.009 167.968 114.015 167.899 115.019Z" fill="#2F2E41"/>
<path d="M158.52 97.7783V101.908H159.472L160.682 100.604L160.52 101.908H164.726L164.466 100.604L164.986 101.908H165.656V97.7783H158.52Z" fill="#2F2E41"/>
<path d="M157.875 102.665C158.054 102.665 158.199 102.397 158.199 102.067C158.199 101.737 158.054 101.47 157.875 101.47C157.696 101.47 157.551 101.737 157.551 102.067C157.551 102.397 157.696 102.665 157.875 102.665Z" fill="#A0616A"/>
<path d="M166.199 102.665C166.378 102.665 166.523 102.397 166.523 102.067C166.523 101.737 166.378 101.47 166.199 101.47C166.02 101.47 165.875 101.737 165.875 102.067C165.875 102.397 166.02 102.665 166.199 102.665Z" fill="#A0616A"/>
<path d="M170.27 114.466C170.051 114.631 169.825 114.793 169.596 114.944C169.526 114.991 169.458 115.036 169.388 115.078C169.136 115.24 168.881 115.391 168.621 115.535C168.517 115.593 168.413 115.647 168.309 115.702V112.822C168.309 112.822 168.725 113.157 169.388 113.713C169.471 113.784 169.557 113.857 169.648 113.936C169.841 114.098 170.049 114.275 170.27 114.466Z" fill="#6C63FF"/>
<path d="M175.049 98.5211C174.356 96.5213 173.237 94.6973 171.771 93.1765C170.305 91.6557 168.526 90.4745 166.559 89.7155C164.592 88.9565 162.483 88.6378 160.381 88.7817C158.278 88.9256 156.233 89.5286 154.386 90.5487C152.539 91.5687 150.936 92.9813 149.689 94.6879C148.441 96.3945 147.579 98.354 147.163 100.43C146.746 102.506 146.785 104.648 147.277 106.707C147.769 108.766 148.702 110.692 150.011 112.352C150.141 112.516 150.276 112.681 150.414 112.84C150.425 112.851 150.432 112.861 150.443 112.872C150.782 113.264 151.142 113.638 151.522 113.99C151.621 114.082 151.725 114.176 151.829 114.265C152.027 114.442 152.23 114.612 152.44 114.774C152.852 115.1 153.28 115.403 153.725 115.681L153.741 115.689C154.029 115.869 154.323 116.037 154.622 116.196L154.744 116.259C155.025 116.405 155.311 116.544 155.605 116.672C155.665 116.698 155.73 116.724 155.79 116.75C155.795 116.753 155.798 116.753 155.803 116.755C156.397 117.003 157.007 117.21 157.629 117.375C158.848 117.701 160.104 117.866 161.366 117.866C161.826 117.866 162.281 117.845 162.731 117.801C163.759 117.705 164.774 117.499 165.759 117.186C165.761 117.186 165.764 117.184 165.766 117.184C166.388 116.985 166.996 116.743 167.584 116.46C167.587 116.457 167.592 116.457 167.595 116.455C167.727 116.392 167.855 116.324 167.985 116.259L168.047 116.227C168.151 116.172 168.255 116.118 168.359 116.06C168.62 115.916 168.874 115.765 169.127 115.603C169.197 115.561 169.265 115.516 169.335 115.469C169.564 115.318 169.79 115.156 170.008 114.991C170.047 114.962 170.089 114.934 170.128 114.902C172.565 113.044 174.353 110.458 175.237 107.515C176.121 104.572 176.055 101.424 175.049 98.5211ZM169.649 114.267C169.564 114.335 169.475 114.401 169.387 114.461C169.301 114.526 169.215 114.589 169.127 114.646C169.051 114.701 168.976 114.753 168.898 114.803C168.833 114.847 168.768 114.889 168.703 114.931C168.487 115.067 168.269 115.198 168.047 115.323C168.024 115.336 168.001 115.349 167.977 115.362C167.878 115.417 167.78 115.469 167.681 115.522C167.668 115.53 167.652 115.535 167.639 115.543L167.623 115.55C167.499 115.616 167.371 115.679 167.244 115.739C166.752 115.977 166.246 116.183 165.727 116.355C165.66 116.379 165.592 116.402 165.525 116.423C164.593 116.721 163.632 116.917 162.659 117.009C162.232 117.048 161.8 117.069 161.366 117.069C160.173 117.071 158.984 116.915 157.832 116.604C157.24 116.449 156.66 116.251 156.097 116.013C156.037 115.99 155.977 115.963 155.92 115.94C155.889 115.927 155.86 115.914 155.829 115.898C155.585 115.791 155.343 115.673 155.106 115.55L154.992 115.49C154.703 115.339 154.419 115.177 154.144 115.004C154.042 114.942 153.941 114.876 153.842 114.808C153.53 114.602 153.226 114.38 152.929 114.147C152.729 113.995 152.536 113.833 152.349 113.666C152.25 113.583 152.154 113.491 152.061 113.405C151.692 113.063 151.343 112.7 151.015 112.318C150.906 112.192 150.799 112.067 150.698 111.936C150.675 111.91 150.653 111.883 150.633 111.855C148.943 109.712 147.926 107.112 147.713 104.387C147.5 101.661 148.099 98.9335 149.435 96.5516C150.77 94.1697 152.782 92.2416 155.212 91.013C157.643 89.7844 160.382 89.3112 163.081 89.6536C165.781 89.996 168.317 91.1385 170.368 92.9355C172.418 94.7324 173.89 97.1024 174.594 99.7431C175.299 102.384 175.205 105.176 174.324 107.762C173.444 110.349 171.816 112.614 169.649 114.267Z" fill="#3F3D56"/>
<path d="M174.234 97.379C174.594 97.248 174.92 97.0395 175.191 96.768C175.461 96.4965 175.669 96.1687 175.8 95.8077C175.931 95.4467 175.981 95.0613 175.948 94.6785C175.914 94.2958 175.798 93.9251 175.606 93.5925L181.682 86.5249L176.892 85.8984L171.858 92.7061C171.323 93.0662 170.938 93.611 170.777 94.2371C170.615 94.8632 170.687 95.5272 170.98 96.1032C171.273 96.6792 171.766 97.1272 172.366 97.3623C172.966 97.5975 173.63 97.6034 174.234 97.379Z" fill="#FFB8B8"/>
<path d="M208.477 98.8734C208.729 98.5845 208.915 98.2436 209.022 97.8747C209.128 97.5058 209.153 97.1178 209.095 96.7382C209.036 96.3585 208.896 95.9963 208.683 95.6772C208.47 95.3581 208.19 95.0898 207.862 94.8912L209.794 85.7559L205.297 87.5275L204.153 95.9309C203.857 96.5055 203.782 97.1692 203.94 97.796C204.099 98.4229 204.481 98.9695 205.014 99.3322C205.547 99.6949 206.194 99.8485 206.832 99.7639C207.47 99.6794 208.056 99.3625 208.477 98.8734Z" fill="#FFB8B8"/>
<path d="M186.717 146.484L183.528 146.484L182.011 134.125L186.717 134.125L186.717 146.484Z" fill="#FFB8B8"/>
<path d="M187.529 149.59L177.248 149.589V149.459C177.248 148.931 177.352 148.408 177.553 147.92C177.754 147.432 178.049 146.989 178.42 146.615C178.792 146.242 179.233 145.946 179.719 145.744C180.204 145.541 180.724 145.437 181.25 145.438L187.529 145.438L187.529 149.59Z" fill="#2F2E41"/>
<path d="M202.322 146.484L199.133 146.484L197.616 134.125L202.322 134.125L202.322 146.484Z" fill="#FFB8B8"/>
<path d="M203.134 149.59L192.853 149.589V149.459C192.853 148.931 192.957 148.408 193.158 147.92C193.359 147.432 193.654 146.989 194.025 146.615C194.397 146.242 194.838 145.946 195.324 145.744C195.809 145.541 196.329 145.437 196.855 145.438L203.134 145.438L203.134 149.59Z" fill="#2F2E41"/>
<path d="M187.047 140.028L182.534 139.847C182.226 139.834 181.935 139.699 181.725 139.473C181.515 139.246 181.402 138.946 181.411 138.636L182.682 96.7215L182.765 96.6914C190.676 93.8158 197.22 94.0333 202.772 97.3552L202.834 97.3925L203.596 138.215C203.599 138.372 203.571 138.527 203.513 138.672C203.456 138.817 203.37 138.95 203.261 139.061C203.152 139.173 203.022 139.261 202.879 139.322C202.735 139.382 202.581 139.414 202.426 139.414H198.62C198.349 139.413 198.086 139.318 197.877 139.145C197.667 138.972 197.524 138.732 197.471 138.464L192.287 111.962C192.269 111.87 192.219 111.788 192.146 111.73C192.073 111.672 191.982 111.642 191.889 111.645C191.797 111.649 191.708 111.685 191.64 111.749C191.571 111.812 191.528 111.897 191.517 111.99L188.256 138.995C188.22 139.28 188.082 139.542 187.868 139.732C187.654 139.922 187.379 140.028 187.093 140.029C187.078 140.029 187.063 140.029 187.047 140.028Z" fill="#2F2E41"/>
<path d="M191.439 59.9658C194.966 59.9658 197.826 57.0919 197.826 53.5469C197.826 50.0018 194.966 47.1279 191.439 47.1279C187.911 47.1279 185.051 50.0018 185.051 53.5469C185.051 57.0919 187.911 59.9658 191.439 59.9658Z" fill="#FFB8B8"/>
<path d="M176.391 92.276C176.17 92.1881 175.98 92.0344 175.847 91.8354L174.613 89.9794C174.48 89.7782 174.412 89.5407 174.417 89.299C174.423 89.0574 174.502 88.8233 174.644 88.6284L179.62 81.8419L182.737 66.8116C182.916 66.3475 183.185 65.9236 183.528 65.5639C183.87 65.2042 184.28 64.9159 184.733 64.7154C185.187 64.5149 185.675 64.4062 186.17 64.3954C186.665 64.3847 187.158 64.4721 187.62 64.6527C188.081 64.8334 188.503 65.1036 188.86 65.4481C189.218 65.7926 189.505 66.2045 189.704 66.6603C189.903 67.1162 190.011 67.607 190.021 68.1047C190.031 68.6024 189.944 69.0972 189.764 69.5609L188.29 79.1266C187.844 82.0299 186.363 84.6713 184.123 86.5595L177.573 92.0829C177.447 92.189 177.3 92.2673 177.142 92.3127C176.984 92.3581 176.818 92.3695 176.655 92.3463C176.565 92.3334 176.476 92.3098 176.391 92.276Z" fill="#3F3D56"/>
<path d="M208.201 92.9583C207.977 93.0394 207.734 93.05 207.503 92.9886L205.357 92.4149C205.124 92.3522 204.917 92.2194 204.762 92.0344C204.607 91.8493 204.513 91.621 204.492 91.3803L203.764 82.9824L196.222 69.6305C196.051 69.1631 195.974 68.6664 195.994 68.169C196.015 67.6715 196.133 67.183 196.341 66.7313C196.55 66.2797 196.845 65.8737 197.209 65.5368C197.574 65.1998 198.001 64.9383 198.467 64.7674C198.932 64.5965 199.426 64.5194 199.921 64.5405C200.416 64.5617 200.902 64.6807 201.352 64.8908C201.801 65.1008 202.205 65.3978 202.539 65.7647C202.874 66.1316 203.134 66.5612 203.304 67.029L208.487 75.1875C210.061 77.6634 210.686 80.6294 210.246 83.5338L208.961 92.0287C208.937 92.192 208.878 92.3483 208.789 92.4873C208.7 92.6263 208.583 92.745 208.446 92.8356C208.369 92.8861 208.287 92.9272 208.201 92.9583Z" fill="#3F3D56"/>
<path d="M184.454 64.9463C185.551 63.7372 186.904 62.7911 188.414 62.1778C189.923 61.5644 191.551 61.2995 193.176 61.4026C193.283 61.4092 193.389 61.4167 193.495 61.425C195.035 61.5474 196.532 61.9988 197.885 62.7491C199.237 63.4993 200.415 64.5311 201.339 65.7755C202.278 67.0373 202.939 68.486 203.276 70.0249C203.614 71.5638 203.621 73.1574 203.296 74.6991C202.058 80.5909 202.371 86.7055 204.205 92.4382L205.919 97.7851C205.974 97.9564 205.989 98.1381 205.963 98.3162C205.937 98.4943 205.871 98.6641 205.769 98.8123C205.668 98.9606 205.534 99.0835 205.377 99.1714C205.221 99.2594 205.047 99.3101 204.868 99.3197L196.107 99.793L193.865 95.9017V99.9142L183.218 100.489C183.196 100.491 183.175 100.491 183.154 100.491C182.993 100.491 182.833 100.457 182.685 100.392C182.537 100.327 182.404 100.232 182.294 100.112C182.185 99.9931 182.101 99.8523 182.048 99.6988C181.996 99.5453 181.975 99.3825 181.988 99.2207L183.192 84.2242L181.682 74.0388C181.438 72.4114 181.56 70.7497 182.04 69.176C182.519 67.6024 183.344 66.157 184.454 64.9463Z" fill="#3F3D56"/>
<path d="M195.879 59.6724C195.287 60.0144 192.95 60.2411 192.783 59.5762L192.779 59.5616C192.663 59.0744 192.76 58.5657 192.793 58.0659C192.826 57.5661 192.778 57.017 192.439 56.6496C191.807 55.9645 190.684 56.3277 189.771 56.1545C189.236 56.0345 188.763 55.7228 188.44 55.2777C188.118 54.8326 187.968 54.2846 188.018 53.7362C188.031 53.6324 188.051 53.5284 188.074 53.4244C188.131 53.1611 188.127 52.888 188.061 52.6267C187.996 52.3653 187.871 52.1228 187.696 51.9182C187.522 51.7135 187.302 51.5523 187.055 51.4472C186.808 51.3421 186.54 51.296 186.273 51.3124C185.35 51.3654 184.354 51.6464 183.59 50.9596C183 50.4284 182.856 49.0459 183.115 48.2935C183.551 47.029 186.344 46.367 187.563 46.0031C189.071 45.5653 190.657 45.4706 192.206 45.726C193.755 45.9814 195.228 46.5805 196.518 47.4796C197.288 48.0251 198.007 48.7105 198.335 49.598C198.664 50.4855 198.505 51.6052 197.765 52.1911C198.339 52.8015 198.743 53.5528 198.937 54.3695C199.13 55.1863 199.107 56.0398 198.869 56.8448C198.504 58.0285 196.759 59.1634 195.879 59.6724Z" fill="#2F2E41"/>
<path d="M214.741 149.999H159.345C159.276 149.999 159.21 149.972 159.161 149.923C159.113 149.874 159.085 149.807 159.085 149.738C159.085 149.669 159.113 149.602 159.161 149.553C159.21 149.504 159.276 149.477 159.345 149.477H214.741C214.81 149.477 214.877 149.504 214.925 149.553C214.974 149.602 215.002 149.669 215.002 149.738C215.002 149.807 214.974 149.874 214.925 149.923C214.877 149.972 214.81 149.999 214.741 149.999Z" fill="#CCCCCC"/>
</g>
<defs>
<clipPath id="clip0_7597_22507">
<rect width="215" height="150" fill="white"/>
</clipPath>
</defs>
</svg>
