<svg width="16" height="14" viewBox="0 0 16 14" fill="none" xmlns="http://www.w3.org/2000/svg">
<path d="M4.26397 0.886108H4.32027L4.37607 0.878609C4.56195 0.853629 4.74764 0.841781 4.93596 0.841781H5.0117C5.42989 0.854478 5.83203 0.921281 6.22109 1.04157C6.24076 1.04765 6.26068 1.05313 6.28081 1.05798C6.31715 1.07419 6.35899 1.09068 6.40385 1.10436C6.53899 1.14556 6.64278 1.18501 6.73159 1.22999L6.7609 1.24485L6.79129 1.25736L7.05793 1.36723C7.06147 1.3693 7.06577 1.37186 7.07087 1.37497C7.08918 1.38613 7.11077 1.40007 7.13792 1.41806C7.14426 1.42227 7.15535 1.42967 7.1679 1.43806C7.18814 1.45157 7.2122 1.46764 7.22638 1.47698C7.25501 1.49583 7.30001 1.52512 7.34766 1.5519L7.34762 1.55197L7.35806 1.55764C7.77055 1.78179 8.27875 1.76707 8.67794 1.51705C9.3835 1.07512 10.2163 0.836168 11.0744 0.841763L11.0744 0.841781H11.0799C11.5127 0.841781 11.9316 0.898214 12.3194 1.01805L12.3193 1.01808L12.3264 1.02021C14.7292 1.7397 15.6619 4.16088 14.9036 6.40617C14.4472 7.60683 13.7022 8.70754 12.7234 9.61048C11.2864 10.8916 9.71454 12.0359 8.02509 13.0304C6.32561 12.0412 4.74075 10.8946 3.28661 9.60353C2.3129 8.6989 1.5667 7.60364 1.10279 6.40204C0.33397 4.16404 1.25954 1.7398 3.69968 1.00429L3.6997 1.00438L3.71155 1.00062C3.87776 0.947831 4.04913 0.909458 4.22128 0.886108H4.26397ZM6.14774 0.988482C6.14759 0.988399 6.14745 0.988315 6.14731 0.988231L6.14774 0.988482Z" stroke="white" stroke-width="1.68333"/>
</svg>
