<svg width="56" height="56" viewBox="0 0 56 56" fill="none" xmlns="http://www.w3.org/2000/svg">
<path d="M28.0347 0.767578C35.2571 0.767578 42.1837 3.63666 47.2907 8.74365C52.3977 13.8506 55.2667 20.7772 55.2667 27.9996V55.2316H28.0347C20.8124 55.2316 13.8858 52.3625 8.7788 47.2555C3.67181 42.1485 0.802734 35.222 0.802734 27.9996H0.802734C0.802734 20.7772 3.67181 13.8506 8.7788 8.74365C13.8858 3.63666 20.8124 0.767578 28.0347 0.767578V0.767578Z" fill="url(#paint0_linear_212_556)"/>
<path d="M29.3381 34.8696V36.3826H32.1051C32.2858 36.3806 32.4651 36.415 32.6322 36.4838C32.7994 36.5525 32.951 36.6541 33.0781 36.7826C33.2106 36.9072 33.3156 37.0581 33.3864 37.2257C33.4571 37.3932 33.4921 37.5737 33.4891 37.7556C33.4918 37.9381 33.4578 38.1192 33.3891 38.2882C33.3203 38.4573 33.2183 38.6108 33.0891 38.7396C32.9627 38.8728 32.8099 38.9782 32.6405 39.049C32.4711 39.1197 32.2887 39.1544 32.1051 39.1506H23.8051C23.6215 39.1543 23.4392 39.1197 23.2698 39.0489C23.1003 38.9781 22.9475 38.8728 22.8211 38.7396C22.6917 38.6109 22.5896 38.4574 22.5209 38.2883C22.4522 38.1193 22.4182 37.9381 22.4211 37.7556C22.42 37.5741 22.4552 37.3941 22.5245 37.2263C22.5938 37.0586 22.6959 36.9063 22.8247 36.7784C22.9536 36.6506 23.1067 36.5497 23.275 36.4817C23.4434 36.4138 23.6236 36.3801 23.8051 36.3826H26.5711V34.8696C24.6405 34.5629 22.886 33.5684 21.6311 32.0696C20.3302 30.5846 19.6252 28.6706 19.6521 26.6966C19.6502 26.5159 19.6846 26.3366 19.7533 26.1695C19.822 26.0023 19.9236 25.8507 20.0521 25.7236C20.1783 25.59 20.331 25.4843 20.5005 25.4131C20.6699 25.342 20.8524 25.3071 21.0361 25.3106C21.2197 25.3068 21.4021 25.3414 21.5715 25.4122C21.7409 25.483 21.8937 25.5884 22.0201 25.7216C22.1486 25.8487 22.2502 26.0003 22.3189 26.1675C22.3877 26.3346 22.4221 26.5139 22.4201 26.6946C22.4082 27.4235 22.5459 28.1471 22.8247 28.8206C23.1035 29.4942 23.5175 30.1034 24.0411 30.6106C24.5479 31.1333 25.1564 31.5468 25.829 31.8256C26.5016 32.1043 27.2241 32.2425 27.9521 32.2316C28.6808 32.2435 29.4043 32.1058 30.0776 31.8269C30.751 31.5481 31.3601 31.1342 31.8671 30.6106C32.3904 30.1037 32.8042 29.495 33.0832 28.822C33.3621 28.149 33.5003 27.426 33.4891 26.6976C33.4925 26.3294 33.6408 25.9774 33.9019 25.7178C34.1631 25.4582 34.5159 25.3119 34.8841 25.3106C35.066 25.3076 35.2465 25.3426 35.414 25.4133C35.5816 25.4841 35.7325 25.5891 35.8571 25.7216C35.9856 25.8487 36.0872 26.0003 36.1559 26.1675C36.2247 26.3346 36.2591 26.5139 36.2571 26.6946C36.2842 28.6685 35.5796 30.5825 34.2791 32.0676C33.0243 33.5674 31.2693 34.5626 29.3381 34.8696ZM27.9521 30.8476C27.4065 30.8496 26.866 30.7436 26.3615 30.5356C25.8571 30.3277 25.3989 30.022 25.0132 29.6361C24.6275 29.2502 24.322 28.7918 24.1143 28.2873C23.9066 27.7828 23.8009 27.2422 23.8031 26.6966V21.1616C23.7933 20.6148 23.8956 20.0718 24.1039 19.5661C24.3122 19.0604 24.622 18.6028 25.0141 18.2216C25.3953 17.83 25.8526 17.5206 26.3579 17.3123C26.8632 17.1041 27.4057 17.0014 27.9521 17.0106C28.4989 17.0007 29.0419 17.1031 29.5476 17.3114C30.0533 17.5197 30.5109 17.8295 30.8921 18.2216C31.2842 18.6028 31.594 19.0604 31.8023 19.5661C32.0106 20.0718 32.113 20.6148 32.1031 21.1616V26.6966C32.1054 27.2423 31.9995 27.7831 31.7917 28.2878C31.5839 28.7924 31.2782 29.2509 30.8923 29.6368C30.5064 30.0227 30.0479 30.3284 29.5433 30.5362C29.0386 30.744 28.4979 30.8498 27.9521 30.8476Z" fill="white"/>
<defs>
<linearGradient id="paint0_linear_212_556" x1="28.0347" y1="0.767578" x2="28.0347" y2="55.2316" gradientUnits="userSpaceOnUse">
<stop stop-color="#88EDFE"/>
<stop offset="0.489" stop-color="#625EFE"/>
<stop offset="1" stop-color="#C224FE"/>
</linearGradient>
</defs>
</svg>
