<svg width="7" height="9" viewBox="0 0 7 9" fill="none" xmlns="http://www.w3.org/2000/svg">
<path d="M6.0247 1.0298H4.61449V0.773373C4.61449 0.569427 4.53347 0.373835 4.38926 0.229623C4.24505 0.0854118 4.04946 0.00439459 3.84551 0.00439459H2.8201C2.71909 0.00435396 2.61907 0.0242142 2.52573 0.0628408C2.4324 0.101467 2.34759 0.158104 2.27615 0.229514C2.20472 0.300924 2.14805 0.385709 2.10938 0.479026C2.07072 0.572343 2.05082 0.672364 2.05082 0.773373V1.0298H0.640918C0.470936 1.0298 0.307917 1.09733 0.187721 1.21752C0.0675257 1.33772 0 1.50074 0 1.67072V2.18358C0 2.25159 0.0270168 2.31681 0.0751067 2.3649C0.123197 2.41299 0.18842 2.44001 0.256429 2.44001H6.40919C6.4772 2.44001 6.54242 2.41299 6.59051 2.3649C6.6386 2.31681 6.66562 2.25159 6.66562 2.18358V1.67072C6.66562 1.50074 6.59809 1.33772 6.4779 1.21752C6.3577 1.09733 6.19468 1.0298 6.0247 1.0298ZM2.56367 0.773373C2.56376 0.705389 2.5908 0.640213 2.63887 0.592141C2.68694 0.544069 2.75212 0.517026 2.8201 0.516944H3.84551C3.9135 0.517026 3.97867 0.544069 4.02674 0.592141C4.07482 0.640213 4.10186 0.705389 4.10194 0.773373V1.0298H2.56367V0.773373Z" fill="white"/>
<path d="M0.488405 3.36377C0.477564 3.36376 0.466834 3.36595 0.456864 3.3702C0.446894 3.37446 0.437892 3.38069 0.430402 3.38853C0.422912 3.39637 0.417088 3.40564 0.413288 3.4158C0.409487 3.42595 0.407787 3.43677 0.408289 3.4476L0.619866 7.8867C0.629022 8.08417 0.713965 8.27051 0.857022 8.40694C1.00008 8.54337 1.19023 8.61939 1.38792 8.61918H5.28137C5.47906 8.61939 5.66921 8.54337 5.81227 8.40694C5.95533 8.27051 6.04027 8.08417 6.04943 7.8867L6.261 3.4476C6.26151 3.43677 6.2598 3.42595 6.256 3.4158C6.2522 3.40564 6.24638 3.39637 6.23889 3.38853C6.2314 3.38069 6.2224 3.37446 6.21243 3.3702C6.20246 3.36595 6.19173 3.36376 6.18089 3.36377H0.488405ZM4.36021 4.00469C4.36021 3.93668 4.38722 3.87146 4.43531 3.82337C4.4834 3.77528 4.54863 3.74826 4.61664 3.74826C4.68465 3.74826 4.74987 3.77528 4.79796 3.82337C4.84605 3.87146 4.87307 3.93668 4.87307 4.00469V7.33734C4.87307 7.40535 4.84605 7.47057 4.79796 7.51866C4.74987 7.56675 4.68465 7.59377 4.61664 7.59377C4.54863 7.59377 4.4834 7.56675 4.43531 7.51866C4.38722 7.47057 4.36021 7.40535 4.36021 7.33734V4.00469ZM3.07837 4.00469C3.07837 3.93668 3.10539 3.87146 3.15348 3.82337C3.20157 3.77528 3.26679 3.74826 3.3348 3.74826C3.40281 3.74826 3.46803 3.77528 3.51612 3.82337C3.56421 3.87146 3.59123 3.93668 3.59123 4.00469V7.33734C3.59123 7.40535 3.56421 7.47057 3.51612 7.51866C3.46803 7.56675 3.40281 7.59377 3.3348 7.59377C3.26679 7.59377 3.20157 7.56675 3.15348 7.51866C3.10539 7.47057 3.07837 7.40535 3.07837 7.33734V4.00469ZM1.79653 4.00469C1.79653 3.93668 1.82355 3.87146 1.87164 3.82337C1.91973 3.77528 1.98495 3.74826 2.05296 3.74826C2.12097 3.74826 2.1862 3.77528 2.23429 3.82337C2.28238 3.87146 2.30939 3.93668 2.30939 4.00469V7.33734C2.30939 7.40535 2.28238 7.47057 2.23429 7.51866C2.1862 7.56675 2.12097 7.59377 2.05296 7.59377C1.98495 7.59377 1.91973 7.56675 1.87164 7.51866C1.82355 7.47057 1.79653 7.40535 1.79653 7.33734V4.00469Z" fill="white"/>
</svg>
