<svg width="9" height="8" viewBox="0 0 9 8" fill="none" xmlns="http://www.w3.org/2000/svg">
<path d="M8.62465 2.75059C8.625 2.79067 8.61714 2.83039 8.60155 2.86731C8.58596 2.90423 8.56298 2.93756 8.53402 2.96526L6.09036 5.40892C6.04764 5.45109 5.99344 5.47975 5.93453 5.49131C5.87562 5.50287 5.81461 5.49682 5.75911 5.47392C5.70362 5.45103 5.6561 5.41229 5.62248 5.36255C5.58886 5.31282 5.57064 5.25428 5.57008 5.19425V3.97211H4.50198C4.19019 3.97211 3.91107 3.9817 3.66464 4.00088C3.4178 4.0201 3.17235 4.0544 2.92969 4.10357C2.7106 4.14496 2.49743 4.21311 2.29496 4.30649C2.11307 4.39391 1.94379 4.50545 1.79169 4.63809C1.63556 4.77356 1.5061 4.937 1.40998 5.12001C1.30333 5.32877 1.2255 5.55104 1.17861 5.78073C1.12009 6.06481 1.09209 6.35433 1.09509 6.64436C1.09509 6.81923 1.10303 7.01514 1.11891 7.23207C1.12069 7.26959 1.12462 7.30698 1.13067 7.34405C1.13733 7.38592 1.14125 7.42818 1.14242 7.47056C1.1439 7.51388 1.12949 7.55623 1.1019 7.58965C1.08806 7.60555 1.07079 7.6181 1.05139 7.62636C1.03199 7.63461 1.01098 7.63835 0.989923 7.63729C0.962628 7.63597 0.936099 7.62783 0.912757 7.61362C0.889415 7.59941 0.870004 7.57958 0.856295 7.55594C0.831733 7.52346 0.810976 7.48828 0.79443 7.45108C0.775459 7.40983 0.754012 7.36209 0.730091 7.30786C0.70617 7.25362 0.689466 7.21547 0.679981 7.19341C0.3386 6.52274 0.132691 5.79139 0.0740154 5.04114C0.0586608 4.50033 0.144475 3.96142 0.327042 3.45214C0.842582 2.1701 2.23454 1.52907 4.50291 1.52907H5.57163V0.307554C5.57128 0.26748 5.57914 0.22776 5.59473 0.190841C5.61032 0.153921 5.6333 0.120584 5.66226 0.0928834C5.69016 0.0641863 5.72354 0.0413753 5.76041 0.025799C5.79728 0.0102227 5.8369 0.00219727 5.87693 0.00219727C5.91696 0.00219727 5.95658 0.0102227 5.99345 0.025799C6.03032 0.0413753 6.0637 0.0641863 6.0916 0.0928834L8.53526 2.53654C8.56422 2.56424 8.5872 2.59758 8.60279 2.6345C8.61837 2.67142 8.62624 2.71114 8.62589 2.75121L8.62465 2.75059Z" fill="white"/>
</svg>
