<svg width="12" height="11" viewBox="0 0 12 11" fill="none" xmlns="http://www.w3.org/2000/svg">
<path d="M10.098 2.89474H8.538L5.1 1.15789L1.2 3.12632V8.68421C0.54 8.68421 0 8.16316 0 7.52632V2.99316C0 2.68632 0.192 2.36211 0.48 2.21737L5.1 0L9.624 2.21737C9.882 2.35053 10.062 2.62263 10.098 2.89474ZM10.8 3.47368H3C2.34 3.47368 1.8 3.99474 1.8 4.63158V9.84211C1.8 10.4789 2.34 11 3 11H10.8C11.46 11 12 10.4789 12 9.84211V4.63158C12 3.99474 11.46 3.47368 10.8 3.47368ZM10.8 5.59842L6.9 7.52632L3 5.59842V4.63158L6.9 6.55947L10.8 4.63158V5.59842Z" fill="white"/>
</svg>
