<svg width="9" height="8" viewBox="0 0 9 8" fill="none" xmlns="http://www.w3.org/2000/svg">
<path d="M8.03952 1.73214L4.70161 0.0825157C4.59387 0.0296721 4.47547 0.00219727 4.35547 0.00219727C4.23548 0.00219727 4.11707 0.0296721 4.00934 0.0825157L0.671428 1.73214C0.49147 1.81943 0.339786 1.95571 0.2338 2.12533C0.127814 2.29495 0.0718265 2.49103 0.0722682 2.69104V6.21981C0.0743126 6.50523 0.189406 6.7782 0.392333 6.97893C0.59526 7.17965 0.869475 7.29176 1.1549 7.29069H7.55543C7.84085 7.29176 8.11507 7.17965 8.318 6.97893C8.52092 6.7782 8.63601 6.50523 8.63806 6.21981V2.6895C8.6385 2.48949 8.58251 2.29341 8.47653 2.12379C8.37054 1.95417 8.21886 1.81788 8.0389 1.73059L8.03952 1.73214ZM4.28619 0.630019C4.30775 0.619426 4.33145 0.613918 4.35547 0.613918C4.3795 0.613918 4.4032 0.619426 4.42476 0.630019L7.66338 2.22953L4.37465 3.85503C4.35309 3.86562 4.32939 3.87113 4.30536 3.87113C4.28134 3.87113 4.25764 3.86562 4.23607 3.85503L0.996837 2.25521L4.28619 0.630019Z" fill="white"/>
</svg>
