<svg width="9" height="9" viewBox="0 0 9 9" fill="none" xmlns="http://www.w3.org/2000/svg">
<path d="M1.82611 7.13292L0.0724983 8.15163L1.07913 6.36904L1.12623 6.36109L2.44083 5.024L1.25334 3.81432C1.03213 3.59147 1.0579 3.33928 1.33064 3.05777H2.73823L4.8457 1.00476L4.7512 0.901182C4.70062 0.854267 4.66044 0.797029 4.63333 0.733246C4.60621 0.669463 4.59277 0.600585 4.59389 0.531159C4.59292 0.461549 4.60605 0.392475 4.63248 0.328202C4.65891 0.263929 4.69809 0.205822 4.74758 0.157468C4.79547 0.107474 4.85296 0.0679152 4.91651 0.0412227C4.98006 0.0145302 5.04834 0.00126707 5.11714 0.00224796C5.18613 0.00129886 5.25462 0.0141744 5.31867 0.0401326C5.38271 0.0660909 5.44105 0.104619 5.49032 0.153496L7.96615 2.66819C8.01471 2.71799 8.05306 2.77703 8.07897 2.8419C8.10488 2.90677 8.11784 2.97619 8.11711 3.04616C8.11829 3.11546 8.10567 3.18429 8.07999 3.24855C8.05431 3.3128 8.01611 3.37117 7.96766 3.42015C7.92069 3.47029 7.86393 3.50998 7.80098 3.5367C7.73803 3.56343 7.67027 3.5766 7.60202 3.57537C7.53231 3.57613 7.46319 3.5624 7.39895 3.53501C7.3347 3.50763 7.2767 3.46718 7.22853 3.41618L7.12618 3.3126L5.09782 5.4536L5.08996 6.87809C4.81742 7.1539 4.57105 7.17773 4.35084 6.94959L3.16305 5.74663L1.84211 7.08342L1.82611 7.13292Z" fill="white"/>
</svg>
