<svg width="9" height="7" viewBox="0 0 9 7" fill="none" xmlns="http://www.w3.org/2000/svg">
<path fill-rule="evenodd" clip-rule="evenodd" d="M2.53804 0.00225626H5.91307C5.96928 0.00130893 6.02509 0.0117795 6.07713 0.033034C6.12918 0.0542884 6.17637 0.0858845 6.21584 0.125909C6.25532 0.165933 6.28626 0.213553 6.30679 0.265885C6.32732 0.318216 6.33702 0.374171 6.3353 0.43036H2.11581C2.11409 0.374171 2.12378 0.318216 2.14432 0.265885C2.16485 0.213553 2.19579 0.165933 2.23527 0.125909C2.27474 0.0858845 2.32193 0.0542884 2.37397 0.033034C2.42601 0.0117795 2.48183 0.00130893 2.53804 0.00225626ZM7.15108 1.1225C7.17156 1.17481 7.18121 1.23073 7.17944 1.28688L7.18068 1.71498H1.27259V1.28688C1.27083 1.23084 1.28045 1.17502 1.30085 1.12279C1.32125 1.07057 1.35203 1.02302 1.39131 0.983009C1.43059 0.943002 1.47758 0.911368 1.52942 0.890016C1.58127 0.868663 1.6369 0.858036 1.69297 0.858774H6.75783C6.814 0.857867 6.86977 0.86837 6.92176 0.889647C6.97375 0.910923 7.02088 0.942531 7.0603 0.982556C7.09971 1.02258 7.1306 1.07019 7.15108 1.1225ZM7.77396 1.46134L8.02297 1.71498H8.0242C8.05878 1.75007 8.092 1.78163 8.12332 1.81139C8.31836 1.99669 8.43946 2.11173 8.35363 2.5715C8.29667 2.87664 8.11377 3.96366 7.95411 4.91248C7.83459 5.6228 7.7281 6.25568 7.69725 6.42505C7.67523 6.54565 7.61146 6.65464 7.51712 6.73292C7.42278 6.8112 7.30388 6.85377 7.1813 6.85316H1.27321C1.15061 6.85383 1.03169 6.81129 0.937332 6.733C0.842976 6.65471 0.779221 6.54568 0.757261 6.42505C0.727164 6.25984 0.625325 5.65398 0.509567 4.96532C0.348123 4.00486 0.159606 2.88334 0.100876 2.5715C0.0141351 2.11092 0.134527 1.99663 0.328766 1.81224C0.360337 1.78227 0.393859 1.75044 0.428759 1.71498L0.678383 1.46134V2.14185H7.77396V1.46134ZM2.90329 4.63535L4.22565 5.97441L5.55048 4.63875V4.42222H4.75614V3.30866H3.69732V4.42222H2.90329V4.63535ZM4.22565 5.72231L3.11796 4.59915H3.87364V3.48559H4.57982V4.59915H5.33736L4.22565 5.72231Z" fill="white"/>
</svg>
