<svg width="55" height="56" viewBox="0 0 55 56" fill="none" xmlns="http://www.w3.org/2000/svg">
<path d="M27.4986 0.767578C34.721 0.767578 41.6475 3.63666 46.7545 8.74365C51.8615 13.8506 54.7306 20.7772 54.7306 27.9996V55.2316H27.4986C20.2762 55.2316 13.3497 52.3625 8.24267 47.2555C3.13568 42.1485 0.266602 35.222 0.266602 27.9996H0.266602C0.266602 20.7772 3.13568 13.8506 8.24267 8.74365C13.3497 3.63666 20.2762 0.767578 27.4986 0.767578V0.767578Z" fill="url(#paint0_linear_212_550)"/>
<path d="M28.5412 36.2466L22.9872 18.9176C22.9312 18.7042 22.8086 18.5142 22.6372 18.3752C22.4658 18.2362 22.2546 18.1554 22.0342 18.1446C21.8139 18.1554 21.6027 18.2362 21.4313 18.3752C21.2599 18.5142 21.1373 18.7042 21.0812 18.9176L15.5272 36.2466C15.4263 36.5317 15.4314 36.8436 15.5416 37.1253C15.6518 37.407 15.8596 37.6396 16.1272 37.7806C16.2588 37.8313 16.3998 37.8531 16.5405 37.8444C16.6813 37.8358 16.8185 37.7969 16.9429 37.7305C17.0673 37.6641 17.1759 37.5717 17.2614 37.4595C17.3469 37.3474 17.4072 37.2181 17.4382 37.0806L19.1112 31.8586C19.1171 31.8397 19.1284 31.823 19.1437 31.8106C19.159 31.7981 19.1776 31.7905 19.1972 31.7886H24.8772C24.8969 31.7905 24.9155 31.7981 24.9308 31.8106C24.9461 31.823 24.9574 31.8397 24.9632 31.8586L26.6362 37.0806C26.6673 37.2181 26.7276 37.3474 26.8131 37.4595C26.8986 37.5717 27.0072 37.6641 27.1316 37.7305C27.256 37.7969 27.3932 37.8358 27.534 37.8444C27.6747 37.8531 27.8157 37.8313 27.9472 37.7806C28.2147 37.6395 28.4225 37.4068 28.5326 37.1252C28.6428 36.8436 28.648 36.5317 28.5472 36.2466H28.5412ZM19.9412 29.2616L21.9482 22.9986C21.9529 22.9792 21.964 22.9619 21.9797 22.9496C21.9954 22.9372 22.0148 22.9305 22.0347 22.9305C22.0547 22.9305 22.0741 22.9372 22.0898 22.9496C22.1055 22.9619 22.1165 22.9792 22.1212 22.9986L24.1282 29.2626C24.1335 29.2791 24.1352 29.2965 24.1333 29.3138C24.1314 29.331 24.126 29.3476 24.1172 29.3626C24.1098 29.3764 24.0988 29.3879 24.0855 29.3962C24.0722 29.4044 24.0569 29.4091 24.0412 29.4096H20.0272C20.0116 29.4091 19.9963 29.4044 19.983 29.3962C19.9697 29.3879 19.9587 29.3764 19.9512 29.3626C19.9425 29.3476 19.937 29.331 19.9351 29.3138C19.9333 29.2965 19.935 29.2791 19.9402 29.2626L19.9412 29.2616Z" fill="white"/>
<path d="M34.4149 25.5336C33.4305 25.4989 32.4565 25.7449 31.6066 26.2428C30.7568 26.7407 30.066 27.47 29.6149 28.3456C29.5596 28.4703 29.5311 28.6052 29.5312 28.7416C29.5314 28.878 29.5601 29.0128 29.6156 29.1374C29.6711 29.262 29.7522 29.3736 29.8535 29.4649C29.9548 29.5562 30.0742 29.6253 30.2039 29.6676C30.47 29.7752 30.7666 29.7802 31.0362 29.6816C31.3058 29.5829 31.5291 29.3876 31.6629 29.1336C31.9187 28.6426 32.3077 28.2335 32.7851 27.9532C33.2626 27.6729 33.8094 27.5327 34.3629 27.5486C35.1126 27.5149 35.845 27.7805 36.399 28.2868C36.953 28.7932 37.2831 29.4988 37.3169 30.2486C37.3158 30.2671 37.3077 30.2846 37.294 30.2973C37.2804 30.3099 37.2625 30.3169 37.2439 30.3166C36.1359 30.3446 34.8209 30.4166 33.6439 30.5366C30.8749 30.8366 29.2229 32.1996 29.2229 34.1936C29.2173 34.7051 29.3259 35.2115 29.5408 35.6758C29.7557 36.1401 30.0713 36.5507 30.4649 36.8776C31.2879 37.5317 32.3137 37.8776 33.3649 37.8556C34.7554 37.9037 36.1284 37.533 37.3059 36.7916C37.3323 37.0677 37.4605 37.324 37.6654 37.5109C37.8703 37.6978 38.1374 37.8019 38.4147 37.8029C38.6921 37.8039 38.9599 37.7018 39.1662 37.5163C39.3724 37.3309 39.5024 37.0755 39.5309 36.7996V30.2496C39.4696 28.9481 38.8979 27.7231 37.9397 26.8402C36.9815 25.9573 35.714 25.4875 34.4119 25.5326L34.4149 25.5336ZM33.3649 35.8396C33.1279 35.8708 32.8871 35.8518 32.6581 35.7837C32.429 35.7156 32.2169 35.6 32.0355 35.4444C31.8542 35.2888 31.7076 35.0967 31.6055 34.8807C31.5034 34.6646 31.448 34.4295 31.4429 34.1906C31.4346 33.9655 31.489 33.7425 31.6001 33.5465C31.7112 33.3505 31.8745 33.1892 32.0719 33.0806C32.6333 32.7663 33.2571 32.5799 33.8989 32.5346C34.9669 32.4206 36.1649 32.3576 37.1929 32.3346C37.2202 32.3341 37.2467 32.3441 37.2669 32.3626C37.2762 32.3712 37.2836 32.3817 37.2884 32.3935C37.2932 32.4052 37.2954 32.4179 37.2949 32.4306C37.1569 34.7226 35.8649 35.8396 33.3649 35.8396Z" fill="white"/>
<defs>
<linearGradient id="paint0_linear_212_550" x1="27.4986" y1="0.767578" x2="27.4986" y2="55.2316" gradientUnits="userSpaceOnUse">
<stop stop-color="#88EDFE"/>
<stop offset="0.489" stop-color="#625EFE"/>
<stop offset="1" stop-color="#C224FE"/>
</linearGradient>
</defs>
</svg>
