<svg width="55" height="56" viewBox="0 0 55 56" fill="none" xmlns="http://www.w3.org/2000/svg">
<path d="M27.5709 0.767578C34.7932 0.767578 41.7198 3.63666 46.8268 8.74365C51.9338 13.8506 54.8029 20.7772 54.8029 27.9996V55.2316H27.5709C20.3485 55.2316 13.4219 52.3625 8.31494 47.2555C3.20794 42.1485 0.338867 35.222 0.338867 27.9996H0.338867C0.338867 20.7772 3.20794 13.8506 8.31494 8.74365C13.4219 3.63666 20.3485 0.767578 27.5709 0.767578V0.767578Z" fill="url(#paint0_linear_212_559)"/>
<path d="M38.4323 34.8696C38.1911 34.8695 37.9527 34.8187 37.7323 34.7206C37.681 34.6978 37.6321 34.67 37.5863 34.6376L33.1333 31.4986C32.9078 31.3395 32.7237 31.1286 32.5967 30.8836C32.4696 30.6385 32.4033 30.3666 32.4033 30.0906V25.8166C32.4034 25.5405 32.4699 25.2685 32.5971 25.0234C32.7243 24.7784 32.9086 24.5675 33.1343 24.4086L37.5873 21.2696C37.6331 21.2372 37.682 21.2094 37.7333 21.1866C37.9962 21.0703 38.284 21.0216 38.5704 21.045C38.8569 21.0684 39.133 21.1631 39.3735 21.3204C39.6141 21.4777 39.8114 21.6928 39.9476 21.9459C40.0838 22.199 40.1545 22.4822 40.1533 22.7696V33.1416C40.1533 33.5986 39.9718 34.0368 39.6487 34.3599C39.3255 34.6831 38.8873 34.8646 38.4303 34.8646L38.4323 34.8696Z" fill="white"/>
<path d="M27.8824 35.7046H17.9764C17.006 35.7035 16.0757 35.3176 15.3896 34.6314C14.7034 33.9453 14.3175 33.015 14.3164 32.0446V23.8616C14.3175 22.8912 14.7034 21.9609 15.3896 21.2748C16.0757 20.5886 17.006 20.2027 17.9764 20.2016H27.9074C28.8711 20.2027 29.7951 20.586 30.4766 21.2674C31.158 21.9489 31.5413 22.8729 31.5424 23.8366V32.0446C31.5413 33.015 31.1554 33.9453 30.4692 34.6314C29.7831 35.3176 28.8528 35.7035 27.8824 35.7046Z" fill="white"/>
<defs>
<linearGradient id="paint0_linear_212_559" x1="27.5709" y1="0.767578" x2="27.5709" y2="55.2316" gradientUnits="userSpaceOnUse">
<stop stop-color="#88EDFE"/>
<stop offset="0.489" stop-color="#625EFE"/>
<stop offset="1" stop-color="#C224FE"/>
</linearGradient>
</defs>
</svg>
