<svg width="20" height="20" viewBox="0 0 20 20" fill="none" xmlns="http://www.w3.org/2000/svg">
<path d="M7.73485 10C7.73485 10.5802 7.96532 11.1366 8.37556 11.5468C8.78579 11.957 9.34219 12.1875 9.92235 12.1875C10.5025 12.1875 11.0589 11.957 11.4692 11.5468C11.8794 11.1366 12.1099 10.5802 12.1099 10C12.1099 9.41984 11.8794 8.86344 11.4692 8.4532C11.0589 8.04297 10.5025 7.8125 9.92235 7.8125C9.34219 7.8125 8.78579 8.04297 8.37556 8.4532C7.96532 8.86344 7.73485 9.41984 7.73485 10ZM18.4028 9.49609C16.5513 5.5957 13.7524 3.63281 10.0005 3.63281C6.24657 3.63281 3.4497 5.5957 1.59814 9.49805C1.52387 9.65531 1.48535 9.82706 1.48535 10.001C1.48535 10.1749 1.52387 10.3466 1.59814 10.5039C3.4497 14.4043 6.24853 16.3672 10.0005 16.3672C13.7544 16.3672 16.5513 14.4043 18.4028 10.502C18.5532 10.1855 18.5532 9.81836 18.4028 9.49609ZM9.92235 13.4375C8.02392 13.4375 6.48485 11.8984 6.48485 10C6.48485 8.10156 8.02392 6.5625 9.92235 6.5625C11.8208 6.5625 13.3599 8.10156 13.3599 10C13.3599 11.8984 11.8208 13.4375 9.92235 13.4375Z" fill="white"/>
</svg>
