<svg width="68" height="77" viewBox="0 0 68 77" fill="none" xmlns="http://www.w3.org/2000/svg">
<path d="M0 8C0 3.58172 3.58172 0 8 0H42.9461C45.4944 0 47.8903 1.21409 49.3973 3.26909L58 15L66.4285 26.3784C67.4491 27.7563 68 29.4256 68 31.1402V69C68 73.4183 64.4183 77 60 77H8C3.58172 77 0 73.4183 0 69V8Z" fill="#BED536"/>
<path d="M26.4167 48.75C25.8208 48.75 25.3106 48.5377 24.8859 48.113C24.4613 47.6883 24.2493 47.1784 24.25 46.5833V31.4167C24.25 30.8208 24.4623 30.3106 24.887 29.8859C25.3117 29.4613 25.8216 29.2493 26.4167 29.25H41.5833C42.1792 29.25 42.6894 29.4623 43.1141 29.887C43.5388 30.3117 43.7507 30.8216 43.75 31.4167V46.5833C43.75 47.1792 43.5377 47.6894 43.113 48.1141C42.6883 48.5388 42.1784 48.7507 41.5833 48.75H26.4167ZM26.4167 46.5833H41.5833V31.4167H26.4167V46.5833ZM27.5 44.4167H40.5L36.4375 39L33.1875 43.3333L30.75 40.0833L27.5 44.4167Z" fill="white"/>
</svg>
