<svg width="33" height="33" viewBox="0 0 33 33" fill="none" xmlns="http://www.w3.org/2000/svg">
<path d="M24.0144 28.9252H4.01442V8.92518C4.01442 8.07903 3.32212 7.38672 2.47596 7.38672C1.62981 7.38672 0.9375 8.07903 0.9375 8.92518V28.9252C0.9375 30.6175 2.32212 32.0021 4.01442 32.0021H24.0144C24.8606 32.0021 25.5529 31.3098 25.5529 30.4636C25.5529 29.6175 24.8606 28.9252 24.0144 28.9252Z" fill="#303548"/>
<path d="M29.8607 0H11.3992C9.70688 0 8.32227 1.38462 8.32227 3.07692V21.5385C8.32227 23.2308 9.70688 24.6154 11.3992 24.6154H29.8607C31.553 24.6154 32.9377 23.2308 32.9377 21.5385V3.07692C32.9377 1.38462 31.553 0 29.8607 0ZM20.6453 20C19.7377 20 19.03 19.2769 19.03 18.3846C19.03 17.4769 19.753 16.7846 20.6453 16.7846C21.553 16.7846 22.2453 17.4769 22.2453 18.3846C22.23 19.2769 21.553 20 20.6453 20ZM24.4915 10.5077C23.5223 11.9385 22.5992 12.3692 22.0915 13.2923C21.9684 13.5077 21.8915 13.6923 21.8453 14.0462C21.7684 14.6462 21.2915 15.0923 20.6915 15.0923H20.6453C19.9684 15.0923 19.43 14.5077 19.4915 13.8308C19.5377 13.4 19.63 12.9538 19.8761 12.5385C20.5069 11.4154 21.6915 10.7538 22.3838 9.76923C23.1223 8.72308 22.7069 6.78462 20.63 6.78462C19.6915 6.78462 19.0761 7.27692 18.6915 7.86154C18.3992 8.30769 17.8146 8.46154 17.3223 8.24615C16.6761 7.96923 16.3992 7.16923 16.7992 6.6C17.5838 5.46154 18.8915 4.61538 20.6146 4.61538C22.5069 4.61538 23.8146 5.47692 24.4761 6.55385C25.0453 7.49231 25.3684 9.21538 24.4915 10.5077Z" fill="#303548"/>
</svg>
