<svg width="21" height="20" viewBox="0 0 21 20" fill="none" xmlns="http://www.w3.org/2000/svg">
<path fill-rule="evenodd" clip-rule="evenodd" d="M20.9375 10C20.9375 15.5228 16.4603 20 10.9375 20C5.41465 20 0.9375 15.5228 0.9375 10C0.9375 4.47715 5.41465 0 10.9375 0C16.4603 0 20.9375 4.47715 20.9375 10ZM10.9333 15.5959C11.7617 15.5959 12.4333 14.9243 12.4333 14.0959V10.0004C12.4333 9.17196 11.7617 8.50039 10.9333 8.50039C10.1049 8.50039 9.43328 9.17196 9.43328 10.0004V14.0959C9.43328 14.9243 10.1049 15.5959 10.9333 15.5959ZM10.9333 7.40388C10.1049 7.40388 9.43328 6.73231 9.43328 5.90388C9.43328 5.07545 10.1049 4.40388 10.9333 4.40388H10.9439C11.7723 4.40388 12.4439 5.07545 12.4439 5.90388C12.4439 6.73231 11.7723 7.40388 10.9439 7.40388H10.9333Z" fill="white"/>
</svg>
