<svg width="24" height="24" viewBox="0 0 24 24" fill="none" xmlns="http://www.w3.org/2000/svg">
<path d="M8.47059 0H15.5294C17.776 0 19.9305 0.892434 21.519 2.48098C23.1076 4.06952 24 6.22405 24 8.47059V15.5294C24 17.776 23.1076 19.9305 21.519 21.519C19.9305 23.1076 17.776 24 15.5294 24H8.47059C6.22405 24 4.06952 23.1076 2.48098 21.519C0.892434 19.9305 0 17.776 0 15.5294L0 8.47059C0 6.22405 0.892434 4.06952 2.48098 2.48098C4.06952 0.892434 6.22405 0 8.47059 0V0Z" fill="#505665" fill-opacity="0.2"/>
<path d="M16.6 9.4125H14.8125C14.0324 9.4125 13.4 8.7801 13.4 8C13.4 7.77875 13.2213 7.6 13 7.6H8.4C8.12386 7.6 7.9 7.37614 7.9 7.1C7.9 7.045 7.855 7 7.8 7H7.1C7.045 7 7 7.045 7 7.1V16.9C7 16.955 7.045 17 7.1 17H7.8C7.855 17 7.9 16.955 7.9 16.9V15.15C7.9 14.294 8.59396 13.6 9.45 13.6H9.5875C10.3676 13.6 11 14.2324 11 15.0125C11 15.2338 11.1788 15.4125 11.4 15.4125H16.6C16.8212 15.4125 17 15.2338 17 15.0125V9.8125C17 9.59125 16.8212 9.4125 16.6 9.4125Z" fill="white"/>
</svg>
