<svg width="14" height="14" viewBox="0 0 14 14" fill="none" xmlns="http://www.w3.org/2000/svg">
<path d="M13.1172 6.6513C13.8995 6.00338 13.4871 4.73232 12.4734 4.66709L10.0747 4.51274C9.64567 4.48513 9.27008 4.21479 9.1077 3.81666L8.18257 1.54851C7.80271 0.617191 6.48388 0.617348 6.10424 1.54875L5.17994 3.81647C5.01762 4.2147 4.64201 4.48516 4.21286 4.5128L1.81583 4.6672C0.80274 4.73245 0.390074 6.00229 1.17126 6.65064L2.98635 8.1571C3.32158 8.43533 3.46549 8.88243 3.35551 9.30397L2.75482 11.6062C2.49919 12.5859 3.56941 13.3765 4.4307 12.8441L6.54692 11.5361C6.90851 11.3127 7.36535 11.3127 7.72694 11.5361L9.85145 12.8492C10.7116 13.3809 11.7809 12.593 11.528 11.6139L10.9303 9.30036C10.8215 8.87909 10.966 8.43288 11.3011 8.15535L13.1172 6.6513Z" fill="#FFCB40"/>
</svg>
