<svg width="21" height="21" viewBox="0 0 21 21" fill="none" xmlns="http://www.w3.org/2000/svg">
<path fill-rule="evenodd" clip-rule="evenodd" d="M20.75 10.1484C20.75 15.6713 16.2728 20.1484 10.75 20.1484C5.22715 20.1484 0.75 15.6713 0.75 10.1484C0.75 4.62559 5.22715 0.148438 10.75 0.148438C16.2728 0.148438 20.75 4.62559 20.75 10.1484ZM10.7461 15.7461C11.5745 15.7461 12.2461 15.0745 12.2461 14.2461V10.1506C12.2461 9.32216 11.5745 8.65059 10.7461 8.65059C9.91767 8.65059 9.24609 9.32216 9.24609 10.1506V14.2461C9.24609 15.0745 9.91767 15.7461 10.7461 15.7461ZM10.7461 7.55273C9.91767 7.55273 9.24609 6.88116 9.24609 6.05273C9.24609 5.22431 9.91767 4.55273 10.7461 4.55273H10.7567C11.5852 4.55273 12.2567 5.22431 12.2567 6.05273C12.2567 6.88116 11.5852 7.55273 10.7567 7.55273H10.7461Z" fill="#FFCB40"/>
</svg>
