<svg width="20" height="20" viewBox="0 0 20 20" fill="none" xmlns="http://www.w3.org/2000/svg">
<path d="M17.5584 4.35573C16.2167 4.2224 14.875 4.1224 13.525 4.0474V4.03906L13.3417 2.95573C13.2167 2.18906 13.0334 1.03906 11.0834 1.03906H8.90005C6.95838 1.03906 6.77505 2.13906 6.64172 2.9474L6.46672 4.01406C5.69172 4.06406 4.91672 4.11406 4.14172 4.18906L2.44172 4.35573C2.09172 4.38906 1.84172 4.6974 1.87505 5.03906C1.90838 5.38073 2.20838 5.63073 2.55838 5.5974L4.25838 5.43073C8.62505 4.9974 13.0251 5.16406 17.4417 5.60573C17.4667 5.60573 17.4834 5.60573 17.5084 5.60573C17.8251 5.60573 18.1 5.36406 18.1334 5.03906C18.1584 4.6974 17.9084 4.38906 17.5584 4.35573Z" fill="#F36169"/>
<path d="M16.025 6.78594C15.825 6.5776 15.55 6.46094 15.2666 6.46094H4.73329C4.44995 6.46094 4.16662 6.5776 3.97495 6.78594C3.78329 6.99427 3.67495 7.2776 3.69162 7.56927L4.20829 16.1193C4.29995 17.3859 4.41662 18.9693 7.32495 18.9693H12.675C15.5833 18.9693 15.7 17.3943 15.7916 16.1193L16.3083 7.5776C16.325 7.2776 16.2166 6.99427 16.025 6.78594ZM11.3833 14.7943H8.60829C8.26662 14.7943 7.98329 14.5109 7.98329 14.1693C7.98329 13.8276 8.26662 13.5443 8.60829 13.5443H11.3833C11.725 13.5443 12.0083 13.8276 12.0083 14.1693C12.0083 14.5109 11.725 14.7943 11.3833 14.7943ZM12.0833 11.4609H7.91662C7.57495 11.4609 7.29162 11.1776 7.29162 10.8359C7.29162 10.4943 7.57495 10.2109 7.91662 10.2109H12.0833C12.425 10.2109 12.7083 10.4943 12.7083 10.8359C12.7083 11.1776 12.425 11.4609 12.0833 11.4609Z" fill="#F36169"/>
</svg>
