<svg width="87" height="80" viewBox="0 0 87 80" fill="none" xmlns="http://www.w3.org/2000/svg">
<g clip-path="url(#clip0_7540_21941)">
<path d="M39.8786 44.0151C39.8631 44.0151 39.8533 44.0147 39.8499 44.0145L37.9929 44.0147V43.7409H39.8566C39.8998 43.7424 40.7801 43.7673 41.5913 42.783C42.8001 41.3161 43.7928 37.6847 41.6572 28.7153C38.7856 16.6546 41.1807 5.99966 42.3436 1.9785C42.4009 1.77955 42.4112 1.57001 42.3736 1.36642C42.336 1.16284 42.2515 0.970786 42.127 0.805444C42.0024 0.640102 41.841 0.505999 41.6557 0.413732C41.4704 0.321466 41.2661 0.273563 41.0591 0.273809H13.3256C13.1148 0.274092 12.907 0.324086 12.719 0.419734C12.5311 0.515382 12.3684 0.653989 12.2441 0.824303C11.7515 1.50201 11.0754 2.80394 10.6523 5.15804L10.3828 5.10965C10.815 2.7044 11.5131 1.36417 12.0227 0.663334C12.1724 0.458113 12.3684 0.291094 12.5948 0.17584C12.8212 0.060585 13.0716 0.000341003 13.3256 7.45036e-07H41.0591C41.3086 -0.000239321 41.5547 0.0575397 41.778 0.168773C42.0013 0.280006 42.1957 0.441645 42.3458 0.640921C42.4959 0.840196 42.5976 1.07165 42.6429 1.31699C42.6882 1.56233 42.6758 1.81484 42.6067 2.05457C41.4497 6.05488 39.0671 16.6545 41.9236 28.6519C44.0892 37.7475 43.0481 41.4575 41.7935 42.9682C40.9659 43.9646 40.0541 44.0151 39.8786 44.0151Z" fill="#E6E6E6"/>
<path d="M34.8825 49.0112C34.867 49.0112 34.8572 49.0108 34.8538 49.0106L32.9968 49.0108V48.737H34.8605C34.9039 48.7383 35.7841 48.7634 36.5952 47.7791C37.804 46.3122 38.7967 42.6808 36.6611 33.7114C33.7896 21.6507 36.1846 10.9958 37.3476 6.97459C37.4049 6.77565 37.4151 6.5661 37.3775 6.36252C37.3399 6.15893 37.2555 5.96688 37.1309 5.80154C37.0063 5.6362 36.8449 5.50209 36.6596 5.40983C36.4743 5.31756 36.27 5.26966 36.063 5.2699H8.32954C8.11869 5.27019 7.91088 5.32018 7.72297 5.41583C7.53506 5.51148 7.37235 5.65008 7.24805 5.8204C6.75538 6.4981 6.07928 7.80003 5.65622 10.1541L5.38672 10.1057C5.81897 7.70049 6.51707 6.36026 7.02658 5.65943C7.17632 5.45421 7.37234 5.28719 7.59873 5.17193C7.82512 5.05668 8.0755 4.99643 8.32954 4.99609H36.063C36.3125 4.99585 36.5586 5.05363 36.7819 5.16487C37.0052 5.2761 37.1996 5.43774 37.3497 5.63701C37.4998 5.83629 37.6015 6.06774 37.6468 6.31308C37.6921 6.55843 37.6797 6.81094 37.6106 7.05066C36.4536 11.051 34.071 21.6506 36.9275 33.648C39.0931 42.7436 38.0521 46.4536 36.7974 47.9643C35.9698 48.9607 35.058 49.0112 34.8825 49.0112Z" fill="#CCCCCC"/>
<path d="M29.8854 54.0092C29.8699 54.0092 29.8601 54.0088 29.8567 54.0086L2.55074 54.0088C2.28784 54.0091 2.02888 53.945 1.79651 53.822C1.56414 53.6991 1.36544 53.5211 1.2178 53.3035C1.07017 53.086 0.978097 52.8356 0.949646 52.5743C0.921195 52.3129 0.957231 52.0486 1.0546 51.8044C2.04535 49.3291 3.37935 43.3904 1.18213 31.4276C-1.4124 17.3018 0.910395 12.1967 2.02948 10.6575C2.17922 10.4523 2.37525 10.2852 2.60164 10.17C2.82804 10.0547 3.07843 9.99448 3.33247 9.99414H31.0659C31.3154 9.9939 31.5615 10.0517 31.7848 10.1629C32.0082 10.2741 32.2025 10.4358 32.3526 10.6351C32.5027 10.8343 32.6045 11.0658 32.6497 11.3111C32.695 11.5565 32.6826 11.809 32.6135 12.0487C31.4565 16.049 29.0739 26.6487 31.9305 38.646C34.0961 47.7416 33.055 51.4517 31.8003 52.9624C30.9727 53.9587 30.0609 54.0092 29.8854 54.0092ZM3.33247 10.2679C3.12162 10.2682 2.9138 10.3182 2.72588 10.4139C2.53797 10.5095 2.37525 10.6481 2.25094 10.8184C1.15262 12.3291 -1.12395 17.3566 1.45142 31.3782C3.55043 42.8061 2.53242 48.849 1.30879 51.9061C1.22632 52.1078 1.19536 52.3269 1.21872 52.5435C1.24207 52.7602 1.31899 52.9676 1.44255 53.1471C1.56506 53.3283 1.73017 53.4766 1.92338 53.5791C2.11659 53.6816 2.33201 53.7352 2.55073 53.735H29.8634C29.9066 53.7371 30.787 53.7615 31.5981 52.7771C32.807 51.3102 33.7996 47.6789 31.6641 38.7094C28.7925 26.6487 31.1875 15.9938 32.3505 11.9726C32.4078 11.7737 32.418 11.5641 32.3804 11.3606C32.3428 11.157 32.2584 10.9649 32.1338 10.7996C32.0092 10.6342 31.8479 10.5001 31.6625 10.4079C31.4772 10.3156 31.2729 10.2677 31.0659 10.2679H3.33247Z" fill="#3F3D56"/>
<path d="M26.3493 22.3155H4.58156C4.29109 22.3155 4.01251 22.2001 3.80711 21.9947C3.60172 21.7893 3.48633 21.5107 3.48633 21.2202C3.48633 20.9298 3.60172 20.6512 3.80711 20.4458C4.01251 20.2404 4.29109 20.125 4.58156 20.125H26.3493C26.6398 20.125 26.9184 20.2404 27.1238 20.4458C27.3292 20.6512 27.4446 20.9298 27.4446 21.2202C27.4446 21.5107 27.3292 21.7893 27.1238 21.9947C26.9184 22.2001 26.6398 22.3155 26.3493 22.3155Z" fill="#6C63FF"/>
<path d="M26.3493 26.9698H4.58156C4.29109 26.9698 4.01251 26.8544 3.80711 26.649C3.60172 26.4436 3.48633 26.165 3.48633 25.8745C3.48633 25.5841 3.60172 25.3055 3.80711 25.1001C4.01251 24.8947 4.29109 24.7793 4.58156 24.7793H26.3493C26.6398 24.7793 26.9184 24.8947 27.1238 25.1001C27.3292 25.3055 27.4446 25.5841 27.4446 25.8745C27.4446 26.165 27.3292 26.4436 27.1238 26.649C26.9184 26.8544 26.6398 26.9698 26.3493 26.9698Z" fill="#CCCCCC"/>
<path d="M26.3493 31.6241H4.58156C4.29109 31.6241 4.01251 31.5087 3.80711 31.3033C3.60172 31.0979 3.48633 30.8193 3.48633 30.5288C3.48633 30.2384 3.60172 29.9598 3.80711 29.7544C4.01251 29.549 4.29109 29.4336 4.58156 29.4336H26.3493C26.6398 29.4336 26.9184 29.549 27.1238 29.7544C27.3292 29.9598 27.4446 30.2384 27.4446 30.5288C27.4446 30.8193 27.3292 31.0979 27.1238 31.3033C26.9184 31.5087 26.6398 31.6241 26.3493 31.6241Z" fill="#CCCCCC"/>
<path d="M27.9919 36.2803H6.22414C5.93367 36.2803 5.65509 36.1649 5.44969 35.9595C5.2443 35.7541 5.12891 35.4756 5.12891 35.1851C5.12891 34.8946 5.2443 34.616 5.44969 34.4106C5.65509 34.2052 5.93367 34.0898 6.22414 34.0898H27.9919C28.2824 34.0898 28.561 34.2052 28.7664 34.4106C28.9718 34.616 29.0872 34.8946 29.0872 35.1851C29.0872 35.4756 28.9718 35.7541 28.7664 35.9595C28.561 36.1649 28.2824 36.2803 27.9919 36.2803Z" fill="#CCCCCC"/>
<path d="M27.9919 40.9346H6.22414C5.93367 40.9346 5.65509 40.8192 5.44969 40.6138C5.2443 40.4084 5.12891 40.1298 5.12891 39.8394C5.12891 39.5489 5.2443 39.2703 5.44969 39.0649C5.65509 38.8595 5.93367 38.7441 6.22414 38.7441H27.9919C28.2824 38.7441 28.561 38.8595 28.7664 39.0649C28.9718 39.2703 29.0872 39.5489 29.0872 39.8394C29.0872 40.1298 28.9718 40.4084 28.7664 40.6138C28.561 40.8192 28.2824 40.9346 27.9919 40.9346Z" fill="#CCCCCC"/>
<path d="M14.8494 17.6612H4.58156C4.29109 17.6612 4.01251 17.5458 3.80711 17.3404C3.60172 17.135 3.48633 16.8564 3.48633 16.5659C3.48633 16.2755 3.60172 15.9969 3.80711 15.7915C4.01251 15.5861 4.29109 15.4707 4.58156 15.4707H14.8494C15.1399 15.4707 15.4184 15.5861 15.6238 15.7915C15.8292 15.9969 15.9446 16.2755 15.9446 16.5659C15.9446 16.8564 15.8292 17.135 15.6238 17.3404C15.4184 17.5458 15.1399 17.6612 14.8494 17.6612Z" fill="#6C63FF"/>
<path d="M13.5234 48.44C13.7444 47.5042 14.7827 47.1975 15.6315 47.2318C16.1678 47.268 16.6998 47.3522 17.2211 47.4834C17.7666 47.6054 18.3067 47.7499 18.8441 47.9031C19.8296 48.1842 20.8049 48.5241 21.8067 48.7438C22.6406 48.9267 23.5469 49.034 24.3786 48.7815C25.178 48.5387 25.8562 47.9428 26.0737 47.1188C26.2787 46.3424 25.9973 45.4934 25.2449 45.1386C24.5588 44.815 23.6921 44.9795 23.352 45.7113C22.9685 46.5364 23.3517 47.4362 23.9588 48.0333C24.3039 48.3573 24.6819 48.6444 25.0866 48.8899C25.4974 49.1698 25.9546 49.3746 26.437 49.4947C27.229 49.6639 28.1724 49.4146 28.5808 48.6579C28.6716 48.4867 28.7262 48.2985 28.7413 48.1053C28.7654 47.8422 28.3546 47.8438 28.3306 48.1053C28.2613 48.8587 27.379 49.2116 26.7191 49.1289C26.2737 49.0551 25.8484 48.89 25.4698 48.644C25.1045 48.431 24.7583 48.1868 24.4351 47.914C23.8755 47.4296 23.3508 46.6327 23.7267 45.8769C24.0328 45.2615 24.8306 45.2677 25.3159 45.6645C25.9035 46.1452 25.7987 47.0175 25.4111 47.5883C24.982 48.2202 24.2041 48.4852 23.4707 48.5138C22.6737 48.5448 21.8835 48.3619 21.1218 48.1456C20.1755 47.8769 19.2385 47.5761 18.2876 47.3231C17.7478 47.1795 17.2038 47.0499 16.6542 46.949C16.1345 46.8345 15.6008 46.7975 15.0703 46.8394C14.2133 46.9383 13.3384 47.4372 13.1274 48.3308C13.0667 48.5878 13.4626 48.6975 13.5234 48.44Z" fill="#3F3D56"/>
<path d="M55.4833 71.6621C55.507 74.3579 55.7044 77.0493 56.0745 79.7196C56.0874 79.8134 56.1016 79.9071 56.1146 80.0009L81.36 79.8598C81.4342 79.7667 81.5071 79.6725 81.5778 79.5771C81.8135 79.2614 82.0344 78.9368 82.2372 78.601C83.2119 76.9832 83.6581 75.089 83.2109 73.7822L83.2029 73.7619C83.1064 73.4757 82.9543 73.2114 82.7554 72.9842C81.7358 71.8366 79.6745 72.0279 77.8039 72.9542C79.4817 71.1176 80.8177 68.8001 80.9192 66.7315C81.0187 64.7138 79.9637 63.2723 78.8193 62.0474C78.7818 62.0069 78.7442 61.9675 78.7067 61.9282C78.6885 61.9079 78.6692 61.8888 78.651 61.8686C77.7582 60.9351 76.7173 60.0148 75.2107 60.1262C73.5583 60.2485 71.7263 61.6325 70.4418 63.2453C69.1573 64.8569 68.3037 66.6878 67.4385 68.4746C66.5722 70.2603 65.6349 72.0916 64.2448 73.6179C66.1277 71.2363 67.6458 68.5266 68.2065 65.8912C68.7673 63.2558 68.2738 60.7246 66.5957 59.4834C66.0863 59.1182 65.4967 58.8804 64.8765 58.7897C64.8041 58.7777 64.7306 58.7679 64.6559 58.7593C63.1025 58.5826 61.2477 59.1198 59.6696 60.4041C57.9317 61.8181 56.7268 63.9144 56.1273 65.9044C55.5279 67.8944 55.464 69.8101 55.4833 71.6621Z" fill="#F2F2F2"/>
<path d="M72.002 79.9111L72.4847 79.9084C72.638 79.8126 72.792 79.7179 72.9467 79.6243C73.0425 79.5639 73.1394 79.5056 73.2363 79.4463C74.8376 78.4683 76.4489 77.5303 78.0702 76.6321C79.69 75.7332 81.3179 74.8757 82.954 74.0596C82.9974 74.0407 83.0328 74.0073 83.054 73.965C83.0753 73.9227 83.081 73.8744 83.0703 73.8283C83.0686 73.8223 83.0658 73.8166 83.0623 73.8114C83.0395 73.7686 82.9884 73.7508 82.914 73.7873C82.7133 73.888 82.5115 73.9886 82.3108 74.0915C80.6703 74.9215 79.0367 75.793 77.4103 76.7059C75.7849 77.6184 74.1688 78.5712 72.5619 79.5643C72.5282 79.5848 72.4943 79.6065 72.4605 79.627C72.3073 79.7217 72.1552 79.8164 72.002 79.9111Z" fill="white"/>
<path d="M65.7773 79.9455L66.0759 79.9438C66.1432 79.8496 66.2094 79.7554 66.2767 79.6611C67.8585 77.4429 69.44 75.2247 71.0212 73.0064C73.6106 69.3749 76.1992 65.7433 78.787 62.1117C78.8024 62.0922 78.8138 62.0698 78.8206 62.046C78.8428 61.9655 78.7837 61.9184 78.708 61.9267C78.6761 61.9313 78.6455 61.9426 78.6183 61.9599C78.5911 61.9772 78.5679 62.0001 78.5503 62.0271C77.0985 64.0637 75.6472 66.0995 74.1961 68.1346C71.6202 71.748 69.0447 75.3611 66.4696 78.9737C66.3058 79.203 66.142 79.4335 65.9782 79.6628C65.9108 79.757 65.8435 79.8512 65.7773 79.9455Z" fill="white"/>
<path d="M59.1267 78.2131C59.142 78.7162 59.1753 79.2112 59.2188 79.7017C59.2272 79.7955 59.2356 79.8893 59.2441 79.9831L59.5573 79.9813C59.5477 79.8875 59.5381 79.7938 59.5297 79.7C59.4635 78.9914 59.4166 78.2748 59.4102 77.5387C59.4018 75.498 59.6007 73.4618 60.0037 71.4613C60.4321 69.3073 61.0472 67.1947 61.8421 65.1473C62.6763 62.9881 63.6821 60.8991 64.8498 58.9004C64.8718 58.8678 64.8816 58.8285 64.8775 58.7894C64.8646 58.7002 64.7457 58.6737 64.6569 58.759C64.6393 58.7757 64.6242 58.7948 64.612 58.8158C64.4675 59.0642 64.3256 59.3134 64.1864 59.5633C63.0618 61.5731 62.0991 63.6693 61.3076 65.8321C60.5538 67.8862 59.9803 70.002 59.5938 72.1556C59.2318 74.1535 59.0753 76.1833 59.1267 78.2131Z" fill="white"/>
<path d="M28.6135 48.5361C28.5616 48.4929 28.5236 48.4353 28.5044 48.3705C28.4852 48.3057 28.4855 48.2367 28.5055 48.1721C28.5254 48.1076 28.564 48.0503 28.6164 48.0077C28.6688 47.965 28.7327 47.9388 28.8 47.9324C29.5467 47.8603 30.3003 47.9376 31.0168 48.1596L38.3159 50.4139C38.4104 50.443 38.4982 50.4905 38.5743 50.5537C38.6504 50.6168 38.7134 50.6943 38.7596 50.7817C38.8057 50.8691 38.8342 50.9648 38.8434 51.0633C38.8526 51.1617 38.8424 51.261 38.8132 51.3555C38.784 51.45 38.7365 51.5378 38.6734 51.6139C38.6103 51.69 38.5328 51.753 38.4453 51.7991C38.3579 51.8453 38.2622 51.8738 38.1638 51.883C38.0653 51.8922 37.966 51.8819 37.8715 51.8528L30.5724 49.5985C29.8554 49.3779 29.1895 49.0167 28.6135 48.5361Z" fill="#3F3D56"/>
<path d="M58.5328 57.901C58.3345 57.8178 58.1569 57.6922 58.0124 57.533C57.8679 57.3738 57.7601 57.1848 57.6966 56.9794C57.633 56.774 57.6153 56.5571 57.6446 56.3441C57.674 56.1311 57.7496 55.9271 57.8663 55.7466L56.6152 49.2037L59.8039 48.9551L59.9964 55.3549C60.2868 55.5711 60.4878 55.8862 60.5614 56.2407C60.6349 56.5951 60.5759 56.9642 60.3955 57.2781C60.2151 57.5919 59.9258 57.8287 59.5825 57.9435C59.2392 58.0583 58.8657 58.0432 58.5328 57.901Z" fill="#FFB8B8"/>
<path d="M56.4203 54.5242L53.1725 39.3987C53.0391 38.7774 53.158 38.1287 53.503 37.5951C53.848 37.0615 54.3908 36.6868 55.012 36.5534C55.6333 36.42 56.2821 36.5389 56.8157 36.8839C57.3493 37.2288 57.724 37.7717 57.8574 38.3929L61.1052 53.5183C61.1393 53.678 61.1086 53.8448 61.0199 53.9819C60.9313 54.1191 60.7918 54.2155 60.6322 54.25L57.152 54.9972C57.0729 55.0142 56.9912 55.0155 56.9116 55.0009C56.832 54.9864 56.7561 54.9563 56.6881 54.9123C56.6202 54.8684 56.5615 54.8115 56.5156 54.7449C56.4696 54.6783 56.4372 54.6033 56.4203 54.5242Z" fill="#6C63FF"/>
<path d="M51.0882 78.3177H49.4099L48.6113 71.8438L51.0886 71.8439L51.0882 78.3177Z" fill="#FFB8B8"/>
<path d="M48.2119 77.8379H51.4489V79.876H46.1738C46.1738 79.6083 46.2265 79.3433 46.329 79.096C46.4314 78.8488 46.5815 78.6241 46.7708 78.4348C46.96 78.2456 47.1847 78.0955 47.432 77.993C47.6792 77.8906 47.9443 77.8379 48.2119 77.8379Z" fill="#2F2E41"/>
<path d="M56.7017 78.181H55.0234L54.2248 71.707L56.7021 71.7072L56.7017 78.181Z" fill="#FFB8B8"/>
<path d="M53.8252 77.7012H57.0621V79.7393H51.7871C51.7871 79.4716 51.8398 79.2066 51.9423 78.9593C52.0447 78.712 52.1948 78.4874 52.384 78.2981C52.5733 78.1089 52.798 77.9587 53.0452 77.8563C53.2925 77.7539 53.5575 77.7012 53.8252 77.7012Z" fill="#2F2E41"/>
<path d="M49.0774 77.1113C49.0145 77.0597 48.9625 76.996 48.9245 76.924C48.8865 76.852 48.8632 76.7731 48.8561 76.6921L46.9049 55.2283C46.8973 55.145 46.9068 55.061 46.9327 54.9815C46.9587 54.9019 47.0006 54.8285 47.0558 54.7657C47.1111 54.7029 47.1785 54.652 47.2541 54.6161C47.3296 54.5802 47.4117 54.56 47.4953 54.5569L57.2812 54.1899C57.3659 54.1867 57.4503 54.2011 57.5292 54.232C57.6081 54.263 57.6798 54.3099 57.7397 54.3698C57.7997 54.4297 57.8466 54.5013 57.8776 54.5802C57.9086 54.659 57.9231 54.7435 57.92 54.8281L57.1377 76.2094C57.132 76.3591 57.072 76.5015 56.969 76.6103C56.866 76.719 56.727 76.7865 56.5778 76.8003L54.6047 76.9798C54.5228 76.9872 54.4404 76.9782 54.3621 76.9533C54.2838 76.9284 54.2113 76.8881 54.1488 76.8347C54.0863 76.7814 54.0352 76.716 53.9983 76.6426C53.9615 76.5692 53.9397 76.4891 53.9342 76.4072L53.0287 62.8239C53.028 62.7978 53.0222 62.7721 53.0115 62.7483C53.0008 62.7245 52.9855 62.703 52.9664 62.6852C52.9474 62.6674 52.9249 62.6535 52.9005 62.6444C52.876 62.6354 52.85 62.6313 52.8239 62.6324H52.823C52.7969 62.6313 52.7707 62.6355 52.7462 62.6448C52.7217 62.654 52.6993 62.668 52.6802 62.686C52.6612 62.704 52.646 62.7256 52.6354 62.7495C52.6248 62.7735 52.6192 62.7994 52.6187 62.8255L51.8084 76.5003C51.8002 76.6468 51.7399 76.7854 51.6384 76.8912C51.5368 76.997 51.4007 77.0628 51.2547 77.0768L49.5309 77.2493C49.45 77.2576 49.3681 77.2497 49.2903 77.226C49.2124 77.2023 49.14 77.1633 49.0774 77.1113Z" fill="#2F2E41"/>
<path d="M52.841 33.3403C54.6981 33.3403 56.2035 31.8348 56.2035 29.9777C56.2035 28.1207 54.6981 26.6152 52.841 26.6152C50.984 26.6152 49.4785 28.1207 49.4785 29.9777C49.4785 31.8348 50.984 33.3403 52.841 33.3403Z" fill="#FFB8B8"/>
<path d="M46.3663 55.3732C46.3064 55.3052 46.2624 55.2248 46.2375 55.1377C46.2126 55.0506 46.2073 54.959 46.2222 54.8696C46.8429 51.0963 46.4931 45.55 46.0902 41.5615C45.9851 40.5035 46.1605 39.4365 46.5989 38.4679C47.0374 37.4993 47.7232 36.6633 48.5875 36.0441L50.3436 34.5389C50.4603 34.44 50.6092 34.3873 50.7621 34.3908L55.1247 34.5154C55.282 34.5197 55.4317 34.5843 55.5428 34.6957L56.2169 36.1886L56.2238 36.1937C57.0272 36.7842 57.6716 37.5645 58.0996 38.465C58.5276 39.3654 58.7258 40.3579 58.6765 41.3537L58.0343 54.6247C58.0261 54.779 57.9605 54.9247 57.8504 55.0331C57.7403 55.1415 57.5936 55.2048 57.4392 55.2107L46.85 55.5827C46.8432 55.5829 46.8364 55.583 46.8296 55.583C46.7419 55.5831 46.6551 55.5645 46.5752 55.5283C46.4953 55.4921 46.4241 55.4392 46.3663 55.3732Z" fill="#6C63FF"/>
<path d="M33.6645 49.8347C33.6592 49.6197 33.7011 49.4062 33.7873 49.2092C33.8735 49.0123 34.0017 48.8365 34.1632 48.6945C34.3246 48.5525 34.5152 48.4475 34.7215 48.3871C34.9278 48.3267 35.1449 48.3123 35.3575 48.3448L40.8152 44.5254L42.3471 47.333L36.5866 50.128C36.5082 50.4814 36.303 50.7938 36.0097 51.006C35.7164 51.2182 35.3554 51.3154 34.9952 51.2792C34.6351 51.2431 34.3006 51.0761 34.0554 50.8098C33.8101 50.5436 33.671 50.1966 33.6645 49.8347Z" fill="#FFB8B8"/>
<path d="M38.2575 50.4978C38.1774 50.4857 38.1006 50.4579 38.0314 50.4159C37.9622 50.374 37.902 50.3187 37.8542 50.2534L35.748 47.3839C35.6515 47.2521 35.6113 47.0874 35.636 46.9259C35.6608 46.7645 35.7486 46.6194 35.8801 46.5226L48.3514 37.3687C48.8636 36.9928 49.5043 36.8357 50.1323 36.932C50.4433 36.9797 50.7419 37.0882 51.0109 37.2513C51.28 37.4144 51.5143 37.6289 51.7005 37.8825C51.8866 38.1362 52.021 38.424 52.096 38.7296C52.1709 39.0351 52.1849 39.3525 52.1372 39.6635C52.0895 39.9745 51.981 40.273 51.8179 40.5421C51.6548 40.8111 51.4403 41.0454 51.1867 41.2316L38.7154 50.3855C38.6102 50.4631 38.4829 50.505 38.3522 50.505C38.3205 50.505 38.2888 50.5026 38.2575 50.4978Z" fill="#6C63FF"/>
<path d="M53.0135 32.971C53.4594 32.4243 53.4106 31.5915 53.0527 30.9835C52.6948 30.3754 52.0872 29.9567 51.4621 29.6296C50.837 29.3025 50.1729 29.0453 49.5845 28.6559C48.9962 28.2664 49.0219 26.6177 48.8652 25.9298L49.2388 26.0542C49.0953 25.8705 49.0492 25.3277 48.9056 25.144C49.3278 25.1857 49.6524 25.5866 50.0746 25.6283L49.831 24.9744C51.2786 24.8851 52.1787 25.8911 53.6264 25.8018C54.3436 25.7576 55.1226 25.7296 55.7123 26.1404C56.2247 26.4974 56.484 27.1152 56.6542 27.7161C57.0197 29.0061 57.0764 30.4512 56.4453 31.6342C55.8141 32.8172 54.3593 33.6144 53.0884 33.1872L53.0135 32.971Z" fill="#2F2E41"/>
<path d="M34.5529 79.9515H86.7135C86.7498 79.9515 86.7846 79.9371 86.8103 79.9114C86.8359 79.8858 86.8504 79.8509 86.8504 79.8146C86.8504 79.7783 86.8359 79.7435 86.8103 79.7178C86.7846 79.6922 86.7498 79.6777 86.7135 79.6777H34.5529C34.5166 79.6777 34.4818 79.6922 34.4561 79.7178C34.4304 79.7435 34.416 79.7783 34.416 79.8146C34.416 79.8509 34.4304 79.8858 34.4561 79.9114C34.4818 79.9371 34.5166 79.9515 34.5529 79.9515Z" fill="#3F3D56"/>
</g>
<defs>
<clipPath id="clip0_7540_21941">
<rect width="86.8504" height="80" fill="white"/>
</clipPath>
</defs>
</svg>
