<svg width="124" height="80" viewBox="0 0 124 80" fill="none" xmlns="http://www.w3.org/2000/svg">
<g clip-path="url(#clip0_7540_21644)">
<path d="M123.199 37.5597C123.199 40.7425 121.998 43.8081 119.836 46.1437C117.673 48.4792 114.709 49.9127 111.536 50.1573C111.429 50.1654 111.32 50.1735 111.212 50.1784V38.1866C111.212 38.0667 111.185 37.9484 111.134 37.8402C111.082 37.732 111.007 37.6367 110.914 37.5613C110.903 37.5503 110.891 37.5405 110.878 37.5322C110.866 37.5226 110.854 37.5139 110.841 37.5063C110.727 37.433 110.597 37.3894 110.462 37.3795C110.327 37.3696 110.192 37.3937 110.068 37.4496L109.934 37.1547C110.081 37.0878 110.24 37.053 110.402 37.0527L101.175 29.104C101.247 29.0231 101.321 28.9437 101.396 28.8643C103.135 27.0307 105.384 25.7608 107.853 25.2188C110.322 24.6768 112.896 24.8875 115.244 25.8238C117.591 26.76 119.604 28.3788 121.022 30.4709C122.441 32.563 123.199 35.0323 123.199 37.5597Z" fill="#F2F2F2"/>
<path d="M3.20371 46.1753C3.15782 45.9408 3.1639 45.6992 3.2215 45.4674C3.27911 45.2355 3.38684 45.0192 3.53712 44.8335C3.68739 44.6478 3.87655 44.4973 4.09127 44.3926C4.306 44.288 4.54106 44.2317 4.7799 44.2277L12.0631 35.5576L13.8814 37.8824L6.45879 45.9513C6.43891 46.353 6.27238 46.7335 5.99075 47.0206C5.70911 47.3077 5.33194 47.4815 4.93071 47.5091C4.52948 47.5367 4.13207 47.4162 3.81377 47.1703C3.49547 46.9245 3.2784 46.5704 3.20371 46.1753Z" fill="#FFB8B8"/>
<path d="M37.7892 35.504C37.7382 35.5777 37.6931 35.6554 37.6543 35.7362L29.7018 36.8729L28.4942 35.3398L25.9422 36.8599L28.341 40.6L38.04 37.7409C38.2959 37.9726 38.6164 38.1209 38.9586 38.166C39.3009 38.2112 39.6488 38.151 39.9561 37.9936C40.2634 37.8362 40.5154 37.589 40.6788 37.2849C40.8421 36.9807 40.909 36.6341 40.8706 36.291C40.8321 35.9479 40.6901 35.6246 40.4634 35.3642C40.2368 35.1038 39.9362 34.9186 39.6017 34.8332C39.2672 34.7477 38.9146 34.7661 38.5908 34.886C38.2671 35.0058 37.9874 35.2214 37.7892 35.504Z" fill="#FFB8B8"/>
<path d="M24.2049 64.4719L25.6122 65.8731L31.6867 61.112L29.6097 59.0439L24.2049 64.4719Z" fill="#FFB8B8"/>
<path d="M27.0251 69.8818L22.6022 65.478L24.3037 63.7691L27.0178 66.4715C27.2422 66.695 27.4204 66.9604 27.5422 67.2527C27.664 67.545 27.727 67.8585 27.7277 68.1752C27.7284 68.4918 27.6667 68.8055 27.5461 69.0984C27.4256 69.3912 27.2485 69.6574 27.0251 69.8818Z" fill="#2F2E41"/>
<path d="M16.7244 77.9119H18.7103L19.655 70.252H16.7241L16.7244 77.9119Z" fill="#FFB8B8"/>
<path d="M22.5403 79.7559L16.2989 79.7561L16.2987 77.3447L20.1287 77.3445C20.4454 77.3445 20.759 77.4069 21.0515 77.528C21.3441 77.6492 21.61 77.8268 21.8339 78.0507C22.0578 78.2746 22.2355 78.5405 22.3567 78.833C22.4779 79.1256 22.5403 79.4392 22.5403 79.7559Z" fill="#2F2E41"/>
<path d="M16.2927 71.9958L14.0306 55.3134C13.6766 52.7922 13.7865 50.2276 14.3548 47.746C14.819 45.7516 15.4461 44.3701 16.2187 43.6401C16.3407 43.5257 16.4967 43.4544 16.6631 43.4372L24.1317 42.6592C24.2755 42.6445 24.4206 42.671 24.55 42.7357C24.6793 42.8003 24.7876 42.9004 24.8622 43.0243L25.1078 43.4334C25.1376 43.4831 25.1616 43.536 25.1794 43.5912L26.7585 48.4863C26.782 48.5603 26.8201 48.6288 26.8704 48.688C26.9206 48.7471 26.9822 48.7957 27.0514 48.8308C29.5376 50.1001 37.6134 54.3849 37.1513 56.2336C36.717 57.9705 32.6514 60.7869 31.4157 61.6087C31.2899 61.6928 31.1416 61.7372 30.9903 61.736C30.8389 61.7349 30.6914 61.6883 30.5669 61.6022L28.5156 60.1988C28.4155 60.1303 28.3332 60.0388 28.2756 59.9319C28.2181 59.8251 28.187 59.706 28.1848 59.5847C28.1827 59.4634 28.2097 59.3433 28.2635 59.2345C28.3172 59.1257 28.3963 59.0314 28.494 58.9594L29.9085 57.9171C29.9951 57.8533 30.0626 57.7671 30.1038 57.6678C30.1451 57.5684 30.1584 57.4598 30.1425 57.3534C30.1265 57.247 30.0819 57.1471 30.0134 57.0642C29.9448 56.9813 29.855 56.9187 29.7535 56.8831L22.1566 54.2175C22.0713 54.1875 21.9803 54.1775 21.8905 54.1883C21.8008 54.199 21.7147 54.2302 21.6389 54.2795C21.563 54.3287 21.4995 54.3947 21.4532 54.4723C21.4068 54.5499 21.3789 54.6371 21.3716 54.7272L19.9708 71.8471C19.9554 72.0307 19.874 72.2024 19.7417 72.3306C19.6094 72.4588 19.4351 72.5347 19.2512 72.5443L17.0839 72.6527C17.0707 72.6533 17.0576 72.6537 17.0445 72.6537C16.8606 72.6544 16.6827 72.5879 16.5443 72.4668C16.4059 72.3457 16.3164 72.1782 16.2927 71.9958Z" fill="#2F2E41"/>
<path d="M19.7179 28.8477C21.9152 28.8477 23.6965 27.0665 23.6965 24.8692C23.6965 22.6719 21.9152 20.8906 19.7179 20.8906C17.5206 20.8906 15.7394 22.6719 15.7394 24.8692C15.7394 27.0665 17.5206 28.8477 19.7179 28.8477Z" fill="#FFB8B8"/>
<path d="M15.9967 42.9584L13.0681 32.273L13.1183 32.2392C13.1812 32.1968 19.4935 28.0286 26.8839 31.3876L27.0179 31.4645L25.2826 42.5552C25.2447 42.8083 25.1197 43.0403 24.9291 43.2111C24.7386 43.3819 24.4944 43.4809 24.2387 43.4909L17.0979 43.7656C17.0835 43.7661 17.0691 43.7664 17.0549 43.7664C16.8141 43.767 16.58 43.6881 16.3886 43.542C16.1973 43.3959 16.0595 43.1908 15.9967 42.9584Z" fill="#CCCCCC"/>
<path d="M12.9567 39.2296L10.5176 36.4248C10.4002 36.29 10.334 36.1181 10.3309 35.9394C10.3277 35.7606 10.3878 35.5865 10.5004 35.4476L13.0502 32.2979L15.0075 32.8317L16.0452 36.4637L14.1531 39.1668C14.0871 39.2616 14.0003 39.3401 13.8992 39.3961C13.7981 39.4521 13.6856 39.4842 13.5701 39.4899C13.5565 39.4906 13.5429 39.4909 13.5294 39.4909C13.4207 39.4912 13.3133 39.4679 13.2145 39.4228C13.1157 39.3777 13.0277 39.3118 12.9567 39.2296Z" fill="#CCCCCC"/>
<path d="M26.4444 38.6457C26.329 38.64 26.2164 38.6079 26.1154 38.5519C26.0143 38.4958 25.9275 38.4174 25.8615 38.3225L23.9694 35.6195L24.8795 31.7962L26.6816 31.3047L27.0179 31.4652L29.5142 34.6034C29.6268 34.7422 29.6869 34.9164 29.6837 35.0951C29.6805 35.2739 29.6144 35.4458 29.4969 35.5805L27.0579 38.3854C26.9868 38.4676 26.8989 38.5335 26.8001 38.5786C26.7012 38.6237 26.5938 38.6469 26.4852 38.6467C26.4717 38.6467 26.458 38.6464 26.4444 38.6457Z" fill="#CCCCCC"/>
<path d="M111.212 37.3928C111.213 37.4331 111.2 37.4725 111.173 37.503C111.145 37.5356 111.105 37.5558 111.063 37.5592C111.02 37.5625 110.977 37.5487 110.945 37.5208L110.402 37.0526L101.175 29.104L75.2965 6.80665C75.1489 6.68027 74.9608 6.61095 74.7665 6.61125C74.5722 6.61155 74.3844 6.68144 74.2371 6.80827L39.3875 37.085L39.0732 37.3572C39.0611 37.3679 39.0475 37.3766 39.0327 37.3831C39.0068 37.3946 38.9783 37.3991 38.9501 37.3961C38.9096 37.3917 38.8721 37.3727 38.8448 37.3426C38.8307 37.3267 38.8199 37.3081 38.813 37.288C38.8061 37.2679 38.8033 37.2466 38.8046 37.2254C38.806 37.2042 38.8115 37.1834 38.8209 37.1643C38.8303 37.1453 38.8434 37.1282 38.8593 37.1142L38.9031 37.0753L74.0249 6.56367C74.2313 6.38641 74.4941 6.28868 74.7662 6.28809C75.0382 6.28749 75.3015 6.38407 75.5086 6.56043L101.396 28.8643L111.155 37.2746C111.172 37.2893 111.186 37.3075 111.196 37.3278C111.206 37.3481 111.211 37.3703 111.212 37.3928Z" fill="#3F3D56"/>
<path d="M91.5356 42.1765L91.1095 41.0037L89.6419 36.9541L86.4799 28.2344L82.9454 18.4877L76.5713 0.907374C76.4461 0.564543 76.1902 0.285282 75.8596 0.130746C75.5289 -0.0237903 75.1505 -0.0410066 74.8072 0.0828665L37.9539 13.4451C37.6109 13.5701 37.3316 13.826 37.177 14.1567C37.0225 14.4874 37.0053 14.8658 37.1294 15.2091L46.1666 40.1322L46.3204 40.5583L55.8063 44.8574L58.4726 46.0658L58.9051 46.2618L70.1939 51.3789L70.6313 51.2202L78.0356 48.5361L89.2046 44.4864L90.7094 43.9405C91.0525 43.8156 91.3321 43.5598 91.4869 43.2292C91.6418 42.8986 91.6593 42.52 91.5356 42.1765Z" fill="#E6E6E6"/>
<path d="M76.0821 21.416C75.8982 20.9114 75.5218 20.5004 75.0354 20.2729C74.5489 20.0455 73.9921 20.0202 73.4871 20.2027L58.9051 25.4916L51.8636 28.0445C51.6134 28.1349 51.3835 28.2737 51.187 28.4531C50.9905 28.6324 50.8313 28.8487 50.7184 29.0897C50.6056 29.3306 50.5413 29.5914 50.5293 29.8571C50.5173 30.1229 50.5578 30.3884 50.6484 30.6385C50.7391 30.8886 50.8782 31.1184 51.0577 31.3148C51.2373 31.5111 51.4538 31.6701 51.6948 31.7827C51.9358 31.8953 52.1967 31.9593 52.4624 31.9711C52.7282 31.9828 52.9937 31.9421 53.2437 31.8511L58.9051 29.7988L74.8688 24.011C75.3734 23.8272 75.7844 23.4508 76.0119 22.9643C76.2393 22.4778 76.2645 21.921 76.0821 21.416Z" fill="white"/>
<path d="M78.6496 28.498C78.4657 27.9935 78.0893 27.5824 77.6028 27.355C77.1164 27.1275 76.5596 27.1023 76.0546 27.2847L73.5843 28.1805L58.9051 33.5034L54.4311 35.1249C53.9266 35.3082 53.5155 35.6844 53.2881 36.1707C53.0608 36.657 53.0359 37.2137 53.2188 37.7184C53.4017 38.2231 53.7775 38.6346 54.2636 38.8623C54.7497 39.0901 55.3063 39.1156 55.8112 38.9332L58.9051 37.8106L77.4363 31.0914C77.4784 31.0768 77.5189 31.059 77.5594 31.0412C78.0299 30.8348 78.4043 30.4572 78.6067 29.9849C78.8092 29.5127 78.8245 28.9811 78.6496 28.498Z" fill="white"/>
<path d="M81.2446 35.6552C81.0611 35.1508 80.6851 34.7397 80.1989 34.5122C79.7127 34.2848 79.1561 34.2595 78.6512 34.442L71.7231 36.9544L66.3597 38.8998L58.9051 41.6017L57.0261 42.2837C56.5919 42.4419 56.2246 42.7436 55.9851 43.1389C55.7457 43.5342 55.6483 43.9994 55.7091 44.4575C55.7277 44.5939 55.7603 44.728 55.8063 44.8576L58.4726 46.0661L58.9051 45.9089H58.9084L72.4358 41.004L80.0313 38.2502C80.5361 38.0668 80.9475 37.6904 81.175 37.2038C81.4025 36.7172 81.4275 36.1603 81.2446 35.6552Z" fill="white"/>
<path d="M66.0616 14.4541C65.8778 13.9495 65.5014 13.5385 65.0149 13.311C64.5285 13.0836 63.9717 13.0583 63.4666 13.2408L55.0919 16.2764C54.5874 16.4598 54.1763 16.836 53.949 17.3223C53.7217 17.8086 53.6967 18.3653 53.8796 18.87C54.0625 19.3747 54.4383 19.7861 54.9244 20.0139C55.4105 20.2417 55.9672 20.2671 56.472 20.0847L59.1222 19.1241L60.8764 18.4875L64.8484 17.0475C65.3528 16.864 65.7639 16.4879 65.9914 16.0017C66.2188 15.5155 66.2441 14.9589 66.0616 14.4541Z" fill="white"/>
<path d="M99.4826 18.4873H60.282C60.0508 18.4875 59.8233 18.546 59.6206 18.6572C59.418 18.7685 59.2465 18.929 59.1222 19.1239C58.9801 19.3446 58.9047 19.6017 58.9051 19.8642V46.2614L70.194 51.3785L71.7846 52.0994L74.297 53.2381C74.4441 53.3046 74.6037 53.339 74.7652 53.339C74.9266 53.339 75.0862 53.3046 75.2333 53.2381L77.7457 52.0994L85.6085 48.5357L92.9368 45.2134L100.859 41.6237V19.8642C100.859 19.4991 100.714 19.149 100.456 18.8908C100.198 18.6327 99.8476 18.4875 99.4826 18.4873Z" fill="#6C63FF"/>
<path d="M91.3832 36.9541H68.3812C67.8582 36.9544 67.3556 37.1571 66.9787 37.5198C66.6019 37.8825 66.38 38.3769 66.3596 38.8996C66.3569 38.9259 66.3559 38.9524 66.3564 38.9789C66.3572 39.5157 66.5707 40.0303 66.9503 40.4099C67.3299 40.7894 67.8444 41.003 68.3812 41.0037H91.3832C91.9202 41.0037 92.4353 40.7904 92.815 40.4107C93.1947 40.031 93.408 39.5159 93.408 38.9789C93.408 38.4419 93.1947 37.9269 92.815 37.5472C92.4353 37.1674 91.9202 36.9541 91.3832 36.9541Z" fill="white"/>
<path d="M92.6938 44.969C92.3287 44.6567 91.8637 44.4855 91.3833 44.4863H68.3813C67.8443 44.4863 67.3292 44.6997 66.9495 45.0794C66.5698 45.4591 66.3564 45.9741 66.3564 46.5112C66.3564 47.0482 66.5698 47.5632 66.9495 47.9429C67.3292 48.3226 67.8443 48.536 68.3813 48.536H85.6085L92.9368 45.2136C92.8628 45.1254 92.7815 45.0436 92.6938 44.969Z" fill="white"/>
<path d="M71.7846 52.0996L74.297 53.2384C74.4441 53.3048 74.6037 53.3392 74.7651 53.3392C74.9266 53.3392 75.0862 53.3048 75.2333 53.2384L77.7457 52.0996H71.7846Z" fill="white"/>
<path d="M86.2386 28.3221C86.0961 27.9323 85.8372 27.5957 85.4971 27.3578C85.1569 27.12 84.7519 26.9923 84.3369 26.9922H75.4277C75.0387 26.9925 74.6581 27.1048 74.3312 27.3157C74.0043 27.5265 73.745 27.827 73.5843 28.1812C73.4643 28.4435 73.4024 28.7286 73.4028 29.017C73.4036 29.5538 73.6172 30.0684 73.9967 30.4479C74.3763 30.8275 74.8909 31.0411 75.4277 31.0418H84.3369C84.6626 31.0419 84.9836 30.9633 85.2724 30.8128C85.5613 30.6623 85.8096 30.4444 85.9963 30.1774C86.183 29.9105 86.3025 29.6024 86.3446 29.2794C86.3868 28.9564 86.3505 28.628 86.2386 28.3221Z" fill="white"/>
<path d="M84.8228 48.5359L76.9601 52.0996L75.0989 52.9436C74.994 52.9908 74.8802 53.0152 74.7652 53.0152C74.6501 53.0152 74.5364 52.9908 74.4315 52.9436L72.5703 52.0996H71.7847L74.297 53.2384C74.4441 53.3048 74.6037 53.3392 74.7652 53.3392C74.9266 53.3392 75.0862 53.3048 75.2333 53.2384L77.7457 52.0996L85.6085 48.5359H84.8228ZM84.8228 48.5359L76.9601 52.0996L75.0989 52.9436C74.994 52.9908 74.8802 53.0152 74.7652 53.0152C74.6501 53.0152 74.5364 52.9908 74.4315 52.9436L72.5703 52.0996H71.7847L74.297 53.2384C74.4441 53.3048 74.6037 53.3392 74.7652 53.3392C74.9266 53.3392 75.0862 53.3048 75.2333 53.2384L77.7457 52.0996L85.6085 48.5359H84.8228ZM84.8228 48.5359L76.9601 52.0996L75.0989 52.9436C74.994 52.9908 74.8802 53.0152 74.7652 53.0152C74.6501 53.0152 74.5364 52.9908 74.4315 52.9436L72.5703 52.0996H71.7847L74.297 53.2384C74.4441 53.3048 74.6037 53.3392 74.7652 53.3392C74.9266 53.3392 75.0862 53.3048 75.2333 53.2384L77.7457 52.0996L85.6085 48.5359H84.8228ZM111.212 37.3929C111.152 37.3335 111.087 37.2803 111.016 37.2342C110.857 37.131 110.674 37.0696 110.485 37.0558C110.296 37.0419 110.106 37.076 109.934 37.1548L92.6938 44.969L84.8228 48.5359L76.9601 52.0996L75.0989 52.9436C74.994 52.9908 74.8802 53.0152 74.7652 53.0152C74.6501 53.0152 74.5364 52.9908 74.4315 52.9436L72.5703 52.0996L70.6313 51.22L58.9083 45.9085L58.9051 45.9069L55.7091 44.4571L46.1666 40.1321L39.5964 37.1548C39.5296 37.1239 39.4595 37.1005 39.3875 37.0851C39.2288 37.0455 39.0632 37.0422 38.9031 37.0754C38.6469 37.1279 38.4167 37.267 38.2511 37.4694C38.0856 37.6719 37.9949 37.9252 37.9944 38.1867V78.8662C37.9947 79.1668 38.1143 79.455 38.3269 79.6676C38.5394 79.8802 38.8277 79.9997 39.1283 80.0001H110.402C110.703 79.9997 110.991 79.8802 111.203 79.6676C111.416 79.455 111.536 79.1668 111.536 78.8662V38.1867C111.536 37.8898 111.42 37.6046 111.212 37.3929ZM111.212 78.8661C111.212 79.0809 111.127 79.2869 110.975 79.4388C110.823 79.5906 110.617 79.676 110.402 79.6761H39.1283C38.9135 79.676 38.7075 79.5906 38.5557 79.4388C38.4038 79.2869 38.3184 79.0809 38.3184 78.8661V38.1866C38.3184 38.0513 38.3524 37.9181 38.4172 37.7992C38.482 37.6804 38.5756 37.5797 38.6893 37.5063C38.7693 37.4551 38.8575 37.4178 38.9501 37.3962C38.9774 37.3903 39.0049 37.3859 39.0327 37.3832C39.0644 37.3786 39.0963 37.3765 39.1283 37.3767C39.2434 37.3769 39.3572 37.4017 39.462 37.4496L46.3204 40.5581L55.8063 44.8572L58.4726 46.0656L58.9051 46.2616L70.194 51.3788L71.7847 52.0996L74.297 53.2384C74.4441 53.3048 74.6037 53.3392 74.7652 53.3392C74.9266 53.3392 75.0862 53.3048 75.2333 53.2384L77.7457 52.0996L85.6085 48.5359L92.9368 45.2136L110.068 37.4496C110.192 37.3938 110.327 37.3697 110.462 37.3796C110.597 37.3895 110.727 37.4331 110.841 37.5063C110.854 37.514 110.867 37.5227 110.878 37.5322C110.891 37.5405 110.903 37.5503 110.914 37.5614C111.007 37.6368 111.082 37.7321 111.134 37.8402C111.185 37.9484 111.212 38.0668 111.212 38.1866L111.212 78.8661ZM84.8228 48.5359L76.9601 52.0996L75.0989 52.9436C74.994 52.9908 74.8802 53.0152 74.7652 53.0152C74.6501 53.0152 74.5364 52.9908 74.4315 52.9436L72.5703 52.0996H71.7847L74.297 53.2384C74.4441 53.3048 74.6037 53.3392 74.7652 53.3392C74.9266 53.3392 75.0862 53.3048 75.2333 53.2384L77.7457 52.0996L85.6085 48.5359H84.8228ZM84.8228 48.5359L76.9601 52.0996L75.0989 52.9436C74.994 52.9908 74.8802 53.0152 74.7652 53.0152C74.6501 53.0152 74.5364 52.9908 74.4315 52.9436L72.5703 52.0996H71.7847L74.297 53.2384C74.4441 53.3048 74.6037 53.3392 74.7652 53.3392C74.9266 53.3392 75.0862 53.3048 75.2333 53.2384L77.7457 52.0996L85.6085 48.5359H84.8228ZM58.4726 46.0656L58.9051 46.2616V45.9085L58.4726 46.0656ZM84.8228 48.5359L76.9601 52.0996L75.0989 52.9436C74.994 52.9908 74.8802 53.0152 74.7652 53.0152C74.6501 53.0152 74.5364 52.9908 74.4315 52.9436L72.5703 52.0996H71.7847L74.297 53.2384C74.4441 53.3048 74.6037 53.3392 74.7652 53.3392C74.9266 53.3392 75.0862 53.3048 75.2333 53.2384L77.7457 52.0996L85.6085 48.5359H84.8228Z" fill="#3F3D56"/>
<path d="M28.4327 79.9998H10.1283C10.0853 79.9998 10.0441 79.9827 10.0138 79.9523C9.98337 79.9219 9.96631 79.8807 9.96631 79.8378C9.96631 79.7948 9.98337 79.7536 10.0138 79.7232C10.0441 79.6928 10.0853 79.6758 10.1283 79.6758H28.4327C28.4757 79.6758 28.5169 79.6928 28.5472 79.7232C28.5776 79.7536 28.5947 79.7948 28.5947 79.8378C28.5947 79.8807 28.5776 79.9219 28.5472 79.9523C28.5169 79.9827 28.4757 79.9998 28.4327 79.9998Z" fill="#3F3D56"/>
<path d="M18.2052 27.778C17.9064 27.6264 17.6579 27.3913 17.4899 27.1014C17.3218 26.8115 17.2414 26.479 17.2584 26.1444C17.2753 25.8097 17.3889 25.4871 17.5854 25.2156C17.7819 24.9442 18.0529 24.7355 18.3656 24.6148C19.5661 24.1515 20.912 25.097 22.1705 24.8282C23.4248 24.5603 24.1504 23.0607 23.851 21.8136C23.5516 20.5664 22.4619 19.627 21.2603 19.1784C20.4755 18.8861 19.6351 18.774 18.8012 18.8505C17.9673 18.9269 17.1612 19.1899 16.4427 19.62C15.7315 20.0626 15.1393 20.6723 14.7174 21.3959C14.2955 22.1196 14.0567 22.9353 14.0218 23.7723C14.0055 24.6099 14.2102 25.4371 14.6152 26.1705C15.0203 26.904 15.6114 27.5177 16.3291 27.95C16.649 28.1344 17.0213 28.2824 17.381 28.1994C17.6763 28.1034 17.9545 27.9612 18.2052 27.778Z" fill="#2F2E41"/>
<path d="M16.9159 19.5232C15.8573 18.119 14.4282 16.9655 12.7653 16.3936C11.1023 15.8216 9.20203 15.8675 7.64024 16.6758C6.07845 17.484 4.91373 19.0891 4.79215 20.8435C4.58982 23.7632 7.08466 26.2451 7.3407 29.1606C7.42185 30.0848 7.27185 31.0146 6.90422 31.8663C6.53658 32.718 5.96285 33.4649 5.2347 34.0397C4.50656 34.6145 3.64686 34.9992 2.73306 35.159C1.81925 35.3189 0.880033 35.2489 0 34.9554C0.626811 35.4714 1.35355 35.8521 2.13456 36.0738C2.91557 36.2954 3.73398 36.3532 4.53837 36.2434C5.34145 36.1229 6.10764 35.8251 6.78138 35.3717C7.45513 34.9184 8.01953 34.3208 8.43368 33.6223C8.99517 32.6467 9.22573 31.5135 9.31529 30.3914C9.45595 28.6173 9.26547 26.8325 8.75356 25.128C8.47373 24.198 8.09422 23.241 8.27168 22.2862C8.37283 21.7895 8.61768 21.3335 8.97581 20.9749C9.33393 20.6162 9.78955 20.3707 10.286 20.2688C11.0884 20.1185 11.9088 20.3634 12.6749 20.6452C13.4411 20.927 14.2135 21.2532 15.0296 21.2718C15.8457 21.2905 16.7346 20.9169 17.05 20.164L16.9159 19.5232Z" fill="#2F2E41"/>
</g>
<defs>
<clipPath id="clip0_7540_21644">
<rect width="123.199" height="80" fill="white"/>
</clipPath>
</defs>
</svg>
