<svg width="220" height="150" viewBox="0 0 220 150" fill="none" xmlns="http://www.w3.org/2000/svg">
<g clip-path="url(#clip0_7597_22821)">
<path d="M216.065 136.406C214.56 141.615 210.165 145.262 205.58 148.36C204.94 148.792 204.3 149.215 203.659 149.628C203.655 149.63 203.65 149.634 203.646 149.636C203.615 149.655 203.584 149.675 203.555 149.695C203.423 149.78 203.291 149.865 203.16 149.949L203.232 149.982C203.232 149.982 203.303 150.019 203.225 149.988C203.202 149.978 203.178 149.969 203.155 149.96C200.492 148.888 197.781 147.737 195.74 145.73C193.623 143.645 192.386 140.375 193.532 137.637C193.683 137.278 193.873 136.937 194.1 136.621C194.193 136.488 194.293 136.361 194.397 136.236C195.029 135.466 195.856 134.878 196.792 134.532C197.727 134.187 198.739 134.096 199.721 134.269C200.704 134.443 201.622 134.874 202.382 135.519C203.142 136.164 203.717 136.999 204.046 137.939C204.383 134.811 201.797 132.19 199.308 130.256C196.819 128.323 193.99 126.219 193.508 123.107C193.24 121.376 193.843 119.699 194.942 118.352C194.976 118.311 195.01 118.27 195.045 118.231C196.383 116.662 198.265 115.655 200.315 115.41C204.132 115.014 207.84 117.03 210.614 119.678C215.077 123.939 217.776 130.483 216.065 136.406Z" fill="#F2F2F2"/>
<path d="M208.89 129.593C209.623 130.73 210.185 131.968 210.56 133.267C210.877 134.428 211.018 135.63 210.978 136.833C210.876 139.308 210.18 141.722 208.948 143.873C208.019 145.505 206.888 147.012 205.581 148.361C204.941 148.794 204.301 149.216 203.66 149.629C203.656 149.631 203.651 149.635 203.647 149.637C203.616 149.657 203.585 149.676 203.556 149.696C203.424 149.781 203.292 149.866 203.161 149.95C203.161 149.95 203.304 150.02 203.226 149.989C203.203 149.979 203.179 149.971 203.156 149.961C203.395 148.008 203.161 146.027 202.474 144.184C201.787 142.34 200.668 140.687 199.209 139.364C197.746 138.061 195.996 137.122 194.101 136.622C194.194 136.489 194.294 136.362 194.398 136.237C195.13 136.442 195.843 136.711 196.527 137.041C198.974 138.213 200.978 140.141 202.242 142.538C203.376 144.715 203.864 147.169 203.649 149.613C203.759 149.514 203.868 149.413 203.974 149.312C205.998 147.43 207.796 145.269 209.012 142.776C210.068 140.664 210.586 138.326 210.523 135.967C210.424 133.395 209.396 131.012 207.909 128.938C206.279 126.726 204.353 124.746 202.186 123.054C200.001 121.308 197.61 119.835 195.067 118.669C195.01 118.642 194.965 118.595 194.942 118.536C194.919 118.477 194.919 118.412 194.943 118.353C194.96 118.301 194.997 118.257 195.046 118.232C195.071 118.221 195.099 118.216 195.126 118.217C195.154 118.218 195.181 118.225 195.205 118.238C195.519 118.383 195.831 118.529 196.14 118.681C198.716 119.952 201.124 121.536 203.309 123.399C205.419 125.194 207.406 127.245 208.89 129.593Z" fill="white"/>
<path d="M183.444 3.37873e-09H2.5979C1.90907 0.000625717 1.24864 0.273901 0.76157 0.759841C0.274502 1.24578 0.000605067 1.90468 0 2.59189V124.851C0.00060428 125.538 0.274502 126.197 0.76157 126.683C1.24864 127.169 1.90907 127.442 2.5979 127.442H183.444C183.82 127.442 184.191 127.361 184.532 127.204C184.873 127.047 185.176 126.818 185.419 126.533C185.44 126.511 185.459 126.487 185.476 126.462C185.631 126.272 185.757 126.061 185.848 125.834C185.979 125.523 186.046 125.188 186.045 124.851V2.5919C186.044 1.90421 185.77 1.24493 185.282 0.758934C184.794 0.272936 184.133 -3.50663e-05 183.444 3.37873e-09ZM185.303 124.851C185.304 125.212 185.197 125.566 184.996 125.867C184.818 126.132 184.577 126.349 184.293 126.497C184.031 126.633 183.739 126.703 183.444 126.702H2.5979C2.10581 126.702 1.63404 126.506 1.28608 126.159C0.938116 125.812 0.742369 125.342 0.741772 124.851V2.5919C0.742369 2.10097 0.938116 1.63031 1.28608 1.28316C1.63404 0.936013 2.10581 0.740721 2.5979 0.740126H183.444C183.937 0.740062 184.409 0.935042 184.758 1.28224C185.106 1.62944 185.302 2.10048 185.303 2.5919V124.851Z" fill="#3F3D56"/>
<path d="M185.673 10.3896H0.37085V11.1306H185.673V10.3896Z" fill="#3F3D56"/>
<path d="M6.68438 7.77774C7.91492 7.77774 8.91247 6.78253 8.91247 5.55489C8.91247 4.32724 7.91492 3.33203 6.68438 3.33203C5.45385 3.33203 4.4563 4.32724 4.4563 5.55489C4.4563 6.78253 5.45385 7.77774 6.68438 7.77774Z" fill="#3F3D56"/>
<path d="M13.0897 7.77774C14.3202 7.77774 15.3177 6.78253 15.3177 5.55489C15.3177 4.32724 14.3202 3.33203 13.0897 3.33203C11.8591 3.33203 10.8616 4.32724 10.8616 5.55489C10.8616 6.78253 11.8591 7.77774 13.0897 7.77774Z" fill="#3F3D56"/>
<path d="M19.4952 7.77774C20.7257 7.77774 21.7233 6.78253 21.7233 5.55489C21.7233 4.32724 20.7257 3.33203 19.4952 3.33203C18.2646 3.33203 17.2671 4.32724 17.2671 5.55489C17.2671 6.78253 18.2646 7.77774 19.4952 7.77774Z" fill="#3F3D56"/>
<path d="M120.012 52.1219C118.824 52.1219 117.661 51.7702 116.673 51.1113C115.685 50.4524 114.914 49.5159 114.459 48.4201C114.004 47.3244 113.885 46.1187 114.117 44.9555C114.349 43.7923 114.922 42.7239 115.762 41.8852C116.603 41.0466 117.674 40.4755 118.84 40.2441C120.006 40.0128 121.214 40.1315 122.312 40.5854C123.411 41.0392 124.349 41.8078 125.01 42.7939C125.67 43.78 126.023 44.9394 126.023 46.1254C126.021 47.7152 125.387 49.2394 124.26 50.3636C123.134 51.4877 121.606 52.1201 120.012 52.1219ZM120.012 40.6972C118.936 40.6972 117.884 41.0156 116.989 41.612C116.095 42.2085 115.397 43.0562 114.985 44.0481C114.574 45.04 114.466 46.1314 114.676 47.1844C114.886 48.2373 115.404 49.2046 116.165 49.9637C116.926 50.7228 117.895 51.2398 118.951 51.4493C120.006 51.6587 121.1 51.5512 122.094 51.1404C123.089 50.7295 123.938 50.0338 124.536 49.1411C125.134 48.2485 125.453 47.199 125.453 46.1254C125.452 44.6862 124.878 43.3065 123.858 42.2889C122.838 41.2713 121.455 40.6988 120.012 40.6972Z" fill="#6C63FF"/>
<path d="M119.443 48.3045C119.315 48.3047 119.189 48.2631 119.086 48.186L119.08 48.1812L117.734 47.1543C117.608 47.058 117.526 46.9158 117.505 46.7589C117.484 46.6021 117.527 46.4434 117.623 46.3178C117.72 46.1923 117.862 46.1101 118.02 46.0894C118.177 46.0687 118.336 46.1111 118.462 46.2074L119.333 46.8742L121.393 44.1935C121.441 44.1313 121.5 44.0792 121.568 44.04C121.636 44.0008 121.711 43.9754 121.789 43.9651C121.867 43.9548 121.946 43.96 122.022 43.9802C122.098 44.0005 122.169 44.0354 122.231 44.083L122.218 44.1009L122.232 44.0832C122.357 44.1795 122.44 44.3217 122.46 44.4785C122.481 44.6353 122.439 44.7938 122.342 44.9194L119.92 48.0711C119.864 48.1437 119.791 48.2025 119.709 48.2428C119.627 48.2832 119.536 48.304 119.444 48.3037L119.443 48.3045Z" fill="#6C63FF"/>
<path d="M137.21 52.1219C136.021 52.1219 134.859 51.7702 133.87 51.1113C132.882 50.4524 132.111 49.5159 131.657 48.4201C131.202 47.3244 131.083 46.1187 131.314 44.9555C131.546 43.7923 132.119 42.7239 132.959 41.8852C133.8 41.0466 134.871 40.4755 136.037 40.2441C137.203 40.0128 138.411 40.1315 139.51 40.5854C140.608 41.0392 141.547 41.8078 142.207 42.7939C142.868 43.78 143.22 44.9394 143.22 46.1254C143.218 47.7152 142.585 49.2394 141.458 50.3636C140.331 51.4878 138.803 52.1201 137.21 52.1219ZM137.21 40.6972C136.133 40.6972 135.081 41.0156 134.187 41.612C133.292 42.2085 132.595 43.0562 132.183 44.0481C131.771 45.04 131.663 46.1314 131.873 47.1844C132.083 48.2373 132.601 49.2046 133.362 49.9637C134.123 50.7228 135.093 51.2398 136.148 51.4493C137.204 51.6587 138.298 51.5512 139.292 51.1404C140.286 50.7295 141.136 50.0338 141.734 49.1411C142.331 48.2485 142.651 47.199 142.651 46.1254C142.649 44.6862 142.075 43.3065 141.055 42.2889C140.035 41.2712 138.652 40.6988 137.21 40.6972Z" fill="#E6E6E6"/>
<path d="M139.374 48.2006C139.302 48.2725 139.204 48.3128 139.102 48.3128C139 48.3128 138.902 48.2725 138.83 48.2006L137.388 46.7617C137.355 46.7297 137.312 46.7116 137.266 46.7116C137.221 46.7116 137.177 46.7296 137.145 46.7617L135.703 48.2006C135.631 48.2726 135.533 48.313 135.431 48.313C135.329 48.313 135.231 48.2726 135.159 48.2006C135.086 48.1286 135.046 48.0309 135.046 47.9291C135.046 47.8273 135.086 47.7297 135.159 47.6577L136.601 46.2188C136.633 46.1867 136.651 46.1432 136.651 46.0979C136.651 46.0525 136.633 46.0091 136.601 45.977L135.159 44.538C135.086 44.466 135.046 44.3684 135.046 44.2666C135.046 44.1648 135.086 44.0672 135.159 43.9952C135.231 43.9232 135.329 43.8828 135.431 43.8828C135.533 43.8828 135.63 43.9232 135.703 43.9952L137.145 45.4342C137.177 45.4662 137.221 45.4842 137.266 45.4842C137.312 45.4842 137.355 45.4662 137.387 45.4342L138.83 43.9953C138.902 43.9233 139 43.8828 139.102 43.8828C139.204 43.8828 139.302 43.9233 139.374 43.9953C139.446 44.0673 139.487 44.1649 139.487 44.2667C139.487 44.3685 139.446 44.4661 139.374 44.5381L137.932 45.977C137.899 46.0091 137.881 46.0526 137.881 46.098C137.881 46.1433 137.899 46.1868 137.932 46.2189L139.374 47.6578C139.446 47.7299 139.486 47.8275 139.486 47.9292C139.486 48.031 139.446 48.1286 139.374 48.2006Z" fill="#E6E6E6"/>
<path d="M120.012 71.1619C118.824 71.1619 117.661 70.8102 116.673 70.1513C115.685 69.4924 114.914 68.5559 114.459 67.4602C114.004 66.3645 113.885 65.1588 114.117 63.9956C114.349 62.8324 114.922 61.7639 115.762 60.9253C116.603 60.0867 117.674 59.5155 118.84 59.2842C120.006 59.0528 121.214 59.1715 122.312 59.6254C123.411 60.0793 124.349 60.8478 125.01 61.834C125.67 62.8201 126.023 63.9794 126.023 65.1654C126.021 66.7552 125.387 68.2794 124.26 69.4036C123.134 70.5278 121.606 71.1601 120.012 71.1619ZM120.012 59.7372C118.936 59.7372 117.884 60.0556 116.989 60.6521C116.095 61.2485 115.397 62.0963 114.985 63.0881C114.574 64.08 114.466 65.1715 114.676 66.2244C114.886 67.2774 115.404 68.2446 116.165 69.0037C116.926 69.7629 117.895 70.2799 118.951 70.4893C120.006 70.6988 121.1 70.5913 122.094 70.1804C123.089 69.7696 123.938 69.0738 124.536 68.1812C125.134 67.2885 125.453 66.239 125.453 65.1654C125.452 63.7263 124.878 62.3466 123.858 61.3289C122.838 60.3113 121.455 59.7389 120.012 59.7372Z" fill="#6C63FF"/>
<path d="M119.443 67.3435C119.315 67.3437 119.189 67.3022 119.086 67.2251L119.08 67.2203L117.734 66.1933C117.608 66.0971 117.526 65.9549 117.505 65.798C117.484 65.6411 117.527 65.4825 117.623 65.3569C117.72 65.2313 117.862 65.1492 118.02 65.1284C118.177 65.1077 118.336 65.1502 118.462 65.2464L119.333 65.9132L121.393 63.2325C121.441 63.1704 121.5 63.1182 121.568 63.079C121.636 63.0399 121.711 63.0144 121.789 63.0042C121.867 62.9939 121.946 62.999 122.022 63.0193C122.098 63.0395 122.169 63.0745 122.231 63.1221L122.218 63.1399L122.232 63.1222C122.357 63.2186 122.44 63.3608 122.46 63.5176C122.481 63.6743 122.439 63.8329 122.342 63.9585L119.92 67.1102C119.864 67.1828 119.791 67.2415 119.709 67.2819C119.627 67.3222 119.536 67.3431 119.444 67.3428L119.443 67.3435Z" fill="#6C63FF"/>
<path d="M137.21 71.1619C136.021 71.1619 134.859 70.8102 133.87 70.1513C132.882 69.4924 132.111 68.5559 131.657 67.4602C131.202 66.3645 131.083 65.1588 131.314 63.9956C131.546 62.8324 132.119 61.7639 132.959 60.9253C133.8 60.0867 134.871 59.5155 136.037 59.2842C137.203 59.0528 138.411 59.1715 139.51 59.6254C140.608 60.0793 141.547 60.8478 142.207 61.834C142.868 62.8201 143.22 63.9794 143.22 65.1654C143.218 66.7552 142.585 68.2794 141.458 69.4036C140.331 70.5278 138.803 71.1601 137.21 71.1619ZM137.21 59.7372C136.133 59.7372 135.081 60.0556 134.187 60.6521C133.292 61.2485 132.595 62.0963 132.183 63.0881C131.771 64.08 131.663 65.1715 131.873 66.2244C132.083 67.2774 132.601 68.2446 133.362 69.0037C134.123 69.7629 135.093 70.2799 136.148 70.4893C137.204 70.6988 138.298 70.5913 139.292 70.1804C140.286 69.7696 141.136 69.0738 141.734 68.1812C142.331 67.2885 142.651 66.239 142.651 65.1654C142.649 63.7263 142.075 62.3465 141.055 61.3289C140.035 60.3113 138.652 59.7389 137.21 59.7372Z" fill="#E6E6E6"/>
<path d="M139.374 67.2397C139.302 67.3115 139.204 67.3519 139.102 67.3519C139 67.3519 138.902 67.3115 138.83 67.2397L137.388 65.8007C137.355 65.7687 137.312 65.7507 137.266 65.7507C137.221 65.7507 137.177 65.7687 137.145 65.8007L135.703 67.2396C135.631 67.3116 135.533 67.3521 135.431 67.3521C135.329 67.3521 135.231 67.3116 135.159 67.2396C135.086 67.1676 135.046 67.07 135.046 66.9682C135.046 66.8664 135.086 66.7688 135.159 66.6968L136.601 65.2579C136.633 65.2258 136.651 65.1823 136.651 65.137C136.651 65.0916 136.633 65.0481 136.601 65.016L135.159 63.577C135.086 63.5051 135.046 63.4074 135.046 63.3057C135.046 63.2039 135.086 63.1063 135.159 63.0343C135.231 62.9623 135.329 62.9219 135.431 62.9219C135.533 62.9219 135.63 62.9623 135.703 63.0343L137.145 64.4733C137.177 64.5053 137.221 64.5233 137.266 64.5233C137.312 64.5233 137.355 64.5053 137.387 64.4732L138.83 63.0343C138.902 62.9623 139 62.9219 139.102 62.9219C139.204 62.9219 139.302 62.9623 139.374 63.0343C139.446 63.1063 139.486 63.204 139.486 63.3058C139.486 63.4076 139.446 63.5052 139.374 63.5772L137.932 65.0161C137.899 65.0482 137.881 65.0917 137.881 65.1371C137.881 65.1824 137.899 65.2259 137.932 65.258L139.374 66.6969C139.446 66.7689 139.486 66.8665 139.486 66.9683C139.486 67.07 139.446 67.1676 139.374 67.2397Z" fill="#E6E6E6"/>
<path d="M120.012 90.1971C118.824 90.1971 117.661 89.8454 116.673 89.1865C115.685 88.5276 114.914 87.5911 114.459 86.4953C114.004 85.3996 113.885 84.1939 114.117 83.0307C114.349 81.8675 114.922 80.7991 115.762 79.9604C116.603 79.1218 117.674 78.5507 118.84 78.3193C120.006 78.0879 121.214 78.2067 122.312 78.6606C123.411 79.1144 124.349 79.883 125.01 80.8691C125.67 81.8552 126.023 83.0146 126.023 84.2006C126.021 85.7904 125.387 87.3146 124.26 88.4388C123.134 89.5629 121.606 90.1953 120.012 90.1971ZM120.012 78.7724C118.936 78.7724 117.884 79.0908 116.989 79.6872C116.095 80.2837 115.397 81.1314 114.985 82.1233C114.574 83.1152 114.466 84.2066 114.676 85.2596C114.886 86.3125 115.404 87.2797 116.165 88.0389C116.926 88.798 117.895 89.315 118.951 89.5245C120.006 89.7339 121.1 89.6264 122.094 89.2156C123.089 88.8047 123.938 88.109 124.536 87.2163C125.134 86.3237 125.453 85.2742 125.453 84.2006C125.452 82.7614 124.878 81.3817 123.858 80.3641C122.838 79.3464 121.455 78.774 120.012 78.7724Z" fill="#E6E6E6"/>
<path d="M119.443 86.3836C119.315 86.3838 119.189 86.3422 119.086 86.2651L119.08 86.2603L117.734 85.2334C117.608 85.1371 117.526 84.9949 117.505 84.838C117.484 84.6812 117.527 84.5225 117.623 84.3969C117.72 84.2714 117.862 84.1892 118.02 84.1685C118.177 84.1478 118.336 84.1902 118.462 84.2865L119.333 84.9533L121.393 82.2726C121.441 82.2104 121.5 82.1583 121.568 82.1191C121.636 82.0799 121.711 82.0545 121.789 82.0442C121.867 82.0339 121.946 82.0391 122.022 82.0593C122.098 82.0796 122.169 82.1145 122.231 82.1621L122.218 82.18L122.232 82.1623C122.357 82.2586 122.44 82.4008 122.46 82.5576C122.481 82.7144 122.439 82.8729 122.342 82.9985L119.92 86.1502C119.864 86.2228 119.791 86.2816 119.709 86.3219C119.627 86.3623 119.536 86.3831 119.444 86.3828L119.443 86.3836Z" fill="#E6E6E6"/>
<path d="M137.21 90.1971C136.021 90.1971 134.859 89.8454 133.87 89.1865C132.882 88.5276 132.111 87.5911 131.657 86.4953C131.202 85.3996 131.083 84.1939 131.314 83.0307C131.546 81.8675 132.119 80.7991 132.959 79.9604C133.8 79.1218 134.871 78.5507 136.037 78.3193C137.203 78.0879 138.411 78.2067 139.51 78.6606C140.608 79.1144 141.547 79.883 142.207 80.8691C142.868 81.8552 143.22 83.0146 143.22 84.2006C143.218 85.7904 142.585 87.3146 141.458 88.4388C140.331 89.563 138.803 90.1953 137.21 90.1971ZM137.21 78.7724C136.133 78.7724 135.081 79.0908 134.187 79.6872C133.292 80.2837 132.595 81.1314 132.183 82.1233C131.771 83.1152 131.663 84.2066 131.873 85.2596C132.083 86.3125 132.601 87.2797 133.362 88.0389C134.123 88.798 135.093 89.315 136.148 89.5245C137.204 89.7339 138.298 89.6264 139.292 89.2156C140.286 88.8047 141.136 88.109 141.734 87.2163C142.331 86.3237 142.651 85.2742 142.651 84.2006C142.649 82.7614 142.075 81.3817 141.055 80.3641C140.035 79.3464 138.652 78.774 137.21 78.7724Z" fill="#E6E6E6"/>
<path d="M139.374 86.2758C139.302 86.3477 139.204 86.388 139.102 86.388C139 86.388 138.902 86.3477 138.83 86.2758L137.388 84.8369C137.355 84.8048 137.312 84.7869 137.266 84.7868C137.221 84.7868 137.177 84.8048 137.145 84.8368L135.703 86.2758C135.631 86.3477 135.533 86.3882 135.431 86.3882C135.329 86.3882 135.231 86.3477 135.159 86.2758C135.086 86.2038 135.046 86.1061 135.046 86.0043C135.046 85.9025 135.086 85.8049 135.159 85.7329L136.601 84.294C136.633 84.2619 136.651 84.2184 136.651 84.1731C136.651 84.1277 136.633 84.0843 136.601 84.0522L135.159 82.6132C135.086 82.5412 135.046 82.4436 135.046 82.3418C135.046 82.24 135.086 82.1424 135.159 82.0704C135.231 81.9984 135.329 81.958 135.431 81.958C135.533 81.958 135.63 81.9984 135.703 82.0704L137.145 83.5094C137.177 83.5414 137.221 83.5594 137.266 83.5594C137.312 83.5594 137.355 83.5414 137.387 83.5094L138.83 82.0705C138.902 81.9987 139 81.9585 139.102 81.9586C139.203 81.9587 139.301 81.9991 139.373 82.071C139.445 82.1429 139.486 82.2404 139.486 82.342C139.486 82.4437 139.446 82.5413 139.374 82.6133L137.932 84.0522C137.899 84.0843 137.881 84.1278 137.881 84.1732C137.881 84.2185 137.899 84.262 137.932 84.2941L139.374 85.733C139.446 85.8051 139.486 85.9027 139.486 86.0044C139.486 86.1062 139.446 86.2038 139.374 86.2758Z" fill="#E6E6E6"/>
<path d="M219.7 149.913H106.187C106.108 149.913 106.033 149.882 105.977 149.826C105.921 149.77 105.889 149.694 105.889 149.616C105.889 149.537 105.921 149.461 105.977 149.405C106.033 149.35 106.108 149.318 106.187 149.318H219.7C219.779 149.318 219.855 149.35 219.911 149.405C219.967 149.461 219.998 149.537 219.998 149.616C219.998 149.694 219.967 149.77 219.911 149.826C219.855 149.882 219.779 149.913 219.7 149.913Z" fill="#3F3D56"/>
<path d="M122.351 68.7927C122.726 69.0187 123.146 69.1601 123.581 69.2067C124.017 69.2534 124.457 69.2042 124.872 69.0627C125.286 68.9211 125.664 68.6907 125.98 68.3875C126.295 68.0844 126.54 67.7159 126.697 67.3081L137.338 67.6615L134.448 62.9551L124.786 63.3411C124.082 63.1229 123.322 63.17 122.65 63.4735C121.978 63.777 121.442 64.3158 121.141 64.9878C120.841 65.6598 120.799 66.4183 121.022 67.1195C121.245 67.8208 121.718 68.4161 122.351 68.7927Z" fill="#FFB8B8"/>
<path d="M182.347 91.7861C182.636 91.4575 182.849 91.0698 182.971 90.6502C183.094 90.2306 183.122 89.7894 183.055 89.3576C182.988 88.9258 182.827 88.5139 182.583 88.151C182.339 87.7881 182.018 87.4829 181.643 87.257L183.856 76.8672L178.705 78.8821L177.394 88.4395C177.055 89.093 176.969 89.8478 177.15 90.5607C177.332 91.2737 177.77 91.8953 178.381 92.3078C178.991 92.7203 179.732 92.895 180.463 92.7989C181.194 92.7027 181.865 92.3424 182.347 91.7861Z" fill="#FFB8B8"/>
<path d="M157.421 145.936L153.768 145.936L152.031 131.88L157.421 131.88L157.421 145.936Z" fill="#FFB8B8"/>
<path d="M158.35 149.468L146.572 149.467V149.318C146.572 148.718 146.691 148.123 146.921 147.568C147.151 147.013 147.489 146.509 147.915 146.085C148.34 145.66 148.846 145.323 149.402 145.093C149.958 144.863 150.554 144.745 151.156 144.745L158.35 144.745L158.35 149.468Z" fill="#2F2E41"/>
<path d="M175.297 145.936L171.644 145.936L169.907 131.88L175.298 131.88L175.297 145.936Z" fill="#FFB8B8"/>
<path d="M176.226 149.468L164.448 149.467V149.318C164.448 148.718 164.567 148.123 164.797 147.568C165.028 147.013 165.365 146.509 165.791 146.085C166.217 145.66 166.722 145.323 167.278 145.093C167.835 144.863 168.431 144.745 169.033 144.745L176.226 144.745L176.226 149.468Z" fill="#2F2E41"/>
<path d="M157.802 138.594L152.631 138.387C152.278 138.372 151.946 138.219 151.705 137.961C151.464 137.704 151.335 137.362 151.345 137.01L152.801 89.3397L152.896 89.3055C161.958 86.035 169.455 86.2823 175.815 90.0604L175.886 90.1028L176.759 136.532C176.762 136.709 176.73 136.886 176.664 137.051C176.599 137.216 176.5 137.367 176.376 137.494C176.251 137.621 176.102 137.721 175.938 137.79C175.773 137.859 175.597 137.894 175.419 137.894H171.059C170.748 137.894 170.447 137.786 170.207 137.589C169.968 137.392 169.803 137.119 169.743 136.815L163.804 106.673C163.783 106.568 163.726 106.475 163.643 106.409C163.559 106.343 163.455 106.309 163.349 106.313C163.242 106.317 163.141 106.358 163.063 106.43C162.984 106.502 162.934 106.6 162.922 106.705L159.186 137.418C159.145 137.742 158.987 138.04 158.742 138.257C158.497 138.473 158.182 138.593 157.854 138.595C157.837 138.595 157.819 138.594 157.802 138.594Z" fill="#2F2E41"/>
<path d="M162.831 47.5344C166.873 47.5344 170.149 44.2659 170.149 40.234C170.149 36.2021 166.873 32.9336 162.831 32.9336C158.79 32.9336 155.514 36.2021 155.514 40.234C155.514 44.2659 158.79 47.5344 162.831 47.5344Z" fill="#FFB8B8"/>
<path d="M128.43 67.069C128.349 66.8091 128.348 66.5307 128.43 66.2707L129.188 63.8472C129.271 63.585 129.432 63.3545 129.65 63.1868C129.869 63.0191 130.133 62.9223 130.408 62.9096L140.009 62.4862L155.584 54.5207C156.125 54.3484 156.695 54.2841 157.26 54.3315C157.826 54.379 158.377 54.5372 158.881 54.7971C159.385 55.0571 159.833 55.4137 160.2 55.8465C160.566 56.2794 160.843 56.78 161.015 57.3197C161.187 57.8594 161.25 58.4277 161.202 58.992C161.154 59.5563 160.994 60.1055 160.733 60.6083C160.472 61.1111 160.114 61.5576 159.679 61.9222C159.245 62.2869 158.743 62.5625 158.202 62.7334L148.656 68.2569C145.76 69.9337 142.351 70.5037 139.064 69.8609L129.452 67.9819C129.267 67.9457 129.092 67.8711 128.938 67.7629C128.784 67.6547 128.654 67.5154 128.558 67.3541C128.504 67.2644 128.461 67.1687 128.43 67.069Z" fill="#CCCCCC"/>
<path d="M182.034 85.0588C181.777 85.1511 181.498 85.1631 181.234 85.0932L178.775 84.4408C178.509 84.3695 178.271 84.2185 178.094 84.008C177.917 83.7976 177.809 83.5379 177.784 83.2641L176.951 73.713L168.31 58.5276C168.115 57.996 168.026 57.4311 168.05 56.8653C168.073 56.2995 168.208 55.7438 168.447 55.2301C168.686 54.7164 169.024 54.2547 169.442 53.8714C169.859 53.4881 170.349 53.1907 170.882 52.9963C171.415 52.8019 171.981 52.7142 172.549 52.7383C173.116 52.7624 173.673 52.8977 174.187 53.1367C174.702 53.3756 175.164 53.7134 175.548 54.1307C175.932 54.5481 176.229 55.0368 176.423 55.5689L182.361 64.8477C184.164 67.6636 184.88 71.0369 184.376 74.3401L182.904 84.0016C182.876 84.1874 182.809 84.3651 182.707 84.5232C182.605 84.6813 182.471 84.8163 182.314 84.9193C182.226 84.9767 182.132 85.0235 182.034 85.0588Z" fill="#CCCCCC"/>
<path d="M154.825 53.2006C156.082 51.8255 157.632 50.7494 159.361 50.0518C161.091 49.3543 162.955 49.053 164.817 49.1702C164.939 49.1777 165.061 49.1862 165.182 49.1957C166.947 49.3349 168.661 49.8483 170.211 50.7016C171.76 51.5549 173.109 52.7284 174.168 54.1436C175.244 55.5787 176.001 57.2264 176.387 58.9766C176.774 60.7268 176.782 62.5392 176.41 64.2926C174.991 70.9935 175.35 77.9478 177.452 84.4677L179.415 90.5489C179.478 90.7437 179.495 90.9504 179.465 91.1529C179.435 91.3555 179.359 91.5485 179.243 91.7172C179.127 91.8858 178.973 92.0255 178.794 92.1256C178.615 92.2256 178.415 92.2833 178.21 92.2942L168.175 92.8325L165.606 88.4068V92.9703L153.409 93.6245C153.384 93.626 153.36 93.6265 153.336 93.6265C153.151 93.6265 152.968 93.5882 152.798 93.5141C152.629 93.4399 152.477 93.3316 152.351 93.1959C152.226 93.0601 152.13 92.8999 152.069 92.7254C152.009 92.5508 151.985 92.3657 152 92.1816L153.379 75.1257L151.65 63.5417C151.37 61.6908 151.51 59.8008 152.059 58.0111C152.609 56.2214 153.554 54.5775 154.825 53.2006Z" fill="#CCCCCC"/>
<path d="M167.916 47.2035C167.239 47.5924 164.561 47.8503 164.37 47.0941L164.366 47.0774C164.233 46.5234 164.344 45.9448 164.382 45.3763C164.42 44.8079 164.364 44.1835 163.976 43.7655C163.253 42.9864 161.966 43.3994 160.92 43.2024C160.307 43.066 159.765 42.7115 159.395 42.2053C159.026 41.699 158.854 41.0758 158.911 40.4521C158.926 40.334 158.95 40.2157 158.976 40.0975C159.041 39.798 159.036 39.4874 158.961 39.1902C158.886 38.893 158.743 38.6171 158.543 38.3844C158.343 38.1517 158.092 37.9683 157.809 37.8488C157.526 37.7292 157.219 37.6768 156.912 37.6955C155.855 37.7558 154.714 38.0753 153.839 37.2941C153.163 36.6901 152.998 35.1177 153.295 34.262C153.795 32.8238 156.994 32.071 158.391 31.6571C160.118 31.1591 161.935 31.0515 163.709 31.3419C165.484 31.6324 167.171 32.3137 168.648 33.3363C169.531 33.9567 170.355 34.7363 170.731 35.7456C171.107 36.755 170.925 38.0285 170.077 38.6948C170.735 39.3891 171.197 40.2435 171.419 41.1724C171.642 42.1013 171.615 43.0721 171.342 43.9875C170.924 45.3338 168.925 46.6246 167.916 47.2035Z" fill="#2F2E41"/>
<path d="M66.9213 47.5795H20.0679C19.464 47.5789 18.8852 47.3391 18.4584 46.9128C18.0317 46.4866 17.792 45.9088 17.792 45.3064C17.792 44.7039 18.0317 44.1261 18.4584 43.6999C18.8852 43.2737 19.464 43.0339 20.0679 43.0332H66.9213C67.5252 43.0339 68.104 43.2737 68.5308 43.6999C68.9575 44.1261 69.1972 44.7039 69.1972 45.3064C69.1972 45.9088 68.9575 46.4866 68.5308 46.9128C68.104 47.3391 67.5252 47.5789 66.9213 47.5795Z" fill="#6C63FF"/>
<path d="M95.8488 49.5163H15.4066C15.3276 49.5163 15.2518 49.485 15.1959 49.4293C15.14 49.3735 15.1086 49.2979 15.1086 49.2191C15.1086 49.1403 15.14 49.0647 15.1959 49.0089C15.2518 48.9532 15.3276 48.9219 15.4066 48.9219H95.8488C95.9279 48.9219 96.0036 48.9532 96.0595 49.0089C96.1154 49.0647 96.1468 49.1403 96.1468 49.2191C96.1468 49.2979 96.1154 49.3735 96.0595 49.4293C96.0036 49.485 95.9279 49.5163 95.8488 49.5163Z" fill="#3F3D56"/>
<path d="M66.9239 66.6157H20.0705C19.4662 66.6157 18.8867 66.3762 18.4594 65.9499C18.032 65.5236 17.792 64.9454 17.792 64.3425C17.792 63.7396 18.032 63.1614 18.4594 62.7351C18.8867 62.3088 19.4662 62.0693 20.0705 62.0693H66.9239C67.5278 62.07 68.1067 62.3098 68.5334 62.736C68.9601 63.1623 69.1998 63.7401 69.1998 64.3425C69.1998 64.9449 68.9601 65.5227 68.5334 65.949C68.1067 66.3752 67.5278 66.615 66.9239 66.6157Z" fill="#6C63FF"/>
<path d="M95.8493 68.5554H15.4071C15.328 68.5554 15.2523 68.5241 15.1964 68.4684C15.1405 68.4126 15.1091 68.337 15.1091 68.2582C15.1091 68.1793 15.1405 68.1037 15.1964 68.048C15.2523 67.9923 15.328 67.9609 15.4071 67.9609H95.8493C95.9284 67.9609 96.0041 67.9923 96.06 68.048C96.1159 68.1037 96.1473 68.1793 96.1473 68.2582C96.1473 68.337 96.1159 68.4126 96.06 68.4684C96.0041 68.5241 95.9284 68.5554 95.8493 68.5554Z" fill="#3F3D56"/>
<path d="M66.9239 85.6547H20.0705C19.4662 85.6547 18.8867 85.4152 18.4594 84.9889C18.032 84.5626 17.792 83.9844 17.792 83.3816C17.792 82.7787 18.032 82.2005 18.4594 81.7742C18.8867 81.3479 19.4662 81.1084 20.0705 81.1084H66.9239C67.5278 81.1091 68.1067 81.3489 68.5334 81.7751C68.9601 82.2013 69.1998 82.7791 69.1998 83.3816C69.1998 83.984 68.9601 84.5618 68.5334 84.988C68.1067 85.4142 67.5278 85.654 66.9239 85.6547Z" fill="#F2F2F2"/>
<path d="M95.8488 87.5954H15.4066C15.3276 87.5954 15.2518 87.5641 15.1959 87.5084C15.14 87.4527 15.1086 87.377 15.1086 87.2982C15.1086 87.2194 15.14 87.1438 15.1959 87.088C15.2518 87.0323 15.3276 87.001 15.4066 87.001H95.8488C95.9279 87.001 96.0036 87.0323 96.0595 87.088C96.1154 87.1438 96.1468 87.2194 96.1468 87.2982C96.1468 87.377 96.1154 87.4527 96.0595 87.5084C96.0036 87.5641 95.9279 87.5954 95.8488 87.5954Z" fill="#3F3D56"/>
</g>
<defs>
<clipPath id="clip0_7597_22821">
<rect width="220" height="150" fill="white"/>
</clipPath>
</defs>
</svg>
