<svg width="24" height="24" viewBox="0 0 24 24" fill="none" xmlns="http://www.w3.org/2000/svg">
<circle cx="12" cy="12" r="12" fill="#303548" fill-opacity="0.6"/>
<path d="M12.0017 15.9999C13.8931 15.9999 15.4302 14.4628 15.4302 12.5714V9.71422C15.4302 7.82279 13.8931 6.28564 12.0017 6.28564C10.1102 6.28564 8.57309 7.82279 8.57309 9.71422V12.5714C8.57309 14.4628 10.1102 15.9999 12.0017 15.9999Z" stroke="white" stroke-linecap="round" stroke-linejoin="round"/>
<path d="M6.85883 11.4282V12.5711C6.85883 15.4111 9.16168 17.7139 12.0017 17.7139C14.8417 17.7139 17.1445 15.4111 17.1445 12.5711V11.4282" stroke="white" stroke-linecap="round" stroke-linejoin="round"/>
<path d="M10.3503 9.41675C11.3674 9.04533 12.476 9.04533 13.4931 9.41675" stroke="white" stroke-linecap="round" stroke-linejoin="round"/>
<path d="M10.8759 11.1312C11.5617 10.9426 12.2874 10.9426 12.9731 11.1312" stroke="white" stroke-linecap="round" stroke-linejoin="round"/>
</svg>
