<svg width="24" height="24" viewBox="0 0 24 24" fill="none" xmlns="http://www.w3.org/2000/svg">
<circle cx="12" cy="12" r="12" fill="#FF3232"/>
<path d="M9.66663 11.854C9.42746 11.854 9.22913 11.6557 9.22913 11.4165V8.49984C9.22913 6.9715 10.4716 5.729 12 5.729C13.5283 5.729 14.7708 6.9715 14.7708 8.49984V8.67484C14.7708 8.914 14.5725 9.11234 14.3333 9.11234C14.0941 9.11234 13.8958 8.914 13.8958 8.67484V8.49984C13.8958 7.45567 13.0441 6.604 12 6.604C10.9558 6.604 10.1041 7.45567 10.1041 8.49984V11.4165C10.1041 11.6557 9.90579 11.854 9.66663 11.854Z" fill="white"/>
<path d="M12 14.479C11.2183 14.479 10.4716 14.1465 9.94663 13.569C9.7833 13.3882 9.8008 13.114 9.9758 12.9507C10.1566 12.7873 10.4308 12.8048 10.5941 12.9798C10.95 13.3765 11.4633 13.604 12 13.604C13.0441 13.604 13.8958 12.7523 13.8958 11.7082V11.4165C13.8958 11.1773 14.0941 10.979 14.3333 10.979C14.5725 10.979 14.7708 11.1773 14.7708 11.4165V11.7082C14.7708 13.2365 13.5283 14.479 12 14.479Z" fill="white"/>
<path d="M12.0001 16.5211C10.7576 16.5211 9.56756 16.0544 8.65756 15.2086C8.48256 15.0452 8.47089 14.7652 8.63422 14.5902C8.80339 14.4094 9.08339 14.4036 9.25839 14.5669C10.0051 15.2611 10.9792 15.6461 12.0001 15.6461C14.2167 15.6461 16.0251 13.8377 16.0251 11.6211V10.6294C16.0251 10.3902 16.2234 10.1919 16.4626 10.1919C16.7017 10.1919 16.9001 10.3902 16.9001 10.6294V11.6211C16.9001 14.3219 14.7009 16.5211 12.0001 16.5211Z" fill="white"/>
<path d="M7.88748 13.7969C7.71831 13.7969 7.55498 13.6977 7.48498 13.5286C7.22831 12.9219 7.09998 12.2861 7.09998 11.6211V10.6294C7.09998 10.3902 7.29831 10.1919 7.53748 10.1919C7.77664 10.1919 7.97498 10.3902 7.97498 10.6294V11.6211C7.97498 12.1636 8.07998 12.6886 8.28998 13.1844C8.38331 13.4061 8.27831 13.6627 8.05664 13.7561C8.00414 13.7852 7.94581 13.7969 7.88748 13.7969Z" fill="white"/>
<path d="M7.28663 16.5151C7.17579 16.5151 7.06496 16.4742 6.97746 16.3867C6.80829 16.2176 6.80829 15.9376 6.97746 15.7684L16.3983 6.34758C16.5675 6.17841 16.8475 6.17841 17.0166 6.34758C17.1858 6.51674 17.1858 6.79674 17.0166 6.96591L7.60163 16.3867C7.51413 16.4742 7.40329 16.5151 7.28663 16.5151Z" fill="white"/>
<path d="M11.4166 8.9375C11.1775 8.9375 10.9791 8.73917 10.9791 8.5V6.75C10.9791 6.51083 11.1775 6.3125 11.4166 6.3125C11.6558 6.3125 11.8541 6.51083 11.8541 6.75V8.5C11.8541 8.73917 11.6558 8.9375 11.4166 8.9375Z" fill="white"/>
<path d="M12 18.271C11.7608 18.271 11.5625 18.0727 11.5625 17.8335V16.0835C11.5625 15.8443 11.7608 15.646 12 15.646C12.2392 15.646 12.4375 15.8443 12.4375 16.0835V17.8335C12.4375 18.0727 12.2392 18.271 12 18.271Z" fill="white"/>
</svg>
