<svg width="20" height="20" viewBox="0 0 20 20" fill="none" xmlns="http://www.w3.org/2000/svg">
<path d="M17.8631 2.15198C17.4463 1.72416 16.8294 1.56477 16.2541 1.73255L2.84032 5.63326C2.23341 5.80187 1.80323 6.2859 1.68735 6.90079C1.56897 7.52658 1.98247 8.32098 2.52269 8.65317L6.71691 11.231C7.14709 11.4952 7.70231 11.429 8.05829 11.0699L12.8611 6.23724C13.1029 5.98559 13.503 5.98559 13.7448 6.23724C13.9866 6.48051 13.9866 6.87478 13.7448 7.12644L8.93365 11.96C8.57684 12.3182 8.51014 12.876 8.77275 13.3089L11.3355 17.5451C11.6356 18.0484 12.1525 18.3337 12.7194 18.3337C12.7861 18.3337 12.8611 18.3337 12.9278 18.3253C13.5781 18.2414 14.0949 17.7968 14.2867 17.1676L18.2633 3.77098C18.4384 3.20056 18.28 2.5798 17.8631 2.15198Z" fill="url(#paint0_linear_9562_13463)"/>
<defs>
<linearGradient id="paint0_linear_9562_13463" x1="21.8003" y1="-1.66634" x2="0.800324" y2="20.5003" gradientUnits="userSpaceOnUse">
<stop stop-color="#88EDFE"/>
<stop offset="0.489" stop-color="#625EFE"/>
<stop offset="1" stop-color="#C224FE"/>
</linearGradient>
</defs>
</svg>
